<?xml version="1.0" encoding="utf-8"?>
<!-- Generator: Adobe Illustrator 19.0.1, SVG Export Plug-In . SVG Version: 6.00 Build 0)  -->
<svg version="1.1" id="Layer_1" xmlns="http://www.w3.org/2000/svg" xmlns:xlink="http://www.w3.org/1999/xlink" x="0px" y="0px"
	 width="21.6px" height="25.1px" viewBox="-9.6 168.8 21.6 25.1" style="enable-background:new -9.6 168.8 21.6 25.1;"
	 xml:space="preserve">
<style type="text/css">
	.st0{fill:#13425F;}
	.st1{fill:#FF8064;}
	.st2{fill:#E4E7E7;}
	.st3{fill:#324D5B;}
	.st4{fill:#CDCFCF;}
</style>
<path class="st0" d="M-8,178.6h18.4c0.9,0,1.6,0.7,1.6,1.6v12.1c0,0.9-0.7,1.6-1.6,1.6H-8c-0.9,0-1.6-0.7-1.6-1.6v-12.1
	C-9.6,179.3-8.8,178.6-8,178.6z"/>
<path class="st0" d="M-8,177.8h18.4c0.9,0,1.6,0.7,1.6,1.6v0.8c0,0.9-0.7,1.6-1.6,1.6H-8c-0.9,0-1.6-0.7-1.6-1.6v-0.8
	C-9.6,178.5-8.8,177.8-8,177.8z"/>
<path class="st1" d="M-5.6,179c-1,0-1.8,0.4-1.8,0.8s0.8,0.8,1.8,0.8s1.8-0.4,1.8-0.8C-3.9,179.3-4.7,179-5.6,179z M8.1,179
	c-1,0-1.8,0.4-1.8,0.8s0.8,0.8,1.8,0.8s1.8-0.4,1.8-0.8C9.8,179.3,9.1,179,8.1,179z M1.2,184.8c1.6,0,2.9,1.3,2.9,2.9
	c0,1.6-1.3,2.9-2.9,2.9s-2.9-1.3-2.9-2.9C-1.7,186.1-0.4,184.8,1.2,184.8z"/>
<path class="st2" d="M1.2,185.6c1.2,0,2.2,1,2.2,2.2c0,1.2-1,2.2-2.2,2.2s-2.2-1-2.2-2.2C-0.9,186.6,0,185.6,1.2,185.6z"/>
<path class="st3" d="M1.2,186.8c0.2,0,0.4,0.2,0.4,0.4v1.2c0,0.2-0.2,0.4-0.4,0.4c-0.2,0-0.4-0.2-0.4-0.4v-1.2
	C0.8,187,1,186.8,1.2,186.8z"/>
<path class="st2" d="M1.2,168.8c-4.5,0-8.2,3.7-8.2,8.2v2.4c0,0.4,0.6,0.8,1.4,0.8s1.4-0.4,1.4-0.8V177c0-3,2.4-5.5,5.5-5.5
	s5.5,2.4,5.5,5.5v2.4c0,0.4,0.6,0.8,1.4,0.8c0.8,0,1.4-0.4,1.4-0.8V177C9.5,172.4,5.8,168.8,1.2,168.8z"/>
<path class="st4" d="M1.2,170.3c-3.7,0-6.7,3-6.7,6.7v3.1c0.7-0.1,1.2-0.4,1.2-0.8V177c0-3,2.4-5.5,5.5-5.5s5.5,2.4,5.5,5.5v2.4
	c0,0.4,0.5,0.7,1.2,0.8V177C7.9,173.3,4.9,170.3,1.2,170.3z"/>
</svg>
