<?xml version="1.0" encoding="utf-8"?>
<!-- Generator: Adobe Illustrator 19.0.1, SVG Export Plug-In . SVG Version: 6.00 Build 0)  -->
<svg version="1.1" id="Layer_1" xmlns="http://www.w3.org/2000/svg" xmlns:xlink="http://www.w3.org/1999/xlink" x="0px" y="0px"
	 width="19.7px" height="12.9px" viewBox="-952 201.1 19.7 12.9" style="enable-background:new -952 201.1 19.7 12.9;"
	 xml:space="preserve">
<style type="text/css">
	.st0{fill:#F5F5F5;}
	.st1{fill:#FF4B55;}
	.st2{fill:#41479B;}
</style>
<path class="st0" d="M-932.7,214h-19c-0.2,0-0.3-0.2-0.3-0.3v-12.2c0-0.2,0.2-0.3,0.3-0.3h19c0.2,0,0.3,0.2,0.3,0.3v12.2
	C-932.4,213.8-932.6,214-932.7,214z"/>
<g>
	<path class="st1" d="M-932.4,202.1h-19.7v-0.7c0-0.2,0.2-0.3,0.3-0.3h19c0.2,0,0.3,0.2,0.3,0.3L-932.4,202.1L-932.4,202.1z"/>
	<rect x="-952.1" y="205" class="st1" width="19.7" height="1"/>
	<rect x="-952.1" y="203.1" class="st1" width="19.7" height="1"/>
	<path class="st1" d="M-932.4,208h-19.4c-0.2,0-0.3-0.2-0.3-0.3V207h19.7V208z"/>
	<rect x="-952.1" y="211" class="st1" width="19.7" height="1"/>
	<path class="st1" d="M-932.7,214h-19c-0.2,0-0.3-0.2-0.3-0.3V213h19.7v0.7C-932.4,213.8-932.6,214-932.7,214z"/>
	<rect x="-952.1" y="209" class="st1" width="19.7" height="1"/>
</g>
<path class="st2" d="M-943.3,201.1h-8.5c-0.2,0-0.3,0.2-0.3,0.3v6.3c0,0.2,0.2,0.3,0.3,0.3h8.5c0.2,0,0.3-0.2,0.3-0.3v-6.3
	C-942.9,201.2-943.1,201.1-943.3,201.1z"/>
<g>
	<path class="st0" d="M-951.1,201.8l0.1,0.2h0.2c0,0,0,0,0,0.1l-0.2,0.1l0.1,0.2c0,0,0,0.1,0,0l-0.2-0.1l-0.2,0.1c0,0-0.1,0,0,0
		l0.1-0.2l-0.2-0.1V202h0.2L-951.1,201.8C-951.2,201.8-951.2,201.8-951.1,201.8z"/>
	<path class="st0" d="M-951.1,203l0.1,0.2h0.2c0,0,0,0,0,0.1l-0.2,0.1l0.1,0.2c0,0,0,0.1,0,0l-0.2-0.1l-0.2,0.1c0,0-0.1,0,0,0
		l0.1-0.2l-0.2-0.1v-0.1h0.2L-951.1,203C-951.2,203-951.2,203-951.1,203z"/>
	<path class="st0" d="M-951.1,204.2l0.1,0.2h0.2c0,0,0,0,0,0.1l-0.2,0.1l0.1,0.2c0,0,0,0.1,0,0l-0.2-0.1l-0.2,0.1c0,0-0.1,0,0,0
		l0.1-0.2l-0.2-0.1v-0.1h0.2L-951.1,204.2C-951.2,204.2-951.2,204.2-951.1,204.2z"/>
	<path class="st0" d="M-951.1,205.4l0.1,0.2h0.2c0,0,0,0,0,0.1l-0.2,0.1l0.1,0.2c0,0,0,0.1,0,0l-0.2-0.1l-0.2,0.1c0,0-0.1,0,0,0
		l0.1-0.2l-0.2-0.1v-0.1h0.2L-951.1,205.4C-951.2,205.4-951.2,205.4-951.1,205.4z"/>
	<path class="st0" d="M-951.1,206.6l0.1,0.2h0.2c0,0,0,0,0,0.1l-0.2,0.1l0.1,0.2c0,0,0,0.1,0,0l-0.2-0.1l-0.2,0.1c0,0-0.1,0,0,0
		l0.1-0.2l-0.2-0.1v-0.1h0.2L-951.1,206.6C-951.2,206.5-951.2,206.5-951.1,206.6z"/>
	<path class="st0" d="M-950.2,202.4l0.1,0.2h0.2c0,0,0,0,0,0.1l-0.2,0.1l0.1,0.2c0,0,0,0.1,0,0l-0.2-0.1l-0.2,0.1c0,0-0.1,0,0,0
		l0.1-0.2l-0.2-0.1v-0.1h0.2L-950.2,202.4C-950.3,202.4-950.2,202.4-950.2,202.4z"/>
	<path class="st0" d="M-950.2,203.6l0.1,0.2h0.2c0,0,0,0,0,0.1l-0.2,0.1l0.1,0.2c0,0,0,0.1,0,0l-0.2-0.1l-0.2,0.1c0,0-0.1,0,0,0
		l0.1-0.2l-0.2-0.1v-0.1h0.2L-950.2,203.6C-950.3,203.6-950.2,203.6-950.2,203.6z"/>
	<path class="st0" d="M-950.2,204.8l0.1,0.2h0.2c0,0,0,0,0,0.1l-0.2,0.1l0.1,0.2c0,0,0,0.1,0,0l-0.2-0.1l-0.2,0.1c0,0-0.1,0,0,0
		l0.1-0.2l-0.2-0.1V205h0.2L-950.2,204.8C-950.3,204.8-950.2,204.8-950.2,204.8z"/>
	<path class="st0" d="M-950.2,206l0.1,0.2h0.2c0,0,0,0,0,0.1l-0.2,0.1l0.1,0.2c0,0,0,0.1,0,0l-0.2-0.1l-0.2,0.1c0,0-0.1,0,0,0
		l0.1-0.2l-0.2-0.1v-0.1h0.2L-950.2,206C-950.3,205.9-950.2,205.9-950.2,206z"/>
	<path class="st0" d="M-949.3,201.8l0.1,0.2h0.2c0,0,0,0,0,0.1l-0.2,0.1l0.1,0.2c0,0,0,0.1,0,0l-0.2-0.1l-0.2,0.1c0,0-0.1,0,0,0
		l0.1-0.2l-0.2-0.1V202h0.2L-949.3,201.8C-949.4,201.8-949.3,201.8-949.3,201.8z"/>
	<path class="st0" d="M-949.3,203l0.1,0.2h0.2c0,0,0,0,0,0.1l-0.2,0.1l0.1,0.2c0,0,0,0.1,0,0l-0.2-0.1l-0.2,0.1c0,0-0.1,0,0,0
		l0.1-0.2l-0.2-0.1v-0.1h0.2L-949.3,203C-949.4,203-949.3,203-949.3,203z"/>
	<path class="st0" d="M-949.3,204.2l0.1,0.2h0.2c0,0,0,0,0,0.1l-0.2,0.1l0.1,0.2c0,0,0,0.1,0,0l-0.2-0.1l-0.2,0.1c0,0-0.1,0,0,0
		l0.1-0.2l-0.2-0.1v-0.1h0.2L-949.3,204.2C-949.4,204.2-949.3,204.2-949.3,204.2z"/>
	<path class="st0" d="M-949.3,205.4l0.1,0.2h0.2c0,0,0,0,0,0.1l-0.2,0.1l0.1,0.2c0,0,0,0.1,0,0l-0.2-0.1l-0.2,0.1c0,0-0.1,0,0,0
		l0.1-0.2l-0.2-0.1v-0.1h0.2L-949.3,205.4C-949.4,205.4-949.3,205.4-949.3,205.4z"/>
	<path class="st0" d="M-949.3,206.6l0.1,0.2h0.2c0,0,0,0,0,0.1l-0.2,0.1l0.1,0.2c0,0,0,0.1,0,0l-0.2-0.1l-0.2,0.1c0,0-0.1,0,0,0
		l0.1-0.2l-0.2-0.1v-0.1h0.2L-949.3,206.6C-949.4,206.5-949.3,206.5-949.3,206.6z"/>
	<path class="st0" d="M-948.4,202.4l0.1,0.2h0.2c0,0,0,0,0,0.1l-0.2,0.1l0.1,0.2c0,0,0,0.1,0,0l-0.2-0.1l-0.2,0.1c0,0-0.1,0,0,0
		l0.1-0.2l-0.2-0.1v-0.1h0.2L-948.4,202.4C-948.5,202.4-948.4,202.4-948.4,202.4z"/>
	<path class="st0" d="M-948.4,203.6l0.1,0.2h0.2c0,0,0,0,0,0.1l-0.2,0.1l0.1,0.2c0,0,0,0.1,0,0l-0.2-0.1l-0.2,0.1c0,0-0.1,0,0,0
		l0.1-0.2l-0.2-0.1v-0.1h0.2L-948.4,203.6C-948.5,203.6-948.4,203.6-948.4,203.6z"/>
	<path class="st0" d="M-948.4,204.8l0.1,0.2h0.2c0,0,0,0,0,0.1l-0.2,0.1l0.1,0.2c0,0,0,0.1,0,0l-0.2-0.1l-0.2,0.1c0,0-0.1,0,0,0
		l0.1-0.2l-0.2-0.1V205h0.2L-948.4,204.8C-948.5,204.8-948.4,204.8-948.4,204.8z"/>
	<path class="st0" d="M-948.4,206l0.1,0.2h0.2c0,0,0,0,0,0.1l-0.2,0.1l0.1,0.2c0,0,0,0.1,0,0l-0.2-0.1l-0.2,0.1c0,0-0.1,0,0,0
		l0.1-0.2l-0.2-0.1v-0.1h0.2L-948.4,206C-948.5,205.9-948.4,205.9-948.4,206z"/>
	<path class="st0" d="M-947.5,201.8l0.1,0.2h0.2c0,0,0,0,0,0.1l-0.2,0.1l0.1,0.2c0,0,0,0.1,0,0l-0.2-0.1l-0.2,0.1c0,0-0.1,0,0,0
		l0.1-0.2l-0.2-0.1V202h0.2L-947.5,201.8L-947.5,201.8z"/>
	<path class="st0" d="M-947.5,203l0.1,0.2h0.2c0,0,0,0,0,0.1l-0.2,0.1l0.1,0.2c0,0,0,0.1,0,0l-0.2-0.1l-0.2,0.1c0,0-0.1,0,0,0
		l0.1-0.2l-0.2-0.1v-0.1h0.2L-947.5,203L-947.5,203z"/>
	<path class="st0" d="M-947.5,204.2l0.1,0.2h0.2c0,0,0,0,0,0.1l-0.2,0.1l0.1,0.2c0,0,0,0.1,0,0l-0.2-0.1l-0.2,0.1c0,0-0.1,0,0,0
		l0.1-0.2l-0.2-0.1v-0.1h0.2L-947.5,204.2L-947.5,204.2z"/>
	<path class="st0" d="M-947.5,205.4l0.1,0.2h0.2c0,0,0,0,0,0.1l-0.2,0.1l0.1,0.2c0,0,0,0.1,0,0l-0.2-0.1l-0.2,0.1c0,0-0.1,0,0,0
		l0.1-0.2l-0.2-0.1v-0.1h0.2L-947.5,205.4L-947.5,205.4z"/>
	<path class="st0" d="M-947.5,206.6l0.1,0.2h0.2c0,0,0,0,0,0.1l-0.2,0.1l0.1,0.2c0,0,0,0.1,0,0l-0.2-0.1l-0.2,0.1c0,0-0.1,0,0,0
		l0.1-0.2l-0.2-0.1v-0.1h0.2L-947.5,206.6C-947.5,206.5-947.5,206.5-947.5,206.6z"/>
	<path class="st0" d="M-946.6,202.4l0.1,0.2h0.2c0,0,0,0,0,0.1l-0.2,0.1l0.1,0.2c0,0,0,0.1,0,0l-0.2-0.1l-0.2,0.1c0,0-0.1,0,0,0
		l0.1-0.2l-0.2-0.1v-0.1h0.2L-946.6,202.4L-946.6,202.4z"/>
	<path class="st0" d="M-946.6,203.6l0.1,0.2h0.2c0,0,0,0,0,0.1l-0.2,0.1l0.1,0.2c0,0,0,0.1,0,0l-0.2-0.1l-0.2,0.1c0,0-0.1,0,0,0
		l0.1-0.2l-0.2-0.1v-0.1h0.2L-946.6,203.6L-946.6,203.6z"/>
	<path class="st0" d="M-946.6,204.8l0.1,0.2h0.2c0,0,0,0,0,0.1l-0.2,0.1l0.1,0.2c0,0,0,0.1,0,0l-0.2-0.1l-0.2,0.1c0,0-0.1,0,0,0
		l0.1-0.2l-0.2-0.1V205h0.2L-946.6,204.8L-946.6,204.8z"/>
	<path class="st0" d="M-946.6,206l0.1,0.2h0.2c0,0,0,0,0,0.1l-0.2,0.1l0.1,0.2c0,0,0,0.1,0,0l-0.2-0.1l-0.2,0.1c0,0-0.1,0,0,0
		l0.1-0.2l-0.2-0.1v-0.1h0.2L-946.6,206C-946.6,205.9-946.6,205.9-946.6,206z"/>
	<path class="st0" d="M-945.7,201.8l0.1,0.2h0.2c0,0,0,0,0,0.1l-0.2,0.1l0.1,0.2c0,0,0,0.1,0,0l-0.2-0.1l-0.2,0.1c0,0-0.1,0,0,0
		l0.1-0.2l-0.2-0.1V202h0.2L-945.7,201.8L-945.7,201.8z"/>
	<path class="st0" d="M-945.7,203l0.1,0.2h0.2c0,0,0,0,0,0.1l-0.2,0.1l0.1,0.2c0,0,0,0.1,0,0l-0.2-0.1l-0.2,0.1c0,0-0.1,0,0,0
		l0.1-0.2l-0.2-0.1v-0.1h0.2L-945.7,203L-945.7,203z"/>
	<path class="st0" d="M-945.7,204.2l0.1,0.2h0.2c0,0,0,0,0,0.1l-0.2,0.1l0.1,0.2c0,0,0,0.1,0,0l-0.2-0.1l-0.2,0.1c0,0-0.1,0,0,0
		l0.1-0.2l-0.2-0.1v-0.1h0.2L-945.7,204.2L-945.7,204.2z"/>
	<path class="st0" d="M-945.7,205.4l0.1,0.2h0.2c0,0,0,0,0,0.1l-0.2,0.1l0.1,0.2c0,0,0,0.1,0,0l-0.2-0.1l-0.2,0.1c0,0-0.1,0,0,0
		l0.1-0.2l-0.2-0.1v-0.1h0.2L-945.7,205.4L-945.7,205.4z"/>
	<path class="st0" d="M-945.7,206.6l0.1,0.2h0.2c0,0,0,0,0,0.1l-0.2,0.1l0.1,0.2c0,0,0,0.1,0,0l-0.2-0.1l-0.2,0.1c0,0-0.1,0,0,0
		l0.1-0.2l-0.2-0.1v-0.1h0.2L-945.7,206.6C-945.7,206.5-945.7,206.5-945.7,206.6z"/>
	<path class="st0" d="M-944.7,202.4l0.1,0.2h0.2c0,0,0,0,0,0.1l-0.2,0.1l0.1,0.2c0,0,0,0.1,0,0l-0.2-0.1l-0.2,0.1c0,0-0.1,0,0,0
		l0.1-0.2l-0.2-0.1v-0.1h0.2L-944.7,202.4C-944.8,202.4-944.8,202.4-944.7,202.4z"/>
	<path class="st0" d="M-944.7,203.6l0.1,0.2h0.2c0,0,0,0,0,0.1l-0.2,0.1l0.1,0.2c0,0,0,0.1,0,0l-0.2-0.1l-0.2,0.1c0,0-0.1,0,0,0
		l0.1-0.2l-0.3-0.1v-0.1h0.2L-944.7,203.6C-944.8,203.6-944.8,203.6-944.7,203.6z"/>
	<path class="st0" d="M-944.7,204.8l0.1,0.2h0.2c0,0,0,0,0,0.1l-0.2,0.1l0.1,0.2c0,0,0,0.1,0,0l-0.2-0.1l-0.2,0.1c0,0-0.1,0,0,0
		l0.1-0.2l-0.2-0.1V205h0.2L-944.7,204.8C-944.8,204.8-944.8,204.8-944.7,204.8z"/>
	<path class="st0" d="M-944.7,206l0.1,0.2h0.2c0,0,0,0,0,0.1l-0.2,0.1l0.1,0.2c0,0,0,0.1,0,0l-0.2-0.1l-0.2,0.1c0,0-0.1,0,0,0
		l0.1-0.2l-0.2-0.1v-0.1h0.2L-944.7,206C-944.8,205.9-944.8,205.9-944.7,206z"/>
	<path class="st0" d="M-943.8,201.8l0.1,0.2h0.2c0,0,0,0,0,0.1l-0.2,0.1l0.1,0.2c0,0,0,0.1,0,0l-0.2-0.1l-0.2,0.1c0,0-0.1,0,0,0
		l0.1-0.2l-0.2-0.1V202h0.2L-943.8,201.8C-943.9,201.8-943.8,201.8-943.8,201.8z"/>
	<path class="st0" d="M-943.8,203l0.1,0.2h0.2c0,0,0,0,0,0.1l-0.2,0.1l0.1,0.2c0,0,0,0.1,0,0l-0.2-0.1l-0.2,0.1c0,0-0.1,0,0,0
		l0.1-0.2l-0.2-0.1v-0.1h0.2L-943.8,203C-943.9,203-943.8,203-943.8,203z"/>
	<path class="st0" d="M-943.8,204.2l0.1,0.2h0.2c0,0,0,0,0,0.1l-0.2,0.1l0.1,0.2c0,0,0,0.1,0,0l-0.2-0.1l-0.2,0.1c0,0-0.1,0,0,0
		l0.1-0.2l-0.2-0.1v-0.1h0.2L-943.8,204.2C-943.9,204.2-943.8,204.2-943.8,204.2z"/>
	<path class="st0" d="M-943.8,205.4l0.1,0.2h0.2c0,0,0,0,0,0.1l-0.2,0.1l0.1,0.2c0,0,0,0.1,0,0l-0.2-0.1l-0.2,0.1c0,0-0.1,0,0,0
		l0.1-0.2l-0.2-0.1v-0.1h0.2L-943.8,205.4C-943.9,205.4-943.8,205.4-943.8,205.4z"/>
	<path class="st0" d="M-943.8,206.6l0.1,0.2h0.2c0,0,0,0,0,0.1l-0.2,0.1l0.1,0.2c0,0,0,0.1,0,0l-0.2-0.1l-0.2,0.1c0,0-0.1,0,0,0
		l0.1-0.2l-0.2-0.1v-0.1h0.2L-943.8,206.6C-943.9,206.5-943.8,206.5-943.8,206.6z"/>
</g>
</svg>
