<svg version="1.1" xmlns="http://www.w3.org/2000/svg" xmlns:xlink="http://www.w3.org/1999/xlink" width="58" height="39" viewBox="0 0 58 39">
<path id="icon-visa-2" d="M49.676,22.287 C49.676,22.287 49.500,21.483 48.722,17.640 C48.722,17.640 48.420,16.259 48.420,16.259 C48.219,16.862 47.843,17.816 47.868,17.791 C46.562,21.357 46.210,22.287 46.210,22.287 C47.039,22.287 49.023,22.287 49.676,22.287 zM13.409,20.654 C11.701,15.907 7.908,13.396 3.287,12.215 C3.287,12.215 3.337,11.889 3.337,11.889 C3.337,11.889 10.068,11.889 10.068,11.889 C10.972,11.889 11.751,12.215 11.952,13.245 C11.952,13.245 13.409,20.654 13.409,20.654 zM17.904,11.889 L22.325,11.889 L15.770,27.988 L11.374,27.988 C11.374,27.988 7.984,15.179 7.984,15.179 C10.395,16.158 12.530,18.318 13.409,20.654 C13.409,20.654 13.836,22.889 13.836,22.889 L17.904,11.889 zM21.395,28.013 L24.008,11.889 L28.177,11.889 L25.565,28.013 L21.395,28.013 zM40.685,12.291 C40.685,12.291 40.107,15.782 40.107,15.782 C40.107,15.782 39.730,15.581 39.730,15.581 C38.977,15.229 37.972,14.953 36.616,14.978 C34.983,14.978 34.230,15.681 34.230,16.359 C34.230,17.113 35.109,17.640 36.566,18.369 C38.952,19.524 40.082,20.905 40.082,22.739 C40.032,26.079 37.193,28.264 32.823,28.239 C30.940,28.239 29.156,27.837 28.177,27.385 C28.177,27.385 28.754,23.769 28.754,23.769 C28.754,23.769 29.307,24.045 29.307,24.045 C30.638,24.673 31.542,24.874 33.225,24.874 C34.406,24.874 35.712,24.396 35.712,23.316 C35.712,22.613 35.184,22.086 33.552,21.307 C31.969,20.529 29.885,19.248 29.910,16.937 C29.935,13.797 32.823,11.612 36.942,11.612 C38.550,11.612 39.856,11.964 40.685,12.291 zM51.359,11.889 L54.724,28.013 C54.724,28.013 50.857,28.013 50.857,28.013 C50.480,26.155 50.354,25.602 50.354,25.602 C49.751,25.602 45.507,25.602 45.030,25.602 C45.030,25.602 44.854,26.029 44.151,28.013 C44.151,28.013 39.780,28.013 39.780,28.013 C39.780,28.013 45.959,13.245 45.959,13.245 C46.386,12.190 47.139,11.889 48.144,11.889 C48.144,11.889 51.359,11.889 51.359,11.889 zM57.939,3.852 C57.939,2.093 56.482,0.637 54.724,0.637 C54.724,0.637 3.287,0.637 3.287,0.637 C1.529,0.637 0.072,2.093 0.072,3.852 C0.072,3.852 0.072,36.000 0.072,36.000 C0.072,37.758 1.529,39.215 3.287,39.215 C3.287,39.215 54.724,39.215 54.724,39.215 C56.482,39.215 57.939,37.758 57.939,36.000 C57.939,36.000 57.939,3.852 57.939,3.852 z" fill="#13425F" />
</svg>
