<svg version="1.1" xmlns="http://www.w3.org/2000/svg" xmlns:xlink="http://www.w3.org/1999/xlink" width="59" height="39" viewBox="0 0 59 39">
<path id="icon-mastercard-" d="M28.177,5.986 C21.496,11.462 21.446,21.784 28.177,27.260 C26.092,28.641 23.631,29.395 21.119,29.395 C14.062,29.395 8.335,23.668 8.335,16.610 C8.335,9.578 14.062,3.852 21.119,3.852 C23.631,3.852 26.092,4.605 28.177,5.986 zM29.006,6.589 C35.486,11.688 35.511,21.583 29.006,26.657 C22.501,21.583 22.526,11.688 29.006,6.589 zM29.834,5.986 C31.919,4.605 34.380,3.852 36.892,3.852 C43.950,3.852 49.676,9.578 49.676,16.610 C49.676,23.668 43.950,29.395 36.892,29.395 C34.406,29.395 31.919,28.641 29.834,27.260 C36.591,21.809 36.490,11.462 29.834,5.986 zM48.445,24.120 L48.445,24.547 L48.370,24.547 L48.370,24.120 L48.194,24.120 L48.194,24.045 L48.621,24.045 L48.621,24.120 L48.445,24.120 zM49.174,24.547 L49.174,24.170 L49.048,24.497 L48.948,24.497 L48.797,24.170 L48.797,24.547 L48.722,24.547 L48.722,24.045 L48.847,24.045 L48.998,24.371 L49.149,24.045 L49.274,24.045 L49.274,24.547 L49.174,24.547 zM48.973,35.598 C48.973,35.598 48.973,35.573 48.973,35.573 C48.948,35.573 48.948,35.573 48.923,35.573 C48.923,35.573 48.847,35.573 48.847,35.573 L48.847,35.648 C48.847,35.648 48.923,35.648 48.923,35.648 C48.948,35.648 48.948,35.648 48.973,35.648 C48.973,35.623 48.973,35.623 48.973,35.598 zM48.973,35.824 L48.872,35.699 L48.847,35.699 L48.847,35.824 L48.772,35.824 L48.772,35.498 C48.772,35.498 48.923,35.498 48.923,35.498 C48.973,35.498 48.998,35.523 49.023,35.523 C49.048,35.548 49.048,35.573 49.048,35.598 C49.048,35.623 49.048,35.648 49.023,35.673 C48.998,35.673 48.998,35.699 48.948,35.699 C48.948,35.699 49.048,35.824 49.048,35.824 L48.973,35.824 zM17.276,34.116 C17.276,34.719 17.653,35.196 18.306,35.196 C18.909,35.196 19.311,34.744 19.311,34.116 C19.311,33.514 18.909,33.036 18.306,33.036 C17.653,33.036 17.276,33.514 17.276,34.116 zM29.156,33.011 C28.654,33.011 28.353,33.338 28.277,33.815 C28.277,33.815 30.035,33.815 30.035,33.815 C29.960,33.287 29.634,33.011 29.156,33.011 zM38.098,34.116 C38.098,34.719 38.474,35.196 39.102,35.196 C39.730,35.196 40.132,34.744 40.132,34.116 C40.132,33.514 39.730,33.036 39.102,33.036 C38.474,33.036 38.098,33.514 38.098,34.116 zM44.929,34.116 C44.929,34.719 45.331,35.196 45.959,35.196 C46.562,35.196 46.989,34.744 46.989,34.116 C46.989,33.514 46.562,33.036 45.959,33.036 C45.331,33.036 44.929,33.514 44.929,34.116 zM48.897,35.925 C48.948,35.925 48.973,35.925 48.998,35.900 C49.048,35.900 49.073,35.874 49.098,35.849 C49.124,35.824 49.124,35.799 49.149,35.774 C49.149,35.724 49.174,35.699 49.174,35.673 C49.174,35.623 49.149,35.598 49.149,35.573 C49.124,35.523 49.124,35.498 49.098,35.473 C49.073,35.447 49.048,35.447 48.998,35.422 C48.973,35.397 48.948,35.397 48.897,35.397 C48.872,35.397 48.847,35.397 48.797,35.422 C48.772,35.447 48.747,35.447 48.722,35.473 C48.697,35.498 48.671,35.523 48.671,35.573 C48.646,35.598 48.646,35.623 48.646,35.673 C48.646,35.699 48.646,35.724 48.671,35.774 C48.671,35.799 48.697,35.824 48.722,35.849 C48.747,35.874 48.772,35.900 48.797,35.900 C48.847,35.925 48.872,35.925 48.897,35.925 zM15.116,35.824 C15.116,35.824 15.116,33.940 15.116,33.940 C15.116,33.363 14.865,33.036 14.363,33.036 C13.886,33.036 13.534,33.338 13.534,33.940 C13.534,33.940 13.534,35.824 13.534,35.824 L12.806,35.824 C12.806,35.824 12.806,33.940 12.806,33.940 C12.806,33.363 12.555,33.036 12.052,33.036 C11.550,33.036 11.224,33.338 11.224,33.940 C11.224,33.940 11.224,35.824 11.224,35.824 L10.470,35.824 L10.470,32.434 L11.224,32.434 C11.224,32.434 11.224,32.835 11.224,32.835 C11.500,32.459 11.851,32.333 12.203,32.333 C12.730,32.333 13.107,32.559 13.333,32.936 C13.635,32.459 14.087,32.333 14.514,32.333 C15.343,32.358 15.870,32.886 15.870,33.689 C15.870,33.689 15.870,35.824 15.870,35.824 L15.116,35.824 zM19.286,35.824 C19.286,35.824 19.286,35.397 19.286,35.397 C19.035,35.724 18.683,35.900 18.206,35.900 C17.251,35.900 16.523,35.146 16.523,34.116 C16.523,33.087 17.251,32.333 18.206,32.333 C18.683,32.333 19.035,32.534 19.286,32.835 C19.286,32.835 19.286,32.434 19.286,32.434 L20.014,32.434 L20.014,34.116 L20.014,35.824 L19.286,35.824 zM23.756,34.794 C23.756,35.447 23.179,35.900 22.199,35.900 C21.647,35.900 21.144,35.749 20.742,35.473 C20.742,35.473 21.069,34.895 21.069,34.895 C21.320,35.071 21.697,35.247 22.199,35.247 C22.702,35.247 22.978,35.096 22.978,34.820 C22.978,34.644 22.802,34.543 22.375,34.468 C22.375,34.468 22.048,34.418 22.048,34.418 C21.270,34.317 20.868,33.991 20.868,33.438 C20.868,32.760 21.421,32.333 22.275,32.333 C22.827,32.333 23.304,32.459 23.656,32.685 C23.656,32.685 23.355,33.287 23.355,33.287 C23.128,33.162 22.727,33.011 22.275,33.011 C21.873,33.011 21.647,33.162 21.647,33.388 C21.647,33.614 21.898,33.689 22.224,33.740 C22.224,33.740 22.576,33.790 22.576,33.790 C23.304,33.890 23.756,34.192 23.756,34.794 zM27.021,35.648 C26.795,35.799 26.419,35.900 26.117,35.900 C25.238,35.900 24.937,35.422 24.937,34.644 C24.937,34.644 24.937,33.112 24.937,33.112 L24.234,33.112 L24.234,32.434 L24.937,32.434 L24.937,31.404 L25.690,31.404 L25.690,32.434 L26.896,32.434 L26.896,33.112 L25.690,33.112 C25.690,33.112 25.690,34.644 25.690,34.644 C25.690,34.970 25.791,35.196 26.168,35.196 C26.368,35.196 26.594,35.146 26.821,35.020 C26.821,35.020 27.021,35.648 27.021,35.648 zM29.181,32.333 C30.136,32.333 30.789,33.061 30.789,34.116 C30.789,34.217 30.789,34.317 30.789,34.418 C30.789,34.418 28.252,34.418 28.252,34.418 C28.378,35.020 28.805,35.247 29.282,35.247 C29.608,35.247 29.985,35.096 30.261,34.870 C30.261,34.870 30.613,35.422 30.613,35.422 C30.211,35.774 29.734,35.900 29.232,35.900 C28.227,35.900 27.499,35.196 27.499,34.116 C27.499,33.061 28.202,32.333 29.181,32.333 zM33.175,32.333 C33.326,32.333 33.526,32.358 33.702,32.434 C33.702,32.434 33.476,33.137 33.476,33.137 C33.326,33.061 33.175,33.036 33.024,33.036 C32.522,33.036 32.296,33.363 32.296,33.915 C32.296,33.915 32.296,35.824 32.296,35.824 L31.542,35.824 L31.542,32.434 L32.296,32.434 C32.296,32.434 32.296,32.835 32.296,32.835 C32.472,32.534 32.748,32.333 33.175,32.333 zM33.928,34.116 C33.928,33.087 34.632,32.333 35.737,32.333 C36.239,32.333 36.591,32.459 36.942,32.735 C36.942,32.735 36.591,33.338 36.591,33.338 C36.314,33.137 36.038,33.036 35.712,33.036 C35.109,33.036 34.682,33.463 34.682,34.116 C34.682,34.769 35.109,35.196 35.712,35.196 C36.038,35.221 36.314,35.096 36.591,34.895 C36.591,34.895 36.942,35.498 36.942,35.498 C36.591,35.799 36.239,35.900 35.737,35.900 C34.632,35.900 33.928,35.146 33.928,34.116 zM40.082,35.824 C40.082,35.824 40.082,35.397 40.082,35.397 C39.856,35.724 39.504,35.900 39.027,35.900 C38.072,35.900 37.319,35.146 37.319,34.116 C37.319,33.087 38.072,32.333 39.027,32.333 C39.504,32.333 39.856,32.534 40.082,32.835 C40.082,32.835 40.082,32.434 40.082,32.434 L40.835,32.434 L40.835,34.116 L40.835,35.824 L40.082,35.824 zM43.422,32.333 C43.573,32.333 43.799,32.358 43.950,32.434 C43.950,32.434 43.724,33.137 43.724,33.137 C43.573,33.061 43.422,33.036 43.271,33.036 C42.794,33.036 42.543,33.363 42.543,33.915 C42.543,33.915 42.543,35.824 42.543,35.824 L41.815,35.824 L41.815,32.434 L42.543,32.434 C42.543,32.434 42.543,32.835 42.543,32.835 C42.719,32.534 42.995,32.333 43.422,32.333 zM46.938,35.824 C46.938,35.824 46.938,35.397 46.938,35.397 C46.712,35.724 46.361,35.900 45.858,35.900 C44.929,35.900 44.176,35.146 44.176,34.116 C44.176,33.087 44.929,32.333 45.858,32.333 C46.361,32.333 46.712,32.534 46.938,32.835 C46.938,32.835 46.938,31.052 46.938,31.052 L47.667,31.052 L47.667,34.116 L47.667,35.824 L46.938,35.824 zM48.897,35.322 C48.948,35.322 48.998,35.347 49.048,35.347 C49.073,35.372 49.124,35.397 49.149,35.422 C49.174,35.447 49.199,35.498 49.224,35.523 C49.249,35.573 49.249,35.623 49.249,35.673 C49.249,35.699 49.249,35.749 49.224,35.799 C49.199,35.824 49.174,35.874 49.149,35.900 C49.124,35.925 49.073,35.950 49.048,35.975 C48.998,36.000 48.948,36.000 48.897,36.000 C48.872,36.000 48.822,36.000 48.772,35.975 C48.722,35.950 48.697,35.925 48.671,35.900 C48.621,35.874 48.596,35.824 48.596,35.799 C48.571,35.749 48.571,35.699 48.571,35.673 C48.571,35.623 48.571,35.573 48.596,35.523 C48.596,35.498 48.621,35.447 48.671,35.422 C48.697,35.397 48.722,35.372 48.772,35.347 C48.822,35.347 48.872,35.322 48.897,35.322 zM57.939,3.852 C57.939,2.093 56.482,0.637 54.724,0.637 C54.724,0.637 3.287,0.637 3.287,0.637 C1.529,0.637 0.072,2.093 0.072,3.852 C0.072,3.852 0.072,36.000 0.072,36.000 C0.072,37.758 1.529,39.215 3.287,39.215 C3.287,39.215 54.724,39.215 54.724,39.215 C56.482,39.215 57.939,37.758 57.939,36.000 C57.939,36.000 57.939,3.852 57.939,3.852 z" fill="#13425F" />
</svg>
