<?xml version="1.0" encoding="utf-8"?>
<!-- Generator: Adobe Illustrator 19.0.1, SVG Export Plug-In . SVG Version: 6.00 Build 0)  -->
<svg version="1.1" id="Capa_1" xmlns="http://www.w3.org/2000/svg" xmlns:xlink="http://www.w3.org/1999/xlink" x="0px" y="0px"
	 width="42px" height="45.1px" viewBox="-941 185.9 42 45.1" style="enable-background:new -941 185.9 42 45.1;"
	 xml:space="preserve">
<style type="text/css">
	.st0{fill:#13425F;}
	.st1{fill:#2F3644;}
	.st2{fill:#FFFFFF;}
	.st3{fill:#10364C;}
	.st4{fill:#D5D0BB;}
	.st5{fill:#26B999;}
</style>
<g>
	<g>
		<polygon class="st0" points="-916.1,187.4 -919.2,187.4 -919.2,189.8 -926.2,189.8 -926.2,187.4 -929.3,187.4 -941,187.4 
			-941,231 -904.4,231 -904.4,187.4 		"/>
		<rect x="-926.2" y="185.9" class="st1" width="7" height="3.9"/>
		<polygon class="st2" points="-913.8,189.8 -913.8,192.1 -931.7,192.1 -931.7,189.8 -938.7,189.8 -938.7,228.7 -906.8,228.7 
			-906.8,189.8 		"/>
		<polygon class="st3" points="-919.2,187.4 -919.2,189.8 -926.2,189.8 -926.2,187.4 -931.7,187.4 -931.7,192.1 -913.8,192.1 
			-913.8,187.4 		"/>
		<path class="st4" d="M-923.9,198.3H-934c-0.4,0-0.8-0.3-0.8-0.8s0.3-0.8,0.8-0.8h10.1c0.4,0,0.8,0.3,0.8,0.8
			S-923.5,198.3-923.9,198.3z"/>
		<path class="st4" d="M-923.9,222.4H-934c-0.4,0-0.8-0.3-0.8-0.8s0.3-0.8,0.8-0.8h10.1c0.4,0,0.8,0.3,0.8,0.8
			S-923.5,222.4-923.9,222.4z"/>
		<path class="st4" d="M-911.4,203H-934c-0.4,0-0.8-0.3-0.8-0.8s0.3-0.8,0.8-0.8h22.6c0.4,0,0.8,0.3,0.8,0.8S-911,203-911.4,203z"/>
		<path class="st4" d="M-911.4,212.3H-934c-0.4,0-0.8-0.3-0.8-0.8s0.3-0.8,0.8-0.8h22.6c0.4,0,0.8,0.3,0.8,0.8
			S-911,212.3-911.4,212.3z"/>
		<path class="st4" d="M-911.4,217.8H-934c-0.4,0-0.8-0.3-0.8-0.8s0.3-0.8,0.8-0.8h22.6c0.4,0,0.8,0.3,0.8,0.8
			S-911,217.8-911.4,217.8z"/>
		<path class="st4" d="M-923.1,207.7H-934c-0.4,0-0.8-0.3-0.8-0.8s0.3-0.8,0.8-0.8h10.9c0.4,0,0.8,0.3,0.8,0.8
			S-922.7,207.7-923.1,207.7z"/>
		<path class="st4" d="M-911.4,207.7h-5.4c-0.4,0-0.8-0.3-0.8-0.8s0.3-0.8,0.8-0.8h5.4c0.4,0,0.8,0.3,0.8,0.8
			S-911,207.7-911.4,207.7z"/>
		<path class="st4" d="M-920,207.7c-0.2,0-0.4-0.1-0.6-0.2c-0.1-0.1-0.2-0.4-0.2-0.6s0.1-0.4,0.2-0.6c0.3-0.3,0.8-0.3,1.1,0
			c0.1,0.1,0.2,0.3,0.2,0.6c0,0.2-0.1,0.4-0.2,0.6C-919.6,207.6-919.8,207.7-920,207.7z"/>
	</g>
	<g>
		<circle class="st5" cx="-908.3" cy="221.7" r="9.3"/>
		<path class="st2" d="M-903.2,217.1c-0.4-0.2-0.8-0.2-1.1,0.2l-4.4,6.3l-3.1-2.5c-0.3-0.3-0.8-0.2-1.1,0.1
			c-0.3,0.3-0.2,0.8,0.1,1.1l3.7,3.1c0.1,0.1,0.3,0.2,0.5,0.2h0.1c0.2,0,0.4-0.1,0.5-0.3l4.8-6.9
			C-902.8,217.9-902.9,217.4-903.2,217.1z"/>
	</g>
</g>
</svg>
