<svg version="1.1" xmlns="http://www.w3.org/2000/svg" xmlns:xlink="http://www.w3.org/1999/xlink" width="58" height="39" viewBox="0 0 58 39">
<path id="iconamerican-2" d="M3.061,14.551 L4.166,11.838 L5.296,14.551 L3.061,14.551 zM18.658,27.762 L14.664,27.762 L14.664,26.406 L18.231,26.406 L18.231,25.024 L14.664,25.024 L14.664,23.794 L18.758,23.794 L20.516,25.778 L18.658,27.762 zM22.626,25.803 L25.113,23.116 L25.113,28.566 L22.626,25.803 zM29.860,24.622 C29.860,25.250 29.407,25.527 28.830,25.527 C28.830,25.527 26.745,25.527 26.745,25.527 L26.745,23.794 C26.745,23.794 28.855,23.794 28.855,23.794 C29.407,23.794 29.860,24.020 29.860,24.622 zM37.118,24.522 C37.118,25.200 36.591,25.326 36.038,25.326 C36.038,25.326 34.004,25.326 34.004,25.326 L34.004,23.794 C34.004,23.794 36.063,23.794 36.063,23.794 C36.566,23.794 37.118,23.894 37.118,24.522 zM30.136,12.818 C30.136,13.471 29.608,13.597 29.056,13.597 C29.056,13.597 27.021,13.597 27.021,13.597 L27.021,12.090 C27.021,12.090 29.081,12.090 29.081,12.090 C29.583,12.090 30.136,12.190 30.136,12.818 zM41.664,14.551 L42.794,11.838 L43.899,14.551 L41.664,14.551 zM17.628,10.658 L14.916,10.658 L12.982,15.279 L10.847,10.658 L8.184,10.658 L8.184,17.113 L5.422,10.658 L3.011,10.658 L0.097,17.464 L1.855,17.464 L2.483,15.957 L5.874,15.957 L6.502,17.464 L9.817,17.464 L9.817,12.140 L12.178,17.464 L13.610,17.464 L15.970,12.140 L15.970,17.464 L17.628,17.464 L17.628,10.658 zM31.593,24.622 C31.593,22.915 30.387,22.387 28.855,22.387 C28.855,22.387 23.656,22.387 23.656,22.387 L21.596,24.622 L19.587,22.387 L13.057,22.387 L13.057,29.194 L19.487,29.194 L21.571,26.933 L23.581,29.194 L26.745,29.194 C26.745,29.194 26.745,26.908 26.745,26.908 C28.604,26.908 31.593,27.360 31.593,24.622 zM24.284,16.058 L20.466,16.058 L20.466,14.702 L24.183,14.702 L24.183,13.320 L20.466,13.320 L20.466,12.090 L24.284,12.090 L24.284,10.658 L18.834,10.658 L18.834,17.464 L24.284,17.464 L24.284,16.058 zM57.939,30.098 C57.211,30.449 56.357,30.525 55.553,30.525 C55.553,30.525 51.334,30.525 51.334,30.525 C51.334,30.525 51.334,29.922 51.334,29.922 C50.756,30.374 49.852,30.525 49.124,30.525 C49.124,30.525 35.837,30.525 35.837,30.525 C35.837,30.525 35.837,28.340 35.837,28.340 C35.837,28.063 35.787,28.038 35.536,28.038 C35.536,28.038 35.335,28.038 35.335,28.038 L35.335,30.525 L30.965,30.525 C30.965,30.525 30.965,27.963 30.965,27.963 C30.236,28.264 29.458,28.289 28.704,28.289 C28.704,28.289 28.177,28.289 28.177,28.289 L28.177,30.525 L22.877,30.525 L21.571,29.043 L20.190,30.525 L11.575,30.525 L11.575,21.031 L20.341,21.031 L21.596,22.488 L22.953,21.031 C22.953,21.031 28.830,21.031 28.830,21.031 C29.508,21.031 30.588,21.081 31.115,21.583 C31.115,21.583 31.115,21.031 31.115,21.031 C31.115,21.031 36.365,21.031 36.365,21.031 C37.068,21.031 37.947,21.156 38.550,21.583 C38.550,21.583 38.550,21.031 38.550,21.031 L46.486,21.031 C46.486,21.031 46.486,21.583 46.486,21.583 C46.964,21.131 47.817,21.031 48.445,21.031 C48.445,21.031 52.891,21.031 52.891,21.031 C52.891,21.031 52.891,21.583 52.891,21.583 C53.469,21.156 54.222,21.031 54.925,21.031 C54.925,21.031 57.939,21.031 57.939,21.031 C57.939,21.031 57.939,4.002 57.939,4.002 C57.939,2.169 56.457,0.637 54.624,0.637 C54.624,0.637 3.387,0.637 3.387,0.637 C1.554,0.637 0.072,2.169 0.072,4.002 C0.072,4.002 0.072,13.823 0.072,13.823 L2.031,9.327 L6.276,9.327 L6.828,10.432 L6.828,9.327 L11.801,9.327 L12.881,11.763 L13.961,9.327 C13.961,9.327 29.734,9.327 29.734,9.327 C30.387,9.327 31.065,9.427 31.567,9.879 C31.567,9.879 31.567,9.327 31.567,9.327 L35.887,9.327 C35.887,9.327 35.887,9.879 35.887,9.879 C36.716,9.427 37.696,9.327 38.625,9.327 C38.625,9.327 44.879,9.327 44.879,9.327 L45.457,10.432 L45.457,9.327 L50.103,9.327 L50.731,10.432 L50.731,9.327 L55.252,9.327 L55.252,18.821 L50.681,18.821 L49.827,17.364 L49.827,18.821 L44.125,18.821 L43.498,17.289 L42.091,17.289 C42.091,17.289 41.463,18.821 41.463,18.821 C39.755,18.821 37.520,19.097 35.887,18.243 C35.887,18.243 35.887,18.821 35.887,18.821 L28.880,18.821 C28.880,18.821 28.880,16.661 28.880,16.661 C28.880,16.485 28.855,16.309 28.629,16.309 C28.629,16.309 28.378,16.334 28.378,16.334 L28.378,18.821 L14.790,18.821 L14.790,17.640 L14.288,18.821 L11.450,18.821 L10.972,17.665 L10.972,18.821 L5.497,18.821 L4.869,17.289 L3.488,17.289 L2.860,18.821 L0.072,18.821 C0.072,18.821 0.072,35.849 0.072,35.849 C0.072,37.683 1.554,39.215 3.387,39.215 C3.387,39.215 54.624,39.215 54.624,39.215 C56.457,39.215 57.939,37.683 57.939,35.849 C57.939,35.849 57.939,30.098 57.939,30.098 zM38.901,24.221 C38.901,22.613 37.520,22.387 36.239,22.387 C36.239,22.387 32.371,22.387 32.371,22.387 L32.371,29.194 L34.004,29.194 L34.004,26.707 C34.004,26.707 35.737,26.707 35.737,26.707 C36.817,26.707 37.193,26.908 37.193,28.063 C37.193,28.063 37.193,29.194 37.193,29.194 L38.826,29.194 C38.826,29.194 38.826,27.837 38.826,27.837 C38.826,26.958 38.650,26.355 37.746,26.029 C38.499,25.728 38.901,24.974 38.901,24.221 zM31.944,12.491 C31.944,10.884 30.563,10.683 29.257,10.683 C29.257,10.683 25.414,10.658 25.414,10.658 L25.414,17.464 L27.021,17.464 L27.021,15.003 C27.021,15.003 28.780,15.003 28.780,15.003 C30.588,15.003 30.211,16.008 30.236,17.464 C30.236,17.464 31.869,17.464 31.869,17.464 C31.869,17.464 31.869,16.133 31.869,16.133 C31.869,15.229 31.718,14.651 30.789,14.325 C31.517,14.024 31.944,13.270 31.944,12.491 zM45.231,27.787 L41.438,27.762 L41.438,26.406 L45.155,26.406 L45.155,25.024 L41.438,25.024 L41.438,23.794 L45.231,23.794 L45.231,22.387 L39.805,22.387 L39.805,29.194 L45.231,29.194 L45.231,27.787 zM34.531,10.658 L32.873,10.658 L32.873,17.464 L34.531,17.464 L34.531,10.658 zM51.936,27.034 C51.936,23.769 47.717,25.928 47.717,24.447 C47.717,23.894 48.194,23.819 48.621,23.819 C48.621,23.819 51.610,23.819 51.610,23.819 L51.610,22.387 C51.610,22.387 48.345,22.387 48.345,22.387 C47.089,22.387 46.034,23.040 46.034,24.422 C46.034,27.661 50.229,25.652 50.229,27.109 C50.229,27.636 49.777,27.737 49.375,27.737 C49.375,27.737 46.210,27.737 46.210,27.737 L46.210,29.194 C46.210,29.194 49.375,29.194 49.375,29.194 C50.831,29.194 51.936,28.641 51.936,27.034 zM57.939,25.778 C56.909,24.422 54.071,25.652 54.071,24.447 C54.071,23.894 54.523,23.819 54.976,23.819 C54.976,23.819 57.939,23.819 57.939,23.819 L57.939,22.387 C57.939,22.387 54.699,22.387 54.699,22.387 C53.443,22.387 52.363,23.040 52.363,24.422 C52.363,27.661 56.558,25.677 56.558,27.109 C56.558,27.611 56.131,27.737 55.729,27.737 C55.729,27.737 52.590,27.737 52.590,27.737 L52.590,29.194 C52.590,29.194 55.729,29.194 55.729,29.194 C56.533,29.194 57.462,29.018 57.939,28.315 C57.939,28.315 57.939,25.778 57.939,25.778 zM53.795,10.683 L52.137,10.683 L52.137,15.405 L49.274,10.683 L46.788,10.683 L46.788,17.113 L44.050,10.683 L41.614,10.683 L39.303,16.033 C39.303,16.033 38.575,16.033 38.575,16.033 C37.269,16.033 36.992,15.229 36.992,14.074 C36.992,11.738 38.550,12.115 40.258,12.140 C40.258,12.140 40.258,10.658 40.258,10.658 C40.258,10.658 38.675,10.658 38.675,10.658 C36.365,10.658 35.335,11.838 35.335,14.124 C35.335,16.309 36.339,17.464 38.575,17.464 C38.575,17.464 40.458,17.464 40.458,17.464 L41.086,15.957 L44.452,15.957 L45.105,17.464 L48.420,17.464 L48.420,12.366 L51.484,17.464 L53.795,17.464 L53.795,10.683 z" fill="#13425F" />
</svg>
