<?xml version="1.0" encoding="utf-8"?>
<!-- Generator: Adobe Illustrator 19.0.1, SVG Export Plug-In . SVG Version: 6.00 Build 0)  -->
<svg version="1.1" id="Capa_1" xmlns="http://www.w3.org/2000/svg" xmlns:xlink="http://www.w3.org/1999/xlink" x="0px" y="0px"
	 width="43.2px" height="52.2px" viewBox="-940 181.8 43.2 52.2" style="enable-background:new -940 181.8 43.2 52.2;"
	 xml:space="preserve">
<style type="text/css">
	.st0{fill:#ED8A19;}
	.st1{fill:#D75A4A;}
	.st2{fill:#303644;}
	.st3{fill:#134260;}
	.st4{fill:#0E3144;}
	.st5{fill:#FFFFFF;}
	.st6{fill:#CEC9AE;}
</style>
<path class="st0" d="M-896.8,181.8c-0.2,0-0.5,0.1-0.7,0.1C-897.3,181.8-897.1,181.8-896.8,181.8L-896.8,181.8z"/>
<path class="st1" d="M-897.8,182.1c-0.5,0.3-0.8,0.9-0.8,1.5l0,0C-898.6,183-898.3,182.4-897.8,182.1z"/>
<rect x="-922.9" y="181.8" class="st2" width="8.1" height="4.5"/>
<polygon class="st3" points="-898.6,225.9 -898.6,183.6 -911.2,183.6 -914.8,183.6 -914.8,186.3 -922.9,186.3 -922.9,183.6 
	-926.5,183.6 -940,183.6 -940,234 -898.6,234 -898.6,227.9 "/>
<polygon class="st4" points="-914.8,183.6 -914.8,186.3 -922.9,186.3 -922.9,183.6 -929.2,183.6 -929.2,189 -908.5,189 
	-908.5,183.6 "/>
<polygon class="st5" points="-908.5,188.1 -908.5,189 -929.2,189 -929.2,188.1 -935.5,188.1 -935.5,229.5 -902.2,229.5 
	-902.2,188.1 "/>
<g>
	<path class="st6" d="M-929.2,198h8.1c0.5,0,0.9-0.4,0.9-0.9s-0.4-0.9-0.9-0.9h-8.1c-0.5,0-0.9,0.4-0.9,0.9S-929.7,198-929.2,198z"
		/>
	<path class="st6" d="M-929.2,204.3h4.5c0.5,0,0.9-0.4,0.9-0.9s-0.4-0.9-0.9-0.9h-4.5c-0.5,0-0.9,0.4-0.9,0.9
		S-929.7,204.3-929.2,204.3z"/>
	<path class="st6" d="M-911.2,202.5h-6.3c-0.5,0-0.9,0.4-0.9,0.9s0.4,0.9,0.9,0.9h6.3c0.5,0,0.9-0.4,0.9-0.9
		S-910.7,202.5-911.2,202.5z"/>
	<path class="st6" d="M-921.7,202.7c-0.2,0.2-0.3,0.4-0.3,0.6s0.1,0.5,0.3,0.6c0.2,0.2,0.4,0.3,0.6,0.3c0.2,0,0.5-0.1,0.6-0.3
		c0.2-0.2,0.3-0.4,0.3-0.6s-0.1-0.5-0.3-0.6C-920.8,202.4-921.4,202.4-921.7,202.7z"/>
	<path class="st6" d="M-907,202.7c-0.3-0.3-0.9-0.3-1.3,0c-0.2,0.2-0.3,0.4-0.3,0.6s0.1,0.5,0.3,0.6c0.2,0.2,0.4,0.3,0.6,0.3
		s0.5-0.1,0.6-0.3c0.2-0.2,0.3-0.4,0.3-0.6C-906.7,203.1-906.8,202.9-907,202.7z"/>
	<path class="st6" d="M-919.3,208.8h-6.3c-0.5,0-0.9,0.4-0.9,0.9s0.4,0.9,0.9,0.9h6.3c0.5,0,0.9-0.4,0.9-0.9
		S-918.8,208.8-919.3,208.8z"/>
	<path class="st6" d="M-929.8,209c-0.2,0.2-0.3,0.4-0.3,0.6s0.1,0.5,0.3,0.6c0.2,0.2,0.4,0.3,0.6,0.3s0.5-0.1,0.6-0.3
		c0.2-0.2,0.3-0.4,0.3-0.6s-0.1-0.5-0.3-0.6C-928.9,208.7-929.5,208.7-929.8,209z"/>
</g>
<g>
	<path class="st3" d="M-924.2,214.3c-2,1-2.6,3-2.9,5c-0.4-0.3-0.7-0.6-1.1-0.9c-0.9-0.7-2.2,0.5-1.3,1.3c0.8,0.7,1.7,1.4,2.5,2.1
		c0.6,0.5,1.5,0.2,1.5-0.6c0.1-1.9,0.2-4.3,2.1-5.3C-922.3,215.3-923.2,213.8-924.2,214.3z"/>
	<path class="st3" d="M-915.8,218.9c-0.5-0.8-1.5-1.3-2.4-1c-1.2,0.3-2.7,1.8-3.5,0.1c-0.5-1-2.1-0.1-1.6,0.9
		c0.5,0.9,1.3,1.6,2.4,1.7c0.5,0.1,1,0,1.5-0.2c0.4-0.1,1.7-1.2,2-0.6C-916.8,220.8-915.3,219.9-915.8,218.9z"/>
</g>
</svg>
