<?xml version="1.0" encoding="utf-8"?>
<!-- Generator: Adobe Illustrator 19.0.1, SVG Export Plug-In . SVG Version: 6.00 Build 0)  -->
<svg version="1.1" id="Capa_1" xmlns="http://www.w3.org/2000/svg" xmlns:xlink="http://www.w3.org/1999/xlink" x="0px" y="0px"
	 width="40.6px" height="44.9px" viewBox="-942 185.1 40.6 44.9" style="enable-background:new -942 185.1 40.6 44.9;"
	 xml:space="preserve">
<style type="text/css">
	.st0{fill:#10364C;}
	.st1{fill:#2F3644;}
	.st2{fill:#FFFFFF;}
	.st3{fill:#D5D0BB;}
	.st4{fill:#EDDCC7;}
	.st5{fill:#D75A4A;}
	.st6{fill:#F29C21;}
	.st7{fill:#D6C4B1;}
	.st8{fill:#A34740;}
	.st9{fill:#E18C25;}
	.st10{fill:#5E5E5E;}
</style>
<g>
	<g>
		<polygon class="st0" points="-917.7,186.6 -920.7,186.6 -920.7,188.9 -927.6,188.9 -927.6,186.6 -930.6,186.6 -942,186.6 
			-942,229.3 -906.2,229.3 -906.2,186.6 		"/>
		<rect x="-927.6" y="185.1" class="st1" width="6.9" height="3.8"/>
		<polygon class="st2" points="-915.4,188.9 -915.4,191.2 -932.9,191.2 -932.9,188.9 -939.8,188.9 -939.8,227 -908.5,227 
			-908.5,188.9 		"/>
		<polygon class="st0" points="-920.7,186.6 -920.7,188.9 -927.6,188.9 -927.6,186.6 -932.9,186.6 -932.9,191.2 -915.4,191.2 
			-915.4,186.6 		"/>
		<path class="st3" d="M-925.3,197.3h-9.9c-0.4,0-0.8-0.3-0.8-0.8s0.3-0.8,0.8-0.8h9.9c0.4,0,0.8,0.3,0.8,0.8
			S-924.9,197.3-925.3,197.3z"/>
		<path class="st3" d="M-925.3,220.9h-9.9c-0.4,0-0.8-0.3-0.8-0.8s0.3-0.8,0.8-0.8h9.9c0.4,0,0.8,0.3,0.8,0.8
			S-924.9,220.9-925.3,220.9z"/>
		<path class="st3" d="M-913.1,201.9h-22.1c-0.4,0-0.8-0.3-0.8-0.8s0.3-0.8,0.8-0.8h22.1c0.4,0,0.8,0.3,0.8,0.8
			S-912.7,201.9-913.1,201.9z"/>
		<path class="st3" d="M-913.1,211h-22.1c-0.4,0-0.8-0.3-0.8-0.8s0.3-0.8,0.8-0.8h22.1c0.4,0,0.8,0.3,0.8,0.8S-912.7,211-913.1,211z
			"/>
		<path class="st3" d="M-913.1,216.4h-22.1c-0.4,0-0.8-0.3-0.8-0.8c0-0.4,0.3-0.8,0.8-0.8h22.1c0.4,0,0.8,0.3,0.8,0.8
			C-912.3,216-912.7,216.4-913.1,216.4z"/>
		<path class="st3" d="M-924.5,206.4h-10.7c-0.4,0-0.8-0.3-0.8-0.8s0.3-0.8,0.8-0.8h10.7c0.4,0,0.8,0.3,0.8,0.8
			S-924.1,206.4-924.5,206.4z"/>
		<path class="st3" d="M-913.1,206.4h-5.3c-0.4,0-0.8-0.3-0.8-0.8s0.3-0.8,0.8-0.8h5.3c0.4,0,0.8,0.3,0.8,0.8
			S-912.7,206.4-913.1,206.4z"/>
		<path class="st3" d="M-921.5,206.4c-0.2,0-0.4-0.1-0.5-0.2c-0.1-0.1-0.2-0.3-0.2-0.5s0.1-0.4,0.2-0.5c0.3-0.3,0.8-0.3,1.1,0
			c0.1,0.1,0.2,0.3,0.2,0.5s-0.1,0.4-0.2,0.5C-921.1,206.4-921.3,206.4-921.5,206.4z"/>
	</g>
	<g>
		<polygon class="st4" points="-917.8,222.8 -917.8,222.8 -919.3,228.4 -915.8,224.8 		"/>
		<path class="st5" d="M-903.1,212.2l-1-1c-0.6-0.6-1.5-0.6-2.1,0l-2.7,2.7l2,2L-903.1,212.2z"/>
		
			<rect x="-913.8" y="213.1" transform="matrix(0.7071 0.7071 -0.7071 0.7071 -112.0868 709.4008)" class="st6" width="2.9" height="12.5"/>
		<polygon class="st7" points="-913.5,227.1 -913.5,227.1 -915.8,224.8 -919.3,228.4 -919.4,228.8 		"/>
		<path class="st8" d="M-904.6,218.3l2.7-2.7c0.6-0.6,0.6-1.5,0-2.1l-1.2-1.2l-3.8,3.8L-904.6,218.3z"/>
		
			<rect x="-911.8" y="215.2" transform="matrix(-0.7071 -0.7071 0.7071 -0.7071 -1710.3617 -265.4595)" class="st9" width="3.2" height="12.5"/>
		<path class="st10" d="M-919.9,230.1c-0.2,0-0.4-0.1-0.5-0.2c-0.3-0.3-0.3-0.8,0-1.1l1.7-1.7c0.3-0.3,0.8-0.3,1.1,0s0.3,0.8,0,1.1
			l-1.7,1.7C-919.6,230-919.7,230.1-919.9,230.1z"/>
	</g>
</g>
</svg>
