<?xml version="1.0" encoding="utf-8"?>
<!-- Generator: Adobe Illustrator 19.0.1, SVG Export Plug-In . SVG Version: 6.00 Build 0)  -->
<svg version="1.1" id="Layer_1" xmlns="http://www.w3.org/2000/svg" xmlns:xlink="http://www.w3.org/1999/xlink" x="0px" y="0px"
	 width="54.5px" height="54.6px" viewBox="-935 180.4 54.5 54.6" style="enable-background:new -935 180.4 54.5 54.6;"
	 xml:space="preserve">
<style type="text/css">
	.st0{fill:#37D2C6;}
	.st1{fill:#15BDB1;}
	.st2{fill:#FFFFFF;}
	.st3{fill:#807D7D;}
	.st4{fill:#FF5B61;}
</style>
<path class="st0" d="M-907.8,180.4c15.1,0,27.3,12.2,27.3,27.3c0,9.5-4.9,17.9-12.2,22.7l0,0c-4.3,2.9-9.5,4.6-15,4.6
	c-5.6,0-10.7-1.7-15-4.6l0,0c-7.4-4.9-12.2-13.2-12.2-22.7C-935,192.6-922.8,180.4-907.8,180.4L-907.8,180.4z"/>
<path class="st1" d="M-907.8,183.5c13.4,0,24.2,10.8,24.2,24.2c0,13.4-10.8,24.2-24.2,24.2s-24.2-10.8-24.2-24.2
	C-932,194.3-921.1,183.5-907.8,183.5z"/>
<path class="st2" d="M-907.8,185.2c12.4,0,22.5,10.1,22.5,22.5c0,12.4-10.1,22.5-22.5,22.5s-22.5-10.1-22.5-22.5
	C-930.2,195.3-920.2,185.2-907.8,185.2z"/>
<g>
	<path class="st3" d="M-908.5,190.5l0.8-0.9l0.7,0.9v17.2h-1.5V190.5z"/>
	<path class="st3" d="M-893.9,206.8l0.9,0.8l-0.9,0.8h-13.8v-1.5L-893.9,206.8z"/>
</g>
<g>
	<path class="st4" d="M-907.8,209.4c1,0,1.8-0.8,1.8-1.8s-0.8-1.8-1.8-1.8s-1.8,0.8-1.8,1.8C-909.5,208.6-908.7,209.4-907.8,209.4z"
		/>
	<path class="st4" d="M-923.4,220.4l-1.2,0.2l0.6-1.1l16-12.1l0.6,0.9L-923.4,220.4z"/>
</g>
<g>
	<path class="st4" d="M-908.3,188.2h1.1v-2h-1.1V188.2L-908.3,188.2z"/>
	<path class="st4" d="M-929.2,208.2v-1.1h2v1.1H-929.2z"/>
	<path class="st4" d="M-907.2,229.1h-1.1v-2h1.1V229.1z"/>
	<path class="st4" d="M-886.3,207.1v1.1h-2v-1.1H-886.3z"/>
</g>
<g>
	<path class="st3" d="M-914.5,187.6l0.4-0.1l0.4,1.2l-0.4,0.1L-914.5,187.6z"/>
	<path class="st3" d="M-920.3,190.7l0.3-0.2l0.7,1l-0.3,0.2L-920.3,190.7L-920.3,190.7z"/>
	<path class="st3" d="M-925,195.4l0.2-0.3l1,0.7l-0.2,0.3L-925,195.4L-925,195.4z"/>
	<path class="st3" d="M-927.9,201.3l0.1-0.4l1.2,0.4l-0.1,0.4L-927.9,201.3z"/>
	<path class="st3" d="M-927.8,214.4l-0.1-0.4l1.2-0.4l0.1,0.4L-927.8,214.4z"/>
	<path class="st3" d="M-924.7,220.3l-0.2-0.3l1-0.7l0.2,0.3L-924.7,220.3L-924.7,220.3z"/>
	<path class="st3" d="M-920,224.9l-0.3-0.2l0.7-1l0.3,0.2L-920,224.9L-920,224.9z"/>
	<path class="st3" d="M-914.1,227.8l-0.4-0.1l0.4-1.2l0.4,0.1L-914.1,227.8z"/>
	<path class="st3" d="M-901,227.7l-0.4,0.1l-0.4-1.2l0.4-0.1L-901,227.7z"/>
	<path class="st3" d="M-895.2,224.7l-0.3,0.2l-0.7-1l0.3-0.2L-895.2,224.7L-895.2,224.7z"/>
	<path class="st3" d="M-890.6,219.9l-0.2,0.3l-1-0.7l0.2-0.3L-890.6,219.9L-890.6,219.9z"/>
	<path class="st3" d="M-887.6,214l-0.1,0.4l-1.2-0.4l0.1-0.4L-887.6,214z"/>
	<path class="st3" d="M-887.7,201l0.1,0.4l-1.2,0.4l-0.1-0.4L-887.7,201z"/>
	<path class="st3" d="M-890.8,195.1l0.2,0.3l-1,0.7l-0.2-0.3L-890.8,195.1L-890.8,195.1z"/>
	<path class="st3" d="M-895.5,190.5l0.3,0.2l-0.7,1l-0.3-0.2L-895.5,190.5L-895.5,190.5z"/>
	<path class="st3" d="M-901.4,187.5l0.4,0.1l-0.4,1.2l-0.4-0.1L-901.4,187.5z"/>
</g>
</svg>
