<svg version="1.1" xmlns="http://www.w3.org/2000/svg" xmlns:xlink="http://www.w3.org/1999/xlink" width="35" height="25" viewBox="0 0 35 25">
<path id="icon-mail" d="M32.178,24.999 C32.178,24.999 2.821,24.999 2.821,24.999 C1.266,24.999 -0.000,23.728 -0.000,22.164 C-0.000,22.164 -0.000,2.834 -0.000,2.834 C-0.000,1.270 1.266,-0.001 2.821,-0.001 C2.821,-0.001 32.178,-0.001 32.178,-0.001 C33.733,-0.001 35.000,1.270 35.000,2.834 C35.000,2.834 35.000,22.164 35.000,22.164 C35.000,23.728 33.733,24.999 32.178,24.999 zM1.128,22.164 C1.128,23.102 1.888,23.865 2.821,23.865 C2.821,23.865 32.178,23.865 32.178,23.865 C33.112,23.865 33.871,23.102 33.871,22.164 C33.871,22.164 33.871,2.834 33.871,2.834 C33.871,2.603 33.824,2.384 33.741,2.183 C33.741,2.183 22.264,12.238 22.264,12.238 C22.264,12.238 28.725,18.328 28.725,18.328 C28.951,18.541 28.963,18.901 28.750,19.129 C28.638,19.248 28.489,19.308 28.338,19.308 C28.199,19.308 28.060,19.257 27.952,19.154 C27.952,19.154 21.458,13.033 21.458,13.033 C21.439,13.015 21.445,12.988 21.429,12.969 C21.429,12.969 19.572,14.596 19.572,14.596 C19.000,15.098 18.250,15.348 17.500,15.348 C16.749,15.348 15.999,15.098 15.428,14.597 C15.428,14.597 13.571,12.970 13.571,12.970 C13.556,12.989 13.561,13.016 13.543,13.033 C13.543,13.033 7.047,19.154 7.047,19.154 C6.938,19.257 6.799,19.308 6.661,19.308 C6.511,19.308 6.360,19.248 6.249,19.129 C6.035,18.901 6.047,18.541 6.274,18.328 C6.274,18.328 12.736,12.239 12.736,12.239 C12.736,12.239 1.259,2.179 1.259,2.179 C1.175,2.381 1.128,2.602 1.128,2.834 C1.128,2.834 1.128,22.164 1.128,22.164 zM2.821,1.133 C2.531,1.133 2.262,1.214 2.023,1.343 C2.023,1.343 16.169,13.741 16.169,13.741 C16.890,14.373 18.109,14.373 18.829,13.741 C18.829,13.741 32.979,1.345 32.979,1.345 C32.740,1.214 32.470,1.133 32.178,1.133 C32.178,1.133 2.821,1.133 2.821,1.133 z" fill="#FFFFFF" />
</svg>
