<?xml version="1.0" encoding="utf-8"?>
<!-- Generator: Adobe Illustrator 19.0.1, SVG Export Plug-In . SVG Version: 6.00 Build 0)  -->
<svg version="1.1" id="Layer_1" xmlns="http://www.w3.org/2000/svg" xmlns:xlink="http://www.w3.org/1999/xlink" x="0px" y="0px"
	 width="32.2px" height="32.2px" viewBox="-946 191.8 32.2 32.2" style="enable-background:new -946 191.8 32.2 32.2;"
	 xml:space="preserve">
<style type="text/css">
	.st0{fill:#13425F;}
	.st1{fill:#0F2F3F;}
	.st2{fill:#FFFFFF;}
	.st3{fill:#807D7D;}
	.st4{fill:#FF5B61;}
</style>
<path class="st0" d="M-929.9,191.8c8.9,0,16.1,7.2,16.1,16.1c0,5.6-2.9,10.5-7.2,13.4l0,0c-2.5,1.7-5.6,2.7-8.9,2.7
	c-3.3,0-6.3-1-8.9-2.7l0,0c-4.3-2.9-7.2-7.8-7.2-13.4C-946,199-938.8,191.8-929.9,191.8L-929.9,191.8z"/>
<path class="st1" d="M-929.9,193.6c7.9,0,14.3,6.4,14.3,14.3s-6.4,14.3-14.3,14.3c-7.9,0-14.3-6.4-14.3-14.3
	C-944.2,200-937.8,193.6-929.9,193.6z"/>
<path class="st2" d="M-929.9,194.6c7.3,0,13.3,5.9,13.3,13.3c0,7.3-5.9,13.3-13.3,13.3c-7.3,0-13.3-5.9-13.3-13.3
	C-943.2,200.6-937.2,194.6-929.9,194.6z"/>
<g>
	<path class="st3" d="M-930.4,197.7l0.5-0.5l0.4,0.5v10.2h-0.9V197.7z"/>
	<path class="st3" d="M-921.7,207.4l0.5,0.4l-0.5,0.4l-8.2,0.1v-0.9H-921.7z"/>
</g>
<g>
	<path class="st4" d="M-929.9,208.9c0.6,0,1-0.5,1-1s-0.5-1-1-1c-0.6,0-1,0.5-1,1C-931,208.5-930.5,208.9-929.9,208.9z"/>
	<path class="st4" d="M-939.2,215.4l-0.7,0.1l0.3-0.7l9.5-7.1l0.4,0.5L-939.2,215.4z"/>
</g>
<g>
	<path class="st4" d="M-930.2,196.4h0.6v-1.2h-0.6V196.4L-930.2,196.4z"/>
	<path class="st4" d="M-942.6,208.2v-0.6h1.2v0.6H-942.6z"/>
	<path class="st4" d="M-929.6,220.6h-0.6v-1.2h0.6V220.6z"/>
	<path class="st4" d="M-917.2,207.6v0.6h-1.2v-0.6H-917.2z"/>
</g>
<g>
	<path class="st3" d="M-933.9,196.1l0.2-0.1l0.2,0.7l-0.2,0.1L-933.9,196.1z"/>
	<path class="st3" d="M-937.3,197.9l0.2-0.1l0.4,0.6l-0.2,0.1L-937.3,197.9L-937.3,197.9z"/>
	<path class="st3" d="M-940.1,200.7l0.1-0.2l0.6,0.4l-0.1,0.2L-940.1,200.7L-940.1,200.7z"/>
	<path class="st3" d="M-941.8,204.2l0.1-0.2l0.7,0.2l-0.1,0.2L-941.8,204.2z"/>
	<path class="st3" d="M-941.7,211.9l-0.1-0.2l0.7-0.2l0.1,0.2L-941.7,211.9z"/>
	<path class="st3" d="M-939.9,215.3l-0.1-0.2l0.6-0.4l0.1,0.2L-939.9,215.3L-939.9,215.3z"/>
	<path class="st3" d="M-937.2,218.1l-0.2-0.1l0.4-0.6l0.2,0.1L-937.2,218.1L-937.2,218.1z"/>
	<path class="st3" d="M-933.7,219.8l-0.2-0.1l0.2-0.7l0.2,0.1L-933.7,219.8z"/>
	<path class="st3" d="M-925.9,219.7l-0.2,0.1l-0.2-0.7l0.2-0.1L-925.9,219.7z"/>
	<path class="st3" d="M-922.5,217.9l-0.2,0.1l-0.4-0.6l0.2-0.1L-922.5,217.9L-922.5,217.9z"/>
	<path class="st3" d="M-919.7,215.2l-0.1,0.2l-0.6-0.4l0.1-0.2L-919.7,215.2L-919.7,215.2z"/>
	<path class="st3" d="M-918,211.7l-0.1,0.2l-0.7-0.2l0.1-0.2L-918,211.7z"/>
	<path class="st3" d="M-918.1,203.9l0.1,0.2l-0.7,0.2l-0.1-0.2L-918.1,203.9z"/>
	<path class="st3" d="M-919.9,200.5l0.1,0.2l-0.6,0.4l-0.1-0.2L-919.9,200.5L-919.9,200.5z"/>
	<path class="st3" d="M-922.7,197.8l0.2,0.1l-0.4,0.6l-0.2-0.1L-922.7,197.8L-922.7,197.8z"/>
	<path class="st3" d="M-926.2,196l0.2,0.1l-0.2,0.7l-0.2-0.1L-926.2,196z"/>
</g>
</svg>
