<svg version="1.1" xmlns="http://www.w3.org/2000/svg" xmlns:xlink="http://www.w3.org/1999/xlink" width="57" height="18" viewBox="0 0 57 18">
<path id="icon-visa" d="M57.000,17.528 L52.657,17.528 L52.114,14.701 L46.324,14.701 L45.419,17.528 L41.167,17.528 L40.533,17.528 C40.533,17.528 47.319,1.790 47.319,1.790 C47.771,0.659 48.586,0.565 49.671,0.565 C49.671,0.565 50.757,0.565 50.757,0.565 L53.200,0.565 L55.458,10.645 L55.462,10.649 L57.000,17.528 zM49.400,6.879 C49.400,6.879 47.952,10.931 47.590,11.874 C47.590,11.874 51.372,11.874 51.372,11.874 C51.158,10.786 50.305,6.785 50.305,6.785 C50.305,6.785 50.033,5.183 50.033,5.183 C49.762,5.842 49.400,6.879 49.400,6.879 zM40.714,4.240 C39.900,3.863 38.814,3.581 37.276,3.581 C35.467,3.581 34.652,4.335 34.652,5.089 C34.652,5.937 35.648,6.408 37.276,7.256 C39.990,8.481 41.167,9.989 41.167,11.968 C41.167,13.393 40.658,14.619 39.752,15.585 C39.752,15.585 39.810,15.643 39.810,15.643 C38.452,17.151 36.100,17.999 33.205,17.999 C31.124,17.999 29.133,17.528 28.048,17.057 C28.048,17.057 28.062,16.968 28.062,16.968 C28.058,16.966 28.052,16.965 28.048,16.963 C28.048,16.963 28.681,13.099 28.681,13.099 C28.681,13.099 29.314,13.382 29.314,13.382 C30.852,14.041 31.848,14.324 33.657,14.324 C34.909,14.324 36.331,13.770 36.365,12.666 C36.373,12.616 36.351,12.573 36.350,12.526 C36.341,12.395 36.320,12.268 36.270,12.145 C36.188,11.998 36.079,11.852 35.919,11.685 C35.919,11.685 36.066,11.835 36.066,11.835 C35.749,11.411 35.150,10.991 34.019,10.460 C32.210,9.612 29.948,8.293 29.948,5.748 C29.948,2.356 33.205,-0.000 37.729,-0.000 C39.538,-0.000 40.986,0.377 41.890,0.754 C41.890,0.754 41.167,4.429 41.167,4.429 C41.167,4.429 40.714,4.240 40.714,4.240 zM20.900,17.528 L23.795,0.565 L24.610,0.565 L28.319,0.565 L25.514,17.528 L20.900,17.528 zM14.838,17.528 L14.788,17.528 L14.748,17.622 L9.862,17.622 C9.862,17.622 5.909,2.982 5.909,2.982 C5.909,2.982 5.909,2.982 5.909,2.982 C5.511,2.742 5.096,2.518 4.674,2.302 C4.592,2.261 4.511,2.219 4.429,2.178 C3.996,1.965 3.555,1.760 3.101,1.574 C3.099,1.573 3.096,1.572 3.093,1.571 C2.980,1.524 2.859,1.487 2.744,1.442 C2.744,1.442 -0.000,0.565 -0.000,0.565 C-0.000,0.565 8.414,0.565 8.414,0.565 C9.410,0.565 10.224,0.848 10.495,1.979 C10.495,1.979 11.958,9.174 11.958,9.174 C11.958,9.174 11.966,9.210 11.966,9.210 C12.054,9.439 12.149,9.668 12.214,9.895 C12.214,9.895 12.576,12.251 12.576,12.251 L14.024,8.670 L14.044,8.691 L17.190,0.659 L18.095,0.659 L22.076,0.659 L15.460,15.973 L14.838,17.528 z" fill="#FFFFFF" />
</svg>
