<?xml version="1.0" encoding="utf-8"?>
<!-- Generator: Adobe Illustrator 19.0.1, SVG Export Plug-In . SVG Version: 6.00 Build 0)  -->
<svg version="1.1" id="Layer_1" xmlns="http://www.w3.org/2000/svg" xmlns:xlink="http://www.w3.org/1999/xlink" x="0px" y="0px"
	 width="42.5px" height="38.2px" viewBox="-941 188.8 42.5 38.2" style="enable-background:new -941 188.8 42.5 38.2;"
	 xml:space="preserve">
<style type="text/css">
	.st0{fill:#ACB3BA;}
	.st1{fill:#FFFFFF;}
	.st2{fill:#CED5E0;}
	.st3{fill:none;}
	.st4{fill:#54C0EB;}
	.st5{font-family:'OpenSans-Extrabold';}
	.st6{font-size:4.7393px;}
</style>
<polygon class="st0" points="-931.9,191.5 -931.9,198.2 -938.5,198.2 -938.5,227 -908.5,227 -908.5,191.5 "/>
<polygon class="st1" points="-934.4,224.2 -934.4,217.6 -941,217.6 -941,188.8 -911,188.8 -911,224.2 "/>
<g>
	<polygon class="st2" points="-934.4,224.2 -941,217.6 -934.4,217.6 	"/>
	<rect x="-936.6" y="202.8" class="st2" width="21.2" height="1.3"/>
	<rect x="-936.6" y="206.1" class="st2" width="21.2" height="1.3"/>
	<rect x="-936.6" y="209.5" class="st2" width="21.2" height="1.3"/>
	<rect x="-936.6" y="212.9" class="st2" width="12.6" height="1.3"/>
</g>
<rect x="-936.6" y="193.7" class="st3" width="38.1" height="6.4"/>
<text transform="matrix(1 0 0 1 -936.5923 197.2963)" class="st4 st5 st6">REVIEWS</text>
</svg>
