<?xml version="1.0" encoding="utf-8"?>
<!-- Generator: Adobe Illustrator 19.0.1, SVG Export Plug-In . SVG Version: 6.00 Build 0)  -->
<svg version="1.1" id="Layer_1" xmlns="http://www.w3.org/2000/svg" xmlns:xlink="http://www.w3.org/1999/xlink" x="0px" y="0px"
	 width="34.2px" height="20.9px" viewBox="-945 197.1 34.2 20.9" style="enable-background:new -945 197.1 34.2 20.9;"
	 xml:space="preserve">
<style type="text/css">
	.st0{fill:#A5A5A5;}
	.st1{fill:#2B3B4E;}
	.st2{fill:#324A5E;}
	.st3{fill:#F1543F;}
	.st4{fill:#FF7058;}
</style>
<path class="st0" d="M-942.6,209.7c-0.2,0-0.3-0.1-0.3-0.3v-4c0-0.2,0.1-0.3,0.3-0.3h5.9c0.2,0,0.3,0.1,0.3,0.3s-0.1,0.3-0.3,0.3
	h-5.6v3.7C-942.2,209.5-942.4,209.7-942.6,209.7z"/>
<polygon class="st1" points="-926.7,197.1 -942.6,205.3 -926.7,213.6 -910.8,205.3 "/>
<path class="st2" d="M-918.3,206.3c-0.7-3.3-8.3-3.3-8.3-3.3s-7.7,0-8.3,3.3c-0.7,3.6-1.4,9.2-1.4,9.2s7.3-2.8,9.7,2.5
	c2.4-5.3,9.7-2.5,9.7-2.5S-917.6,209.9-918.3,206.3z"/>
<polygon class="st3" points="-940.1,216 -945,216 -943.3,209.2 -941.8,209.2 "/>
<circle class="st4" cx="-942.6" cy="209.4" r="1.2"/>
</svg>
