<?xml version="1.0" encoding="utf-8"?>
<!-- Generator: Adobe Illustrator 19.0.1, SVG Export Plug-In . SVG Version: 6.00 Build 0)  -->
<svg version="1.1" id="Layer_1" xmlns="http://www.w3.org/2000/svg" xmlns:xlink="http://www.w3.org/1999/xlink" x="0px" y="0px"
	 width="52.1px" height="54.8px" viewBox="-936 180.2 52.1 54.8" style="enable-background:new -936 180.2 52.1 54.8;"
	 xml:space="preserve">
<style type="text/css">
	.st0{fill:#E74E4E;}
	.st1{fill:#ADB5C9;}
	.st2{fill:#C6CFE1;}
	.st3{fill:#807D7D;}
	.st4{fill:#FFFFFF;}
	.st5{fill:#FFD682;}
	.st6{fill:#D0D1D4;}
</style>
<path class="st0" d="M-909.9,225.4c0.6,0,1.2,0.5,1.2,1.2c0,0.6-0.5,1.2-1.2,1.2c-0.6,0-1.2-0.5-1.2-1.2S-910.6,225.4-909.9,225.4z"
	/>
<path class="st1" d="M-932.6,193.3h45.3c1.9,0,3.4,1.5,3.4,3.4v22v1.6v3.8l0,0l0,0c0,0.8,0,2.3,0,3c0,0.6-0.5,1.1-1.1,1.1h-19v4.8
	h3.5c0.5,0,1,0.4,1,1c0,0.5-0.4,1-1,1h-18.8c-0.5,0-1-0.4-1-1c0-0.5,0.4-1,1-1h3.5v-4.8h-19c-0.6,0-1.1-0.5-1.1-1.1c0-0.7,0-2.2,0-3
	l0,0l0,0v-3.8v-1.6v-22C-936,194.8-934.4,193.3-932.6,193.3L-932.6,193.3z"/>
<path class="st2" d="M-933.3,195.6h46.7v25.7h-46.7V195.6z"/>
<path class="st3" d="M-909.9,225.4c0.6,0,1.2,0.5,1.2,1.2c0,0.6-0.5,1.2-1.2,1.2c-0.6,0-1.2-0.5-1.2-1.2S-910.6,225.4-909.9,225.4z"
	/>
<path class="st4" d="M-926,180.2h25.4l6.7,6.7v34.5H-926V180.2z"/>
<g>
	<path class="st5" d="M-900.6,180.2v6.7h6.7L-900.6,180.2z"/>
	<path class="st5" d="M-893.6,228.2l-3.4-4.7l-2.4,1.7l-1.9-9.9l8.8,5l-2.4,1.7l3.4,4.7L-893.6,228.2L-893.6,228.2z"/>
</g>
<path class="st6" d="M-922,197.4h22v0.7h-22V197.4z M-922,194.7L-922,194.7h16.8v0.7H-922V194.7z M-922,193.4L-922,193.4h22v0.7h-22
	V193.4z M-922,192L-922,192h22v0.7h-22V192z M-922,190.7L-922,190.7h22v0.7h-22V190.7z M-922,189.3L-922,189.3h22v0.7h-22V189.3z
	 M-922,202.8L-922,202.8h16.8v0.7H-922V202.8z M-922,201.5L-922,201.5h22v0.7h-22V201.5z M-922,200.1L-922,200.1h22v0.7h-22V200.1z
	 M-922,198.7L-922,198.7h22v0.7h-22V198.7z"/>
<path class="st5" d="M-903,227.3l-0.8-0.4l1.5-2.6l0.8,0.4L-903,227.3L-903,227.3z M-894,210.4L-894,210.4l0.8,0.4l-1.5,2.6
	l-0.8-0.4L-894,210.4L-894,210.4z M-890.4,213.7L-890.4,213.7l0.4,0.8l-2.6,1.5l-0.4-0.8L-890.4,213.7L-890.4,213.7z M-889,218.5
	L-889,218.5v0.9h-3v-0.9H-889z M-906.6,223.9L-906.6,223.9l-0.4-0.8l2.6-1.5l0.4,0.8L-906.6,223.9L-906.6,223.9z M-908,219.2
	L-908,219.2v-0.9h3v0.9H-908z M-906.9,214.4L-906.9,214.4l0.4-0.8l2.6,1.5l-0.4,0.8L-906.9,214.4L-906.9,214.4z M-903.6,210.7
	L-903.6,210.7l0.8-0.4l1.5,2.6l-0.8,0.4L-903.6,210.7L-903.6,210.7z M-898.9,209.3L-898.9,209.3h0.9v3h-0.9V209.3z"/>
</svg>
