<svg version="1.1" xmlns="http://www.w3.org/2000/svg" xmlns:xlink="http://www.w3.org/1999/xlink" width="17" height="17" viewBox="0 0 17 17">
<path id="icon-close" d="M7.686,8.502 C7.686,8.502 0.161,16.080 0.161,16.080 C-0.048,16.291 -0.048,16.632 0.161,16.842 C0.266,16.948 0.403,17.000 0.540,17.000 C0.677,17.000 0.814,16.948 0.918,16.842 C0.918,16.842 8.500,9.207 8.500,9.207 C8.500,9.207 16.081,16.842 16.081,16.842 C16.186,16.948 16.323,17.000 16.460,17.000 C16.596,17.000 16.733,16.948 16.838,16.842 C17.047,16.632 17.047,16.291 16.838,16.080 C16.838,16.080 9.313,8.502 9.313,8.502 C9.313,8.502 16.843,0.919 16.843,0.919 C17.052,0.709 17.052,0.367 16.843,0.157 C16.634,-0.053 16.295,-0.053 16.086,0.157 C16.086,0.157 8.500,7.797 8.500,7.797 C8.500,7.797 0.913,0.157 0.913,0.157 C0.704,-0.053 0.365,-0.053 0.156,0.157 C-0.053,0.368 -0.053,0.709 0.156,0.919 C0.156,0.919 7.686,8.502 7.686,8.502 z" fill="#10C0E7" />
</svg>
