<?xml version="1.0" encoding="utf-8"?>
<!-- Generator: Adobe Illustrator 19.0.1, SVG Export Plug-In . SVG Version: 6.00 Build 0)  -->
<svg version="1.1" id="Capa_1" xmlns="http://www.w3.org/2000/svg" xmlns:xlink="http://www.w3.org/1999/xlink" x="0px" y="0px"
	 width="37.6px" height="46.2px" viewBox="-943 184.8 37.6 46.2" style="enable-background:new -943 184.8 37.6 46.2;"
	 xml:space="preserve">
<style type="text/css">
	.st0{fill:#FFFFFF;stroke:#10364C;stroke-width:2;stroke-miterlimit:10;}
	.st1{fill:#EDDCC7;}
	.st2{fill:#D75A4A;}
	.st3{fill:#F29C21;}
	.st4{fill:#D6C4B1;}
	.st5{fill:#A34740;}
	.st6{fill:#E18C25;}
	.st7{fill:#5E5E5E;}
</style>
<g>
	<g>
		<path class="st0" d="M-910.5,219.8l-7.7-3.9c-1-0.5-1.6-1.5-1.6-2.6v-3c0.2-0.2,0.5-0.6,0.7-0.9c1.1-1.5,1.8-3.1,2.4-4.8
			c1-0.3,1.7-1.2,1.7-2.3v-3.3c0-0.7-0.3-1.3-0.8-1.8v-4.7c0,0,1-7.3-8.9-7.3c-9.8,0-8.9,7.3-8.9,7.3v4.7c-0.5,0.4-0.8,1.1-0.8,1.8
			v3.2c0,0.9,0.4,1.6,1.1,2c0.8,3.5,2.9,6,2.9,6v3c0,1.1-0.6,2.1-1.5,2.6l-7.2,3.9c-2.1,1.1-3.4,3.3-3.4,5.7v2.6h35.6v-2.5
			C-906.9,223.3-908.3,220.9-910.5,219.8z"/>
	</g>
	<g>
		<polygon class="st1" points="-923.2,222.8 -923.2,222.8 -924.9,228.8 -921.1,225.1 		"/>
		<path class="st2" d="M-907.7,211.7l-1-1c-0.6-0.6-1.6-0.6-2.3,0l-2.9,2.9l2.1,2.1L-907.7,211.7z"/>
		
			<rect x="-918.9" y="212.6" transform="matrix(0.7071 0.7071 -0.7071 0.7071 -113.6681 712.9219)" class="st3" width="3" height="13.3"/>
		<polygon class="st4" points="-918.7,227.4 -918.7,227.4 -921.1,225.1 -924.9,228.8 -925,229.2 		"/>
		<path class="st5" d="M-909.3,218.1l2.9-2.9c0.6-0.6,0.6-1.6,0-2.3l-1.3-1.3l-4,4L-909.3,218.1z"/>
		
			<rect x="-916.9" y="214.9" transform="matrix(-0.7071 -0.7071 0.7071 -0.7071 -1719.0302 -268.8945)" class="st6" width="3.4" height="13.3"/>
		<path class="st7" d="M-925.5,230.6c-0.2,0-0.4-0.1-0.6-0.2c-0.3-0.3-0.3-0.8,0-1.1l1.8-1.8c0.3-0.3,0.8-0.3,1.1,0s0.3,0.8,0,1.1
			l-1.8,1.8C-925.1,230.4-925.3,230.6-925.5,230.6z"/>
	</g>
</g>
</svg>
