<?xml version="1.0" encoding="utf-8"?>
<!-- Generator: Adobe Illustrator 19.0.1, SVG Export Plug-In . SVG Version: 6.00 Build 0)  -->
<svg version="1.1" id="Layer_1" xmlns="http://www.w3.org/2000/svg" xmlns:xlink="http://www.w3.org/1999/xlink" x="0px" y="0px"
	 width="41.7px" height="44.9px" viewBox="-941 185.1 41.7 44.9" style="enable-background:new -941 185.1 41.7 44.9;"
	 xml:space="preserve">
<style type="text/css">
	.st0{fill:#FFFFFF;}
	.st1{fill:#D8D8D8;}
	.st2{fill:#B8BDC1;}
	.st3{fill:#134260;}
</style>
<g>
	<polygon class="st0" points="-941,226.8 -902.5,226.8 -902.5,188.3 -941,188.3 	"/>
	<polygon class="st1" points="-902.5,191.5 -902.5,226.8 -937.8,226.8 -937.8,230 -899.3,230 -899.3,191.5 	"/>
	<path class="st2" d="M-923.4,196.3c-1.8,0-3.2-1.4-3.2-3.2v-4.8c0-1.8,1.4-3.2,3.2-3.2c1.8,0,3.2,1.4,3.2,3.2
		c0,0.4-0.4,0.8-0.8,0.8s-0.8-0.4-0.8-0.8c0-0.9-0.7-1.6-1.6-1.6c-0.9,0-1.6,0.7-1.6,1.6v4.8c0,0.9,0.7,1.6,1.6,1.6
		c0.9,0,1.6-0.7,1.6-1.6c0-0.4,0.4-0.8,0.8-0.8s0.8,0.4,0.8,0.8C-920.2,194.9-921.6,196.3-923.4,196.3"/>
	<g>
		<path class="st3" d="M-910.5,202h-3.2c-0.4,0-0.8-0.4-0.8-0.8s0.4-0.8,0.8-0.8h3.2c0.4,0,0.8,0.4,0.8,0.8S-910.1,202-910.5,202"/>
		<path class="st3" d="M-916.9,202h-5.6c-0.4,0-0.8-0.4-0.8-0.8s0.4-0.8,0.8-0.8h5.6c0.4,0,0.8,0.4,0.8,0.8
			C-916.1,201.7-916.5,202-916.9,202"/>
		<path class="st3" d="M-925.8,202h-7.2c-0.4,0-0.8-0.4-0.8-0.8s0.4-0.8,0.8-0.8h7.2c0.4,0,0.8,0.4,0.8,0.8S-925.3,202-925.8,202"/>
		<path class="st3" d="M-910.5,206.8h-6.4c-0.4,0-0.8-0.4-0.8-0.8c0-0.4,0.4-0.8,0.8-0.8h6.4c0.4,0,0.8,0.4,0.8,0.8
			C-909.7,206.5-910.1,206.8-910.5,206.8"/>
		<path class="st3" d="M-921.8,206.7h-5.6c-0.4,0-0.8-0.4-0.8-0.8c0-0.4,0.4-0.8,0.8-0.8h5.6c0.4,0,0.8,0.4,0.8,0.8
			C-921,206.4-921.3,206.7-921.8,206.7"/>
		<path class="st3" d="M-930.6,206.7h-2.4c-0.4,0-0.8-0.4-0.8-0.8c0-0.4,0.4-0.8,0.8-0.8h2.4c0.4,0,0.8,0.4,0.8,0.8
			C-929.8,206.4-930.1,206.7-930.6,206.7"/>
		<path class="st3" d="M-910.5,211.6h-2.4c-0.4,0-0.8-0.4-0.8-0.8c0-0.4,0.4-0.8,0.8-0.8h2.4c0.4,0,0.8,0.4,0.8,0.8
			S-910.1,211.6-910.5,211.6"/>
		<path class="st3" d="M-916.1,211.6h-8c-0.4,0-0.8-0.4-0.8-0.8c0-0.4,0.4-0.8,0.8-0.8h8c0.4,0,0.8,0.4,0.8,0.8
			S-915.7,211.6-916.1,211.6"/>
		<path class="st3" d="M-929,211.6h-4c-0.4,0-0.8-0.4-0.8-0.8c0-0.4,0.4-0.8,0.8-0.8h4c0.4,0,0.8,0.4,0.8,0.8
			S-928.5,211.6-929,211.6"/>
		<path class="st3" d="M-910.5,216.4h-8.8c-0.4,0-0.8-0.4-0.8-0.8c0-0.4,0.4-0.8,0.8-0.8h8.8c0.4,0,0.8,0.4,0.8,0.8
			S-910.1,216.4-910.5,216.4"/>
		<path class="st3" d="M-924.2,216.4h-3.2c-0.4,0-0.8-0.4-0.8-0.8c0-0.4,0.4-0.8,0.8-0.8h3.2c0.4,0,0.8,0.4,0.8,0.8
			S-923.7,216.4-924.2,216.4"/>
		<path class="st3" d="M-930.6,216.4h-2.4c-0.4,0-0.8-0.4-0.8-0.8c0-0.4,0.4-0.8,0.8-0.8h2.4c0.4,0,0.8,0.4,0.8,0.8
			S-930.1,216.4-930.6,216.4"/>
	</g>
</g>
</svg>
