<?xml version="1.0" encoding="utf-8"?>
<!-- Generator: Adobe Illustrator 19.0.1, SVG Export Plug-In . SVG Version: 6.00 Build 0)  -->
<svg version="1.1" id="Layer_1" xmlns="http://www.w3.org/2000/svg" xmlns:xlink="http://www.w3.org/1999/xlink" x="0px" y="0px"
	 width="45.9px" height="54.2px" viewBox="-2 164.9 45.9 54.2" style="enable-background:new -2 164.9 45.9 54.2;"
	 xml:space="preserve">
<style type="text/css">
	.st0{fill:#FFD782;}
	.st1{fill:#C7CFE2;}
	.st2{fill:#AEB5CA;}
	.st3{fill:#FFE3A8;}
	.st4{fill:#FFF3D9;}
</style>
<path class="st0" d="M43.9,175.7c0-0.8-0.6-1.4-1.4-1.5c0,0,0,0,0,0c-3.2-0.5-5.6-3.2-5.6-6.5v0c0-0.9-0.6-1.6-1.5-1.7
	c-3.7-0.6-8.6-1.1-14.4-1.1s-10.7,0.5-14.4,1.1c-0.9,0.1-1.5,0.9-1.5,1.7v0c0,3.3-2.4,6-5.6,6.5c0,0,0,0,0,0
	c-0.8,0.1-1.4,0.7-1.4,1.5c-1,39.2,22.9,43.4,22.9,43.4S44.9,214.9,43.9,175.7z"/>
<path class="st1" d="M21,166.8c4.9,0,9.6,0.3,14,1c0,4.1,3,7.5,7.1,8.2c0.3,15.3-3.2,27.2-10.4,34.6c-4.6,4.8-9.4,6.2-10.7,6.5
	c-2.7-0.7-21.8-6.7-21.1-41.2c4-0.6,7-4.1,7.1-8.2C11.4,167.1,16.1,166.8,21,166.8"/>
<path class="st2" d="M21,168.6c4.3,0,8.4,0.3,12.3,0.8c0.6,3.8,3.3,6.9,6.9,8c0.1,14.1-3.3,25.1-9.9,31.9c-3.9,4-7.9,5.5-9.3,5.9
	c-1.6-0.5-6.2-2.2-10.4-7.2c-5.9-7-8.9-17.2-8.8-30.6c3.6-1.2,6.3-4.3,6.9-8C12.6,168.9,16.7,168.6,21,168.6 M21,166.8
	c-4.9,0-9.6,0.3-14,1c-0.1,4.1-3.1,7.6-7.1,8.2c-0.8,34.5,18.3,40.5,21.1,41.2c1.3-0.3,6-1.8,10.7-6.5c7.1-7.4,10.7-19.3,10.4-34.6
	c-4-0.7-7-4.2-7.1-8.2C30.6,167.1,25.9,166.8,21,166.8L21,166.8z"/>
<path class="st0" d="M21,174.2c2.8,0,5.5,0.1,8.1,0.4c1.2,2.5,3.1,4.7,5.5,6.3c-0.4,10.9-3.2,19.4-8.3,24.5c-2,2-3.9,3.2-5.3,3.8
	c-1.6-0.7-3.9-2.2-6.2-4.8c-4.5-5.3-7-13.2-7.4-23.5c2.4-1.6,4.2-3.7,5.5-6.3C15.5,174.4,18.2,174.2,21,174.2"/>
<path class="st2" d="M21,174.2c2.8,0,5.5,0.1,8.1,0.4c1.2,2.5,3.1,4.7,5.5,6.3c-0.4,10.9-3.2,19.4-8.3,24.5c-2,2-3.9,3.2-5.3,3.8
	c-1.6-0.7-3.9-2.2-6.2-4.8c-4.5-5.3-7-13.2-7.4-23.5c2.4-1.6,4.2-3.7,5.5-6.3C15.5,174.4,18.2,174.2,21,174.2 M21,172.4
	c-2.8,0-5.6,0.1-8.3,0.4l-1.1,0.1l-0.5,1c-1.1,2.2-2.7,4.2-4.8,5.6l-0.9,0.6l0,1c0.4,10.7,3,19,7.9,24.7c2.5,2.9,5.1,4.5,6.8,5.3
	l0.8,0.4l0.8-0.4c1.5-0.7,3.7-2,5.9-4.2c5.3-5.5,8.3-14.4,8.8-25.8l0-1l-0.9-0.6c-2.1-1.4-3.7-3.3-4.8-5.5l-0.5-1l-1.1-0.1
	C26.6,172.5,23.8,172.4,21,172.4L21,172.4z"/>
<g>
	<circle class="st0" cx="21" cy="170.5" r="0.9"/>
	<circle class="st0" cx="3.8" cy="178.9" r="0.9"/>
	<circle class="st0" cx="38.2" cy="178.9" r="0.9"/>
	<circle class="st0" cx="6.7" cy="197.6" r="0.9"/>
	<circle class="st0" cx="35.3" cy="197.6" r="0.9"/>
	<circle class="st0" cx="21" cy="213.1" r="0.9"/>
</g>
<circle class="st3" cx="26.9" cy="185.8" r="3.4"/>
<circle class="st4" cx="22.6" cy="179.3" r="2.1"/>
</svg>
