<?xml version="1.0" encoding="utf-8"?>
<!-- Generator: Adobe Illustrator 19.0.1, SVG Export Plug-In . SVG Version: 6.00 Build 0)  -->
<svg version="1.1" id="Capa_1" xmlns="http://www.w3.org/2000/svg" xmlns:xlink="http://www.w3.org/1999/xlink" x="0px" y="0px"
	 width="33.5px" height="43.2px" viewBox="-945 186.8 33.5 43.2" style="enable-background:new -945 186.8 33.5 43.2;"
	 xml:space="preserve">
<style type="text/css">
	.st0{fill:#EDEADA;}
	.st1{fill:#CEC9AE;}
	.st2{fill:#14A085;}
</style>
<polygon class="st0" points="-911.5,197.2 -921.9,186.8 -945,186.8 -945,230 -911.5,230 "/>
<polygon class="st1" points="-921.9,186.8 -921.9,197.2 -911.5,197.2 "/>
<path class="st1" d="M-918.9,203.2h-11.9c-0.4,0-0.7-0.3-0.7-0.7s0.3-0.7,0.7-0.7h11.9c0.4,0,0.7,0.3,0.7,0.7
	S-918.5,203.2-918.9,203.2z"/>
<path class="st2" d="M-936.8,203.9c-0.2,0-0.4-0.1-0.5-0.2l-1.5-1.5c-0.3-0.3-0.3-0.8,0-1.1s0.8-0.3,1.1,0l1,1l3.2-2.6
	c0.3-0.3,0.8-0.2,1,0.1c0.3,0.3,0.2,0.8-0.1,1l-3.7,3C-936.5,203.9-936.6,203.9-936.8,203.9z"/>
<path class="st1" d="M-918.9,211.4h-11.9c-0.4,0-0.7-0.3-0.7-0.7c0-0.4,0.3-0.7,0.7-0.7h11.9c0.4,0,0.7,0.3,0.7,0.7
	C-918.2,211-918.5,211.4-918.9,211.4z"/>
<path class="st2" d="M-936.8,212.1c-0.2,0-0.4-0.1-0.5-0.2l-1.5-1.5c-0.3-0.3-0.3-0.8,0-1.1s0.8-0.3,1.1,0l1,1l3.2-2.6
	c0.3-0.3,0.8-0.2,1,0.1c0.3,0.3,0.2,0.8-0.1,1l-3.7,3C-936.5,212-936.6,212.1-936.8,212.1z"/>
<path class="st1" d="M-918.9,219.5h-11.9c-0.4,0-0.7-0.3-0.7-0.7s0.3-0.7,0.7-0.7h11.9c0.4,0,0.7,0.3,0.7,0.7
	S-918.5,219.5-918.9,219.5z"/>
<path class="st2" d="M-936.8,220.3c-0.2,0-0.4-0.1-0.5-0.2l-1.5-1.5c-0.3-0.3-0.3-0.8,0-1.1c0.3-0.3,0.8-0.3,1.1,0l1,1l3.2-2.6
	c0.3-0.3,0.8-0.2,1,0.1c0.3,0.3,0.2,0.8-0.1,1l-3.7,3C-936.5,220.2-936.6,220.3-936.8,220.3z"/>
</svg>
