<svg version="1.1" xmlns="http://www.w3.org/2000/svg" xmlns:xlink="http://www.w3.org/1999/xlink" width="11" height="19" viewBox="0 0 11 19">
<path id="icon-star(1)" d="M9.485,16.515 C9.485,16.515 4.968,18.872 4.968,18.872 C4.177,19.285 3.252,18.618 3.403,17.743 C3.403,17.743 4.266,12.751 4.266,12.751 C4.326,12.405 4.210,12.050 3.956,11.804 C3.956,11.804 0.301,8.269 0.301,8.269 C-0.339,7.649 0.014,6.570 0.899,6.443 C0.899,6.443 5.949,5.715 5.949,5.715 C6.301,5.665 6.604,5.446 6.761,5.130 C6.761,5.130 9.020,0.588 9.020,0.588 C9.241,0.142 9.697,-0.054 10.125,-0.000 " fill="#FCCB22" />
</svg>
