<svg version="1.1" xmlns="http://www.w3.org/2000/svg" xmlns:xlink="http://www.w3.org/1999/xlink" width="81" height="22" viewBox="0 0 81 22">
<path id="icon-paypal" d="M78.428,17.006 C78.245,17.376 77.877,17.745 77.510,17.745 C77.510,17.745 74.939,17.745 74.939,17.745 C74.571,17.745 74.388,17.560 74.388,17.191 C74.388,17.191 76.959,0.551 76.959,0.551 C77.143,0.182 77.326,-0.003 77.510,0.182 C77.510,0.182 80.449,0.182 80.449,0.182 C80.816,0.182 81.000,0.366 81.000,0.736 C81.000,0.736 78.428,17.006 78.428,17.006 zM71.632,17.560 C71.632,17.560 68.877,17.560 68.877,17.560 C68.510,17.560 68.326,17.376 68.326,17.006 C68.326,17.006 68.510,16.081 68.510,16.081 C68.510,16.081 67.041,17.745 64.286,17.745 C62.633,17.745 61.347,17.376 60.428,16.266 C59.510,15.157 58.959,13.493 59.326,11.644 C59.877,8.131 62.816,5.543 66.122,5.543 C67.592,5.543 68.877,5.913 69.612,6.837 C69.612,6.837 69.796,7.207 69.796,7.207 C69.796,7.207 69.979,6.283 69.979,6.283 C69.979,6.098 70.347,5.913 70.530,5.913 C70.530,5.913 73.469,5.913 73.469,5.913 C73.837,5.913 74.020,6.283 74.204,6.468 C74.204,6.468 72.551,16.821 72.551,16.821 C72.367,17.191 72.000,17.560 71.632,17.560 zM68.510,9.610 C67.959,9.241 67.408,8.871 66.490,8.871 C64.837,8.871 63.367,10.165 63.184,11.829 C63.184,12.753 63.367,13.493 63.735,14.048 C64.102,14.417 64.837,14.787 65.755,14.787 C67.592,14.787 68.877,13.493 69.245,11.829 C69.428,11.090 69.245,10.165 68.510,9.610 zM53.082,11.644 C53.082,11.644 51.061,11.644 51.061,11.644 C50.510,11.644 50.143,12.014 50.143,12.384 C50.143,12.384 49.408,17.006 49.408,17.006 C49.408,17.376 49.224,17.560 48.857,17.560 C48.857,17.560 45.551,17.560 45.551,17.560 C45.184,17.560 45.000,17.376 45.000,17.006 C45.000,17.006 47.571,0.736 47.571,0.736 C47.755,0.366 48.122,-0.003 48.490,-0.003 C48.490,-0.003 54.735,-0.003 54.735,-0.003 C56.755,-0.003 58.408,0.551 59.510,1.476 C60.245,2.400 60.612,3.879 60.245,5.543 C59.694,9.610 57.306,11.644 53.082,11.644 zM55.102,4.434 C54.551,3.694 53.449,3.694 52.347,3.694 C52.347,3.694 51.979,3.694 51.979,3.694 C51.612,3.694 51.428,3.879 51.428,4.064 C51.428,4.064 50.694,8.316 50.694,8.316 C50.694,8.316 51.796,8.316 51.796,8.316 C53.449,8.316 55.102,8.316 55.469,6.098 C55.469,5.173 55.469,4.619 55.102,4.434 zM34.714,21.628 C34.531,21.813 34.347,21.998 33.980,21.998 C33.980,21.998 31.041,21.998 31.041,21.998 C30.673,21.998 30.490,21.443 30.673,21.073 C30.673,21.073 33.796,16.636 33.796,16.636 C33.796,16.636 30.490,6.837 30.490,6.837 C30.490,6.468 30.673,6.098 31.041,6.098 C31.041,6.098 33.980,6.098 33.980,6.098 C34.531,6.098 34.714,6.283 34.898,6.652 C34.898,6.652 36.735,12.569 36.735,12.569 C36.735,12.569 40.775,6.283 40.775,6.283 C40.959,6.098 41.143,5.913 41.510,5.913 C41.510,5.913 44.633,5.913 44.633,5.913 C45.000,5.913 45.367,6.468 44.816,7.022 C44.816,7.022 34.714,21.628 34.714,21.628 zM26.816,17.560 C26.816,17.560 24.061,17.560 24.061,17.560 C23.694,17.560 23.510,17.376 23.510,17.006 C23.510,17.006 23.694,16.081 23.694,16.081 C23.694,16.081 22.224,17.745 19.469,17.745 C17.816,17.745 16.531,17.376 15.612,16.266 C14.694,15.157 14.143,13.493 14.510,11.644 C15.061,8.131 18.000,5.543 21.306,5.543 C22.776,5.543 24.061,5.913 24.796,6.837 C24.796,6.837 24.980,7.207 24.980,7.207 C24.980,7.207 25.163,6.283 25.163,6.283 C25.163,6.098 25.531,5.913 25.714,5.913 C25.714,5.913 28.653,5.913 28.653,5.913 C28.837,5.913 29.204,6.283 29.388,6.468 C29.388,6.468 27.735,16.821 27.735,16.821 C27.551,17.191 27.184,17.560 26.816,17.560 zM23.694,9.610 C23.143,9.241 22.592,8.871 21.673,8.871 C20.020,8.871 18.551,10.165 18.367,11.829 C18.367,12.753 18.551,13.493 18.918,14.048 C19.286,14.417 20.020,14.787 20.939,14.787 C22.776,14.787 24.061,13.493 24.429,11.829 C24.429,11.090 24.245,10.165 23.694,9.610 zM8.082,11.644 C8.082,11.644 6.061,11.644 6.061,11.644 C5.510,11.644 5.143,12.014 5.143,12.384 C5.143,12.384 4.408,16.821 4.408,16.821 C4.225,17.191 3.857,17.560 3.490,17.560 C3.490,17.560 0.551,17.560 0.551,17.560 C0.184,17.560 0.000,17.376 0.000,17.006 C0.000,17.006 2.571,0.736 2.571,0.736 C2.755,0.366 3.123,-0.003 3.490,-0.003 C3.490,-0.003 9.735,-0.003 9.735,-0.003 C11.939,-0.003 13.408,0.551 14.510,1.476 C15.245,2.400 15.612,3.879 15.245,5.543 C14.694,9.610 12.306,11.644 8.082,11.644 zM10.286,4.434 C9.735,3.694 8.633,3.694 7.531,3.694 C7.531,3.694 7.163,3.694 7.163,3.694 C6.796,3.694 6.612,3.879 6.612,4.064 C6.612,4.064 5.878,8.316 5.878,8.316 C5.878,8.316 6.796,8.316 6.796,8.316 C8.449,8.316 10.102,8.316 10.469,6.098 C10.653,5.173 10.469,4.619 10.286,4.434 z" fill="#FFFFFF" />
</svg>
