<?xml version="1.0" encoding="utf-8"?>
<!-- Generator: Adobe Illustrator 19.0.1, SVG Export Plug-In . SVG Version: 6.00 Build 0)  -->
<svg version="1.1" id="Layer_1" xmlns="http://www.w3.org/2000/svg" xmlns:xlink="http://www.w3.org/1999/xlink" x="0px" y="0px"
	 width="45.4px" height="51.9px" viewBox="-939 182.1 45.4 51.9" style="enable-background:new -939 182.1 45.4 51.9;"
	 xml:space="preserve">
<style type="text/css">
	.st0{fill:#E2574C;}
	.st1{fill:#B53629;}
	.st2{fill:#FFFFFF;}
</style>
<g>
	<path class="st0" d="M-935.8,182.1h27.6l14.6,14.5v34.1c0,1.8-1.5,3.2-3.2,3.2h-38.9c-1.8,0-3.2-1.5-3.2-3.2v-45.4
		C-939.1,183.6-937.6,182.1-935.8,182.1z"/>
	<path class="st1" d="M-893.7,196.8H-905c-1.8,0-3.2-1.5-3.2-3.2v-11.3L-893.7,196.8z"/>
	<path class="st2" d="M-905.8,206.8c0.5,0,0.8-0.5,0.8-0.9c0-0.5-0.3-0.9-0.8-0.9h-3.1c-0.6,0-0.9,0.5-0.9,1.1v7.6
		c0,0.7,0.4,1.1,0.9,1.1s0.9-0.4,0.9-1.1v-2.1h1.9c0.6,0,0.9-0.5,0.9-0.9c0-0.5-0.3-0.9-0.9-0.9h-1.9V207h2.2V206.8z M-916.3,204.8
		h-2.3c-0.6,0-1.1,0.4-1.1,1v7.6c0,0.8,0.6,1,1.1,1h2.4c2.8,0,4.7-1.9,4.7-4.7C-911.5,206.8-913.2,204.8-916.3,204.8z M-916.2,212.8
		h-1.4v-5.9h1.2c1.9,0,2.7,1.3,2.7,3C-913.6,211.4-914.4,212.8-916.2,212.8z M-924.5,204.8h-2.2c-0.6,0-1,0.4-1,1.1v7.6
		c0,0.7,0.4,1.1,1,1.1c0.5,0,1-0.4,1-1.1v-2.2h1.4c1.7,0,3.2-1.2,3.2-3.2C-921.2,206.1-922.6,204.8-924.5,204.8z M-924.5,209.5h-1.3
		v-2.9h1.3c0.8,0,1.3,0.6,1.3,1.4C-923.2,208.9-923.7,209.5-924.5,209.5z"/>
</g>
</svg>
