<svg version="1.1" xmlns="http://www.w3.org/2000/svg" xmlns:xlink="http://www.w3.org/1999/xlink" width="47" height="28" viewBox="0 0 47 28">
<path id="icon-mastercard" d="M32.909,28.000 C29.220,28.000 25.909,26.685 23.449,24.431 C20.989,26.685 17.678,28.000 14.083,28.000 C6.326,28.000 -0.013,21.707 -0.013,14.006 C-0.013,6.304 6.326,0.012 14.083,0.012 C17.678,0.012 20.989,1.327 23.449,3.581 C26.003,1.327 29.314,0.012 32.909,0.012 C40.667,0.012 47.005,6.304 47.005,14.006 C47.005,21.707 40.667,28.000 32.909,28.000 zM6.326,10.625 L4.812,15.039 L4.717,10.625 L2.542,10.625 L1.312,17.763 L2.731,17.763 L3.677,12.315 L3.771,17.763 L4.812,17.763 L6.799,12.315 L5.947,17.763 L7.461,17.763 L8.691,10.625 L6.326,10.625 zM10.867,11.752 C10.299,11.752 9.826,11.846 9.069,12.034 C9.069,12.034 8.880,13.254 8.880,13.348 C9.164,13.254 9.731,13.067 10.488,13.067 C11.150,13.067 11.434,13.254 11.434,13.630 C11.434,13.724 11.434,13.818 11.340,14.006 C11.056,14.006 10.867,14.006 10.677,14.006 C8.975,14.006 8.028,14.851 8.028,16.260 C8.028,17.199 8.596,17.857 9.448,17.857 C10.110,17.857 10.677,17.669 11.056,17.199 C11.056,17.199 11.056,17.763 11.056,17.763 C11.056,17.763 12.096,17.763 12.286,17.669 C12.380,17.199 12.664,15.415 12.759,14.569 C12.853,14.100 12.853,13.724 12.853,13.442 C12.853,12.315 12.191,11.752 10.867,11.752 zM15.502,11.752 C13.799,11.752 13.232,12.691 13.232,13.724 C13.232,14.475 13.516,14.945 14.367,15.321 C15.029,15.602 15.124,15.696 15.124,15.978 C15.124,16.354 14.840,16.542 14.272,16.542 C13.799,16.542 13.326,16.542 12.853,16.354 C12.853,16.354 12.664,17.575 12.664,17.669 C13.042,17.763 13.326,17.857 14.272,17.857 C15.881,17.857 16.637,17.199 16.637,15.884 C16.637,15.133 16.354,14.663 15.597,14.288 C14.935,14.006 14.840,13.912 14.745,13.536 C14.745,13.254 15.029,13.067 15.502,13.067 C15.881,13.067 16.259,13.067 16.637,13.161 C16.637,13.161 16.827,11.846 16.827,11.846 C16.448,11.846 15.881,11.752 15.502,11.752 zM19.097,11.094 L17.584,11.094 C17.584,11.094 17.016,14.476 16.921,15.039 C16.827,15.602 16.732,16.260 16.732,16.542 C16.732,17.387 17.205,17.857 17.962,17.857 C18.340,17.857 18.719,17.763 19.097,17.669 C19.097,17.669 19.286,16.354 19.286,16.354 C19.192,16.448 19.097,16.448 18.908,16.448 C18.624,16.448 18.435,16.260 18.246,15.978 C18.246,15.790 18.530,14.476 18.719,13.348 C18.719,13.348 19.476,13.348 19.476,13.348 L19.665,11.940 L18.908,11.940 L19.097,11.094 zM22.314,11.752 C20.800,11.752 19.665,13.254 19.665,15.227 C19.665,16.917 20.516,17.763 22.219,17.763 C22.787,17.763 23.260,17.763 23.827,17.575 C23.827,17.575 24.111,16.166 24.111,16.166 C23.544,16.448 23.071,16.542 22.503,16.542 C21.651,16.542 21.084,16.166 21.178,15.227 C21.178,15.227 24.206,15.227 24.206,15.227 C24.300,14.663 24.395,14.288 24.395,13.818 C24.395,12.597 23.544,11.752 22.314,11.752 zM26.571,12.879 C26.571,12.597 26.666,12.315 26.666,12.034 C26.666,12.034 25.246,12.034 25.246,12.034 C25.057,13.818 24.773,15.602 24.490,17.387 C24.490,17.387 24.395,17.763 24.395,17.763 C24.395,17.763 25.909,17.763 25.909,17.763 C26.476,14.194 26.571,13.536 27.517,13.630 C27.612,12.879 27.895,12.221 28.085,11.940 C27.422,11.846 27.044,12.221 26.571,12.879 zM31.301,10.437 C29.220,10.437 27.801,12.221 27.801,14.757 C27.801,16.636 28.841,17.857 30.450,17.857 C30.828,17.857 31.207,17.857 31.774,17.669 C31.774,17.669 32.153,15.884 32.153,15.884 C31.585,16.166 31.207,16.260 30.828,16.260 C29.977,16.260 29.409,15.602 29.409,14.569 C29.409,13.067 30.260,11.940 31.396,11.940 C31.774,11.940 32.153,12.034 32.720,12.315 C32.720,12.315 33.004,10.813 33.004,10.813 C32.720,10.719 31.963,10.437 31.301,10.437 zM35.085,11.752 C34.518,11.752 34.045,11.846 33.288,12.034 C33.288,12.034 33.099,13.254 33.099,13.348 C33.382,13.254 33.950,13.067 34.707,13.067 C35.369,13.067 35.653,13.254 35.653,13.630 C35.653,13.724 35.653,13.818 35.558,14.006 C35.275,14.006 35.085,14.006 34.896,14.006 C33.193,14.006 32.247,14.851 32.247,16.260 C32.247,17.199 32.815,17.857 33.666,17.857 C34.328,17.857 34.896,17.669 35.275,17.199 C35.275,17.199 35.275,17.763 35.275,17.763 C35.275,17.763 36.315,17.763 36.504,17.763 C36.504,17.293 36.788,15.509 36.977,14.569 C37.072,14.100 37.072,13.724 37.072,13.442 C37.072,12.315 36.410,11.752 35.085,11.752 zM39.248,12.879 C39.248,12.597 39.343,12.315 39.343,12.034 C39.343,12.034 37.923,12.034 37.923,12.034 C37.734,13.818 37.450,15.602 37.167,17.387 C37.167,17.387 37.072,17.763 37.072,17.763 C37.072,17.763 38.586,17.763 38.586,17.763 C39.059,14.194 39.248,13.536 40.194,13.630 C40.289,12.879 40.572,12.221 40.762,11.940 C40.099,11.846 39.721,12.221 39.248,12.879 zM43.789,12.597 C43.410,12.128 42.937,11.846 42.370,11.846 C41.045,11.846 39.910,13.536 39.910,15.415 C39.910,16.917 40.667,17.857 41.802,17.857 C42.370,17.857 42.843,17.669 43.221,17.199 C43.221,17.199 43.142,17.669 43.142,17.669 L44.546,17.669 L45.681,10.531 L44.167,10.531 C44.167,10.531 43.789,12.597 43.789,12.597 zM42.275,16.448 C41.802,16.448 41.518,16.072 41.518,15.321 C41.518,14.194 42.086,13.348 42.748,13.348 C43.316,13.348 43.600,13.724 43.505,14.475 C43.505,15.602 43.032,16.448 42.275,16.448 zM34.328,16.542 C33.950,16.542 33.761,16.354 33.761,15.978 C33.761,15.415 34.139,15.133 35.085,15.133 C35.275,15.133 35.275,15.133 35.464,15.133 C35.369,15.978 34.991,16.542 34.328,16.542 zM21.273,14.194 C21.368,13.536 21.746,13.161 22.219,13.161 C23.165,13.161 22.976,14.006 22.976,14.194 C22.976,14.194 21.273,14.194 21.273,14.194 zM10.110,16.542 C9.731,16.542 9.542,16.354 9.542,15.978 C9.542,15.415 10.015,15.133 10.867,15.133 C11.056,15.133 11.056,15.133 11.245,15.133 C11.150,15.978 10.772,16.542 10.110,16.542 z" fill="#FFFFFF" />
</svg>
