<svg version="1.1" xmlns="http://www.w3.org/2000/svg" xmlns:xlink="http://www.w3.org/1999/xlink" width="58" height="39" viewBox="0 0 58 39">
<path id="icon-pay-pal-2" d="M19.177,19.967 C19.177,18.988 18.474,18.410 17.545,18.410 C16.314,18.410 15.360,19.389 15.360,20.620 C15.360,21.600 16.038,22.127 16.967,22.127 C18.198,22.127 19.177,21.198 19.177,19.967 zM38.893,16.225 C38.893,15.145 37.939,15.095 37.085,15.095 C37.085,15.095 36.633,15.095 36.633,15.095 C36.457,15.095 36.331,15.195 36.306,15.371 C36.306,15.371 35.879,18.058 35.879,18.058 C35.879,18.058 36.683,18.033 36.683,18.033 C37.989,18.033 38.893,17.732 38.893,16.225 zM47.709,19.967 C47.709,18.988 47.006,18.410 46.076,18.410 C44.846,18.410 43.891,19.389 43.891,20.620 C43.891,21.600 44.594,22.127 45.524,22.127 C46.729,22.127 47.709,21.198 47.709,19.967 zM13.350,15.672 C13.350,18.561 11.592,20.268 8.729,20.268 C8.252,20.268 7.021,20.017 6.921,20.746 C6.921,20.746 6.468,23.508 6.468,23.508 C6.443,23.785 6.192,23.986 5.916,23.986 C5.916,23.986 4.007,23.986 4.007,23.986 C3.806,23.986 3.655,23.785 3.681,23.584 C3.681,23.584 5.313,13.336 5.313,13.336 C5.338,13.060 5.589,12.859 5.841,12.859 C5.841,12.859 9.859,12.859 9.859,12.859 C11.718,12.859 13.350,13.563 13.350,15.672 zM21.111,23.508 C21.061,23.785 20.835,23.986 20.559,23.986 C20.559,23.986 18.826,23.986 18.826,23.986 C18.599,23.986 18.499,23.810 18.499,23.584 C18.499,23.433 18.549,23.207 18.599,23.056 C17.972,23.760 16.841,24.161 15.937,24.161 C13.978,24.161 12.747,22.881 12.747,20.921 C12.747,18.535 14.631,16.376 17.093,16.376 C18.047,16.376 18.901,16.526 19.479,17.380 C19.504,17.104 19.529,16.551 19.906,16.551 C19.906,16.551 21.814,16.551 21.814,16.551 C22.015,16.551 22.166,16.752 22.141,16.953 C22.141,16.953 21.111,23.508 21.111,23.508 zM32.338,16.903 C32.338,16.978 32.338,17.029 32.288,17.079 C32.288,17.079 25.883,26.321 25.883,26.321 C25.783,26.472 25.607,26.573 25.431,26.573 C25.431,26.573 23.497,26.573 23.497,26.573 C23.321,26.573 23.171,26.422 23.171,26.246 C23.171,25.945 24.954,23.609 25.230,23.232 C25.054,22.705 23.095,17.029 23.095,16.903 C23.095,16.727 23.246,16.551 23.422,16.551 C23.422,16.551 25.305,16.551 25.305,16.551 C25.557,16.551 25.783,16.727 25.858,16.953 C25.858,16.953 26.963,20.721 26.963,20.721 C26.963,20.721 29.625,16.802 29.625,16.802 C29.726,16.652 29.902,16.551 30.077,16.551 C30.077,16.551 32.011,16.551 32.011,16.551 C32.187,16.551 32.338,16.727 32.338,16.903 zM41.882,15.672 C41.882,18.561 40.124,20.268 37.261,20.268 C36.783,20.268 35.553,20.017 35.452,20.746 C35.452,20.746 35.000,23.659 35.000,23.659 C34.950,23.835 34.799,23.986 34.598,23.986 C34.598,23.986 32.539,23.986 32.539,23.986 C32.338,23.986 32.187,23.785 32.212,23.584 C32.212,23.584 33.845,13.336 33.845,13.336 C33.870,13.060 34.121,12.859 34.397,12.859 C34.397,12.859 38.391,12.859 38.391,12.859 C40.249,12.859 41.882,13.563 41.882,15.672 zM49.643,23.508 C49.593,23.785 49.367,23.986 49.090,23.986 C49.090,23.986 47.357,23.986 47.357,23.986 C47.131,23.986 47.031,23.810 47.031,23.584 C47.031,23.433 47.106,23.207 47.131,23.056 C46.528,23.760 45.398,24.161 44.469,24.161 C42.510,24.161 41.279,22.881 41.279,20.921 C41.279,18.535 43.163,16.376 45.624,16.376 C46.604,16.376 47.458,16.526 48.010,17.380 C48.035,17.104 48.061,16.551 48.437,16.551 C48.437,16.551 50.346,16.551 50.346,16.551 C50.547,16.551 50.698,16.752 50.673,16.953 C50.673,16.953 49.643,23.508 49.643,23.508 zM55.118,13.236 C55.118,13.236 53.486,23.508 53.486,23.508 C53.460,23.785 53.209,23.986 52.958,23.986 C52.958,23.986 51.300,23.986 51.300,23.986 C51.100,23.986 50.949,23.810 50.949,23.634 C50.949,23.634 50.974,23.584 50.974,23.584 C50.974,23.584 52.606,13.136 52.606,13.136 C52.632,12.985 52.782,12.859 52.933,12.859 C52.933,12.859 54.792,12.859 54.792,12.859 C54.967,12.859 55.118,13.010 55.118,13.211 C55.118,13.211 55.118,13.236 55.118,13.236 zM10.311,16.602 C10.537,15.245 9.683,15.095 8.553,15.095 C8.553,15.095 8.076,15.095 8.076,15.095 C7.925,15.095 7.774,15.195 7.749,15.371 C7.749,15.371 7.322,18.058 7.322,18.058 C7.322,18.058 8.151,18.033 8.151,18.033 C9.256,18.033 10.110,17.882 10.311,16.602 zM58.333,3.642 C58.333,1.884 56.876,0.427 55.118,0.427 C55.118,0.427 3.681,0.427 3.681,0.427 C1.922,0.427 0.466,1.884 0.466,3.642 C0.466,3.642 0.466,35.790 0.466,35.790 C0.466,37.548 1.922,39.005 3.681,39.005 C3.681,39.005 55.118,39.005 55.118,39.005 C56.876,39.005 58.333,37.548 58.333,35.790 C58.333,35.790 58.333,3.642 58.333,3.642 z" fill="#13425F" />
</svg>
