<?xml version="1.0" encoding="utf-8"?>
<!-- Generator: Adobe Illustrator 19.0.1, SVG Export Plug-In . SVG Version: 6.00 Build 0)  -->
<svg version="1.1" id="Capa_1" xmlns="http://www.w3.org/2000/svg" xmlns:xlink="http://www.w3.org/1999/xlink" x="0px" y="0px"
	 width="42.5px" height="42.5px" viewBox="-941 186.5 42.5 42.5" style="enable-background:new -941 186.5 42.5 42.5;"
	 xml:space="preserve">
<style type="text/css">
	.st0{fill:#EFCE4A;}
	.st1{fill:#EBBA16;}
	.st2{fill:#F4EFDC;}
	.st3{fill:#CEC9AE;}
	.st4{fill:#D1BF86;}
</style>
<path class="st0" d="M-906,229h-32.8c-0.8,0-1.3-0.7-1.1-1.4l7.4-20.4c0.1-0.5,0.6-0.8,1.1-0.8h32.8c0.8,0,1.1,0.7,1.1,1.4
	l-7.4,20.4C-905,228.6-905.4,229-906,229z"/>
<path class="st1" d="M-903.1,199.7h-1.7v6.6h2.9V201C-901.8,200.2-902.4,199.7-903.1,199.7z"/>
<path class="st1" d="M-937,194.6h-1.7c-0.7,0-1.3,0.6-1.3,1.3v31.3c0.1,0,0.1,0,0.2,0l2.8-7.6V194.6z"/>
<path class="st2" d="M-932.4,207.1c0.1-0.5,0.6-0.8,1.1-0.8h1.5h25.1v-8.8v-11h-11h-16.9v21.1L-932.4,207.1z"/>
<g>
	<path class="st3" d="M-927.4,198.2h17.6c0.4,0,0.7-0.3,0.7-0.7c0-0.4-0.3-0.7-0.7-0.7h-17.6c-0.4,0-0.7,0.3-0.7,0.7
		C-928.2,197.9-927.8,198.2-927.4,198.2z"/>
	<path class="st3" d="M-927.4,193.1h7.3c0.4,0,0.7-0.3,0.7-0.7s-0.3-0.7-0.7-0.7h-7.3c-0.4,0-0.7,0.3-0.7,0.7
		S-927.8,193.1-927.4,193.1z"/>
	<path class="st3" d="M-909.9,201.9h-17.6c-0.4,0-0.7,0.3-0.7,0.7s0.3,0.7,0.7,0.7h17.6c0.4,0,0.7-0.3,0.7-0.7
		S-909.5,201.9-909.9,201.9z"/>
</g>
<polygon class="st3" points="-932.6,207.6 -932.6,188 -934.8,188 -934.8,213.6 "/>
<polygon class="st4" points="-934.8,213.6 -934.8,189.4 -937,189.4 -937,219.6 "/>
</svg>
