<svg version="1.1" xmlns="http://www.w3.org/2000/svg" xmlns:xlink="http://www.w3.org/1999/xlink" width="32" height="32" viewBox="0 0 32 32">
<path id="icon-telephone" d="M24.632,27.319 C25.137,28.508 24.378,29.543 23.909,29.870 C23.909,29.870 22.200,31.227 22.200,31.227 C21.554,31.740 20.733,32.000 19.761,32.000 C19.761,32.000 19.761,32.000 19.761,32.000 C16.182,32.000 10.784,28.360 6.329,22.944 C2.132,17.840 -0.338,12.262 0.036,8.732 C0.168,7.495 0.634,6.552 1.421,5.926 C1.421,5.926 3.131,4.569 3.131,4.569 C4.454,3.587 5.655,4.182 6.150,4.696 C8.970,1.703 12.915,-0.000 17.086,-0.000 C25.310,-0.000 32.000,6.579 32.000,14.666 C32.000,19.902 29.195,24.687 24.632,27.319 zM5.232,5.673 C5.039,5.443 4.540,5.193 3.960,5.613 C3.960,5.613 2.250,6.970 2.250,6.970 C1.753,7.365 1.454,8.005 1.362,8.872 C1.029,12.015 3.439,17.330 7.359,22.097 C11.509,27.143 16.609,30.666 19.761,30.666 C20.425,30.666 20.966,30.504 21.371,30.182 C21.371,30.182 23.080,28.825 23.080,28.825 C23.181,28.725 23.719,28.279 23.284,27.621 C23.284,27.621 20.022,23.656 20.022,23.656 C19.742,23.315 19.141,23.285 18.749,23.596 C17.975,24.211 16.984,24.536 15.884,24.536 C13.559,24.536 10.934,23.102 9.036,20.794 C7.314,18.700 6.421,16.170 6.648,14.027 C6.791,12.684 7.358,11.582 8.290,10.842 C8.497,10.678 8.897,10.189 8.494,9.639 C8.494,9.639 5.232,5.673 5.232,5.673 zM30.584,13.201 C29.923,7.294 25.318,2.537 19.418,1.531 C19.418,1.531 19.418,3.467 19.418,3.467 L18.085,3.467 C18.085,3.467 18.085,1.369 18.085,1.369 C17.755,1.346 17.422,1.333 17.086,1.333 C13.228,1.333 9.584,2.931 7.007,5.731 C7.007,5.731 9.524,8.792 9.524,8.792 C10.558,10.118 9.701,11.408 9.119,11.887 C8.483,12.409 8.078,13.188 7.974,14.168 C7.784,15.963 8.566,18.123 10.066,19.947 C11.718,21.955 13.947,23.203 15.884,23.203 C16.691,23.203 17.355,22.956 17.920,22.552 C19.392,21.498 20.560,22.267 21.052,22.809 C21.052,22.809 23.861,26.224 23.861,26.224 C28.072,23.843 30.667,19.462 30.667,14.666 C30.667,14.622 30.665,14.578 30.665,14.534 C30.665,14.534 28.484,14.534 28.484,14.534 L28.484,13.201 C28.484,13.201 30.584,13.201 30.584,13.201 zM24.124,17.740 L23.009,17.740 L23.009,15.405 L18.954,15.405 L18.954,14.639 L22.848,9.163 L24.124,9.163 L24.124,14.494 L25.346,14.494 L25.346,15.405 L24.124,15.405 L24.124,17.740 zM23.009,10.285 C22.740,10.786 22.526,11.156 22.284,11.551 C22.284,11.551 20.149,14.468 20.149,14.468 L20.149,14.494 L23.009,14.494 C23.009,14.494 23.009,11.631 23.009,11.631 C23.009,11.182 23.023,10.733 23.050,10.285 C23.050,10.285 23.009,10.285 23.009,10.285 zM12.467,17.027 C12.467,17.027 13.394,16.144 13.394,16.144 C15.623,14.059 16.631,12.950 16.644,11.657 C16.644,10.786 16.214,9.981 14.912,9.981 C14.119,9.981 13.461,10.377 13.058,10.707 C13.058,10.707 12.683,9.889 12.683,9.889 C13.287,9.387 14.146,9.018 15.153,9.018 C17.033,9.018 17.826,10.284 17.826,11.512 C17.826,13.095 16.657,14.375 14.817,16.117 C14.817,16.117 14.119,16.751 14.119,16.751 L14.119,16.751 L14.119,16.777 L18.040,16.777 L18.040,17.740 L12.467,17.740 L12.467,17.027 z" fill="#FFFFFF" />
</svg>
