<svg version="1.1" xmlns="http://www.w3.org/2000/svg" xmlns:xlink="http://www.w3.org/1999/xlink" width="59" height="38" viewBox="0 0 59 38">
<path id="icon-JCB-2" d="M50.073,21.488 C50.073,20.609 49.470,19.930 48.717,19.780 C48.617,19.755 48.391,19.729 48.265,19.729 C48.265,19.729 44.422,19.729 44.422,19.729 L44.422,23.246 C44.422,23.246 48.265,23.246 48.265,23.246 C48.391,23.246 48.617,23.221 48.717,23.195 C49.470,23.045 50.073,22.392 50.073,21.488 zM49.621,16.138 C49.621,15.259 49.018,14.656 48.290,14.530 C48.215,14.530 48.039,14.505 47.913,14.505 C47.913,14.505 44.422,14.505 44.422,14.505 L44.422,17.745 C44.422,17.745 47.913,17.745 47.913,17.745 C48.039,17.745 48.215,17.745 48.290,17.720 C49.018,17.595 49.621,17.017 49.621,16.138 zM19.356,20.257 C19.356,23.271 17.498,25.707 11.118,25.707 C11.118,25.707 7.301,25.707 4.287,24.878 C4.287,24.878 4.287,22.065 4.287,22.065 C6.145,22.969 8.079,23.547 10.038,23.547 C12.349,23.547 13.630,22.141 13.630,20.257 C13.630,20.257 13.630,12.521 13.630,12.521 L19.356,12.521 C19.356,12.521 19.356,20.257 19.356,20.257 zM37.289,24.878 C34.602,25.556 32.065,25.657 32.065,25.657 C23.224,26.059 20.713,22.568 20.713,18.926 C20.713,15.284 23.224,11.793 32.065,12.195 C32.065,12.195 34.602,12.295 37.289,12.973 C37.289,12.973 37.289,15.786 37.289,15.786 C35.958,15.108 34.326,14.480 32.266,14.330 C28.649,14.053 26.489,15.811 26.489,18.926 C26.489,22.040 28.649,23.798 32.266,23.522 C34.326,23.371 35.983,22.718 37.289,22.040 C37.289,22.040 37.289,24.878 37.289,24.878 zM55.724,21.990 C55.724,24.024 53.916,25.330 51.480,25.330 C51.480,25.330 39.148,25.330 39.148,25.330 L39.148,12.521 C39.148,12.521 50.576,12.521 50.576,12.521 C50.802,12.521 51.078,12.546 51.229,12.546 C53.363,12.647 54.946,13.752 54.946,15.661 C54.946,17.143 53.866,18.423 51.907,18.700 C51.907,18.700 51.907,18.775 51.907,18.775 C54.067,18.926 55.724,20.131 55.724,21.990 zM58.939,2.852 C58.939,1.093 57.482,-0.363 55.724,-0.363 C55.724,-0.363 4.287,-0.363 4.287,-0.363 C2.529,-0.363 1.072,1.093 1.072,2.852 C1.072,2.852 1.072,35.000 1.072,35.000 C1.072,36.758 2.529,38.215 4.287,38.215 C4.287,38.215 55.724,38.215 55.724,38.215 C57.482,38.215 58.939,36.758 58.939,35.000 C58.939,35.000 58.939,2.852 58.939,2.852 z" fill="#13425F" />
</svg>
