<?xml version="1.0" encoding="utf-8"?>
<!-- Generator: Adobe Illustrator 19.0.1, SVG Export Plug-In . SVG Version: 6.00 Build 0)  -->
<svg version="1.1" id="Capa_1" xmlns="http://www.w3.org/2000/svg" xmlns:xlink="http://www.w3.org/1999/xlink" x="0px" y="0px"
	 width="50.1px" height="53.8px" viewBox="-937 181.2 50.1 53.8" style="enable-background:new -937 181.2 50.1 53.8;"
	 xml:space="preserve">
<style type="text/css">
	.st0{fill:#134260;}
	.st1{fill:#FFFFFF;}
	.st2{fill:#0C2C3D;}
	.st3{fill:#D5D0BB;}
	.st4{fill:#76C9B0;}
</style>
<g>
	<g>
		<polygon class="st0" points="-907.8,183.1 -911.5,183.1 -911.5,185.7 -919.7,185.7 -919.7,183.1 -923.3,183.1 -937,183.1 
			-937,234.1 -894.2,234.1 -894.2,183.1 		"/>
		<rect x="-919.7" y="181.2" class="st0" width="8.2" height="4.6"/>
		<polygon class="st1" points="-905.1,185.7 -905.1,188.6 -926.1,188.6 -926.1,185.7 -934.3,185.7 -934.3,231.3 -896.9,231.3 
			-896.9,185.7 		"/>
		<polygon class="st2" points="-911.5,183.1 -911.5,185.7 -919.7,185.7 -919.7,183.1 -926.1,183.1 -926.1,188.6 -905.1,188.6 
			-905.1,183.1 		"/>
		<path class="st3" d="M-916.9,195.8h-11.8c-0.5,0-0.9-0.4-0.9-0.9s0.4-0.9,0.9-0.9h11.8c0.5,0,0.9,0.4,0.9,0.9
			S-916.4,195.8-916.9,195.8z"/>
		<path class="st3" d="M-916.9,224.1h-11.8c-0.5,0-0.9-0.4-0.9-0.9s0.4-0.9,0.9-0.9h11.8c0.5,0,0.9,0.4,0.9,0.9
			S-916.4,224.1-916.9,224.1z"/>
		<path class="st3" d="M-902.4,201.2h-26.4c-0.5,0-0.9-0.4-0.9-0.9s0.4-0.9,0.9-0.9h26.4c0.5,0,0.9,0.4,0.9,0.9
			S-901.9,201.2-902.4,201.2z"/>
		<path class="st3" d="M-902.4,212.2h-26.4c-0.5,0-0.9-0.4-0.9-0.9s0.4-0.9,0.9-0.9h26.4c0.5,0,0.9,0.4,0.9,0.9
			S-901.9,212.2-902.4,212.2z"/>
		<path class="st3" d="M-902.4,218.6h-26.4c-0.5,0-0.9-0.4-0.9-0.9s0.4-0.9,0.9-0.9h26.4c0.5,0,0.9,0.4,0.9,0.9
			C-901.5,218.1-901.9,218.6-902.4,218.6z"/>
		<path class="st3" d="M-916,206.7h-12.8c-0.5,0-0.9-0.4-0.9-0.9s0.4-0.9,0.9-0.9h12.8c0.5,0,0.9,0.4,0.9,0.9
			S-915.5,206.7-916,206.7z"/>
		<path class="st3" d="M-902.4,206.7h-6.4c-0.5,0-0.9-0.4-0.9-0.9s0.4-0.9,0.9-0.9h6.4c0.5,0,0.9,0.4,0.9,0.9
			S-901.9,206.7-902.4,206.7z"/>
		<path class="st3" d="M-912.4,206.7c-0.2,0-0.5-0.1-0.6-0.3c-0.2-0.2-0.3-0.4-0.3-0.6s0.1-0.5,0.3-0.6c0.3-0.3,0.9-0.3,1.3,0
			c0.2,0.2,0.3,0.4,0.3,0.6s-0.1,0.5-0.3,0.6C-911.9,206.6-912.1,206.7-912.4,206.7z"/>
	</g>
	<g>
		<circle class="st4" cx="-896.9" cy="224.9" r="10"/>
		<path class="st1" d="M-891.4,224.1h-4.6v-4.6c0-0.5-0.4-0.9-0.9-0.9s-0.9,0.4-0.9,0.9v5.5c0,0.5,0.4,0.9,0.9,0.9h5.5
			c0.5,0,0.9-0.4,0.9-0.9S-890.9,224.1-891.4,224.1z"/>
	</g>
</g>
</svg>
