<?xml version="1.0" encoding="utf-8"?>
<!-- Generator: Adobe Illustrator 19.0.1, SVG Export Plug-In . SVG Version: 6.00 Build 0)  -->
<svg version="1.1" id="Layer_1" xmlns="http://www.w3.org/2000/svg" xmlns:xlink="http://www.w3.org/1999/xlink" x="0px" y="0px"
	 width="56.1px" height="49.9px" viewBox="-934 183.1 56.1 49.9" style="enable-background:new -934 183.1 56.1 49.9;"
	 xml:space="preserve">
<style type="text/css">
	.st0{fill:#20D0C2;}
	.st1{fill:#DFE1E3;}
	.st2{fill:#FFFFFF;}
	.st3{fill:#ECF0F1;}
	.st4{fill:#FBB429;}
	.st5{fill:#0E7886;}
	.st6{fill:#D0D1D4;}
</style>
<path class="st0" d="M-933.5,218.8h56.1v-36.7h-56.1V218.8z"/>
<path class="st1" d="M-878.5,182.1h-27v35.2h26.9L-878.5,182.1L-878.5,182.1z"/>
<path class="st2" d="M-879.5,182.1h-26v33h26V182.1z"/>
<path class="st1" d="M-932.4,182.1h26.9v35.2h-26.9V182.1z"/>
<path class="st2" d="M-931.5,182.1h26v33h-26C-931.5,215.1-931.5,182.1-931.5,182.1z"/>
<path class="st3" d="M-905.9,182.1h0.9v33h-0.9V182.1L-905.9,182.1z"/>
<path class="st4" d="M-929.2,185.8h13.8v-1.9h-13.8V185.8z"/>
<path class="st3" d="M-929.2,200.5h20.1v1h-20.1V200.5z M-902.5,200.5L-902.5,200.5h20.1v1h-20.1V200.5z M-902.5,187L-902.5,187
	h20.1v1h-20.1V187z M-902.5,197.3L-902.5,197.3h8.8v1h-8.8C-902.5,198.3-902.5,197.3-902.5,197.3z M-902.5,195.3L-902.5,195.3h20.1
	v1h-20.1V195.3z M-902.5,193.2L-902.5,193.2h20.1v1h-20.1V193.2z M-902.5,191.1L-902.5,191.1h8.8v1h-8.8
	C-902.5,192.1-902.5,191.1-902.5,191.1z M-902.5,189.1L-902.5,189.1h20.1v1h-20.1V189.1z M-902.5,210.7L-902.5,210.7h6.9v1h-6.9
	V210.7L-902.5,210.7z M-902.5,208.7L-902.5,208.7h20.1v1h-20.1V208.7z M-902.5,206.6L-902.5,206.6h20.1v1h-20.1V206.6z
	 M-902.5,204.6L-902.5,204.6h20.1v1h-20.1V204.6z M-902.5,202.5L-902.5,202.5h20.1v1h-20.1V202.5z M-929.2,187L-929.2,187h20.1v1
	h-20.1V187z M-929.2,197.3L-929.2,197.3h8.8v1h-8.8C-929.2,198.3-929.2,197.3-929.2,197.3z M-929.2,195.3L-929.2,195.3h20.1v1h-20.1
	V195.3z M-929.2,193.2L-929.2,193.2h20.1v1h-20.1V193.2z M-929.2,191.1L-929.2,191.1h20.1v1h-20.1V191.1z M-929.2,189.1
	L-929.2,189.1h20.1v1h-20.1V189.1z M-929.2,210.7L-929.2,210.7h6.9v1h-6.9C-929.2,211.7-929.2,210.7-929.2,210.7z M-929.2,208.7
	L-929.2,208.7h20.1v1h-20.1V208.7z M-929.2,206.6L-929.2,206.6h20.1v1h-20.1V206.6z M-929.2,204.6L-929.2,204.6h20.1v1h-20.1V204.6z
	 M-929.2,202.5L-929.2,202.5h20.1v1h-20.1V202.5z"/>
<path class="st5" d="M-905.5,187.7c7.6,0.8,13,7.7,12.2,15.3c-0.5,4.7-3.3,8.6-7.2,10.6l0.7,1.6l-1.7,0.8l-0.7-1.6
	c-2,0.7-4.1,1-6.4,0.8c-7.6-0.8-13-7.7-12.2-15.3C-919.9,192.3-913.1,186.8-905.5,187.7z M-905.6,189.3L-905.6,189.3
	c-6.7-0.7-12.7,4.1-13.5,10.8c-0.7,6.7,4.1,12.7,10.8,13.5c6.7,0.7,12.7-4.1,13.5-10.8C-894.1,196.1-898.9,190-905.6,189.3
	L-905.6,189.3z"/>
<path class="st4" d="M-902.1,216.3l3-1.3c0.5-0.2,1,0,1.2,0.5l6.1,14.1c0.2,0.5,0,1-0.5,1.2l-3,1.3c-0.5,0.2-1,0-1.2-0.5l-6.1-14.1
	C-902.8,217-902.6,216.4-902.1,216.3L-902.1,216.3z"/>
<path class="st3" d="M-903.8,189.6c6.5,1.8,10.4,8.5,8.6,15.1c-1.8,6.5-8.5,10.4-15.1,8.6c-6.5-1.8-10.4-8.5-8.6-15.1
	C-917,191.6-910.3,187.8-903.8,189.6z"/>
<path class="st6" d="M-919.2,200.9h8.6v1.5h-8.6C-919.3,201.9-919.3,201.4-919.2,200.9z M-901.1,190.7L-901.1,190.7
	c0.7,0.4,1.3,0.8,1.9,1.3h-1.9V190.7z M-897.7,193.5L-897.7,193.5c0.4,0.5,0.7,0.9,1.1,1.5h-4.5v-1.5H-897.7L-897.7,193.5z
	 M-895.8,196.4L-895.8,196.4c0.2,0.5,0.4,1,0.5,1.5h-5.8v-1.5H-895.8z M-894.8,200.9L-894.8,200.9c0,0.5,0,1,0,1.5h-6.3v-1.5H-894.8
	z M-895,203.9L-895,203.9c-0.1,0.3-0.1,0.5-0.2,0.8c-0.1,0.2-0.1,0.5-0.2,0.7h-5.7v-1.5H-895L-895,203.9z M-896,206.8L-896,206.8
	c-0.2,0.5-0.5,1-0.8,1.5h-4.2v-1.5H-896L-896,206.8z M-898,209.8L-898,209.8c-0.5,0.5-1,1-1.6,1.5h-1.4v-1.5H-898z M-904.8,213.5
	L-904.8,213.5c-0.4,0.1-0.9,0.1-1.3,0.2v-24.4c0.4,0,0.9,0.1,1.3,0.2V213.5z M-910.6,213.1L-910.6,213.1c-0.4-0.1-0.8-0.3-1.1-0.4
	h1.1V213.1z M-914.3,211.2L-914.3,211.2c-0.6-0.4-1.1-0.9-1.6-1.5h5.3v1.5H-914.3z M-917.1,208.3L-917.1,208.3
	c-0.3-0.5-0.6-1-0.8-1.5h7.4v1.5H-917.1z M-918.6,205.3L-918.6,205.3c-0.2-0.5-0.3-1-0.4-1.5h8.4v1.5H-918.6z M-917.4,194.9
	L-917.4,194.9c0.3-0.5,0.7-1,1.1-1.5h5.7v1.5H-917.4z M-914.8,192L-914.8,192c0.7-0.6,1.4-1.1,2.2-1.5h2v1.5H-914.8z"/>
<path class="st2" d="M-917.5,200.9c0.2-2.5,1.3-4.9,3.2-6.8c1.9-1.9,4.3-2.9,6.8-3.2c0.3,0,0.5,0.1,0.7,0.2c0.2,0.2,0.3,0.4,0.3,0.7
	v0.1c0,0.5-0.4,0.9-0.8,0.9c-2,0.2-4,1.1-5.6,2.6c-1.6,1.6-2.5,3.6-2.6,5.6c0,0.5-0.4,0.8-0.9,0.8h-0.1c-0.3,0-0.5-0.1-0.7-0.3
	C-917.4,201.4-917.5,201.2-917.5,200.9L-917.5,200.9z M-916.1,202.9L-916.1,202.9c0.4,0.4,0.4,1,0,1.4c-0.4,0.4-1,0.4-1.4,0
	s-0.4-1,0-1.4C-917.1,202.6-916.5,202.6-916.1,202.9z"/>
</svg>
