<svg version="1.1" xmlns="http://www.w3.org/2000/svg" xmlns:xlink="http://www.w3.org/1999/xlink" width="58" height="40" viewBox="0 0 58 40">
<path id="icon-diccover-2" d="M8.180,16.633 C8.180,15.829 7.854,15.051 7.276,14.549 C6.749,14.046 6.096,13.870 5.041,13.870 C5.041,13.870 4.614,13.870 4.614,13.870 L4.614,19.396 C4.614,19.396 5.041,19.396 5.041,19.396 C6.096,19.396 6.774,19.195 7.276,18.743 C7.854,18.215 8.180,17.437 8.180,16.633 zM52.786,15.001 C52.786,14.197 52.234,13.770 51.204,13.770 C51.204,13.770 50.702,13.770 50.702,13.770 L50.702,16.307 C50.702,16.307 51.179,16.307 51.179,16.307 C52.234,16.307 52.786,15.855 52.786,15.001 zM9.863,16.633 C9.863,17.864 9.311,19.044 8.356,19.848 C7.552,20.526 6.623,20.802 5.367,20.802 C5.367,20.802 2.981,20.802 2.981,20.802 L2.981,12.439 C2.981,12.439 5.367,12.439 5.367,12.439 C8.030,12.439 9.863,14.172 9.863,16.633 zM10.617,20.802 L10.617,12.439 L12.249,12.439 L12.249,20.802 L10.617,20.802 zM18.654,18.266 C18.654,19.898 17.473,21.028 15.765,21.028 C14.535,21.028 13.631,20.526 12.877,19.421 C12.877,19.421 13.932,18.416 13.932,18.416 C14.309,19.145 14.937,19.521 15.715,19.521 C16.444,19.521 16.971,19.019 16.971,18.341 C16.971,17.989 16.820,17.688 16.494,17.487 C16.318,17.362 15.991,17.236 15.364,17.010 C13.831,16.457 13.304,15.855 13.304,14.699 C13.304,13.343 14.434,12.313 15.916,12.313 C16.820,12.313 17.674,12.615 18.377,13.242 C18.377,13.242 17.524,14.348 17.524,14.348 C17.097,13.870 16.695,13.669 16.192,13.669 C15.489,13.669 14.987,14.071 14.987,14.599 C14.987,15.051 15.263,15.302 16.243,15.654 C18.101,16.332 18.654,16.935 18.654,18.266 zM25.636,20.526 C24.908,20.878 24.305,21.003 23.602,21.003 C21.115,21.003 19.181,19.095 19.181,16.633 C19.181,14.197 21.165,12.263 23.627,12.263 C24.330,12.263 24.933,12.414 25.636,12.765 C25.636,12.765 25.636,14.699 25.636,14.699 C24.958,14.021 24.380,13.745 23.602,13.745 C22.070,13.745 20.864,15.026 20.864,16.633 C20.864,18.316 22.019,19.521 23.677,19.521 C24.405,19.521 24.983,19.245 25.636,18.592 C25.636,18.592 25.636,20.526 25.636,20.526 zM56.579,35.696 C56.579,36.575 55.850,37.304 54.971,37.304 C54.971,37.304 15.564,37.304 15.564,37.304 C38.420,33.009 52.560,24.972 56.579,22.460 C56.579,22.460 56.579,35.696 56.579,35.696 zM35.205,16.683 C35.205,19.195 33.171,21.229 30.659,21.229 C28.148,21.229 26.113,19.195 26.113,16.683 C26.113,14.172 28.148,12.137 30.659,12.137 C33.171,12.137 35.205,14.172 35.205,16.683 zM39.023,21.028 L38.144,21.028 L34.577,12.439 L36.361,12.439 L38.596,18.065 L40.856,12.439 L42.639,12.439 L39.023,21.028 zM43.368,20.802 L43.368,12.439 L47.989,12.439 L47.989,13.870 L45.000,13.870 L45.000,15.729 L47.889,15.729 L47.889,17.135 L45.000,17.135 L45.000,19.396 L47.989,19.396 L47.989,20.802 L43.368,20.802 zM53.188,20.802 L50.928,17.462 L50.702,17.462 L50.702,20.802 L49.069,20.802 L49.069,12.439 C49.069,12.439 51.505,12.439 51.505,12.439 C53.389,12.439 54.469,13.343 54.469,14.925 C54.469,16.206 53.791,17.035 52.560,17.286 C52.560,17.286 55.197,20.802 55.197,20.802 L53.188,20.802 zM58.186,3.698 C58.186,1.840 56.704,0.333 54.871,0.333 C54.871,0.333 3.634,0.333 3.634,0.333 C1.801,0.333 0.319,1.840 0.319,3.698 C0.319,3.698 0.319,35.545 0.319,35.545 C0.319,37.404 1.801,38.911 3.634,38.911 C3.634,38.911 54.871,38.911 54.871,38.911 C56.704,38.911 58.186,37.404 58.186,35.545 C58.186,35.545 58.186,3.698 58.186,3.698 z" fill="#13425F" />
</svg>
