<?xml version="1.0" encoding="utf-8"?>
<!-- Generator: Adobe Illustrator 19.0.1, SVG Export Plug-In . SVG Version: 6.00 Build 0)  -->
<svg version="1.1" id="Capa_1" xmlns="http://www.w3.org/2000/svg" xmlns:xlink="http://www.w3.org/1999/xlink" x="0px" y="0px"
	 width="20.5px" height="25.3px" viewBox="-952 195.7 20.5 25.3" style="enable-background:new -952 195.7 20.5 25.3;"
	 xml:space="preserve">
<style type="text/css">
	.st0{fill:#254152;}
	.st1{fill:#FFFFFF;}
	.st2{fill:#283942;}
	.st3{fill:#CEC9AE;}
</style>
<polygon class="st0" points="-938.1,196.6 -939.8,196.6 -939.8,197.9 -943.7,197.9 -943.7,196.6 -945.5,196.6 -952,196.6 -952,221 
	-931.5,221 -931.5,196.6 "/>
<rect x="-943.7" y="195.7" class="st0" width="3.9" height="2.2"/>
<polygon class="st1" points="-936.7,197.9 -936.7,199.2 -946.8,199.2 -946.8,197.9 -950.7,197.9 -950.7,219.7 -932.8,219.7 
	-932.8,197.9 "/>
<polygon class="st2" points="-939.8,196.6 -939.8,197.9 -943.7,197.9 -943.7,196.6 -946.8,196.6 -946.8,199.2 -936.7,199.2 
	-936.7,196.6 "/>
<path class="st3" d="M-942.4,202.7h-5.7c-0.2,0-0.4-0.2-0.4-0.4s0.2-0.4,0.4-0.4h5.7c0.2,0,0.4,0.2,0.4,0.4
	S-942.2,202.7-942.4,202.7z"/>
<path class="st3" d="M-942.4,216.2h-5.7c-0.2,0-0.4-0.2-0.4-0.4s0.2-0.4,0.4-0.4h5.7c0.2,0,0.4,0.2,0.4,0.4
	S-942.2,216.2-942.4,216.2z"/>
<path class="st3" d="M-935.4,205.3H-948c-0.2,0-0.4-0.2-0.4-0.4s0.2-0.4,0.4-0.4h12.6c0.2,0,0.4,0.2,0.4,0.4
	S-935.2,205.3-935.4,205.3z"/>
<path class="st3" d="M-935.4,210.5H-948c-0.2,0-0.4-0.2-0.4-0.4s0.2-0.4,0.4-0.4h12.6c0.2,0,0.4,0.2,0.4,0.4
	S-935.2,210.5-935.4,210.5z"/>
<path class="st3" d="M-935.4,213.6H-948c-0.2,0-0.4-0.2-0.4-0.4s0.2-0.4,0.4-0.4h12.6c0.2,0,0.4,0.2,0.4,0.4
	S-935.2,213.6-935.4,213.6z"/>
<path class="st3" d="M-942,207.9h-6.1c-0.2,0-0.4-0.2-0.4-0.4s0.2-0.4,0.4-0.4h6.1c0.2,0,0.4,0.2,0.4,0.4S-941.7,207.9-942,207.9z"
	/>
<path class="st3" d="M-935.4,207.9h-3.1c-0.2,0-0.4-0.2-0.4-0.4s0.2-0.4,0.4-0.4h3.1c0.2,0,0.4,0.2,0.4,0.4
	S-935.2,207.9-935.4,207.9z"/>
<path class="st3" d="M-940.2,207.9c-0.1,0-0.2,0-0.3-0.1s-0.1-0.2-0.1-0.3s0-0.2,0.1-0.3c0.2-0.2,0.5-0.2,0.6,0
	c0.1,0.1,0.1,0.2,0.1,0.3s0,0.2-0.1,0.3C-940,207.8-940.1,207.9-940.2,207.9z"/>
</svg>
