<?xml version="1.0" encoding="utf-8"?>
<!-- Generator: Adobe Illustrator 19.0.1, SVG Export Plug-In . SVG Version: 6.00 Build 0)  -->
<svg version="1.1" id="Layer_1" xmlns="http://www.w3.org/2000/svg" xmlns:xlink="http://www.w3.org/1999/xlink" x="0px" y="0px"
	 width="43px" height="54.2px" viewBox="-941 180.8 43 54.2" style="enable-background:new -941 180.8 43 54.2;"
	 xml:space="preserve">
<style type="text/css">
	.st0{fill:#FF6464;}
	.st1{fill:#D2555A;}
	.st2{fill:#FFD782;}
	.st3{fill:#FFC36E;}
	.st4{fill:#FFE3A8;}
	.st5{fill:#FFD782;stroke:#FFC36E;stroke-width:2;stroke-miterlimit:10;}
	.st6{fill:#FFFFFF;}
</style>
<path class="st0" d="M-902.4,230.3l-4.3,0.5l-2.6,3.4c-0.8,1.1-2.4,1-3.1-0.2l-12.6-21.8l11.3-6.5l12.6,21.8
	C-900.3,228.7-901,230.1-902.4,230.3z"/>
<path class="st1" d="M-908,228.4L-908,228.4c-0.4,0.3-1,0.1-1.3-0.3l-9.3-16.2c-0.3-0.4-0.1-1,0.3-1.3l0,0c0.4-0.3,1-0.1,1.3,0.3
	l9.3,16.2C-907.4,227.5-907.6,228.1-908,228.4z"/>
<path class="st0" d="M-938.3,230.3l4.3,0.5l2.6,3.4c0.8,1.1,2.4,1,3.1-0.2l12.5-21.8l-11.3-6.5l-12.6,21.8
	C-940.4,228.7-939.6,230.1-938.3,230.3z"/>
<g>
	<path class="st1" d="M-905.2,220.1l-8.3-14.4h-13.6l-8.3,14.4c3.3,2.8,7.5,4.7,12,5.3l3.1-5.3l3.1,5.3
		C-912.7,224.8-908.6,222.9-905.2,220.1z"/>
	<path class="st1" d="M-932.7,228.4L-932.7,228.4c0.4,0.3,1,0.1,1.3-0.3l9.3-16.2c0.3-0.4,0.1-1-0.3-1.3l0,0c-0.4-0.3-1-0.1-1.3,0.3
		l-9.3,16.2C-933.3,227.5-933.1,228.1-932.7,228.4z"/>
</g>
<circle class="st2" cx="-920.3" cy="202.3" r="21.5"/>
<g>
	<path class="st3" d="M-920.3,221.9c-10.8,0-19.6-8.8-19.6-19.6s8.8-19.6,19.6-19.6c10.8,0,19.6,8.8,19.6,19.6
		S-909.5,221.9-920.3,221.9z M-920.3,184.5c-9.8,0-17.8,8-17.8,17.8s8,17.8,17.8,17.8c9.8,0,17.8-8,17.8-17.8
		S-910.6,184.5-920.3,184.5z"/>
</g>
<circle class="st4" cx="-920.3" cy="202.3" r="15.9"/>
<path class="st5" d="M-919.2,191.1l2.7,5.5c0.2,0.4,0.5,0.7,1,0.7l6,0.9c1.1,0.2,1.5,1.5,0.7,2.2l-4.3,4.3c-0.3,0.3-0.4,0.7-0.4,1.2
	l1,6.1c0.2,1.1-0.9,1.9-1.9,1.4l-5.4-2.9c-0.4-0.2-0.8-0.2-1.2,0l-5.4,2.9c-0.9,0.5-2-0.3-1.9-1.4l1-6.1c0.1-0.4-0.1-0.9-0.4-1.2
	l-4.3-4.3c-0.8-0.8-0.3-2.1,0.7-2.2l6-0.9c0.4-0.1,0.8-0.3,1-0.7l2.7-5.5C-921,190.1-919.7,190.1-919.2,191.1z"/>
<g>
	<path class="st6" d="M-906.3,190.3c-1.9-0.4-3.4-1.9-3.9-3.9c0-0.1-0.2-0.1-0.3,0c-0.4,1.9-1.9,3.4-3.9,3.9c-0.1,0-0.1,0.2,0,0.3
		c1.9,0.4,3.4,1.9,3.9,3.9c0,0.1,0.2,0.1,0.3,0c0.4-1.9,1.9-3.4,3.9-3.9C-906.2,190.5-906.2,190.3-906.3,190.3z"/>
	<path class="st6" d="M-913,195.9c-1.2-0.3-2.1-1.2-2.4-2.4c0-0.1-0.2-0.1-0.2,0c-0.3,1.2-1.2,2.1-2.4,2.4c-0.1,0-0.1,0.2,0,0.2
		c1.2,0.3,2.1,1.2,2.4,2.4c0,0.1,0.2,0.1,0.2,0c0.3-1.2,1.2-2.1,2.4-2.4C-912.9,196-912.9,195.9-913,195.9z"/>
</g>
</svg>
