<svg version="1.1" xmlns="http://www.w3.org/2000/svg" xmlns:xlink="http://www.w3.org/1999/xlink" width="16" height="13" viewBox="0 0 16 13">
<path id="icon-sign-in" d="M14.838,13.023 C14.838,13.023 2.873,13.023 2.873,13.023 C2.625,13.023 2.423,12.819 2.423,12.568 C2.423,12.568 2.423,9.421 2.423,9.421 C2.423,9.170 2.625,8.966 2.873,8.966 C3.122,8.966 3.324,9.170 3.324,9.421 C3.324,9.421 3.324,12.112 3.324,12.112 L14.387,12.112 L14.387,0.931 L3.324,0.931 C3.324,0.931 3.324,3.622 3.324,3.622 C3.324,3.873 3.122,4.077 2.873,4.077 C2.625,4.077 2.423,3.873 2.423,3.622 C2.423,3.622 2.423,0.475 2.423,0.475 C2.423,0.224 2.625,0.020 2.873,0.020 C2.873,0.020 14.838,0.020 14.838,0.020 C15.087,0.020 15.288,0.224 15.288,0.475 C15.288,0.475 15.288,12.568 15.288,12.568 C15.288,12.819 15.087,13.023 14.838,13.023 zM6.969,3.618 C6.969,3.434 7.079,3.268 7.247,3.197 C7.415,3.127 7.609,3.166 7.738,3.296 C7.738,3.296 10.611,6.200 10.611,6.200 C10.695,6.285 10.742,6.401 10.742,6.522 C10.742,6.643 10.695,6.758 10.611,6.843 C10.611,6.843 7.738,9.747 7.738,9.747 C7.652,9.834 7.536,9.880 7.419,9.880 C7.361,9.880 7.303,9.869 7.247,9.846 C7.079,9.775 6.969,9.609 6.969,9.425 C6.969,9.425 6.969,6.977 6.969,6.977 C6.969,6.977 0.736,6.977 0.736,6.977 C0.487,6.977 0.285,6.773 0.285,6.522 C0.285,6.270 0.487,6.066 0.736,6.066 C0.736,6.066 6.969,6.066 6.969,6.066 C6.969,6.066 6.969,3.618 6.969,3.618 zM7.870,8.326 L9.655,6.522 L7.870,4.718 L7.870,8.326 z" fill="#FFFFFF" />
</svg>
