<?xml version="1.0" encoding="utf-8"?>
<!-- Generator: Adobe Illustrator 19.0.1, SVG Export Plug-In . SVG Version: 6.00 Build 0)  -->
<svg version="1.1" id="Layer_1" xmlns="http://www.w3.org/2000/svg" xmlns:xlink="http://www.w3.org/1999/xlink" x="0px" y="0px"
	 width="50.9px" height="54.1px" viewBox="-937 180.9 50.9 54.1" style="enable-background:new -937 180.9 50.9 54.1;"
	 xml:space="preserve">
<style type="text/css">
	.st0{fill:#FFD682;stroke:#FFC36D;stroke-miterlimit:10;}
	.st1{fill:#FF6363;}
</style>
<g>
	<path class="st0" d="M-893.7,200.2l4-1.7c-1-2.1-2.3-4.1-3.9-5.8l-3,3C-895.5,197.1-894.5,198.6-893.7,200.2z"/>
	<path class="st0" d="M-891.5,208h4.3c-0.1-2.4-0.6-4.7-1.4-6.9l-4,1.7C-892,204.4-891.7,206.2-891.5,208z"/>
	<path class="st0" d="M-895.5,190.8c-1.7-1.5-3.7-2.9-5.8-3.9l-1.7,4c1.6,0.8,3.1,1.8,4.4,3L-895.5,190.8z"/>
	<path class="st0" d="M-892.5,216l4,1.7c0.8-2.2,1.2-4.5,1.4-6.9h-4.4C-891.7,212.6-892,214.3-892.5,216z"/>
	<path class="st0" d="M-912.2,230c-11.4,0-20.6-9.3-20.6-20.6s9.1-20.5,20.3-20.6v2.6l6.2-4.9l-6.2-4.9v2.8
		c-13.6,0.2-24.6,11.3-24.6,24.9c0,13.7,11.2,24.9,24.9,24.9c9.9,0,18.4-5.8,22.5-14.1l-4-1.7C-897,225.3-904,230-912.2,230z"/>
</g>
<g>
	<path class="st1" d="M-921.5,207.1c0.3-0.4,0.4-0.8,0.4-1.2s-0.1-0.7-0.4-1s-0.6-0.4-1-0.4c-0.7,0-1.4,0.5-2.1,1.5l-2.1-1.2
		c0.5-0.8,1.1-1.5,1.8-1.9c0.6-0.4,1.5-0.6,2.5-0.6s1.9,0.3,2.6,0.9s1.1,1.5,1.1,2.6c0,0.6-0.2,1.2-0.5,1.7
		c-0.3,0.5-0.9,1.2-1.7,2.1l-2.1,2.2h4.6v2.3h-8.1v-1.9l3.4-3.5C-922.3,208-921.8,207.5-921.5,207.1z"/>
	<path class="st1" d="M-912,209.1v-2h2.5v2h1.3v2.2h-1.3v2.8h-2.5v-2.8h-4.6v-2l4.1-6.8h2.8l-3.9,6.5L-912,209.1L-912,209.1z"/>
	<path class="st1" d="M-904,209.3v4.8h-2.5v-12.2h2.5v4.4c0.7-0.8,1.6-1.1,2.5-1.1c0.9,0,1.7,0.3,2.4,1c0.6,0.7,1,1.5,1,2.6v5.4
		h-2.5v-4.9c0-1.4-0.5-2-1.5-2c-0.5,0-0.9,0.2-1.3,0.5C-903.8,208.1-904,208.6-904,209.3z"/>
</g>
</svg>
