<?xml version="1.0" encoding="utf-8"?>
<!-- Generator: Adobe Illustrator 19.0.1, SVG Export Plug-In . SVG Version: 6.00 Build 0)  -->
<svg version="1.1" id="Layer_1" xmlns="http://www.w3.org/2000/svg" xmlns:xlink="http://www.w3.org/1999/xlink" x="0px" y="0px"
	 width="124.5px" height="111.6px" viewBox="-900 152.4 124.5 111.6" style="enable-background:new -900 152.4 124.5 111.6;"
	 xml:space="preserve">
<style type="text/css">
	.st0{fill:#10C0E7;}
	.st1{fill:#FFD582;}
	.st2{fill:#FF8064;}
</style>
<path class="st0" d="M-776.5,254l-55.5-98.2c-2.6-4.5-9.1-4.5-11.6,0l-55.5,98.2c-2.5,4.5,0.7,10,5.8,10h111.1
	C-777.2,264-774,258.4-776.5,254z"/>
<polygon class="st1" points="-890.1,254.4 -837.8,162 -785.6,254.4 "/>
<path class="st2" d="M-837.8,229.7L-837.8,229.7c-3.3,0-5.9-2.6-5.9-5.9v-30.9c0-3.3,2.6-5.9,5.9-5.9l0,0c3.3,0,5.9,2.6,5.9,5.9
	v30.9C-831.9,227-834.6,229.7-837.8,229.7z"/>
<path class="st2" d="M-837.8,249.1L-837.8,249.1c-3.3,0-5.9-2.6-5.9-5.9v-0.7c0-3.3,2.6-5.9,5.9-5.9l0,0c3.3,0,5.9,2.6,5.9,5.9v0.7
	C-831.9,246.4-834.6,249.1-837.8,249.1z"/>
</svg>
