<?xml version="1.0" encoding="utf-8"?>
<!-- Generator: Adobe Illustrator 19.0.1, SVG Export Plug-In . SVG Version: 6.00 Build 0)  -->
<svg version="1.1" id="Layer_1" xmlns="http://www.w3.org/2000/svg" xmlns:xlink="http://www.w3.org/1999/xlink" x="0px" y="0px"
	 width="202px" height="25px" viewBox="-861 195 202 25" style="enable-background:new -861 195 202 25;" xml:space="preserve">
<style type="text/css">
	.st0{fill:#FF8065;}
	.st1{fill:#134260;}
</style>
<g id="logo">
	<path id="Essay" class="st0" d="M-772.6,209.6v9.7h-5v-9.7l-8.5-13h6.2l4.8,8.5l5.1-8.5h5.9L-772.6,209.6z M-788.1,219.2l-2-4.8
		h-8.8l-1.9,4.8h-5.5l9.8-22.7h4.1l9.9,22.7H-788.1z M-794.6,203.1l-2.8,7h5.5L-794.6,203.1z M-816.4,219.8c-2.9,0-5.5-0.9-7.6-2.8
		l3.6-3.9c1,1.3,2.7,2.1,4.4,2.1c1.6,0,3.5-0.8,3.5-2.4c0-4.2-10.6-1.9-10.6-9.5c0-4.8,4.2-7.4,8.6-7.4c2.6,0,5,0.7,6.9,2.4
		l-3.4,3.7c-0.8-1-2.4-1.5-3.6-1.5c-1.4,0-3.4,0.6-3.4,2.3c0,4.1,10.4,1.5,10.4,9.4C-807.7,217.4-811.7,219.8-816.4,219.8z
		 M-834.8,219.8c-2.9,0-5.5-0.9-7.6-2.8l3.6-3.9c1,1.3,2.7,2.1,4.4,2.1c1.6,0,3.5-0.8,3.5-2.4c0-4.2-10.6-1.9-10.6-9.5
		c0-4.8,4.2-7.4,8.6-7.4c2.6,0,5,0.7,6.9,2.4l-3.4,3.7c-0.8-1-2.4-1.5-3.6-1.5c-1.4,0-3.4,0.6-3.4,2.3c0,4.1,10.4,1.5,10.4,9.4
		C-826,217.4-830.1,219.8-834.8,219.8z M-860.7,196.6h15.4v4.6h-10.4v4.2h9.8v4.6h-9.8v4.6h11v4.6h-16V196.6z"/>
	<path id="Assist" class="st1" d="M-667.1,198.4v20.2h-2.7v-20.2h-7.5v-2.5h17.7v2.5H-667.1z M-679.3,212.5c0,4.5-3.9,6.6-8,6.6
		c-2.6,0-5.4-0.9-7-3.1l2.3-1.9c1,1.7,2.9,2.5,4.8,2.5c2.3,0,4.9-1.3,4.9-3.9c0-2.8-1.9-3.3-5.9-4.6c-3.2-1.1-5.6-2.5-5.6-6.2
		c0-4.4,3.7-6.5,7.7-6.5c2.5,0,4.7,0.7,6.3,2.7l-2.2,1.9c-0.9-1.4-2.5-2.1-4.1-2.1c-2.4,0-4.8,1.1-4.8,3.8c0,2.1,1.2,3,4.8,4.2
		C-682.6,206.9-679.3,208.1-679.3,212.5z M-701,195.9h2.7v22.7h-2.7V195.9z M-705.4,212.5c0,4.5-3.9,6.6-8,6.6c-2.6,0-5.4-0.9-7-3.1
		l2.3-1.9c1,1.7,2.9,2.5,4.8,2.5c2.3,0,4.9-1.3,4.9-3.9c0-2.8-1.9-3.3-5.9-4.6c-3.2-1.1-5.6-2.5-5.6-6.2c0-4.4,3.7-6.5,7.7-6.5
		c2.5,0,4.7,0.7,6.3,2.7l-2.2,1.9c-0.9-1.4-2.5-2.1-4.1-2.1c-2.4,0-4.8,1.1-4.8,3.8c0,2.1,1.2,3,4.8,4.2
		C-708.7,206.9-705.4,208.1-705.4,212.5z M-723.2,212.5c0,4.5-3.9,6.6-8,6.6c-2.6,0-5.4-0.9-7-3.1l2.3-1.9c1,1.7,2.9,2.5,4.8,2.5
		c2.3,0,4.9-1.3,4.9-3.9c0-2.8-1.9-3.3-5.9-4.6c-3.2-1.1-5.6-2.5-5.6-6.2c0-4.4,3.7-6.5,7.7-6.5c2.5,0,4.7,0.7,6.3,2.7l-2.2,1.9
		c-0.9-1.4-2.5-2.1-4.1-2.1c-2.4,0-4.8,1.1-4.8,3.8c0,2.1,1.2,3,4.8,4.2C-726.5,206.9-723.2,208.1-723.2,212.5z M-745,213h-11.3
		l-2.3,5.6h-3l10-22.7h2.5l9.6,22.7h-3.1L-745,213z M-750.5,199.3L-750.5,199.3l-4.8,11.1h9.2L-750.5,199.3z"/>
</g>
</svg>
