<svg version="1.1" xmlns="http://www.w3.org/2000/svg" xmlns:xlink="http://www.w3.org/1999/xlink" width="202" height="25" viewBox="0 0 202 25">
<g id="logo-hover">
<path id="Essay" d="M88.380,14.552 L88.380,24.217 L83.387,24.217 L83.387,14.552 L74.874,1.557 L81.083,1.557 L85.883,10.039 L90.972,1.557 L96.893,1.557 L88.380,14.552 zM72.856,24.217 L70.904,19.416 L62.103,19.416 L60.215,24.217 L54.710,24.217 L64.503,1.557 L68.632,1.557 L78.489,24.217 L72.856,24.217 zM66.423,8.150 L63.671,15.192 L69.208,15.192 L66.423,8.150 zM44.596,24.793 C41.683,24.793 39.123,23.929 36.979,21.945 C36.979,21.945 40.531,18.040 40.531,18.040 C41.555,19.384 43.219,20.185 44.884,20.185 C46.516,20.185 48.340,19.416 48.340,17.816 C48.340,13.655 37.715,15.896 37.715,8.342 C37.715,3.510 41.907,0.981 46.356,0.981 C48.916,0.981 51.380,1.653 53.301,3.350 C53.301,3.350 49.876,7.094 49.876,7.094 C49.076,6.070 47.476,5.590 46.260,5.590 C44.852,5.590 42.899,6.230 42.899,7.926 C42.899,12.055 53.333,9.399 53.333,17.336 C53.333,22.393 49.268,24.793 44.596,24.793 zM26.224,24.793 C23.312,24.793 20.752,23.929 18.607,21.945 C18.607,21.945 22.160,18.040 22.160,18.040 C23.184,19.384 24.848,20.185 26.512,20.185 C28.145,20.185 29.969,19.416 29.969,17.816 C29.969,13.655 19.343,15.896 19.343,8.342 C19.343,3.510 23.536,0.981 27.985,0.981 C30.545,0.981 33.009,1.653 34.929,3.350 C34.929,3.350 31.505,7.094 31.505,7.094 C30.705,6.070 29.105,5.590 27.888,5.590 C26.480,5.590 24.528,6.230 24.528,7.926 C24.528,12.055 34.961,9.399 34.961,17.336 C34.961,22.393 30.897,24.793 26.224,24.793 zM0.332,1.557 L15.726,1.557 L15.726,6.166 L5.324,6.166 L5.324,10.391 L15.150,10.391 L15.150,15.000 L5.324,15.000 L5.324,19.609 L16.302,19.609 L16.302,24.217 L0.332,24.217 L0.332,1.557 z" fill="#134260" />
<path id="Assist" d="M193.872,3.387 L193.872,23.550 L191.183,23.550 L191.183,3.387 L183.694,3.387 L183.694,0.890 L201.361,0.890 L201.361,3.387 L193.872,3.387 zM181.709,17.501 C181.709,22.014 177.836,24.127 173.740,24.127 C171.116,24.127 168.299,23.262 166.763,20.990 C166.763,20.990 169.067,19.102 169.067,19.102 C170.027,20.766 171.948,21.630 173.900,21.630 C176.204,21.630 178.829,20.286 178.829,17.693 C178.829,14.909 176.940,14.429 172.908,13.085 C169.707,12.028 167.275,10.620 167.275,6.844 C167.275,2.491 171.020,0.314 174.988,0.314 C177.516,0.314 179.661,1.018 181.325,2.971 C181.325,2.971 179.117,4.891 179.117,4.891 C178.220,3.451 176.620,2.811 174.988,2.811 C172.620,2.811 170.155,3.931 170.155,6.619 C170.155,8.700 171.308,9.628 174.924,10.780 C178.444,11.900 181.709,13.053 181.709,17.501 zM160.042,0.890 L162.730,0.890 L162.730,23.550 L160.042,23.550 L160.042,0.890 zM155.592,17.501 C155.592,22.014 151.719,24.127 147.623,24.127 C144.999,24.127 142.182,23.262 140.646,20.990 C140.646,20.990 142.950,19.102 142.950,19.102 C143.910,20.766 145.831,21.630 147.783,21.630 C150.087,21.630 152.711,20.286 152.711,17.693 C152.711,14.909 150.823,14.429 146.791,13.085 C143.590,12.028 141.158,10.620 141.158,6.844 C141.158,2.491 144.902,0.314 148.871,0.314 C151.399,0.314 153.544,1.018 155.208,2.971 C155.208,2.971 153.000,4.891 153.000,4.891 C152.103,3.451 150.503,2.811 148.871,2.811 C146.503,2.811 144.038,3.931 144.038,6.619 C144.038,8.700 145.191,9.628 148.807,10.780 C152.327,11.900 155.592,13.053 155.592,17.501 zM137.796,17.501 C137.796,22.014 133.924,24.127 129.827,24.127 C127.203,24.127 124.387,23.262 122.850,20.990 C122.850,20.990 125.155,19.102 125.155,19.102 C126.115,20.766 128.035,21.630 129.987,21.630 C132.292,21.630 134.916,20.286 134.916,17.693 C134.916,14.909 133.028,14.429 128.995,13.085 C125.795,12.028 123.362,10.620 123.362,6.844 C123.362,2.491 127.107,0.314 131.075,0.314 C133.604,0.314 135.748,1.018 137.412,2.971 C137.412,2.971 135.204,4.891 135.204,4.891 C134.308,3.451 132.708,2.811 131.075,2.811 C128.707,2.811 126.243,3.931 126.243,6.619 C126.243,8.700 127.395,9.628 131.011,10.780 C134.532,11.900 137.796,13.053 137.796,17.501 zM116.000,17.981 L104.671,17.981 L102.334,23.550 L99.294,23.550 L109.279,0.890 L111.808,0.890 L121.441,23.550 L118.304,23.550 L116.000,17.981 zM110.495,4.347 L110.431,4.347 L105.727,15.485 L114.976,15.485 L110.495,4.347 z" fill="#FF8064" />
</g>
</svg>
