<svg version="1.1" xmlns="http://www.w3.org/2000/svg" xmlns:xlink="http://www.w3.org/1999/xlink" width="34" height="34" viewBox="0 0 34 34">
<path id="icon-menu" d="M17.000,34.000 C7.626,34.000 -0.000,26.374 -0.000,17.000 C-0.000,7.626 7.626,-0.000 17.000,-0.000 C26.374,-0.000 34.000,7.626 34.000,17.000 C34.000,26.374 26.374,34.000 17.000,34.000 zM17.000,1.214 C8.295,1.214 1.214,8.296 1.214,17.000 C1.214,25.704 8.295,32.786 17.000,32.786 C25.705,32.786 32.786,25.704 32.786,17.000 C32.786,8.296 25.705,1.214 17.000,1.214 zM27.321,20.036 C27.321,20.036 6.679,20.036 6.679,20.036 C6.343,20.036 6.071,19.764 6.071,19.428 C6.071,19.093 6.343,18.821 6.679,18.821 C6.679,18.821 27.321,18.821 27.321,18.821 C27.657,18.821 27.929,19.093 27.929,19.428 C27.929,19.764 27.657,20.036 27.321,20.036 zM27.321,15.178 C27.321,15.178 6.679,15.178 6.679,15.178 C6.343,15.178 6.071,14.906 6.071,14.571 C6.071,14.236 6.343,13.964 6.679,13.964 C6.679,13.964 27.321,13.964 27.321,13.964 C27.657,13.964 27.929,14.236 27.929,14.571 C27.929,14.906 27.657,15.178 27.321,15.178 zM24.893,10.321 C24.893,10.321 9.107,10.321 9.107,10.321 C8.771,10.321 8.500,10.049 8.500,9.714 C8.500,9.379 8.771,9.107 9.107,9.107 C9.107,9.107 24.893,9.107 24.893,9.107 C25.229,9.107 25.500,9.379 25.500,9.714 C25.500,10.049 25.229,10.321 24.893,10.321 zM9.107,23.678 C9.107,23.678 24.893,23.678 24.893,23.678 C25.229,23.678 25.500,23.950 25.500,24.286 C25.500,24.621 25.229,24.893 24.893,24.893 C24.893,24.893 9.107,24.893 9.107,24.893 C8.771,24.893 8.500,24.621 8.500,24.286 C8.500,23.950 8.771,23.678 9.107,23.678 z" fill="#FF8065" />
</svg>
