<svg version="1.1" xmlns="http://www.w3.org/2000/svg" xmlns:xlink="http://www.w3.org/1999/xlink" width="34" height="34" viewBox="0 0 34 34">
<g id="-telephone-mobil">
<path id="Фигура-1" d="M17.000,-0.000 C7.626,-0.000 -0.000,7.626 -0.000,17.000 C-0.000,26.374 7.626,34.000 17.000,34.000 C26.374,34.000 34.000,26.374 34.000,17.000 C34.000,7.626 26.374,-0.000 17.000,-0.000 zM17.000,32.786 C8.295,32.786 1.214,25.704 1.214,17.000 C1.214,8.296 8.295,1.214 17.000,1.214 C25.705,1.214 32.786,8.296 32.786,17.000 C32.786,25.704 25.705,32.786 17.000,32.786 z" fill="#FF8065" />
<path id="Фигура-19" d="M21.824,25.992 C21.906,25.996 21.984,26.000 22.065,26.000 C22.938,26.000 23.666,25.685 24.239,25.067 C24.242,25.063 24.250,25.056 24.253,25.052 C24.458,24.808 24.688,24.586 24.933,24.353 C25.100,24.193 25.271,24.030 25.431,23.860 C26.193,23.068 26.189,22.065 25.424,21.302 C25.424,21.302 23.306,19.192 23.306,19.192 C22.942,18.814 22.507,18.614 22.047,18.614 C21.590,18.614 21.151,18.810 20.776,19.184 C20.776,19.184 19.524,20.432 19.524,20.432 C19.413,20.369 19.298,20.314 19.186,20.258 C19.045,20.188 18.915,20.121 18.800,20.051 C17.652,19.325 16.612,18.377 15.616,17.159 C15.115,16.530 14.784,16.004 14.550,15.464 C14.877,15.167 15.182,14.860 15.475,14.560 C15.583,14.453 15.691,14.342 15.802,14.231 C16.597,13.439 16.597,12.458 15.802,11.669 C15.802,11.669 14.751,10.621 14.751,10.621 C14.628,10.499 14.509,10.377 14.390,10.259 C14.156,10.022 13.915,9.774 13.673,9.552 C13.309,9.189 12.878,9.000 12.421,9.000 C11.968,9.000 11.530,9.189 11.151,9.552 C11.151,9.552 9.832,10.862 9.832,10.862 C9.349,11.343 9.074,11.928 9.015,12.606 C8.948,13.450 9.104,14.346 9.505,15.427 C10.126,17.096 11.058,18.648 12.440,20.306 C14.123,22.305 16.144,23.886 18.454,25.000 C19.335,25.419 20.512,25.907 21.824,25.992 zM13.142,19.725 C11.827,18.148 10.947,16.682 10.363,15.112 C10.003,14.146 9.869,13.394 9.925,12.680 C9.966,12.217 10.144,11.832 10.479,11.502 C10.479,11.502 11.790,10.196 11.790,10.196 C11.990,10.003 12.210,9.903 12.425,9.903 C12.637,9.903 12.845,10.003 13.046,10.199 C13.280,10.418 13.506,10.647 13.744,10.888 C13.863,11.010 13.985,11.136 14.112,11.258 C14.112,11.258 15.163,12.306 15.163,12.306 C15.594,12.735 15.594,13.157 15.163,13.587 C15.052,13.698 14.940,13.809 14.832,13.920 C14.505,14.249 14.201,14.560 13.863,14.860 C13.855,14.868 13.852,14.871 13.844,14.879 C13.543,15.179 13.588,15.468 13.662,15.682 C13.666,15.693 13.670,15.701 13.673,15.712 C13.945,16.363 14.327,16.982 14.914,17.722 C15.973,19.021 17.087,20.032 18.321,20.813 C18.473,20.909 18.633,20.991 18.789,21.069 C18.930,21.139 19.060,21.206 19.175,21.276 C19.190,21.283 19.201,21.291 19.216,21.298 C19.335,21.357 19.450,21.387 19.569,21.387 C19.862,21.387 20.048,21.202 20.108,21.139 C20.108,21.139 21.426,19.825 21.426,19.825 C21.627,19.625 21.842,19.521 22.054,19.521 C22.314,19.521 22.526,19.684 22.663,19.825 C22.663,19.825 24.788,21.942 24.788,21.942 C25.308,22.461 25.071,22.927 24.777,23.234 C24.629,23.394 24.473,23.542 24.309,23.701 C24.060,23.938 23.804,24.186 23.570,24.464 C23.169,24.893 22.693,25.093 22.073,25.093 C22.013,25.093 21.950,25.089 21.891,25.086 C20.735,25.012 19.665,24.564 18.859,24.182 C16.660,23.127 14.739,21.628 13.142,19.725 z" fill="#FF8065" />
</g>
</svg>
