<?xml version="1.0" encoding="utf-8"?>
<!-- Generator: Adobe Illustrator 19.2.1, SVG Export Plug-In . SVG Version: 6.00 Build 0)  -->
<svg version="1.1" id="Слой_1" xmlns="http://www.w3.org/2000/svg" xmlns:xlink="http://www.w3.org/1999/xlink" x="0px" y="0px"
	 viewBox="0 0 135 40" style="enable-background:new 0 0 135 40;" xml:space="preserve">
<style type="text/css">
	.st0{fill:#282828;}
	.st1{opacity:0.15;fill:#FFFFFF;}
	.st2{fill:#FFFFFF;}
	.st3{fill:#A6A6A6;}
</style>
<path id="path-1" class="st0" d="M130.2,40H4.7C2.1,40,0,37.9,0,35.3V4.7C0,2.1,2.1,0,4.7,0h125.5c2.6,0,4.8,2.1,4.8,4.7v30.5
	C135,37.9,132.8,40,130.2,40z"/>
<path class="st1" d="M130.2,0H4.7C2.1,0,0,2.1,0,4.7v27L135,9.9V4.7C135,2.1,132.8,0,130.2,0z"/>
<path id="path-2" class="st2" d="M122.9,27.8h-6.4c0,0.9,0.3,1.7,0.9,2.2c0.5,0.4,1.2,0.7,2.1,0.7c1,0,1.8-0.1,2.6-0.5l0.3,1.5
	c-0.9,0.4-2,0.6-3.2,0.6c-1.5,0-2.7-0.4-3.5-1.3c-0.9-0.9-1.3-2-1.3-3.5c0-1.4,0.4-2.6,1.2-3.6c0.8-1,2-1.5,3.4-1.5
	c1.4,0,2.4,0.5,3.2,1.5c0.6,0.8,0.8,1.8,0.8,3C123,27.3,123,27.6,122.9,27.8z M120.5,24.7c-0.4-0.6-0.9-0.9-1.7-0.9
	c-0.7,0-1.3,0.3-1.7,0.9c-0.4,0.5-0.6,1-0.6,1.6h4.5C121,25.7,120.8,25.2,120.5,24.7z M118.8,12.1c0,0.5,0.2,0.8,0.5,1.1
	c0.3,0.2,0.6,0.3,1,0.3c0.5,0,0.9-0.1,1.3-0.2l0.2,0.7c-0.4,0.2-1,0.3-1.6,0.3c-0.7,0-1.3-0.2-1.7-0.6c-0.4-0.4-0.6-1-0.6-1.7
	c0-0.7,0.2-1.3,0.6-1.8c0.4-0.5,1-0.8,1.7-0.8c0.7,0,1.2,0.3,1.5,0.8c0.3,0.4,0.4,0.9,0.4,1.5c0,0.2,0,0.3,0,0.5H118.8z M120.8,10.5
	c-0.2-0.3-0.5-0.4-0.8-0.4c-0.3,0-0.6,0.1-0.8,0.4c-0.2,0.2-0.3,0.5-0.3,0.8h2.2C121,11,121,10.8,120.8,10.5z M115.2,11.5
	c0-0.8-0.3-1.3-1-1.3c-0.5,0-0.8,0.2-1,0.7c0,0.1-0.1,0.2,0,0.4v2.8h-1.1V7.3h1.1v2.8h0c0.3-0.5,0.8-0.8,1.4-0.8
	c0.4,0,0.8,0.1,1.1,0.4c0.4,0.4,0.5,0.9,0.5,1.6v2.8h-1.1C115.2,14.1,115.2,11.5,115.2,11.5z M113.4,22.4v2c-0.2,0-0.4-0.1-0.7-0.1
	c-0.8,0-1.3,0.3-1.7,0.8c-0.4,0.5-0.5,1.1-0.5,1.9v5h-2.1l0-6.5c0-1.1,0-2.1-0.1-3h1.9l0.1,1.8h0.1c0.2-0.6,0.6-1.1,1.1-1.5
	c0.4-0.3,1-0.5,1.5-0.5C113.1,22.4,113.3,22.4,113.4,22.4L113.4,22.4z M109.6,12.5c0,0.6,0.2,0.9,0.6,0.9c0.2,0,0.3,0,0.5,0l0,0.8
	c-0.2,0.1-0.5,0.1-0.8,0.1c-0.4,0-0.7-0.1-1-0.4c-0.2-0.3-0.4-0.7-0.4-1.3v-2.4h-0.7V9.5h0.7V8.6l1-0.3v1.2h1.2v0.8h-1.2V12.5z
	 M101.7,32.3c-1.4,0-2.5-0.5-3.4-1.4S97,28.8,97,27.4c0-1.5,0.4-2.7,1.3-3.6c0.9-0.9,2-1.4,3.5-1.4c1.4,0,2.6,0.5,3.4,1.4
	c0.8,0.9,1.2,2.1,1.2,3.5c0,1.5-0.4,2.7-1.3,3.6C104.3,31.8,103.1,32.3,101.7,32.3z M103.7,25.1c-0.4-0.8-1.1-1.1-1.9-1.1
	c-0.9,0-1.5,0.4-2,1.1c-0.4,0.6-0.6,1.4-0.6,2.3c0,0.9,0.2,1.6,0.6,2.3c0.5,0.8,1.1,1.1,1.9,1.1c0.8,0,1.5-0.4,1.9-1.2
	c0.4-0.6,0.6-1.4,0.6-2.3C104.2,26.4,104,25.7,103.7,25.1z M102.6,11.5c0-0.8-0.3-1.2-1-1.2c-0.3,0-0.6,0.1-0.8,0.3
	c-0.2,0.2-0.3,0.5-0.3,0.8v2.8h-1.1v-3.3c0-0.4,0-0.9,0-1.3h0.9l0.1,0.7h0c0.1-0.2,0.3-0.4,0.5-0.6c0.3-0.2,0.6-0.3,1-0.3
	c0.4,0,0.8,0.1,1.1,0.4c0.4,0.3,0.5,0.9,0.5,1.6v2.8h-1.1L102.6,11.5L102.6,11.5z M95.6,14.3c-0.7,0-1.2-0.2-1.7-0.7
	c-0.4-0.5-0.6-1-0.6-1.7c0-0.7,0.2-1.3,0.6-1.8s1-0.7,1.7-0.7c0.7,0,1.3,0.2,1.7,0.7c0.4,0.4,0.6,1,0.6,1.7c0,0.7-0.2,1.3-0.6,1.8
	C96.9,14,96.3,14.3,95.6,14.3z M96.6,10.7c-0.2-0.4-0.5-0.6-0.9-0.6c-0.4,0-0.7,0.2-1,0.6c-0.2,0.3-0.3,0.7-0.3,1.1
	c0,0.4,0.1,0.8,0.3,1.1c0.2,0.4,0.5,0.6,1,0.6c0.4,0,0.7-0.2,0.9-0.6c0.2-0.3,0.3-0.7,0.3-1.1C96.9,11.4,96.8,11,96.6,10.7z
	 M93.4,20.2v2.4h2.4v1.6h-2.4v4.6c0,1.2,0.4,1.8,1.2,1.8c0.4,0,0.7,0,1-0.1l0.1,1.6c-0.4,0.2-1,0.2-1.7,0.2c-0.8,0-1.5-0.3-2-0.8
	c-0.5-0.5-0.7-1.4-0.7-2.6v-4.8h-1.4v-1.6h1.4v-1.7C91.3,20.8,93.4,20.2,93.4,20.2z M88,13.4L88,13.4c-0.3,0.6-0.8,0.9-1.5,0.9
	c-0.6,0-1-0.2-1.4-0.7c-0.4-0.4-0.6-1-0.6-1.7c0-0.8,0.2-1.4,0.6-1.8c0.4-0.4,0.9-0.7,1.5-0.7c0.6,0,1.1,0.2,1.3,0.6h0V7.3h1.1v5.6
	c0,0.5,0,0.9,0,1.3H88C88,14.1,88,13.4,88,13.4z M87.9,11.4c0-0.1,0-0.2,0-0.3c-0.1-0.2-0.2-0.5-0.4-0.6c-0.2-0.2-0.4-0.3-0.7-0.3
	c-0.4,0-0.7,0.2-0.9,0.5c-0.2,0.3-0.3,0.7-0.3,1.2c0,0.5,0.1,0.8,0.3,1.1c0.2,0.3,0.5,0.5,0.9,0.5c0.3,0,0.6-0.1,0.8-0.4
	c0.2-0.2,0.3-0.5,0.3-0.9V11.4z M88.2,19.3L87.7,21c-0.8-0.4-1.6-0.6-2.6-0.6c-0.8,0-1.3,0.2-1.8,0.5c-0.3,0.3-0.5,0.7-0.5,1.2
	c0,0.5,0.2,1,0.6,1.3c0.4,0.3,1,0.7,1.9,1c1.2,0.5,2,1,2.5,1.6c0.5,0.6,0.8,1.4,0.8,2.3c0,1.1-0.4,2-1.2,2.7
	c-0.9,0.8-2.1,1.2-3.6,1.2c-1.4,0-2.6-0.3-3.5-0.8l0.5-1.8c0.9,0.6,2,0.8,3.1,0.8c0.8,0,1.4-0.2,1.9-0.5c0.4-0.4,0.7-0.8,0.7-1.4
	c0-0.5-0.2-1-0.6-1.4c-0.4-0.4-1-0.7-1.8-1c-2.3-0.9-3.5-2.1-3.5-3.8c0-1.1,0.4-2,1.2-2.7c0.8-0.7,1.9-1,3.3-1
	C86.4,18.7,87.4,18.9,88.2,19.3z M82,13.6L82,13.6c-0.4,0.4-0.8,0.6-1.4,0.6c-0.4,0-0.8-0.1-1.1-0.4c-0.2-0.3-0.4-0.6-0.4-1
	c0-0.6,0.2-1,0.7-1.3c0.5-0.3,1.2-0.4,2-0.4V11c0-0.6-0.3-0.9-1-0.9c-0.5,0-0.9,0.1-1.2,0.3l-0.2-0.7c0.4-0.3,1-0.4,1.6-0.4
	c1.2,0,1.9,0.6,1.9,1.9V13c0,0.5,0,0.8,0.1,1.1h-0.9C82.1,14.1,82,13.6,82,13.6z M81.9,11.8c-1.2,0-1.7,0.3-1.7,0.9
	c0,0.2,0.1,0.4,0.2,0.6c0.1,0.1,0.3,0.2,0.5,0.2c0.2,0,0.4-0.1,0.6-0.2c0.2-0.2,0.4-0.4,0.4-0.7C81.9,12.5,81.9,11.8,81.9,11.8z
	 M75.5,14.3c-0.7,0-1.2-0.2-1.7-0.7c-0.4-0.5-0.6-1-0.6-1.7c0-0.7,0.2-1.3,0.6-1.8s1-0.7,1.7-0.7c0.7,0,1.3,0.2,1.7,0.7
	c0.4,0.4,0.6,1,0.6,1.7c0,0.7-0.2,1.3-0.6,1.8C76.8,14,76.3,14.3,75.5,14.3z M76.5,10.7c-0.2-0.4-0.5-0.6-0.9-0.6
	c-0.4,0-0.7,0.2-1,0.6c-0.2,0.3-0.3,0.7-0.3,1.1c0,0.4,0.1,0.8,0.3,1.1c0.2,0.4,0.5,0.6,1,0.6c0.4,0,0.7-0.2,0.9-0.6
	c0.2-0.3,0.3-0.7,0.3-1.1C76.8,11.4,76.7,11,76.5,10.7z M75.2,23.7c0.8,0.9,1.1,2.1,1.1,3.5c0,1.6-0.4,2.9-1.3,3.8
	c-0.8,0.8-1.8,1.3-3,1.3c-1.3,0-2.2-0.5-2.7-1.4h0v5h-2.1V25.7c0-1,0-2.1-0.1-3.1h1.9l0.1,1.5h0c0.7-1.1,1.8-1.7,3.3-1.7
	C73.5,22.4,74.4,22.8,75.2,23.7z M71.7,24.1c-0.5,0-1,0.2-1.4,0.5c-0.4,0.3-0.7,0.8-0.8,1.4c-0.1,0.2-0.1,0.4-0.1,0.6v1.6
	c0,0.7,0.2,1.3,0.6,1.8c0.4,0.5,1,0.7,1.7,0.7c0.8,0,1.4-0.3,1.9-0.9c0.4-0.6,0.7-1.4,0.7-2.4c0-0.9-0.2-1.7-0.6-2.3
	C73.1,24.4,72.4,24.1,71.7,24.1z M70.7,7.3h1.1v6.8h-1.1V7.3z M67.8,11.5c0-0.8-0.3-1.2-1-1.2c-0.3,0-0.6,0.1-0.8,0.3
	c-0.2,0.2-0.3,0.5-0.3,0.8v2.8h-1.1v-3.3c0-0.4,0-0.9,0-1.3h0.9l0,0.7h0c0.1-0.2,0.3-0.4,0.5-0.6c0.3-0.2,0.6-0.3,1-0.3
	c0.4,0,0.8,0.1,1.1,0.4c0.4,0.3,0.5,0.9,0.5,1.6v2.8h-1.1C67.8,14.1,67.8,11.5,67.8,11.5z M63.9,31.1c-0.8,0.8-1.8,1.3-3,1.3
	c-1.3,0-2.2-0.5-2.7-1.4h0v5h-2.1V25.7c0-1,0-2.1-0.1-3.1h1.9l0.1,1.5h0c0.7-1.1,1.8-1.7,3.3-1.7c1.1,0,2.1,0.4,2.8,1.3
	c0.8,0.9,1.1,2.1,1.1,3.5C65.3,28.8,64.8,30.1,63.9,31.1z M62.4,25c-0.5-0.6-1.1-0.9-1.9-0.9c-0.5,0-1,0.2-1.4,0.5
	c-0.4,0.3-0.7,0.8-0.8,1.4c-0.1,0.2-0.1,0.4-0.1,0.6v1.6c0,0.7,0.2,1.3,0.6,1.8c0.4,0.5,1,0.7,1.7,0.7c0.8,0,1.4-0.3,1.9-0.9
	c0.5-0.6,0.7-1.4,0.7-2.4C63.1,26.4,62.9,25.6,62.4,25z M60.9,14.1l-0.6-2c-0.2-0.5-0.3-1-0.4-1.5h0c-0.1,0.5-0.2,1-0.4,1.5l-0.7,2
	h-1l-1.4-4.7h1.1l0.5,2.2c0.1,0.5,0.2,1,0.3,1.5h0c0.1-0.4,0.2-0.9,0.4-1.5l0.7-2.2h0.9l0.6,2.2c0.2,0.5,0.3,1,0.4,1.5h0
	c0.1-0.5,0.2-1,0.3-1.5l0.6-2.2h1l-1.5,4.7H60.9z M53.1,14.3c-0.7,0-1.2-0.2-1.7-0.7c-0.4-0.5-0.6-1-0.6-1.7c0-0.7,0.2-1.3,0.6-1.8
	c0.4-0.5,1-0.7,1.7-0.7c0.7,0,1.3,0.2,1.7,0.7c0.4,0.4,0.6,1,0.6,1.7c0,0.7-0.2,1.3-0.6,1.8C54.4,14,53.8,14.3,53.1,14.3z
	 M54.1,10.7c-0.2-0.4-0.5-0.6-0.9-0.6c-0.4,0-0.7,0.2-1,0.6c-0.2,0.3-0.3,0.7-0.3,1.1c0,0.4,0.1,0.8,0.3,1.1c0.2,0.4,0.5,0.6,1,0.6
	c0.4,0,0.7-0.2,0.9-0.6c0.2-0.3,0.3-0.7,0.3-1.1C54.4,11.4,54.3,11,54.1,10.7z M51.9,32.1l-1.2-3.9h-4.3l-1.2,3.9h-2.2l4.3-13.2h2.7
	l4.3,13.2C54.2,32.1,51.9,32.1,51.9,32.1z M49.2,23.1c-0.1-0.4-0.3-1.2-0.7-2.5h0c-0.2,0.8-0.4,1.7-0.6,2.5l-1.1,3.5h3.6L49.2,23.1z
	 M45.7,14.2c-0.6,0-1.1,0-1.5-0.1V7.7c0.6-0.1,1.2-0.1,1.8-0.1c1.1,0,2,0.2,2.6,0.7c0.7,0.6,1,1.4,1,2.4c0,1.2-0.4,2.1-1.1,2.6
	C47.9,13.9,46.9,14.2,45.7,14.2z M47.9,9c-0.4-0.4-1-0.6-1.8-0.6c-0.3,0-0.6,0-0.8,0.1v4.9c0.1,0,0.4,0,0.7,0c0.8,0,1.4-0.2,1.9-0.7
	c0.4-0.4,0.7-1.1,0.7-1.9C48.5,10,48.3,9.4,47.9,9z M32.2,29.2c-1.1,1.6-2.2,3.1-3.9,3.1c-1.7,0-2.3-1-4.2-1c-2,0-2.6,1-4.2,1
	c-1.7,0.1-2.9-1.7-4-3.2c-2.2-3.2-3.9-8.9-1.6-12.8c1.1-1.9,3.1-3.1,5.3-3.2c1.7,0,3.2,1.1,4.2,1.1c1,0,2.9-1.4,4.9-1.2
	c0.8,0,3.2,0.3,4.7,2.5c-0.1,0.1-2.8,1.6-2.8,4.8c0,3.8,3.4,5.1,3.4,5.1C34,25.7,33.5,27.4,32.2,29.2z M23.6,12.8
	c-0.2-1.4,0.5-3,1.3-3.9C25.8,7.8,27.4,7,28.7,7c0.2,1.5-0.4,3-1.3,4.1C26.5,12.1,25,12.9,23.6,12.8z"/>
<path id="path-3" class="st3" d="M130,0.8c2.3,0,4.2,1.9,4.2,4.2v30c0,2.3-1.9,4.2-4.2,4.2H5c-2.3,0-4.2-1.9-4.2-4.2V5
	c0-2.3,1.9-4.2,4.2-4.2H130 M130,0H5C2.3,0,0,2.2,0,5v30c0,2.8,2.3,5,5,5h125c2.8,0,5-2.3,5-5V5C135,2.2,132.8,0,130,0z"/>
</svg>
