<svg xmlns="http://www.w3.org/2000/svg" preserveAspectRatio="xMidYMid" width="135" height="40" viewBox="0 0 135 40"><defs><style>.cls-3{fill:#000}.cls-4{fill:#fff}.cls-5{fill:#a6a6a6}</style></defs><g id="btn-app-store"><path d="M130.197 40H4.729A4.74 4.74 0 0 1 0 35.267V4.726A4.733 4.733 0 0 1 4.729 0h125.468C132.803 0 135 2.12 135 4.726v30.541c0 2.605-2.197 4.733-4.803 4.733z" id="path-1" class="cls-3" fill-rule="evenodd"/><path d="M122.904 27.846h-6.421c.025.942.335 1.663.932 2.16.541.444 1.241.666 2.1.666.951 0 1.818-.15 2.598-.451l.335 1.471c-.911.393-1.987.589-3.229.589-1.494 0-2.667-.435-3.52-1.305-.852-.869-1.278-2.037-1.278-3.501 0-1.438.396-2.636 1.191-3.59.831-1.02 1.954-1.53 3.368-1.53 1.388 0 2.439.51 3.153 1.53.565.809.85 1.811.85 3.001 0 .379-.026.699-.079.96zm-2.378-3.139c-.371-.589-.94-.883-1.706-.883-.7 0-1.269.287-1.704.863-.356.458-.568 1.008-.633 1.648h4.458c.014-.628-.125-1.17-.415-1.628zm-1.691-12.651c.014.463.165.815.457 1.06.267.218.611.328 1.033.328.467 0 .893-.074 1.276-.222l.165.724c-.449.192-.977.289-1.589.289-.732 0-1.31-.214-1.727-.641-.42-.427-.628-1.001-.628-1.72 0-.707.194-1.295.585-1.764.407-.501.958-.751 1.654-.751.681 0 1.198.25 1.547.751.282.397.422.889.422 1.474 0 .186-.014.343-.039.472h-3.156zm1.987-1.542c-.183-.289-.461-.434-.837-.434-.344 0-.624.141-.838.425a1.567 1.567 0 0 0-.312.809h2.191a1.39 1.39 0 0 0-.204-.8zm-5.591.97c0-.839-.317-1.26-.953-1.26-.488 0-.821.244-1.004.73a1.307 1.307 0 0 0-.049.375v2.817h-1.051V7.314h1.051v2.823h.02c.331-.514.806-.77 1.422-.77.436 0 .796.141 1.082.424.356.353.535.878.535 1.571v2.785h-1.053v-2.663zm-1.821 10.928v2.02a3.736 3.736 0 0 0-.675-.059c-.753 0-1.335.282-1.745.845-.356.497-.535 1.125-.535 1.883v5.003h-2.139l.02-6.532c0-1.099-.027-2.1-.08-3.002h1.864l.078 1.824h.059c.226-.627.583-1.132 1.071-1.51a2.603 2.603 0 0 1 1.547-.511c.197 0 .376.014.535.039zm-3.854-9.893c0 .578.205.867.613.867.189 0 .345-.016.469-.048l.027.79c-.208.077-.481.116-.817.116-.416 0-.739-.126-.973-.376-.235-.25-.351-.672-.351-1.263v-2.362h-.692v-.78h.692v-.858l1.031-.308v1.165h1.158v.781h-1.157v2.276zm-7.903 19.801c-1.413 0-2.539-.464-3.378-1.392-.839-.928-1.259-2.1-1.259-3.512 0-1.477.432-2.688 1.298-3.629.865-.942 2.031-1.413 3.498-1.413 1.414 0 2.551.464 3.409 1.393.822.901 1.231 2.065 1.231 3.491 0 1.466-.423 2.669-1.269 3.61-.886.969-2.063 1.452-3.53 1.452zm2.004-7.256c-.448-.761-1.09-1.141-1.921-1.141-.861 0-1.514.381-1.963 1.141-.384.63-.574 1.396-.574 2.302 0 .88.19 1.634.574 2.262.463.761 1.109 1.141 1.944 1.141.817 0 1.458-.388 1.921-1.161.395-.641.594-1.403.594-2.281 0-.88-.19-1.634-.575-2.263zm-1.075-13.6c0-.826-.317-1.24-.955-1.24a.95.95 0 0 0-.759.341 1.202 1.202 0 0 0-.292.803v2.778h-1.053v-3.344c0-.412-.012-.858-.037-1.341h.923l.05.732h.029c.123-.227.306-.415.545-.565.286-.175.604-.263.955-.263.44 0 .808.141 1.1.424.365.347.545.865.545 1.552v2.806h-1.051v-2.683zm-6.963 2.79c-.694 0-1.247-.228-1.661-.685-.412-.456-.617-1.031-.617-1.725 0-.725.211-1.321.637-1.783.426-.462.998-.693 1.72-.693.694 0 1.253.227 1.675.683.401.444.603 1.016.603 1.716 0 .72-.208 1.31-.624 1.773-.435.476-1.012.714-1.733.714zm.984-3.566c-.221-.373-.535-.56-.944-.56-.422 0-.743.187-.965.56-.189.309-.282.686-.282 1.131 0 .432.094.803.282 1.112.228.374.545.561.955.561.401 0 .718-.19.944-.571.194-.315.293-.688.293-1.121 0-.432-.095-.803-.283-1.112zm-3.155 9.505v2.374h2.359v1.592h-2.359v4.629c0 1.178.416 1.766 1.249 1.766.382 0 .7-.033.951-.098l.059 1.608c-.422.156-.977.235-1.665.235-.845 0-1.506-.255-1.983-.765-.474-.511-.713-1.368-.713-2.571v-4.806H89.94v-1.59h1.406v-1.746l2.102-.628zm-5.454-6.798h-.029c-.298.572-.806.859-1.52.859-.57 0-1.045-.222-1.421-.665-.377-.443-.564-1.019-.564-1.725 0-.758.203-1.372.613-1.841a1.892 1.892 0 0 1 1.461-.656c.635 0 1.08.211 1.333.636h.02V7.314h1.053v5.571c0 .456.012.877.037 1.262h-.933l-.05-.752zm-.107-2.004c0-.135-.01-.244-.029-.328a1.184 1.184 0 0 0-.381-.631 1.037 1.037 0 0 0-.703-.255c-.393 0-.7.154-.926.463-.224.309-.337.703-.337 1.185 0 .463.107.839.323 1.128.228.308.535.462.92.462.345 0 .621-.128.831-.385.203-.238.302-.524.302-.858v-.781zm.328 7.924l-.535 1.727c-.753-.406-1.604-.609-2.557-.609-.753 0-1.341.184-1.763.55a1.563 1.563 0 0 0-.535 1.197c0 .523.204.955.614 1.295.356.314 1.003.654 1.943 1.021 1.15.458 1.994.993 2.537 1.607.541.613.811 1.379.811 2.293 0 1.125-.394 2.04-1.186 2.746-.871.773-2.082 1.158-3.64 1.158-1.437 0-2.59-.274-3.462-.824l.496-1.765c.939.562 1.97.844 3.094.844.806 0 1.434-.181 1.884-.54.449-.36.673-.843.673-1.445 0-.537-.185-.989-.555-1.356-.369-.366-.984-.707-1.843-1.022-2.34-.864-3.508-2.129-3.508-3.792 0-1.087.409-1.979 1.229-2.672.818-.695 1.908-1.041 3.271-1.041 1.216 0 2.226.209 3.032.628zm-6.239-5.707h-.029c-.324.43-.784.646-1.383.646-.447 0-.808-.142-1.08-.425a1.322 1.322 0 0 1-.371-.954c0-.572.241-1.008.726-1.31.484-.302 1.165-.45 2.041-.443v-.088c0-.617-.327-.925-.983-.925-.466 0-.878.116-1.233.347l-.214-.684c.439-.269.983-.404 1.623-.404 1.237 0 1.858.645 1.858 1.937v1.726c0 .467.023.84.068 1.116h-.945l-.078-.539zm-.07-1.793c-1.16-.02-1.74.295-1.74.944 0 .245.066.428.201.55a.744.744 0 0 0 .514.183c.231 0 .447-.073.644-.217a.884.884 0 0 0 .381-.737v-.723zm-6.357 2.439c-.695 0-1.249-.228-1.66-.685-.412-.456-.618-1.031-.618-1.725 0-.725.212-1.321.638-1.783.426-.462.998-.693 1.718-.693.695 0 1.253.227 1.676.683.402.444.604 1.016.604 1.716 0 .72-.208 1.31-.624 1.773-.435.476-1.014.714-1.734.714zm.983-3.566c-.22-.373-.535-.56-.943-.56-.423 0-.744.187-.964.56-.189.309-.282.686-.282 1.131 0 .432.094.803.282 1.112.228.374.545.561.955.561.401 0 .715-.19.942-.571.196-.315.292-.688.292-1.121 0-.432-.094-.803-.282-1.112zm-1.329 13.019c.758.89 1.138 2.061 1.138 3.512 0 1.622-.442 2.904-1.329 3.845-.792.837-1.777 1.256-2.952 1.256-1.269 0-2.181-.451-2.735-1.353h-.04v5.023h-2.141V25.708c0-1.02-.027-2.066-.079-3.139h1.882l.12 1.511h.04c.713-1.139 1.796-1.707 3.251-1.707 1.135 0 2.084.444 2.845 1.334zm-3.54.352c-.529 0-1.008.175-1.438.52a2.412 2.412 0 0 0-.841 1.365 2.81 2.81 0 0 0-.099.645v1.59c0 .694.215 1.279.642 1.757.43.477.988.717 1.677.717.806 0 1.433-.309 1.882-.923.45-.615.675-1.425.675-2.433 0-.928-.212-1.694-.636-2.295-.462-.629-1.082-.943-1.862-.943zM70.661 7.314h1.051v6.833h-1.051V7.314zm-2.902 4.15c0-.826-.318-1.24-.954-1.24a.953.953 0 0 0-.76.341 1.202 1.202 0 0 0-.292.803v2.778h-1.052v-3.344c0-.412-.014-.858-.039-1.341h.925l.049.732h.029c.123-.227.305-.415.545-.565.286-.175.605-.263.954-.263.442 0 .809.141 1.102.424.363.347.545.865.545 1.552v2.806h-1.052v-2.683zm-3.826 19.6c-.794.837-1.779 1.256-2.954 1.256-1.269 0-2.181-.451-2.736-1.353h-.04v5.023h-2.141V25.708c0-1.02-.027-2.066-.079-3.139h1.883l.119 1.511h.04c.714-1.139 1.797-1.707 3.251-1.707 1.137 0 2.085.444 2.844 1.334.761.89 1.141 2.061 1.141 3.512 0 1.622-.443 2.904-1.328 3.845zm-1.487-6.062c-.463-.629-1.085-.943-1.864-.943-.528 0-1.008.175-1.436.52a2.41 2.41 0 0 0-.843 1.365 2.755 2.755 0 0 0-.099.645v1.59c0 .694.215 1.279.644 1.757.43.478.988.717 1.675.717.806 0 1.434-.309 1.882-.923.45-.615.675-1.425.675-2.433 0-.928-.211-1.694-.634-2.295zm-1.534-10.855l-.614-2.034a15.149 15.149 0 0 1-.38-1.513h-.019a11.019 11.019 0 0 1-.381 1.513l-.652 2.034h-.974l-1.393-4.684h1.081l.536 2.227c.129.527.235 1.028.321 1.503h.019c.078-.391.208-.89.39-1.493l.672-2.236h.857l.644 2.188c.156.534.282 1.047.379 1.542h.03c.071-.482.178-.995.321-1.542l.574-2.188h1.033l-1.481 4.683h-.963zm2.444-4.684zm-10.244 4.791c-.695 0-1.248-.228-1.661-.685-.411-.456-.617-1.031-.617-1.725 0-.725.212-1.321.637-1.783.426-.462.998-.693 1.719-.693.695 0 1.253.227 1.676.683.401.444.603 1.016.603 1.716 0 .72-.208 1.31-.623 1.773-.436.476-1.013.714-1.734.714zm.984-3.566c-.221-.373-.535-.56-.944-.56-.423 0-.744.187-.965.56-.189.309-.282.686-.282 1.131 0 .432.094.803.282 1.112.228.374.545.561.955.561.401 0 .717-.19.944-.571.194-.315.292-.688.292-1.121 0-.432-.095-.803-.282-1.112zM51.92 32.104l-1.249-3.884H46.33l-1.19 3.884h-2.219l4.301-13.224h2.656L54.2 32.104h-2.28zm-2.755-8.967c-.119-.353-.343-1.183-.673-2.491h-.041a93.82 93.82 0 0 1-.634 2.491l-1.109 3.453h3.587l-1.13-3.453zm-3.434-8.932c-.599 0-1.111-.026-1.539-.077V7.737a11.517 11.517 0 0 1 1.812-.135c1.149 0 2.016.247 2.6.742.655.56.983 1.36.983 2.401 0 1.169-.355 2.05-1.062 2.641-.656.546-1.588.819-2.794.819zm2.138-5.176c-.406-.405-.998-.607-1.778-.607-.331 0-.613.022-.847.067v4.858c.129.02.366.029.711.029.805 0 1.426-.221 1.864-.665.438-.443.659-1.089.659-1.937 0-.758-.203-1.34-.609-1.745zM32.237 29.18c-1.052 1.557-2.154 3.079-3.905 3.107-1.701.039-2.273-.991-4.224-.991-1.968 0-2.578.963-4.209 1.03-1.668.06-2.942-1.663-4.032-3.206-2.18-3.151-3.876-8.879-1.601-12.778 1.102-1.912 3.112-3.143 5.26-3.175 1.67-.034 3.219 1.115 4.245 1.115 1.006 0 2.922-1.375 4.896-1.169.827.024 3.178.323 4.695 2.512-.123.072-2.801 1.631-2.772 4.833.033 3.839 3.392 5.108 3.434 5.122-.021.089-.527 1.831-1.787 3.6zM23.57 12.822c-.187-1.443.536-2.977 1.346-3.913.914-1.063 2.502-1.876 3.772-1.932.167 1.5-.433 2.977-1.311 4.063-.915 1.069-2.38 1.887-3.807 1.782z" id="path-2" class="cls-4" fill-rule="evenodd"/><path d="M130 .8c2.316 0 4.2 1.884 4.2 4.2v30c0 2.316-1.884 4.2-4.2 4.2H5A4.205 4.205 0 0 1 .8 35V5C.8 2.684 2.684.8 5 .8h125m0-.8H5C2.25 0 0 2.25 0 5v30c0 2.75 2.25 5 5 5h125c2.75 0 5-2.25 5-5V5c0-2.75-2.25-5-5-5z" id="path-3" class="cls-5" fill-rule="evenodd"/></g></svg>