<svg xmlns="http://www.w3.org/2000/svg" xmlns:xlink="http://www.w3.org/1999/xlink" preserveAspectRatio="xMidYMid" width="37" height="16" viewBox="0 0 37 16">
  <defs>
    <style>

      .cls-2 {
        fill: #39bc9d;
      }
    </style>
  </defs>
  <path d="M35.974,4.934 C35.974,4.934 33.999,4.934 33.999,4.934 C33.999,4.934 33.999,0.997 33.999,0.997 C33.999,0.446 33.540,-0.000 32.973,-0.000 C32.973,-0.000 1.026,-0.000 1.026,-0.000 C0.459,-0.000 -0.000,0.446 -0.000,0.997 C-0.000,0.997 -0.000,15.003 -0.000,15.003 C-0.000,15.553 0.459,16.000 1.026,16.000 C1.026,16.000 32.973,16.000 32.973,16.000 C33.540,16.000 33.999,15.553 33.999,15.003 C33.999,15.003 33.999,11.065 33.999,11.065 C33.999,11.065 35.974,11.065 35.974,11.065 C36.541,11.065 37.000,10.618 37.000,10.068 C37.000,10.068 37.000,5.931 37.000,5.931 C37.000,5.381 36.540,4.934 35.974,4.934 ZM31.167,13.510 C31.167,13.510 12.294,13.510 12.294,13.510 C12.294,13.510 21.525,2.489 21.525,2.489 C21.525,2.489 31.167,2.489 31.167,2.489 C31.167,2.489 31.167,13.510 31.167,13.510 Z" id="path-1" class="cls-2" fill-rule="evenodd"/>
</svg>
