<svg xmlns="http://www.w3.org/2000/svg" xmlns:xlink="http://www.w3.org/1999/xlink" preserveAspectRatio="xMidYMid" width="38" height="30" viewBox="0 0 38 30">
  <defs>
    <style>

      .cls-2 {
        fill: #39bc9d;
      }
    </style>
  </defs>
  <path d="M37.955,25.464 C34.950,25.464 31.875,23.635 29.938,22.208 C31.886,20.146 33.031,17.610 33.031,14.874 C33.031,7.929 25.640,2.297 16.522,2.297 C15.178,2.297 13.871,2.420 12.621,2.648 C15.277,1.002 18.691,0.010 22.418,0.010 C30.884,0.010 37.748,5.127 37.748,11.444 C37.748,13.516 37.009,15.459 35.719,17.132 C35.664,19.139 35.816,23.496 37.955,25.464 ZM30.673,16.017 C30.673,22.335 23.809,27.451 15.343,27.451 C13.529,27.451 11.793,27.217 10.180,26.786 C8.238,28.213 5.168,30.037 2.163,30.037 C3.672,28.655 4.194,26.087 4.349,23.988 C1.666,21.928 0.012,19.115 0.012,16.017 C0.012,9.701 6.876,4.583 15.343,4.583 C23.809,4.583 30.673,9.701 30.673,16.017 Z" id="path-1" class="cls-2" fill-rule="evenodd"/>
</svg>
