<svg xmlns="http://www.w3.org/2000/svg" preserveAspectRatio="xMidYMid" width="38" height="23" viewBox="0 0 38 23"><defs><style>.cls-2{fill:#39bc9d}</style></defs><path d="M22.576 16.771a.99.99 0 0 0-.124-.394L13.522.571c-.263-.465-.858-.684-1.397-.515-.54.172-.863.68-.76 1.198l3.48 17.528a.995.995 0 0 0 .163.377c.034.15.075.3.13.448.56 1.5 2.094 2.51 3.814 2.51.444 0 .886-.067 1.309-.201 1.019-.322 1.841-.99 2.314-1.883a3.429 3.429 0 0 0 .001-3.262zM18.953 1.205c-.636 0-1.152.475-1.152 1.061s.516 1.061 1.152 1.061c9.184 0 16.653 6.886 16.653 15.349 0 .585.517 1.061 1.153 1.061.637 0 1.153-.476 1.153-1.061-.001-9.635-8.505-17.471-18.959-17.471zM7.04 5.084C2.563 8.42-.005 13.374-.005 18.676c0 .586.516 1.061 1.153 1.061.638 0 1.153-.475 1.153-1.061 0-4.657 2.256-9.009 6.189-11.94.496-.369.571-1.038.172-1.494-.4-.455-1.126-.527-1.622-.158z" id="path-1" class="cls-2" fill-rule="evenodd"/></svg>