<svg xmlns="http://www.w3.org/2000/svg" preserveAspectRatio="xMidYMid" width="38" height="30" viewBox="0 0 38 30"><defs><style>.cls-2{fill:#39bc9d}</style></defs><path d="M37.955 25.464c-3.005 0-6.08-1.829-8.017-3.256 1.948-2.062 3.093-4.598 3.093-7.334 0-6.945-7.391-12.577-16.509-12.577-1.344 0-2.651.123-3.901.351C15.277 1.002 18.691.01 22.418.01c8.466 0 15.33 5.117 15.33 11.434 0 2.072-.739 4.015-2.029 5.688-.055 2.007.097 6.364 2.236 8.332zm-7.282-9.447c0 6.318-6.864 11.434-15.33 11.434a20.01 20.01 0 0 1-5.163-.665c-1.942 1.427-5.012 3.251-8.017 3.251 1.509-1.382 2.031-3.95 2.186-6.049-2.683-2.06-4.337-4.873-4.337-7.971 0-6.316 6.864-11.434 15.331-11.434 8.466 0 15.33 5.118 15.33 11.434z" id="path-1" class="cls-2" fill-rule="evenodd"/></svg>