<svg xmlns="http://www.w3.org/2000/svg" preserveAspectRatio="xMidYMid" width="38" height="35" viewBox="0 0 38 35"><defs><style>.cls-2{fill:#39bc9d}</style></defs><path d="M28.29 27.803a.578.578 0 0 1-.838 0 54.126 54.126 0 0 1-4.57-5.571c-2.305-3.238-5.053-7.985-5.053-12.216 0-5.526 4.504-10.021 10.042-10.021 5.537 0 10.042 4.495 10.042 10.021 0 4.228-2.744 8.972-5.047 12.208a54.663 54.663 0 0 1-4.576 5.579zm-.419-24.037c-3.381 0-6.132 2.745-6.132 6.12 0 3.373 2.751 6.12 6.132 6.12s6.131-2.747 6.131-6.12c0-3.375-2.75-6.12-6.131-6.12zm-9.793 21.289L2.945 23.403l2.158-7.459c.125-.433.522-.731.974-.731h11.249c.521 1.443 1.201 2.853 1.94 4.17l-1.188 5.672zm-2.031 9.7H1.008a1.01 1.01 0 0 1-.974-1.293l2.054-7.099 15.365 1.678-1.406 6.714zm5.595-11.644a52.851 52.851 0 0 0 1.931 2.544l-2.457-.268.488-2.33.038.054zm13.006-.788l1.357 4.69-4.545-.496a54.84 54.84 0 0 0 2.645-3.414c.179-.251.36-.512.543-.78zm2.269 7.843l.936 3.232a1.013 1.013 0 0 1-.954 1.357h-.002-17.742l1.336-6.383 16.426 1.794z" id="path-1" class="cls-2" fill-rule="evenodd"/></svg>