<svg xmlns="http://www.w3.org/2000/svg" preserveAspectRatio="xMidYMid" width="40" height="40" viewBox="0 0 40 40"><defs><style>.cls-3{fill:#39bc9d}.cls-4{fill:#fff}</style></defs><g id="ic_google"><path d="M34.435 34.11c7.877-7.81 7.877-20.472.001-28.281-7.876-7.81-20.647-7.81-28.523 0-7.876 7.81-7.876 20.472 0 28.281 7.876 7.81 20.646 7.81 28.522 0z" id="path-1" class="cls-3" fill-rule="evenodd"/><path d="M24.22 15.041a6.405 6.405 0 0 0-3.993-1.388c-3.537 0-6.403 2.827-6.403 6.316 0 3.488 2.866 6.315 6.403 6.315 3.172 0 5.798-2.277 6.307-5.263h-6.307v-3.158h9.909c.148.68.229 1.383.229 2.106 0 .322-.018.641-.049.956l.049.096h-.057c-.533 5.028-4.842 8.948-10.081 8.948-5.6 0-10.139-4.478-10.139-10 0-5.523 4.539-10 10.139-10 2.738 0 5.219 1.075 7.043 2.816l-3.05 2.256z" id="path-2" class="cls-4" fill-rule="evenodd"/></g></svg>