<svg xmlns="http://www.w3.org/2000/svg" xmlns:xlink="http://www.w3.org/1999/xlink" preserveAspectRatio="xMidYMid" width="38" height="34" viewBox="0 0 38 34">
  <defs>
    <style>

      .cls-2 {
        fill: #39bc9d;
      }
    </style>
  </defs>
  <path d="M37.082,27.579 C37.082,27.579 22.230,2.280 22.230,2.280 C20.425,-0.792 17.472,-0.792 15.669,2.280 C15.669,2.280 0.819,27.581 0.819,27.581 C-0.988,30.658 0.288,33.169 3.646,33.169 C3.646,33.169 3.646,33.167 3.646,33.167 C3.646,33.167 34.253,33.167 34.253,33.167 C37.614,33.167 38.886,30.655 37.082,27.579 ZM20.836,28.890 C20.836,28.890 17.081,28.890 17.081,28.890 C17.081,28.890 17.081,24.974 17.081,24.974 C17.081,24.974 20.836,24.974 20.836,24.974 C20.836,24.974 20.836,28.890 20.836,28.890 ZM20.981,13.289 C20.981,13.289 20.020,23.633 20.020,23.633 C20.020,23.633 17.893,23.633 17.893,23.633 C17.893,23.633 17.893,23.635 17.893,23.635 C17.893,23.635 16.914,13.295 16.914,13.295 C16.914,13.295 16.914,8.508 16.914,8.508 C16.914,8.508 20.979,8.508 20.979,8.508 C20.979,8.508 20.979,13.289 20.979,13.289 C20.979,13.289 20.981,13.289 20.981,13.289 Z" id="path-1" class="cls-2" fill-rule="evenodd"/>
</svg>
