<svg xmlns="http://www.w3.org/2000/svg" xmlns:xlink="http://www.w3.org/1999/xlink" preserveAspectRatio="xMidYMid" width="38" height="23" viewBox="0 0 38 23">
  <defs>
    <style>

      .cls-2 {
        fill: #39bc9d;
      }
    </style>
  </defs>
  <path d="M22.576,16.771 C22.564,16.638 22.523,16.504 22.452,16.377 C22.452,16.377 13.522,0.571 13.522,0.571 C13.259,0.106 12.664,-0.113 12.125,0.056 C11.585,0.228 11.262,0.736 11.365,1.254 C11.365,1.254 14.845,18.782 14.845,18.782 C14.872,18.921 14.930,19.046 15.008,19.159 C15.042,19.309 15.083,19.459 15.138,19.607 C15.698,21.107 17.232,22.117 18.952,22.117 C19.396,22.117 19.838,22.050 20.261,21.916 C21.280,21.594 22.102,20.926 22.575,20.033 C23.049,19.141 23.116,18.134 22.767,17.194 C22.714,17.047 22.648,16.908 22.576,16.771 ZM18.953,1.205 C18.317,1.205 17.801,1.680 17.801,2.266 C17.801,2.852 18.317,3.327 18.953,3.327 C28.137,3.327 35.606,10.213 35.606,18.676 C35.606,19.261 36.123,19.737 36.759,19.737 C37.396,19.737 37.912,19.261 37.912,18.676 C37.911,9.041 29.407,1.205 18.953,1.205 ZM7.040,5.084 C2.563,8.420 -0.005,13.374 -0.005,18.676 C-0.005,19.262 0.511,19.737 1.148,19.737 C1.786,19.737 2.301,19.262 2.301,18.676 C2.301,14.019 4.557,9.667 8.490,6.736 C8.986,6.367 9.061,5.698 8.662,5.242 C8.262,4.787 7.536,4.715 7.040,5.084 Z" id="path-1" class="cls-2" fill-rule="evenodd"/>
</svg>
