<svg xmlns="http://www.w3.org/2000/svg" preserveAspectRatio="xMidYMid" width="41" height="40" viewBox="0 0 41 40"><defs><style>.cls-3{fill:#39bc9d}.cls-4{fill:#fff}</style></defs><g id="ic_twitter"><path d="M34.432 34.11c7.876-7.81 7.876-20.472 0-28.281-7.876-7.81-20.646-7.81-28.522 0a19.878 19.878 0 0 0 0 28.281c7.876 7.81 20.646 7.81 28.522 0z" id="path-1" class="cls-3" fill-rule="evenodd"/><path d="M30.327 13.383l2.451-.487s-2.053 2.313-2.451 2.438c-.004.002-.008-.003-.012-.002-.053 1.127.012 1.466.012 1.466-4.684 20.11-21.923 11.219-21.923 11.219 6.272.166 6.831-2.439 6.831-2.439-3.673-.555-4.381-2.926-4.381-2.926 1.248.569 1.947-.488 1.947-.488-3.965-1.026-3.408-4.878-3.408-4.878.662.606 1.745.837 2.39.924-.449-.521-4.149-4.966-1.903-7.266 0 0 2.702 4.87 9.859 5.335l.478-.119a5.117 5.117 0 0 1 4.998-6.191c3.404 0 4.138 1.951 4.138 1.951l2.435-1.464s-.267 2.446-1.461 2.927z" id="path-2" class="cls-4" fill-rule="evenodd"/></g></svg>