<svg version="1.1" xmlns="http://www.w3.org/2000/svg" xmlns:xlink="http://www.w3.org/1999/xlink" width="125" height="70" viewBox="0 0 125 70">
<g id="ico_post">
<path id="Shape-6" d="M32.015,32.302 C32.015,32.302 3.529,32.302 3.529,32.302 C1.579,32.302 -0.002,30.765 -0.002,28.870 C-0.002,26.975 1.579,25.439 3.529,25.439 C3.529,25.439 32.015,25.439 32.015,25.439 C33.965,25.439 35.546,26.975 35.546,28.870 C35.546,30.765 33.965,32.302 32.015,32.302 z" fill="#CFCDCF" />
<path id="Shape-1" d="M112.728,-0.000 C112.728,-0.000 41.323,-0.000 41.323,-0.000 C34.557,-0.000 29.052,5.477 29.052,12.209 C29.052,12.209 29.052,57.791 29.052,57.791 C29.052,64.523 34.557,70.000 41.323,70.000 C41.323,70.000 112.728,70.000 112.728,70.000 C119.495,70.000 125.000,64.523 125.000,57.791 C125.000,57.791 125.000,12.209 125.000,12.209 C125.000,5.477 119.495,-0.000 112.728,-0.000 z" fill="#269B7F" />
<path id="Shape-2" d="M77.213,-0.000 C77.213,-0.000 41.371,-0.000 41.371,-0.000 C34.577,-0.000 29.051,5.477 29.051,12.209 C29.051,12.209 29.051,57.791 29.051,57.791 C29.051,64.523 34.577,70.000 41.371,70.000 C41.371,70.000 77.213,70.000 77.213,70.000 L77.213,-0.000 L77.213,-0.000 z" fill="#39BC9D" />
<path id="Shape-3" d="M85.284,38.264 C85.284,38.264 124.618,9.392 124.618,9.392 C123.321,4.011 118.471,-0.000 112.699,-0.000 C112.699,-0.000 41.352,-0.000 41.352,-0.000 C35.580,-0.000 30.730,4.010 29.433,9.392 C29.433,9.392 68.768,38.264 68.768,38.264 C73.645,41.845 80.406,41.845 85.284,38.264 z" fill="#63E1C3" />
<path id="Shape-4" d="M50.376,49.041 C50.376,49.041 16.519,49.041 16.519,49.041 C14.574,49.041 12.997,47.504 12.997,45.609 C12.997,43.714 14.574,42.178 16.519,42.178 C16.519,42.178 50.376,42.178 50.376,42.178 C52.321,42.178 53.898,43.714 53.898,45.609 C53.898,47.504 52.321,49.041 50.376,49.041 z" fill="#B0AFBB" />
<path id="Shape-5" d="M37.074,49.041 C37.074,49.041 16.481,49.041 16.481,49.041 C14.551,49.041 12.987,47.504 12.987,45.609 C12.987,43.714 14.551,42.178 16.481,42.178 C16.481,42.178 37.074,42.178 37.074,42.178 L37.074,49.041 z" fill="#CFCDCF" />
</g>
</svg>
