<svg xmlns="http://www.w3.org/2000/svg" width="30" height="24" viewBox="0 0 10 8"><path d="M3.08 3.56c.027-.6.153-1.033.38-1.3.08-.106.17-.19.27-.25s.17-.093.21-.1c.04-.006.097-.02.17-.04.073-.02.14-.096.2-.23.06-.133.09-.31.09-.53 0-.22-.037-.4-.11-.54-.073-.14-.157-.21-.25-.21-.92 0-1.68.417-2.28 1.25-.6.834-.947 1.837-1.04 3.01a4.9 4.9 0 0 0-.04.74c0 .747.13 1.254.39 1.52.26.267.797.4 1.61.4.813 0 1.32-.193 1.52-.58.107-.213.17-.4.19-.56.02-.16.03-.4.03-.72v-.3c0-.546-.113-.933-.34-1.16-.227-.226-.56-.36-1-.4zm5.26-1.3a.908.908 0 0 1 .28-.25.89.89 0 0 1 .22-.1c.04-.006.097-.02.17-.04.073-.02.14-.096.2-.23.06-.133.09-.31.09-.53 0-.22-.037-.4-.11-.54-.073-.14-.157-.21-.25-.21-.92 0-1.683.417-2.29 1.25-.607.834-.957 1.837-1.05 3.01a4.9 4.9 0 0 0-.04.74c0 .747.13 1.254.39 1.52.26.267.733.4 1.42.4.687 0 1.197-.12 1.53-.36.28-.213.42-.713.42-1.5 0-.733-.117-1.216-.35-1.45-.233-.233-.57-.37-1.01-.41.027-.6.153-1.033.38-1.3z" fill="#39BC9D"/></svg>