<svg version="1.1" xmlns="http://www.w3.org/2000/svg" xmlns:xlink="http://www.w3.org/1999/xlink" width="138" height="138" viewBox="0 0 138 138">
<g id="ico_success">
<path id="Shape-1" d="M138.013,69.001 C138.013,107.119 107.114,138.020 68.997,138.020 C30.880,138.020 -0.020,107.119 -0.020,69.001 C-0.020,30.884 30.880,-0.016 68.997,-0.016 C107.114,-0.016 138.013,30.884 138.013,69.001 z" fill="#F5F5F5" />
<path id="Shape-1" d="M123.010,68.986 C123.010,98.808 98.828,122.984 68.997,122.984 C39.167,122.984 14.984,98.808 14.984,68.986 C14.984,39.163 39.167,14.987 68.997,14.987 C98.828,14.987 123.010,39.163 123.010,68.986 z" fill="#EAEAEA" />
<path id="Shape-1" d="M109.008,69.505 C109.008,91.311 91.319,108.988 69.498,108.988 C47.678,108.988 29.989,91.311 29.989,69.505 C29.989,47.699 47.678,30.022 69.498,30.022 C91.319,30.022 109.008,47.699 109.008,69.505 z" fill="#39BC9D" />
<path id="Shape-2" d="M64.484,85.418 C63.861,85.418 63.259,85.184 62.795,84.756 C62.795,84.756 51.289,74.159 51.289,74.159 C50.263,73.214 50.188,71.605 51.120,70.566 C52.053,69.528 53.640,69.451 54.666,70.395 C54.666,70.395 64.209,79.183 64.209,79.183 C64.209,79.183 82.409,56.473 82.409,56.473 C83.282,55.382 84.864,55.214 85.940,56.101 C87.017,56.987 87.181,58.588 86.307,59.679 C86.307,59.679 66.433,84.477 66.433,84.477 C65.998,85.020 65.362,85.358 64.673,85.410 C64.610,85.415 64.547,85.418 64.484,85.418 z" fill="#FFFFFF" />
</g>
</svg>
