<svg xmlns="http://www.w3.org/2000/svg" width="602" height="260" viewBox="0 0 301 131"><path d="M300.591 89.802h-18.237v40.286a.41.41 0 1 1-.819 0V89.802h-61.471a.411.411 0 0 1-.337-.646L281.608.159a.41.41 0 0 1 .746.235V88.98h18.237a.41.41 0 0 1 .409.411.41.41 0 0 1-.409.411zm-19.056-88.1L220.849 88.98h60.686V1.702zM151.798 129.676c-27.367 0-43.062-23.485-43.062-64.435S124.431.805 151.798.805c27.367 0 43.063 23.486 43.063 64.436s-15.696 64.435-43.063 64.435zm0-128.049c-26.845 0-42.242 23.187-42.242 63.614 0 40.427 15.397 63.613 42.242 63.613 26.846 0 42.243-23.186 42.243-63.613S178.644 1.627 151.798 1.627zM80.934 89.802H62.698v40.286a.41.41 0 1 1-.82 0V89.802H.407a.41.41 0 0 1-.336-.646L61.952.159a.41.41 0 0 1 .746.235V88.98h18.236a.41.41 0 0 1 0 .822zm-19.056-88.1L1.193 88.98h60.685V1.702z" fill="#FF754F"/></svg>