<svg xmlns="http://www.w3.org/2000/svg" viewBox="753 -424 32 900" width="32" height="900"><path fill="#E1D9D7" d="M785.5-202.6l-15.9 8.8-15.9-8.8v37.3l15.9 8.8 15.9-8.8v-37.3z"/><path fill="#D3C8C5" d="M785.5-165.5l-15.9 8.8-15.9-8.8v37.3l15.9 8.8 15.9-8.8v-37.3z"/><path fill="#E1D9D7" d="M785.5-128.4l-15.9 8.8-15.9-8.8v37.3l15.9 8.8 15.9-8.8v-37.3z"/><path fill="#D3C8C5" d="M785.5-91.4l-15.9 8.8-15.9-8.8v37.3l15.9 8.8 15.9-8.8v-37.3z"/><path fill="#E1D9D7" d="M785.5-54.3l-15.9 8.8-15.9-8.8V-17l15.9 8.8 15.9-8.8v-37.3z"/><path fill="#D3C8C5" d="M785.5-17.2l-15.9 8.8-15.9-8.8v37.3l15.9 8.8 15.9-8.8v-37.3z"/><path fill="#E1D9D7" d="M785.5 19.9l-15.9 8.8-15.9-8.8v37.3l15.9 8.8 15.9-8.8V19.9z"/><path fill="#D3C8C5" d="M785.5 56.9l-15.9 8.8-15.9-8.8v37.3l15.9 8.8 15.9-8.8V56.9z"/><path fill="#E1D9D7" d="M785.5 94l-15.9 8.8-15.9-8.8v37.3l15.9 8.8 15.9-8.8V94z"/><path fill="#D3C8C5" d="M785.5 131.1l-15.9 8.8-15.9-8.8v37.3l15.9 8.8 15.9-8.8v-37.3z"/><path fill="#E1D9D7" d="M785.5 168.2l-15.9 8.8-15.9-8.8v37.3l15.9 8.8 15.9-8.8v-37.3z"/><path fill="#D3C8C5" d="M785.5 205.2l-15.9 8.8-15.9-8.8v37.3l15.9 8.9 15.9-8.8v-37.4z"/><path fill="#E1D9D7" d="M785.5 242.4l-15.9 8.8-15.9-8.8v37.3l15.9 8.8 15.9-8.8v-37.3z"/><path fill="#D3C8C5" d="M785.5-239.5l-15.9 8.8-15.9-8.8v37.3l15.9 8.8 15.9-8.8v-37.3z"/><path fill="#E1D9D7" d="M785.5-275.6l-15.9 8.8-15.9-8.8v37.3l15.9 8.8 15.9-8.8v-37.3zm0-73.8l-15.9 8.8-15.9-8.8v37.3l15.9 8.8 15.9-8.8v-37.3z"/><path fill="#D3C8C5" d="M785.5-386.4l-15.9 8.8-15.9-8.8v37.3l15.9 8.9 15.9-8.8v-37.4z"/><path fill="#E1D9D7" d="M785.5-422.4l-15.9 8.8-15.9-8.8v37.3l15.9 8.8 15.9-8.8v-37.3z"/><path fill="#D3C8C5" d="M785.5-312.5l-15.9 8.8-15.9-8.8v37.3l15.9 8.8 15.9-8.8v-37.3zm0 592.6l-15.9 8.8-15.9-8.8v37.3l15.9 8.8 15.9-8.8v-37.3z"/><path fill="#E1D9D7" d="M785.5 317.2l-15.9 8.8-15.9-8.8v37.3l15.9 8.8 15.9-8.8v-37.3z"/><path fill="#D3C8C5" d="M785.5 354.2l-15.9 8.8-15.9-8.8v37.3l15.9 8.9 15.9-8.8v-37.4z"/><path fill="#E1D9D7" d="M785.5 391.4l-15.9 8.8-15.9-8.8v37.3l15.9 8.8 15.9-8.8v-37.3z"/><path fill="#D3C8C5" d="M785.5 428.2l-15.9 8.8-15.9-8.8v37.3l15.9 8.9 15.9-8.8v-37.4z"/></svg>