<svg id="Layer_1" xmlns="http://www.w3.org/2000/svg" width="17" height="17" viewBox="0 0 17 17"><style>.st0{fill:#ffa800}</style><path class="st0" d="M13.8 17c-.2 0-.3-.1-.5-.2l-4.6-3.2c-.1-.1-.2-.1-.3 0l-4.6 3.2c-.5.3-.8.2-1 .1-.2-.1-.4-.3-.2-.9L4 11c.1-.1 0-.3-.1-.4L.3 6.9c-.4-.3-.3-.7-.2-.8.1-.2.2-.4.7-.5l4.8-.4c.1 0 .2-.2.3-.2L7.8.6c.2-.5.6-.6.7-.6.1 0 .5.1.7.5L11.1 5c.1.1.2.2.3.2l4.8.4c.5.1.7.4.8.5.1.1.1.5-.2.9l-3.6 3.7c-.1 0-.2.2-.2.3l1.4 5c.2.5-.1.8-.2.9-.1 0-.2.1-.4.1zm-5.3-4.5c.3 0 .5.1.7.2l3.9 2.7-1.1-4.1c-.2-.5 0-1.1.4-1.4l3.2-3.3-4.2-.4c-.5-.1-1-.4-1.2-.9L8.5 1.5 6.9 5.3c-.3.5-.7.9-1.3.9l-4.2.4 3.2 3.3c.3.4.5 1 .4 1.4l-1.2 4.1 3.9-2.7c.3-.1.5-.2.8-.2z"/><path class="st0" d="M8.5.4c-.1 0-.2.1-.2.2L6.4 5.1c-.1.2-.5.5-.8.5L.9 6c-.4.1-.4.2-.2.5l3.6 3.7c.2.2.3.6.2.9l-1.4 5c-.1.3.1.4.3.2L8.1 13c.1-.1.3-.1.5-.1L8.5.4z"/></svg>