<svg id="Layer_1" xmlns="http://www.w3.org/2000/svg" width="23" height="10" viewBox="0 0 23 10"><style>.st0{fill:#ff754f}</style><path class="st0" d="M5.4 10C2.7 10 .5 7.8.5 5s2.2-5 4.9-5 4.9 2.2 4.9 5-2.2 5-4.9 5zm0-9c-2.2 0-4 1.8-4 4s1.8 4 4 4 4-1.8 4-4-1.8-4-4-4z"/><path class="st0" d="M2.8 5H.5C.2 5 0 4.8 0 4.5S.2 4 .5 4h2.4c.3 0 .5.2.5.5s-.3.5-.6.5z"/><path class="st0" d="M8 6.2c-.2 0-.3-.1-.3-.2 0-1.2-1.1-1.2-1.2-1.2H2.8c-.1 0-.3-.1-.3-.3 0-.1.1-.3.3-.3h3.8c.6 0 1.7.3 1.7 1.7-.1.2-.2.3-.3.3zm9.6 3.8c-2.7 0-4.9-2.2-4.9-5s2.2-5 4.9-5 4.9 2.2 4.9 5-2.2 5-4.9 5zm0-9c-2.2 0-4 1.8-4 4s1.8 4 4 4 4-1.8 4-4-1.8-4-4-4z"/><path class="st0" d="M22.5 5h-2.4c-.3 0-.5-.2-.5-.5s.2-.5.5-.5h2.4c.3 0 .5.2.5.5s-.2.5-.5.5z"/><path class="st0" d="M15 6.2c-.1 0-.3-.1-.3-.3 0-1.3 1.1-1.7 1.7-1.7h3.8c.1 0 .3.1.3.3s-.1.3-.3.3h-3.8c-.1 0-1.2 0-1.2 1.2.1.1 0 .2-.2.2zm-2.1-.9c-.1 0-.3-.1-.3-.3V4c0-.1 0-1.2-1.2-1.2-1.1 0-1.2 1.1-1.2 1.2v1c0 .2-.1.3-.3.3.1 0-.1-.2-.1-.3V4c0-.6.3-1.7 1.7-1.7s1.7 1.1 1.7 1.7v1c0 .1-.1.3-.3.3z"/></svg>