<svg id="Layer_1" xmlns="http://www.w3.org/2000/svg" width="42" height="26" viewBox="0 0 42 26"><style>.st0{fill:#ff754f}</style><path class="st0" d="M40 23h-2.6c-.5 0-.9-.4-.9-.9s.4-.9.9-.9H40c.1-.1.2-.2.2-.4l.1-.7H40c-.2 0-.5-.1-.6-.3-.2-.2-.2-.4-.2-.6l.5-6.8c0-.1-.1-.2-.2-.2l-3.1-.4c-.3-.1-.5-.2-.7-.5L33 6h-6.6v13c0 .5-.4.9-.9.9s-.9-.4-.9-.9V5.2c0-.5.4-.9.9-.9h8c.3 0 .6.2.8.5l2.7 5.4 2.7.3c1 .1 1.7 1 1.7 2.1l-.4 5.8h.3c.2 0 .5.1.6.3.2.2.2.4.2.6L42 21c-.2.9-.9 2-2 2z"/><path class="st0" d="M32.9 12.1h-4.2c-.5 0-.9-.4-.9-.9s.4-.9.9-.9h4.2c.5 0 .9.4.9.9-.1.5-.5.9-.9.9zM29.8 23h-17c-.5 0-.9-.4-.9-.9s.4-.9.9-.9h17c.5 0 .9.4.9.9s-.5.9-.9.9zm.8-2.9H11.8c-.5 0-.9-.4-.9-.9s.4-.9.9-.9h18.8c.5 0 .9.4.9.9s-.4.9-.9.9zm9 0h-4c-.5 0-.9-.4-.9-.9s.4-.9.9-.9h4c.5 0 .9.4.9.9s-.4.9-.9.9z"/><path class="st0" d="M33.2 26c-2.4 0-4.3-1.9-4.3-4.4 0-2.4 1.9-4.4 4.3-4.4s4.3 1.9 4.3 4.4-1.9 4.4-4.3 4.4zm0-7c-1.4 0-2.6 1.2-2.6 2.6 0 1.4 1.2 2.6 2.6 2.6 1.4 0 2.6-1.2 2.6-2.6 0-1.4-1.2-2.6-2.6-2.6zM9.1 26c-2.4 0-4.3-1.9-4.3-4.4 0-2.4 1.9-4.4 4.3-4.4s4.3 1.9 4.3 4.4c0 2.5-1.9 4.4-4.3 4.4zm0-7c-1.4 0-2.6 1.2-2.6 2.6 0 1.4 1.2 2.6 2.6 2.6s2.6-1.2 2.6-2.6c0-1.4-1.2-2.6-2.6-2.6z"/><path class="st0" d="M6.5 20.1H.9c-.5 0-.9-.4-.9-.9V.9C0 .4.4 0 .9 0h21.8c.2 0 .5.1.6.2s.2.4.2.6v17.7c0 .5-.4.9-.9.9s-.9-.4-.9-.9V1.8h-20v16.6h4.8c.5 0 .9.4.9.9 0 .4-.4.8-.9.8z"/></svg>