<svg id="Layer_1" xmlns="http://www.w3.org/2000/svg" width="34" height="30" viewBox="0 0 34 30"><style>.st0{fill:#ff754f}</style><path class="st0" d="M15.3 6.5h3.3v1.7h-3.3zM12 9.8h10v1.7H12zm0 3.2h10v1.7H12z"/><path class="st0" d="M27.3 16.1h-1.7V4.5l-2.9-2.8H8.4v14.4H6.7V0h16.8l3.8 3.8z"/><path class="st0" d="M26.4 5h-4.1V.9H24v2.4h2.4zM32 30H2c-1.1 0-2-.9-2-2V17.5l4.3-7.7h1.1V11h.1l-3.8 6.9V28c0 .1.1.2.2.2h30c.1 0 .2-.1.2-.2V17.9L28.5 11l.2-.1V9.7h1.1l4.3 7.7V28c-.1 1.1-1 2-2.1 2z"/><path class="st0" d="M22 23.5H12c-1.1 0-2-.9-2-2v-2.4H.9v-1.7h10.9v4.1c0 .1.1.2.2.2h10c.1 0 .2-.1.2-.2v-4.1h10.9v1.7H24v2.4c0 1.1-.9 2-2 2z"/></svg>