<svg id="Layer_1" xmlns="http://www.w3.org/2000/svg" width="32" height="33" viewBox="0 0 32 33"><style>.st0{fill:#ff754f}</style><path class="st0" d="M25.9 12.6c-.6 0-1-.4-1-1s.4-1 1-1c2.3 0 4.1-2 4.1-4.2s-1.9-4.2-4.1-4.2c-2.3 0-4.1 2-4.1 4.2 0 .6-.4 1-1 1s-1-.4-1-1c0-3.5 2.8-6.3 6.1-6.3S32 2.9 32 6.3s-2.8 6.3-6.1 6.3z"/><path class="st0" d="M15.6 33c-.8 0-1.6-.3-2.2-.9L.9 19.1c-1.2-1.2-1.2-3.2 0-4.4l2.2-2.3c.6-.6 1.4-.9 2.2-.8.8.1 1.4.7 1.8 1.6 0 0 1.2 2.8 3.4 2.8 2.3 0 4.1-2 4.1-4.2S12 8.3 11.9 8.3c-.8-.4-1.3-1-1.5-1.9-.1-.8.1-1.6.8-2.3l2.2-2.3c1.2-1.2 3.2-1.2 4.3 0l3.7 3.8c.4.4.4 1 0 1.4-.4.4-1 .4-1.4 0l-3.7-3.8c-.4-.4-1.1-.4-1.5 0l-2.2 2.3c-.1.1-.2.3-.2.4 0 .1.1.2.3.3.2.1 3.9 1.9 3.9 5.4 0 3.5-2.8 6.3-6.1 6.3-3.4 0-5.1-3.8-5.2-4-.1-.2-.2-.3-.3-.3s-.2.1-.4.2L2.4 16c-.4.4-.4 1.1 0 1.6l12.5 12.9c.4.4 1.1.4 1.5 0l12.5-12.9c.4-.4.4-1.1 0-1.6l-3.7-3.8c-.4-.4-.4-1 0-1.4s1-.4 1.4 0l3.7 3.8c.6.6.9 1.3.9 2.3s-.3 1.7-.9 2.3L17.8 32.1c-.6.6-1.4.9-2.2.9z"/></svg>