<svg id="Layer_1" xmlns="http://www.w3.org/2000/svg" width="53" height="46" viewBox="0 0 53 46"><style>.st0{fill:#ff754f}</style><path class="st0" d="M11.8 46C5.3 46 .1 40.7.1 34.4v-2.9C.2 28 3 25.4 6.5 25.4h10.7c3.6 0 6.4 2.8 6.4 6.4v2.6C23.5 40.7 18.3 46 11.8 46zM2.1 31.6v2.6c0 5.4 4.4 9.6 9.6 9.6s9.6-4.3 9.6-9.6v-2.6c0-2.4-1.9-4.3-4.4-4.3H6.4c-2.3.1-4.3 2-4.3 4.3zM41.2 46c-6.5 0-11.7-5.3-11.7-11.6v-2.9c.1-3.4 2.9-6.1 6.4-6.1h10.7c3.6 0 6.4 2.8 6.4 6.4v2.6C52.9 40.7 47.7 46 41.2 46zm-9.6-14.4v2.6c0 5.4 4.4 9.6 9.6 9.6 5.4 0 9.6-4.3 9.6-9.6v-2.6c0-2.4-1.9-4.3-4.4-4.3H35.8c-2.3.1-4.2 2-4.2 4.3z"/><path class="st0" d="M22.4 35.7c-.6 0-1-.4-1-1 0-2.4-1.9-4.3-4.4-4.3H6.4C4 30.3 2 32.3 2 34.7c0 .6-.4 1-1 1s-1-.4-1-1c0-3.5 2.8-6.4 6.4-6.4h10.7c3.6 0 6.4 2.8 6.4 6.4 0 .6-.5 1-1.1 1zm29.5 0c-.6 0-1-.4-1-1 0-2.4-1.9-4.3-4.4-4.3H35.8c-2.4 0-4.4 1.9-4.4 4.3 0 .6-.4 1-1 1s-1-.4-1-1c0-3.5 2.8-6.4 6.4-6.4h10.7c3.6 0 6.4 2.8 6.4 6.4 0 .6-.4 1-1 1z"/><path class="st0" d="M30.6 34c-.6 0-1-.4-1-1 0-1.7-1.3-3-3-3s-3 1.3-3 3c0 .6-.4 1-1 1s-1-.4-1-1c0-2.8 2.2-5.1 5.1-5.1s5.1 2.2 5.1 5.1c-.2.6-.7 1-1.2 1zM1.1 32.7c-.1 0-.1 0 0 0-.6-.1-1-.5-1-1.1L2.3 6.8C2.6 3.8 5 1 8.1.4l2-.4c.5-.1 1.1.2 1.2.8.1.5-.2 1.1-.8 1.2l-2 .4C6.4 2.8 4.6 4.9 4.4 7L2.1 31.8c-.1.5-.5.9-1 .9zm50.8 0c-.5 0-.9-.4-1-.9L48.6 7c-.2-2.1-2-4.1-4.2-4.5l-2-.4c-.5-.1-.9-.6-.8-1.2s.6-.9 1.2-.8l2 .4c2.9.6 5.5 3.3 5.8 6.4l2.2 24.8c.2.5-.2 1-.9 1 .1 0 .1 0 0 0z"/></svg>