<svg id="Layer_1" xmlns="http://www.w3.org/2000/svg" width="27" height="32" viewBox="0 0 27 32"><style>.st0{fill:#ff754f}</style><path class="st0" d="M13.5 32c-.4 0-.8-.3-.9-.7-.2-.5.1-1.1.6-1.3 11.7-4 11.7-17.9 11.7-18 0-.6.4-1 1-1 .5 0 1 .4 1 1 0 .2 0 15.4-13.2 19.9 0 .1-.1.1-.2.1z"/><path class="st0" d="M26 13c-.6 0-1-.4-1-1V6h-2c-.6 0-1-.4-1-1s.4-1 1-1h2c1.1 0 2 .9 2 2v6c0 .6-.4 1-1 1zM13.5 32c-.1 0-.2 0-.3-.1C0 27.3 0 12.1 0 12c0-.5.5-1 1-1 .6 0 1 .5 1 1 0 .1 0 13.9 11.7 18.1.5.2.8.8.6 1.3 0 .3-.4.6-.8.6z"/><path class="st0" d="M1 13c-.6 0-1-.4-1-1V6c0-1.1.9-2 2.1-2h2c.6 0 1 .4 1 1S4.7 6 4 6H2v6c.1.6-.3 1-1 1z"/><path class="st0" d="M22.8 6c-5.2 0-8.1-2.1-9.3-3.5C12.2 3.8 9.2 6 4.2 6c-.6 0-1-.4-1-1s.4-1 1-1C10.3 4 12.6.6 12.6.5c.4-.6 1.5-.6 1.9 0 0 .1 2.3 3.5 8.3 3.5.6 0 1 .4 1 1s-.3 1-1 1zm-5.1 15c-.3 0-.5-.1-.7-.3l-8.3-8c-.4-.4-.4-1 0-1.4.4-.4 1-.4 1.5 0l8.3 8c.4.4.4 1 0 1.4-.3.2-.5.3-.8.3z"/><path class="st0" d="M9.3 21c-.3 0-.5-.1-.7-.3-.4-.4-.4-1 0-1.4l8.3-8c.4-.4 1-.4 1.5 0 .4.4.4 1 0 1.4l-8.3 8c-.2.2-.4.3-.8.3z"/></svg>