<svg id="Layer_1" xmlns="http://www.w3.org/2000/svg" width="31" height="34" viewBox="0 0 31 34"><style>.st0{fill:#ff754f}</style><path class="st0" d="M14.3 34c-5 0-11-.5-11-2.7s5.9-2.7 11-2.7 11 .5 11 2.7c-.2 2.3-6.1 2.7-11 2.7zm-7.7-2.6c1.4.3 4 .6 7.5.6s6.1-.3 7.5-.6c-1.4-.3-4-.6-7.5-.6s-5.9.3-7.5.6zm16.7.4z"/><path class="st0" d="M14.3 30.8c-.3 0-.5-.1-.7-.3l-8.8-8.9c-.4-.4-.4-1 0-1.5.4-.4 1-.4 1.4 0L15 29c.4.4.4 1 0 1.5-.2.1-.5.3-.7.3zM5.4 18c-.3 0-.5-.1-.7-.3-.4-.4-.4-1 0-1.5l8.6-8.7c.4-.4 1-.4 1.4 0s.4 1 0 1.5l-8.6 8.7c-.2.2-.5.3-.7.3z"/><path class="st0" d="M18.4 20.7c-.3 0-.5-.1-.7-.3-1.8-1.8-2.7-4.1-2.7-6.7 0-.8.1-1.7.3-2.5l-3.8-3.9c-1-1-1-2.7 0-3.8L14.2.8c1-1 2.7-1 3.7 0l3.7 4c.8-.2 1.7-.3 2.5-.3 2.5 0 4.9.9 6.6 2.7.4.4.4 1 0 1.5L19.1 20.4c-.2.2-.5.3-.7.3zM15.9 2c-.1 0-.3.1-.4.2L12.8 5c-.2.2-.2.6 0 .8l4.2 4.3c.3.3.4.7.2 1-.3.8-.4 1.6-.4 2.5 0 1.6.5 3.1 1.4 4.4l10-10.2C27.1 7 25.5 6.4 24 6.4c-.8 0-1.7.1-2.5.4-.4.1-.8 0-1.1-.2l-4.2-4.4c0-.1-.1-.2-.3-.2z"/><path class="st0" d="M24.3 18.2c-1.2 0-2.4-.5-3.2-1.5-.3-.4-.3-1 0-1.5l4.4-4.5c.4-.4 1-.4 1.4 0 .9.8 1.4 2 1.4 3.2.1 2.4-1.7 4.3-4 4.3zm-.8-2.3c.3.1.5.2.8.2 1.1 0 2.1-.9 2.1-2.1 0-.3 0-.5-.1-.8l-2.8 2.7zm-20 6.5c-2 0-3.5-1.6-3.5-3.6s1.6-3.6 3.5-3.6S7 16.8 7 18.8s-1.5 3.6-3.5 3.6zm0-5.1c-.8 0-1.4.6-1.4 1.5s.6 1.5 1.4 1.5c.8 0 1.4-.6 1.4-1.5s-.6-1.5-1.4-1.5z"/></svg>