<svg id="Layer_1" xmlns="http://www.w3.org/2000/svg" width="17" height="17" viewBox="0 0 17 17"><style>.st0{fill:#ff754f}</style><path class="st0" d="M16.6 2.6c0 1-.7 1.7-.7 1.7L5 15.2s-.1.1-.2.1L.6 17c-.2.1-.4 0-.5-.1-.1-.2-.1-.4-.1-.5l1.6-4.2c0-.1.1-.1.1-.2L12.6 1.1s.4-.4 1-.6c.8-.3 1.6-.1 2.3.6.5.4.7.9.7 1.5zm-1.3 1.1s.5-.5.5-1.1c0-.3-.1-.6-.4-.9-.9-.9-1.9-.1-2 0L2.5 12.5l-1.2 3.2 3.2-1.2L15.3 3.7z"/><path class="st0" d="M5.1 14.8v.1c-.1.1-.3.2-.4.1l-1.8-.8-.1-.1-.9-1.7c-.1-.1 0-.3.1-.4.1-.1.3 0 .4.1l.9 1.6 1.7.8c0 .1.1.2.1.3zM15.5 4.4c0 .1 0 .1-.1.2s-.3.1-.4 0L12.4 2c-.1-.1-.1-.3 0-.4.1-.1.3-.1.4 0l2.6 2.6c0 .1.1.1.1.2zM8.7 5.8c0 .1 0 .2-.1.3-.2.2-.5.2-.7 0l-5-5-1.8 1.8 5 5c.2.2.2.5 0 .7-.1.2-.4.2-.6 0L.2 3.2c-.2-.1-.2-.4 0-.6L2.6.2c.1-.2.2-.2.3-.2.1 0 .3 0 .3.1l5.4 5.4c.1.1.1.2.1.3z"/><path class="st0" d="M6 3.2c0 .1 0 .1-.1.2L4.8 4.5c-.1.1-.3.1-.4 0-.1-.1-.1-.3 0-.4L5.6 3c.1-.1.3-.1.4 0v.2zm-.6-.7c0 .1 0 .1-.1.2l-.8.8c-.1.1-.3.1-.4 0-.1-.1-.1-.3 0-.4l.8-.8c.1-.1.3-.1.4 0 0 .1.1.1.1.2zm-.7-.7c0 .1 0 .1-.1.2l-.8.8c-.1.1-.3.1-.4 0-.1-.1-.1-.3 0-.4l.8-.8c.1-.1.3-.1.4 0 .1.1.1.2.1.2zM4 1.2v.2l-.8.8c-.1.1-.3.1-.4 0-.1-.1-.1-.3 0-.4l.8-.8c.1-.1.3-.1.4 0v.2zm4 3.9c0 .1 0 .1-.1.2l-.8.8c-.1.1-.3.1-.4 0-.1-.1-.1-.3 0-.4l.8-.8c.1-.1.3-.1.4 0 0 .1.1.1.1.2zm-.7-.6c0 .1 0 .1-.1.2l-.8.7c-.1.1-.3.1-.4 0 0-.1 0-.2.1-.3l.8-.8c.1-.1.3-.1.4 0v.2zm-.6-.7c0 .1 0 .1-.1.2l-.8.8c-.1.1-.3.1-.4 0-.1-.1-.1-.3 0-.4l.8-.8c.1-.1.3-.1.4 0 0 .1.1.1.1.2zM17 14.1c0 .1 0 .2-.1.3l-2.4 2.4c-.1.2-.3.2-.4.2-.1 0-.2 0-.3-.1l-5.3-5.3c-.2-.2-.2-.5 0-.7.2-.2.5-.2.7 0l5 5 1.8-1.8-5.2-5.2c-.2-.2-.2-.5 0-.7.2-.2.5-.2.7 0l5.5 5.5v.4z"/><path class="st0" d="M14.2 11.3c0 .1 0 .1-.1.2L13 12.6c-.1.1-.3.1-.4 0-.1-.1-.1-.3 0-.4l1.1-1.1c.1-.1.3-.1.4 0 0 .1.1.2.1.2zm.6.7c0 .1 0 .1-.1.2l-.8.8c-.1.1-.3.1-.4 0-.1-.1-.1-.3 0-.4l.8-.8c.1-.1.3-.1.4 0 .1 0 .1.1.1.2zm.7.6c0 .1 0 .1-.1.2l-.8.8c-.1.1-.3.1-.4 0-.1-.1-.1-.3 0-.4l.8-.8c.1-.1.3-.1.4 0 0 .1.1.2.1.2zm.6.7c0 .1 0 .1-.1.2l-.8.8c-.1.1-.3.1-.4 0s-.1-.3 0-.4l.8-.8c.1-.1.3-.1.4 0 .1 0 .1.1.1.2zm-3.9-4c0 .1 0 .1-.1.2l-.8.8c-.1.1-.3.1-.4 0s-.1-.3 0-.4l.8-.8c.2-.1.3-.1.4.1.1 0 .1.1.1.1zm.6.7c0 .1 0 .1-.1.2l-.7.8c-.1.1-.3.1-.4 0-.1-.1-.1-.3 0-.4l.8-.8c.1-.1.3-.1.4 0v.2zm.7.7c0 .1 0 .1-.1.2l-.8.8c-.1.1-.3.1-.4 0-.1-.1-.1-.3 0-.4l.8-.8c.1-.1.3-.1.4 0 .1 0 .1.1.1.2zM1.1 15l.8.9-1.2.7z"/><path class="st0" d="M2.2 15.9c0 .1-.1.2-.1.2l-1.3.7H.5c-.1-.1-.1-.2-.1-.3L.8 15c0-.1.1-.2.2-.2s.2 0 .3.1l.9.9v.1zm-1.1.2l.5-.3-.3-.3-.2.6z"/></svg>