<svg id="Layer_1" xmlns="http://www.w3.org/2000/svg" width="32" height="32" viewBox="0 0 32 32"><style>.st0{fill:#ff754f}</style><path class="st0" d="M15.8 22c-6.1 0-11-4.9-11-11s4.9-11 11-11 11 4.9 11 11-4.9 11-11 11zm0-20c-5 0-9 4-9 9s4 9 9 9 9-4 9-9-4-9-9-9z"/><path class="st0" d="M22.1 32c-.4 0-.7-.2-.9-.5l-5.8-10c-.3-.5-.1-1.1.4-1.4.5-.3 1.1-.1 1.4.4l4.7 8.2 1.6-4c.2-.4.6-.7 1.1-.6l4.3.7-5-8.7c-.3-.5-.1-1.1.4-1.4.5-.3 1.1-.1 1.4.4l6.1 10.5c.2.3.2.7 0 1.1-.2.3-.6.5-1 .4l-5.5-.8-2 5.2c-.4.2-.7.5-1.2.5.1 0 .1 0 0 0z"/><path class="st0" d="M9.6 32c-.2 0-.2 0 0 0-.5 0-.8-.3-.9-.6l-2-5.2-5.5.8c-.4.1-.8-.1-1-.4-.2-.3-.2-.7 0-1.1L6.3 15c.3-.5.9-.6 1.4-.4s.6.9.4 1.4l-5 8.7 4.2-.7c.5-.1.9.2 1.1.6l1.6 4 4.7-8.2c.3-.5.9-.6 1.4-.4s.6.9.4 1.4l-5.8 10c-.6.4-.9.6-1.1.6z"/></svg>