<svg id="icojam_x5F_unigrid_x5F_mini" xmlns="http://www.w3.org/2000/svg" width="51" height="48" viewBox="0 0 51 48"><style>.st0{fill:#ff754f}</style><path class="st0" d="M39.1 8.6h-8.5c-.5 0-.8-.3-.8-.9s.3-.9.8-.9h8.5c.5 0 .8.3.8.9s-.4.9-.8.9zm-18.7 0h-8.5c-.5 0-.8-.3-.8-.9s.3-.9.8-.9h8.5c.5 0 .8.3.8.9s-.4.9-.8.9zm5.1-4.3c-.5 0-.8-.3-.8-.9V.9c0-.6.3-.9.8-.9s.8.3.8.9v2.6c.1.4-.3.8-.8.8zm0 43.7c-.5 0-.8-.3-.8-.9V12c0-.5.3-.9.8-.9s.8.3.8.9v35.1c.1.6-.3.9-.8.9z"/><path class="st0" d="M33.2 48H17.9c-.5 0-.8-.3-.8-.9s.3-.9.8-.9h15.3c.5 0 .8.3.8.9s-.3.9-.8.9zM19.6 33.4H.9c-.5 0-.8-.3-.8-.9 0-.5.3-.9.8-.9h18.7c.5 0 .8.3.8.9 0 .6-.4.9-.8.9zm5.9-20.5c-2.8 0-5.1-2.3-5.1-5.1s2.3-5.1 5.1-5.1 5.1 2.3 5.1 5.1-2.3 5.1-5.1 5.1zm0-8.6c-1.9 0-3.4 1.5-3.4 3.4s1.5 3.4 3.4 3.4 3.4-1.5 3.4-3.4-1.5-3.4-3.4-3.4z"/><path class="st0" d="M10.2 42.9C4.6 42.9 0 38.2 0 32.6c0-.5.3-.9.8-.9s.8.3.8.9c0 4.7 3.8 8.6 8.5 8.6s8.5-3.9 8.5-8.6c0-.5.3-.9.8-.9s.8.3.8.9c.2 5.6-4.4 10.3-10 10.3zm0-32.6c-1.4 0-2.5-1.1-2.5-2.6s1.1-2.6 2.5-2.6 2.5 1.1 2.5 2.6-1.1 2.6-2.5 2.6zm0-3.4c-.5 0-.8.3-.8.9s.3.9.8.9.8-.3.8-.9-.4-.9-.8-.9zm30.6 3.4c-1.4 0-2.5-1.1-2.5-2.6s1.1-2.6 2.5-2.6 2.5 1.1 2.5 2.6-1.1 2.6-2.5 2.6zm0-3.4c-.5 0-.8.3-.8.9s.3.9.8.9.8-.3.8-.9-.4-.9-.8-.9z"/><path class="st0" d="M19.6 33.4c-.3 0-.7-.2-.8-.5l-8.6-21.2-8.6 21.2c-.2.4-.7.7-1.1.4-.4-.2-.7-.7-.4-1.1L9.4 9.1c.2-.3.4-.5.8-.5.3 0 .7.2.8.5l9.3 23.1c.2.4 0 .9-.4 1.1-.1.1-.3.1-.3.1zm30.6 0H31.5c-.5 0-.8-.3-.8-.9 0-.5.3-.9.8-.9h18.7c.5 0 .8.3.8.9 0 .6-.4.9-.8.9z"/><path class="st0" d="M40.8 42.9c-5.6 0-10.2-4.6-10.2-10.3 0-.5.3-.9.8-.9s.8.3.8.9c0 4.7 3.8 8.6 8.5 8.6s8.5-3.9 8.5-8.6c0-.5.3-.9.8-.9s.8.3.8.9c.2 5.6-4.4 10.3-10 10.3z"/><path class="st0" d="M50.2 33.4c-.3 0-.7-.2-.8-.5l-8.6-21.2-8.6 21.2c-.2.4-.7.7-1.1.4-.4-.2-.7-.7-.4-1.1L40 9.1c.2-.3.4-.5.8-.5s.7.2.8.5l9.3 23.1c.2.4 0 .9-.4 1.1-.1.1-.3.1-.3.1zm-40 6c-2.6 0-5-1.5-6.1-3.9-.2-.4 0-.9.4-1.1.4-.2.9 0 1.1.4.8 1.8 2.6 2.9 4.6 2.9.5 0 .8.3.8.9.1.5-.4.8-.8.8zm30.6 0c-2.6 0-5-1.5-6.1-3.9-.2-.4 0-.9.4-1.1.4-.2.9 0 1.1.4.8 1.8 2.6 2.9 4.6 2.9.5 0 .8.3.8.9.1.5-.4.8-.8.8z"/></svg>