<svg id="Layer_1" xmlns="http://www.w3.org/2000/svg" width="32" height="30" viewBox="0 0 32 30"><style>.st0{fill:#ff754f}</style><path class="st0" d="M29 30H3c-1.7 0-3-1.3-3-3V9c0-1.7 1.3-3 3-3h25c.5 0 1.7 0 1.9-.6.2-.5.8-.8 1.3-.6.5.2.8.8.6 1.3 0 .1-.1.1-.1.2.2.3.3.5.3.8V27c0 1.7-1.4 3-3 3zM3 8.1c-.6 0-1 .4-1 1v18c0 .6.4 1 1 1h26c.6 0 1-.4 1-1V7.8c-.8.3-1.6.2-2 .3H3z"/><path class="st0" d="M31 8.1c-.6 0-1-.4-1-1v-1c0-.1-.1-.8-1.2-1l-22-3c-.3-.1-.5 0-.6.1s-.2.3-.2.5v3.7c0 .6-.4 1-1 1s-1-.4-1-1V2.7c0-.8.3-1.6.9-2.1S6.3-.1 7.1.1l22 3c2.2.5 2.8 2.1 2.9 2.9v1c0 .6-.5 1.1-1 1.1zM5.9 20c-1.1 0-2-.9-2-2s.9-2 2-2 2 .9 2 2-.9 2-2 2zm0-2z"/></svg>