<svg xmlns="http://www.w3.org/2000/svg" width="2" height="164" viewBox="0 0 2 164"><path d="M1 164c-.6 0-1-.4-1-1v-.5c0-.6.4-1 1-1s1 .4 1 1v.5c0 .5-.4 1-1 1zm0-13c-.6 0-1-.4-1-1v-1c0-.6.4-1 1-1s1 .4 1 1v1c0 .6-.4 1-1 1zm0-13.5c-.6 0-1-.4-1-1v-1c0-.6.4-1 1-1s1 .4 1 1v1c0 .5-.4 1-1 1zM1 124c-.6 0-1-.4-1-1v-1c0-.6.4-1 1-1s1 .4 1 1v1c0 .6-.4 1-1 1zm0-13.5c-.6 0-1-.4-1-1v-1c0-.6.4-1 1-1s1 .4 1 1v1c0 .5-.4 1-1 1zM1 97c-.6 0-1-.4-1-1v-1c0-.6.4-1 1-1s1 .4 1 1v1c0 .6-.4 1-1 1zm0-13.4c-.6 0-1-.4-1-1v-1c0-.6.4-1 1-1s1 .4 1 1v1c0 .5-.4 1-1 1zM1 70c-.6 0-1-.4-1-1v-1c0-.6.4-1 1-1s1 .4 1 1v1c0 .6-.4 1-1 1zm0-13.4c-.6 0-1-.4-1-1v-1c0-.6.4-1 1-1s1 .4 1 1v1c0 .5-.4 1-1 1zM1 43c-.6 0-1-.4-1-1v-1c0-.6.4-1 1-1s1 .4 1 1v1c0 .6-.4 1-1 1zm0-13.5c-.6 0-1-.4-1-1v-1c0-.6.4-1 1-1s1 .4 1 1v1c0 .6-.4 1-1 1zM1 16c-.6 0-1-.4-1-1v-1c0-.6.4-1 1-1s1 .4 1 1v1c0 .5-.4 1-1 1zM1 2.5c-.6 0-1-.4-1-1V1c0-.6.4-1 1-1s1 .4 1 1v.5c0 .6-.4 1-1 1z"/></svg>