<svg id="Layer_1" xmlns="http://www.w3.org/2000/svg" width="22" height="22" viewBox="0 0 22 22"><style>.st0{fill:#ff754f}</style><path class="st0" d="M19.3 22H.7c-.4 0-.7-.3-.7-.7V2.7c0-.4.3-.7.7-.7h11.7c.4 0 .7.3.7.7s-.3.7-.7.7h-11v17.2h17.2v-11c0-.4.3-.7.7-.7.4 0 .7.3.7.7v11.7c0 .4-.3.7-.7.7z"/><path class="st0" d="M6.9 15.8c-.2 0-.3-.1-.5-.2-.2-.2-.3-.5-.1-.7l1.4-4.1c0-.1.1-.2.1-.3L17.4.9c.3-.3.7-.3 1 0 .3.3.3.7 0 1l-9.5 9.5L8 14l2.7-.9 9.5-9.5c.3-.3.7-.3 1 0s.3.7 0 1l-9.6 9.6c-.1.1-.1.1-.3.1l-4.1 1.4c-.2.1-.2.1-.3.1z"/><path class="st0" d="M20.7 4.8c-.2 0-.3-.1-.5-.2-.3-.3-.3-.7 0-1 .2-.2.4-.5.5-.9 0-.3-.1-.6-.4-.9-.3-.3-.6-.5-1-.5s-.7.3-.9.5c-.3.3-.7.3-1 0-.3-.3-.3-.7 0-1 .6-.5 1.1-.7 1.8-.8.5 0 1.2.1 2 .9s.9 1.5.8 2c-.1.6-.3 1.2-.9 1.7-.1.1-.2.2-.4.2z"/></svg>