<svg id="Layer_1" xmlns="http://www.w3.org/2000/svg" width="20" height="22" viewBox="0 0 20 20"><style>.st0{fill:#ff754f}</style><path class="st0" d="M16.3 20c-2.4 0-6.6-2.9-10.1-6.4C2.1 9.4-1.3 4 .5 2.2l2-1.8C3 .1 3.4 0 3.9 0c.5 0 .9.3 1.2.6l3.1 3.6c.1.2.1.5 0 .8L6.5 7.8l5.7 5.7 2.8-1.7c.3-.1.5-.1.8.1l3.6 3.1c.4.3.6.8.6 1.2.1.4-.1 1-.4 1.3l-1.8 2-.1.1c-.3.2-.9.4-1.4.4zM3.7 1.3c-.1 0-.3.1-.3.1l-2 1.7c-.8.8 1 4.9 5.7 9.6 4.7 4.7 8.9 6.7 9.7 5.9l1.7-2c.1-.1.1-.3.1-.4 0-.1-.1-.3-.2-.3l-3.3-2.8-2.8 1.7c-.3.1-.6.1-.8-.1L5.2 8.4c-.2-.2-.3-.5-.1-.8l1.7-2.8L4 1.5c0-.2-.1-.2-.3-.2z"/></svg>