<svg id="Layer_1" xmlns="http://www.w3.org/2000/svg" width="14" height="21" viewBox="0 0 14 21"><style>.st0{fill:#ff754f}</style><path class="st0" d="M6.6 17.2c-3.7 0-6.6-3-6.6-6.7s3-6.7 6.6-6.7c3.7 0 6.6 3 6.6 6.7.1 3.7-2.9 6.7-6.6 6.7zm0-12.4C3.5 4.8.9 7.4.9 10.5s2.6 5.7 5.7 5.7 5.7-2.6 5.7-5.7-2.5-5.7-5.7-5.7z"/><path class="st0" d="M9.7 5.2c-.2 0-.5-.2-.5-.4V.9H4v3.8c0 .3-.2.5-.5.5-.2 0-.4-.2-.4-.4V.5c0-.3.2-.5.4-.5h6.2c.3 0 .5.2.5.5v4.3c0 .2-.2.4-.5.4z"/><path class="st0" d="M6.6 6c-.1 0-.2-.1-.2-.3v-1c0-.2.1-.3.3-.3.2 0 .3.1.3.3v1c-.1.2-.2.3-.4.3zm0 10.5c-.2 0-.3-.1-.3-.3v-1c0-.2.1-.3.3-.3.2 0 .3.1.3.3v1c0 .2-.1.3-.3.3zm5.9-5.7h-1c-.2 0-.3-.1-.3-.3 0-.1.1-.3.3-.3h1c.2 0 .3.1.3.3 0 .1-.1.3-.3.3zm-10.9 0h-1c-.2 0-.3-.1-.3-.3 0-.1.1-.3.3-.3h1c.2 0 .3.1.3.3 0 .1-.1.3-.3.3z"/><path class="st0" d="M13.7 11.7h-1c-.2 0-.3-.1-.3-.3s.1-.3.3-.3h.7V9.8h-.7c-.2 0-.3-.1-.3-.3 0-.2.1-.3.3-.3h1c.2 0 .3.1.3.3v1.9c0 .2-.1.3-.3.3zm-7.1-.5c-.4 0-.7-.3-.7-.7 0-.4.3-.7.7-.7.4 0 .7.3.7.7.1.4-.3.7-.7.7zm0-.9c-.1 0-.2.1-.2.2s.1.2.2.2.2-.1.2-.2-.1-.2-.2-.2z"/><path class="st0" d="M6.6 10.3c-.2 0-.3-.1-.3-.3V6.7c0-.2.1-.3.3-.3.2 0 .3.1.3.3V10c0 .2-.1.3-.3.3zm2.9.7H7.3c-.3 0-.5-.2-.5-.5s.2-.5.5-.5h2.2c.3 0 .5.2.5.5s-.3.5-.5.5zM5 4.6c-.2 0-.3-.1-.3-.3V.5c0-.2.1-.3.3-.3.2 0 .3.1.3.3v3.8c-.1.1-.2.3-.3.3zm3.3 0c-.2 0-.3-.2-.3-.3V.5c0-.2.1-.3.3-.3.2 0 .3.1.3.3v3.8c0 .1-.2.3-.3.3zM9.7 21H3.5c-.3 0-.5-.2-.5-.5v-4.3c0-.3.2-.5.5-.5.3.1.5.3.5.5V20h5.2v-3.8c0-.3.2-.5.5-.5s.5.2.5.5v4.3c0 .3-.2.5-.5.5z"/><path class="st0" d="M8.3 20.8c-.2 0-.3-.1-.3-.3v-3.8c0-.2.1-.3.3-.3.2 0 .3.1.3.3v3.8c0 .2-.2.3-.3.3zm-3.3 0c-.2 0-.3-.1-.3-.3v-3.8c0-.2.1-.3.3-.3.2 0 .3.1.3.3v3.8c-.1.2-.2.3-.3.3z"/></svg>