<svg id="Layer_1" xmlns="http://www.w3.org/2000/svg" width="26" height="31" viewBox="0 0 26 31"><style>.st0{fill:#ff754f}</style><path class="st0" d="M7.1 31c-.2 0-.5-.1-.6-.2l-3.1-3.1c-.2-.2-.2-.4-.2-.6V2.5C3.2 1.2 4.3.1 5.7.1h3.1c1.3 0 2.5 1.1 2.5 2.4v24.6c0 .2-.1.5-.2.6L8 30.8c-.4.1-.6.2-.9.2zm-2.2-4.3l2.2 2.2 2.2-2.2V2.4c0-.3-.3-.7-.7-.7h-3c-.4 0-.7.3-.7.7v24.3zM23.5 31h-6.3c-1.3 0-2.5-1.1-2.5-2.4V2.4c0-1.3 1.1-2.4 2.5-2.4h6.3C24.9 0 26 1.1 26 2.4v26.2c0 1.3-1.1 2.4-2.5 2.4zM17.3 1.7c-.4 0-.7.3-.7.7v26.2c0 .3.3.7.7.7h6.3c.4 0 .7-.3.7-.7V2.4c0-.3-.3-.7-.7-.7h-6.3z"/><path class="st0" d="M4 4.7h6.3v1.7H4zm11.8.7h3.1v1.7h-3.1zm0 6.2h4.7v1.7h-4.7zm0 6.1h3.1v1.7h-3.1zm0 6.2h4.7v1.7h-4.7zm-14-10.7H0V7c0-1.3 1.1-2.4 2.5-2.4H4v1.7H2.5c-.4 0-.7.3-.7.7v6.2z"/></svg>