<svg id="Layer_1" xmlns="http://www.w3.org/2000/svg" width="48" height="53" viewBox="0 0 47 53"><style>.st0{fill:#ff754f}</style><path class="st0" d="M3.6 29.5h39.7v2H3.6z"/><path class="st0" d="M3.6 29.5h39.7v2H3.6zm0-8h39.7v2H3.6zm0-8.1h39.7v2H3.6z"/><path class="st0" d="M43.4 53H3.7c-.6 0-1-.4-1-1V6.4c0-.6.4-1 1-1h39.7c.6 0 1 .4 1 1V52c0 .5-.5 1-1 1zM4.6 51h37.7V7.4H4.6V51z"/><path class="st0" d="M44.7 7.3H2.3C1 7.3 0 6.3 0 5V2.3C0 1 1 0 2.3 0h42.4C46 0 47 1 47 2.3V5c0 1.4-1 2.3-2.3 2.3zM2.3 2c-.2 0-.3.1-.3.3V5c0 .2.2.3.3.3h42.4c.2 0 .3-.1.3-.3V2.3c0-.2-.2-.3-.3-.3H2.3zm28.8 50h-2v-9.4c0-3.2-2.5-5.7-5.6-5.7s-5.6 2.5-5.6 5.7V52h-2v-9.4c0-4.4 3.3-7.7 7.6-7.7s7.6 3.4 7.6 7.7V52z"/><path class="st0" d="M15.9 6.3h2v24.1h-2zm13.2 0h2v24.1h-2z"/></svg>