<svg id="Layer_1" xmlns="http://www.w3.org/2000/svg" width="39" height="58" viewBox="0 0 39 58"><style>.st0{fill:#ff754f}</style><path class="st0" d="M35.4 58H3.6c-2 0-3.6-1.6-3.6-3.6V25.1C0 14.2 8.7 5.4 19.6 5.4S39 14.1 39 25.1v29.3c0 1.9-1.6 3.6-3.6 3.6zM19.5 7.4c-9.6 0-17.6 7.9-17.6 17.7v29.3c0 .9.7 1.6 1.6 1.6h31.8c.9 0 1.6-.7 1.6-1.6V25.1c.1-9.8-7.8-17.7-17.4-17.7z"/><path class="st0" d="M24.7 7.4c-.6 0-1-.4-1-1 0-2.4-1.9-4.3-4.3-4.3S15.1 4 15.1 6.4c0 .6-.4 1-1 1s-1-.4-1-1c0-3.5 2.8-6.4 6.3-6.4s6.3 2.8 6.3 6.4c0 .6-.4 1-1 1zm5.4 45.2H8.8c-2 0-3.6-1.6-3.6-3.6V38.4c0-2 1.6-3.6 3.6-3.6H30c2 0 3.6 1.6 3.6 3.6V49c.1 2-1.5 3.6-3.5 3.6zM8.8 36.7c-.9 0-1.6.7-1.6 1.6v10.6c0 .9.7 1.6 1.6 1.6H30c.9 0 1.6-.7 1.6-1.6V38.3c0-.9-.7-1.6-1.6-1.6H8.8z"/><path class="st0" d="M32.7 42H6.1c-.6 0-1-.4-1-1s.4-1 1-1h26.5c.6 0 1 .4 1 1 .1.6-.3 1-.9 1zM19.5 24.7c-.3 0-.5-.1-.7-.3l-4-4c-.2-.2-.3-.4-.3-.7s.1-.5.3-.7l4-4c.4-.4 1-.4 1.4 0l4 4c.2.2.3.4.3.7s-.1.5-.3.7l-4 4c-.2.2-.5.3-.7.3zm-2.6-5l2.5 2.5 2.5-2.5-2.5-2.5-2.5 2.5z"/></svg>