<svg id="Layer_1" xmlns="http://www.w3.org/2000/svg" width="22" height="22" viewBox="0 0 22 22"><style>.st0{fill:#ff754f}</style><path class="st0" d="M20.6 22H8.9c-.8 0-1.4-.6-1.4-1.4v-5.5c0-.4.3-.7.7-.7s.7.3.7.7v5.5h11.7V1.4H8.9v5.5c0 .4-.3.7-.7.7s-.6-.3-.6-.7V1.4C7.6.6 8.2 0 8.9 0h11.7c.8 0 1.4.6 1.4 1.4v19.3c0 .7-.6 1.3-1.4 1.3z"/><path class="st0" d="M15.8 11.7H.7c-.4 0-.7-.3-.7-.7s.3-.7.7-.7h15.1c.4 0 .7.3.7.7s-.3.7-.7.7z"/><path class="st0" d="M11.7 15.8c-.2 0-.3-.1-.5-.2-.3-.3-.3-.7 0-1l3.6-3.6-3.6-3.6c-.3-.3-.3-.7 0-1s.7-.3 1 0l4.1 4.1c.3.3.3.7 0 1l-4.1 4.1c-.2.1-.3.2-.5.2z"/></svg>