<svg id="Layer_1" xmlns="http://www.w3.org/2000/svg" width="56" height="47" viewBox="0 0 56 47"><style>.st0{fill:#ff754f}</style><path class="st0" d="M20.4 23.8c-4.9 0-8.9-3.9-8.9-9v-4.6c0-.5.3-.9.9-.9s.9.3.9.9v4.6c0 4.1 3.1 7.3 7.2 7.3s7.2-3.1 7.2-7.3v-3.5c0-.5.3-.9.9-.9s.9.3.9.9v3.5c-.1 5-4.1 9-9.1 9zM37.6 47H3.2C1.5 47 0 45.6 0 43.8v-1.2c0-7.9 5.7-14.7 13.4-15.7.2 0 .6 0 .7.2l6.2 6.3 6.2-6.3c.2-.2.5-.2.7-.2C35 28 40.6 34.6 40.6 42.6v1.2c.2 1.7-1.2 3.2-3 3.2zM13.3 28.6c-6.7 1.2-11.6 7.1-11.6 14v1.2c0 .8.7 1.5 1.5 1.5h34.4c.8 0 1.5-.7 1.5-1.5v-1.2c0-7.1-4.8-12.8-11.6-14l-6.4 6.5c-.3.3-.9.3-1.3 0l-6.5-6.5z"/><path class="st0" d="M28.5 12.3c-.5 0-.9-.3-.9-.9V9c0-2.1-1.7-3.8-3.8-3.8-.5 0-.9-.3-.9-.9V1.9l-5.4 1c-2.4.5-4.4 3-4.4 5.4v2.9c0 .5-.3.9-.9.9s-.9-.3-.9-.9V8.3c0-3.2 2.5-6.5 5.7-7.1L23.4 0c.2 0 .5 0 .7.2.2.1.3.5.3.7v2.7C27.1 4.1 29 6.3 29 9v2.3c.4.5-.1 1-.5 1z"/><path class="st0" d="M28.5 14.6c-.5 0-.9-.3-.9-.9 0-2.1-1.7-3.8-3.8-3.8h-6.9c-.5 0-.9-.3-.9-.9 0-.6.3-.9.9-.9h6.9c3 0 5.5 2.4 5.5 5.6.1.4-.4.9-.8.9z"/><path class="st0" d="M17 10c-1.7 0-3.4-.8-4.4-2.2-.2-.3-.2-.9.2-1.2.3-.2.9-.2 1.1.2.7.9 1.7 1.5 3 1.5.5 0 .9.3.9.9.1.6-.4.8-.8.8zm22.7 18.6c-4 0-7.2-3.2-7.2-7.3v-3.7c0-.5.3-.9.9-.9s.9.3.9.9v3.7c0 3.1 2.4 5.6 5.5 5.6s5.5-2.4 5.5-5.6v-2.8c0-.5.3-.9.9-.9s.9.3.9.9v2.8c-.2 4.1-3.3 7.3-7.4 7.3zM53.4 47h-9.1c-.5 0-.9-.3-.9-.9s.3-.9.9-.9h9.1c.6 0 .9-.5.9-.9v-.9c0-5.4-3.8-10-8.9-11L43 34.6c-.3.3-.9.3-1.3 0s-.3-.9 0-1.3l2.6-2.7c.2-.2.5-.2.7-.2 6.4 1 11 6.3 11 12.8v.9c.1 1.6-1.2 2.9-2.6 2.9z"/><path class="st0" d="M46.1 19.3c-.5 0-.9-.3-.9-.9v-1.9c0-1.5-1.3-2.8-2.8-2.8-.5 0-.9-.3-.9-.9v-1.7l-4.1.8c-1.8.3-3.3 2.3-3.3 4.2v2.3c0 .5-.3.9-.9.9s-.9-.3-.9-.9v-2.3c0-2.7 2.1-5.2 4.7-5.8l5.2-1c.2 0 .5 0 .7.2.2.1.3.5.3.7v2c2.1.5 3.7 2.2 3.7 4.5v1.9c0 .4-.3.7-.8.7z"/><path class="st0" d="M46.1 21.2c-.5 0-.9-.3-.9-.9 0-1.5-1.3-2.8-2.8-2.8h-5.5c-.5 0-.9-.3-.9-.9 0-.6.3-.9.9-.9h5.5c2.5 0 4.5 2.1 4.5 4.5 0 .6-.3 1-.8 1z"/><path class="st0" d="M36.9 17.5c-1.5 0-2.9-.7-3.7-1.9-.2-.3-.2-.9.2-1.2.3-.2.9-.2 1.1.2.5.7 1.3 1.2 2.2 1.2.5 0 .9.3.9.9.1.7-.2.8-.7.8z"/></svg>