<svg id="Layer_1" xmlns="http://www.w3.org/2000/svg" viewBox="0 0 55 55" width="55" height="55"><style>.st0{fill:#ff754f}</style><path class="st0" d="M35.7 54.9H19.3c-.6 0-1-.4-1-1V41.1c0-.6.4-1 1-1h16.4c.6 0 1 .4 1 1v12.7c0 .6-.5 1.1-1 1.1zm-15.4-2h14.4V42.1H20.3v10.8z"/><path class="st0" d="M52 54.9H3c-.6 0-1-.4-1-1V10.2C2 4.7 6.5.1 12 .1h31c5.5 0 10 4.6 10 10.1v43.6c0 .6-.4 1.1-1 1.1zm-48-2h47V10.2c0-4.5-3.6-8.1-8.1-8.1H12c-4.4 0-8 3.7-8 8.1v42.7z"/><path class="st0" d="M15.7 51.2H6.6c-.6 0-1-.4-1-1v-9.1c0-.6.4-1 1-1h9.1c.6 0 1 .4 1 1v9.1c0 .6-.5 1-1 1zm-8.1-2h7.1v-7.1H7.6v7.1zm19.9 5.7c-.6 0-1-.4-1-1V41.1c0-.6.4-1 1-1s1 .4 1 1v12.7c0 .6-.4 1.1-1 1.1z"/><path class="st0" d="M11.1 51.2c-.6 0-1-.4-1-1v-9.1c0-.6.4-1 1-1s1 .4 1 1v9.1c0 .6-.4 1-1 1zm37.3 0h-9.1c-.6 0-1-.4-1-1v-9.1c0-.6.4-1 1-1h9.1c.6 0 1 .4 1 1v9.1c0 .6-.4 1-1 1zm-8.1-2h7.1v-7.1h-7.1v7.1z"/><path class="st0" d="M43.9 51.2c-.6 0-1-.4-1-1v-9.1c0-.6.4-1 1-1s1 .4 1 1v9.1c0 .6-.5 1-1 1zm-14.6-1.8h-3.6c-.6 0-1-.4-1-1s.4-1 1-1h3.6c.6 0 1 .4 1 1s-.4 1-1 1zm19.1-20h-9.1c-.6 0-1-.4-1-1v-9.1c0-.6.4-1 1-1h9.1c.6 0 1 .4 1 1v9.1c0 .6-.4 1-1 1zm-8.1-2h7.1v-7.1h-7.1v7.1z"/><path class="st0" d="M43.9 29.4c-.6 0-1-.4-1-1v-9.1c0-.6.4-1 1-1s1 .4 1 1v9.1c0 .6-.5 1-1 1z"/><path class="st0" d="M49.3 29.4H38.4c-.6 0-1-.4-1-1s.4-1 1-1h10.9c.6 0 1 .4 1 1s-.4 1-1 1zm-17.3 0h-9c-.6 0-1-.4-1-1v-9.1c0-.6.4-1 1-1h9c.6 0 1 .4 1 1v9.1c0 .6-.4 1-1 1zm-8-2h7v-7.1h-7v7.1z"/><path class="st0" d="M27.5 29.4c-.6 0-1-.4-1-1v-9.1c0-.6.4-1 1-1s1 .4 1 1v9.1c0 .6-.4 1-1 1z"/><path class="st0" d="M33 29.4H22c-.6 0-1-.4-1-1s.4-1 1-1h11c.6 0 1 .4 1 1s-.5 1-1 1zm-17.3 0H6.6c-.6 0-1-.4-1-1v-9.1c0-.6.4-1 1-1h9.1c.6 0 1 .4 1 1v9.1c0 .6-.5 1-1 1zm-8.1-2h7.1v-7.1H7.6v7.1z"/><path class="st0" d="M11.1 29.4c-.6 0-1-.4-1-1v-9.1c0-.6.4-1 1-1s1 .4 1 1v9.1c0 .6-.4 1-1 1z"/><path class="st0" d="M16.6 29.4H5.7c-.6 0-1-.4-1-1s.4-1 1-1h10.9c.6 0 1 .4 1 1s-.5 1-1 1zm0 21.8H5.7c-.6 0-1-.4-1-1s.4-1 1-1h10.9c.6 0 1 .4 1 1s-.5 1-1 1zm32.7 0H38.4c-.6 0-1-.4-1-1s.4-1 1-1h10.9c.6 0 1 .4 1 1s-.4 1-1 1zM53.9 33H1.1c-.6 0-1-.4-1-1s.4-1 1-1h52.7c.6 0 1 .4 1 1s-.4 1-.9 1zm0-21.8H1.1c-.6 0-1-.4-1-1s.4-1 1-1h52.7c.6 0 1 .4 1 1s-.4 1-.9 1z"/></svg>