<svg id="Layer_1" xmlns="http://www.w3.org/2000/svg" width="24" height="31" viewBox="0 0 24 31"><style>.st0{fill:#ff754f}</style><path class="st0" d="M21.7 31H2.3C1.1 31 0 29.9 0 28.6V7c0-.5.4-.9.8-.9h22.3c.4 0 .8.4.8.9v21.5c.1 1.4-1 2.5-2.2 2.5zM1.7 7.9v20.7c0 .4.3.7.7.7h19.4c.4 0 .7-.3.7-.7V7.9H1.7z"/><path class="st0" d="M18.7 13.3H5.3c-.4 0-.8-.4-.8-.9s.4-.9.8-.9h13.4c.4 0 .8.4.8.9s-.4.9-.8.9zm0 4.6H5.3c-.4 0-.8-.4-.8-.9s.4-.9.8-.9h13.4c.4 0 .8.4.8.9s-.4.9-.8.9zm0 4.6H5.3c-.4 0-.8-.4-.8-.9s.4-.9.8-.9h13.4c.4 0 .8.4.8.9s-.4.9-.8.9zm4.5-14.6H.9C.4 7.9.1 7.5.1 7V2.4c0-.5.4-.9.8-.9h22.3c.4 0 .8.4.8.9V7c0 .5-.4.9-.8.9zM1.7 6.2h20.6V3.3H1.7v2.9z"/><path class="st0" d="M6.8 4.8c-.4 0-.8-.4-.8-.8V.9c0-.5.4-.9.8-.9s.8.4.8.9V4c0 .4-.4.8-.8.8zm10.4 0c-.4 0-.8-.4-.8-.9v-3c0-.5.4-.9.8-.9s.8.4.8.9V4c0 .4-.4.8-.8.8z"/></svg>