<svg id="Layer_1" xmlns="http://www.w3.org/2000/svg" width="18" height="15" viewBox="0 0 18 15"><style>.st0{fill:#ff754f}</style><path class="st0" d="M16.2 15H1.7c-.3 0-.5-.2-.5-.4s.2-.5.5-.5c.9 0 1-.8 1-.9V.4c0-.2.2-.4.4-.4h14.4c.3 0 .5.2.5.4v12.7c0 .8-.5 1.9-1.8 1.9zm-12.8-.9h12.8c.9 0 .9-.8.9-.9V.9H3.6v12.3c0 .3-.1.5-.2.9z"/><path class="st0" d="M1.9 15c-.8 0-1.9-.5-1.9-1.8v-10c0-.2.2-.4.4-.4h2.7c.3 0 .3.2.3.4s0 .4-.3.4H1v9.5c0 .4.1.6.4.8.2.1.5.1.5.1.3 0 .5.2.5.5-.1.3-.3.5-.5.5zm13.4-8.2c0 .2-.2.5-.5.5h-4.3c-.3 0-.5-.2-.5-.5V3.2c0-.2.2-.5.5-.5h4.3c.3 0 .5.2.5.5v3.6zM11 6.4h3.4V3.6H11v2.8zm3.8 2.5H5.9c-.1 0-.3-.1-.3-.2s.1-.2.3-.2h8.9c.1 0 .3.1.3.2-.1.1-.2.2-.3.2zm0 3.7H5.9c-.1 0-.3-.1-.3-.2s.1-.2.3-.2h8.9c.1 0 .3.1.3.2-.1.2-.2.2-.3.2zm0-1.8H5.9c-.1 0-.3-.1-.3-.2s.1-.2.3-.2h8.9c.1 0 .3.1.3.2-.1.1-.2.2-.3.2zM8.7 7H5.9c-.1 0-.2-.1-.2-.2s.1-.2.3-.2h2.8c.1-.1.2 0 .2.2 0 .1-.1.2-.3.2zm0-1.8H5.9c-.1 0-.2 0-.2-.2s.1-.2.3-.2h2.8c.1 0 .2.1.2.2s-.1.2-.3.2zm0-1.9H5.9c-.1 0-.3-.1-.3-.2s.1-.2.3-.2h2.8c.2 0 .3.1.3.2 0 .2-.1.2-.3.2z"/></svg>