<svg id="Layer_1" xmlns="http://www.w3.org/2000/svg" width="59" height="59" viewBox="0 0 59 59"><style>.st0{fill:#fff}.st1{fill:none}</style><path class="st0" d="M29.5 59c-.9 0-1.7-.6-1.8-1.5-.2-.9.4-2 1.5-2.2L55 50.1c.2 0 .4-.2.4-.4v-46L29.9 9c-.9.2-2-.4-2.2-1.5s.4-2 1.5-2.2L55 .1c1.1-.2 2 0 2.8.7.6.6 1.2 1.7 1.2 2.6v46.3c0 1.9-1.5 3.7-3.3 4.1L29.9 59h-.4z"/><path class="st1" d="M29.5 6.9V57"/><path class="st0" d="M29.5 58.8c-1.1 0-1.8-.7-1.8-1.9v-50c0-1.1.7-1.9 1.8-1.9s1.8.7 1.8 1.9v50c0 1-.7 1.9-1.8 1.9z"/><path class="st1" d="M49.8 39.9l-12.9 2.6"/><path class="st0" d="M36.9 44.4c-.9 0-1.7-.6-1.8-1.5-.2-.9.4-2 1.5-2.2l12.9-2.6c.9-.2 2 .4 2.2 1.5s-.4 2-1.5 2.2l-12.9 2.6h-.4z"/><path class="st1" d="M36.9 30.5l12.9-2.6"/><path class="st0" d="M36.9 32.3c-.9 0-1.7-.6-1.8-1.5-.2-.9.4-2 1.5-2.2L49.4 26c.9-.2 2 .4 2.2 1.5.2.9-.4 2-1.5 2.2l-12.9 2.6h-.3z"/><path class="st1" d="M49.8 15.8l-12.9 2.6"/><path class="st0" d="M36.9 20.3c-.9 0-1.7-.6-1.8-1.5-.2-.9.4-2 1.5-2.2L49.4 14c.9-.2 2 .4 2.2 1.5.2.9-.4 2-1.5 2.2l-12.9 2.6h-.3z"/><path class="st1" d="M36.9 42.5l12.9-2.6"/><path class="st0" d="M36.9 44.4c-.9 0-1.7-.6-1.8-1.5-.2-.9.4-2 1.5-2.2l12.9-2.6c.9-.2 2 .4 2.2 1.5s-.4 2-1.5 2.2l-12.9 2.6h-.4z"/><path class="st1" d="M49.8 27.9l-12.9 2.6"/><path class="st0" d="M36.9 32.3c-.9 0-1.7-.6-1.8-1.5-.2-.9.4-2 1.5-2.2L49.4 26c.9-.2 2 .4 2.2 1.5.2.9-.4 2-1.5 2.2l-12.9 2.6h-.3zM29.5 59h-.4L3.3 53.8C1.5 53.4 0 51.6 0 49.7V3.4c0-1.1.4-2 1.3-2.6C2 .3 3.1-.1 4.1.1l25.8 5.2c.9.2 1.7 1.1 1.5 2.2-.2.9-1.1 1.7-2.2 1.5L3.7 3.8v46c0 .2.2.4.4.4l25.8 5.2c.9.2 1.7 1.1 1.5 2.2-.2.8-1 1.4-1.9 1.4z"/><path class="st1" d="M9.2 39.9l12.9 2.6"/><path class="st0" d="M22.1 44.4h-.4L8.9 41.8c-.9-.2-1.7-1.1-1.5-2.2.2-1.1 1.1-1.7 2.2-1.5l12.9 2.6c.9.2 1.7 1.1 1.5 2.2-.2.7-1 1.5-1.9 1.5z"/><path class="st1" d="M22.1 30.5L9.2 27.9"/><path class="st0" d="M22.1 32.3h-.4L8.9 29.7c-.9-.2-1.7-1.1-1.5-2.2.2-.9 1.1-1.7 2.2-1.5l12.9 2.6c.9.2 1.7 1.1 1.5 2.2-.2.8-1 1.5-1.9 1.5z"/><path class="st1" d="M9.2 15.8l12.9 2.6"/><path class="st0" d="M22.1 20.3h-.4L8.9 17.7c-.9-.2-1.7-1.1-1.5-2.2.2-.9 1.1-1.7 2.2-1.5l12.9 2.6c.9.2 1.7 1.1 1.5 2.2-.2.7-1 1.5-1.9 1.5z"/><path class="st1" d="M22.1 42.5L9.2 39.9"/><path class="st0" d="M22.1 44.4h-.4L8.9 41.8c-.9-.2-1.7-1.1-1.5-2.2.2-1.1 1.1-1.7 2.2-1.5l12.9 2.6c.9.2 1.7 1.1 1.5 2.2-.2.7-1 1.5-1.9 1.5z"/><path class="st1" d="M9.2 27.9l12.9 2.6"/><path class="st0" d="M22.1 32.3h-.4L8.9 29.7c-.9-.2-1.7-1.1-1.5-2.2.2-.9 1.1-1.7 2.2-1.5l12.9 2.6c.9.2 1.7 1.1 1.5 2.2-.2.8-1 1.5-1.9 1.5z"/></svg>