<svg id="Layer_1" xmlns="http://www.w3.org/2000/svg" width="55" height="50" viewBox="0 0 55 50"><style>.st0{fill:#ff754f}</style><path class="st0" d="M48.1 50H6.9C3.1 50 0 46.9 0 43.1V14.4c0-3.8 3.1-6.9 6.9-6.9H48c3.8 0 6.9 3.1 6.9 6.9v28.7c.1 3.8-3 6.9-6.8 6.9zM6.9 9.4c-2.7 0-4.9 2.2-4.9 5v28.7C2 45.8 4.2 48 6.9 48H48c2.7 0 4.9-2.2 4.9-4.9V14.4c0-2.7-2.2-4.9-4.9-4.9H6.9z"/><path class="st0" d="M54 29.7H1c-.6 0-1-.4-1-1s.4-1 1-1h53c.6 0 1 .4 1 1s-.5 1-1 1z"/><path class="st0" d="M28.9 33.5h-2.8c-1.8 0-3.3-1.5-3.3-3.3v-1.5c0-.6.4-1 1-1h7.5c.6 0 1 .4 1 1v1.5c-.1 1.8-1.6 3.3-3.4 3.3zm-4.2-3.8v.5c0 .7.6 1.3 1.3 1.3h2.8c.7 0 1.3-.6 1.3-1.3v-.5h-5.4zM18.5 7.4h-6.2c-.6 0-1-.4-1-1s.4-1 1-1h5.3c.5-3 3.1-5.4 6.3-5.4h3.6c.6 0 1 .4 1 1s-.4 1-1 1h-3.6c-2.4 0-4.4 2-4.4 4.4 0 .6-.4 1-1 1z"/><path class="st0" d="M42.7 7.4h-6.2c-.6 0-1-.4-1-1C35.4 4 33.4 2 31 2h-3.6c-.6 0-1-.4-1-1s.4-1 1-1H31c3.2 0 5.8 2.3 6.3 5.4h5.3c.6 0 1 .4 1 1s-.3 1-.9 1zM27.5 46.3c-.6 0-1-.4-1-1V4.7c0-.6.4-1 1-1s1 .4 1 1v40.6c0 .6-.5 1-1 1z"/><path class="st0" d="M27.5 46.3c-.6 0-1-.4-1-1V4.7c0-.6.4-1 1-1s1 .4 1 1v40.6c0 .6-.5 1-1 1z"/></svg>