<svg id="Layer_1" xmlns="http://www.w3.org/2000/svg" width="32" height="32" viewBox="0 0 32 32"><style>.st0{fill:#ff754f}</style><path class="st0" d="M16 31.9C7.2 31.9.1 24.8.1 16S7.2.1 16 .1 31.9 7.2 31.9 16 24.8 31.9 16 31.9zm0-29.8C8.3 2.1 2.1 8.3 2.1 16S8.3 29.9 16 29.9 29.9 23.7 29.9 16 23.7 2.1 16 2.1z"/><path class="st0" d="M16 28.9C8.9 28.9 3.1 23.1 3.1 16S8.9 3.1 16 3.1 28.9 8.9 28.9 16 23.1 28.9 16 28.9zm0-23.8C10 5.1 5.1 10 5.1 16S10 26.9 16 26.9 26.9 22 26.9 16 22 5.1 16 5.1z"/><path class="st0" d="M16 14.8c-.6 0-1-.4-1-1V8.1c0-.6.4-1 1-1s1 .4 1 1v5.7c0 .5-.5 1-1 1zm4.7 6.9c-.3 0-.5-.1-.7-.3l-3.3-3.3c-.4-.4-.4-1 0-1.4s1-.4 1.4 0l3.3 3.3c.4.4.4 1 0 1.4-.1.2-.4.3-.7.3z"/><path class="st0" d="M16 18.5c-1.4 0-2.5-1.1-2.5-2.5s1.1-2.5 2.5-2.5 2.5 1.1 2.5 2.5-1.1 2.5-2.5 2.5zm0-3c-.3 0-.5.2-.5.5s.2.5.5.5.5-.2.5-.5-.2-.5-.5-.5z"/></svg>