<svg xmlns="http://www.w3.org/2000/svg" viewBox="0 0 215.4 59.5" width="168" height="47"><linearGradient id="a" gradientUnits="userSpaceOnUse" x1="30.661" y1="57.856" x2="30.661" y2="1.917"><stop offset="0" stop-color="#ff4a32"/><stop offset="1" stop-color="#ff7750"/></linearGradient><path fill="url(#a)" d="M45 45.9c-1-.9-2.4-.9-3.4-.1-1.3 1-3.6 2.1-6.9 2.1-6.2 0-10.2-4.4-11.2-12H52c2.3 0 4.4-1.6 4.9-3.9.1-.5 2.8-13.4-8.4-23.5C42.4 3 32.3 2 25.3 2v10c6.1 0 13.2.9 16.5 3.9 3.8 3.4 5 7.3 5.4 10H23.3V14h-10v11.9h-4c-2.6 0-4.9 1.9-5.2 4.5-.3 3 2.1 5.5 5 5.5h4.4c1.4 15.2 11.3 22 21.2 22 6.3 0 10.9-2.3 13.9-4.8 1.2-1 1.2-2.9 0-4L45 45.9z"/><path d="M73.5 33.2c.4 3.7 2 4.5 5.5 4.5 2 0 4.9-.2 7.4-.5l.5 3.3c-2.2 1-5.9 1.4-8.5 1.4-7.5 0-10.3-3-10.3-10.8 0-8.1 3-10.8 9.9-10.8 6.7 0 9.4 2.5 9.4 7.1 0 3.7-1.7 5.9-5.5 5.9h-8.4zm6.9-3.5c1.6 0 1.8-1.3 1.8-2.4 0-2.2-.9-3-4.1-3-3.5 0-4.7 1.1-4.8 5.4h7.1zm15.2-5.8c2.9-2.2 5.9-3.6 8.9-3.6 3.6 0 5.7 2 5.7 5.7v15.4H105V27.5c0-2.3-.5-2.9-2.2-2.9-2.1 0-3.9.9-6.8 2.5v14.3h-5V20.8h4.3l.3 3.1zm23.6 9.3c.4 3.7 2 4.5 5.5 4.5 2 0 4.9-.2 7.4-.5l.5 3.3c-2.2 1-5.9 1.4-8.5 1.4-7.5 0-10.3-3-10.3-10.8 0-8.1 3-10.8 9.9-10.8 6.7 0 9.4 2.5 9.4 7.1 0 3.7-1.7 5.9-5.5 5.9h-8.4zm7-3.5c1.6 0 1.8-1.3 1.8-2.4 0-2.2-.9-3-4.1-3-3.5 0-4.7 1.1-4.8 5.4h7.1zm15.3 5.3c0 1.8.6 2.4 2.5 2.4h2.8l.5 3.8c-1.4.5-4 .7-5.3.7-3.6 0-5.6-2.2-5.6-6V15h5.1v5.9h6v3.7h-6V35zm13.5-1.8c.4 3.7 2 4.5 5.5 4.5 2 0 4.9-.2 7.4-.5l.5 3.3c-2.2 1-5.9 1.4-8.5 1.4-7.5 0-10.3-3-10.3-10.8 0-8.1 3-10.8 9.9-10.8 6.7 0 9.4 2.5 9.4 7.1 0 3.7-1.7 5.9-5.5 5.9H155zm6.9-3.5c1.6 0 1.8-1.3 1.8-2.4 0-2.2-.9-3-4.1-3-3.5 0-4.7 1.1-4.8 5.4h7.1zm27.2 10.9c-2.1.9-4.9 1.3-7.5 1.3-7.3 0-10-2.9-10-10.8s2.7-10.8 10.1-10.8c2 0 5 .3 7.2 1.2l-.6 3.2c-2.1-.1-4.2-.1-5.7-.1-4.2 0-5.6 1.4-5.6 6.5 0 5.2 1.4 6.6 5.6 6.6 1.3 0 3.9-.1 6.2-.4l.3 3.3zm8.4-21c0 1.5-.1 3-.3 4.2 2.9-2.2 5.8-3.5 8.7-3.5 3.6 0 5.7 2 5.7 5.7v15.4h-5.1V27.5c0-2.3-.5-2.9-2.2-2.9-2 0-3.9.9-6.8 2.5v14.3h-5.1V12h5.2v7.6z"/></svg>