<svg id="Layer_1" xmlns="http://www.w3.org/2000/svg" width="56" height="17" viewBox="0 0 56 17"><style>.st0{fill:#3461a1}.st1{fill:#fca03b}</style><path class="st0" d="M19.7 16.7L22.6.3h4.5l-2.8 16.4zm21-16c-.9-.4-2.3-.7-4-.7C32.2 0 29 2.2 29 5.4c0 2.4 2.3 3.7 4 4.5 1.8.8 2.4 1.3 2.4 2 0 1.1-1.4 1.6-2.7 1.6-1.8 0-2.8-.3-4.3-.8l-.6-.3-.6 3.7c1.1.5 3 .9 5.1.9 4.8 0 7.9-2.2 7.9-5.6 0-1.9-1.2-3.3-3.8-4.5-1.6-.8-2.5-1.3-2.5-2s.8-1.4 2.6-1.4c1.5 0 2.5.3 3.4.6l.4.2.4-3.6M52.4.3h-3.5c-1.1 0-1.9.3-2.4 1.4l-6.7 15h4.7l1-2.5h5.8c.1.6.5 2.5.5 2.5H56L52.4.3m-5.6 10.6c.4-.9 1.8-4.6 1.8-4.6s.4-.9.6-1.6l.3 1.4s.9 3.9 1.1 4.8h-3.8zM15.9.3l-4.4 11.2-.5-2.3c-.8-2.6-3.4-5.5-6.3-6.9l4 14.4h4.8L20.6.3h-4.7"/><path class="st1" d="M7.4.3H.1L0 .6C5.7 2 9.5 5.3 11 9.2L9.4 1.7C9.1.6 8.4.3 7.4.3"/></svg>