<svg id="Layer_1" xmlns="http://www.w3.org/2000/svg" width="80" height="20" viewBox="0 0 80 20"><style>.st0{fill:#009bde}.st1{fill:#002f87}.st2{fill:#022169}</style><path class="st0" d="M61.6 4.5h-4.4c-.3 0-.6.2-.6.5l-1.8 11.6c0 .2.1.4.4.4h2.3c.2 0 .4-.2.4-.4l.5-3.3c0-.3.3-.5.6-.5h1.4c2.9 0 4.6-1.4 5-4.3.2-1.2 0-2.2-.6-2.9-.6-.7-1.7-1.1-3.2-1.1zm.5 4.2c-.2 1.6-1.4 1.6-2.6 1.6h-.7l.5-3c0-.2.2-.3.4-.3h.3c.8 0 1.5 0 1.9.5.2.2.3.6.2 1.2z"/><path class="st1" d="M30.2 4.5h-4.4c-.3 0-.6.2-.6.5l-1.8 11.6c0 .2.1.4.4.4h2.1c.3 0 .6-.2.6-.5l.5-3.1c0-.3.3-.5.6-.5H29c2.9 0 4.6-1.4 5-4.3.2-1.2 0-2.2-.6-2.9-.6-.8-1.7-1.2-3.2-1.2zm.5 4.2c-.2 1.6-1.4 1.6-2.6 1.6h-.7l.5-3c.1-.2.2-.3.4-.3h.3c.8 0 1.5 0 1.9.5.3.2.3.6.2 1.2zm12.7 0h-2.1c-.2 0-.3.1-.4.3l-.1.6-.1-.2c-.5-.7-1.5-.9-2.5-.9-2.3 0-4.3 1.8-4.7 4.4-.2 1.3.1 2.5.8 3.3.7.8 1.6 1.1 2.6 1.1 1.9 0 2.9-1.2 2.9-1.2l-.1.6c0 .2.1.4.4.4H42c.3 0 .6-.2.6-.5l1.1-7.4c.1-.3-.1-.5-.3-.5zm-3 4.2c-.2 1.2-1.2 2.1-2.4 2.1-.6 0-1.1-.2-1.4-.6-.3-.4-.4-.9-.3-1.5.2-1.2 1.2-2.1 2.4-2.1.6 0 1.1.2 1.4.6.3.3.4.9.3 1.5z"/><path class="st0" d="M74.8 8.7h-2.1c-.2 0-.3.1-.4.3l-.1.6-.2-.2c-.5-.7-1.5-.9-2.5-.9-2.3 0-4.3 1.8-4.7 4.4-.2 1.3.1 2.5.8 3.3.7.8 1.6 1.1 2.6 1.1 1.9 0 2.9-1.2 2.9-1.2l-.1.6c0 .2.1.4.4.4h1.9c.3 0 .6-.2.6-.5L75 9.2c.2-.3 0-.5-.2-.5zm-3 4.2c-.2 1.2-1.2 2.1-2.4 2.1-.6 0-1.1-.2-1.4-.6-.3-.4-.4-.9-.3-1.5.2-1.2 1.2-2.1 2.4-2.1.6 0 1.1.2 1.4.6.3.3.4.9.3 1.5z"/><path class="st1" d="M54.6 8.7h-2.1c-.2 0-.4.1-.5.3l-2.9 4.4-1.2-4.3c-.1-.3-.3-.4-.6-.4h-2.1c-.3 0-.4.3-.4.5l2.3 7.1-2.2 3.2c-.2.2 0 .6.3.6h2.1c.2 0 .4-.1.5-.3l7-10.5c.3-.3.1-.6-.2-.6z"/><path class="st0" d="M77.2 4.8l-1.8 11.8c0 .2.1.4.4.4h1.8c.3 0 .6-.2.6-.5L80 4.9c0-.2-.1-.4-.4-.4h-2c-.2 0-.3.1-.4.3zm-62.4.3c.2-1.5 0-2.6-.8-3.6C13.1.4 11.5 0 9.4 0h-6c-.4 0-.8.3-.9.8L0 17.2c-.1.3.2.6.5.6h3.7L4 19.5c0 .3.2.5.5.5h3.1c.4 0 .7-.3.8-.7v-.2l.6-3.8v-.2c.1-.4.4-.7.8-.7h.5c3 0 5.4-1.3 6.1-5 .3-1.5.1-2.8-.6-3.7-.3-.2-.6-.4-1-.6"/><path class="st2" d="M14.8 5.1c.2-1.5 0-2.6-.8-3.6C13.1.4 11.5 0 9.4 0h-6c-.4 0-.8.3-.9.8L0 17.2c-.1.3.2.6.5.6h3.7l.9-6.1v.2c.1-.4.4-.8.8-.8h1.8c3.5 0 6.2-1.4 7-5.7.1-.1.1-.2.1-.3"/><path class="st1" d="M6.2 5.1c0-.3.2-.5.4-.6.1 0 .2-.1.3-.1h4.7c.6 0 1.1 0 1.6.1.1 0 .3 0 .4.1s.3.1.4.1c.1 0 .1 0 .2.1.2.1.5.2.7.3.2-1.5 0-2.6-.8-3.6C13.1.4 11.5 0 9.4 0h-6c-.4 0-.8.3-.9.8L0 17.2c-.1.3.2.6.5.6h3.7l.9-6.1 1.1-6.6z"/></svg>