<svg id="Layer_1" xmlns="http://www.w3.org/2000/svg" width="45" height="27" viewBox="0 0 45 27"><style>.st0{fill:#feab45}.st1{fill:#f24a47}.st2{fill:#fff}</style><path class="st0" d="M22.5 23.5c2.4 2.2 5.5 3.5 9 3.5C39 27 45 20.9 45 13.5 45 6 39 0 31.5 0c-3.5 0-6.6 1.3-9 3.5-2.7 2.5-4.4 6.1-4.4 10 0 3.9 1.7 7.5 4.4 10z"/><path class="st1" d="M26.8 12c-.1-.5-.1-1-.2-1.4h-8.2c.1-.5.2-1 .4-1.4h7.5c-.2-.5-.4-1-.6-1.4h-6.3c.2-.5.5-1 .8-1.4H25c-.3-.5-.6-1-1-1.4h-2.7c.4-.5.9-1 1.4-1.4-2.4-2.2-5.5-3.5-9-3.5C6 0 0 6.1 0 13.5 0 21 6 27 13.5 27c3.5 0 6.6-1.3 9-3.5l1.4-1.4h-2.7c-.4-.5-.7-.9-1-1.4H25c.3-.5.5-.9.8-1.4h-6.3c-.2-.5-.4-.9-.6-1.4h7.5c.2-.5.3-.9.4-1.4.1-.5.2-.9.2-1.4s.1-.9.1-1.4c-.2-.7-.2-1.2-.3-1.7z"/><path class="st2" d="M43.2 16.6c0-.2.2-.5.4-.5s.4.2.4.5c0 .2-.2.5-.4.5-.2-.1-.4-.3-.4-.5zm.4.3c.2 0 .3-.2.3-.3 0-.2-.2-.3-.3-.3-.2 0-.3.2-.3.3s.1.3.3.3zm-.1-.1l-.1-.4h.3l.1.1s0 .1-.1.1l.1.2h-.1l-.1-.2h-.1v.2-.2h.1v.1l-.1.1z"/><path d="M17.9 17.4c-.5.1-.8.2-1.1.2-.7 0-1.1-.4-1.1-1.2v-.5l.1-.5.1-.5.6-3.8H18l-.2.8h.9l-.2 1.4h-.9l-.4 2.3v.2c0 .3.2.4.5.4.2 0 .3 0 .5-.1l-.3 1.3zm4.6-.1c-.5.2-1 .2-1.5.2-1.5 0-2.5-.9-2.5-2.5 0-1.9 1.1-3.3 2.5-3.3 1.2 0 2 .8 2 2 0 .4-.1.8-.2 1.4h-2.9v.2c0 .6.4 1 1.3 1 .5 0 1-.1 1.5-.4l-.2 1.4zm-.9-3.3v-.3c0-.5-.3-.7-.7-.7-.5 0-.8.4-.9 1h1.6zM6.8 17.4H5.4l.8-5.2-1.9 5.2h-1l-.1-5.2-.9 5.2H.9L2 10.6h2.1l.1 4.2 1.4-4.2h2.3zm3.5-2.4H10c-.8 0-1.3.3-1.3.8 0 .4.2.6.5.6.8-.1 1.1-.6 1.1-1.4zm1.2 2.4h-1.3v-.6c-.3.4-.7.7-1.5.7-.7 0-1.3-.6-1.3-1.5 0-.3.1-.5.1-.7.2-.9 1.1-1.4 2.4-1.4h.6c0-.2.1-.3.1-.4 0-.4-.3-.5-1-.5-.4 0-.9.1-1.2.2l-.2.1h-.1l.2-1.3c.7-.2 1.2-.3 1.7-.3 1.3 0 1.9.6 1.9 1.6 0 .3 0 .5-.1 1.1l-.3 2-.1.4v.5l.1.1zm18-5.5c.4 0 .8.1 1.3.4l.2-1.5c-.1-.1-.2-.1-.4-.1l-.6-.2c-.2 0-.4-.1-.6-.1-.7 0-1.2 0-1.6.3-.2.1-.5.4-.9.7l-.2-.1-1.5 1.1.1-.6h-1.5l-.9 5.6h1.5l.5-3s.2-.4.3-.5c.3-.4.5-.4.8-.4h.1c0 .3-.1.7-.1 1.1 0 1.8 1 3 2.6 3 .4 0 .7-.1 1.3-.2l.3-1.5c-.5.2-.9.4-1.2.4-.8 0-1.4-.6-1.4-1.7 0-1.6.8-2.7 1.9-2.7zm12.3-1.3l-.3 2c-.4-.5-.8-.8-1.3-.8-.8 0-1.5.5-1.9 1.3l-.9-.5.1-.6H36l-.9 5.6h1.5l.5-3 .5-.5c.2-.3.5-.3.6-.4-.2.5-.3 1-.3 1.6 0 1.4.7 2.3 1.8 2.3.5 0 .9-.2 1.4-.6l-.1.5h1.4l1.1-6.9h-1.7zM40 16.1c-.5 0-.7-.4-.7-1.1 0-1.1.5-1.9 1.1-1.9.5 0 .8.4.8 1.1 0 1.2-.5 1.9-1.2 1.9zM33.3 15H33c-.8 0-1.3.3-1.3.8 0 .4.2.6.5.6.8-.1 1.1-.6 1.1-1.4zm1.2 2.4h-1.3v-.6c-.3.4-.7.7-1.5.7-.7 0-1.4-.6-1.4-1.5 0-1.3 1-2.1 2.6-2.1h.6c0-.2.1-.3.1-.4 0-.4-.3-.5-1-.5-.4 0-.9.1-1.2.2l-.2.1h-.1l.2-1.3c.7-.2 1.2-.3 1.7-.3 1.3 0 1.9.6 1.9 1.6 0 .3 0 .5-.1 1.1l-.3 2-.1.4v.3l.1.3zm-20-4.3c.3 0 .7 0 1.1.1l.2-1.3c-.4-.1-1-.1-1.3-.1-1.6 0-2.2.9-2.2 1.9 0 .7.3 1.2 1.1 1.5.6.3.7.3.7.6 0 .4-.3.5-.9.5-.4 0-.8-.1-1.3-.2l-.2 1.3.3.1c.1 0 .2 0 .4.1.4 0 .6.1.8.1 1.6 0 2.3-.6 2.3-1.9 0-.8-.4-1.2-1.1-1.5-.6-.3-.7-.3-.7-.6.1-.4.4-.6.8-.6z"/><path class="st2" d="M31.4 10.4l-.2 1.5c-.5-.3-.9-.4-1.3-.4-1.1 0-1.8 1.1-1.8 2.6 0 1 .5 1.7 1.4 1.7.4 0 .7-.1 1.2-.4l-.3 1.5c-.5.2-.9.2-1.3.2-1.6 0-2.5-1.1-2.5-3 0-2.4 1.4-4.2 3.3-4.2.3 0 .5 0 .6.1l.6.2c.1.1.2.1.3.2zm-4.7 1h-.2c-.5 0-.7.3-1.2.9l.1-.8h-1.3l-.8 5.5h1.5c.5-3.4.6-4 1.4-4h.1c0-.6.2-1.1.4-1.6zm-8.4 5.5c-.4.1-.7.2-1 .2-.7 0-1.2-.4-1.2-1.2v-.5l.1-.5.1-.5.6-3.8h1.5l-.2.8h.8l-.2 1.4h-.7l-.4 2.3v.2c0 .3.2.4.5.4.2 0 .3 0 .4-.1l-.3 1.3z"/><path class="st2" d="M12.7 13.2c0 .7.4 1.2 1.1 1.5.6.3.7.4.7.6 0 .4-.3.5-.8.5-.4 0-.8-.1-1.3-.2l-.2 1.3h.1l.3.1c.1 0 .2 0 .4.1h.8c1.5 0 2.3-.6 2.3-1.9 0-.8-.3-1.2-1-1.5-.6-.3-.7-.4-.7-.6 0-.3.3-.5.7-.5.3 0 .7 0 1 .1l.2-1.3c-.4-.1-.9-.1-1.3-.1-1.7 0-2.3.9-2.3 1.9zM42.5 17h-1.4l.1-.5c-.4.4-.8.6-1.4.6-1.1 0-1.8-.9-1.8-2.3 0-1.9 1.1-3.4 2.4-3.4.6 0 1 .2 1.4.8l.3-2h1.5L42.5 17zm-2.1-1.3c.7 0 1.2-.8 1.2-1.9 0-.7-.3-1.1-.8-1.1-.7 0-1.1.8-1.1 1.9-.1.7.2 1.1.7 1.1zm-17.6 1.2c-.5.2-1 .2-1.5.2-1.6 0-2.5-.9-2.5-2.5 0-1.9 1.1-3.3 2.5-3.3 1.2 0 2 .8 2 2 0 .4-.1.8-.2 1.4h-2.9v.2c0 .6.4 1 1.3 1 .5 0 1-.1 1.5-.4l-.2 1.4zm-.9-3.3v-.3c0-.5-.3-.7-.7-.7-.5 0-.8.4-.9 1h1.6zM7.2 17H5.7l.8-5.3L4.7 17h-1l-.2-5.2-.8 5.2H1.3l1.2-6.8h2l.1 4.2L6 10.2h2.3zm3.6-2.5h-.3c-.8 0-1.3.3-1.3.8 0 .4.2.6.5.6.6 0 1-.5 1.1-1.4zm1 2.5h-1.2v-.6c-.4.5-.9.7-1.5.7-.8 0-1.3-.6-1.3-1.5 0-1.4.9-2.2 2.5-2.2h.6c0-.2.1-.3.1-.4 0-.4-.3-.5-.9-.5-.4 0-.9.1-1.2.2l-.2.1h-.1l.2-1.3c.7-.2 1.2-.3 1.7-.3 1.3 0 1.9.6 1.9 1.6 0 .3 0 .5-.1 1.1L12 16l-.1.4v.6h-.1zm21.9-2.5h-.3c-.8 0-1.3.3-1.3.8 0 .4.2.6.5.6.7 0 1.1-.5 1.1-1.4zm1.1 2.5h-1.2v-.6c-.4.5-.9.7-1.5.7-.8 0-1.3-.6-1.3-1.5 0-1.4.9-2.2 2.5-2.2h.6c0-.2.1-.3.1-.4 0-.4-.3-.5-.9-.5-.4 0-.9.1-1.2.2l-.2.1h-.1l.2-1.3c.7-.2 1.2-.3 1.7-.3 1.3 0 1.9.6 1.9 1.6 0 .3 0 .5-.1 1.1l-.3 2-.1.4v.5l-.1.2z"/><path class="st2" d="M38.7 11.4h-.2c-.5 0-.7.3-1.2.9l.1-.8h-1.3l-.8 5.5h1.5c.5-3.4.6-4 1.4-4h.1c0-.6.2-1.1.4-1.6z"/></svg>