<svg xmlns="http://www.w3.org/2000/svg" width="80" height="80" viewBox="0 0 40 40"><path d="M20 0c11.046 0 20 8.954 20 20s-8.954 20-20 20S0 31.046 0 20 8.954 0 20 0z" fill="#E5E5E5"/><path d="M31.199 30.871a.707.707 0 0 1-.995-.177c-2.331-3.373-6.141-5.386-10.19-5.386-4.051 0-7.86 2.014-10.192 5.387a.71.71 0 0 1-.995.176.732.732 0 0 1-.173-1.01c2.599-3.76 6.845-6.004 11.36-6.004 4.513 0 8.76 2.244 11.359 6.003a.735.735 0 0 1-.174 1.011zm-11.185-9.029c-3.887 0-7.05-3.214-7.05-7.164 0-3.95 3.163-7.164 7.05-7.164s7.049 3.214 7.049 7.164c0 3.95-3.162 7.164-7.049 7.164zm0-12.877c-3.1 0-5.622 2.563-5.622 5.713s2.522 5.713 5.622 5.713c3.099 0 5.621-2.563 5.621-5.713s-2.522-5.713-5.621-5.713z" fill="#919191"/></svg>