<?xml version="1.0" encoding="utf-8"?>
<!-- Generator: Adobe Illustrator 19.2.1, SVG Export Plug-In . SVG Version: 6.00 Build 0)  -->
<svg version="1.1" id="object" xmlns="http://www.w3.org/2000/svg" xmlns:xlink="http://www.w3.org/1999/xlink" x="0px" y="0px"
	 width="175px" height="400px" viewBox="0 0 175 400" style="enable-background:new 0 0 175 400;" xml:space="preserve">
<style type="text/css">
	.st0{fill:#BABABA;}
	.st1{fill:#FFB696;}
	.st2{fill:#322435;}
	.st3{fill:#F2E8DF;}
	.st4{fill:#D3D2CB;}
	.st5{fill:#4FAF4F;}
	.st6{fill:#EBDDCA;}
	.st7{opacity:0.49;fill:#E3CDB8;}
	.st8{fill:#3B2E37;}
	.st9{fill:#4D5E72;}
	.st10{fill:#E3CDB8;}
	.st11{fill:#F2F0EB;}
	.st12{fill:#DB8873;}
	.st13{fill:#FF9983;}
	.st14{fill:#66403F;}
	.st15{fill:#EB907B;}
	.st16{fill:#704848;}
	.st17{fill:#472931;}
	.st18{fill:#5B3938;}
</style>
<g id="XMLID_6_">
	<g>
		<ellipse class="st0" cx="86.3" cy="379.8" rx="86.3" ry="14.4"/>
	</g>
	<g>
	</g>
</g>
<g>
	<path class="st1" d="M155.4,73.1c0,0,1-10.6-11-21.1c-5.2-7.3,7.7-1.3,9.6,4.2c1.9,5.5,1.9,5.5,1.9,5.5s2.2-16.4,5.8-11.6
		s3,7.5,3,7.5s1.7-4.6,2.9-1.6c1.2,2.9,1.7,7.3,1.7,7.3s1.7-4.6,2.5-1.6c0.8,3-1.2,5.4-1.2,5.4s3.3-1.7,3.1,0.5
		c-0.2,2.2-8.7,8.4-8.7,8.4L155.4,73.1z"/>
	<path class="st2" d="M124.3,197.1c0,0,21.5,108.2-3.4,175c0.3,2.9,0.3,2.9,0.3,2.9s16.7,3.5,18.8,6.7c0.3,2.9-22.6-4-22.6-4l-2-2.7
		c-1.7,0.8,16.6-100.3-20.9-145.9c0,0-38.4,14.3-45.1,147.4c-0.6,0.1-17.2,5.6-21.5,3.2c-3.5-0.1-2.9-2.7,14-5.6
		c0.2-8.8,4.9-131.1,9.4-173.6C68.7,198.7,124.3,197.1,124.3,197.1z"/>
	<path class="st3" d="M68.6,97.3c0,0,37.6,18.7,57.4,105.2c-4,1-37.6,24.4-74.8-1.9c-0.3-24.5-9.3-77.3-10.9-83.7
		c0.1,0.9,0.2-14.9,0.2-14.9l8-2.9L68.6,97.3z"/>
	<path class="st3" d="M68.6,97.3c0,0,37,17.5,57.6,13.9c17.4-12.8,28.9-40.7,28.9-40.7l9.8,5.5c0,0-14.5,35.7-26,47
		c-7.1,3.4-32.3,4.8-50.4-5.1C75.4,110.5,67.4,102.2,68.6,97.3z"/>
	<path class="st3" d="M50,101.9c0,0-9.9-13-19.8-4.7c-8.6,9.7-9.7,26.6-9.7,26.6l19.4,3.8L50,101.9z"/>
	<path class="st3" d="M14.9,145.4c0,0-11.7,13.5-9.2,19.8c2.4,6.3,12.2-0.9,12.2-0.9S17.4,148.2,14.9,145.4z"/>
	<path class="st4" d="M156.5,94.6l-2.8-20.8l10.3,4.3C162.6,81.4,159.9,87.7,156.5,94.6z"/>
	<g id="XMLID_3_">
		<g>
			<polygon class="st5" points="152.2,68.2 150.3,74.5 165.3,84.3 167.5,75.7 			"/>
		</g>
		<g>
		</g>
	</g>
	<path class="st4" d="M51.7,128.9c0,0-10,89.5,58.6,80.4c-14.1,4.8-35.9,7.7-59.1-8.7c-0.1-10.2-1.8-25.4-3.8-40.1L51.7,128.9z"/>
	<path class="st6" d="M7,118.6l56.9,4.8l2.4,67.5l-44.1-4C22.2,187,11.1,128.2,7,118.6z"/>
	<path class="st7" d="M48.5,189.4L22.2,187c0,0-3.3-17.3-6.9-34.7l11.6-2.9L48.5,189.4z"/>
	<path class="st1" d="M13.3,151.7c0,0,13.8-5.9,16.8-2.7c-1,2.7-11.3,5.1-11.3,5.1s11.6-2.1,11.4,0.5c-0.2,2.6-10.5,3.8-10.5,3.8
		s12.4,1.3,11.3,3.2c-1.1,1.9-11.2,1.2-11.2,1.2s6.3,1.9,7.5,4.4c1.1,2.5-5.6,0.6-5.6,0.6s-5.3,3.2-8-0.9
		C11,162.9,13.3,151.7,13.3,151.7z"/>
	<path class="st8" d="M124.8,206.5c0,0-15,8.8-11.9,33.2s16.3,71.3,10,122c1.3-3.1,12.3-30.4,9.8-94.3
		C128.6,218.6,124.8,206.5,124.8,206.5z"/>
	<path class="st8" d="M51.4,204.4c0,0,22.1,11.3,26.3,10.8c2.1,4.6-31.7,68.8-33.4,92.6C45.6,282,47.3,216.9,51.4,204.4z"/>
	<polyline class="st4" points="69.2,108.9 107.3,204 116.1,205.3 117.3,196.5 71.6,109.8 	"/>
	<path class="st9" d="M72.5,103c0,0,4.8,7.8,3.6,9.2c-1.2,1.4-11.4-0.5-13.5-3.4C60.5,106,72.5,103,72.5,103z"/>
	<g id="XMLID_2_">
		<g>
			<path class="st5" d="M74.2,109.9l-2.6-0.1c0,0,27.2,57.7,35.8,89.4c1.3,1,11.8,5.1,11.8,5.1l2.3-10.1
				C121.5,194.2,104.8,150.9,74.2,109.9z"/>
		</g>
		<g>
		</g>
	</g>
	<path class="st10" d="M72.5,103l6.3,7.6l-7.9-4.4L64,117.9c0,0-10.8-13.6-10.2-13.1C54.4,105.2,69,105,69,105L72.5,103z"/>
	<path class="st11" d="M62.8,95l5.8,2.3l9.5,9.8l-7.9-2.7l-8.8,13.2c0,0-12.6-17.3-13.1-18.4c-0.4-1.1,0.2-3.5,0.2-3.5L62.8,95z"/>
	<path class="st1" d="M57.4,35.9c0,0,43.1,51.3,2,51c0,0,2.4,9.8,8.2,14.9c5.8,5.1-10,0.2-13.6-0.3c-3.4-3.6-19.2-23.7-19.2-23.7
		s-7.5,3.9-12.6-3.5c-4.8-7.8,5.1-5.4,5.1-5.4s-12.6-24,1.6-29.9C43.1,33.1,51.4,28.7,57.4,35.9z"/>
	<path class="st12" d="M66.2,68.8l0.8-0.4l-2.3-4.8c1.8,0.2,6,0.4,7.6-1.1l0.2-0.2l0-0.2c-0.6-5.2-9.5-7.7-9.9-7.8l-0.3,0.9
		c0.1,0,8.4,2.4,9.2,6.8c-1.6,1.1-5.9,0.8-7.5,0.6l-0.9-0.1L66.2,68.8z"/>
	<path class="st12" d="M59.2,76.1c6.1,0,11.8-4.8,12-5l-0.6-0.7c-0.1,0.1-7.2,6-13.7,4.5c-3.3-0.8-6-3.4-7.8-7.8l-0.9,0.4
		c2,4.7,4.8,7.5,8.5,8.3C57.5,76,58.4,76.1,59.2,76.1z"/>
	<path class="st13" d="M48.8,63.5c0,0-7.8-2.4-7.2,0.5C42.2,66.9,52.9,65.7,48.8,63.5z"/>
	<path class="st14" d="M46,57.6c0.5,0,1.1-0.1,1.7-0.2c1.3-0.3,2.1-0.8,2.4-1.7c0.7-1.8-1-4.1-1.1-4.2l-0.5,0.4c0,0,1.6,2.1,1,3.6
		c-0.2,0.7-0.9,1.1-2,1.3c-4.2,0.8-4.9-1.6-4.9-1.6l-0.6,0.2C42.1,55.4,42.8,57.6,46,57.6z"/>
	<path class="st14" d="M63.5,52.5c1.1,0,1.9-0.3,2.2-0.9c0.8-1.4-0.8-3.7-0.9-3.8L64.3,48c0.4,0.6,1.4,2.3,0.9,3.2
		c-0.2,0.5-0.9,0.7-1.9,0.6c-2.6-0.1-3.4-0.6-3.7-0.9c-0.1-0.1-0.1-0.3-0.1-0.3l-0.6-0.1c0,0.1-0.1,0.4,0.2,0.7
		c0.5,0.7,1.9,1.1,4.2,1.2C63.4,52.5,63.5,52.5,63.5,52.5z"/>
	<path class="st14" d="M46.5,48.7c0,0-4.1,0.4-6.7,2.9C39.3,50.8,41.5,45.1,46.5,48.7z"/>
	<path class="st14" d="M62.9,44.1c0,0-4.1,0.4-6.7,2.9C55.7,46.2,57.9,40.5,62.9,44.1z"/>
	<path class="st15" d="M22.1,74.3c-4.8-7.8,5.1-5.4,5.1-5.4s-1.2-2.3-2.4-5.6c0.8-0.2,1.6-0.1,2.4,0.3c11.1,14.8,27.1,23.4,39,21.1
		c9.4-1.8,10.7-8.8,10.8-11.5c0.5,7.8-3.7,13.8-17.7,13.6c0,0,2.4,9.8,8.2,14.9c5.8,5.1-10,0.2-13.6-0.3
		c-3.4-3.6-19.2-23.7-19.2-23.7S27.3,81.6,22.1,74.3z"/>
	<g>
		<path class="st14" d="M46.7,6.9c0,0,18.6,2.4,17.5,21.7C62,38.2,52.7,43.6,40.1,40.6c-2,0.2-8.3-1.2-8.1,0.9
			c0.2,2-5.6,7.6-3.6,12.9c2,5.3,3.6,17.7,9.5,23.2c-3.3-0.8-14.1-9.6-20.8-19.9s0-14,2.4-13.4c1.8-1.9,3.1-3.5,4.1-8
			C24.6,31.7,30.5,5.7,46.7,6.9z"/>
		<path class="st16" d="M58.5,36.3c0,0,13.1-19.5-10.5-27.4C47.9,10.9,65.1,16.9,58.5,36.3z"/>
		<g>
			<path class="st17" d="M40.1,40.6c5.4,1.2,9.3,0.9,12,0.2C48.6,41.6,44.6,41.6,40.1,40.6z"/>
			<path class="st17" d="M52.7,40.6c-0.1,0-0.3,0.1-0.5,0.1C52.4,40.7,52.6,40.7,52.7,40.6z"/>
			<path class="st17" d="M35.9,40.4c2.3,0,3.9,0.2,4.2,0.2C39.2,40.7,37.5,40.4,35.9,40.4z"/>
			<path class="st17" d="M54.9,39.8c1.2-0.5,1.7-1,1.7-1l0,0.1C56.1,39.3,55.5,39.6,54.9,39.8z"/>
			<path class="st18" d="M17.1,57.6c-6.7-10.4,0-14,2.4-13.4c0.7-0.7,1.3-1.4,1.9-2.2c4.2-1.2,8.6-1.6,12.1-1.6
				c-0.9,0.1-1.5,0.4-1.5,1.1c0.2,2-5.6,7.6-3.6,12.9c2,5.3,3.6,17.7,9.5,23.2C34.6,76.7,23.8,68,17.1,57.6z"/>
		</g>
		<path class="st17" d="M17.1,57.6c-2.9-4.6-3.3-7.9-2.6-10c3.6,4.1,9.5,10.6,16.6,16.4c1.4,5,3.4,10.4,6.7,13.5
			C34.6,76.7,23.8,68,17.1,57.6z"/>
	</g>
	<path class="st15" d="M159.4,51.5c0,0-2.3,7.7-2.5,15c1.9,4.5,6.9-8.6,6.9-8.6s-4.7,11.7-2.5,11.7c2.2,0,6.3-6.3,6.3-6.3
		s-4.2,7.8-2.8,7.2c1.4-0.6,4.5-3.6,4.5-3.6s-3.1,4.1-2.5,4.5c0.6,0.5,4.2-2.3,4.2-2.3s-3.8,2.5-3.8,2s3-5.2,3-5.2s-4.7,4.2-4.7,3.4
		s2.7-7,2.7-7s-6.3,7.3-6.6,6.4c-0.3-0.9,2.7-11.8,2.7-11.8s-5.2,10.8-6.5,9.7C156.8,65.3,159.4,51.5,159.4,51.5z"/>
</g>
</svg>
