<?xml version="1.0" encoding="utf-8"?>
<!-- Generator: Adobe Illustrator 19.2.1, SVG Export Plug-In . SVG Version: 6.00 Build 0)  -->
<svg version="1.1" id="Слой_1" xmlns="http://www.w3.org/2000/svg" xmlns:xlink="http://www.w3.org/1999/xlink" x="0px" y="0px"
	 width="46px" height="46px" viewBox="0 0 46 46" style="enable-background:new 0 0 46 46;" xml:space="preserve">
<style type="text/css">
	.st0{fill:#51B04E;}
	.st1{fill:#51AF4D;}
</style>
<g>
	<path class="st0" d="M22.9,44c7.1,0,14.2,0,21.3,0c0.4,0,0.5,0.1,0.5,0.5c0,0.3,0,0.7,0,1.1c0,0.3-0.1,0.4-0.4,0.4
		c-1.8,0-3.5,0-5.3,0C26.5,46,14,46,1.6,46c-0.5,0-0.6-0.1-0.6-0.6C1,45,0.8,44.3,1.1,44.1C1.4,43.9,1.9,44,2.4,44
		C9.2,44,16,44,22.9,44z"/>
	<path class="st1" d="M45.7,12.8c-0.3,0.5-0.7,0.6-1.3,0.6c-9.4,0-18.7,0-28.1,0c-5,0-9.9,0-14.9,0c-0.2,0-0.3,0-0.5,0
		c-0.5,0-0.8-0.3-0.9-0.8c-0.1-0.4,0.1-0.8,0.5-1C2.3,10.7,4,9.8,5.7,8.9c5.5-2.9,11-5.8,16.6-8.8c0.3-0.2,0.6-0.2,0.9,0
		c7.2,3.8,14.4,7.6,21.6,11.3c0.4,0.2,0.7,0.4,0.9,0.8C45.7,12.5,45.7,12.6,45.7,12.8z M40.4,11.3c-5.8-3-11.5-6.1-17.3-9.1
		c-0.2-0.1-0.4-0.1-0.5,0c-5.7,3-11.4,6-17.1,9c-0.1,0-0.2,0.1-0.3,0.2c11.8,0,23.6,0,35.4,0C40.5,11.3,40.4,11.3,40.4,11.3z"/>
	<path class="st1" d="M34.6,29.4c0-3.9,0-7.7,0-11.6c0-0.4,0-0.6-0.5-0.5c-0.2,0-0.3-0.1-0.3-0.3c0-0.4,0-0.9,0-1.3
		c0-0.3,0.1-0.3,0.3-0.3c2.6,0,5.2,0,7.8,0c0.2,0,0.3,0.1,0.3,0.3c0,0.5,0,0.9,0,1.4c0,0.2,0,0.3-0.3,0.3c-0.4-0.1-0.4,0.1-0.4,0.4
		c0,6.6,0,13.2,0,19.8c0,1.2,0,2.4,0,3.6c0,0.3-0.1,0.4-0.4,0.4c-2.1,0-4.2,0-6.3,0c-0.4,0-0.4-0.1-0.4-0.4
		C34.6,37.3,34.6,33.3,34.6,29.4z M39.6,28.5c0-3.6,0-7.1,0-10.7c0-0.3-0.1-0.4-0.4-0.4c-0.8,0-1.5,0-2.3,0c-0.4,0-0.5,0.1-0.5,0.5
		c0,2.4,0,4.7,0,7.1c0,4.8,0,9.5,0,14.3c0,0.3,0.1,0.5,0.4,0.5c0.7,0,1.4,0,2,0c0.7,0,0.6,0.1,0.6-0.6C39.6,35.5,39.6,32,39.6,28.5
		C39.6,28.5,39.6,28.5,39.6,28.5z"/>
	<path class="st1" d="M11.1,29.4c0,3.9,0,7.8,0,11.6c0,0.5-0.1,0.5-0.6,0.5c-2,0-3.9,0-5.9,0c-0.4,0-0.6-0.1-0.6-0.5
		c0-7.7,0-15.4,0-23.1c0-0.3,0.1-0.7-0.5-0.6c-0.2,0-0.2-0.1-0.2-0.3c0-0.4,0-0.8,0-1.2c0-0.3,0.1-0.4,0.4-0.4c2.2,0,4.3,0,6.5,0
		c0.4,0,0.8,0,1.2,0c0.3,0,0.3,0.1,0.3,0.3c0,0.4,0,0.9,0,1.3c0,0.3-0.1,0.4-0.3,0.3c-0.4-0.1-0.4,0.1-0.4,0.5
		C11.1,21.7,11.1,25.5,11.1,29.4C11.1,29.4,11.1,29.4,11.1,29.4z M6,39.2c0,0.3,0.1,0.5,0.4,0.4c0.7,0,1.5,0,2.2,0
		c0.4,0,0.5-0.1,0.5-0.5c0-3.7,0-7.5,0-11.2c0-3.4,0-6.7,0-10.1c0-0.4-0.1-0.5-0.5-0.5c-0.7,0-1.5,0-2.2,0c-0.4,0-0.4,0.1-0.4,0.5
		c0,3.6,0,7.1,0,10.7C6,32,6,35.6,6,39.2z"/>
	<path class="st1" d="M26.3,29.5c0,3.9,0,7.8,0,11.6c0,0.4-0.1,0.5-0.5,0.5c-2,0-4.1,0-6.1,0c-0.4,0-0.4-0.1-0.4-0.4
		c0-7.8,0-15.5,0-23.3c0-0.4-0.1-0.6-0.5-0.6c-0.2,0-0.3-0.1-0.3-0.3c0-0.5,0-0.9,0-1.4c0-0.2,0.1-0.3,0.3-0.3c2.6,0,5.2,0,7.9,0
		c0.2,0,0.3,0.1,0.3,0.3c0,0.4,0,0.9,0,1.3c0,0.2,0,0.3-0.3,0.3c-0.4-0.1-0.4,0.2-0.4,0.5C26.3,21.7,26.3,25.6,26.3,29.5z
		 M24.4,17.7c0-0.3,0-0.4-0.4-0.4c-0.8,0-1.6,0-2.4,0c-0.3,0-0.4,0.1-0.4,0.3c0,7.2,0,14.4,0,21.6c0,0.3,0.1,0.4,0.4,0.4
		c0.7,0,1.5,0,2.2,0c0.4,0,0.5-0.1,0.5-0.5c0-3.6,0-7.1,0-10.7C24.4,24.9,24.4,21.3,24.4,17.7z"/>
</g>
</svg>
