<?xml version="1.0" encoding="utf-8"?>
<!-- Generator: Adobe Illustrator 19.2.1, SVG Export Plug-In . SVG Version: 6.00 Build 0)  -->
<svg version="1.1" id="Слой_1" xmlns="http://www.w3.org/2000/svg" xmlns:xlink="http://www.w3.org/1999/xlink" x="0px" y="0px"
	 width="23px" height="23px" viewBox="0 0 23 23" style="enable-background:new 0 0 23 23;" xml:space="preserve">
<style type="text/css">
	.st0{fill:#51AF4D;}
</style>
<path class="st0" d="M17.8,23c-0.1-0.1-0.3-0.1-0.4-0.1c-1.6-0.3-3.1-0.9-4.5-1.7c-3-1.7-5.6-3.9-7.8-6.4c-1.3-1.4-2.4-3-3.3-4.6
	C1,8.8,0.5,7.4,0.2,5.9c0-0.2,0-0.5-0.2-0.7C0,5.2,0,5.1,0,5c0,0,0-0.1,0-0.1c0,0,0-0.1,0-0.1c0-0.3,0-0.6,0-0.9
	c0.1-0.2,0-0.3,0.1-0.5C0.2,3,0.4,2.6,0.7,2.3c0.5-0.5,1-1.1,1.6-1.6c0.5-0.4,1-0.6,1.5-0.7C3.9,0,4,0,4,0c0.1,0,0.2,0,0.4,0
	c0.1,0,0.1,0,0.2,0C4.7,0.1,4.9,0.1,5,0.2c0.6,0.2,1.1,0.6,1.5,1.1C7.3,2.1,8,3,8.3,4.1C8.7,5,8.5,5.8,7.8,6.6
	c-0.3,0.3-0.6,0.7-0.9,1C6.6,7.8,6.6,8.1,6.7,8.5c0.2,0.6,0.5,1.1,0.9,1.6c1.2,1.6,2.5,2.9,4,4.2c0.7,0.7,1.5,1.3,2.4,1.8
	c0.3,0.1,0.5,0.2,0.8,0.3c0.2,0,0.4,0,0.5-0.2c0.3-0.3,0.6-0.6,1-0.9c0.9-0.8,1.8-0.9,2.9-0.5c1.3,0.6,2.4,1.4,3.3,2.5
	c0.2,0.3,0.4,0.7,0.5,1.1c0,0,0,0.1,0,0.1c0,0.1,0,0.1,0,0.2c0,0.1,0,0.3,0,0.4c0,0,0,0.1,0,0.1c-0.1,0.8-0.6,1.4-1.1,2
	c-0.4,0.4-0.8,0.9-1.3,1.2c-0.4,0.4-0.9,0.5-1.4,0.6c0,0-0.1,0-0.1,0c0,0-0.1,0-0.1,0c0,0-0.1,0-0.1,0c-0.3,0-0.5,0-0.8,0
	c0,0-0.1,0-0.1,0C17.9,23,17.8,23,17.8,23z M23,18.6c-0.1,0.1-0.1,0.3,0,0.4C23,18.9,23,18.8,23,18.6z M4,0c0.1,0.1,0.2,0.1,0.4,0
	C4.2,0,4.1,0,4,0z M0,4.9C0,4.9,0,5,0,5C0.1,5,0,4.9,0,4.9C0,4.9,0,4.9,0,4.9z M18.1,23c0-0.1-0.1-0.1-0.1,0C18,23,18.1,23,18.1,23z
	 M0,4.8C0,4.8,0,4.9,0,4.8C0,4.9,0,4.9,0,4.8C0,4.9,0,4.8,0,4.8z M19,23C18.9,22.9,18.9,23,19,23C18.9,23,18.9,23,19,23z M20,21.8
	c0.6-0.6,1.2-1.1,1.7-1.8c0.7-0.9,0.7-1.7-0.1-2.6c-0.7-0.9-1.6-1.5-2.7-2c-0.8-0.4-1.6-0.3-2.3,0.4c-0.3,0.3-0.6,0.5-0.8,0.8
	c-0.1,0.1-0.3,0.3-0.4,0.3c-0.4,0.2-0.9,0.1-1.3,0c-0.7-0.2-1.4-0.7-2-1.2c-1.8-1.5-3.5-3.1-5-5c-0.5-0.6-0.9-1.3-1.2-2
	C5.7,8.2,5.8,7.5,6.4,7C6.7,6.7,7,6.4,7.2,6.1c0.5-0.6,0.6-1.2,0.3-2C7.1,3,6.3,2,5.4,1.2C4.6,0.6,3.9,0.6,3.1,1.2
	C2.4,1.6,2,2.2,1.4,2.7C1,3.1,0.9,3.5,0.8,4C0.7,5,0.9,6,1.2,6.9c0.6,1.8,1.4,3.4,2.5,4.9c2,2.8,4.3,5.2,7.1,7.2
	c1.6,1.2,3.3,2.1,5.3,2.8c0.8,0.3,1.6,0.4,2.4,0.4C19.2,22.2,19.7,22.1,20,21.8z"/>
</svg>
