<?xml version="1.0" encoding="utf-8"?>
<!-- Generator: Adobe Illustrator 19.2.1, SVG Export Plug-In . SVG Version: 6.00 Build 0)  -->
<svg version="1.1" id="Слой_1" xmlns="http://www.w3.org/2000/svg" xmlns:xlink="http://www.w3.org/1999/xlink" x="0px" y="0px"
	 width="28px" height="22px" viewBox="0 0 28 22" style="enable-background:new 0 0 28 22;" xml:space="preserve">
<style type="text/css">
	.st0{fill:#819999;}
	.st1{fill:#63BC4D;}
</style>
<g id="XMLID_1_">
	<g>
		<path class="st0" d="M10.3,10.9C8.1,9.2,6,7.4,3.8,5.6C3.7,5.5,3.6,5.4,3.5,5.3C3.3,5,3.2,4.8,3.4,4.5C3.5,4.2,3.8,4.1,4,4.1
			c0,0,0,0,0,0c0.3,0,0.5,0.1,0.7,0.3C6.1,5.5,7.6,6.7,9,7.9c1.6,1.4,3.3,2.7,4.9,4.1c0.2,0.1,0.2,0.1,0.4,0c3-2.5,6.1-5.1,9.1-7.6
			c0.1-0.1,0.3-0.2,0.5-0.3c0.1,0,0.1,0,0.2,0c0.3,0,0.5,0.1,0.7,0.3c0.2,0.3,0.1,0.7-0.1,0.9c-0.6,0.5-1.2,1-1.8,1.5
			c-1.6,1.4-3.2,2.7-4.9,4.1c-0.2,0.1-0.1,0.2,0,0.3c2.2,1.9,4.3,3.9,6.5,5.8c0.1,0.1,0.2,0.1,0.2,0.2c0.3,0.3,0.2,0.7,0,1
			c-0.1,0.1-0.4,0.2-0.6,0.2c-0.2,0-0.3,0-0.5-0.1c-0.2-0.1-0.3-0.3-0.5-0.4c-2.1-1.9-4.2-3.8-6.3-5.6c-0.1-0.1-0.2-0.1-0.4,0
			c-0.6,0.5-1.1,0.9-1.7,1.4c-0.4,0.3-0.8,0.3-1.2,0c-0.5-0.4-1.1-0.9-1.6-1.3c-0.2-0.1-0.2-0.1-0.4,0c-2.2,1.9-4.4,3.9-6.7,5.9
			c-0.2,0.1-0.3,0.3-0.6,0.3c-0.3,0-0.6-0.1-0.8-0.3c-0.2-0.3-0.2-0.6,0-0.8c0.1-0.1,0.1-0.1,0.2-0.2c2.2-1.9,4.4-3.8,6.6-5.7
			C10.4,11.1,10.4,11.1,10.3,10.9z"/>
		<path class="st1" d="M3.7,21.2c6.9,0,13.8,0,20.6,0c0.1,0,0.2,0,0.3,0c-7.1,0-14.2,0-21.2,0C3.5,21.1,3.6,21.2,3.7,21.2z"/>
		<path class="st1" d="M3.4,1.3c7.1,0,14.2,0,21.3,0c-0.1,0.1-0.2,0-0.3,0c-6.9,0-13.8,0-20.7,0C3.6,1.3,3.5,1.3,3.4,1.3z"/>
		<path class="st0" d="M3.6,2.8c-1.1,0-2,0.7-2,1.9c0,4.4,0,8.8,0,13.2c0,0.2,0,0.4,0.1,0.6c0.3,0.8,0.9,1.3,1.9,1.3
			c0.2,0,0.4,0,0.6,0c3.3,0,6.6,0,9.8,0c3.3,0,6.7,0,10,0c0.2,0,0.3,0,0.5,0c1.2,0,2-0.7,2-1.8c0-4.4,0-8.8,0-13.2
			c0-0.2,0-0.4-0.1-0.6c-0.3-0.8-0.9-1.3-1.9-1.3c-0.1,0-0.3,0-0.4,0c-6.7,0-13.3,0-20,0C3.9,2.8,3.8,2.8,3.6,2.8z M3.1,1.3
			c0.1,0,0.2,0,0.3,0c0.1,0.1,0.2,0.1,0.3,0.1c6.9,0,13.8,0,20.7,0c0.1,0,0.2,0,0.3-0.1c0.1,0,0.2,0,0.3,0c0.1,0.1,0.2,0,0.3,0
			c1,0,1.6,0.6,2.2,1.3C27.8,3,28,3.4,28,4c0,0,0,0.1,0,0.1c0,4.8,0,9.6,0,14.3c-0.1,0.1,0,0.2,0,0.3c0,0.5-0.2,0.9-0.5,1.2
			c-0.2,0.3-0.5,0.5-0.8,0.7c-0.4,0.3-1,0.5-1.5,0.5c-0.1,0-0.1,0-0.2,0c-0.1,0-0.2,0-0.3,0c-0.1-0.1-0.2-0.1-0.3-0.1
			c-6.9,0-13.7,0-20.6,0c-0.1,0-0.2,0-0.3,0.1c-0.1,0-0.2,0-0.3,0c-0.1-0.1-0.2,0-0.3,0c-1-0.1-1.6-0.6-2.2-1.3
			c-0.4-0.4-0.5-0.9-0.5-1.5c0-4.8,0-9.6,0-14.4c0.1-0.1,0-0.2,0-0.3c0-0.5,0.2-0.8,0.5-1.2C0.8,2.3,1.1,2,1.4,1.8
			c0.5-0.3,1-0.5,1.5-0.5C3,1.3,3.1,1.3,3.1,1.3z"/>
	</g>
	<g>
	</g>
</g>
</svg>
