<svg version="1.1" xmlns="http://www.w3.org/2000/svg" xmlns:xlink="http://www.w3.org/1999/xlink" width="13" height="14" viewBox="0 0 13 14">
<g id="info">
<path id="info" d="M8.148,10.368 C8.148,10.509 8.039,10.618 7.898,10.618 C7.898,10.618 4.398,10.618 4.398,10.618 C4.257,10.618 4.148,10.509 4.148,10.368 C4.148,10.368 4.148,9.118 4.148,9.118 C4.148,8.977 4.257,8.868 4.398,8.868 C4.398,8.868 5.148,8.868 5.148,8.868 L5.148,6.368 C5.148,6.368 4.398,6.368 4.398,6.368 C4.257,6.368 4.148,6.259 4.148,6.118 C4.148,6.118 4.148,4.868 4.148,4.868 C4.148,4.727 4.257,4.618 4.398,4.618 C4.398,4.618 6.898,4.618 6.898,4.618 C7.039,4.618 7.148,4.727 7.148,4.868 C7.148,4.868 7.148,8.868 7.148,8.868 C7.148,8.868 7.898,8.868 7.898,8.868 C8.039,8.868 8.148,8.977 8.148,9.118 C8.148,9.118 8.148,10.368 8.148,10.368 zM7.148,3.368 C7.148,3.509 7.039,3.618 6.898,3.618 C6.898,3.618 5.398,3.618 5.398,3.618 C5.257,3.618 5.148,3.509 5.148,3.368 C5.148,3.368 5.148,2.118 5.148,2.118 C5.148,1.977 5.257,1.868 5.398,1.868 C5.398,1.868 6.898,1.868 6.898,1.868 C7.039,1.868 7.148,1.977 7.148,2.118 C7.148,2.118 7.148,3.368 7.148,3.368 zM12.148,6.618 C12.148,3.305 9.460,0.618 6.148,0.618 C2.835,0.618 0.148,3.305 0.148,6.618 C0.148,9.930 2.835,12.618 6.148,12.618 C9.460,12.618 12.148,9.930 12.148,6.618 z" fill="#4FAF4F" />
</g>
</svg>
