<?xml version="1.0" encoding="utf-8"?>
<!-- Generator: Adobe Illustrator 19.2.1, SVG Export Plug-In . SVG Version: 6.00 Build 0)  -->
<svg version="1.1" id="Слой_1" xmlns="http://www.w3.org/2000/svg" xmlns:xlink="http://www.w3.org/1999/xlink" x="0px" y="0px"
	 width="60px" height="60px" viewBox="0 0 60 60" style="enable-background:new 0 0 60 60;" xml:space="preserve">
<style type="text/css">
	.st0{fill:#B8DDB8;}
	.st1{fill:#F6FBF6;}
	.st2{fill:#F5FAF5;}
	.st3{fill:#51AF4D;}
</style>
<g>
	<path class="st0" d="M0.9,55.8c0.2,0,0.3,0,0.5,0c18.4,0,36.7,0,55.1,0c0.2,0,0.4,0,0.6,0c0,0,0,0,0,0.1c0,0,0,0,0,0
		C38.3,55.9,19.6,55.9,0.9,55.8C0.9,55.8,0.9,55.8,0.9,55.8C0.9,55.8,0.9,55.8,0.9,55.8z"/>
	<path class="st0" d="M31.5,3C31.5,3,31.5,3.1,31.5,3c-0.2,0.3-0.4,0.3-0.7,0.3c-1.2,0-2.4,0-3.5,0c-0.2,0-0.5,0-0.7-0.2
		c0,0,0-0.1,0-0.1C28.3,3,29.9,3,31.5,3z"/>
	<path class="st1" d="M57.1,55.9C57.1,55.8,57.1,55.8,57.1,55.9c0.5-0.1,0.7-0.5,1-0.8"/>
	<path class="st2" d="M0,55.1c0.3,0.3,0.5,0.6,0.9,0.7c0,0,0,0.1,0,0.1c0,0-0.1,0-0.1,0"/>
	<path class="st3" d="M1.1,55.8c-0.6,0-1-0.2-1.1-0.7c0-0.2,0-0.5,0-0.7c0.9-1.8,1.9-3.7,2.8-5.5c0.9-1.7,1.7-3.5,2.6-5.2
		c0.2-0.3,0.2-0.7,0.2-1c0-9.5,0-18.9,0-28.4c0-0.2,0-0.4,0-0.6c0-0.7,0.4-1.1,1.1-1.1c0.9,0,1.8,0,2.7,0c2.9,0,5.8,0,8.7,0
		c0.9,0,1.3,0.4,1.3,1.1c0,0.5-0.3,0.8-0.8,0.9c-0.3,0.1-0.5,0.1-0.8,0.1c-3.2,0-6.4,0-9.5,0c-0.4,0-0.5,0.1-0.5,0.5
		c0,8.9,0,17.8,0,26.7c0,0.4,0.1,0.5,0.5,0.5c13.9,0,27.7,0,41.6,0c0.4,0,0.5-0.1,0.5-0.5c0-8.9,0-17.8,0-26.7
		c0-0.4-0.1-0.5-0.5-0.5c-3.3,0-6.5,0-9.8,0c-0.3,0-0.5,0-0.8-0.1c-0.5-0.1-0.8-0.5-0.8-1c0-0.5,0.4-0.9,0.9-1c0.2,0,0.4,0,0.6,0
		c3.7,0,7.3,0,11,0c1.2,0,1.5,0.3,1.5,1.5c0,9.5,0,19,0,28.5c0,0.4,0.1,0.8,0.3,1.2c1.6,3.3,3.2,6.6,4.9,9.8
		c0.1,0.3,0.3,0.6,0.4,0.9c0,0.2,0,0.4,0,0.6c-0.2,0.6-0.6,0.8-1.2,0.7 M55.1,53.3c-1.4-2.8-2.8-5.6-4.2-8.5
		c-0.2-0.3-0.4-0.3-0.7-0.3c-14.1,0-28.2,0-42.4,0c-0.4,0-0.6,0.1-0.8,0.5c-1.3,2.7-2.7,5.4-4,8.1c-0.1,0.2-0.2,0.3-0.2,0.5
		c0,0,0.1,0,0.1,0c5.3,0,10.6,0,15.9,0c0.3,0,0.4-0.1,0.5-0.3c0.5-1,1-1.9,1.4-2.9c0.3-0.6,0.7-0.8,1.3-0.8c4.6,0,9.2,0,13.8,0
		c0.6,0,1,0.3,1.3,0.8c0.4,0.9,0.9,1.8,1.3,2.7c0.2,0.4,0.4,0.5,0.8,0.5c5.1,0,10.1,0,15.2,0c0.2,0,0.4,0,0.6,0
		C55.2,53.5,55.1,53.4,55.1,53.3z M22.4,53.7c4.1,0,8.3,0,12.4,0c0.5,0,1.1,0.1,1.6-0.1c-0.2-0.5-0.5-1-0.7-1.5
		c-0.1-0.3-0.3-0.3-0.6-0.3c-4.1,0-8.1,0-12.2,0c-0.2,0-0.4,0-0.5,0.2c-0.3,0.5-0.5,1.1-0.8,1.7C22,53.7,22.2,53.7,22.4,53.7z"/>
	<path class="st3" d="M26.7,3.1c1.6,0,3.3,0,4.9,0c2,0.1,3.5,1.6,3.6,3.6c0.1,1.3,0,2.6,0,4c0,6.8,0,13.6,0,20.4
		c0,0.5-0.1,0.9-0.5,1.4c-1.6,2-3.1,4-4.7,6.1c-0.7,0.9-1.4,0.9-2,0c-1.6-2.1-3.2-4.2-4.8-6.3c-0.2-0.3-0.3-0.6-0.3-0.9
		c0-7,0-14.1,0-21.1c0-1.2-0.1-2.4,0.1-3.6C23.2,4.5,24.7,3.2,26.7,3.1z M33.1,11.5c0-0.4-0.1-0.6-0.5-0.5c-0.7,0-1.3,0-2,0
		c-0.4,0-0.4,0.1-0.4,0.5c0,6.2,0,12.4,0,18.6c0,0.4,0.1,0.4,0.5,0.4c0.6,0,1.3,0,1.9,0c0.5,0,0.6-0.1,0.6-0.6c0-3.1,0-6.1,0-9.2
		C33.1,17.6,33.1,14.5,33.1,11.5z M28,11.5c0-0.4-0.1-0.6-0.6-0.6c-0.6,0-1.2,0-1.8,0c-0.5,0-0.6,0.2-0.6,0.6c0,2.9,0,5.9,0,8.8
		c0,3.1,0,6.3,0,9.4c0,0.4,0.1,0.6,0.6,0.6c0.6,0,1.2,0,1.8,0c0.4,0,0.6-0.1,0.6-0.6c0-3,0-6,0-9.1C28,17.7,28,14.6,28,11.5z
		 M32.6,8.8c0.3,0,0.4-0.1,0.4-0.4c0-0.5,0-0.9,0-1.4c0-1.1-0.7-1.8-1.8-1.8c-1.5,0-2.9,0-4.4,0c-1.1,0-1.7,0.7-1.8,1.7
		c0,0.5,0,0.9,0,1.4c0,0.3,0.1,0.4,0.4,0.4c1.2,0,2.4,0,3.6,0C30.3,8.8,31.5,8.8,32.6,8.8z M31.9,32.5c-1.9,0-3.8,0-5.6,0
		c0.2,0.4,2.4,3.3,2.8,3.7C30,35,31,33.8,31.9,32.5z"/>
</g>
</svg>
