<?xml version="1.0" encoding="utf-8"?>
<!-- Generator: Adobe Illustrator 19.2.1, SVG Export Plug-In . SVG Version: 6.00 Build 0)  -->
<svg version="1.1" id="Слой_1" xmlns="http://www.w3.org/2000/svg" xmlns:xlink="http://www.w3.org/1999/xlink" x="0px" y="0px"
	 width="25px" height="25px" viewBox="0 0 25 25" style="enable-background:new 0 0 25 25;" xml:space="preserve">
<style type="text/css">
	.st0{fill:#333333;}
</style>
<g>
	<g id="XMLID_1_">
		<g>
			<path class="st0" d="M16.8,13.3c-5,0-10,0-14.9,0c-0.4,0-0.7-0.1-0.9-0.5c0-0.1,0-0.2,0-0.4C1.2,12.1,1.5,12,1.9,12
				c5,0,9.9,0,14.9,0c0.1,0,0.2,0,0.3,0c0-0.1-0.1-0.2-0.2-0.2c-1-1-2-2-3-3c-0.1-0.2-0.3-0.3-0.3-0.5c0-0.3,0.1-0.4,0.3-0.6
				c0.2-0.1,0.4-0.1,0.6,0c0.1,0,0.1,0.1,0.2,0.2c1.4,1.4,2.8,2.8,4.2,4.2c0.4,0.4,0.4,0.7,0,1.1c-1.4,1.4-2.8,2.8-4.2,4.2
				c-0.2,0.2-0.4,0.3-0.7,0.3c-0.4-0.1-0.6-0.6-0.3-1c0.1-0.1,0.1-0.1,0.2-0.2c1-1,2-2,3-3c0-0.1,0.1-0.1,0.2-0.2
				C16.9,13.2,16.9,13.3,16.8,13.3z"/>
			<path class="st0" d="M2.4,5.2C2.3,5.5,2.3,5.7,2.3,6c0,0.8,0,1.7,0,2.6C2.3,9,2,9.3,1.7,9.3c-0.1,0-0.1,0-0.2,0
				C1.2,9.2,1.1,9,1,8.8c0-1.2,0-2.3,0-3.5C1.1,4.5,1.4,3.7,1.9,3c0.7-0.9,1.6-1.4,2.6-1.7c0.2-0.1,0.4,0,0.6-0.1
				c4.8,0,9.6,0,14.4,0c0.7,0,1.4,0.3,2,0.7c1.1,0.7,1.8,1.7,2.1,2.9c0,0.2,0,0.4,0.1,0.6c0,4.8,0,9.6,0,14.5
				c-0.1,0.9-0.4,1.6-0.9,2.3c-0.7,0.9-1.6,1.5-2.6,1.7C20,24,19.8,24,19.6,24c-4.8,0-9.6,0-14.4,0c-0.9-0.1-1.6-0.4-2.3-0.9
				c-0.9-0.7-1.4-1.6-1.7-2.6C1,20.2,1,20,1,19.9c0-1.2,0-2.3,0-3.4C1.1,16.2,1.3,16,1.6,16c0,0,0,0,0.1,0c0.4,0,0.6,0.3,0.6,0.7
				c0,0.9,0,1.7,0,2.6c0,1.5,0.9,2.8,2.3,3.3c0.4,0.1,0.8,0.2,1.1,0.2c4.4,0,8.9,0,13.3,0c1.7,0,3-1.1,3.4-2.7
				c0.1-0.3,0.1-0.5,0.1-0.8c0-4.4,0-8.8,0-13.2c0-1.7-1-3-2.6-3.4c-0.3-0.1-0.5-0.1-0.8-0.1c-4.5,0-8.9,0-13.4,0
				C4.1,2.5,2.8,3.6,2.4,5.2z"/>
		</g>
		<g>
		</g>
	</g>
</g>
</svg>
