<?xml version="1.0" encoding="utf-8"?>
<!-- Generator: Adobe Illustrator 19.2.1, SVG Export Plug-In . SVG Version: 6.00 Build 0)  -->
<svg version="1.1" id="Слой_1" xmlns="http://www.w3.org/2000/svg" xmlns:xlink="http://www.w3.org/1999/xlink" x="0px" y="0px"
	 width="160px" height="58px" viewBox="0 0 160 58" style="enable-background:new 0 0 160 58;" xml:space="preserve">
<style type="text/css">
	.st0{fill:#51AF4D;}
	.st1{fill:#3E9244;}
	.st2{fill:#BADEBB;}
	.st3{fill:#B9DEB8;}
	.st4{fill:#9CCC9C;}
	.st5{fill:#8FC48F;}
	.st6{fill:#C3E2C2;}
	.st7{fill:#EEF6EF;}
	.st8{fill:#EEF6EE;}
	.st9{fill:#EDF6ED;}
	.st10{fill:#CAE5CA;}
	.st11{fill:#CCE7CC;}
	.st12{fill:#EFF7EF;}
	.st13{fill:#EEF7EE;}
	.st14{fill:#FBB03C;}
	.st15{fill:#F58A6C;}
	.st16{fill:#FBF9D4;}
	.st17{fill:#F3F3F3;}
	.st18{fill:#676767;}
	.st19{fill:#7B7876;}
	.st20{fill:#DB923B;}
	.st21{fill:#CDCCCC;}
	.st22{fill:#E5953B;}
	.st23{fill:#E1943B;}
	.st24{fill:#D3CFD0;}
	.st25{fill:#F2A53D;}
	.st26{fill:#E6E6E5;}
	.st27{fill:#F19B2E;}
	.st28{fill:#333333;}
</style>
<g>
	<path class="st0" d="M1,8c0-0.1,0-0.1,0-0.2c0.1-0.1,0-0.3,0-0.4c0-1.3,0.5-2.5,1.3-3.5c1-1.3,2.2-2.2,3.8-2.7C6.6,1,7,1,7.5,0.9
		c0.1,0,0.3,0,0.4,0c0.2,0,0.3,0,0.5,0c13.8,0,27.6,0,41.3,0c0.2,0,0.3,0,0.5,0c3-0.1,5.6,2.1,6.5,4.6c0.2,0.6,0.3,1.2,0.3,1.9
		c0,0.1,0,0.3,0,0.4c0,0,0,0.1,0,0.1c-0.1,0.1,0,0.3,0,0.4c0,4.9,0,9.8,0,14.7c0,0.1,0,0.2-0.2,0.2c-0.1-0.1-0.2-0.2-0.3-0.3
		c-1.6-1.6-3.2-3.2-4.8-4.8c-0.2-0.2-0.3-0.4-0.5-0.5c-2.1-2.1-4.1-4.1-6.2-6.2c-0.6-0.6-1.2-1.2-1.8-1.8C42.5,9,41.8,9,41,9.8
		c-1.6,1.6-3.1,3.1-4.7,4.7c-0.1,0.1-0.3,0.3-0.4,0.4c-1.1,1.1-2.2,2.3-3.4,3.4c-0.1,0.2-0.3,0.3-0.4,0.5C26,24.8,19.8,31,13.7,37.1
		c-0.2,0.2-0.4,0.3-0.5,0.5c-0.3,0.9-0.4,1.9-0.7,2.8c-0.3,1.3-0.6,2.5-0.9,3.8c0,0.1-0.1,0.2-0.1,0.3c-0.2,1.2-0.5,2.4-0.8,3.7
		c-0.1,0.7-0.3,1.3-0.4,1.9c0,0.1-0.1,0.2,0,0.3c2,2,4.1,4.1,6.1,6.1c0.1,0.1,0.2,0.2,0.2,0.3c0.1,0.2,0,0.2-0.2,0.2
		c-2.8,0-5.6,0-8.4,0c-0.2,0-0.3,0-0.5,0c-1.8,0-3.3-0.9-4.6-2.2c-1.1-1.2-1.8-2.6-1.9-4.3c0-0.1,0-0.3,0-0.4c0-0.1,0-0.1,0-0.2
		c0.1-0.1,0-0.3,0-0.4C1,35.8,1,22.1,1,8.4C1,8.3,1.1,8.1,1,8z"/>
	<path class="st1" d="M16.6,56.9c-0.8-0.8-1.6-1.6-2.4-2.4c-1.2-1.2-2.5-2.5-3.7-3.7c-0.1-0.1-0.2-0.2-0.3-0.3
		c0-0.1,0.1-0.2,0.2-0.2c1.2-0.3,2.5-0.6,3.7-0.9c0.6-0.2,1.3-0.3,2-0.4c0.7-0.2,1.4-0.4,2.2-0.5c1.5-0.4,3-0.7,4.5-1
		c0.1,0,0.1,0,0.2-0.1c0,0,0.1,0,0.1-0.1c0.1,0,0.2-0.1,0.3-0.2c1-1,2-2,3-3c0,0,0.1-0.1,0.1-0.1c1.4-1.4,2.9-2.9,4.3-4.3
		c0.1-0.1,0.2-0.2,0.3-0.3c2.8-2.8,5.6-5.6,8.5-8.5c0.1-0.1,0.2-0.2,0.3-0.3c0.9-0.9,1.7-1.8,2.6-2.6c0.7-0.7,1.4-1.4,2-2.1
		c0.5-0.4,1-0.9,1.4-1.4c1.7-1.7,3.4-3.4,5.1-5.1c0.4-0.4,0.5-0.8,0.4-1.4c0-0.1-0.1-0.3,0-0.4c0.1,0.1,0.2,0.2,0.4,0.3
		c1.7,1.7,3.4,3.4,5.1,5.1c0.1,0.1,0.2,0.2,0.3,0.3c0,0,0.1,0.1,0,0.1c0,8.7,0,17.3,0,26c0,0.1,0,0.3,0,0.4c0,0.1,0,0.1,0,0.2
		c-0.1,0.2,0,0.3,0,0.5c0,1.3-0.5,2.4-1.3,3.4c-1,1.4-2.3,2.3-3.9,2.8c-0.4,0.1-0.8,0.1-1.2,0.2c-0.2,0-0.4,0-0.6,0
		c-0.1,0-0.1,0-0.2,0c-0.2-0.1-0.3,0-0.5,0c-10.9,0-21.8,0-32.8,0C16.6,57,16.6,56.9,16.6,56.9z"/>
	<path class="st2" d="M1,8c0.1,0.1,0.1,0.2,0.1,0.3c0,13.8,0,27.5,0,41.3c0,0.1,0.1,0.2-0.1,0.3C1,35.9,1,22,1,8z"/>
	<path class="st3" d="M49.8,1c-0.1,0-0.3,0-0.4,0C35.8,1,22.3,1,8.7,1C8.6,1,8.4,1,8.3,1c0,0,0,0,0,0c0,0,0,0,0,0
		C22.1,0.9,36,0.9,49.8,1C49.8,0.9,49.8,0.9,49.8,1C49.8,1,49.8,1,49.8,1z"/>
	<path class="st4" d="M16.6,56.9c0.2,0,0.3,0,0.5,0c10.8,0,21.6,0,32.3,0c0.2,0,0.3-0.1,0.5,0.1C38.8,57,27.7,57,16.6,56.9
		C16.6,57,16.6,57,16.6,56.9C16.6,56.9,16.6,56.9,16.6,56.9z"/>
	<path class="st5" d="M57.1,49.9C57,49.8,57,49.7,57,49.6c0-8.7,0-17.4,0-26.1c0,0,0-0.1,0-0.1c0,0,0,0,0.1,0
		C57.1,32.2,57.1,41.1,57.1,49.9z"/>
	<path class="st2" d="M57.1,23.4C57.1,23.4,57,23.4,57.1,23.4C57,23.4,57,23.4,57.1,23.4C57,22.9,57,22.5,57,22c0-4.6,0-9.1,0-13.7
		C57,8.2,57,8.1,57.1,8C57.1,13.1,57.1,18.3,57.1,23.4z"/>
	<path class="st6" d="M16.6,56.9C16.6,57,16.6,57,16.6,56.9C13.7,57,10.8,57,7.9,57c0,0,0,0,0,0c0,0,0,0,0,0c1.7,0,3.5,0,5.2,0
		C14.3,56.9,15.4,56.9,16.6,56.9C16.6,56.9,16.6,56.9,16.6,56.9z"/>
	<path class="st7" d="M50.7,56.9C50.7,56.9,50.7,57,50.7,56.9C50.5,57,50.3,57,50.2,57C50.3,56.8,50.5,56.9,50.7,56.9z"/>
	<path class="st8" d="M57.1,50.6C57.1,50.6,57,50.6,57.1,50.6c0-0.2-0.1-0.4,0-0.5C57.1,50.3,57.1,50.5,57.1,50.6z"/>
	<path class="st9" d="M7.9,56.9C7.9,57,7.9,57,7.9,56.9C7.8,57,7.6,57,7.4,57c0,0,0-0.1,0-0.1C7.6,56.9,7.8,56.9,7.9,56.9z"/>
	<path class="st9" d="M7.4,1C7.4,1,7.4,0.9,7.4,1c0.1-0.1,0.3-0.1,0.4-0.1c0,0,0,0,0,0.1C7.7,1,7.6,1,7.4,1z"/>
	<path class="st10" d="M7.9,1C7.9,1,7.9,0.9,7.9,1C8,0.9,8.2,0.9,8.3,0.9c0,0,0,0,0,0.1C8.2,1,8,1,7.9,1z"/>
	<path class="st11" d="M49.8,1C49.8,0.9,49.8,0.9,49.8,1c0.1-0.1,0.3-0.1,0.4-0.1c0,0,0,0,0,0.1C50.1,1,49.9,1,49.8,1z"/>
	<path class="st12" d="M57,7.4C57,7.4,57.1,7.4,57,7.4c0.1,0.1,0.1,0.3,0.1,0.4C57,7.7,57,7.6,57,7.4z"/>
	<path class="st9" d="M1,7.4C1,7.4,1.1,7.4,1,7.4c0.1,0.1,0.1,0.3,0,0.4C1,7.7,1,7.5,1,7.4z"/>
	<path class="st13" d="M1.1,50.5L1.1,50.5L1.1,50.5C1,50.4,1,50.3,1,50.1C1.1,50.2,1.1,50.4,1.1,50.5z"/>
	<path class="st14" d="M13.1,37.5c0-0.1,0.1-0.2,0.2-0.3c6.3-6.3,12.6-12.6,18.9-19c0.1-0.1,0.1-0.1,0.2-0.1c0.2,0,0.3,0.1,0.4,0.2
		c1,1,2.1,2.1,3.1,3.1c0.1,0.1,0.2,0.2,0.3,0.4c0,0,0,0.1,0,0.1c0,0.1-0.1,0.2-0.2,0.3c-6,6-12.1,12.1-18.1,18.1
		c-0.2,0.2-0.3,0.3-0.5,0.4c-0.4,0-0.9-0.2-1.3-0.3c-0.3-0.1-0.3-0.3-0.4-0.6c-0.4-1.1-1.1-1.8-2.1-2.1
		C13.4,37.7,13.2,37.7,13.1,37.5z"/>
	<path class="st15" d="M51.2,17.6c0.3,0.7,0.2,1.4-0.4,1.9c-1.7,1.7-3.4,3.4-5,5c-0.1,0-0.1,0-0.2,0c-0.1,0-0.2-0.1-0.3-0.2
		c-0.9-0.9-1.8-1.8-2.6-2.7c-1.1-1.1-2.2-2.1-3.2-3.2c-1.2-1.1-2.3-2.3-3.5-3.5c-0.1-0.1-0.2-0.2-0.1-0.4c1.4-1.4,2.9-2.9,4.3-4.3
		c0.3-0.3,0.6-0.6,0.9-0.9c0.7-0.6,1.5-0.6,2.1,0c2.6,2.6,5.2,5.2,7.7,7.7C51,17.4,51.1,17.5,51.2,17.6z"/>
	<path class="st16" d="M13.1,37.5c1.4,0.3,2.4,1.1,2.8,2.5c0.1,0.2,0.2,0.3,0.4,0.3c0.4,0,0.7,0.1,1.1,0.3c0.3-0.1,0.5,0.1,0.7,0.2
		c1.1,0.8,1.8,1.8,1.9,3.2c0,0.1,0,0.1,0.1,0.2c0,0.1,0.1,0.1,0.1,0.1c1.3,0.3,2.2,1,2.7,2.3c0.1,0.2,0.1,0.5,0,0.7
		c0,0.1-0.1,0.1-0.2,0.2c-2.2,0.5-4.5,1-6.7,1.5c-0.2-0.1-0.2-0.2-0.2-0.4c-0.2-2.1-1.9-3.8-4-4c-0.2,0-0.3,0-0.4-0.2
		c0.5-2.1,0.9-4.1,1.4-6.2C13,38,12.9,37.7,13.1,37.5z"/>
	<path class="st17" d="M35.8,14.7c1.2,1.3,2.5,2.5,3.7,3.8c0,0.2-0.1,0.3-0.2,0.4c-0.9,0.9-1.9,1.9-2.8,2.8
		c-0.1,0.1-0.2,0.2-0.4,0.2c-1.3-1.2-2.5-2.5-3.7-3.7C33.6,17,34.7,15.9,35.8,14.7z"/>
	<path class="st18" d="M11.5,44.5c1.9,0.1,3.3,0.9,4.1,2.6c0.3,0.6,0.4,1.3,0.4,1.9c-1.3,0.3-2.5,0.6-3.8,0.9
		c-0.6,0.1-1.3,0.3-1.9,0.4c-0.1,0-0.2-0.1-0.2-0.2C10.6,48.2,11,46.3,11.5,44.5z"/>
	<path class="st19" d="M10.2,50.1c0.1,0.1,0.1,0.1,0.2,0.2c-0.1,0-0.1,0.1-0.2,0.1C10,50.3,10.1,50.2,10.2,50.1z"/>
	<path class="st20" d="M23,47.3c-0.2-0.9-0.6-1.7-1.4-2.2c-0.4-0.3-1-0.5-1.5-0.6c-0.1-0.1,0-0.2,0-0.3c0.1-0.2,0.2-0.3,0.4-0.4
		c5.6-5.6,11.2-11.2,16.8-16.8c0.5-0.5,1.1-1.1,1.7-1.6c0.1-0.1,0.2-0.2,0.4-0.2c0.2,0,0.3,0.2,0.4,0.3c0.7,0.7,1.5,1.5,2.2,2.2
		c0.1,0.1,0.3,0.3,0.3,0.5c-0.9,0.9-1.7,1.7-2.6,2.6c-0.1,0-0.2,0.2-0.3,0.3c-2.8,2.8-5.6,5.6-8.5,8.5c-0.1,0.1-0.2,0.2-0.3,0.3
		c-1.4,1.5-2.8,2.9-4.3,4.3c-0.2,0.1-0.2,0.2-0.4,0.3C25,45.3,24,46.3,23,47.3C23,47.3,23,47.3,23,47.3z"/>
	<path class="st21" d="M42.4,28c-0.9-0.9-1.8-1.7-2.6-2.6c-0.1-0.1-0.2-0.2-0.3-0.3c0,0,0-0.1,0-0.1c0-0.1,0.1-0.2,0.2-0.3
		c1-1,1.9-1.9,2.9-2.9c0.1-0.1,0.2-0.2,0.3-0.2c0.5,0.3,0.8,0.8,1.2,1.2c0.6,0.5,1.1,1.1,1.6,1.7c0,0.2-0.1,0.2-0.2,0.3
		c-0.3,0.4-0.8,0.7-1,1.1C43.7,26.7,43,27.4,42.4,28z"/>
	<path class="st22" d="M30.7,39.7c0-0.2,0.1-0.3,0.2-0.4c2.8-2.8,5.7-5.7,8.5-8.5c0.1-0.1,0.2-0.2,0.4-0.2c-1.4,1.4-2.9,2.9-4.3,4.3
		C33.9,36.5,32.3,38.1,30.7,39.7z"/>
	<path class="st23" d="M23,47.3c0-0.2,0.2-0.3,0.4-0.4c0.9-0.9,1.8-1.8,2.6-2.6c0.1-0.1,0.2-0.2,0.4-0.2c-1.1,1.1-2.1,2.1-3.2,3.2
		C23.1,47.3,23.1,47.3,23,47.3z"/>
	<path class="st24" d="M44.4,26c0-0.2,0.1-0.3,0.2-0.4c0.3-0.4,0.7-0.7,1-1c0,0,0.1,0,0.1,0.1C45.3,25.1,44.9,25.5,44.4,26z"/>
	<path class="st25" d="M39.4,25.1C39.4,25.1,39.4,25.1,39.4,25.1c-0.4,0.2-0.6,0.6-0.9,0.9c-0.4,0.3-0.6,0.6-1,0.9
		c-4.4,4.4-8.9,8.9-13.3,13.3c-1.3,1.3-2.5,2.5-3.8,3.8c-0.1,0.1-0.2,0.2-0.3,0.4c-0.1,0-0.1,0-0.1-0.1c0.1-0.1,0-0.2,0-0.3
		c0,0,0,0.1,0,0.1c-0.1-0.3-0.1-0.6-0.2-1c-0.4-1.2-1.2-2.1-2.3-2.6c0.1-0.1,0.2-0.2,0.3-0.3c6-6,12.1-12.1,18.1-18.1
		c0.1-0.1,0.2-0.3,0.4-0.3c0.2-0.1,0.3,0,0.4,0.2c0.9,0.9,1.8,1.8,2.6,2.6C39.3,24.8,39.4,24.9,39.4,25.1z"/>
	<path class="st26" d="M39.4,25.1c-0.9-0.9-1.9-1.8-2.8-2.8c-0.1-0.1-0.3-0.2-0.4-0.4c0,0,0,0,0-0.1c1.1-1.1,2.2-2.3,3.4-3.4
		c1.1,1.1,2.1,2.1,3.2,3.2c-0.9,1-1.9,1.9-2.8,2.9C39.8,24.8,39.6,24.9,39.4,25.1z"/>
	<path class="st27" d="M20,44.2c0,0,0-0.1,0-0.1C20.1,44,20.1,44.1,20,44.2c0.1,0.1,0.1,0.1,0,0.2C20,44.3,20,44.2,20,44.2z"/>
</g>
<g>
	<path class="st28" d="M64.2,11c0.9-0.1,2-0.3,3.4-0.3c1.7,0,3,0.4,3.8,1.1c0.8,0.6,1.2,1.6,1.2,2.9c0,1.2-0.4,2.2-1.1,2.9
		c-0.9,1-2.5,1.5-4.2,1.5c-0.5,0-1,0-1.4-0.1v5.5h-1.8V11z M66,17.6c0.4,0.1,0.9,0.1,1.5,0.1c2.1,0,3.4-1,3.4-2.9
		c0-1.8-1.3-2.7-3.2-2.7c-0.8,0-1.4,0.1-1.7,0.1V17.6z"/>
	<path class="st28" d="M74.6,17.7c0-1.2,0-2.2-0.1-3.1h1.6l0.1,1.9h0.1c0.4-1.3,1.5-2.2,2.7-2.2c0.2,0,0.3,0,0.5,0.1v1.7
		c-0.2,0-0.4-0.1-0.6-0.1c-1.3,0-2.2,1-2.4,2.3c0,0.2-0.1,0.5-0.1,0.8v5.2h-1.8V17.7z"/>
	<path class="st28" d="M90,19.5c0,3.6-2.5,5.2-4.9,5.2c-2.7,0-4.7-1.9-4.7-5.1c0-3.3,2.2-5.2,4.9-5.2C88.1,14.5,90,16.5,90,19.5z
		 M82.2,19.6c0,2.2,1.2,3.8,3,3.8c1.7,0,3-1.6,3-3.8c0-1.7-0.8-3.8-2.9-3.8C83.1,15.8,82.2,17.7,82.2,19.6z"/>
	<path class="st28" d="M98.1,24.5l-3.5-13.7h1.9l1.6,6.9c0.4,1.7,0.8,3.4,1,4.7h0c0.2-1.4,0.6-3,1.1-4.7l1.8-6.9h1.8l1.7,6.9
		c0.4,1.6,0.8,3.2,1,4.7h0c0.3-1.5,0.7-3,1.1-4.7l1.8-6.9h1.8l-3.9,13.7h-1.8l-1.7-7.1c-0.4-1.7-0.7-3.1-0.9-4.5h0
		c-0.2,1.4-0.5,2.7-1.1,4.5l-1.9,7.1H98.1z"/>
	<path class="st28" d="M112.6,17.7c0-1.2,0-2.2-0.1-3.1h1.6l0.1,1.9h0.1c0.4-1.3,1.5-2.2,2.7-2.2c0.2,0,0.3,0,0.5,0.1v1.7
		c-0.2,0-0.4-0.1-0.6-0.1c-1.3,0-2.2,1-2.4,2.3c0,0.2-0.1,0.5-0.1,0.8v5.2h-1.8V17.7z"/>
	<path class="st28" d="M121.3,11.9c0,0.6-0.4,1.1-1.1,1.1c-0.6,0-1.1-0.5-1.1-1.1c0-0.6,0.5-1.1,1.1-1.1
		C120.9,10.8,121.3,11.3,121.3,11.9z M119.4,24.5v-9.8h1.8v9.8H119.4z"/>
	<path class="st28" d="M126.3,11.9v2.8h2.6V16h-2.6v5.3c0,1.2,0.3,1.9,1.3,1.9c0.5,0,0.8-0.1,1-0.1l0.1,1.3
		c-0.3,0.1-0.9,0.2-1.6,0.2c-0.8,0-1.5-0.3-1.9-0.8c-0.5-0.5-0.7-1.4-0.7-2.6V16H123v-1.4h1.5v-2.4L126.3,11.9z"/>
	<path class="st28" d="M131.7,19.9c0,2.4,1.6,3.4,3.4,3.4c1.3,0,2-0.2,2.7-0.5l0.3,1.3c-0.6,0.3-1.7,0.6-3.3,0.6c-3,0-4.8-2-4.8-5
		c0-3,1.7-5.3,4.6-5.3c3.2,0,4.1,2.8,4.1,4.6c0,0.4,0,0.6-0.1,0.8H131.7z M136.9,18.6c0-1.1-0.5-2.9-2.5-2.9c-1.8,0-2.6,1.7-2.7,2.9
		H136.9z"/>
	<path class="st28" d="M140.9,17.7c0-1.2,0-2.2-0.1-3.1h1.6l0.1,1.9h0.1c0.4-1.3,1.5-2.2,2.7-2.2c0.2,0,0.3,0,0.5,0.1v1.7
		c-0.2,0-0.4-0.1-0.6-0.1c-1.3,0-2.2,1-2.4,2.3c0,0.2-0.1,0.5-0.1,0.8v5.2h-1.8V17.7z"/>
	<path class="st28" d="M147.3,22.7c0.5,0.3,1.5,0.7,2.4,0.7c1.3,0,1.9-0.6,1.9-1.5c0-0.9-0.5-1.3-1.8-1.8c-1.8-0.6-2.6-1.6-2.6-2.8
		c0-1.6,1.3-2.9,3.4-2.9c1,0,1.9,0.3,2.4,0.6l-0.4,1.3c-0.4-0.2-1.1-0.6-2-0.6c-1.1,0-1.6,0.6-1.6,1.3c0,0.8,0.6,1.2,1.9,1.7
		c1.7,0.6,2.6,1.5,2.6,3c0,1.7-1.3,2.9-3.7,2.9c-1.1,0-2.1-0.3-2.8-0.7L147.3,22.7z"/>
	<path class="st28" d="M66.8,36.7h-4.2v-1.5h10.1v1.5h-4.2v12.2h-1.8V36.7z"/>
	<path class="st28" d="M76,36.3c0,0.6-0.4,1.1-1.1,1.1c-0.6,0-1.1-0.5-1.1-1.1c0-0.6,0.5-1.1,1.1-1.1C75.6,35.2,76,35.6,76,36.3z
		 M74,48.9V39h1.8v9.8H74z"/>
	<path class="st28" d="M78.8,41.7c0-1,0-1.8-0.1-2.7h1.6l0.1,1.6h0.1c0.5-0.9,1.5-1.8,3.1-1.8c1.3,0,2.4,0.8,2.8,2h0
		c0.3-0.5,0.7-1,1.1-1.3c0.6-0.4,1.2-0.7,2.2-0.7c1.3,0,3.2,0.9,3.2,4.3v5.8H91v-5.6c0-1.9-0.7-3-2.1-3c-1,0-1.8,0.8-2.1,1.6
		c-0.1,0.2-0.1,0.6-0.1,0.9v6.1h-1.7V43c0-1.6-0.7-2.7-2-2.7c-1.1,0-1.9,0.9-2.2,1.8c-0.1,0.3-0.1,0.6-0.1,0.9v5.9h-1.7V41.7z"/>
	<path class="st28" d="M96.7,44.3c0,2.4,1.6,3.4,3.4,3.4c1.3,0,2-0.2,2.7-0.5l0.3,1.3c-0.6,0.3-1.7,0.6-3.3,0.6c-3,0-4.8-2-4.8-5
		s1.7-5.3,4.6-5.3c3.2,0,4.1,2.8,4.1,4.6c0,0.4,0,0.6-0.1,0.8H96.7z M101.9,43c0-1.1-0.5-2.9-2.5-2.9c-1.8,0-2.6,1.7-2.7,2.9H101.9z
		"/>
</g>
</svg>
