<?xml version="1.0" encoding="utf-8"?>
<!-- Generator: Adobe Illustrator 19.2.1, SVG Export Plug-In . SVG Version: 6.00 Build 0)  -->
<svg version="1.1" id="Слой_1" xmlns="http://www.w3.org/2000/svg" xmlns:xlink="http://www.w3.org/1999/xlink" x="0px" y="0px"
	 width="56px" height="55.9px" viewBox="0 0 56 55.9" style="enable-background:new 0 0 56 55.9;" xml:space="preserve">
<style type="text/css">
	.st0{fill:#51AF4D;}
	.st1{fill:#3E9244;}
	.st2{fill:#BADEBB;}
	.st3{fill:#B9DEB8;}
	.st4{fill:#9CCC9C;}
	.st5{fill:#8FC48F;}
	.st6{fill:#C3E2C2;}
	.st7{fill:#EEF6EF;}
	.st8{fill:#EEF6EE;}
	.st9{fill:#EDF6ED;}
	.st10{fill:#CAE5CA;}
	.st11{fill:#CCE7CC;}
	.st12{fill:#EFF7EF;}
	.st13{fill:#EEF7EE;}
	.st14{fill:#FBB03C;}
	.st15{fill:#F58A6C;}
	.st16{fill:#FBF9D4;}
	.st17{fill:#F3F3F3;}
	.st18{fill:#676767;}
	.st19{fill:#7B7876;}
	.st20{fill:#DB923B;}
	.st21{fill:#CDCCCC;}
	.st22{fill:#E5953B;}
	.st23{fill:#E1943B;}
	.st24{fill:#D3CFD0;}
	.st25{fill:#F2A53D;}
	.st26{fill:#E6E6E5;}
	.st27{fill:#F19B2E;}
</style>
<g>
	<path class="st0" d="M0,7.1C0,7,0,7,0,6.9c0.1-0.1,0-0.3,0-0.4C0,5.2,0.5,4,1.3,3c1-1.3,2.2-2.2,3.8-2.7C5.6,0.1,6,0.1,6.5,0
		c0.1,0,0.3,0,0.4,0c0.2,0,0.3,0,0.5,0C21.2,0,35,0,48.7,0c0.2,0,0.3,0,0.5,0c3-0.1,5.6,2.1,6.5,4.6C55.9,5.2,56,5.8,56,6.5
		c0,0.1,0,0.3,0,0.4V7c-0.1,0.1,0,0.3,0,0.4c0,4.9,0,9.8,0,14.7c0,0.1,0,0.2-0.2,0.2c-0.1-0.1-0.2-0.2-0.3-0.3
		c-1.6-1.6-3.2-3.2-4.8-4.8c-0.2-0.2-0.3-0.4-0.5-0.5c-2.1-2.1-4.1-4.1-6.2-6.2c-0.6-0.6-1.2-1.2-1.8-1.8c-0.7-0.6-1.4-0.6-2.2,0.2
		c-1.6,1.6-3.1,3.1-4.7,4.7c-0.1,0.1-0.3,0.3-0.4,0.4c-1.1,1.1-2.2,2.3-3.4,3.4c-0.1,0.2-0.3,0.3-0.4,0.5
		c-6.1,6-12.3,12.2-18.4,18.3c-0.2,0.2-0.4,0.3-0.5,0.5c-0.3,0.9-0.4,1.9-0.7,2.8c-0.3,1.3-0.6,2.5-0.9,3.8c0,0.1-0.1,0.2-0.1,0.3
		c-0.2,1.2-0.5,2.4-0.8,3.7c-0.1,0.7-0.3,1.3-0.4,1.9c0,0.1-0.1,0.2,0,0.3c2,2,4.1,4.1,6.1,6.1c0.1,0.1,0.2,0.2,0.2,0.3
		c0.1,0.2,0,0.2-0.2,0.2c-2.8,0-5.6,0-8.4,0c-0.2,0-0.3,0-0.5,0c-1.8,0-3.3-0.9-4.6-2.2c-1.1-1.2-1.8-2.6-1.9-4.3c0-0.1,0-0.3,0-0.4
		c0-0.1,0-0.1,0-0.2c0.1-0.1,0-0.3,0-0.4C0,34.9,0,21.2,0,7.5C0,7.4,0.1,7.2,0,7.1z"/>
	<path class="st1" d="M15.6,56c-0.8-0.8-1.6-1.6-2.4-2.4c-1.2-1.2-2.5-2.5-3.7-3.7c-0.1-0.1-0.2-0.2-0.3-0.3c0-0.1,0.1-0.2,0.2-0.2
		c1.2-0.3,2.5-0.6,3.7-0.9c0.6-0.2,1.3-0.3,2-0.4c0.7-0.2,1.4-0.4,2.2-0.5c1.5-0.4,3-0.7,4.5-1c0.1,0,0.1,0,0.2-0.1
		c0,0,0.1,0,0.1-0.1c0.1,0,0.2-0.1,0.3-0.2c1-1,2-2,3-3l0.1-0.1c1.4-1.4,2.9-2.9,4.3-4.3c0.1-0.1,0.2-0.2,0.3-0.3
		c2.8-2.8,5.6-5.6,8.5-8.5c0.1-0.1,0.2-0.2,0.3-0.3c0.9-0.9,1.7-1.8,2.6-2.6c0.7-0.7,1.4-1.4,2-2.1c0.5-0.4,1-0.9,1.4-1.4
		c1.7-1.7,3.4-3.4,5.1-5.1c0.4-0.4,0.5-0.8,0.4-1.4c0-0.1-0.1-0.3,0-0.4c0.1,0.1,0.2,0.2,0.4,0.3c1.7,1.7,3.4,3.4,5.1,5.1
		c0.1,0.1,0.2,0.2,0.3,0.3c0,0,0.1,0.1,0,0.1c0,8.7,0,17.3,0,26c0,0.1,0,0.3,0,0.4c0,0.1,0,0.1,0,0.2c-0.1,0.2,0,0.3,0,0.5
		c0,1.3-0.5,2.4-1.3,3.4c-1,1.4-2.3,2.3-3.9,2.8c-0.4,0.1-0.8,0.1-1.2,0.2c-0.2,0-0.4,0-0.6,0c-0.1,0-0.1,0-0.2,0
		c-0.2-0.1-0.3,0-0.5,0c-10.9,0-21.8,0-32.8,0C15.6,56.1,15.6,56,15.6,56z"/>
	<path class="st2" d="M0,7.1c0.1,0.1,0.1,0.2,0.1,0.3c0,13.8,0,27.5,0,41.3c0,0.1,0.1,0.2-0.1,0.3C0,35,0,21.1,0,7.1z"/>
	<path class="st3" d="M48.8,0.1c-0.1,0-0.3,0-0.4,0c-13.6,0-27.1,0-40.7,0c-0.1,0-0.3,0-0.4,0l0,0l0,0C21.1,0,35,0,48.8,0.1
		C48.8,0,48.8,0,48.8,0.1L48.8,0.1z"/>
	<path class="st4" d="M15.6,56c0.2,0,0.3,0,0.5,0c10.8,0,21.6,0,32.3,0c0.2,0,0.3-0.1,0.5,0.1C37.8,56.1,26.7,56.1,15.6,56
		C15.6,56.1,15.6,56.1,15.6,56L15.6,56z"/>
	<path class="st5" d="M56.1,49C56,48.9,56,48.8,56,48.7c0-8.7,0-17.4,0-26.1v-0.1c0,0,0,0,0.1,0C56.1,31.3,56.1,40.2,56.1,49z"/>
	<path class="st2" d="M56.1,22.5C56.1,22.5,56,22.5,56.1,22.5C56,22.5,56,22.5,56.1,22.5C56,22,56,21.6,56,21.1c0-4.6,0-9.1,0-13.7
		c0-0.1,0-0.2,0.1-0.3C56.1,12.2,56.1,17.4,56.1,22.5z"/>
	<path class="st6" d="M15.6,56C15.6,56.1,15.6,56.1,15.6,56c-2.9,0.1-5.8,0.1-8.7,0.1l0,0l0,0c1.7,0,3.5,0,5.2,0
		C13.3,56,14.4,56,15.6,56L15.6,56z"/>
	<path class="st7" d="M49.7,56C49.7,56,49.7,56.1,49.7,56c-0.2,0.1-0.4,0.1-0.5,0.1C49.3,55.9,49.5,56,49.7,56z"/>
	<path class="st8" d="M56.1,49.7C56.1,49.7,56,49.7,56.1,49.7c0-0.2-0.1-0.4,0-0.5C56.1,49.4,56.1,49.6,56.1,49.7z"/>
	<path class="st9" d="M6.9,56C6.9,56.1,6.9,56.1,6.9,56c-0.1,0.1-0.3,0.1-0.5,0.1V56C6.6,56,6.8,56,6.9,56z"/>
	<path class="st9" d="M6.4,0.1C6.4,0.1,6.4,0,6.4,0.1C6.5,0,6.7,0,6.8,0c0,0,0,0,0,0.1C6.7,0.1,6.6,0.1,6.4,0.1z"/>
	<path class="st10" d="M6.9,0.1C6.9,0.1,6.9,0,6.9,0.1C7,0,7.2,0,7.3,0c0,0,0,0,0,0.1C7.2,0.1,7,0.1,6.9,0.1z"/>
	<path class="st11" d="M48.8,0.1C48.8,0,48.8,0,48.8,0.1C48.9,0,49.1,0,49.2,0c0,0,0,0,0,0.1C49.1,0.1,48.9,0.1,48.8,0.1z"/>
	<path class="st12" d="M56,6.5C56,6.5,56.1,6.5,56,6.5c0.1,0.1,0.1,0.3,0.1,0.4C56,6.8,56,6.7,56,6.5z"/>
	<path class="st9" d="M0,6.5C0,6.5,0.1,6.5,0,6.5c0.1,0.1,0.1,0.3,0,0.4C0,6.8,0,6.6,0,6.5z"/>
	<path class="st13" d="M0.1,49.6L0.1,49.6L0.1,49.6C0,49.5,0,49.4,0,49.2C0.1,49.3,0.1,49.5,0.1,49.6z"/>
	<path class="st14" d="M12.1,36.6c0-0.1,0.1-0.2,0.2-0.3c6.3-6.3,12.6-12.6,18.9-19c0.1-0.1,0.1-0.1,0.2-0.1c0.2,0,0.3,0.1,0.4,0.2
		c1,1,2.1,2.1,3.1,3.1c0.1,0.1,0.2,0.2,0.3,0.4V21c0,0.1-0.1,0.2-0.2,0.3c-6,6-12.1,12.1-18.1,18.1c-0.2,0.2-0.3,0.3-0.5,0.4
		c-0.4,0-0.9-0.2-1.3-0.3c-0.3-0.1-0.3-0.3-0.4-0.6c-0.4-1.1-1.1-1.8-2.1-2.1C12.4,36.8,12.2,36.8,12.1,36.6z"/>
	<path class="st15" d="M50.2,16.7c0.3,0.7,0.2,1.4-0.4,1.9c-1.7,1.7-3.4,3.4-5,5c-0.1,0-0.1,0-0.2,0c-0.1,0-0.2-0.1-0.3-0.2
		c-0.9-0.9-1.8-1.8-2.6-2.7c-1.1-1.1-2.2-2.1-3.2-3.2c-1.2-1.1-2.3-2.3-3.5-3.5c-0.1-0.1-0.2-0.2-0.1-0.4c1.4-1.4,2.9-2.9,4.3-4.3
		c0.3-0.3,0.6-0.6,0.9-0.9c0.7-0.6,1.5-0.6,2.1,0c2.6,2.6,5.2,5.2,7.7,7.7C50,16.5,50.1,16.6,50.2,16.7z"/>
	<path class="st16" d="M12.1,36.6c1.4,0.3,2.4,1.1,2.8,2.5c0.1,0.2,0.2,0.3,0.4,0.3c0.4,0,0.7,0.1,1.1,0.3c0.3-0.1,0.5,0.1,0.7,0.2
		c1.1,0.8,1.8,1.8,1.9,3.2c0,0.1,0,0.1,0.1,0.2c0,0.1,0.1,0.1,0.1,0.1c1.3,0.3,2.2,1,2.7,2.3c0.1,0.2,0.1,0.5,0,0.7
		c0,0.1-0.1,0.1-0.2,0.2c-2.2,0.5-4.5,1-6.7,1.5c-0.2-0.1-0.2-0.2-0.2-0.4c-0.2-2.1-1.9-3.8-4-4c-0.2,0-0.3,0-0.4-0.2
		c0.5-2.1,0.9-4.1,1.4-6.2C12,37.1,11.9,36.8,12.1,36.6z"/>
	<path class="st17" d="M34.8,13.8c1.2,1.3,2.5,2.5,3.7,3.8c0,0.2-0.1,0.3-0.2,0.4c-0.9,0.9-1.9,1.9-2.8,2.8
		c-0.1,0.1-0.2,0.2-0.4,0.2c-1.3-1.2-2.5-2.5-3.7-3.7C32.6,16.1,33.7,15,34.8,13.8z"/>
	<path class="st18" d="M10.5,43.6c1.9,0.1,3.3,0.9,4.1,2.6c0.3,0.6,0.4,1.3,0.4,1.9c-1.3,0.3-2.5,0.6-3.8,0.9
		c-0.6,0.1-1.3,0.3-1.9,0.4c-0.1,0-0.2-0.1-0.2-0.2C9.6,47.3,10,45.4,10.5,43.6z"/>
	<path class="st19" d="M9.2,49.2c0.1,0.1,0.1,0.1,0.2,0.2c-0.1,0-0.1,0.1-0.2,0.1C9,49.4,9.1,49.3,9.2,49.2z"/>
	<path class="st20" d="M22,46.4c-0.2-0.9-0.6-1.7-1.4-2.2c-0.4-0.3-1-0.5-1.5-0.6c-0.1-0.1,0-0.2,0-0.3c0.1-0.2,0.2-0.3,0.4-0.4
		c5.6-5.6,11.2-11.2,16.8-16.8c0.5-0.5,1.1-1.1,1.7-1.6c0.1-0.1,0.2-0.2,0.4-0.2s0.3,0.2,0.4,0.3c0.7,0.7,1.5,1.5,2.2,2.2
		c0.1,0.1,0.3,0.3,0.3,0.5c-0.9,0.9-1.7,1.7-2.6,2.6c-0.1,0-0.2,0.2-0.3,0.3c-2.8,2.8-5.6,5.6-8.5,8.5c-0.1,0.1-0.2,0.2-0.3,0.3
		c-1.4,1.5-2.8,2.9-4.3,4.3c-0.2,0.1-0.2,0.2-0.4,0.3C24,44.4,23,45.4,22,46.4L22,46.4z"/>
	<path class="st21" d="M41.4,27.1c-0.9-0.9-1.8-1.7-2.6-2.6c-0.1-0.1-0.2-0.2-0.3-0.3v-0.1c0-0.1,0.1-0.2,0.2-0.3
		c1-1,1.9-1.9,2.9-2.9c0.1-0.1,0.2-0.2,0.3-0.2c0.5,0.3,0.8,0.8,1.2,1.2c0.6,0.5,1.1,1.1,1.6,1.7c0,0.2-0.1,0.2-0.2,0.3
		c-0.3,0.4-0.8,0.7-1,1.1C42.7,25.8,42,26.5,41.4,27.1z"/>
	<path class="st22" d="M29.7,38.8c0-0.2,0.1-0.3,0.2-0.4c2.8-2.8,5.7-5.7,8.5-8.5c0.1-0.1,0.2-0.2,0.4-0.2c-1.4,1.4-2.9,2.9-4.3,4.3
		C32.9,35.6,31.3,37.2,29.7,38.8z"/>
	<path class="st23" d="M22,46.4c0-0.2,0.2-0.3,0.4-0.4c0.9-0.9,1.8-1.8,2.6-2.6c0.1-0.1,0.2-0.2,0.4-0.2c-1.1,1.1-2.1,2.1-3.2,3.2
		C22.1,46.4,22.1,46.4,22,46.4z"/>
	<path class="st24" d="M43.4,25.1c0-0.2,0.1-0.3,0.2-0.4c0.3-0.4,0.7-0.7,1-1c0,0,0.1,0,0.1,0.1C44.3,24.2,43.9,24.6,43.4,25.1z"/>
	<path class="st25" d="M38.4,24.2L38.4,24.2c-0.4,0.2-0.6,0.6-0.9,0.9c-0.4,0.3-0.6,0.6-1,0.9c-4.4,4.4-8.9,8.9-13.3,13.3
		c-1.3,1.3-2.5,2.5-3.8,3.8c-0.1,0.1-0.2,0.2-0.3,0.4c-0.1,0-0.1,0-0.1-0.1c0.1-0.1,0-0.2,0-0.3v0.1c-0.1-0.3-0.1-0.6-0.2-1
		c-0.4-1.2-1.2-2.1-2.3-2.6c0.1-0.1,0.2-0.2,0.3-0.3c6-6,12.1-12.1,18.1-18.1c0.1-0.1,0.2-0.3,0.4-0.3c0.2-0.1,0.3,0,0.4,0.2
		c0.9,0.9,1.8,1.8,2.6,2.6C38.3,23.9,38.4,24,38.4,24.2z"/>
	<path class="st26" d="M38.4,24.2c-0.9-0.9-1.9-1.8-2.8-2.8c-0.1-0.1-0.3-0.2-0.4-0.4c0,0,0,0,0-0.1c1.1-1.1,2.2-2.3,3.4-3.4
		c1.1,1.1,2.1,2.1,3.2,3.2c-0.9,1-1.9,1.9-2.8,2.9C38.8,23.9,38.6,24,38.4,24.2z"/>
	<path class="st27" d="M19,43.3L19,43.3C19.1,43.1,19.1,43.2,19,43.3c0.1,0.1,0.1,0.1,0,0.2C19,43.4,19,43.3,19,43.3z"/>
</g>
</svg>
