<?xml version="1.0" encoding="utf-8"?>
<!-- Generator: Adobe Illustrator 19.2.1, SVG Export Plug-In . SVG Version: 6.00 Build 0)  -->
<svg version="1.1" id="object" xmlns="http://www.w3.org/2000/svg" xmlns:xlink="http://www.w3.org/1999/xlink" x="0px" y="0px"
	 width="250px" height="250px" viewBox="0 0 250 250" style="enable-background:new 0 0 250 250;" xml:space="preserve">
<style type="text/css">
	.st0{fill:#E4E5E6;}
	.st1{fill:#688947;}
	.st2{fill:#2F521E;}
	.st3{opacity:0.5;}
	.st4{fill:#F2F2F2;}
	.st5{fill:#7F9B67;}
	.st6{fill:#3C5F2B;}
	.st7{fill:#FFFFFF;}
	.st8{fill:#E3C62B;}
	.st9{fill:#D1B52B;}
	.st10{fill:#B49E23;}
	.st11{fill:#30251C;}
	.st12{opacity:0.8;fill:#FFFFFF;}
	.st13{fill:#9FB28E;}
	.st14{fill:#4E772E;}
	.st15{fill:#42372E;}
	.st16{opacity:0.8;}
</style>
<g>
	<ellipse class="st0" cx="128.6" cy="234.7" rx="109.3" ry="11.8"/>
	<g>
		<g>
			<path class="st1" d="M229.8,119.1c0.7,1,0.4,2.4-0.6,3.1l-55.5,38.4c-1,0.7-2.4,0.4-3.1-0.6l-15.2-22c-0.7-1-0.4-2.4,0.6-3.1
				l55.5-38.4c1-0.7,2.4-0.4,3.1,0.6L229.8,119.1z"/>
			<g>
				
					<ellipse transform="matrix(0.8219 -0.5696 0.5696 0.8219 -38.9302 132.6155)" class="st2" cx="192.6" cy="128.6" rx="10.6" ry="10.6"/>
				<g class="st3">
					<g>
						<path class="st4" d="M194.9,133.1c-0.5,0.2-1.1,0.3-1.7,0.4l0.4,0.5l-1.9,1.3l-2.2-3.2l1.9-1.3c0.4,0.4,0.9,0.6,1.4,0.6
							c0.5,0,1-0.1,1.4-0.4c0.3-0.2,0.5-0.4,0.5-0.6c0.1-0.2,0-0.4,0-0.5c-0.1-0.2-0.4-0.3-0.7-0.3c-0.3,0-0.7,0.1-1.1,0.3
							c-0.4,0.1-0.8,0.3-1.3,0.5c-0.5,0.2-1,0.3-1.4,0.3c-0.5,0-1-0.1-1.4-0.3c-0.5-0.2-0.9-0.6-1.3-1.1c-0.3-0.4-0.5-0.8-0.5-1.3
							c0-0.4,0-0.9,0.2-1.3c0.2-0.4,0.4-0.8,0.7-1.2c0.3-0.4,0.7-0.7,1.1-1l-0.8-1.2l1.5-1l1,1.4c0.3-0.1,0.6-0.2,0.8-0.2
							c0.2,0,0.5-0.1,0.6-0.1l-0.4-0.5l1.9-1.3l2.1,3.1l-1.9,1.3c-0.2-0.2-0.4-0.3-0.6-0.4c-0.2-0.1-0.5-0.1-0.7-0.2
							c-0.2,0-0.5,0-0.7,0.1c-0.2,0.1-0.5,0.2-0.6,0.3c-0.2,0.2-0.4,0.3-0.5,0.5c-0.1,0.2-0.1,0.4,0,0.6c0.1,0.2,0.4,0.3,0.7,0.2
							c0.3-0.1,0.7-0.2,1.1-0.3c0.4-0.1,0.9-0.3,1.3-0.5c0.5-0.2,1-0.3,1.5-0.3c0.5,0,1,0.1,1.5,0.3c0.5,0.2,0.9,0.6,1.3,1.2
							c0.3,0.4,0.5,0.9,0.5,1.3c0,0.4,0,0.9-0.2,1.3c-0.2,0.4-0.4,0.8-0.7,1.2c-0.3,0.4-0.7,0.7-1.1,1.1l0.8,1.2l-1.5,1L194.9,133.1
							z"/>
					</g>
				</g>
			</g>
			<path class="st2" d="M228.5,120.8l-55.7,38.6L157,136.7L212.7,98L228.5,120.8z M173.2,157.1l53-36.7l-13.9-20l-53,36.7
				L173.2,157.1z"/>
			<path class="st2" d="M163.6,132.7l-5.6,3.9l3.8,5.5c0.1-0.1,0.2-0.1,0.3-0.2C165,139.8,165.7,135.7,163.6,132.7
				C163.7,132.7,163.6,132.7,163.6,132.7z"/>
			<path class="st2" d="M169.1,152.4l3.9,5.6l5.5-3.8c-0.1-0.1-0.1-0.2-0.2-0.3C176.2,151,172.1,150.3,169.1,152.4
				C169.1,152.4,169.1,152.4,169.1,152.4z"/>
			<path class="st2" d="M221.8,124.6l5.6-3.9l-3.8-5.5c-0.1,0.1-0.2,0.1-0.3,0.2C220.4,117.5,219.6,121.5,221.8,124.6
				C221.7,124.5,221.7,124.6,221.8,124.6z"/>
			<path class="st2" d="M216.3,104.8l-3.9-5.6l-5.5,3.8c0.1,0.1,0.1,0.2,0.2,0.3C209.2,106.2,213.2,107,216.3,104.8
				C216.2,104.9,216.3,104.9,216.3,104.8z"/>
		</g>
		<g>
			<path class="st1" d="M33.8,108.4c-1,0.8-1.1,2.2-0.4,3.1l42,52.8c0.8,1,2.2,1.1,3.1,0.4L99.5,148c1-0.8,1.1-2.2,0.4-3.1l-42-52.8
				c-0.8-1-2.2-1.1-3.1-0.4L33.8,108.4z"/>
			<g>
				
					<ellipse transform="matrix(0.7824 -0.6228 0.6228 0.7824 -65.3532 69.4014)" class="st2" cx="66.6" cy="128.2" rx="10.6" ry="10.6"/>
				<g class="st3">
					<g>
						<path class="st4" d="M61.9,132.9l-1.1-1.4l1.1-0.9c-0.3-0.4-0.6-0.9-0.8-1.3c-0.2-0.5-0.3-0.9-0.4-1.4c0-0.4,0-0.9,0.2-1.3
							c0.2-0.4,0.4-0.8,0.9-1.1c0.6-0.4,1.1-0.7,1.6-0.7c0.5,0,1,0,1.5,0.2c0.5,0.2,0.9,0.4,1.3,0.7c0.4,0.3,0.8,0.6,1.2,0.8
							c0.4,0.3,0.7,0.5,0.9,0.6c0.3,0.1,0.5,0.1,0.7,0c0.2-0.1,0.2-0.3,0.2-0.5c0-0.2-0.1-0.4-0.3-0.7c-0.1-0.2-0.3-0.3-0.5-0.5
							c-0.2-0.1-0.4-0.2-0.7-0.3c-0.2-0.1-0.5-0.1-0.7,0c-0.2,0-0.5,0.1-0.7,0.2l-1.5-1.8l2.9-2.3l1.5,1.8l-0.5,0.4
							c0.2,0.1,0.4,0.2,0.6,0.3c0.2,0.1,0.5,0.3,0.7,0.4l1.3-1.1l1.1,1.4l-1.2,0.9c0.3,0.4,0.6,0.9,0.8,1.3c0.2,0.5,0.3,0.9,0.3,1.4
							c0,0.5-0.1,0.9-0.2,1.3c-0.2,0.4-0.4,0.8-0.8,1.1c-0.5,0.4-1.1,0.7-1.6,0.7c-0.5,0-1,0-1.4-0.2c-0.5-0.2-0.9-0.4-1.3-0.7
							c-0.4-0.3-0.8-0.6-1.1-0.8c-0.3-0.3-0.7-0.4-0.9-0.6c-0.3-0.1-0.5-0.1-0.7,0c-0.1,0.1-0.2,0.2-0.2,0.5c0,0.2,0.1,0.5,0.3,0.7
							c0.3,0.4,0.7,0.7,1.2,0.8c0.5,0.1,1,0.1,1.5-0.2l1.4,1.8l-3,2.4l-1.4-1.8l0.5-0.4c-0.6-0.2-1.1-0.5-1.5-0.9L61.9,132.9z"/>
					</g>
				</g>
			</g>
			<path class="st2" d="M56.2,93.2l42.2,53l-21.7,17.3l-42.2-53L56.2,93.2z M96.1,146L55.9,95.5l-19.1,15.2L77,161.2L96.1,146z"/>
			<path class="st2" d="M93.2,140.5l4.3,5.4l-5.2,4.1c-0.1-0.1-0.1-0.2-0.2-0.2C89.9,147,90.3,142.8,93.2,140.5
				C93.2,140.6,93.2,140.6,93.2,140.5z"/>
			<path class="st2" d="M82.3,157.9l-5.4,4.3l-4.1-5.2c0.1-0.1,0.2-0.1,0.2-0.2C75.9,154.5,80,154.9,82.3,157.9
				C82.3,157.8,82.3,157.8,82.3,157.9z"/>
			<path class="st2" d="M39.9,116l-4.3-5.4l5.2-4.1c0.1,0.1,0.1,0.2,0.2,0.2C43.3,109.6,42.8,113.7,39.9,116
				C40,116,39.9,116,39.9,116z"/>
			<path class="st2" d="M50.8,98.7l5.4-4.3l4.1,5.2c-0.1,0.1-0.2,0.1-0.2,0.2C57.3,102.1,53.1,101.6,50.8,98.7
				C50.9,98.7,50.9,98.7,50.8,98.7z"/>
		</g>
		<g>
			<path class="st1" d="M46.4,209.5c0.8,0.9,2.2,1.1,3.1,0.3l52.2-42.8c0.9-0.8,1.1-2.2,0.3-3.1l-17-20.7c-0.8-0.9-2.2-1.1-3.1-0.3
				l-52.2,42.8c-0.9,0.8-1.1,2.2-0.3,3.1L46.4,209.5z"/>
			<g>
				
					<ellipse transform="matrix(0.7735 -0.6338 0.6338 0.7735 -96.8575 81.6032)" class="st2" cx="65.7" cy="176.3" rx="10.6" ry="10.6"/>
				<g class="st3">
					<g>
						<path class="st4" d="M70.4,180.9l-1.4,1.1l-0.9-1.1c-0.4,0.3-0.9,0.6-1.3,0.8c-0.5,0.2-0.9,0.3-1.4,0.4c-0.4,0-0.9,0-1.3-0.2
							c-0.4-0.2-0.8-0.4-1.1-0.8c-0.4-0.5-0.7-1.1-0.8-1.6c-0.1-0.5,0-1,0.2-1.5c0.2-0.5,0.4-0.9,0.7-1.3c0.3-0.4,0.6-0.8,0.8-1.2
							c0.2-0.4,0.4-0.7,0.6-1c0.1-0.3,0.1-0.5,0-0.7c-0.1-0.2-0.3-0.2-0.5-0.2c-0.2,0-0.4,0.1-0.7,0.3c-0.2,0.1-0.3,0.3-0.5,0.5
							c-0.1,0.2-0.2,0.4-0.3,0.7c-0.1,0.2-0.1,0.5,0,0.7c0,0.2,0.1,0.5,0.2,0.7l-1.8,1.5l-2.4-2.9l1.8-1.5l0.4,0.5
							c0.1-0.2,0.1-0.4,0.3-0.6c0.1-0.2,0.3-0.5,0.4-0.7l-1.1-1.3l1.4-1.1l0.9,1.2c0.4-0.3,0.9-0.6,1.3-0.8c0.5-0.2,0.9-0.3,1.4-0.3
							c0.5,0,0.9,0,1.3,0.2c0.4,0.2,0.8,0.4,1.1,0.8c0.4,0.5,0.7,1.1,0.7,1.6c0.1,0.5,0,1-0.2,1.5c-0.2,0.5-0.4,0.9-0.7,1.3
							c-0.3,0.4-0.6,0.8-0.8,1.1c-0.2,0.3-0.4,0.7-0.6,1c-0.1,0.3-0.1,0.5,0.1,0.7c0.1,0.1,0.3,0.2,0.5,0.2c0.2,0,0.5-0.1,0.7-0.3
							c0.4-0.3,0.6-0.7,0.8-1.2c0.1-0.5,0-1-0.2-1.5l1.8-1.5l2.4,3l-1.8,1.5l-0.4-0.5c-0.2,0.6-0.5,1.1-0.8,1.5L70.4,180.9z"/>
					</g>
				</g>
			</g>
			<path class="st2" d="M30.9,187.2l52.4-43l17.6,21.4l-52.4,43L30.9,187.2z M83.1,146.6l-49.8,40.8l15.5,18.9l49.8-40.8L83.1,146.6
				z"/>
			<path class="st2" d="M77.7,149.5l5.3-4.3l4.2,5.1c-0.1,0.1-0.2,0.1-0.2,0.2C84.1,152.8,80,152.4,77.7,149.5
				C77.7,149.6,77.7,149.6,77.7,149.5z"/>
			<path class="st2" d="M95.1,160.2l4.3,5.3l-5.1,4.2c-0.1-0.1-0.1-0.2-0.2-0.2C91.9,166.7,92.3,162.6,95.1,160.2
				C95.1,160.2,95.1,160.2,95.1,160.2z"/>
			<path class="st2" d="M53.9,203.2l-5.3,4.3l-4.2-5.1c0.1-0.1,0.2-0.1,0.2-0.2C47.4,199.9,51.5,200.3,53.9,203.2
				C53.9,203.1,53.9,203.2,53.9,203.2z"/>
			<path class="st2" d="M36.4,192.5l-4.3-5.3l5.1-4.2c0.1,0.1,0.1,0.2,0.2,0.2C39.7,186,39.3,190.2,36.4,192.5
				C36.5,192.5,36.4,192.5,36.4,192.5z"/>
		</g>
		<g>
			<path class="st5" d="M236.4,150.2c0.2,1.2-0.7,2.3-1.9,2.5l-66.8,9.5c-1.2,0.2-2.3-0.7-2.5-1.9l-3.8-26.5
				c-0.2-1.2,0.7-2.3,1.9-2.5l66.8-9.5c1.2-0.2,2.3,0.7,2.5,1.9L236.4,150.2z"/>
			<g>
				
					<ellipse transform="matrix(0.9901 -0.1405 0.1405 0.9901 -17.982 29.3482)" class="st6" cx="198.9" cy="142.1" rx="10.6" ry="10.6"/>
				<g class="st3">
					<g>
						<path class="st7" d="M198.9,147.1c-0.5,0-1.1-0.2-1.7-0.4l0.1,0.6l-2.3,0.3l-0.5-3.8l2.3-0.3c0.2,0.5,0.5,0.9,1,1.2
							c0.4,0.3,0.9,0.3,1.4,0.3c0.3,0,0.6-0.2,0.7-0.3c0.1-0.2,0.2-0.3,0.2-0.5c0-0.3-0.2-0.4-0.5-0.5c-0.3-0.1-0.7-0.2-1.1-0.2
							c-0.4-0.1-0.9-0.1-1.4-0.2c-0.5-0.1-1-0.2-1.4-0.4c-0.4-0.2-0.8-0.5-1.2-0.9c-0.3-0.4-0.6-0.9-0.7-1.6c-0.1-0.5,0-1,0.1-1.4
							c0.2-0.4,0.4-0.8,0.7-1.1c0.3-0.3,0.7-0.6,1.2-0.8c0.5-0.2,1-0.4,1.5-0.4l-0.2-1.5l1.8-0.3l0.2,1.7c0.3,0,0.6,0.1,0.8,0.2
							c0.2,0.1,0.4,0.1,0.6,0.2l-0.1-0.6l2.3-0.3l0.5,3.7l-2.3,0.3c-0.1-0.2-0.2-0.4-0.3-0.6c-0.2-0.2-0.3-0.3-0.5-0.5
							c-0.2-0.1-0.4-0.2-0.7-0.3c-0.2-0.1-0.5-0.1-0.7,0c-0.3,0-0.5,0.1-0.7,0.3c-0.2,0.1-0.2,0.3-0.2,0.5c0,0.3,0.2,0.4,0.5,0.5
							c0.3,0.1,0.7,0.2,1.1,0.2c0.4,0.1,0.9,0.1,1.4,0.2c0.5,0.1,1,0.2,1.4,0.4c0.4,0.2,0.8,0.5,1.2,0.9c0.3,0.4,0.6,0.9,0.7,1.6
							c0.1,0.5,0,1-0.1,1.4c-0.2,0.4-0.4,0.8-0.7,1.1c-0.3,0.3-0.7,0.6-1.2,0.7c-0.5,0.2-1,0.3-1.5,0.4l0.2,1.4l-1.8,0.3
							L198.9,147.1z"/>
					</g>
				</g>
			</g>
			<path class="st6" d="M234.4,151.2l-67.1,9.5l-3.9-27.5l67.1-9.5L234.4,151.2z M168.7,158.9l63.8-9.1l-3.4-24.1l-63.8,9.1
				L168.7,158.9z"/>
			<path class="st6" d="M171.1,132.7l-6.8,1l0.9,6.6c0.1,0,0.2,0,0.3,0c3.6-0.5,6.1-3.8,5.6-7.4
				C171.1,132.8,171.1,132.8,171.1,132.7z"/>
			<path class="st6" d="M167.1,152.8l1,6.8l6.6-0.9c0-0.1,0-0.2,0-0.3c-0.5-3.6-3.8-6.1-7.4-5.6
				C167.2,152.8,167.2,152.8,167.1,152.8z"/>
			<path class="st6" d="M226.7,151.5l6.8-1l-0.9-6.6c-0.1,0-0.2,0-0.3,0c-3.6,0.5-6.1,3.8-5.6,7.4
				C226.7,151.5,226.7,151.5,226.7,151.5z"/>
			<path class="st6" d="M230.7,131.4l-1-6.8l-6.6,0.9c0,0.1,0,0.2,0,0.3c0.5,3.6,3.8,6.1,7.4,5.6
				C230.6,131.5,230.6,131.5,230.7,131.4z"/>
		</g>
		<g>
			<path class="st1" d="M239.1,194c-0.3,1.2-1.5,1.9-2.7,1.6l-65.6-16c-1.2-0.3-1.9-1.5-1.6-2.7l6.3-26c0.3-1.2,1.5-1.9,2.7-1.6
				l65.6,16c1.2,0.3,1.9,1.5,1.6,2.7L239.1,194z"/>
			<g>
				
					<ellipse transform="matrix(0.2369 -0.9715 0.9715 0.2369 -9.353 333.0038)" class="st6" cx="207.3" cy="172.5" rx="10.6" ry="10.6"/>
				<g class="st3">
					<g>
						<path class="st7" d="M205.4,177.1c-0.5-0.2-0.9-0.6-1.4-1l-0.1,0.6l-2.2-0.5l0.9-3.7l2.2,0.5c0,0.6,0.2,1.1,0.5,1.5
							c0.3,0.4,0.7,0.7,1.2,0.8c0.3,0.1,0.6,0.1,0.8,0c0.2-0.1,0.3-0.2,0.3-0.4c0.1-0.2,0-0.5-0.3-0.7c-0.2-0.2-0.5-0.4-0.9-0.6
							c-0.4-0.2-0.8-0.4-1.2-0.7c-0.4-0.2-0.8-0.5-1.2-0.9c-0.3-0.4-0.6-0.8-0.8-1.2c-0.2-0.5-0.2-1.1,0-1.7
							c0.1-0.5,0.3-0.9,0.6-1.2c0.3-0.3,0.7-0.6,1.1-0.7c0.4-0.2,0.9-0.3,1.4-0.3c0.5,0,1,0,1.5,0.2l0.4-1.4l1.8,0.4l-0.4,1.7
							c0.3,0.1,0.5,0.3,0.7,0.5c0.2,0.2,0.4,0.3,0.5,0.4l0.2-0.6l2.3,0.6l-0.9,3.6l-2.3-0.6c0-0.2,0-0.5-0.1-0.7
							c-0.1-0.2-0.2-0.4-0.3-0.6c-0.1-0.2-0.3-0.3-0.5-0.5c-0.2-0.1-0.4-0.2-0.6-0.3c-0.3-0.1-0.5-0.1-0.7,0
							c-0.2,0.1-0.3,0.2-0.4,0.4c-0.1,0.2,0,0.5,0.3,0.7c0.2,0.2,0.6,0.4,0.9,0.6c0.4,0.2,0.8,0.4,1.2,0.7c0.4,0.3,0.8,0.6,1.2,0.9
							c0.3,0.4,0.6,0.8,0.8,1.3c0.2,0.5,0.2,1.1,0,1.8c-0.1,0.5-0.3,0.9-0.6,1.2c-0.3,0.3-0.7,0.6-1.1,0.7c-0.4,0.2-0.9,0.2-1.4,0.3
							c-0.5,0-1,0-1.5-0.1l-0.3,1.4l-1.8-0.4L205.4,177.1z"/>
					</g>
				</g>
			</g>
			<path class="st6" d="M236.9,194.2L171,178.1l6.6-26.9l65.9,16.1L236.9,194.2z M173.1,176.9l62.6,15.3l5.8-23.7l-62.6-15.3
				L173.1,176.9z"/>
			<path class="st6" d="M185,153.5l-6.7-1.6l-1.6,6.4c0.1,0,0.2,0.1,0.3,0.1c3.5,0.9,7.1-1.3,7.9-4.8
				C184.9,153.5,184.9,153.5,185,153.5z"/>
			<path class="st6" d="M173.8,170.7l-1.6,6.7l6.4,1.6c0-0.1,0.1-0.2,0.1-0.3c0.9-3.5-1.3-7.1-4.8-7.9
				C173.9,170.7,173.8,170.7,173.8,170.7z"/>
			<path class="st6" d="M229.6,191.6l6.7,1.6l1.6-6.4c-0.1,0-0.2-0.1-0.3-0.1c-3.5-0.9-7.1,1.3-7.9,4.8
				C229.6,191.5,229.6,191.6,229.6,191.6z"/>
			<path class="st6" d="M240.7,174.4l1.6-6.7l-6.4-1.6c0,0.1-0.1,0.2-0.1,0.3c-0.9,3.5,1.3,7.1,4.8,7.9
				C240.7,174.4,240.7,174.4,240.7,174.4z"/>
		</g>
		<g>
			<path class="st5" d="M208.3,209.6c-0.8,0.9-2.2,1.1-3.1,0.3L153,167.1c-0.9-0.8-1.1-2.2-0.3-3.1l17-20.7c0.8-0.9,2.2-1.1,3.1-0.3
				l52.2,42.8c0.9,0.8,1.1,2.2,0.3,3.1L208.3,209.6z"/>
			<g>
				
					<ellipse transform="matrix(0.6338 -0.7735 0.7735 0.6338 -67.2779 210.7818)" class="st6" cx="189" cy="176.4" rx="10.6" ry="10.6"/>
				<g class="st3">
					<g>
						<path class="st7" d="M185.3,179.9c-0.3-0.4-0.6-0.9-0.8-1.5l-0.4,0.5l-1.8-1.5l2.4-3l1.8,1.5c-0.3,0.5-0.3,1-0.2,1.5
							c0.1,0.5,0.4,0.9,0.8,1.2c0.3,0.2,0.5,0.3,0.7,0.3c0.2,0,0.4-0.1,0.5-0.2c0.2-0.2,0.2-0.4,0.1-0.7c-0.1-0.3-0.3-0.6-0.6-1
							c-0.2-0.3-0.5-0.7-0.8-1.1c-0.3-0.4-0.5-0.9-0.7-1.3c-0.2-0.5-0.2-0.9-0.2-1.5c0.1-0.5,0.3-1,0.7-1.6c0.3-0.4,0.7-0.7,1.1-0.8
							c0.4-0.2,0.9-0.2,1.3-0.2c0.5,0,0.9,0.1,1.4,0.3c0.5,0.2,0.9,0.5,1.3,0.8l0.9-1.2l1.4,1.1l-1.1,1.3c0.2,0.2,0.3,0.5,0.4,0.7
							c0.1,0.2,0.2,0.4,0.3,0.6l0.4-0.5l1.8,1.5l-2.4,2.9l-1.8-1.5c0.1-0.2,0.2-0.4,0.2-0.7c0-0.2,0-0.5,0-0.7
							c-0.1-0.2-0.1-0.5-0.3-0.7c-0.1-0.2-0.3-0.4-0.5-0.5c-0.2-0.2-0.4-0.3-0.7-0.3c-0.2,0-0.4,0-0.5,0.2c-0.2,0.2-0.2,0.4,0,0.7
							c0.1,0.3,0.3,0.6,0.6,1c0.2,0.4,0.5,0.7,0.8,1.2c0.3,0.4,0.5,0.9,0.7,1.3c0.2,0.5,0.2,1,0.2,1.5c-0.1,0.5-0.3,1-0.8,1.6
							c-0.3,0.4-0.7,0.7-1.1,0.8c-0.4,0.2-0.8,0.2-1.3,0.2c-0.4,0-0.9-0.2-1.4-0.4c-0.5-0.2-0.9-0.5-1.3-0.8l-0.9,1.1l-1.4-1.1
							L185.3,179.9z"/>
					</g>
				</g>
			</g>
			<path class="st6" d="M206.3,208.8l-52.4-43l17.6-21.4l52.4,43L206.3,208.8z M156.2,165.6l49.8,40.8l15.5-18.9l-49.8-40.8
				L156.2,165.6z"/>
			<path class="st6" d="M177.1,149.7l-5.3-4.3l-4.2,5.1c0.1,0.1,0.2,0.1,0.2,0.2C170.6,153,174.7,152.6,177.1,149.7
				C177,149.7,177,149.7,177.1,149.7z"/>
			<path class="st6" d="M159.6,160.4l-4.3,5.3l5.1,4.2c0.1-0.1,0.1-0.2,0.2-0.2C162.9,166.8,162.5,162.7,159.6,160.4
				C159.6,160.4,159.6,160.4,159.6,160.4z"/>
			<path class="st6" d="M200.8,203.3l5.3,4.3l4.2-5.1c-0.1-0.1-0.2-0.1-0.2-0.2C207.3,200.1,203.2,200.5,200.8,203.3
				C200.9,203.3,200.8,203.3,200.8,203.3z"/>
			<path class="st6" d="M218.3,192.7l4.3-5.3l-5.1-4.2c-0.1,0.1-0.1,0.2-0.2,0.2C215,186.2,215.4,190.3,218.3,192.7
				C218.2,192.6,218.3,192.6,218.3,192.7z"/>
		</g>
		<g>
			<path class="st5" d="M70,96.7c-1.2,0.2-2.1,1.3-1.9,2.5l9.6,66.8c0.2,1.2,1.3,2.1,2.5,1.9l26.5-3.8c1.2-0.2,2.1-1.3,1.9-2.5
				L99,94.8c-0.2-1.2-1.3-2.1-2.5-1.9L70,96.7z"/>
			<g>
				
					<ellipse transform="matrix(0.9899 -0.1419 0.1419 0.9899 -17.6106 13.8616)" class="st6" cx="88.4" cy="130.4" rx="10.6" ry="10.6"/>
				<g class="st3">
					<g>
						<path class="st7" d="M82,132l-0.3-1.8l1.4-0.2c-0.1-0.5,0-1,0-1.5c0.1-0.5,0.2-0.9,0.4-1.4c0.2-0.4,0.5-0.7,0.8-1
							c0.3-0.3,0.8-0.4,1.3-0.5c0.7-0.1,1.3,0,1.8,0.2c0.5,0.2,0.9,0.5,1.2,0.9c0.3,0.4,0.6,0.8,0.8,1.3c0.2,0.5,0.4,0.9,0.6,1.3
							c0.2,0.4,0.3,0.7,0.5,1c0.2,0.3,0.4,0.4,0.6,0.3c0.2,0,0.3-0.1,0.4-0.3c0.1-0.2,0.1-0.4,0.1-0.7c0-0.2-0.1-0.5-0.2-0.7
							c-0.1-0.2-0.3-0.4-0.4-0.6c-0.2-0.2-0.4-0.3-0.6-0.4c-0.2-0.1-0.5-0.2-0.7-0.2l-0.3-2.3l3.7-0.5l0.3,2.3l-0.6,0.1
							c0.1,0.1,0.2,0.3,0.4,0.5c0.1,0.2,0.3,0.5,0.4,0.7l1.7-0.2l0.3,1.8l-1.5,0.2c0.1,0.5,0.1,1,0,1.5c-0.1,0.5-0.2,1-0.4,1.4
							c-0.2,0.4-0.5,0.7-0.8,1c-0.4,0.3-0.8,0.4-1.3,0.5c-0.7,0.1-1.3,0-1.7-0.2c-0.5-0.2-0.8-0.5-1.2-0.9c-0.3-0.4-0.6-0.8-0.8-1.2
							c-0.2-0.5-0.4-0.9-0.6-1.3c-0.2-0.4-0.3-0.7-0.5-1c-0.2-0.3-0.4-0.4-0.6-0.3c-0.2,0-0.3,0.1-0.4,0.3c-0.1,0.2-0.1,0.4-0.1,0.8
							c0.1,0.5,0.3,0.9,0.7,1.3c0.4,0.4,0.8,0.6,1.4,0.6l0.3,2.3l-3.8,0.5l-0.3-2.3l0.6-0.1c-0.4-0.5-0.7-1-0.9-1.5L82,132z"/>
					</g>
				</g>
			</g>
			<path class="st6" d="M97.1,94.9l9.6,67.1L79.3,166l-9.6-67.1L97.1,94.9z M104.8,160.6l-9.1-63.8l-24.1,3.5l9.1,63.8L104.8,160.6z
				"/>
			<path class="st6" d="M105.1,154.5l1,6.8l-6.6,0.9c0-0.1,0-0.2-0.1-0.3c-0.5-3.6,2-6.9,5.6-7.4C105,154.5,105.1,154.5,105.1,154.5
				z"/>
			<path class="st6" d="M86.9,163.9l-6.8,1l-0.9-6.6c0.1,0,0.2,0,0.3-0.1c3.6-0.5,6.9,2,7.4,5.6C86.9,163.8,86.9,163.9,86.9,163.9z"
				/>
			<path class="st6" d="M71.5,106.4l-1-6.8l6.6-0.9c0,0.1,0,0.2,0.1,0.3c0.5,3.6-2,6.9-5.6,7.4C71.6,106.4,71.5,106.4,71.5,106.4z"
				/>
			<path class="st6" d="M89.7,96.9l6.8-1l0.9,6.6c-0.1,0-0.2,0-0.3,0.1c-3.6,0.5-6.9-2-7.4-5.6C89.7,97,89.7,97,89.7,96.9z"/>
		</g>
		<g>
			<path class="st5" d="M20.2,145.7c-0.2,1.2,0.7,2.3,1.9,2.5l66.8,9.5c1.2,0.2,2.3-0.7,2.5-1.9l3.8-26.5c0.2-1.2-0.7-2.3-1.9-2.5
				l-66.8-9.5c-1.2-0.2-2.3,0.7-2.5,1.9L20.2,145.7z"/>
			<g>
				
					<ellipse transform="matrix(0.1405 -0.9901 0.9901 0.1405 -86.6114 175.3476)" class="st6" cx="57.7" cy="137.6" rx="10.6" ry="10.6"/>
				<g class="st3">
					<g>
						<path class="st7" d="M57.5,144.2l-1.8-0.3l0.2-1.4c-0.5-0.1-1-0.2-1.5-0.4c-0.5-0.2-0.9-0.4-1.2-0.7c-0.3-0.3-0.6-0.7-0.7-1.1
							c-0.2-0.4-0.2-0.9-0.1-1.4c0.1-0.7,0.3-1.2,0.7-1.6c0.3-0.4,0.7-0.7,1.2-0.9c0.5-0.2,0.9-0.3,1.4-0.4c0.5-0.1,1-0.1,1.4-0.2
							c0.4-0.1,0.8-0.1,1.1-0.2c0.3-0.1,0.5-0.3,0.5-0.5c0-0.2,0-0.4-0.2-0.5c-0.2-0.1-0.4-0.2-0.7-0.3c-0.2,0-0.5,0-0.7,0
							c-0.2,0.1-0.5,0.1-0.7,0.3c-0.2,0.1-0.4,0.3-0.5,0.5c-0.2,0.2-0.3,0.4-0.3,0.6l-2.3-0.3l0.5-3.7l2.3,0.3l-0.1,0.6
							c0.2-0.1,0.4-0.1,0.6-0.2c0.2-0.1,0.5-0.1,0.8-0.2l0.2-1.7l1.8,0.3l-0.2,1.5c0.5,0.1,1,0.2,1.5,0.4c0.5,0.2,0.9,0.5,1.2,0.8
							c0.3,0.3,0.6,0.7,0.7,1.1c0.2,0.4,0.2,0.9,0.1,1.4c-0.1,0.7-0.3,1.2-0.7,1.6c-0.3,0.4-0.7,0.7-1.2,0.9
							c-0.4,0.2-0.9,0.3-1.4,0.4c-0.5,0.1-1,0.1-1.4,0.2c-0.4,0.1-0.8,0.1-1.1,0.2c-0.3,0.1-0.5,0.3-0.5,0.5c0,0.2,0,0.3,0.2,0.5
							c0.1,0.2,0.4,0.3,0.7,0.3c0.5,0.1,1,0,1.4-0.3c0.4-0.3,0.8-0.6,1-1.2l2.3,0.3l-0.5,3.8l-2.3-0.3l0.1-0.6
							c-0.6,0.2-1.2,0.4-1.7,0.4L57.5,144.2z"/>
					</g>
				</g>
			</g>
			<path class="st6" d="M26,119.3l67.1,9.5l-3.9,27.5l-67.1-9.5L26,119.3z M91.3,130.2l-63.8-9.1L24,145.3l63.8,9.1L91.3,130.2z"/>
			<path class="st6" d="M85.5,128.2l6.8,1l-0.9,6.6c-0.1,0-0.2,0-0.3,0c-3.6-0.5-6.1-3.8-5.6-7.4C85.5,128.3,85.5,128.3,85.5,128.2z
				"/>
			<path class="st6" d="M89.4,148.3l-1,6.8l-6.6-0.9c0-0.1,0-0.2,0-0.3c0.5-3.6,3.8-6.1,7.4-5.6C89.4,148.3,89.4,148.3,89.4,148.3z"
				/>
			<path class="st6" d="M29.9,147.1l-6.8-1l0.9-6.6c0.1,0,0.2,0,0.3,0c3.6,0.5,6.1,3.8,5.6,7.4C29.9,147,29.9,147,29.9,147.1z"/>
			<path class="st6" d="M25.9,127l1-6.8l6.6,0.9c0,0.1,0,0.2,0,0.3c-0.5,3.6-3.8,6.1-7.4,5.6C26,127,25.9,127,25.9,127z"/>
		</g>
		<g>
			<path class="st5" d="M10.7,191.5c0.3,1.2,1.5,1.9,2.7,1.6l65.6-16c1.2-0.3,1.9-1.5,1.6-2.7l-6.3-26c-0.3-1.2-1.5-1.9-2.7-1.6
				L6,162.8c-1.2,0.3-1.9,1.5-1.6,2.7L10.7,191.5z"/>
			<g>
				
					<ellipse transform="matrix(0.9715 -0.2369 0.2369 0.9715 -39.0467 14.8954)" class="st6" cx="42.5" cy="169.9" rx="10.6" ry="10.6"/>
				<g class="st3">
					<g>
						<path class="st7" d="M44.7,176.2l-1.8,0.4l-0.3-1.4c-0.5,0.1-1,0.2-1.5,0.1c-0.5,0-1-0.1-1.4-0.3c-0.4-0.2-0.8-0.4-1.1-0.7
							c-0.3-0.3-0.5-0.7-0.6-1.2c-0.2-0.7-0.2-1.3,0-1.8c0.2-0.5,0.4-0.9,0.8-1.3c0.3-0.4,0.7-0.7,1.2-0.9c0.5-0.3,0.9-0.5,1.2-0.7
							c0.4-0.2,0.7-0.4,0.9-0.6c0.2-0.2,0.3-0.4,0.3-0.7c0-0.2-0.2-0.3-0.4-0.4c-0.2-0.1-0.5-0.1-0.7,0c-0.2,0.1-0.4,0.2-0.6,0.3
							c-0.2,0.1-0.4,0.3-0.5,0.5c-0.1,0.2-0.3,0.4-0.3,0.6c-0.1,0.2-0.1,0.5-0.1,0.7l-2.3,0.6l-0.9-3.6l2.3-0.6l0.2,0.6
							c0.1-0.1,0.3-0.3,0.5-0.4c0.2-0.2,0.4-0.3,0.7-0.5l-0.4-1.7l1.8-0.4l0.4,1.4c0.5-0.1,1-0.2,1.5-0.2c0.5,0,1,0.1,1.4,0.3
							c0.4,0.2,0.8,0.4,1.1,0.7c0.3,0.3,0.5,0.7,0.6,1.2c0.2,0.7,0.2,1.2,0,1.7c-0.2,0.5-0.4,0.9-0.8,1.2c-0.3,0.4-0.7,0.6-1.2,0.9
							c-0.4,0.2-0.8,0.5-1.2,0.7c-0.4,0.2-0.7,0.4-0.9,0.6c-0.2,0.2-0.3,0.4-0.3,0.7c0,0.2,0.1,0.3,0.3,0.4c0.2,0.1,0.5,0.1,0.8,0
							c0.5-0.1,0.9-0.4,1.2-0.8c0.3-0.4,0.5-0.9,0.5-1.5l2.2-0.5l0.9,3.7l-2.2,0.5l-0.1-0.6c-0.5,0.4-0.9,0.8-1.4,1L44.7,176.2z"/>
					</g>
				</g>
			</g>
			<path class="st6" d="M6.3,164.7l65.9-16.1l6.6,26.9l-65.9,16.1L6.3,164.7z M70.9,150.7L8.3,165.9l5.8,23.7l62.6-15.3L70.9,150.7z
				"/>
			<path class="st6" d="M64.8,151l6.7-1.6l1.6,6.4c-0.1,0-0.2,0.1-0.3,0.1c-3.5,0.9-7.1-1.3-7.9-4.8C64.8,151,64.8,151,64.8,151z"/>
			<path class="st6" d="M75.9,168.2l1.6,6.7l-6.4,1.6c0-0.1-0.1-0.2-0.1-0.3c-0.9-3.5,1.3-7.1,4.8-7.9
				C75.9,168.2,75.9,168.2,75.9,168.2z"/>
			<path class="st6" d="M20.2,189.1l-6.7,1.6l-1.6-6.4c0.1,0,0.2-0.1,0.3-0.1c3.5-0.9,7.1,1.3,7.9,4.8C20.2,189,20.2,189,20.2,189.1
				z"/>
			<path class="st6" d="M9,171.9l-1.6-6.7l6.4-1.6c0,0.1,0.1,0.2,0.1,0.3c0.9,3.5-1.3,7.1-4.8,7.9C9.1,171.9,9.1,171.9,9,171.9z"/>
		</g>
		<g>
			<circle class="st8" cx="186.9" cy="92.9" r="10.8"/>
			<circle class="st9" cx="187" cy="93" r="8.7"/>
			<g class="st3">
				<g>
					<path class="st7" d="M186.3,96.6c-0.4-0.1-0.8-0.3-1.2-0.5v0.5h-1.7v-2.9h1.7c0.1,0.4,0.3,0.7,0.6,1c0.3,0.2,0.7,0.4,1,0.4
						c0.3,0,0.5-0.1,0.6-0.1c0.1-0.1,0.2-0.2,0.2-0.3c0-0.2-0.1-0.3-0.3-0.4c-0.2-0.1-0.5-0.2-0.8-0.3c-0.3-0.1-0.6-0.2-1-0.3
						c-0.4-0.1-0.7-0.3-1-0.4c-0.3-0.2-0.6-0.5-0.8-0.8c-0.2-0.3-0.3-0.7-0.3-1.3c0-0.4,0.1-0.7,0.2-1c0.2-0.3,0.4-0.5,0.7-0.7
						c0.3-0.2,0.6-0.4,1-0.5c0.4-0.1,0.7-0.2,1.1-0.2v-1.1h1.4v1.3c0.2,0.1,0.4,0.1,0.6,0.2c0.2,0.1,0.3,0.2,0.4,0.2v-0.5h1.8v2.8
						h-1.8c0-0.2-0.1-0.3-0.2-0.5c-0.1-0.2-0.2-0.3-0.4-0.4c-0.1-0.1-0.3-0.2-0.5-0.3c-0.2-0.1-0.3-0.1-0.5-0.1
						c-0.2,0-0.4,0-0.5,0.1c-0.1,0.1-0.2,0.2-0.2,0.4c0,0.2,0.1,0.3,0.3,0.4c0.2,0.1,0.5,0.2,0.8,0.3c0.3,0.1,0.7,0.2,1,0.3
						c0.4,0.1,0.7,0.3,1,0.4c0.3,0.2,0.6,0.5,0.8,0.8c0.2,0.3,0.3,0.8,0.3,1.3c0,0.4-0.1,0.7-0.2,1c-0.2,0.3-0.4,0.5-0.7,0.7
						c-0.3,0.2-0.6,0.3-1,0.4c-0.4,0.1-0.7,0.2-1.1,0.2v1.1h-1.4V96.6z"/>
				</g>
			</g>
		</g>
		<g>
			<circle class="st8" cx="165.2" cy="109.7" r="10.8"/>
			<circle class="st9" cx="165.4" cy="109.9" r="8.7"/>
			<g class="st3">
				<g>
					<path class="st7" d="M164.7,113.4c-0.4-0.1-0.8-0.3-1.2-0.5v0.5h-1.7v-2.9h1.7c0.1,0.4,0.3,0.7,0.6,1c0.3,0.2,0.7,0.4,1,0.4
						c0.3,0,0.5-0.1,0.6-0.1c0.1-0.1,0.2-0.2,0.2-0.3c0-0.2-0.1-0.3-0.3-0.4c-0.2-0.1-0.5-0.2-0.8-0.3c-0.3-0.1-0.6-0.2-1-0.3
						c-0.4-0.1-0.7-0.3-1-0.4c-0.3-0.2-0.6-0.5-0.8-0.8c-0.2-0.3-0.3-0.7-0.3-1.3c0-0.4,0.1-0.7,0.2-1c0.2-0.3,0.4-0.5,0.7-0.7
						c0.3-0.2,0.6-0.4,1-0.5c0.4-0.1,0.7-0.2,1.1-0.2v-1.1h1.4v1.3c0.2,0.1,0.4,0.1,0.6,0.2c0.2,0.1,0.3,0.2,0.4,0.2v-0.5h1.8v2.8
						H167c0-0.2-0.1-0.3-0.2-0.5c-0.1-0.2-0.2-0.3-0.4-0.4c-0.1-0.1-0.3-0.2-0.5-0.3c-0.2-0.1-0.3-0.1-0.5-0.1c-0.2,0-0.4,0-0.5,0.1
						c-0.1,0.1-0.2,0.2-0.2,0.4c0,0.2,0.1,0.3,0.3,0.4c0.2,0.1,0.5,0.2,0.8,0.3c0.3,0.1,0.7,0.2,1,0.3c0.4,0.1,0.7,0.3,1,0.4
						c0.3,0.2,0.6,0.5,0.8,0.8c0.2,0.3,0.3,0.8,0.3,1.3c0,0.4-0.1,0.7-0.2,1c-0.2,0.3-0.4,0.5-0.7,0.7c-0.3,0.2-0.6,0.3-1,0.4
						c-0.4,0.1-0.7,0.2-1.1,0.2v1.1h-1.4V113.4z"/>
				</g>
			</g>
		</g>
		<g>
			<circle class="st8" cx="173.8" cy="67.7" r="10.8"/>
			<circle class="st9" cx="174" cy="67.9" r="8.7"/>
			<g class="st3">
				<g>
					<path class="st7" d="M173.3,71.4c-0.4-0.1-0.8-0.3-1.2-0.5v0.5h-1.7v-2.9h1.7c0.1,0.4,0.3,0.7,0.6,1c0.3,0.2,0.7,0.4,1,0.4
						c0.3,0,0.5-0.1,0.6-0.1c0.1-0.1,0.2-0.2,0.2-0.3c0-0.2-0.1-0.3-0.3-0.4c-0.2-0.1-0.5-0.2-0.8-0.3c-0.3-0.1-0.6-0.2-1-0.3
						s-0.7-0.3-1-0.4c-0.3-0.2-0.6-0.5-0.8-0.8c-0.2-0.3-0.3-0.7-0.3-1.3c0-0.4,0.1-0.7,0.2-1c0.2-0.3,0.4-0.5,0.7-0.7
						c0.3-0.2,0.6-0.4,1-0.5c0.4-0.1,0.7-0.2,1.1-0.2v-1.1h1.4v1.3c0.2,0.1,0.4,0.1,0.6,0.2c0.2,0.1,0.3,0.2,0.4,0.2v-0.5h1.8v2.8
						h-1.8c0-0.2-0.1-0.3-0.2-0.5c-0.1-0.2-0.2-0.3-0.4-0.4c-0.1-0.1-0.3-0.2-0.5-0.3c-0.2-0.1-0.3-0.1-0.5-0.1
						c-0.2,0-0.4,0-0.5,0.1c-0.1,0.1-0.2,0.2-0.2,0.4c0,0.2,0.1,0.3,0.3,0.4c0.2,0.1,0.5,0.2,0.8,0.3c0.3,0.1,0.7,0.2,1,0.3
						c0.4,0.1,0.7,0.3,1,0.4c0.3,0.2,0.6,0.5,0.8,0.8c0.2,0.3,0.3,0.8,0.3,1.3c0,0.4-0.1,0.7-0.2,1c-0.2,0.3-0.4,0.5-0.7,0.7
						c-0.3,0.2-0.6,0.3-1,0.4c-0.4,0.1-0.7,0.2-1.1,0.2v1.1h-1.4V71.4z"/>
				</g>
			</g>
		</g>
		<g>
			<circle class="st8" cx="199.6" cy="69" r="10.8"/>
			<circle class="st9" cx="199.7" cy="69.2" r="8.7"/>
			<g class="st3">
				<g>
					<path class="st7" d="M199,72.8c-0.4-0.1-0.8-0.3-1.2-0.5v0.5h-1.7v-2.9h1.7c0.1,0.4,0.3,0.7,0.6,1c0.3,0.2,0.7,0.4,1,0.4
						c0.3,0,0.5-0.1,0.6-0.1c0.1-0.1,0.2-0.2,0.2-0.3c0-0.2-0.1-0.3-0.3-0.4c-0.2-0.1-0.5-0.2-0.8-0.3c-0.3-0.1-0.6-0.2-1-0.3
						c-0.4-0.1-0.7-0.3-1-0.4c-0.3-0.2-0.6-0.5-0.8-0.8c-0.2-0.3-0.3-0.7-0.3-1.3c0-0.4,0.1-0.7,0.2-1c0.2-0.3,0.4-0.5,0.7-0.7
						c0.3-0.2,0.6-0.4,1-0.5c0.4-0.1,0.7-0.2,1.1-0.2v-1.1h1.4V65c0.2,0.1,0.4,0.1,0.6,0.2c0.2,0.1,0.3,0.2,0.4,0.2V65h1.8v2.8h-1.8
						c0-0.2-0.1-0.3-0.2-0.5c-0.1-0.2-0.2-0.3-0.4-0.4c-0.1-0.1-0.3-0.2-0.5-0.3c-0.2-0.1-0.3-0.1-0.5-0.1c-0.2,0-0.4,0-0.5,0.1
						c-0.1,0.1-0.2,0.2-0.2,0.4c0,0.2,0.1,0.3,0.3,0.4c0.2,0.1,0.5,0.2,0.8,0.3c0.3,0.1,0.7,0.2,1,0.3c0.4,0.1,0.7,0.3,1,0.4
						c0.3,0.2,0.6,0.5,0.8,0.8c0.2,0.3,0.3,0.8,0.3,1.3c0,0.4-0.1,0.7-0.2,1c-0.2,0.3-0.4,0.5-0.7,0.7c-0.3,0.2-0.6,0.3-1,0.4
						c-0.4,0.1-0.7,0.2-1.1,0.2V74H199V72.8z"/>
				</g>
			</g>
		</g>
		<g>
			<circle class="st8" cx="42.3" cy="81" r="12"/>
			<circle class="st10" cx="42.3" cy="81" r="9.9"/>
			<circle class="st9" cx="42.1" cy="80.8" r="9.6"/>
			<g class="st3">
				<g>
					<path class="st7" d="M41.7,85.1c-0.4-0.1-0.9-0.3-1.3-0.5v0.5h-1.9v-3.2h1.9c0.1,0.5,0.3,0.8,0.7,1.1c0.3,0.3,0.7,0.4,1.1,0.4
						c0.3,0,0.5-0.1,0.6-0.2c0.1-0.1,0.2-0.2,0.2-0.4c0-0.2-0.1-0.4-0.3-0.5c-0.2-0.1-0.5-0.2-0.9-0.3c-0.3-0.1-0.7-0.2-1.1-0.3
						c-0.4-0.1-0.8-0.3-1.1-0.5c-0.3-0.2-0.6-0.5-0.9-0.9c-0.2-0.4-0.4-0.8-0.4-1.4c0-0.4,0.1-0.8,0.3-1.1c0.2-0.3,0.4-0.6,0.7-0.8
						c0.3-0.2,0.7-0.4,1.1-0.5c0.4-0.1,0.8-0.2,1.3-0.2v-1.2h1.5v1.4c0.2,0.1,0.5,0.1,0.7,0.2c0.2,0.1,0.4,0.2,0.5,0.2v-0.5h1.9v3.1
						h-1.9c0-0.2-0.1-0.4-0.2-0.6c-0.1-0.2-0.2-0.3-0.4-0.4c-0.2-0.1-0.3-0.2-0.5-0.3c-0.2-0.1-0.4-0.1-0.6-0.1
						c-0.2,0-0.4,0-0.6,0.1c-0.2,0.1-0.2,0.2-0.2,0.4c0,0.2,0.1,0.4,0.4,0.5c0.2,0.1,0.5,0.2,0.9,0.3c0.3,0.1,0.7,0.2,1.1,0.3
						c0.4,0.1,0.8,0.3,1.1,0.5c0.3,0.2,0.6,0.5,0.9,0.9c0.2,0.4,0.4,0.8,0.4,1.4c0,0.4-0.1,0.8-0.3,1.1c-0.2,0.3-0.4,0.6-0.7,0.8
						c-0.3,0.2-0.7,0.4-1.1,0.5c-0.4,0.1-0.8,0.2-1.3,0.2v1.2h-1.5V85.1z"/>
				</g>
			</g>
		</g>
		<g>
			<path class="st8" d="M158.1,37c0.7,0.8,0.6,2.1-0.3,2.7l-34.1,28.1c-0.8,0.7-2.1,0.6-2.7-0.3l-14.9-18c-0.7-0.8-0.6-2.1,0.3-2.7
				l34.1-28.1c0.8-0.7,2.1-0.6,2.7,0.3L158.1,37z"/>
			
				<rect x="105.3" y="36.5" transform="matrix(0.7713 -0.6365 0.6365 0.7713 4.1621 91.4705)" class="st11" width="48.1" height="6.9"/>
			<g>
				
					<rect x="125.7" y="44.5" transform="matrix(0.7713 -0.6365 0.6365 0.7713 2.1919 96.0373)" class="st11" width="18.1" height="0.9"/>
				
					<rect x="127.5" y="46.7" transform="matrix(0.7713 -0.6365 0.6365 0.7713 1.2253 97.6639)" class="st11" width="18.1" height="0.9"/>
				
					<rect x="129.2" y="48.9" transform="matrix(0.7713 -0.6365 0.6365 0.7713 0.2594 99.2921)" class="st11" width="18.1" height="0.9"/>
			</g>
			<g>
				
					<rect x="118.5" y="52.9" transform="matrix(0.7713 -0.6365 0.6365 0.7713 -8.7068 92.1297)" class="st12" width="10.6" height="10.6"/>
				<g>
					<path class="st11" d="M125.7,58.8c-0.2,0.1-0.6-0.3-0.6-0.3s0.1-0.9-0.3-1.6c0.3-0.2-0.1-1.1-0.6-1.1c-0.2-0.3-1.3-2.3-3.1-0.8
						c-1.8,1.5,0,2.9,0.2,3.2c-0.1,0.5,0.7,1,0.9,0.8c0.6,0.6,1.5,0.6,1.5,0.6s0.4,0.5,0.2,0.6c-0.5,0.5-1.7,3-0.9,4l3.4-2.8
						l3.4-2.8C129.1,57.7,126.3,58.4,125.7,58.8z"/>
				</g>
			</g>
			
				<rect x="146.7" y="31.1" transform="matrix(0.7712 -0.6366 0.6366 0.7712 12.857 102.4462)" class="st11" width="4.5" height="4.5"/>
			
				<rect x="150.7" y="35.9" transform="matrix(0.7711 -0.6367 0.6367 0.7711 10.7067 106.0776)" class="st11" width="4.5" height="4.5"/>
		</g>
		<g>
			<path class="st6" d="M162.2,83.9c0,2.3-4.1,3.7-4.9,5.6c-0.8,2,1,5.9-0.6,7.4c-1.5,1.5-5.4-0.3-7.4,0.6c-2,0.8-3.4,4.9-5.6,4.9
				c-2.3,0-3.7-4.1-5.6-4.9c-2-0.8-5.9,1-7.4-0.6c-1.5-1.5,0.3-5.4-0.6-7.4c-0.8-2-4.9-3.4-4.9-5.6c0-2.3,4.1-3.7,4.9-5.6
				c0.8-2-1-5.9,0.6-7.4c1.5-1.5,5.4,0.3,7.4-0.6c2-0.8,3.4-4.9,5.6-4.9c2.3,0,3.7,4.1,5.6,4.9c2,0.8,5.9-1,7.4,0.6
				c1.5,1.5-0.3,5.4,0.6,7.4C158.2,80.2,162.2,81.6,162.2,83.9z"/>
			<g>
				<g id="XMLID_2_">
					<g>
						<path class="st13" d="M151.7,85.9c0.2,0.4,0.3,1,0.3,1.5c0,0.6-0.1,1.1-0.3,1.5c-0.2,0.4-0.4,0.8-0.8,1.1
							c-0.3,0.3-0.7,0.5-1.2,0.7c-0.4,0.2-0.9,0.2-1.5,0.2c-0.5,0-1-0.1-1.5-0.2c-0.4-0.2-0.8-0.4-1.2-0.7c-0.3-0.3-0.6-0.7-0.8-1.1
							c-0.2-0.4-0.3-1-0.3-1.5c0-0.6,0.1-1.1,0.3-1.5c0.2-0.4,0.4-0.8,0.8-1.1c0.3-0.3,0.7-0.5,1.2-0.7c0.4-0.2,0.9-0.2,1.5-0.2
							c0.5,0,1,0.1,1.5,0.2c0.4,0.2,0.8,0.4,1.2,0.7C151.3,85.1,151.5,85.4,151.7,85.9z M149.1,88.4c0-0.3,0-0.6,0-0.9
							c0-0.7-0.1-1.3-0.2-1.5c-0.1-0.3-0.3-0.4-0.6-0.4s-0.5,0.1-0.6,0.4c-0.1,0.3-0.2,0.8-0.2,1.5c0,0.4,0,0.7,0,0.9
							c0,0.3,0.1,0.4,0.1,0.6c0.1,0.1,0.1,0.2,0.2,0.3c0.1,0.1,0.2,0.1,0.4,0.1c0.2,0,0.3,0,0.4-0.1c0.1-0.1,0.2-0.2,0.2-0.3
							C149,88.8,149,88.6,149.1,88.4z"/>
						<path class="st13" d="M140.7,83.7c-0.5,0.2-0.9,0.2-1.5,0.2c-0.5,0-1-0.1-1.5-0.2c-0.4-0.2-0.8-0.4-1.2-0.7
							c-0.3-0.3-0.6-0.7-0.8-1.1c-0.2-0.4-0.3-1-0.3-1.5c0-0.6,0.1-1.1,0.3-1.5c0.2-0.4,0.4-0.8,0.8-1.1c0.3-0.3,0.7-0.5,1.2-0.7
							c0.4-0.2,0.9-0.2,1.5-0.2c0.5,0,1,0.1,1.5,0.2c0.5,0.2,0.8,0.4,1.2,0.7c0.3,0.3,0.6,0.7,0.7,1.1c0.2,0.4,0.3,1,0.3,1.5
							c0,0.6-0.1,1.1-0.3,1.5c-0.2,0.4-0.4,0.8-0.7,1.1C141.5,83.3,141.1,83.5,140.7,83.7z M139.9,81.3c0-0.3,0-0.6,0-0.9
							c0-0.7-0.1-1.3-0.2-1.5c-0.1-0.3-0.3-0.4-0.6-0.4c-0.3,0-0.5,0.1-0.6,0.4c-0.1,0.3-0.2,0.8-0.2,1.5c0,0.4,0,0.7,0,0.9
							c0,0.3,0.1,0.4,0.1,0.6c0.1,0.1,0.1,0.2,0.2,0.3c0.1,0.1,0.2,0.1,0.4,0.1c0.2,0,0.3,0,0.4-0.1c0.1-0.1,0.2-0.2,0.2-0.3
							C139.8,81.7,139.9,81.5,139.9,81.3z"/>
					</g>
					<g>
					</g>
				</g>
				<g id="XMLID_1_">
					<g>
						<polygon class="st13" points="150.2,76.9 140,90.8 137.3,90.8 147.5,76.9 						"/>
					</g>
					<g>
					</g>
				</g>
			</g>
		</g>
		<g>
			<path class="st14" d="M91.5,51c0,0,5.2-6.7,1.8-7.1c-3.4-0.5-3.6,2.1-5.4,2.4c-1.8,0.3-3.2-1.1-5.7-0.7c-3.2,0.6-3.3,2.2-4.8,2.3
				c-2.3,0.2-4.7-1.1-7,0.6c-2.3,1.7,4.1,5.7,4.1,5.7S68,62,68.6,72c0.5,10,6.1,18.5,21.3,15.7c15.2-2.8,18.4-11.5,14.4-22.2
				C100.2,54.7,91.5,51,91.5,51z"/>
			<g class="st3">
				<g>
					<path class="st7" d="M87.2,76.5c-0.7,0-1.5-0.2-2.3-0.5l0.2,0.8L82,77.5l-0.9-5.1l3.1-0.6c0.3,0.7,0.8,1.2,1.4,1.5
						c0.6,0.3,1.3,0.4,1.9,0.3c0.5-0.1,0.8-0.2,1-0.5c0.2-0.2,0.3-0.4,0.2-0.6c-0.1-0.3-0.3-0.6-0.7-0.7c-0.4-0.1-0.9-0.2-1.5-0.3
						c-0.6,0-1.2-0.1-1.9-0.2c-0.7-0.1-1.3-0.2-1.9-0.5c-0.6-0.2-1.2-0.6-1.6-1.1c-0.5-0.5-0.8-1.2-1-2.1c-0.1-0.7-0.1-1.3,0.1-1.9
						c0.2-0.6,0.5-1.1,0.9-1.5c0.4-0.4,0.9-0.8,1.6-1.1c0.6-0.3,1.3-0.5,2-0.7l-0.4-2l2.4-0.4l0.4,2.3c0.4,0,0.8,0.1,1.1,0.2
						c0.3,0.1,0.6,0.2,0.8,0.3L88.9,62l3.1-0.6l0.9,5l-3.1,0.6c-0.1-0.3-0.3-0.6-0.5-0.8c-0.2-0.2-0.5-0.4-0.8-0.6
						c-0.3-0.1-0.6-0.3-0.9-0.3c-0.3-0.1-0.6-0.1-1,0c-0.4,0.1-0.7,0.2-0.9,0.4c-0.2,0.2-0.3,0.4-0.3,0.7c0.1,0.3,0.3,0.6,0.7,0.7
						c0.4,0.1,0.9,0.2,1.5,0.2c0.6,0.1,1.2,0.1,1.9,0.2c0.7,0.1,1.4,0.2,2,0.5c0.6,0.2,1.2,0.6,1.7,1.1c0.5,0.5,0.8,1.2,1,2.2
						c0.1,0.7,0.1,1.3-0.1,1.9c-0.2,0.6-0.5,1.1-0.9,1.5c-0.4,0.4-1,0.8-1.6,1.1c-0.6,0.3-1.3,0.5-2,0.7l0.4,1.9l-2.4,0.4L87.2,76.5
						z"/>
				</g>
			</g>
			<path class="st2" d="M82.5,54.2c-2.4,0.4-5,0.8-7.8,1c-0.6,0-1.1-0.4-1.2-1c0-0.6,0.4-1.1,1-1.2c8.9-0.7,16.6-3.2,16.7-3.2
				c0.6-0.2,1.2,0.1,1.3,0.7c0.2,0.6-0.1,1.2-0.7,1.3C91.6,52.1,87.8,53.3,82.5,54.2z"/>
		</g>
		<g>
			<path class="st11" d="M145.4,141.9h-34.2c-3.6,0-6.5-2.9-6.5-6.5v-17.7c0-3.6,2.9-6.5,6.5-6.5h34.2c3.6,0,6.5,2.9,6.5,6.5v17.7
				C152,138.9,149,141.9,145.4,141.9z M111.5,135h33.6v-17.2h-33.6V135z"/>
			<g>
				<path class="st11" d="M78.6,235.1c0,1.3-1,2.3-2.3,2.3h-8c-1.3,0-2.3-1-2.3-2.3l0,0c0-1.3,1-2.3,2.3-2.3h8
					C77.6,232.8,78.6,233.8,78.6,235.1L78.6,235.1z"/>
				<path class="st11" d="M188.6,235.1c0,1.3-1,2.3-2.3,2.3h-8c-1.3,0-2.3-1-2.3-2.3l0,0c0-1.3,1-2.3,2.3-2.3h8
					C187.5,232.8,188.6,233.8,188.6,235.1L188.6,235.1z"/>
			</g>
			<path class="st15" d="M202.8,229.5c0,2.3-1.8,4.1-4.1,4.1H55.9c-2.3,0-4.1-1.8-4.1-4.1v-98c0-2.3,1.8-4.1,4.1-4.1h142.8
				c2.3,0,4.1,1.8,4.1,4.1V229.5z"/>
			<circle class="st12" cx="129.2" cy="180.6" r="33.4"/>
			<g>
				<g>
					<path class="st15" d="M127,196.3c-1.6-0.4-3.3-1.1-5.1-2.1v2h-7.3v-12.1h7.3c0.4,1.8,1.3,3.1,2.6,4.1c1.3,1,2.7,1.5,4.3,1.5
						c1.1,0,1.9-0.2,2.4-0.6c0.5-0.4,0.8-0.9,0.8-1.4c0-0.8-0.4-1.4-1.3-1.9c-0.9-0.4-2-0.9-3.3-1.2c-1.3-0.4-2.7-0.7-4.2-1.2
						c-1.5-0.4-2.9-1.1-4.2-1.9c-1.3-0.8-2.4-1.9-3.3-3.2c-0.9-1.3-1.3-3.1-1.3-5.3c0-1.6,0.3-3,1-4.2c0.7-1.2,1.6-2.3,2.8-3.1
						c1.2-0.8,2.5-1.5,4.1-1.9c1.5-0.5,3.1-0.7,4.8-0.7v-4.7h5.7v5.4c0.9,0.3,1.7,0.6,2.5,0.9c0.7,0.3,1.3,0.6,1.8,0.9v-2h7.4v11.8
						H137c-0.1-0.8-0.4-1.5-0.8-2.1c-0.4-0.6-0.9-1.2-1.5-1.7c-0.6-0.5-1.2-0.8-2-1.1c-0.7-0.3-1.5-0.4-2.2-0.4
						c-0.9,0-1.7,0.2-2.3,0.5c-0.6,0.3-0.9,0.8-0.9,1.5c0,0.8,0.5,1.4,1.4,1.8c0.9,0.4,2,0.8,3.3,1.2c1.3,0.4,2.8,0.8,4.3,1.2
						c1.6,0.4,3,1.1,4.3,1.9c1.3,0.8,2.4,1.9,3.3,3.3c0.9,1.4,1.3,3.2,1.3,5.4c0,1.6-0.3,3.1-1,4.3c-0.7,1.2-1.6,2.2-2.8,3
						c-1.2,0.8-2.5,1.4-4.1,1.8c-1.5,0.4-3.1,0.6-4.8,0.7v4.6H127V196.3z"/>
				</g>
			</g>
		</g>
		<g class="st16">
			<path class="st7" d="M173.4,31.1c0.4-0.7,1-0.7,1.3,0l1.1,2.3c0.4,0.8,1.4,1.5,2.2,1.6l2.5,0.4c0.8,0.1,1,0.7,0.4,1.3l-1.8,1.8
				c-0.6,0.6-1,1.7-0.8,2.6l0.4,2.5c0.1,0.8-0.3,1.2-1.1,0.8l-2.3-1.2c-0.7-0.4-2-0.4-2.7,0l-2.3,1.2c-0.7,0.4-1.2,0-1.1-0.8
				l0.4-2.5c0.1-0.8-0.2-2-0.8-2.6l-1.8-1.8c-0.6-0.6-0.4-1.2,0.4-1.3l2.5-0.4c0.8-0.1,1.8-0.8,2.2-1.6L173.4,31.1z"/>
		</g>
		<g class="st16">
			<path class="st7" d="M109.3,81.2c0.4-0.7,1-0.7,1.3,0l1.1,2.3c0.4,0.7,1.4,1.5,2.2,1.6l2.5,0.4c0.8,0.1,1,0.7,0.4,1.3l-1.8,1.8
				c-0.6,0.6-1,1.7-0.8,2.6l0.4,2.5c0.1,0.8-0.3,1.2-1.1,0.8l-2.3-1.2c-0.7-0.4-2-0.4-2.7,0l-2.3,1.2c-0.7,0.4-1.2,0-1.1-0.8
				l0.4-2.5c0.1-0.8-0.2-2-0.8-2.6l-1.8-1.8c-0.6-0.6-0.4-1.2,0.4-1.3l2.5-0.4c0.8-0.1,1.8-0.8,2.2-1.6L109.3,81.2z"/>
		</g>
		<g class="st16">
			<path class="st7" d="M5.6,140.3c0.4-0.8,1-0.8,1.3,0l1.1,2.3c0.4,0.8,1.4,1.5,2.2,1.6l2.5,0.4c0.8,0.1,1,0.7,0.4,1.3l-1.8,1.8
				c-0.6,0.6-1,1.7-0.8,2.6l0.4,2.5c0.1,0.8-0.3,1.2-1.1,0.8l-2.3-1.2c-0.7-0.4-2-0.4-2.7,0l-2.3,1.2c-0.7,0.4-1.2,0-1.1-0.8
				l0.4-2.5c0.1-0.8-0.2-2-0.8-2.6l-1.8-1.8c-0.6-0.6-0.4-1.2,0.4-1.3l2.5-0.4c0.8-0.1,1.8-0.8,2.2-1.6L5.6,140.3z"/>
		</g>
		<g class="st16">
			<path class="st7" d="M241.7,91.4c0.4-0.8,1-0.8,1.3,0l1.1,2.3c0.4,0.7,1.3,1.5,2.2,1.6l2.5,0.4c0.8,0.1,1,0.7,0.4,1.3l-1.8,1.8
				c-0.6,0.6-1,1.7-0.8,2.6l0.4,2.5c0.1,0.8-0.3,1.2-1.1,0.8l-2.3-1.2c-0.7-0.4-2-0.4-2.7,0l-2.3,1.2c-0.7,0.4-1.2,0-1.1-0.8
				l0.4-2.5c0.1-0.8-0.2-2-0.8-2.6l-1.8-1.8c-0.6-0.6-0.4-1.2,0.4-1.3l2.5-0.4c0.8-0.1,1.8-0.8,2.2-1.6L241.7,91.4z"/>
		</g>
		<g class="st16">
			<path class="st7" d="M161.9,45.6c0.2-0.4,0.6-0.4,0.8,0l0.7,1.3c0.2,0.4,0.8,0.9,1.3,0.9L166,48c0.5,0.1,0.6,0.4,0.2,0.7l-1.1,1
				c-0.3,0.3-0.6,1-0.5,1.5l0.3,1.5c0.1,0.5-0.2,0.7-0.6,0.5l-1.3-0.7c-0.4-0.2-1.1-0.2-1.6,0l-1.3,0.7c-0.4,0.2-0.7,0-0.6-0.5
				l0.3-1.5c0.1-0.5-0.1-1.2-0.5-1.5l-1.1-1c-0.3-0.3-0.2-0.7,0.2-0.7l1.5-0.2c0.5-0.1,1.1-0.5,1.3-0.9L161.9,45.6z"/>
		</g>
		<g class="st16">
			<path class="st7" d="M57.1,55.1c0.2-0.4,0.6-0.4,0.8,0l0.7,1.3c0.2,0.4,0.8,0.9,1.3,0.9l1.5,0.2c0.5,0.1,0.6,0.4,0.2,0.7l-1.1,1
				c-0.3,0.3-0.6,1-0.5,1.5l0.3,1.5c0.1,0.5-0.2,0.7-0.6,0.5l-1.3-0.7c-0.4-0.2-1.1-0.2-1.6,0l-1.3,0.7c-0.4,0.2-0.7,0-0.6-0.5
				l0.3-1.5c0.1-0.5-0.1-1.2-0.5-1.5l-1.1-1c-0.3-0.3-0.2-0.7,0.2-0.7l1.5-0.2c0.5-0.1,1.1-0.5,1.3-0.9L57.1,55.1z"/>
		</g>
		<g class="st16">
			<path class="st7" d="M22.7,101.7c0.2-0.4,0.6-0.4,0.8,0l0.7,1.3c0.2,0.4,0.8,0.9,1.3,0.9l1.5,0.2c0.5,0.1,0.6,0.4,0.2,0.7l-1.1,1
				c-0.3,0.3-0.6,1-0.5,1.5l0.3,1.5c0.1,0.5-0.2,0.7-0.6,0.5l-1.3-0.7c-0.4-0.2-1.1-0.2-1.6,0l-1.3,0.7c-0.4,0.2-0.7,0-0.6-0.5
				l0.3-1.5c0.1-0.5-0.1-1.2-0.5-1.5l-1.1-1c-0.3-0.3-0.2-0.7,0.2-0.7l1.5-0.2c0.5-0.1,1.1-0.5,1.3-0.9L22.7,101.7z"/>
		</g>
		<g class="st16">
			<path class="st7" d="M21.8,84.5c0.2-0.4,0.6-0.4,0.8,0l0.7,1.3c0.2,0.4,0.8,0.9,1.3,0.9L26,87c0.5,0.1,0.6,0.4,0.2,0.7l-1.1,1
				c-0.3,0.3-0.6,1-0.5,1.5l0.3,1.5c0.1,0.5-0.2,0.7-0.6,0.5l-1.3-0.7c-0.4-0.2-1.1-0.2-1.6,0L20,92.2c-0.4,0.2-0.7,0-0.6-0.5
				l0.3-1.5c0.1-0.5-0.1-1.2-0.5-1.5l-1.1-1c-0.3-0.3-0.2-0.7,0.2-0.7l1.5-0.2c0.5-0.1,1.1-0.5,1.3-0.9L21.8,84.5z"/>
		</g>
		<g class="st16">
			<path class="st7" d="M105.3,31.3c0.2-0.4,0.6-0.4,0.8,0l0.7,1.3c0.2,0.4,0.8,0.9,1.3,0.9l1.5,0.2c0.5,0.1,0.6,0.4,0.2,0.7l-1.1,1
				c-0.3,0.3-0.6,1-0.5,1.5l0.3,1.5c0.1,0.5-0.2,0.7-0.6,0.5l-1.3-0.7c-0.4-0.2-1.1-0.2-1.6,0l-1.3,0.7c-0.4,0.2-0.7,0-0.6-0.5
				l0.3-1.5c0.1-0.5-0.1-1.2-0.5-1.5l-1.1-1c-0.3-0.3-0.2-0.7,0.2-0.7l1.5-0.2c0.5-0.1,1.1-0.5,1.3-0.9L105.3,31.3z"/>
		</g>
		<g class="st16">
			<path class="st7" d="M203.9,83.9c0.2-0.4,0.6-0.4,0.8,0l0.7,1.3c0.2,0.4,0.8,0.9,1.3,0.9l1.5,0.2c0.5,0.1,0.6,0.4,0.2,0.7l-1.1,1
				c-0.3,0.3-0.6,1-0.5,1.5l0.3,1.5c0.1,0.5-0.2,0.7-0.6,0.5l-1.3-0.7c-0.4-0.2-1.1-0.2-1.6,0l-1.3,0.7c-0.4,0.2-0.7,0-0.6-0.5
				l0.3-1.5c0.1-0.5-0.1-1.2-0.5-1.5l-1.1-1c-0.3-0.3-0.2-0.7,0.2-0.7l1.5-0.2c0.5-0.1,1.1-0.5,1.3-0.9L203.9,83.9z"/>
		</g>
		<g class="st16">
			<path class="st7" d="M236,109.8c0.2-0.4,0.6-0.4,0.8,0l0.7,1.3c0.2,0.4,0.8,0.9,1.3,0.9l1.5,0.2c0.5,0.1,0.6,0.4,0.2,0.7l-1.1,1
				c-0.3,0.3-0.6,1-0.5,1.5l0.3,1.5c0.1,0.5-0.2,0.7-0.6,0.5l-1.3-0.7c-0.4-0.2-1.1-0.2-1.6,0l-1.3,0.7c-0.4,0.2-0.7,0-0.6-0.5
				l0.3-1.5c0.1-0.5-0.1-1.2-0.5-1.5l-1.1-1c-0.3-0.3-0.2-0.7,0.2-0.7l1.5-0.2c0.5-0.1,1.1-0.5,1.3-0.9L236,109.8z"/>
		</g>
	</g>
</g>
</svg>
