<?xml version="1.0" encoding="utf-8"?>
<!-- Generator: Adobe Illustrator 19.2.1, SVG Export Plug-In . SVG Version: 6.00 Build 0)  -->
<svg version="1.1" id="Слой_1" xmlns="http://www.w3.org/2000/svg" xmlns:xlink="http://www.w3.org/1999/xlink" x="0px" y="0px"
	 width="28px" height="28px" viewBox="0 0 28 28" style="enable-background:new 0 0 28 28;" xml:space="preserve">
<g>
	<g id="XMLID_1_">
		<g>
			<path d="M22.4,14.8c0,0.6,0,1.2,0,1.8c-0.5,0-1,0-1.6,0c0-0.4,0-0.9,0-1.4c0-0.4,0-0.4-0.4-0.4c-0.5,0-0.9,0-1.4,0h-0.1
				c0-0.6,0-1.1,0-1.6c0.5,0,1,0,1.5,0c0.3,0.1,0.4,0,0.4-0.3c0-0.5,0-1,0-1.5c0.6,0,1.1,0,1.6,0c0,0.6,0,1.2,0,1.8
				c0.6,0,1.2,0,1.8,0c0,0.5,0,1.1,0,1.6C23.6,14.8,23,14.8,22.4,14.8z"/>
			<path d="M7.4,12.8c-0.7,2,0.5,4.4,2.6,5c2.2,0.6,4.4-0.7,4.9-2.6c-1.3,0-2.5,0-3.7,0.1c0-0.8,0-1.6,0-2.4c2.1,0,4.2,0,6.3,0
				c0,1,0.1,2.1-0.3,3.1c-0.8,2.3-2.5,3.8-4.9,4.3c-3.2,0.6-6.5-1.5-7.3-4.7C4.2,12.3,6,9,9.2,8.1c2-0.6,3.9-0.3,5.6,0.9
				c0.1,0,0.1,0,0.2,0.1c-0.5,0.6-1,1.3-1.5,1.9c-1.2-0.9-2.6-1.1-4-0.5C8.5,10.9,7.8,11.7,7.4,12.8z"/>
		</g>
		<g>
		</g>
	</g>
</g>
</svg>
