<svg version="1.1" xmlns="http://www.w3.org/2000/svg" xmlns:xlink="http://www.w3.org/1999/xlink" width="76" height="76" viewBox="0 0 76 76">
<defs>
<linearGradient id="gradient1" gradientUnits="userSpaceOnUse" x1="50.000%" y1="100.000%" x2="50.000%" y2="0.000%" >
<stop offset="0%" stop-color="#C744FD" />
<stop offset="100%" stop-color="#EF4DB7" />
</linearGradient>
<filter id="Rounded-Rectangl-fx" filterUnits="userSpaceOnUse">
<feFlood flood-color="#0088CC" />
<feComposite operator="in" in2="SourceAlpha" result="sourceFill" />
<feBlend mode="normal" in="SourceGraphic" in2="sourceFill" result="gradientFill" />
</filter>
</defs>
<g id="app-data">
<path id="Rounded-Rectangl" d="M4.000,0.000 C4.000,0.000 72.000,0.000 72.000,0.000 C74.209,0.000 76.000,1.791 76.000,4.000 C76.000,4.000 76.000,72.000 76.000,72.000 C76.000,74.209 74.209,76.000 72.000,76.000 C72.000,76.000 4.000,76.000 4.000,76.000 C1.791,76.000 0.000,74.209 0.000,72.000 C0.000,72.000 0.000,4.000 0.000,4.000 C0.000,1.791 1.791,0.000 4.000,0.000 z" fill="url(#gradient1)" filter="url(#Rounded-Rectangl-fx)" />
<g id="Ellipse-5" >
<path id="Ellipse-5-stroke" d="M38.500,7.375 C55.138,7.375 68.625,20.862 68.625,37.500 C68.625,54.138 55.138,67.625 38.500,67.625 C21.862,67.625 8.375,54.138 8.375,37.500 C8.375,20.862 21.862,7.375 38.500,7.375 z" fill="none" stroke="#FFFFFF" stroke-width="5" />
</g>
<path id="Note" d="M51.627,42.791 C51.627,42.791 51.627,44.522 51.627,44.522 C51.627,45.612 51.521,46.699 51.312,47.770 C51.098,48.865 50.474,49.844 49.561,50.516 C49.561,50.516 49.535,50.535 49.535,50.535 C48.554,51.257 47.377,51.683 46.149,51.761 C46.149,51.761 45.190,51.820 45.190,51.820 C43.701,51.914 42.259,51.289 41.334,50.148 C40.349,48.934 40.087,47.306 40.642,45.856 C40.642,45.856 40.659,45.813 40.659,45.813 C41.184,44.441 42.371,43.320 43.830,42.972 C43.830,42.972 47.502,41.978 47.502,41.978 C48.459,41.748 49.132,40.912 49.132,39.951 C49.132,39.951 49.106,27.260 49.106,27.260 C49.106,26.753 48.684,26.372 48.186,26.467 C48.186,26.467 32.597,29.615 32.597,29.615 C32.041,29.721 31.638,30.209 31.638,30.775 C31.638,30.775 31.638,47.083 31.638,47.083 L31.637,47.083 C31.637,47.083 31.637,48.326 31.637,48.326 C31.637,49.415 31.532,50.503 31.323,51.573 C31.109,52.669 30.485,53.648 29.572,54.320 C29.572,54.320 29.546,54.338 29.546,54.338 C28.565,55.061 27.387,55.487 26.160,55.565 C26.160,55.565 25.162,55.623 25.162,55.623 C23.672,55.718 22.231,55.093 21.305,53.951 C20.321,52.737 20.058,51.110 20.614,49.660 C20.614,49.660 20.630,49.617 20.630,49.617 C21.156,48.245 22.343,47.124 23.801,46.775 C23.801,46.775 27.473,45.781 27.473,45.781 C28.431,45.552 29.104,44.715 29.104,43.754 C29.104,43.754 29.104,41.257 29.104,41.257 L29.117,41.258 L29.117,30.158 C29.117,30.158 29.117,22.496 29.117,22.496 C29.117,21.647 29.723,20.915 30.556,20.755 C30.556,20.755 50.188,16.974 50.188,16.974 C50.935,16.831 51.627,17.403 51.627,18.164 C51.627,18.164 51.627,25.762 51.627,25.762 L51.627,42.791 L51.627,42.791 z" fill="#FFFFFF" />
</g>
</svg>
