<svg version="1.1" xmlns="http://www.w3.org/2000/svg" xmlns:xlink="http://www.w3.org/1999/xlink" width="76" height="76" viewBox="0 0 76 76">
<g id="calendar">
<g id="Rounded-Rectangl" >
<path id="Rounded-Rectangl-fill" d="M4.000,0.000 C4.000,0.000 72.000,0.000 72.000,0.000 C74.209,0.000 76.000,1.791 76.000,4.000 C76.000,4.000 76.000,72.000 76.000,72.000 C76.000,74.209 74.209,76.000 72.000,76.000 C72.000,76.000 4.000,76.000 4.000,76.000 C1.791,76.000 0.000,74.209 0.000,72.000 C0.000,72.000 0.000,4.000 0.000,4.000 C0.000,1.791 1.791,0.000 4.000,0.000 z" fill="#FFFFFF" />
<path id="Rounded-Rectangl-stroke" d="M4.425,0.475 C4.425,0.475 71.575,0.475 71.575,0.475 C73.757,0.475 75.525,2.243 75.525,4.425 C75.525,4.425 75.525,71.575 75.525,71.575 C75.525,73.757 73.757,75.525 71.575,75.525 C71.575,75.525 4.425,75.525 4.425,75.525 C2.243,75.525 0.475,73.757 0.475,71.575 C0.475,71.575 0.475,4.425 0.475,4.425 C0.475,2.243 2.243,0.475 4.425,0.475 z" fill="none" stroke="#000000" stroke-opacity="0.080" stroke-width="1" />
</g>
<path id="Tuesday" d="M59.893,20.138 C59.781,20.437 59.685,20.670 59.604,20.837 C59.523,21.004 59.407,21.188 59.257,21.389 C59.108,21.590 58.928,21.735 58.718,21.825 C58.509,21.915 58.263,21.960 57.981,21.960 C57.767,21.960 57.497,21.921 57.172,21.844 C57.172,21.844 57.172,20.869 57.172,20.869 C57.488,20.963 57.724,21.010 57.878,21.010 C58.237,21.010 58.494,20.826 58.648,20.458 C58.648,20.458 59.161,19.252 59.161,19.252 L56.530,12.669 L57.762,12.669 L59.726,17.943 L61.587,12.669 L62.729,12.669 C62.729,12.669 59.893,20.138 59.893,20.138 zM55.222,19.393 C54.597,19.393 54.276,19.068 54.259,18.418 C53.634,19.119 52.835,19.470 51.859,19.470 C51.209,19.470 50.693,19.303 50.313,18.970 C49.932,18.636 49.742,18.178 49.742,17.597 C49.742,16.416 50.525,15.727 52.090,15.530 C53.014,15.419 53.549,15.338 53.694,15.287 C54.002,15.184 54.169,14.970 54.195,14.645 C54.203,14.594 54.208,14.538 54.208,14.478 C54.208,13.751 53.707,13.387 52.706,13.387 C52.193,13.387 51.803,13.492 51.538,13.702 C51.273,13.911 51.115,14.256 51.064,14.735 C51.064,14.735 49.998,14.735 49.998,14.735 C50.015,14.025 50.268,13.473 50.756,13.079 C51.243,12.686 51.915,12.489 52.770,12.489 C53.703,12.489 54.396,12.703 54.849,13.131 C54.995,13.267 55.102,13.447 55.170,13.670 C55.239,13.892 55.277,14.074 55.286,14.215 C55.294,14.356 55.299,14.568 55.299,14.850 C55.299,15.184 55.290,15.678 55.273,16.332 C55.256,16.987 55.247,17.477 55.247,17.802 C55.247,18.041 55.279,18.210 55.343,18.309 C55.408,18.407 55.525,18.456 55.696,18.456 C55.765,18.456 55.855,18.444 55.966,18.418 C55.966,18.418 55.966,19.265 55.966,19.265 C55.743,19.350 55.495,19.393 55.222,19.393 zM54.208,15.851 C54.131,15.911 54.049,15.962 53.964,16.005 C53.878,16.048 53.769,16.082 53.637,16.108 C53.504,16.134 53.414,16.153 53.367,16.166 C53.320,16.178 53.207,16.196 53.027,16.217 C52.847,16.238 52.753,16.249 52.745,16.249 C52.479,16.283 52.306,16.307 52.225,16.320 C52.144,16.332 51.990,16.369 51.763,16.429 C51.536,16.489 51.376,16.557 51.282,16.634 C51.187,16.711 51.096,16.824 51.006,16.974 C50.916,17.124 50.871,17.301 50.871,17.507 C50.871,17.849 50.989,18.118 51.224,18.315 C51.459,18.512 51.782,18.610 52.193,18.610 C52.715,18.610 53.181,18.456 53.592,18.148 C54.002,17.840 54.208,17.477 54.208,17.058 C54.208,17.058 54.208,15.851 54.208,15.851 zM47.175,18.315 C46.756,19.085 46.029,19.470 44.994,19.470 C44.052,19.470 43.306,19.156 42.754,18.527 C42.202,17.898 41.926,17.045 41.926,15.967 C41.926,14.966 42.185,14.134 42.703,13.471 C43.220,12.808 43.967,12.476 44.942,12.476 C45.892,12.476 46.615,12.835 47.111,13.554 C47.111,13.554 47.111,10.153 47.111,10.153 L48.202,10.153 L48.202,19.291 L47.175,19.291 C47.175,19.291 47.175,18.315 47.175,18.315 zM46.630,14.151 C46.292,13.659 45.776,13.413 45.083,13.413 C44.459,13.413 43.965,13.640 43.601,14.093 C43.237,14.547 43.056,15.163 43.056,15.941 C43.056,16.745 43.242,17.385 43.614,17.860 C43.986,18.334 44.484,18.572 45.109,18.572 C45.742,18.572 46.238,18.343 46.598,17.885 C46.957,17.428 47.137,16.792 47.137,15.980 C47.137,15.252 46.968,14.643 46.630,14.151 zM37.999,19.496 C37.101,19.496 36.410,19.299 35.927,18.906 C35.443,18.512 35.184,17.943 35.150,17.199 C35.150,17.199 36.228,17.199 36.228,17.199 C36.288,18.131 36.887,18.598 38.025,18.598 C38.513,18.598 38.904,18.497 39.199,18.296 C39.494,18.095 39.642,17.828 39.642,17.494 C39.642,17.271 39.565,17.088 39.411,16.942 C39.257,16.797 39.086,16.692 38.898,16.628 C38.709,16.563 38.440,16.489 38.089,16.403 C38.038,16.395 37.999,16.386 37.974,16.377 C37.897,16.360 37.732,16.324 37.480,16.268 C37.227,16.213 37.045,16.168 36.934,16.134 C36.823,16.099 36.663,16.046 36.453,15.973 C36.243,15.900 36.087,15.823 35.985,15.742 C35.882,15.661 35.768,15.558 35.644,15.434 C35.520,15.310 35.433,15.165 35.381,14.998 C35.330,14.831 35.304,14.641 35.304,14.427 C35.304,13.828 35.533,13.353 35.991,13.002 C36.449,12.651 37.063,12.476 37.833,12.476 C38.611,12.476 39.246,12.660 39.738,13.028 C40.230,13.396 40.476,13.918 40.476,14.594 C40.476,14.594 39.385,14.594 39.385,14.594 C39.317,13.789 38.778,13.387 37.768,13.387 C37.349,13.387 37.020,13.469 36.780,13.631 C36.541,13.794 36.421,14.012 36.421,14.286 C36.421,14.363 36.429,14.437 36.447,14.510 C36.464,14.583 36.496,14.647 36.543,14.703 C36.590,14.758 36.633,14.807 36.671,14.850 C36.710,14.893 36.774,14.934 36.864,14.972 C36.953,15.011 37.022,15.043 37.069,15.068 C37.116,15.094 37.202,15.122 37.326,15.152 C37.450,15.182 37.537,15.203 37.589,15.216 C37.640,15.229 37.741,15.252 37.890,15.287 C38.040,15.321 38.136,15.342 38.179,15.351 C38.495,15.419 38.733,15.475 38.891,15.518 C39.050,15.560 39.268,15.639 39.546,15.755 C39.824,15.870 40.035,15.990 40.181,16.114 C40.326,16.238 40.457,16.409 40.572,16.628 C40.688,16.846 40.746,17.092 40.746,17.366 C40.746,18.007 40.495,18.523 39.995,18.912 C39.494,19.301 38.829,19.496 37.999,19.496 zM29.157,16.352 C29.157,17.053 29.341,17.605 29.709,18.007 C30.077,18.409 30.582,18.610 31.224,18.610 C31.703,18.610 32.081,18.499 32.359,18.277 C32.637,18.054 32.853,17.695 33.007,17.199 C33.007,17.199 34.073,17.199 34.073,17.199 C33.739,18.739 32.776,19.509 31.185,19.509 C30.210,19.509 29.446,19.205 28.894,18.598 C28.342,17.990 28.067,17.147 28.067,16.069 C28.067,15.000 28.351,14.134 28.920,13.471 C29.489,12.808 30.231,12.476 31.147,12.476 C32.165,12.476 32.920,12.820 33.412,13.509 C33.904,14.198 34.150,15.068 34.150,16.121 C34.150,16.121 34.150,16.275 34.150,16.275 L29.170,16.275 C29.170,16.275 29.157,16.352 29.157,16.352 zM32.443,13.907 C32.109,13.552 31.668,13.374 31.121,13.374 C30.590,13.374 30.150,13.554 29.799,13.913 C29.448,14.273 29.239,14.765 29.170,15.389 C29.170,15.389 33.020,15.389 33.020,15.389 C32.969,14.756 32.776,14.262 32.443,13.907 zM25.500,18.251 C24.935,19.064 24.174,19.470 23.216,19.470 C22.514,19.470 21.971,19.278 21.586,18.893 C21.201,18.508 21.008,17.952 21.008,17.224 C21.008,17.224 21.008,12.669 21.008,12.669 L22.099,12.669 C22.099,12.669 22.099,16.929 22.099,16.929 C22.099,17.451 22.200,17.847 22.401,18.116 C22.602,18.386 22.963,18.521 23.485,18.521 C24.777,18.521 25.423,17.725 25.423,16.134 C25.423,16.134 25.423,12.669 25.423,12.669 L26.514,12.669 L26.514,19.291 L25.500,19.291 C25.500,19.291 25.500,18.251 25.500,18.251 zM18.044,19.291 L16.837,19.291 L16.837,11.206 L13.770,11.206 L13.770,10.153 L21.111,10.153 L21.111,11.206 L18.044,11.206 L18.044,19.291 z" fill="#FF3B30" />
<path id="9" d="M30.317,61.938 C32.319,63.581 34.774,64.402 37.683,64.402 C40.591,64.402 43.047,63.546 45.049,61.836 C47.051,60.125 48.480,57.678 49.336,54.495 C49.952,52.236 50.260,49.054 50.260,44.947 C50.260,39.506 49.318,35.468 47.436,32.832 C46.375,31.292 44.972,30.086 43.227,29.213 C41.482,28.341 39.599,27.904 37.580,27.904 C34.226,27.904 31.395,29.068 29.085,31.395 C26.775,33.723 25.620,36.580 25.620,39.968 C25.620,43.356 26.775,46.188 29.085,48.463 C31.395,50.740 34.277,51.877 37.734,51.877 C40.814,51.877 43.372,50.979 45.409,49.182 C47.444,47.385 48.753,45.119 49.336,42.380 C49.336,44.776 49.310,46.615 49.259,47.899 C49.207,49.182 48.993,50.850 48.617,52.904 C48.240,54.957 47.675,56.651 46.923,57.986 C44.903,61.613 41.807,63.427 37.632,63.427 C35.099,63.427 32.926,62.700 31.112,61.245 C29.298,59.791 28.152,57.832 27.673,55.368 C27.673,55.368 26.698,55.368 26.698,55.368 C27.108,58.106 28.315,60.296 30.317,61.938 zM45.511,32.062 C47.684,34.218 48.771,36.819 48.771,39.865 C48.771,43.014 47.701,45.658 45.563,47.796 C43.424,49.935 40.797,51.004 37.683,51.004 C34.569,51.004 31.942,49.944 29.803,47.822 C27.664,45.700 26.595,43.082 26.595,39.968 C26.595,36.854 27.655,34.218 29.778,32.062 C31.899,29.906 34.500,28.828 37.580,28.828 C40.694,28.828 43.338,29.906 45.511,32.062 z" fill="#000000" />
</g>
</svg>
