<svg version="1.1" xmlns="http://www.w3.org/2000/svg" xmlns:xlink="http://www.w3.org/1999/xlink" width="76" height="76" viewBox="0 0 76 76">
<defs>
<linearGradient id="gradient1" gradientUnits="userSpaceOnUse" x1="50.000%" y1="100.000%" x2="50.000%" y2="0.000%" >
<stop offset="0%" stop-color="#01B41F" />
<stop offset="100%" stop-color="#67FF81" />
</linearGradient>
<filter id="Rounded-Rectangl-fx" filterUnits="userSpaceOnUse">
<feFlood flood-color="#0088CC" />
<feComposite operator="in" in2="SourceAlpha" result="sourceFill" />
<feBlend mode="normal" in="SourceGraphic" in2="sourceFill" result="gradientFill" />
</filter>
</defs>
<g id="call">
<path id="Rounded-Rectangl" d="M4.000,0.000 C4.000,0.000 72.000,0.000 72.000,0.000 C74.209,0.000 76.000,1.791 76.000,4.000 C76.000,4.000 76.000,72.000 76.000,72.000 C76.000,74.209 74.209,76.000 72.000,76.000 C72.000,76.000 4.000,76.000 4.000,76.000 C1.791,76.000 0.000,74.209 0.000,72.000 C0.000,72.000 0.000,4.000 0.000,4.000 C0.000,1.791 1.791,0.000 4.000,0.000 z" fill="url(#gradient1)" filter="url(#Rounded-Rectangl-fx)" />
<path id="Phone" d="M45.184,49.002 C44.482,49.408 43.522,49.568 42.813,49.175 C41.283,48.326 38.502,46.308 34.635,42.443 C30.771,38.577 28.569,35.612 27.721,34.082 C27.328,33.373 27.488,32.414 27.893,31.711 C27.893,31.711 30.113,27.820 30.113,27.820 C30.911,26.439 31.086,25.571 30.225,24.227 C30.225,24.227 24.518,15.492 24.518,15.492 C22.897,12.947 22.069,13.040 20.658,13.683 C13.383,16.997 10.542,21.681 20.864,37.986 C23.646,42.379 32.157,51.682 39.418,56.397 C54.957,66.488 60.074,63.454 63.106,56.419 C63.720,54.996 64.030,54.169 61.588,52.561 C61.588,52.561 52.760,46.946 52.760,46.946 C51.416,46.085 50.763,45.862 49.381,46.661 C49.381,46.661 45.184,49.002 45.184,49.002 z" fill="#FFFFFF" />
</g>
</svg>
