<svg version="1.1" xmlns="http://www.w3.org/2000/svg" xmlns:xlink="http://www.w3.org/1999/xlink" width="76" height="76" viewBox="0 0 76 76">
<g id="contacts">
<path id="Rounded-Rectangl" d="M4.000,0.000 C4.000,0.000 72.000,0.000 72.000,0.000 C74.209,0.000 76.000,1.791 76.000,4.000 C76.000,4.000 76.000,72.000 76.000,72.000 C76.000,74.209 74.209,76.000 72.000,76.000 C72.000,76.000 4.000,76.000 4.000,76.000 C1.791,76.000 0.000,74.209 0.000,72.000 C0.000,72.000 0.000,4.000 0.000,4.000 C0.000,1.791 1.791,0.000 4.000,0.000 z" fill="#DDDDDD" />
<path id="Shape-19" d="M-0.000,72.000 C-0.000,72.000 -0.000,65.505 -0.000,65.505 C4.736,63.274 12.140,62.241 12.140,62.241 C12.140,62.241 12.464,62.166 12.836,61.978 C13.780,60.998 15.866,59.138 16.384,53.478 C14.062,52.579 13.288,45.015 13.208,44.065 C13.208,44.065 13.027,43.977 13.027,43.977 C13.027,43.977 11.179,42.825 11.082,41.726 C10.991,40.620 9.733,37.016 9.517,35.485 C9.376,34.453 9.285,33.315 10.671,33.665 C10.119,30.160 9.227,23.382 10.091,20.900 C10.511,19.703 12.774,16.906 15.470,15.617 C18.469,14.184 21.076,12.252 25.354,12.023 C30.796,11.731 31.539,14.048 33.967,14.930 C37.592,16.247 38.936,19.636 39.291,21.476 C39.791,24.073 39.256,30.257 38.711,33.603 C39.353,33.763 40.713,34.282 40.234,35.725 C39.620,37.597 39.433,40.764 38.153,42.634 C37.442,43.671 36.787,44.079 36.350,44.230 C35.781,52.665 33.459,53.468 33.459,53.468 C33.459,53.468 33.266,63.196 40.342,63.196 C40.342,63.196 40.394,63.196 40.394,63.196 C40.968,63.196 41.470,63.262 41.907,63.290 C42.425,63.335 42.940,63.416 43.435,63.507 C48.248,64.412 54.000,67.104 54.000,67.104 L54.000,69.284 L54.000,70.625 L54.000,72.788 L54.000,74.435 L54.000,75.156 L54.000,75.509 L54.000,75.659 L53.290,75.755 L52.939,75.799 L52.075,75.881 L20.124,75.962 C20.124,75.962 19.342,75.963 18.235,76.000 C18.235,76.000 4.000,76.000 4.000,76.000 C1.791,76.000 -0.000,74.209 -0.000,72.000 z" fill="#9A9A9A" />
<path id="Rectangle-18" d="M54.000,18.000 L54.000,-0.000 C54.000,-0.000 72.000,-0.000 72.000,-0.000 C74.209,-0.000 76.000,1.791 76.000,4.000 C76.000,4.000 76.000,18.000 76.000,18.000 L54.000,18.000 z" fill="#C8C7C5" />
<path id="Rectangle-18" d="M76.000,43.000 L54.000,43.000 L54.000,18.000 L76.000,18.000 L76.000,43.000 z" fill="#5BC7F9" />
<path id="Rectangle-18" d="M76.000,63.000 L54.000,63.000 L54.000,38.000 L76.000,38.000 L76.000,63.000 z" fill="#4BD962" />
<path id="Rectangle-18" d="M72.000,76.000 C72.000,76.000 54.000,76.000 54.000,76.000 L54.000,58.000 L76.000,58.000 C76.000,58.000 76.000,72.000 76.000,72.000 C76.000,74.209 74.209,76.000 72.000,76.000 z" fill="#FF9300" />
<path id="A" d="M63.530,6.000 L61.689,10.984 L63.236,10.984 L63.481,10.277 L65.084,10.277 L65.329,10.984 L66.876,10.984 L65.042,6.000 L63.530,6.000 zM63.810,9.206 C63.922,8.870 64.013,8.588 64.083,8.359 C64.148,8.149 64.218,7.895 64.293,7.596 C64.358,7.899 64.421,8.151 64.482,8.352 C64.482,8.352 64.748,9.206 64.748,9.206 C64.748,9.206 63.810,9.206 63.810,9.206 z" fill="#000000" opacity="0.851" />
<path id="B" d="M62.172,29.984 C62.172,29.984 64.790,29.984 64.790,29.984 C65.051,29.984 65.289,29.959 65.504,29.910 C65.719,29.861 65.919,29.781 66.106,29.669 C66.293,29.557 66.439,29.399 66.544,29.196 C66.649,28.993 66.701,28.752 66.701,28.472 C66.701,27.856 66.412,27.448 65.833,27.247 C66.248,27.000 66.456,26.666 66.456,26.246 C66.456,25.415 65.866,25.000 64.685,25.000 C64.685,25.000 62.172,25.000 62.172,25.000 L62.172,29.984 zM64.447,26.134 C64.802,26.134 64.979,26.265 64.979,26.526 C64.979,26.643 64.938,26.735 64.857,26.802 C64.775,26.870 64.662,26.904 64.517,26.904 C64.517,26.904 63.656,26.904 63.656,26.904 L63.656,26.134 C63.656,26.134 64.447,26.134 64.447,26.134 zM64.601,27.863 C64.988,27.863 65.182,28.022 65.182,28.339 C65.182,28.647 64.988,28.801 64.601,28.801 C64.601,28.801 63.656,28.801 63.656,28.801 L63.656,27.863 C63.656,27.863 64.601,27.863 64.601,27.863 z" fill="#000000" opacity="0.851" />
<path id="C" d="M65.343,48.017 C65.264,48.549 64.995,48.815 64.538,48.815 C64.239,48.815 64.005,48.696 63.835,48.458 C63.664,48.220 63.579,47.893 63.579,47.478 C63.579,47.254 63.607,47.046 63.663,46.855 C63.719,46.664 63.823,46.497 63.975,46.354 C64.126,46.212 64.314,46.141 64.538,46.141 C64.753,46.141 64.930,46.202 65.070,46.323 C65.210,46.444 65.301,46.617 65.343,46.841 C65.343,46.841 66.827,46.841 66.827,46.841 C66.790,46.281 66.555,45.813 66.124,45.437 C65.692,45.062 65.173,44.874 64.566,44.874 C63.819,44.874 63.212,45.122 62.743,45.619 C62.274,46.116 62.039,46.736 62.039,47.478 C62.039,48.229 62.268,48.855 62.725,49.354 C63.182,49.853 63.787,50.103 64.538,50.103 C65.173,50.103 65.706,49.921 66.138,49.557 C66.569,49.193 66.806,48.680 66.848,48.017 C66.848,48.017 65.343,48.017 65.343,48.017 z" fill="#000000" opacity="0.851" />
<path id="D" d="M62.193,69.984 C62.193,69.984 64.391,69.984 64.391,69.984 C65.212,69.984 65.841,69.772 66.278,69.347 C66.714,68.922 66.932,68.299 66.932,67.478 C66.932,66.708 66.706,66.102 66.253,65.661 C65.800,65.220 65.189,65.000 64.419,65.000 C64.419,65.000 62.193,65.000 62.193,65.000 L62.193,69.984 zM64.146,66.253 C64.547,66.253 64.859,66.358 65.081,66.568 C65.302,66.778 65.413,67.091 65.413,67.506 C65.413,67.889 65.319,68.187 65.130,68.402 C64.941,68.617 64.662,68.724 64.293,68.724 C64.293,68.724 63.691,68.724 63.691,68.724 L63.691,66.253 C63.691,66.253 64.146,66.253 64.146,66.253 z" fill="#000000" opacity="0.851" />
</g>
</svg>
