<svg version="1.1" xmlns="http://www.w3.org/2000/svg" xmlns:xlink="http://www.w3.org/1999/xlink" width="102" height="110" viewBox="0 0 102 110">
<g id="guarantees_1">
<g id="Forma-1" >
<path id="Forma-1-fill" d="M50.999,108.111 C78.458,108.111 100.798,84.284 100.798,54.995 C100.798,25.707 78.458,1.879 50.999,1.879 C23.539,1.879 1.199,25.707 1.199,54.995 C1.199,84.284 23.539,108.111 50.999,108.111 z" fill="#FFFFFF" />
<path id="Forma-1-stroke" d="M50.999,108.603 C78.733,108.603 101.296,84.555 101.296,54.995 C101.296,25.436 78.733,1.388 50.999,1.388 C23.265,1.388 0.701,25.436 0.701,54.995 C0.701,84.555 23.265,108.603 50.999,108.603 z" fill="none" stroke="#0088CC" stroke-opacity="1.000" stroke-width="1" stroke-linejoin="round" />
</g>
<path id="Forma-1" d="M76.899,66.846 C76.899,66.846 75.989,66.846 75.989,66.846 C75.989,66.846 75.989,79.922 75.989,79.922 C75.989,80.518 75.502,81.000 74.899,81.000 C74.899,81.000 32.826,81.000 32.826,81.000 C29.068,81.000 26.011,77.977 26.011,74.264 C26.011,74.264 26.011,35.887 26.011,35.887 C26.011,35.877 26.017,35.867 26.017,35.856 C26.016,35.816 26.011,35.777 26.011,35.736 C26.011,32.022 29.068,29.000 32.826,29.000 C32.826,29.000 71.809,29.000 71.809,29.000 C72.412,29.000 72.899,29.483 72.899,30.078 C72.899,30.078 72.899,40.316 72.899,40.316 C72.899,40.316 74.899,40.316 74.899,40.316 C75.502,40.316 75.989,40.799 75.989,41.394 C75.989,41.394 75.989,54.846 75.989,54.846 C75.989,54.846 76.899,54.846 76.899,54.846 C77.502,54.846 77.989,55.329 77.989,55.924 C77.989,55.924 77.989,65.769 77.989,65.769 C77.989,66.364 77.502,66.846 76.899,66.846 zM71.000,31.000 C71.000,31.000 33.000,31.000 33.000,31.000 C30.445,31.000 28.191,33.211 28.191,35.736 C28.191,38.260 30.445,41.000 33.000,41.000 C33.000,41.000 71.000,41.000 71.000,41.000 L71.000,31.000 zM74.000,43.000 L72.000,43.000 L33.000,43.000 C33.000,43.000 31.000,43.000 31.000,43.000 C30.986,43.000 30.992,42.981 31.006,42.958 C29.958,42.828 28.768,41.759 28.000,41.000 C28.000,41.000 28.000,74.000 28.000,74.000 C28.000,76.526 30.445,79.000 33.000,79.000 C33.000,79.000 74.000,79.000 74.000,79.000 L74.000,67.000 C74.000,67.000 62.540,66.849 62.540,66.849 C62.183,66.849 61.851,66.676 61.646,66.388 C61.646,66.388 58.374,61.752 58.374,61.752 C58.126,61.397 58.112,60.933 58.342,60.566 C58.342,60.566 61.614,55.357 61.614,55.357 C61.814,55.040 61.622,55.000 62.000,55.000 C62.000,55.000 74.000,55.000 74.000,55.000 L74.000,43.000 zM76.000,57.000 L75.000,57.000 L63.000,57.000 L60.574,61.099 L63.000,65.000 L75.000,65.000 L76.000,65.000 L76.000,57.000 zM65.448,63.721 C63.843,63.721 62.540,62.432 62.540,60.847 C62.540,59.262 63.843,57.972 65.448,57.972 C67.053,57.972 68.356,59.262 68.356,60.847 C68.356,62.432 67.053,63.721 65.448,63.721 zM65.448,60.128 C65.047,60.128 64.721,60.452 64.721,60.847 C64.721,61.243 65.047,61.565 65.448,61.565 C65.850,61.565 66.176,61.243 66.176,60.847 C66.176,60.452 65.850,60.128 65.448,60.128 z" fill="#0088CC" />
</g>
</svg>
