<svg version="1.1" xmlns="http://www.w3.org/2000/svg" xmlns:xlink="http://www.w3.org/1999/xlink" width="102" height="110" viewBox="0 0 102 110">
<g id="guarantees_2">
<g id="Forma-1" >
<path id="Forma-1-fill" d="M50.999,108.111 C78.458,108.111 100.798,84.284 100.798,54.995 C100.798,25.707 78.458,1.879 50.999,1.879 C23.539,1.879 1.199,25.707 1.199,54.995 C1.199,84.284 23.539,108.111 50.999,108.111 z" fill="#FFFFFF" />
<path id="Forma-1-stroke" d="M50.999,108.603 C78.733,108.603 101.296,84.555 101.296,54.995 C101.296,25.436 78.733,1.388 50.999,1.388 C23.265,1.388 0.701,25.436 0.701,54.995 C0.701,84.555 23.265,108.603 50.999,108.603 z" fill="none" stroke="#0088CC" stroke-opacity="1.000" stroke-width="1" stroke-linejoin="round" />
</g>
<path id="Forma-1" d="M64.000,51.000 C64.000,51.000 63.833,40.450 63.833,40.450 C63.833,33.648 58.301,28.117 51.500,28.117 C44.699,28.117 39.167,33.648 39.167,40.450 C39.167,40.450 39.000,51.000 39.000,51.000 L31.000,51.000 L31.000,83.000 L72.000,83.000 L72.000,51.000 L64.000,51.000 zM41.000,41.000 C41.000,35.302 45.803,30.117 51.500,30.117 C57.196,30.117 62.000,34.303 62.000,40.000 C62.000,40.000 62.000,51.000 62.000,51.000 L41.000,51.000 C41.000,51.000 41.000,41.000 41.000,41.000 zM70.000,81.000 L33.000,81.000 L33.000,52.917 L70.000,52.917 L70.000,81.000 z" fill="#0088CC" />
</g>
</svg>
