<svg version="1.1" xmlns="http://www.w3.org/2000/svg" xmlns:xlink="http://www.w3.org/1999/xlink" width="102" height="110" viewBox="0 0 102 110">
<g id="guarantees_3">
<g id="Forma-1" >
<path id="Forma-1-fill" d="M50.999,108.111 C78.458,108.111 100.798,84.284 100.798,54.995 C100.798,25.707 78.458,1.879 50.999,1.879 C23.539,1.879 1.199,25.707 1.199,54.995 C1.199,84.284 23.539,108.111 50.999,108.111 z" fill="#FFFFFF" />
<path id="Forma-1-stroke" d="M50.999,108.603 C78.733,108.603 101.296,84.555 101.296,54.995 C101.296,25.436 78.733,1.388 50.999,1.388 C23.265,1.388 0.701,25.436 0.701,54.995 C0.701,84.555 23.265,108.603 50.999,108.603 z" fill="none" stroke="#0088CC" stroke-opacity="1.000" stroke-width="1" stroke-linejoin="round" />
</g>
<path id="Forma-1" d="M75.445,30.573 C75.441,30.569 75.436,30.564 75.432,30.560 C74.406,29.554 73.046,29.000 71.603,29.000 C70.141,29.000 68.768,29.567 67.738,30.596 C67.727,30.607 67.717,30.618 67.706,30.629 C67.706,30.629 52.192,47.691 52.192,47.691 C52.192,47.691 47.263,42.762 47.263,42.762 C46.566,42.079 45.643,41.702 44.663,41.702 C43.670,41.702 42.738,42.088 42.038,42.787 C42.038,42.787 33.912,50.910 33.912,50.910 C33.732,51.090 33.631,51.334 33.631,51.589 C33.631,51.844 33.732,52.088 33.912,52.268 C33.912,52.268 34.308,52.664 34.308,52.664 C34.308,52.664 25.282,61.687 25.282,61.687 C25.102,61.867 25.001,62.111 25.001,62.365 C25.001,62.620 25.102,62.864 25.282,63.044 C25.282,63.044 32.352,70.114 32.352,70.114 L32.352,70.114 C32.352,70.114 32.352,70.115 32.353,70.115 C32.353,70.115 42.957,80.719 42.957,80.719 C43.144,80.906 43.390,81.000 43.636,81.000 C43.881,81.000 44.127,80.906 44.315,80.719 C44.315,80.719 53.341,71.696 53.341,71.696 C53.341,71.696 53.735,72.091 53.735,72.091 C53.916,72.271 54.160,72.372 54.414,72.372 C54.669,72.372 54.913,72.271 55.093,72.091 C55.093,72.091 63.217,63.965 63.217,63.965 C64.650,62.532 64.661,60.188 63.235,58.734 C63.235,58.734 58.313,53.811 58.313,53.811 C58.313,53.811 75.375,38.298 75.375,38.298 C75.387,38.288 75.398,38.277 75.408,38.266 C77.519,36.155 77.535,32.704 75.445,30.573 zM43.636,78.682 L41.459,76.506 C41.459,76.506 45.204,72.763 45.204,72.763 C45.579,72.388 45.579,71.780 45.204,71.405 C44.830,71.030 44.222,71.030 43.847,71.405 C43.847,71.405 40.102,75.148 40.102,75.148 L37.924,72.971 C37.924,72.971 41.638,69.257 41.638,69.257 C42.014,68.883 42.014,68.275 41.639,67.900 C41.264,67.525 40.656,67.525 40.281,67.900 C40.281,67.900 36.567,71.613 36.567,71.613 L34.389,69.436 C34.389,69.436 38.074,65.753 38.074,65.753 C38.449,65.378 38.449,64.770 38.074,64.395 C37.699,64.020 37.091,64.020 36.716,64.395 C36.716,64.395 33.031,68.078 33.031,68.078 L30.854,65.901 C30.854,65.901 34.478,62.278 34.478,62.278 C34.853,61.903 34.853,61.295 34.478,60.920 C34.103,60.545 33.495,60.545 33.120,60.920 C33.120,60.920 29.496,64.543 29.496,64.543 L27.319,62.366 L35.666,54.022 L51.973,70.348 L43.636,78.682 zM61.859,62.607 C61.859,62.607 54.414,70.054 54.414,70.054 L35.949,51.589 C35.949,51.589 43.395,44.145 43.395,44.145 C43.733,43.808 44.183,43.622 44.663,43.622 C45.137,43.622 45.583,43.804 45.912,44.126 C45.912,44.126 51.546,49.760 51.546,49.760 C51.546,49.760 56.243,54.457 56.243,54.457 C56.244,54.458 56.244,54.458 56.245,54.458 C56.245,54.458 61.871,60.085 61.871,60.085 C62.556,60.784 62.551,61.915 61.859,62.607 zM74.066,36.894 C74.066,36.894 56.954,52.452 56.954,52.452 L53.551,49.050 C53.551,49.050 69.111,31.939 69.111,31.939 C69.776,31.282 70.661,30.920 71.603,30.920 C72.537,30.920 73.417,31.277 74.081,31.924 C75.425,33.302 75.417,35.525 74.066,36.894 z" fill="#0088CC" />
</g>
</svg>
