<svg version="1.1" xmlns="http://www.w3.org/2000/svg" xmlns:xlink="http://www.w3.org/1999/xlink" width="35" height="25" viewBox="0 0 35 25">
<g id="ic_contact-email">
<path id="ic_contact-email" d="M34.999,24.412 C34.998,24.475 34.989,24.539 34.967,24.601 C34.965,24.608 34.959,24.614 34.956,24.621 C34.949,24.641 34.936,24.659 34.926,24.678 C34.903,24.722 34.877,24.762 34.844,24.798 C34.828,24.817 34.811,24.833 34.792,24.849 C34.756,24.880 34.717,24.906 34.675,24.928 C34.654,24.938 34.635,24.949 34.614,24.958 C34.548,24.983 34.478,25.000 34.404,25.000 C34.404,25.000 22.493,25.000 22.493,25.000 L12.963,25.000 C12.963,25.000 1.051,25.000 1.051,25.000 C0.978,25.000 0.908,24.983 0.842,24.958 C0.820,24.949 0.801,24.938 0.781,24.928 C0.739,24.906 0.699,24.880 0.664,24.849 C0.645,24.833 0.628,24.817 0.611,24.798 C0.579,24.762 0.553,24.722 0.530,24.678 C0.520,24.659 0.507,24.641 0.499,24.621 C0.496,24.614 0.491,24.608 0.489,24.601 C0.467,24.539 0.458,24.475 0.457,24.412 C0.457,24.410 0.456,24.408 0.456,24.406 C0.456,24.406 0.456,1.250 0.456,1.250 C0.456,1.245 0.458,1.241 0.458,1.236 C0.460,1.170 0.469,1.104 0.494,1.040 C0.496,1.036 0.499,1.033 0.501,1.029 C0.507,1.013 0.518,1.000 0.525,0.985 C0.550,0.937 0.579,0.893 0.614,0.854 C0.630,0.837 0.646,0.823 0.663,0.808 C0.701,0.776 0.740,0.749 0.784,0.727 C0.804,0.717 0.822,0.706 0.842,0.698 C0.908,0.673 0.978,0.656 1.051,0.656 C1.051,0.656 1.051,0.656 1.051,0.656 L34.404,0.656 C34.404,0.656 34.404,0.656 34.404,0.656 C34.478,0.656 34.547,0.673 34.613,0.698 C34.634,0.706 34.652,0.717 34.672,0.727 C34.716,0.749 34.755,0.776 34.793,0.808 C34.810,0.823 34.826,0.837 34.841,0.854 C34.877,0.893 34.906,0.937 34.930,0.985 C34.938,1.000 34.949,1.013 34.955,1.029 C34.957,1.033 34.960,1.036 34.962,1.040 C34.986,1.104 34.996,1.170 34.998,1.236 C34.998,1.241 35.000,1.245 35.000,1.250 C35.000,1.250 35.000,24.406 35.000,24.406 C35.000,24.408 34.999,24.410 34.999,24.412 zM33.809,11.938 C33.809,11.937 33.809,11.937 33.809,11.937 L33.809,2.567 C33.809,2.567 21.637,13.282 21.637,13.282 C24.946,16.163 31.375,21.262 33.809,23.181 C33.809,23.181 33.809,11.938 33.809,11.938 zM12.963,23.812 L22.493,23.812 C22.493,23.812 32.690,23.812 32.690,23.812 C29.981,21.673 23.875,16.818 20.737,14.073 C20.737,14.073 19.888,14.821 19.888,14.821 C19.293,15.350 18.511,15.615 17.729,15.615 C17.729,15.615 17.728,15.614 17.728,15.614 C17.728,15.614 17.727,15.615 17.727,15.615 C16.945,15.615 16.163,15.350 15.568,14.821 C15.568,14.821 14.719,14.073 14.719,14.073 C11.581,16.818 5.475,21.673 2.766,23.812 C2.766,23.812 12.963,23.812 12.963,23.812 zM13.819,13.282 C13.819,13.282 1.647,2.567 1.647,2.567 L1.647,11.937 C1.647,11.937 1.647,11.937 1.647,11.938 C1.647,11.938 1.647,23.181 1.647,23.181 C4.081,21.262 10.510,16.163 13.819,13.282 zM2.626,1.844 C2.626,1.844 15.126,12.848 15.126,12.848 C15.140,12.860 15.157,12.866 15.170,12.880 C15.173,12.884 15.174,12.889 15.178,12.893 C15.178,12.893 15.299,12.999 15.299,12.999 C15.299,12.999 16.356,13.930 16.356,13.930 C16.724,14.258 17.203,14.423 17.685,14.433 C17.700,14.433 17.714,14.436 17.728,14.436 C17.742,14.436 17.756,14.433 17.770,14.433 C18.252,14.423 18.732,14.258 19.100,13.930 C19.100,13.930 20.157,12.999 20.157,12.999 C20.157,12.999 20.278,12.893 20.278,12.893 C20.282,12.889 20.282,12.884 20.286,12.880 C20.298,12.866 20.315,12.860 20.329,12.848 C20.329,12.848 32.830,1.844 32.830,1.844 L2.626,1.844 z" fill="#333333" />
</g>
</svg>
