<svg version="1.1" xmlns="http://www.w3.org/2000/svg" xmlns:xlink="http://www.w3.org/1999/xlink" width="38" height="38" viewBox="0 0 38 38">
<g id="ic_check">
<path id="ic_check" d="M19.000,38.000 C8.507,38.000 -0.000,29.493 -0.000,19.000 C-0.000,8.507 8.507,-0.000 19.000,-0.000 C29.493,-0.000 38.000,8.507 38.000,19.000 C38.000,29.493 29.493,38.000 19.000,38.000 zM19.000,1.187 C9.163,1.187 1.187,9.163 1.187,19.000 C1.187,28.837 9.163,36.812 19.000,36.812 C28.837,36.812 36.812,28.837 36.812,19.000 C36.812,9.163 28.837,1.187 19.000,1.187 zM16.625,24.326 L16.493,24.457 L11.167,19.132 L12.007,18.292 L16.625,22.910 L25.993,13.542 L26.832,14.382 L16.757,24.457 L16.625,24.326 z" fill="#5eaf41" />
</g>
</svg>
