<svg version="1.1" xmlns="http://www.w3.org/2000/svg" xmlns:xlink="http://www.w3.org/1999/xlink" width="102" height="110" viewBox="0 0 102 110">
<g id="ic_install">
<g id="Forma-1" >
<path id="Forma-1-fill" d="M50.999,108.111 C78.458,108.111 100.798,84.284 100.798,54.995 C100.798,25.707 78.458,1.879 50.999,1.879 C23.539,1.879 1.199,25.707 1.199,54.995 C1.199,84.284 23.539,108.111 50.999,108.111 z" fill="#FFFFFF" />
<path id="Forma-1-stroke" d="M50.999,108.603 C78.733,108.603 101.296,84.555 101.296,54.995 C101.296,25.436 78.733,1.388 50.999,1.388 C23.265,1.388 0.701,25.436 0.701,54.995 C0.701,84.555 23.265,108.603 50.999,108.603 z" fill="none" stroke="#0088CC" stroke-opacity="1.000" stroke-width="1" stroke-linejoin="round" />
</g>
<path id="Forma-1" d="M71.000,37.000 C71.000,37.000 71.000,91.000 71.000,91.000 C71.000,93.818 69.073,96.000 66.273,96.000 C66.273,96.000 35.727,96.000 35.727,96.000 C32.927,96.000 31.000,93.818 31.000,91.000 C31.000,91.000 31.000,42.000 31.000,42.000 C30.650,42.000 30.000,41.899 30.000,41.547 C30.000,41.547 30.000,37.703 30.000,37.703 C30.000,37.350 30.650,37.000 31.000,37.000 C31.000,37.000 31.000,36.000 31.000,36.000 C30.650,36.000 30.000,35.493 30.000,35.140 C30.000,35.140 30.000,31.297 30.000,31.297 C30.000,30.944 30.650,31.000 31.000,31.000 C31.000,31.000 31.000,27.000 31.000,27.000 C30.650,27.000 30.000,26.524 30.000,26.172 C30.000,26.172 30.000,24.890 30.000,24.890 C30.000,24.538 30.650,24.000 31.000,24.000 C31.000,24.000 31.000,19.000 31.000,19.000 C31.000,16.181 32.927,14.000 35.727,14.000 C35.727,14.000 66.273,14.000 66.273,14.000 C69.073,14.000 71.000,16.181 71.000,19.000 C71.000,19.000 71.000,31.000 71.000,31.000 C71.350,31.000 72.000,30.944 72.000,31.297 C72.000,31.297 72.000,36.421 72.000,36.421 C72.000,36.774 71.350,37.000 71.000,37.000 zM70.000,19.000 C70.000,16.881 68.105,15.000 66.000,15.000 C66.000,15.000 36.000,15.000 36.000,15.000 C33.895,15.000 31.909,17.006 31.909,19.125 C31.909,19.125 31.909,90.875 31.909,90.875 C31.909,92.994 33.895,95.000 36.000,95.000 C36.000,95.000 66.000,95.000 66.000,95.000 C68.105,95.000 70.000,93.119 70.000,91.000 C70.000,91.000 70.000,19.000 70.000,19.000 zM66.285,87.031 C66.285,87.031 35.714,87.031 35.714,87.031 C34.316,87.031 33.000,85.408 33.000,84.000 C33.000,84.000 33.000,26.000 33.000,26.000 C33.000,24.592 34.601,23.000 36.000,23.000 C36.000,23.000 66.000,23.000 66.000,23.000 C67.399,23.000 69.000,24.592 69.000,26.000 C69.000,26.000 69.000,84.000 69.000,84.000 C69.000,85.408 67.684,87.031 66.285,87.031 zM68.000,26.000 C68.000,24.947 67.045,24.000 66.000,24.000 C66.000,24.000 36.000,24.000 36.000,24.000 C34.954,24.000 34.000,24.947 34.000,26.000 C34.000,26.000 34.000,84.000 34.000,84.000 C34.000,85.052 34.954,86.000 36.000,86.000 C36.000,86.000 66.000,86.000 66.000,86.000 C67.045,86.000 68.000,85.052 68.000,84.000 C68.000,84.000 68.000,26.000 68.000,26.000 zM56.000,20.000 C56.000,20.000 46.000,20.000 46.000,20.000 C45.825,20.000 45.909,19.621 45.909,19.445 C45.909,19.269 45.825,19.000 46.000,19.000 C46.000,19.000 56.000,19.000 56.000,19.000 C56.175,19.000 56.091,19.269 56.091,19.445 C56.091,19.621 56.175,20.000 56.000,20.000 zM44.318,19.765 C44.142,19.765 44.000,19.622 44.000,19.445 C44.000,19.268 44.142,19.125 44.318,19.125 C44.494,19.125 44.636,19.268 44.636,19.445 C44.636,19.622 44.494,19.765 44.318,19.765 zM51.000,88.312 C52.406,88.312 53.545,89.459 53.545,90.875 C53.545,92.290 52.406,93.437 51.000,93.437 C49.594,93.437 48.455,92.290 48.455,90.875 C48.455,89.459 49.594,88.312 51.000,88.312 zM51.000,92.797 C52.053,92.797 52.909,91.934 52.909,90.875 C52.909,89.815 52.053,88.953 51.000,88.953 C49.947,88.953 49.091,89.815 49.091,90.875 C49.091,91.934 49.947,92.797 51.000,92.797 z" fill="#0088CC" />
<path id="Shape-1" d="M60.360,60.960 C60.008,60.960 60.000,61.641 60.000,62.000 C60.000,62.000 60.000,66.000 60.000,66.000 L42.000,66.000 C42.000,66.000 42.000,62.000 42.000,62.000 C42.000,61.641 41.987,60.960 41.635,60.960 C41.282,60.960 41.000,61.247 41.000,61.606 C41.000,61.606 41.000,66.354 41.000,66.354 C41.000,66.713 41.282,67.000 41.635,67.000 C41.635,67.000 60.365,67.000 60.365,67.000 C60.718,67.000 61.000,66.713 61.000,66.354 C61.000,66.354 61.000,61.606 61.000,61.606 C60.995,61.247 60.713,60.960 60.360,60.960 z" fill="#0088CC" />
<path id="Shape-8" d="M51.000,45.000 L52.000,45.000 L52.000,61.000 L51.000,61.000 L51.000,45.000 z" fill="#0088CC" />
<path id="Shape-9" d="M52.000,61.000 L51.000,60.000 L55.688,56.609 L56.312,57.390 L52.000,61.000 z" fill="#0088CC" />
<path id="Shape-9" d="M51.059,61.000 L52.000,60.086 L47.588,56.985 L47.000,57.700 L51.059,61.000 z" fill="#0088CC" />
</g>
</svg>
