<svg version="1.1" xmlns="http://www.w3.org/2000/svg" xmlns:xlink="http://www.w3.org/1999/xlink" width="16" height="18" viewBox="0 0 16 18">
<g id="ic_mac">
<path id="ic_mac" d="M12.988,9.544 C12.965,7.345 14.875,6.291 14.961,6.239 C13.888,4.746 12.215,4.542 11.620,4.518 C10.196,4.381 8.843,5.314 8.120,5.314 C7.400,5.314 6.286,4.538 5.105,4.559 C3.554,4.581 2.124,5.415 1.326,6.735 C-0.286,9.392 0.913,13.327 2.483,15.482 C3.251,16.536 4.166,17.721 5.368,17.679 C6.525,17.635 6.963,16.967 8.362,16.967 C9.761,16.967 10.154,17.679 11.378,17.657 C12.624,17.635 13.412,16.582 14.175,15.524 C15.056,14.301 15.419,13.116 15.440,13.055 C15.413,13.043 13.012,12.170 12.988,9.544 zM10.687,3.092 C11.325,2.357 11.755,1.337 11.638,0.320 C10.719,0.355 9.606,0.901 8.947,1.634 C8.355,2.285 7.838,3.323 7.976,4.320 C9.002,4.396 10.049,3.825 10.687,3.092 z" fill="#FFFFFF" />
</g>
</svg>
