<svg version="1.1" xmlns="http://www.w3.org/2000/svg" xmlns:xlink="http://www.w3.org/1999/xlink" width="22" height="22" viewBox="0 0 22 22">
<g id="ic_no">
<path id="ic_no" d="M11.000,22.000 C4.925,22.000 -0.000,17.075 -0.000,11.000 C-0.000,4.925 4.925,-0.000 11.000,-0.000 C17.075,-0.000 22.000,4.925 22.000,11.000 C22.000,17.075 17.075,22.000 11.000,22.000 zM11.000,0.687 C5.305,0.687 0.687,5.305 0.687,11.000 C0.687,16.695 5.305,21.313 11.000,21.313 C16.695,21.313 21.312,16.695 21.312,11.000 C21.312,5.305 16.695,0.687 11.000,0.687 zM13.673,14.159 L11.000,11.486 L8.326,14.159 L7.840,13.673 L10.514,11.000 L7.840,8.326 L8.326,7.840 L11.000,10.514 L13.673,7.840 L14.159,8.326 L11.486,11.000 L14.159,13.673 L13.673,14.159 z" fill="#D82058" />
</g>
</svg>
