<svg version="1.1" xmlns="http://www.w3.org/2000/svg" xmlns:xlink="http://www.w3.org/1999/xlink" width="38" height="38" viewBox="0 0 38 38">
<g id="ic_plus">
<path id="ic_plus" d="M19.000,38.000 C8.507,38.000 -0.000,29.493 -0.000,19.000 C-0.000,8.507 8.507,-0.000 19.000,-0.000 C29.493,-0.000 38.000,8.507 38.000,19.000 C38.000,29.493 29.493,38.000 19.000,38.000 zM19.000,1.187 C9.163,1.187 1.187,9.163 1.187,19.000 C1.187,28.837 9.163,36.813 19.000,36.813 C28.837,36.813 36.812,28.837 36.812,19.000 C36.812,9.163 28.837,1.187 19.000,1.187 zM19.594,26.125 L18.406,26.125 L18.406,19.594 L11.875,19.594 L11.875,18.406 L18.406,18.406 L18.406,11.875 L19.594,11.875 L19.594,18.406 L26.125,18.406 L26.125,19.594 L19.594,19.594 L19.594,26.125 z" fill="#333333" />
</g>
</svg>
