<svg version="1.1" xmlns="http://www.w3.org/2000/svg" xmlns:xlink="http://www.w3.org/1999/xlink" width="22" height="22" viewBox="0 0 22 22">
<g id="ic_yes">
<path id="ic_yes" d="M11.000,22.000 C4.925,22.000 -0.000,17.075 -0.000,11.000 C-0.000,4.925 4.925,-0.000 11.000,-0.000 C17.075,-0.000 22.000,4.925 22.000,11.000 C22.000,17.075 17.075,22.000 11.000,22.000 zM11.000,0.687 C5.305,0.687 0.687,5.305 0.687,11.000 C0.687,16.695 5.305,21.312 11.000,21.312 C16.695,21.312 21.312,16.695 21.312,11.000 C21.312,5.305 16.695,0.687 11.000,0.687 zM9.625,14.084 L9.549,14.159 L6.465,11.076 L6.951,10.590 L9.625,13.264 L15.048,7.840 L15.534,8.326 L9.701,14.159 L9.625,14.084 z" fill="#5EAF41" />
</g>
</svg>
