<svg version="1.1" xmlns="http://www.w3.org/2000/svg" xmlns:xlink="http://www.w3.org/1999/xlink" width="400" height="185" viewBox="0 0 400 185">
<g id="image-thanks">
<path id="Forma-1" d="M101.475,76.633 C101.475,76.633 101.475,76.634 101.475,76.634 C100.587,77.225 100.000,78.237 100.000,79.386 C100.000,79.386 100.000,181.696 100.000,181.696 C100.000,183.520 101.476,185.000 103.296,185.000 C103.296,185.000 295.704,185.000 295.704,185.000 C297.524,185.000 299.000,183.520 299.000,181.696 C299.000,181.696 299.000,79.386 299.000,79.386 C299.000,78.237 298.413,77.225 297.525,76.633 C297.525,76.633 297.525,76.633 297.525,76.633 " fill="#1B9AD9" />
<path id="Forma-1" d="M126.881,88.187 L116.543,82.690 L126.881,82.690 L126.881,88.187 zM106.592,84.878 L182.386,125.179 L106.592,175.540 L106.592,84.878 zM199.499,121.735 L284.768,178.392 L114.230,178.392 L199.499,121.735 zM216.613,125.180 L292.408,84.878 L292.408,175.542 L216.613,125.180 zM272.115,82.690 L282.457,82.690 L272.115,88.189 L272.115,82.690 zM284.768,76.083 L272.115,76.083 L272.115,67.674 L284.768,76.083 zM126.881,76.083 L114.233,76.083 L126.881,67.678 L126.881,76.083 z" fill="#90D4F5" />
<path id="Forma-1" d="M299.000,79.386 C299.000,78.237 298.413,77.225 297.525,76.633 C297.525,76.633 297.525,76.633 297.525,76.633 L272.115,59.746 C272.115,59.746 272.115,3.304 272.115,3.304 C272.115,1.479 270.639,0.000 268.819,0.000 C268.819,0.000 130.177,0.000 130.177,0.000 C128.357,0.000 126.881,1.479 126.881,3.304 C126.881,3.304 126.881,59.750 126.881,59.750 L101.475,76.633 C101.475,76.633 101.475,76.634 101.475,76.634 C100.587,77.225 100.000,78.237 100.000,79.386 M284.768,76.083 L272.115,76.083 L272.115,67.674 L284.768,76.083 zM126.881,76.083 L114.233,76.083 L126.881,67.678 L126.881,76.083 z" fill="#1B9AD9" />
<path id="Forma-1" d="M265.523,6.608 L265.523,91.694 L210.360,121.025 C210.360,121.025 201.319,115.018 201.319,115.018 C200.216,114.285 198.781,114.285 197.678,115.018 C197.678,115.018 188.638,121.024 188.638,121.024 L133.473,91.692 L133.473,6.608 L265.523,6.608 z" fill="#FFFFFF" />
<path id="Forma-1" d="M199.498,86.884 C199.498,86.884 225.757,86.884 225.757,86.884 C227.577,86.884 229.052,85.405 229.052,83.580 C229.052,81.756 227.577,80.277 225.757,80.277 C225.757,80.277 199.498,80.277 199.498,80.277 C186.836,80.277 176.535,69.951 176.535,57.259 C176.535,57.259 176.535,56.284 176.535,56.284 C176.535,43.592 186.836,33.266 199.498,33.266 C212.160,33.266 222.461,43.592 222.461,56.284 C222.461,56.284 222.461,58.721 222.461,58.721 C222.461,61.469 220.231,63.704 217.490,63.704 C214.748,63.704 212.519,61.469 212.519,58.721 C212.519,58.721 212.519,54.091 212.519,54.091 C212.519,46.222 206.132,39.820 198.282,39.820 C190.431,39.820 184.045,46.221 184.045,54.091 C184.045,61.960 190.431,68.362 198.282,68.362 C201.872,68.362 205.153,67.020 207.660,64.815 C209.700,68.111 213.343,70.311 217.490,70.311 C223.865,70.311 229.052,65.112 229.052,58.721 C229.052,58.721 229.052,56.284 229.052,56.284 C229.052,39.948 215.794,26.658 199.498,26.658 C183.201,26.658 169.943,39.948 169.943,56.284 C169.943,56.284 169.943,57.258 169.943,57.258 C169.943,73.594 183.201,86.884 199.498,86.884 zM198.282,61.754 C194.066,61.754 190.637,58.317 190.637,54.091 C190.637,49.865 194.067,46.427 198.282,46.427 C202.497,46.427 205.927,49.865 205.927,54.091 C205.927,58.317 202.497,61.754 198.282,61.754 z" fill="#1B9AD9" />
<path id="Rounded-Rectangl" d="M335.000,112.000 C335.000,112.000 397.000,112.000 397.000,112.000 C398.657,112.000 400.000,113.343 400.000,115.000 C400.000,116.657 398.657,118.000 397.000,118.000 C397.000,118.000 335.000,118.000 335.000,118.000 C333.343,118.000 332.000,116.657 332.000,115.000 C332.000,113.343 333.343,112.000 335.000,112.000 z" fill="#1B9AD9" />
<path id="Rounded-Rectangl" d="M3.000,112.000 C3.000,112.000 65.000,112.000 65.000,112.000 C66.657,112.000 68.000,113.343 68.000,115.000 C68.000,116.657 66.657,118.000 65.000,118.000 C65.000,118.000 3.000,118.000 3.000,118.000 C1.343,118.000 -0.000,116.657 -0.000,115.000 C-0.000,113.343 1.343,112.000 3.000,112.000 z" fill="#1B9AD9" />
<path id="Rounded-Rectangl" d="M29.833,59.079 C29.833,59.079 69.720,72.126 69.720,72.126 C71.320,72.554 72.270,74.199 71.841,75.800 C71.413,77.400 69.768,78.350 68.167,77.921 C68.167,77.921 28.280,64.874 28.280,64.874 C26.679,64.446 25.730,62.801 26.158,61.200 C26.587,59.600 28.232,58.650 29.833,59.079 z" fill="#1B9AD9" />
<path id="Rounded-Rectangl" d="M371.219,59.079 C371.219,59.079 331.223,72.126 331.223,72.126 C329.619,72.554 328.666,74.199 329.096,75.800 C329.526,77.400 331.176,78.350 332.780,77.921 C332.780,77.921 372.777,64.874 372.777,64.874 C374.381,64.446 375.334,62.801 374.904,61.200 C374.474,59.600 372.824,58.650 371.219,59.079 z" fill="#1B9AD9" />
<path id="Rounded-Rectangl" d="M56.201,3.958 C56.201,3.958 100.042,47.799 100.042,47.799 C101.213,48.970 101.213,50.870 100.042,52.042 C98.870,53.213 96.970,53.213 95.799,52.042 C95.799,52.042 51.958,8.201 51.958,8.201 C50.787,7.029 50.787,5.130 51.958,3.958 C53.130,2.787 55.029,2.787 56.201,3.958 z" fill="#90D4F5" />
<path id="Rounded-Rectangl" d="M348.133,8.123 C348.133,8.123 304.155,52.101 304.155,52.101 C302.979,53.277 301.074,53.277 299.899,52.101 C298.723,50.926 298.723,49.021 299.899,47.845 C299.899,47.845 343.877,3.867 343.877,3.867 C345.052,2.692 346.957,2.692 348.133,3.867 C349.308,5.043 349.308,6.948 348.133,8.123 z" fill="#90D4F5" />
</g>
</svg>
