<svg version="1.1" xmlns="http://www.w3.org/2000/svg" xmlns:xlink="http://www.w3.org/1999/xlink" width="209" height="110" viewBox="0 0 209 110">
<g id="step-1">
<path id="step-1" d="M203.000,109.999 C203.000,109.999 42.117,109.999 42.117,109.999 C42.200,109.999 42.273,109.984 42.354,109.981 C42.237,109.988 42.121,109.999 42.000,109.999 C42.000,109.999 7.000,109.999 7.000,109.999 C3.749,109.999 1.000,107.264 1.000,104.000 C1.000,104.000 1.000,47.000 1.000,47.000 C0.593,47.000 -0.000,47.357 -0.000,46.949 C-0.000,46.949 -0.000,42.498 -0.000,42.498 C-0.000,42.090 0.755,41.684 1.161,41.684 C1.161,41.684 1.161,40.526 1.161,40.526 C0.755,40.526 -0.000,39.939 -0.000,39.531 C-0.000,39.531 -0.000,35.080 -0.000,35.080 C-0.000,34.672 0.593,35.000 1.000,35.000 C1.000,35.000 1.000,30.000 1.000,30.000 C0.593,30.000 -0.000,29.554 -0.000,29.146 C-0.000,29.146 -0.000,27.662 -0.000,27.662 C-0.000,27.254 0.593,27.000 1.000,27.000 C1.000,27.000 1.000,21.000 1.000,21.000 C1.000,17.736 3.399,15.052 6.650,15.052 C6.650,15.052 42.000,15.052 42.000,15.052 C42.000,15.052 42.000,8.000 42.000,8.000 C42.000,3.223 45.585,-0.000 50.345,-0.000 C50.345,-0.000 183.038,-0.000 183.038,-0.000 C187.798,-0.000 191.000,4.223 191.000,9.000 C191.000,9.000 191.000,100.000 191.000,100.000 L209.000,100.000 C209.000,100.000 209.000,104.210 209.000,104.210 C209.000,107.394 206.173,109.999 203.000,109.999 zM7.000,16.000 C4.556,16.000 2.000,18.546 2.000,21.000 C2.000,21.000 2.000,104.000 2.000,104.000 C2.000,106.454 4.556,109.000 7.000,109.000 C7.000,109.000 42.000,109.000 42.000,109.000 C44.444,109.000 46.000,106.454 46.000,104.000 C46.000,104.000 46.000,21.000 46.000,21.000 C46.000,18.546 44.444,16.000 42.000,16.000 C42.000,16.000 7.000,16.000 7.000,16.000 zM190.000,8.000 C190.000,4.749 187.253,1.000 184.000,1.000 C184.000,1.000 49.000,1.000 49.000,1.000 C45.747,1.000 42.942,4.959 42.942,8.210 C42.942,8.210 42.947,15.123 42.947,15.123 C45.642,15.545 47.000,18.028 47.000,21.000 C47.000,21.000 47.000,35.000 47.000,35.000 C47.406,35.000 48.000,34.592 48.000,35.000 C48.000,35.000 48.000,11.000 48.000,11.000 C48.000,8.602 49.610,6.000 52.000,6.000 C52.000,6.000 182.000,6.000 182.000,6.000 C184.390,6.000 186.000,7.601 186.000,10.000 C186.000,10.000 186.000,91.000 186.000,91.000 C186.000,93.398 183.390,96.000 181.000,96.000 C181.000,96.000 52.000,96.000 52.000,96.000 C49.610,96.000 48.000,94.398 48.000,92.000 C48.000,92.000 48.000,41.000 48.000,41.000 C48.000,41.408 47.406,42.000 47.000,42.000 C47.000,42.000 47.000,100.000 47.000,100.000 L190.000,100.000 C190.000,100.000 190.000,8.000 190.000,8.000 zM49.000,11.000 C49.000,11.000 49.000,92.000 49.000,92.000 C49.000,93.596 50.409,95.000 52.000,95.000 C52.000,95.000 181.000,95.000 181.000,95.000 C182.591,95.000 185.000,92.596 185.000,91.000 C185.000,91.000 185.000,10.000 185.000,10.000 C185.000,8.403 182.724,6.947 181.133,6.947 C181.133,6.947 52.250,6.947 52.250,6.947 C50.659,6.947 49.000,9.403 49.000,11.000 zM107.000,100.999 C107.083,103.285 106.500,103.272 117.272,103.052 C128.080,102.832 126.549,103.258 127.000,100.999 C127.000,100.999 107.000,100.999 107.000,100.999 zM207.839,100.737 L192.744,100.737 C192.744,100.737 127.722,100.737 127.722,100.737 C127.722,102.329 127.933,104.122 125.000,104.000 C125.000,104.000 108.000,104.000 108.000,104.000 C106.413,104.000 105.661,102.329 105.661,100.737 C105.661,100.737 47.000,100.737 47.000,100.737 C47.000,100.737 47.000,104.000 47.000,104.000 C47.000,107.033 45.487,109.607 42.664,109.956 C43.607,109.859 44.405,109.528 45.040,109.000 C45.040,109.000 203.000,109.000 203.000,109.000 C204.591,109.000 207.839,106.965 207.839,105.368 C207.839,105.368 207.839,100.737 207.839,100.737 zM76.000,46.000 C76.000,46.000 154.000,46.000 154.000,46.000 C155.657,46.000 156.750,47.659 156.750,49.315 C156.750,49.315 156.750,50.263 156.750,50.263 C156.750,51.920 155.657,53.000 154.000,53.000 C154.000,53.000 76.000,53.000 76.000,53.000 C74.343,53.000 73.150,51.920 73.150,50.263 C73.150,50.263 73.150,49.315 73.150,49.315 C73.150,47.659 74.343,46.000 76.000,46.000 zM154.428,52.105 C154.428,52.105 155.589,51.041 155.589,49.789 C155.589,47.068 154.000,47.000 154.000,47.000 L124.374,47.000 L119.254,52.105 L154.428,52.105 zM118.433,52.105 L118.023,51.696 L122.667,47.064 L123.042,47.000 L117.407,47.000 L112.288,52.105 L118.433,52.105 zM111.467,52.105 L111.056,51.696 L115.700,47.064 L116.075,47.000 L110.440,47.000 L105.321,52.105 L111.467,52.105 zM104.500,52.105 L104.089,51.696 L108.734,47.064 L109.109,47.000 L103.474,47.000 L98.354,52.105 L104.500,52.105 zM97.533,52.105 L97.123,51.696 L101.767,47.064 L102.142,47.000 L96.507,47.000 L91.388,52.105 L97.533,52.105 zM90.567,52.105 L90.156,51.696 L94.801,47.064 L95.175,47.000 L89.540,47.000 L84.421,52.105 L90.567,52.105 zM83.600,52.105 L83.189,51.696 L87.834,47.064 L88.209,47.000 L82.574,47.000 L77.454,52.105 L83.600,52.105 zM75.472,52.105 L76.633,52.105 L76.223,51.696 L80.867,47.064 L81.242,47.000 L75.000,47.000 C75.000,47.000 74.311,48.537 74.311,49.789 C74.311,51.041 75.472,52.105 75.472,52.105 zM45.000,96.000 C45.000,97.630 43.624,100.000 42.000,100.000 C42.000,100.000 7.000,100.000 7.000,100.000 C5.376,100.000 4.000,97.630 4.000,96.000 C4.000,96.000 4.000,29.000 4.000,29.000 C4.000,27.369 5.376,25.000 7.000,25.000 C7.000,25.000 42.000,25.000 42.000,25.000 C43.624,25.000 45.000,27.369 45.000,29.000 C45.000,29.000 45.000,96.000 45.000,96.000 zM44.122,28.947 C44.122,27.728 43.214,26.000 42.000,26.000 C42.000,26.000 7.000,26.000 7.000,26.000 C5.786,26.000 5.000,27.781 5.000,29.000 C5.000,29.000 5.000,96.000 5.000,96.000 C5.000,97.219 5.786,99.000 7.000,99.000 C7.000,99.000 42.000,99.000 42.000,99.000 C43.214,99.000 44.122,97.323 44.122,96.105 C44.122,96.105 44.122,28.947 44.122,28.947 zM33.472,60.938 C33.472,60.938 33.955,61.420 33.955,61.420 C34.328,61.792 34.533,62.287 34.533,62.813 C34.533,63.338 34.328,63.833 33.955,64.204 C33.955,64.204 24.642,73.493 24.642,73.493 C23.709,74.423 22.193,74.423 21.260,73.493 C20.758,72.993 19.883,72.992 19.381,73.493 C19.381,73.493 18.729,74.143 18.729,74.143 C18.452,74.420 18.083,74.573 17.690,74.573 C17.298,74.573 16.929,74.420 16.652,74.143 C16.652,74.143 15.812,73.306 15.812,73.306 C15.812,73.306 11.996,77.113 11.996,77.113 C11.695,77.413 11.295,77.579 10.869,77.579 C10.443,77.579 10.042,77.413 9.742,77.113 C9.121,76.493 9.121,75.485 9.742,74.864 C9.742,74.864 13.558,71.058 13.558,71.058 C13.558,71.058 12.718,70.220 12.718,70.220 C12.146,69.649 12.146,68.719 12.718,68.148 C12.718,68.148 13.371,67.497 13.371,67.497 C13.889,66.981 13.889,66.140 13.371,65.623 C12.919,65.173 12.671,64.573 12.671,63.937 C12.671,63.299 12.919,62.701 13.371,62.250 C13.371,62.250 22.684,52.961 22.684,52.961 C23.429,52.217 24.730,52.217 25.475,52.961 C25.475,52.961 25.958,53.443 25.958,53.443 C25.958,53.443 31.693,47.722 31.693,47.722 C32.042,47.374 32.650,47.374 32.998,47.723 C32.998,47.723 33.848,48.571 33.848,48.571 C33.848,48.571 33.848,48.571 33.849,48.571 C33.849,48.571 33.849,48.571 33.849,48.571 L36.103,50.819 L36.103,50.819 L36.855,51.569 C36.855,51.569 39.208,53.916 39.208,53.916 C39.382,54.091 39.479,54.321 39.479,54.567 C39.479,54.813 39.382,55.045 39.206,55.219 C39.206,55.219 33.472,60.938 33.472,60.938 zM10.494,75.613 C10.287,75.820 10.287,76.156 10.494,76.363 C10.694,76.562 11.044,76.563 11.245,76.363 C11.245,76.363 15.062,72.556 15.062,72.556 L14.310,71.807 C14.310,71.807 10.494,75.613 10.494,75.613 zM25.206,54.193 C25.206,54.193 24.723,53.711 24.723,53.711 C24.551,53.539 24.323,53.445 24.079,53.445 C23.836,53.445 23.607,53.539 23.435,53.711 C23.435,53.711 14.122,63.000 14.122,63.000 C13.871,63.250 13.733,63.583 13.733,63.937 C13.733,64.290 13.871,64.623 14.122,64.874 C15.054,65.804 15.054,67.317 14.122,68.247 C14.122,68.247 13.470,68.897 13.470,68.897 C13.311,69.055 13.311,69.313 13.470,69.471 C13.470,69.471 17.404,73.394 17.404,73.394 C17.558,73.547 17.826,73.547 17.979,73.394 C17.979,73.394 18.631,72.744 18.631,72.744 C19.083,72.293 19.683,72.045 20.322,72.045 C20.961,72.045 21.561,72.293 22.013,72.744 C22.531,73.260 23.374,73.260 23.892,72.744 C23.892,72.744 33.205,63.455 33.205,63.455 C33.377,63.283 33.471,63.055 33.471,62.813 C33.471,62.570 33.377,62.342 33.205,62.170 C33.205,62.170 32.721,61.688 32.721,61.688 L25.206,54.193 zM33.473,49.696 C33.473,49.696 31.595,51.569 31.595,51.569 C31.491,51.673 31.355,51.724 31.219,51.724 C31.083,51.724 30.947,51.672 30.843,51.569 C30.635,51.361 30.635,51.026 30.843,50.819 C30.843,50.819 32.722,48.945 32.722,48.945 L32.346,48.571 L26.710,54.193 L29.716,57.191 L30.467,56.441 L29.716,55.691 L31.595,53.818 L32.345,54.567 L32.722,54.192 L31.970,53.443 L33.849,51.568 L34.601,52.318 L35.352,51.569 L33.473,49.696 zM37.982,54.193 C37.982,54.193 36.103,56.066 36.103,56.066 C36.000,56.170 35.864,56.221 35.728,56.221 C35.591,56.221 35.456,56.170 35.352,56.066 C35.144,55.859 35.144,55.524 35.352,55.316 C35.352,55.316 37.231,53.443 37.231,53.443 L36.103,52.318 L34.601,53.818 L33.850,53.069 L33.849,53.069 L33.474,53.443 L34.225,54.193 L32.346,56.066 L31.595,55.316 L31.219,55.691 L31.970,56.441 L30.467,57.940 L32.722,60.188 L38.358,54.567 L37.982,54.193 zM24.131,65.345 C24.131,65.345 25.943,63.544 25.943,63.544 C26.068,63.420 26.271,63.420 26.396,63.544 C26.396,63.544 28.206,65.343 28.206,65.343 C28.331,65.467 28.331,65.668 28.206,65.793 C28.206,65.793 26.394,67.594 26.394,67.594 C26.269,67.718 26.066,67.719 25.941,67.594 C25.941,67.594 25.282,66.939 25.282,66.939 C24.707,67.470 24.104,67.692 23.489,67.590 C22.964,67.504 22.515,67.192 22.162,66.840 C21.790,66.471 21.527,66.062 21.388,65.823 C21.388,65.823 20.609,66.597 20.609,66.597 C20.605,66.607 20.606,66.617 20.601,66.627 C20.562,66.706 20.494,66.762 20.416,66.788 C20.416,66.788 18.447,68.745 18.447,68.745 C18.858,69.362 18.790,70.204 18.243,70.748 C17.619,71.368 16.603,71.368 15.979,70.748 C15.355,70.129 15.356,69.119 15.980,68.498 C16.527,67.955 17.373,67.887 17.995,68.295 C17.995,68.295 19.763,66.538 19.763,66.538 C19.526,66.388 19.223,66.170 18.943,65.892 C18.589,65.540 18.275,65.095 18.188,64.573 C18.080,63.925 18.332,63.291 18.937,62.690 C19.003,62.624 19.090,62.595 19.175,62.599 C18.898,62.113 18.963,61.486 19.379,61.072 C19.879,60.575 20.691,60.575 21.190,61.071 C21.689,61.567 21.689,62.375 21.189,62.871 C20.720,63.337 19.979,63.360 19.477,62.952 C19.468,63.020 19.443,63.087 19.390,63.139 C18.940,63.587 18.748,64.034 18.820,64.467 C18.946,65.228 19.810,65.826 20.228,66.075 C20.228,66.075 24.812,61.519 24.812,61.519 C24.812,61.519 23.681,60.395 23.681,60.395 C23.602,60.317 23.570,60.204 23.596,60.097 C23.621,59.989 23.701,59.903 23.806,59.868 C23.806,59.868 27.882,58.516 27.882,58.516 C28.112,58.440 28.363,58.690 28.286,58.919 C28.286,58.919 26.926,62.969 26.926,62.969 C26.891,63.074 26.804,63.153 26.696,63.178 C26.588,63.204 26.475,63.172 26.396,63.094 C26.396,63.094 25.265,61.969 25.265,61.969 C25.265,61.969 21.859,65.354 21.859,65.354 C21.940,65.508 22.640,66.806 23.595,66.963 C23.999,67.029 24.413,66.868 24.830,66.489 C24.830,66.489 24.131,65.795 24.131,65.795 C24.006,65.671 24.006,65.469 24.131,65.345 zM17.822,68.986 C17.822,68.986 17.752,68.916 17.752,68.916 C17.376,68.579 16.795,68.587 16.432,68.948 C16.058,69.320 16.058,69.926 16.432,70.298 C16.806,70.670 17.416,70.670 17.790,70.297 C18.153,69.937 18.162,69.360 17.822,68.986 zM19.831,62.422 C20.080,62.670 20.487,62.669 20.737,62.421 C20.986,62.173 20.987,61.769 20.737,61.521 C20.487,61.273 20.081,61.273 19.832,61.522 C19.582,61.770 19.582,62.174 19.831,62.422 zM25.265,61.069 L25.718,61.519 L26.483,62.280 L27.476,59.321 L24.500,60.309 L25.265,61.069 zM26.168,66.919 L27.527,65.568 L26.169,64.219 L24.810,65.570 L26.168,66.919 zM18.578,22.000 C18.374,22.000 18.472,21.561 18.472,21.358 C18.472,21.154 18.797,21.000 19.000,21.000 C19.000,21.000 30.000,21.000 30.000,21.000 C30.203,21.000 30.294,21.154 30.294,21.358 C30.294,21.561 30.392,22.000 30.189,22.000 C30.189,22.000 18.578,22.000 18.578,22.000 zM16.625,21.728 C16.421,21.728 16.256,21.562 16.256,21.358 C16.256,21.153 16.421,20.986 16.625,20.986 C16.829,20.986 16.994,21.153 16.994,21.358 C16.994,21.562 16.829,21.728 16.625,21.728 zM24.383,101.098 C26.016,101.098 27.339,102.427 27.339,104.065 C27.339,105.704 26.016,107.032 24.383,107.032 C22.751,107.032 21.428,105.704 21.428,104.065 C21.428,102.427 22.751,101.098 24.383,101.098 zM24.383,106.291 C25.605,106.291 26.600,105.292 26.600,104.065 C26.600,102.838 25.605,101.840 24.383,101.840 C23.161,101.840 22.167,102.838 22.167,104.065 C22.167,105.292 23.161,106.291 24.383,106.291 z" fill="#fff" />
</g>
</svg>
