<svg version="1.1" xmlns="http://www.w3.org/2000/svg" xmlns:xlink="http://www.w3.org/1999/xlink" width="77" height="76" viewBox="0 0 77 76">
<defs>
<linearGradient id="gradient1" gradientUnits="userSpaceOnUse" x1="50.649%" y1="30.263%" x2="50.649%" y2="0.000%" >
<stop offset="0%" stop-color="#FFCD02" />
<stop offset="100%" stop-color="#FFDB4C" />
</linearGradient>
<filter id="Rectangle-12-fx" filterUnits="userSpaceOnUse">
<feFlood flood-color="#000000" />
<feComposite operator="in" in2="SourceAlpha" result="sourceFill" />
<feBlend mode="normal" in="SourceGraphic" in2="sourceFill" result="gradientFill" />
<feFlood flood-color="#FFFFFF" flood-opacity="0.050"/>
<feComposite operator="out" in2="SourceAlpha"/>
<feOffset dx="0" dy="1"/>
<feGaussianBlur stdDeviation="0.0" result="blur" />
<feComposite operator="in" in="blur" in2="SourceAlpha" result="maskedShadow"/>
<feBlend mode="normal" in="maskedShadow" in2="gradientFill" result="innerShadow"/>
</filter>
</defs>
<g id="notes">
<path id="Rounded-Rectangl" d="M5.000,0.000 C5.000,0.000 73.000,0.000 73.000,0.000 C75.209,0.000 77.000,1.791 77.000,4.000 C77.000,4.000 77.000,72.000 77.000,72.000 C77.000,74.209 75.209,76.000 73.000,76.000 C73.000,76.000 5.000,76.000 5.000,76.000 C2.791,76.000 1.000,74.209 1.000,72.000 C1.000,72.000 1.000,4.000 1.000,4.000 C1.000,1.791 2.791,0.000 5.000,0.000 z" fill="#F8F8F8" />
<path id="Rectangle-10" d="M1.000,67.000 L1.000,66.000 L77.000,66.000 L77.000,67.000 L1.000,67.000 zM1.000,52.000 L77.000,52.000 L77.000,53.000 L1.000,53.000 L1.000,52.000 zM1.987,38.000 L77.000,38.000 L77.000,39.000 L1.000,39.000 L1.987,38.000 z" fill="#000000" opacity="0.302" />
<path id="Rectangle-11" d="M74.812,29.125 L74.812,27.875 L76.094,27.875 L76.094,29.125 L74.812,29.125 zM72.281,27.875 L73.531,27.875 L73.531,29.125 L72.281,29.125 L72.281,27.875 zM69.719,27.875 L71.000,27.875 L71.000,29.125 L69.719,29.125 L69.719,27.875 zM67.156,27.875 L68.437,27.875 L68.437,29.125 L67.156,29.125 L67.156,27.875 zM64.625,27.875 L65.906,27.875 L65.906,29.125 L64.625,29.125 L64.625,27.875 zM62.062,27.875 L63.344,27.875 L63.344,29.125 L62.062,29.125 L62.062,27.875 zM59.531,27.875 L60.812,27.875 L60.812,29.125 L59.531,29.125 L59.531,27.875 zM56.969,27.875 L58.250,27.875 L58.250,29.125 L56.969,29.125 L56.969,27.875 zM54.437,27.875 L55.687,27.875 L55.687,29.125 L54.437,29.125 L54.437,27.875 zM51.875,27.875 L53.156,27.875 L53.156,29.125 L51.875,29.125 L51.875,27.875 zM49.344,27.875 L50.594,27.875 L50.594,29.125 L49.344,29.125 L49.344,27.875 zM46.781,27.875 L48.062,27.875 L48.062,29.125 L46.781,29.125 L46.781,27.875 zM44.219,27.875 L45.500,27.875 L45.500,29.125 L44.219,29.125 L44.219,27.875 zM41.687,27.875 L42.969,27.875 L42.969,29.125 L41.687,29.125 L41.687,27.875 zM39.125,27.875 L40.406,27.875 L40.406,29.125 L39.125,29.125 L39.125,27.875 zM36.594,27.875 L37.875,27.875 L37.875,29.125 L36.594,29.125 L36.594,27.875 zM34.031,27.875 L35.313,27.875 L35.313,29.125 L34.031,29.125 L34.031,27.875 zM31.500,27.875 L32.781,27.875 L32.781,29.125 L31.500,29.125 L31.500,27.875 zM28.938,27.875 L30.219,27.875 L30.219,29.125 L28.938,29.125 L28.938,27.875 zM26.406,27.875 L27.656,27.875 L27.656,29.125 L26.406,29.125 L26.406,27.875 zM23.844,27.875 L25.125,27.875 L25.125,29.125 L23.844,29.125 L23.844,27.875 zM21.313,27.875 L22.563,27.875 L22.563,29.125 L21.313,29.125 L21.313,27.875 zM18.750,27.875 L20.031,27.875 L20.031,29.125 L18.750,29.125 L18.750,27.875 zM16.188,27.875 L17.469,27.875 L17.469,29.125 L16.188,29.125 L16.188,27.875 zM13.656,27.875 L14.938,27.875 L14.938,29.125 L13.656,29.125 L13.656,27.875 zM11.094,27.875 L12.375,27.875 L12.375,29.125 L11.094,29.125 L11.094,27.875 zM8.563,27.875 L9.844,27.875 L9.844,29.125 L8.563,29.125 L8.563,27.875 zM6.000,27.875 L7.281,27.875 L7.281,29.125 L6.000,29.125 L6.000,27.875 zM3.469,27.875 L4.719,27.875 L4.719,29.125 L3.469,29.125 L3.469,27.875 zM0.906,27.875 L2.188,27.875 L2.188,29.125 L0.906,29.125 L0.906,27.875 z" fill="#000000" opacity="0.302" />
<path id="Rectangle-12" d="M1.000,23.000 C1.000,23.000 1.000,4.000 1.000,4.000 C1.000,1.791 2.791,-0.000 5.000,-0.000 C5.000,-0.000 73.000,-0.000 73.000,-0.000 C75.209,-0.000 77.000,1.791 77.000,4.000 C77.000,4.000 77.000,23.000 77.000,23.000 L1.000,23.000 z" fill="url(#gradient1)" filter="url(#Rectangle-12-fx)" />
</g>
</svg>
