<svg version="1.1" xmlns="http://www.w3.org/2000/svg" xmlns:xlink="http://www.w3.org/1999/xlink" width="102" height="110" viewBox="0 0 102 110">
<g id="opt-1">
<g id="Forma-1" >
<path id="Forma-1-fill" d="M50.999,108.111 C78.458,108.111 100.798,84.284 100.798,54.995 C100.798,25.707 78.458,1.880 50.999,1.880 C23.539,1.880 1.199,25.707 1.199,54.995 C1.199,84.284 23.539,108.111 50.999,108.111 z" fill="#FFFFFF" />
<path id="Forma-1-stroke" d="M50.999,108.603 C78.733,108.603 101.296,84.555 101.296,54.995 C101.296,25.436 78.733,1.388 50.999,1.388 C23.265,1.388 0.701,25.436 0.701,54.995 C0.701,84.555 23.265,108.603 50.999,108.603 z" fill="none" stroke="#0088CC" stroke-opacity="1.000" stroke-width="1" stroke-linejoin="round" />
</g>
<path id="Forma-1" d="M68.000,40.000 C68.000,40.000 68.000,87.000 68.000,87.000 C68.000,89.440 67.414,91.000 65.000,91.000 C65.000,91.000 38.000,91.000 38.000,91.000 C35.837,90.863 35.239,89.311 35.000,87.000 C35.000,87.000 35.000,44.000 35.000,44.000 C34.698,44.000 34.000,43.771 34.000,43.466 C34.000,43.466 34.000,40.457 34.000,40.457 C34.000,40.152 34.302,39.856 34.603,39.856 C34.603,39.856 34.603,39.254 34.603,39.254 C34.302,39.254 34.000,38.957 34.000,38.652 C34.000,38.652 34.000,35.644 34.000,35.644 C34.000,35.339 34.698,35.000 35.000,35.000 C35.000,35.000 35.000,31.000 35.000,31.000 C34.698,31.000 34.000,30.534 34.000,30.229 C34.000,30.229 34.000,29.627 34.000,29.627 C34.000,29.322 34.698,29.000 35.000,29.000 C35.000,29.000 35.000,25.000 35.000,25.000 C34.870,21.796 35.952,20.037 38.000,20.000 C38.000,20.000 65.000,20.000 65.000,20.000 C67.414,20.000 68.000,21.559 68.000,24.000 C68.000,24.000 68.000,35.000 68.000,35.000 C68.302,35.000 69.000,35.339 69.000,35.644 C69.000,35.644 69.000,39.254 69.000,39.254 C69.000,39.559 68.302,40.000 68.000,40.000 zM67.000,24.000 C67.000,22.165 66.815,21.000 65.000,21.000 C65.000,21.000 39.000,21.000 39.000,21.000 C37.185,21.000 36.000,22.165 36.000,24.000 C36.000,24.000 36.000,87.000 36.000,87.000 C36.000,88.835 37.185,90.000 39.000,90.000 C39.000,90.000 65.000,90.000 65.000,90.000 C66.815,90.000 67.000,88.835 67.000,87.000 C67.000,87.000 67.000,24.000 67.000,24.000 zM66.000,81.000 C66.000,82.219 65.206,83.000 64.000,83.000 C64.000,83.000 38.000,83.000 38.000,83.000 C36.794,83.000 37.000,82.219 37.000,81.000 C37.000,81.000 37.000,30.000 37.000,30.000 C37.000,28.781 37.794,28.000 39.000,28.000 C39.000,28.000 65.000,28.000 65.000,28.000 C66.206,28.000 66.000,28.781 66.000,30.000 C66.000,30.000 66.000,81.000 66.000,81.000 zM65.000,30.000 C65.000,29.088 64.901,29.000 64.000,29.000 C64.000,29.000 39.000,29.000 39.000,29.000 C38.099,29.000 38.000,29.088 38.000,30.000 C38.000,30.000 38.000,81.000 38.000,81.000 C38.000,81.911 37.099,82.000 38.000,82.000 C38.000,82.000 64.000,82.000 64.000,82.000 C64.901,82.000 65.000,81.911 65.000,81.000 C65.000,81.000 65.000,30.000 65.000,30.000 zM56.000,25.000 C56.000,25.000 47.000,25.000 47.000,25.000 C46.849,25.000 47.111,24.867 47.111,24.714 C47.111,24.562 46.849,24.000 47.000,24.000 C47.000,24.000 56.000,24.000 56.000,24.000 C56.151,24.000 55.889,24.562 55.889,24.714 C55.889,24.867 56.151,25.000 56.000,25.000 zM45.510,24.986 C45.225,24.986 44.994,24.765 44.994,24.493 C44.994,24.221 45.225,24.000 45.510,24.000 C45.795,24.000 46.026,24.221 46.026,24.493 C46.026,24.765 45.795,24.986 45.510,24.986 zM51.500,84.344 C52.712,84.344 53.694,85.337 53.694,86.562 C53.694,87.788 52.712,88.781 51.500,88.781 C50.288,88.781 49.306,87.788 49.306,86.562 C49.306,85.337 50.288,84.344 51.500,84.344 zM51.500,88.226 C52.407,88.226 53.146,87.480 53.146,86.562 C53.146,85.645 52.407,84.898 51.500,84.898 C50.593,84.898 49.854,85.645 49.854,86.562 C49.854,87.480 50.593,88.226 51.500,88.226 z" fill="#0088CC" />
</g>
</svg>
