<svg version="1.1" xmlns="http://www.w3.org/2000/svg" xmlns:xlink="http://www.w3.org/1999/xlink" width="102" height="110" viewBox="0 0 102 110">
<g id="opt-3">
<g id="Forma-1" >
<path id="Forma-1-fill" d="M50.999,108.111 C78.458,108.111 100.798,84.284 100.798,54.995 C100.798,25.707 78.458,1.880 50.999,1.880 C23.539,1.880 1.199,25.707 1.199,54.995 C1.199,84.284 23.539,108.111 50.999,108.111 z" fill="#FFFFFF" />
<path id="Forma-1-stroke" d="M50.999,108.603 C78.733,108.603 101.296,84.555 101.296,54.995 C101.296,25.436 78.733,1.388 50.999,1.388 C23.265,1.388 0.701,25.436 0.701,54.995 C0.701,84.555 23.265,108.603 50.999,108.603 z" fill="none" stroke="#0088CC" stroke-opacity="1.000" stroke-width="1" stroke-linejoin="round" />
</g>
<g id="Rectangle-17" >
<path id="Rectangle-17-fill" d="M72.000,72.886 C72.000,72.886 72.000,73.000 72.000,73.000 C72.000,73.000 70.503,73.000 70.503,73.000 C70.502,73.000 70.501,73.000 70.500,73.000 C70.499,73.000 70.498,73.000 70.497,73.000 C70.497,73.000 30.503,73.000 30.503,73.000 C30.502,73.000 30.501,73.000 30.500,73.000 C30.499,73.000 30.498,73.000 30.497,73.000 C30.497,73.000 30.000,73.000 30.000,73.000 C30.000,73.000 30.000,72.974 30.000,72.974 C23.882,72.698 19.000,67.451 19.000,61.000 C19.000,55.636 22.374,51.097 27.027,49.560 C27.017,49.373 27.000,49.189 27.000,49.000 C27.000,43.477 31.253,39.000 36.500,39.000 C38.093,39.000 39.591,39.418 40.910,40.147 C43.966,35.231 49.136,32.000 55.000,32.000 C63.956,32.000 71.277,39.541 71.935,49.103 C77.608,49.842 82.000,54.881 82.000,61.000 C82.000,67.096 77.641,72.118 72.000,72.886 z" fill="#FFFFFF" />
<path id="Rectangle-17-stroke" d="M72.341,73.384 C72.341,73.384 72.341,73.500 72.341,73.500 C72.341,73.500 70.821,73.500 70.821,73.500 C70.820,73.500 70.819,73.500 70.817,73.500 C70.817,73.500 70.816,73.500 70.815,73.500 C70.815,73.500 30.186,73.500 30.186,73.500 C30.185,73.500 30.184,73.500 30.183,73.500 C30.181,73.500 30.180,73.500 30.179,73.500 C30.179,73.500 29.675,73.500 29.675,73.500 C29.675,73.500 29.675,73.473 29.675,73.473 C23.460,73.191 18.500,67.816 18.500,61.207 C18.500,55.713 21.927,51.063 26.654,49.488 C26.644,49.297 26.627,49.108 26.627,48.915 C26.627,43.257 30.948,38.671 36.278,38.671 C37.896,38.671 39.418,39.099 40.758,39.846 C43.862,34.810 49.114,31.500 55.071,31.500 C64.169,31.500 71.607,39.225 72.275,49.020 C78.038,49.777 82.500,54.939 82.500,61.207 C82.500,67.452 78.072,72.596 72.341,73.384 z" fill="none" stroke="#0088CC" stroke-opacity="1.000" stroke-width="1" stroke-linejoin="round" />
</g>
</g>
</svg>
