<svg version="1.1" xmlns="http://www.w3.org/2000/svg" xmlns:xlink="http://www.w3.org/1999/xlink" width="102" height="110" viewBox="0 0 102 110">
<g id="opt-2">
<g id="Forma-1" >
<path id="Forma-1-fill" d="M50.999,108.111 C78.458,108.111 100.798,84.284 100.798,54.995 C100.798,25.707 78.458,1.880 50.999,1.880 C23.539,1.880 1.199,25.707 1.199,54.995 C1.199,84.284 23.539,108.111 50.999,108.111 z" fill="#FFFFFF" />
<path id="Forma-1-stroke" d="M50.999,108.603 C78.733,108.603 101.296,84.555 101.296,54.995 C101.296,25.436 78.733,1.388 50.999,1.388 C23.265,1.388 0.701,25.436 0.701,54.995 C0.701,84.555 23.265,108.603 50.999,108.603 z" fill="none" stroke="#0088CC" stroke-opacity="1.000" stroke-width="1" stroke-linejoin="round" />
</g>
<path id="Forma-1" d="M69.788,25.398 C69.788,25.398 39.710,30.848 39.710,30.848 C38.975,30.948 40.000,30.229 40.000,31.000 C40.000,31.000 40.000,38.000 40.000,38.000 L40.000,42.000 C40.000,42.000 40.000,70.000 40.000,70.000 C38.538,67.560 34.857,64.757 31.646,64.757 C25.538,64.757 21.000,69.330 21.000,75.000 C21.000,80.670 24.879,85.216 31.000,85.000 C39.579,84.697 41.000,78.670 41.000,73.000 C41.000,73.000 41.000,43.000 41.000,43.000 L73.000,38.000 C73.000,38.000 73.000,60.000 73.000,60.000 C70.918,57.013 67.166,55.000 64.000,55.000 C57.951,55.000 53.000,59.329 53.000,65.000 C53.000,70.670 57.952,75.000 64.000,75.000 C70.049,75.000 74.000,71.670 74.000,66.000 C74.000,66.000 74.000,39.000 74.000,39.000 L74.000,33.000 C74.000,33.000 74.000,27.000 74.000,27.000 C74.000,26.559 74.196,25.539 74.000,25.000 C74.286,24.214 70.341,25.064 69.788,25.398 zM31.053,83.969 C25.540,83.970 22.000,79.965 22.000,75.000 C22.000,70.035 25.475,66.008 30.988,66.008 C36.501,66.008 40.000,70.035 40.000,75.000 C40.000,79.965 36.568,83.968 31.053,83.969 zM41.000,42.000 L41.000,39.000 L41.000,32.000 L73.000,26.000 L73.000,34.000 L73.000,37.000 L41.000,42.000 zM64.010,74.010 C58.495,74.010 54.000,69.965 54.000,65.000 C54.000,60.035 58.485,56.000 64.000,56.000 C69.514,56.000 73.000,60.037 73.000,65.000 C73.000,69.963 69.524,74.010 64.010,74.010 z" fill="#0088CC" />
</g>
</svg>
