<svg version="1.1" xmlns="http://www.w3.org/2000/svg" xmlns:xlink="http://www.w3.org/1999/xlink" width="76" height="76" viewBox="0 0 76 76">
<g id="reminders">
<path id="Rounded-Rectangl" d="M4.000,0.000 C4.000,0.000 72.000,0.000 72.000,0.000 C74.209,0.000 76.000,1.791 76.000,4.000 C76.000,4.000 76.000,72.000 76.000,72.000 C76.000,74.209 74.209,76.000 72.000,76.000 C72.000,76.000 4.000,76.000 4.000,76.000 C1.791,76.000 0.000,74.209 0.000,72.000 C0.000,72.000 0.000,4.000 0.000,4.000 C0.000,1.791 1.791,0.000 4.000,0.000 z" fill="#F8F8F8" />
<path id="Rectangle-9" d="M76.000,10.000 L25.000,10.000 L25.000,9.000 L76.000,9.000 L76.000,10.000 zM25.000,67.000 L76.000,67.000 L76.000,68.000 L25.000,68.000 L25.000,67.000 zM25.000,52.000 L76.000,52.000 L76.000,53.000 L25.000,53.000 L25.000,52.000 zM25.000,39.000 L25.000,38.000 L76.000,38.000 L76.000,39.000 L25.000,39.000 zM25.000,23.000 L76.000,23.000 L76.000,24.000 L25.000,24.000 L25.000,23.000 z" fill="#000000" opacity="0.302" />
<path id="Ellipse-10" d="M12.516,21.781 C9.521,21.781 7.094,19.354 7.094,16.359 C7.094,13.365 9.521,10.938 12.516,10.938 C15.510,10.938 17.937,13.365 17.937,16.359 C17.937,19.354 15.510,21.781 12.516,21.781 zM12.516,11.438 C9.797,11.438 7.594,13.641 7.594,16.359 C7.594,19.078 9.797,21.281 12.516,21.281 C15.234,21.281 17.437,19.078 17.437,16.359 C17.437,13.641 15.234,11.438 12.516,11.438 zM12.516,20.531 C10.212,20.531 8.344,18.663 8.344,16.359 C8.344,14.055 10.212,12.187 12.516,12.187 C14.820,12.187 16.688,14.055 16.688,16.359 C16.688,18.663 14.820,20.531 12.516,20.531 z" fill="#FF9500" />
<path id="Ellipse-10" d="M12.516,36.563 C9.521,36.563 7.094,34.128 7.094,31.125 C7.094,28.122 9.521,25.687 12.516,25.687 C15.510,25.687 17.937,28.122 17.937,31.125 C17.937,34.128 15.510,36.563 12.516,36.563 zM12.516,26.219 C9.797,26.219 7.594,28.415 7.594,31.125 C7.594,33.835 9.797,36.031 12.516,36.031 C15.234,36.031 17.437,33.835 17.437,31.125 C17.437,28.415 15.234,26.219 12.516,26.219 zM12.516,35.281 C10.212,35.281 8.344,33.413 8.344,31.109 C8.344,28.805 10.212,26.938 12.516,26.938 C14.820,26.938 16.688,28.805 16.688,31.109 C16.688,33.413 14.820,35.281 12.516,35.281 z" fill="#1BADF8" />
<path id="Ellipse-10" d="M12.516,51.313 C9.521,51.313 7.094,48.878 7.094,45.875 C7.094,42.872 9.521,40.437 12.516,40.437 C15.510,40.437 17.937,42.872 17.937,45.875 C17.937,48.878 15.510,51.313 12.516,51.313 zM12.516,40.969 C9.797,40.969 7.594,43.165 7.594,45.875 C7.594,48.585 9.797,50.781 12.516,50.781 C15.234,50.781 17.437,48.585 17.437,45.875 C17.437,43.165 15.234,40.969 12.516,40.969 zM12.516,50.062 C10.212,50.062 8.344,48.195 8.344,45.891 C8.344,43.587 10.212,41.719 12.516,41.719 C14.820,41.719 16.688,43.587 16.688,45.891 C16.688,48.195 14.820,50.062 12.516,50.062 z" fill="#63DA38" />
<path id="Ellipse-10" d="M12.516,66.062 C9.521,66.062 7.094,63.635 7.094,60.641 C7.094,57.646 9.521,55.219 12.516,55.219 C15.510,55.219 17.937,57.646 17.937,60.641 C17.937,63.635 15.510,66.062 12.516,66.062 zM12.516,55.719 C9.797,55.719 7.594,57.922 7.594,60.641 C7.594,63.359 9.797,65.562 12.516,65.562 C15.234,65.562 17.437,63.359 17.437,60.641 C17.437,57.922 15.234,55.719 12.516,55.719 zM12.516,64.813 C10.212,64.813 8.344,62.945 8.344,60.641 C8.344,58.337 10.212,56.469 12.516,56.469 C14.820,56.469 16.688,58.337 16.688,60.641 C16.688,62.945 14.820,64.813 12.516,64.813 z" fill="#CC73E1" />
</g>
</svg>
