<svg version="1.1" xmlns="http://www.w3.org/2000/svg" xmlns:xlink="http://www.w3.org/1999/xlink" width="76" height="76" viewBox="0 0 76 76">
<defs>
<linearGradient id="gradient1" gradientUnits="userSpaceOnUse" x1="49.342%" y1="94.737%" x2="49.342%" y2="6.579%" >
<stop offset="0%" stop-color="#1D64F2" />
<stop offset="100%" stop-color="#1AD6FD" />
</linearGradient>
<filter id="Ellipse-2-fx" filterUnits="userSpaceOnUse">
<feFlood flood-color="#F8F8F8" />
<feComposite operator="in" in2="SourceAlpha" result="sourceFill" />
<feBlend mode="normal" in="SourceGraphic" in2="sourceFill" result="gradientFill" />
</filter>
</defs>
<g id="safari">
<g id="Rounded-Rectangl" >
<path id="Rounded-Rectangl-fill" d="M4.000,0.000 C4.000,0.000 72.000,0.000 72.000,0.000 C74.209,0.000 76.000,1.791 76.000,4.000 C76.000,4.000 76.000,72.000 76.000,72.000 C76.000,74.209 74.209,76.000 72.000,76.000 C72.000,76.000 4.000,76.000 4.000,76.000 C1.791,76.000 0.000,74.209 0.000,72.000 C0.000,72.000 0.000,4.000 0.000,4.000 C0.000,1.791 1.791,0.000 4.000,0.000 z" fill="#FFFFFF" />
<path id="Rounded-Rectangl-stroke" d="M4.425,0.475 C4.425,0.475 71.575,0.475 71.575,0.475 C73.757,0.475 75.525,2.243 75.525,4.425 C75.525,4.425 75.525,71.575 75.525,71.575 C75.525,73.757 73.757,75.525 71.575,75.525 C71.575,75.525 4.425,75.525 4.425,75.525 C2.243,75.525 0.475,73.757 0.475,71.575 C0.475,71.575 0.475,4.425 0.475,4.425 C0.475,2.243 2.243,0.475 4.425,0.475 z" fill="none" stroke="#000000" stroke-opacity="0.080" stroke-width="1" />
</g>
<path id="Ellipse-2" d="M37.500,5.125 C55.932,5.125 70.875,20.068 70.875,38.500 C70.875,56.932 55.932,71.875 37.500,71.875 C19.068,71.875 4.125,56.932 4.125,38.500 C4.125,20.068 19.068,5.125 37.500,5.125 z" fill="url(#gradient1)" filter="url(#Ellipse-2-fx)" />
<path id="Large-ticks" d="M62.525,38.500 L62.525,37.858 L68.300,37.858 L68.300,38.500 L62.525,38.500 zM62.033,33.522 L67.721,32.519 L67.832,33.151 L62.145,34.154 L62.033,33.522 zM60.796,29.338 L66.223,27.363 L66.442,27.965 L61.016,29.941 L60.796,29.338 zM58.851,25.431 L63.853,22.544 L64.173,23.100 L59.172,25.987 L58.851,25.431 zM56.258,21.922 L60.682,18.210 L61.094,18.702 L56.670,22.414 L56.258,21.922 zM53.094,18.917 L56.806,14.493 L57.298,14.906 L53.586,19.329 L53.094,18.917 zM49.457,16.507 L52.344,11.505 L52.900,11.826 L50.012,16.827 L49.457,16.507 zM46.059,62.016 L46.662,61.796 L48.637,67.223 L48.034,67.442 L46.059,62.016 zM45.456,14.765 L47.431,9.338 L48.034,9.557 L46.059,14.984 L45.456,14.765 zM41.845,63.144 L42.478,63.033 L43.480,68.721 L42.848,68.832 L41.845,63.144 zM41.214,13.743 L42.216,8.056 L42.848,8.168 L41.845,13.855 L41.214,13.743 zM37.500,63.531 L38.156,63.531 L38.156,69.312 L37.500,69.312 L37.500,63.531 zM36.844,7.688 L37.500,7.688 L37.500,13.469 L36.844,13.469 L36.844,7.688 zM32.151,68.832 L33.154,63.144 L33.786,63.256 L32.783,68.943 L32.151,68.832 zM31.520,8.279 L32.151,8.168 L33.154,13.855 L32.522,13.966 L31.520,8.279 zM26.966,67.442 L28.941,62.016 L29.544,62.235 L27.569,67.662 L26.966,67.442 zM26.363,9.777 L26.966,9.557 L28.941,14.984 L28.338,15.204 L26.363,9.777 zM22.100,65.173 L24.987,60.172 L25.543,60.493 L22.656,65.494 L22.100,65.173 zM21.544,12.147 L22.100,11.826 L24.987,16.827 L24.432,17.148 L21.544,12.147 zM18.194,62.506 L17.702,62.094 L21.414,57.670 L21.906,58.082 L18.194,62.506 zM17.211,15.318 L17.702,14.906 L21.414,19.329 L20.922,19.742 L17.211,15.318 zM17.917,22.906 L13.493,19.193 L13.906,18.702 L18.330,22.414 L17.917,22.906 zM15.507,26.543 L10.506,23.655 L10.826,23.100 L15.828,25.987 L15.507,26.543 zM13.765,30.544 L8.338,28.569 L8.557,27.965 L13.984,29.941 L13.765,30.544 zM12.744,34.786 L7.056,33.783 L7.168,33.151 L12.855,34.154 L12.744,34.786 zM12.475,39.141 L6.700,39.141 L6.700,38.500 L12.475,38.500 L12.475,39.141 zM12.966,43.477 L7.279,44.480 L7.168,43.848 L12.855,42.845 L12.966,43.477 zM14.204,47.662 L8.777,49.637 L8.557,49.034 L13.984,47.059 L14.204,47.662 zM16.148,51.568 L11.147,54.455 L10.826,53.900 L15.828,51.012 L16.148,51.568 zM18.742,55.077 L14.318,58.789 L13.906,58.298 L18.330,54.585 L18.742,55.077 zM53.456,64.853 L52.900,65.173 L50.012,60.172 L50.568,59.851 L53.456,64.853 zM57.789,61.681 L57.298,62.094 L53.586,57.670 L54.077,57.257 L57.789,61.681 zM57.083,54.094 L61.507,57.806 L61.094,58.298 L56.670,54.585 L57.083,54.094 zM59.493,50.456 L64.494,53.344 L64.173,53.900 L59.172,51.012 L59.493,50.456 zM61.235,46.456 L66.662,48.431 L66.442,49.034 L61.016,47.059 L61.235,46.456 zM62.256,42.213 L67.944,43.216 L67.832,43.848 L62.145,42.845 L62.256,42.213 z" fill="#FFFFFF" />
<path id="Small-ticks" d="M64.931,35.456 L68.127,35.176 L68.183,35.815 L64.987,36.095 L64.931,35.456 zM63.985,30.739 L67.084,29.908 L67.250,30.528 L64.152,31.359 L63.985,30.739 zM62.235,26.258 L65.143,24.901 L65.414,25.483 L62.507,26.839 L62.235,26.258 zM59.734,22.148 L62.362,20.308 L62.730,20.834 L60.102,22.674 L59.734,22.148 zM57.010,58.010 L57.464,57.556 L59.732,59.825 L59.279,60.279 L57.010,58.010 zM56.557,18.536 L58.825,16.267 L59.279,16.721 L57.010,18.990 L56.557,18.536 zM53.326,61.102 L53.851,60.733 L55.691,63.362 L55.166,63.730 L53.326,61.102 zM52.800,15.530 L54.640,12.902 L55.166,13.270 L53.326,15.898 L52.800,15.530 zM49.161,63.506 L49.742,63.235 L51.098,66.143 L50.517,66.414 L49.161,63.506 zM48.579,13.222 L49.935,10.314 L50.517,10.586 L49.161,13.493 L48.579,13.222 zM44.641,65.151 L45.261,64.985 L46.091,68.084 L45.472,68.250 L44.641,65.151 zM44.021,11.682 L44.852,8.583 L45.472,8.749 L44.641,11.848 L44.021,11.682 zM39.905,65.986 L40.544,65.931 L40.824,69.127 L40.184,69.183 L39.905,65.986 zM39.265,10.957 L39.545,7.761 L40.184,7.817 L39.905,11.013 L39.265,10.957 zM34.816,69.183 L35.095,65.986 L35.734,66.042 L35.455,69.238 L34.816,69.183 zM34.176,7.873 L34.816,7.817 L35.095,11.013 L34.456,11.069 L34.176,7.873 zM29.528,68.250 L30.359,65.151 L30.978,65.317 L30.148,68.416 L29.528,68.250 zM28.908,8.915 L29.528,8.749 L30.359,11.848 L29.739,12.014 L28.908,8.915 zM24.483,66.414 L25.839,63.506 L26.421,63.778 L25.065,66.685 L24.483,66.414 zM23.902,10.857 L24.483,10.586 L25.839,13.493 L25.258,13.764 L23.902,10.857 zM19.834,63.730 L21.674,61.102 L22.200,61.470 L20.359,64.098 L19.834,63.730 zM19.308,13.638 L19.834,13.270 L21.674,15.898 L21.148,16.266 L19.308,13.638 zM15.721,60.279 L17.990,58.010 L18.443,58.464 L16.175,60.732 L15.721,60.279 zM15.267,17.175 L15.721,16.721 L17.990,18.990 L17.536,19.443 L15.267,17.175 zM12.270,56.166 L14.898,54.326 L15.266,54.851 L12.638,56.692 L12.270,56.166 zM11.902,21.359 L12.270,20.834 L14.898,22.674 L14.530,23.200 L11.902,21.359 zM12.222,27.421 L9.315,26.065 L9.586,25.483 L12.493,26.839 L12.222,27.421 zM10.682,31.978 L7.583,31.148 L7.749,30.528 L10.848,31.359 L10.682,31.978 zM9.957,36.734 L6.761,36.455 L6.817,35.815 L10.013,36.095 L9.957,36.734 zM10.069,41.544 L6.873,41.823 L6.817,41.184 L10.013,40.905 L10.069,41.544 zM11.015,46.261 L7.915,47.091 L7.749,46.472 L10.848,45.641 L11.015,46.261 zM12.764,50.742 L9.857,52.098 L9.586,51.517 L12.493,50.161 L12.764,50.742 zM63.098,55.640 L62.730,56.166 L60.102,54.326 L60.470,53.800 L63.098,55.640 zM62.778,49.579 L65.686,50.935 L65.414,51.517 L62.507,50.161 L62.778,49.579 zM64.317,45.021 L67.417,45.852 L67.250,46.472 L64.152,45.641 L64.317,45.021 zM65.042,40.265 L68.239,40.545 L68.183,41.184 L64.987,40.905 L65.042,40.265 z" fill="#FFFFFF" />
<path id="Shape-10" d="M40.788,41.547 L34.372,35.773 L14.480,62.723 L40.788,41.547 z" fill="#FFFFFF" />
<path id="Shape-10" d="M34.372,35.853 L40.788,41.628 L60.680,14.678 L34.372,35.853 z" fill="#FF1414" />
</g>
</svg>
