<svg version="1.1" xmlns="http://www.w3.org/2000/svg" xmlns:xlink="http://www.w3.org/1999/xlink" width="141" height="134" viewBox="0 0 141 134">
<g id="step-3">
<path id="step-3" d="M120.115,84.135 C109.415,84.135 100.865,75.584 100.865,64.885 C100.865,54.185 110.185,44.865 120.885,44.865 C131.585,44.865 140.135,54.185 140.135,64.885 C140.135,75.584 130.815,84.135 120.115,84.135 zM120.115,45.635 C110.477,45.866 101.766,55.245 101.635,64.885 C101.498,74.953 111.093,83.840 120.885,83.365 C130.514,82.897 138.846,74.511 139.365,64.885 C139.905,54.875 130.105,45.395 120.115,45.635 zM128.587,73.000 C128.587,73.000 124.176,73.000 124.176,73.000 C124.129,73.000 124.083,72.997 124.037,72.993 C124.037,72.993 123.977,72.990 123.977,72.990 C123.977,72.990 123.949,72.993 123.949,72.993 C123.902,72.997 123.856,73.000 123.809,73.000 C123.809,73.000 112.781,73.000 112.781,73.000 C109.593,73.000 107.001,70.407 107.001,67.221 C107.001,65.081 108.286,62.944 110.158,61.924 C110.158,61.924 110.158,61.923 110.158,61.923 C110.154,61.866 110.150,61.810 110.150,61.753 C110.150,59.520 111.967,57.704 114.200,57.704 C114.354,57.704 114.505,57.714 114.654,57.731 C114.700,57.736 114.745,57.745 114.790,57.752 C114.895,57.767 114.998,57.785 115.099,57.808 C115.152,57.820 115.203,57.834 115.255,57.848 C115.349,57.873 115.442,57.902 115.533,57.934 C115.585,57.952 115.636,57.970 115.688,57.991 C115.780,58.028 115.870,58.068 115.959,58.112 C115.993,58.128 116.029,58.140 116.063,58.157 C117.529,56.203 119.895,55.005 122.338,55.005 C126.363,55.005 129.701,58.241 129.939,62.290 C132.278,62.905 134.000,65.119 134.000,67.588 C134.000,70.572 131.572,73.000 128.587,73.000 zM129.425,63.096 C129.364,63.088 128.320,62.946 127.318,63.098 C127.295,63.101 127.272,63.103 127.250,63.103 C127.031,63.103 126.839,62.943 126.805,62.721 C126.768,62.475 126.937,62.246 127.183,62.208 C127.872,62.103 128.560,62.120 129.020,62.152 C128.718,58.664 125.824,55.905 122.338,55.905 C120.225,55.905 118.100,56.975 116.810,58.662 C117.689,59.405 118.250,60.514 118.250,61.753 C118.250,62.002 118.049,62.203 117.800,62.203 C117.551,62.203 117.350,62.002 117.350,61.753 C117.350,60.645 116.774,59.671 115.907,59.110 C115.805,59.044 115.699,58.985 115.591,58.932 C115.559,58.917 115.528,58.901 115.496,58.886 C115.374,58.831 115.249,58.781 115.121,58.742 C115.105,58.737 115.089,58.734 115.073,58.730 C114.956,58.696 114.838,58.670 114.718,58.650 C114.683,58.644 114.648,58.638 114.613,58.634 C114.477,58.616 114.339,58.604 114.200,58.604 C112.464,58.604 111.051,60.017 111.051,61.753 C111.051,61.790 111.053,61.826 111.056,61.863 C111.056,61.863 111.061,61.957 111.061,61.957 C111.061,61.957 111.057,62.029 111.057,62.029 C111.054,62.088 111.051,62.146 111.051,62.203 C111.051,62.203 111.051,62.486 111.051,62.486 C111.051,62.486 110.795,62.608 110.795,62.608 C109.118,63.412 107.900,65.352 107.900,67.221 C107.900,69.911 110.090,72.100 112.781,72.100 C112.781,72.100 123.809,72.100 123.809,72.100 C123.835,72.100 123.861,72.098 123.887,72.096 C123.887,72.096 123.976,72.091 123.976,72.091 C123.976,72.091 124.098,72.096 124.098,72.096 C124.124,72.098 124.150,72.100 124.176,72.100 C124.176,72.100 128.587,72.100 128.587,72.100 C131.075,72.100 133.100,70.076 133.100,67.588 C133.100,65.424 131.520,63.495 129.425,63.096 zM92.331,18.265 C92.300,17.912 92.243,17.568 92.198,17.219 C103.366,21.973 112.549,30.439 118.123,41.085 C117.752,41.110 117.380,41.127 117.015,41.171 C111.528,30.807 102.687,22.881 92.331,18.265 zM90.000,75.000 C90.000,75.000 90.000,129.000 90.000,129.000 C90.000,131.818 88.073,134.000 85.273,134.000 C85.273,134.000 54.727,134.000 54.727,134.000 C51.927,134.000 50.000,131.818 50.000,129.000 C50.000,129.000 50.000,80.000 50.000,80.000 C49.650,80.000 49.000,79.899 49.000,79.547 C49.000,79.547 49.000,75.703 49.000,75.703 C49.000,75.350 49.650,75.000 50.000,75.000 C50.000,75.000 50.000,74.000 50.000,74.000 C49.650,74.000 49.000,73.493 49.000,73.140 C49.000,73.140 49.000,69.297 49.000,69.297 C49.000,68.944 49.650,69.000 50.000,69.000 C50.000,69.000 50.000,64.999 50.000,64.999 C49.650,64.999 49.000,64.524 49.000,64.171 C49.000,64.171 49.000,62.890 49.000,62.890 C49.000,62.538 49.650,62.000 50.000,62.000 C50.000,62.000 50.000,56.999 50.000,56.999 C50.000,54.181 51.927,52.000 54.727,52.000 C54.727,52.000 85.273,52.000 85.273,52.000 C88.073,52.000 90.000,54.181 90.000,56.999 C90.000,56.999 90.000,69.000 90.000,69.000 C90.350,69.000 91.000,68.944 91.000,69.297 C91.000,69.297 91.000,74.422 91.000,74.422 C91.000,74.774 90.350,75.000 90.000,75.000 zM89.000,56.999 C89.000,54.881 87.105,53.000 85.000,53.000 C85.000,53.000 55.000,53.000 55.000,53.000 C52.895,53.000 50.909,55.005 50.909,57.125 C50.909,57.125 50.909,128.875 50.909,128.875 C50.909,130.994 52.895,133.000 55.000,133.000 C55.000,133.000 85.000,133.000 85.000,133.000 C87.105,133.000 89.000,131.119 89.000,129.000 C89.000,129.000 89.000,56.999 89.000,56.999 zM85.285,125.031 C85.285,125.031 54.714,125.031 54.714,125.031 C53.316,125.031 52.000,123.408 52.000,122.000 C52.000,122.000 52.000,64.000 52.000,64.000 C52.000,62.592 53.601,61.000 55.000,61.000 C55.000,61.000 85.000,61.000 85.000,61.000 C86.399,61.000 88.000,62.592 88.000,64.000 C88.000,64.000 88.000,122.000 88.000,122.000 C88.000,123.408 86.684,125.031 85.285,125.031 zM87.000,64.000 C87.000,62.947 86.045,62.000 85.000,62.000 C85.000,62.000 55.000,62.000 55.000,62.000 C53.954,62.000 53.000,62.947 53.000,64.000 C53.000,64.000 53.000,122.000 53.000,122.000 C53.000,123.052 53.954,124.000 55.000,124.000 C55.000,124.000 85.000,124.000 85.000,124.000 C86.045,124.000 87.000,123.052 87.000,122.000 C87.000,122.000 87.000,64.000 87.000,64.000 zM79.365,105.000 C79.365,105.000 60.635,105.000 60.635,105.000 C60.282,105.000 60.000,104.713 60.000,104.354 C60.000,104.354 60.000,99.606 60.000,99.606 C60.000,99.247 60.282,98.960 60.635,98.960 C60.987,98.960 61.000,99.641 61.000,100.000 C61.000,100.000 61.000,103.999 61.000,103.999 L79.000,103.999 C79.000,103.999 79.000,100.000 79.000,100.000 C79.000,99.641 79.008,98.960 79.360,98.960 C79.713,98.960 79.995,99.247 80.000,99.606 C80.000,99.606 80.000,104.354 80.000,104.354 C80.000,104.713 79.718,105.000 79.365,105.000 zM70.000,99.000 L70.000,98.952 L66.000,95.700 L66.588,94.985 L70.000,97.383 L70.000,83.000 L71.000,83.000 L71.000,97.276 L74.688,94.609 L75.312,95.390 L71.000,99.000 L70.000,99.000 zM75.000,57.999 C75.000,57.999 65.000,57.999 65.000,57.999 C64.825,57.999 64.909,57.621 64.909,57.445 C64.909,57.269 64.825,56.999 65.000,56.999 C65.000,56.999 75.000,56.999 75.000,56.999 C75.175,56.999 75.091,57.269 75.091,57.445 C75.091,57.621 75.175,57.999 75.000,57.999 zM63.318,57.766 C63.142,57.766 63.000,57.622 63.000,57.445 C63.000,57.268 63.142,57.125 63.318,57.125 C63.494,57.125 63.636,57.268 63.636,57.445 C63.636,57.622 63.494,57.766 63.318,57.766 zM70.000,126.312 C71.406,126.312 72.545,127.459 72.545,128.875 C72.545,130.290 71.406,131.437 70.000,131.437 C68.594,131.437 67.455,130.290 67.455,128.875 C67.455,127.459 68.594,126.312 70.000,126.312 zM70.000,130.797 C71.053,130.797 71.909,129.934 71.909,128.875 C71.909,127.815 71.053,126.953 70.000,126.953 C68.947,126.953 68.091,127.815 68.091,128.875 C68.091,129.934 68.947,130.797 70.000,130.797 zM70.115,40.134 C59.415,40.134 50.865,31.585 50.865,20.885 C50.865,10.185 60.185,0.865 70.885,0.865 C81.585,0.865 90.135,10.185 90.135,20.885 C90.135,31.585 80.815,40.134 70.115,40.134 zM70.115,1.635 C60.478,1.866 51.766,11.245 51.635,20.885 C51.498,30.954 61.093,39.840 70.885,39.365 C80.514,38.897 88.846,30.511 89.365,20.885 C89.904,10.875 80.105,1.395 70.115,1.635 zM74.972,28.377 C72.760,28.377 70.960,26.684 70.960,24.603 C70.960,22.522 72.759,20.829 74.972,20.829 C76.130,20.829 77.267,21.259 78.000,22.000 C78.000,22.000 78.000,15.000 78.000,15.000 L67.000,17.000 C67.000,17.000 67.000,28.000 67.000,28.000 C67.000,30.080 65.285,31.989 63.051,31.989 C60.817,31.989 59.000,30.297 59.000,28.217 C59.000,26.136 60.817,24.443 63.051,24.443 C64.225,24.443 65.281,24.913 66.021,25.659 C66.021,25.659 66.021,16.252 66.021,16.252 L66.021,14.566 C66.021,14.566 66.021,12.158 66.021,12.158 C66.021,12.046 65.978,12.013 65.939,12.000 C65.958,12.001 65.963,12.005 66.000,12.000 C66.000,12.000 77.000,10.000 77.000,10.000 C77.153,9.978 78.683,10.023 78.801,10.130 C78.917,10.236 78.984,10.390 78.984,10.552 C78.984,10.552 78.984,12.960 78.984,12.960 L78.984,14.647 C78.984,14.647 78.984,24.603 78.984,24.603 C78.984,26.684 77.184,28.377 74.972,28.377 zM63.051,25.566 C61.413,25.566 60.080,26.755 60.080,28.216 C60.080,29.677 61.413,30.865 63.051,30.865 C64.689,30.865 66.021,29.677 66.021,28.216 C66.021,26.755 64.689,25.566 63.051,25.566 zM78.000,11.000 L67.000,13.000 L67.000,15.000 L67.102,15.612 L77.904,14.152 L78.000,13.000 L78.000,11.000 zM74.972,21.953 C73.355,21.953 72.040,23.141 72.040,24.603 C72.040,26.064 73.355,27.252 74.972,27.252 C76.588,27.252 77.904,26.063 77.904,24.603 C77.904,23.142 76.588,21.953 74.972,21.953 zM25.591,41.952 C25.282,41.856 24.968,41.775 24.653,41.693 C29.848,31.501 38.316,23.245 48.658,18.244 C48.629,18.559 48.629,18.881 48.612,19.200 C38.752,24.211 30.625,32.286 25.591,41.952 zM40.135,64.885 C40.135,75.584 30.815,84.135 20.115,84.135 C9.415,84.135 0.865,75.584 0.865,64.885 C0.865,54.185 10.185,44.865 20.885,44.865 C31.585,44.865 40.135,54.185 40.135,64.885 zM20.115,45.635 C10.477,45.866 1.766,55.245 1.635,64.885 C1.498,74.953 11.093,83.840 20.885,83.365 C30.514,82.897 38.846,74.511 39.365,64.885 C39.904,54.875 30.105,45.395 20.115,45.635 zM25.472,77.860 C25.472,77.860 14.614,77.860 14.614,77.860 C13.567,77.860 13.000,77.049 13.000,76.000 C13.000,76.000 13.000,54.000 13.000,54.000 C13.000,52.951 13.953,52.000 15.000,52.000 C15.000,52.000 25.000,52.000 25.000,52.000 C26.047,52.000 27.000,52.951 27.000,54.000 C27.000,54.000 27.000,76.000 27.000,76.000 C27.000,77.048 26.519,77.860 25.472,77.860 zM26.000,54.000 C26.046,53.464 25.618,53.036 25.000,53.000 C25.000,53.000 14.000,53.000 14.000,53.000 C13.428,53.000 14.000,53.427 14.000,54.000 C14.000,54.000 14.000,55.000 14.000,55.000 L26.000,55.000 C26.000,55.000 26.000,54.000 26.000,54.000 zM26.000,56.000 L14.000,56.000 L14.000,72.000 L26.000,72.000 L26.000,56.000 zM26.000,73.000 L14.000,73.000 C14.000,73.000 14.000,76.000 14.000,76.000 C14.000,76.573 14.042,76.996 14.614,76.996 C14.614,76.996 25.472,76.996 25.472,76.996 C26.044,76.996 26.000,76.573 26.000,76.000 C26.000,76.000 26.000,73.000 26.000,73.000 zM20.043,76.564 C19.092,76.564 18.319,75.789 18.319,74.836 C18.319,73.883 19.092,73.109 20.043,73.109 C20.994,73.109 21.767,73.883 21.767,74.836 C21.767,75.789 20.994,76.564 20.043,76.564 zM20.043,73.972 C19.567,73.972 19.181,74.360 19.181,74.836 C19.181,75.313 19.567,75.700 20.043,75.700 C20.519,75.700 20.905,75.313 20.905,74.836 C20.905,74.360 20.519,73.972 20.043,73.972 zM18.319,53.241 C18.319,53.241 20.043,53.241 20.043,53.241 C20.281,53.241 20.474,53.434 20.474,53.673 C20.474,53.911 20.281,54.105 20.043,54.105 C20.043,54.105 18.319,54.105 18.319,54.105 C18.080,54.105 17.888,53.911 17.888,53.673 C17.888,53.434 18.080,53.241 18.319,53.241 zM21.336,53.241 C21.336,53.241 21.767,53.241 21.767,53.241 C22.006,53.241 22.198,53.434 22.198,53.673 C22.198,53.911 22.006,54.105 21.767,54.105 C21.767,54.105 21.336,54.105 21.336,54.105 C21.098,54.105 20.905,53.911 20.905,53.673 C20.905,53.434 21.098,53.241 21.336,53.241 zM40.000,106.000 C40.000,106.000 39.531,106.645 39.531,106.645 C32.750,101.461 27.489,94.886 23.983,87.478 C24.413,87.382 24.831,87.251 25.251,87.128 C28.710,94.547 33.743,101.216 40.000,106.000 zM103.000,103.999 C103.000,104.961 102.728,103.999 103.000,103.999 zM104.000,91.000 C104.000,91.000 104.000,102.000 104.000,102.000 C108.815,97.792 113.038,92.939 116.273,87.694 C116.650,87.754 117.024,87.824 117.406,87.863 C114.187,93.397 109.939,98.530 105.000,102.999 C105.000,102.999 115.000,102.999 115.000,102.999 L115.000,103.999 L103.000,103.999 L103.000,91.000 L104.000,91.000 z" fill="#0088CC" />
</g>
</svg>
