<svg version="1.1" xmlns="http://www.w3.org/2000/svg" xmlns:xlink="http://www.w3.org/1999/xlink" width="98" height="118" viewBox="0 0 98 118">
<g id="step-2">
<path id="step-2" d="M73.000,80.000 C74.714,80.000 75.395,81.112 77.000,83.000 C77.000,83.000 76.834,83.126 76.834,83.126 L97.353,103.646 L97.000,104.000 L97.325,104.379 L90.325,110.379 L90.000,110.000 L89.646,110.353 L67.000,87.999 C67.000,87.999 67.264,86.987 67.264,86.987 C67.079,86.431 67.027,85.834 67.000,85.000 C66.957,83.666 67.248,83.070 68.000,82.000 C68.000,82.000 65.000,78.000 65.000,78.000 C62.720,80.123 59.989,82.044 57.000,83.565 C57.000,83.565 57.000,111.000 57.000,111.000 C57.000,115.056 55.000,118.000 51.000,118.000 C51.000,118.000 7.000,118.000 7.000,118.000 C3.416,117.773 1.396,114.840 1.000,111.000 C1.000,111.000 1.000,40.000 1.000,40.000 C0.500,40.000 -0.000,39.507 -0.000,39.000 C-0.000,39.000 -0.000,33.999 -0.000,33.999 C-0.000,33.492 0.500,33.000 1.000,33.000 C1.000,33.000 1.000,32.000 1.000,32.000 C0.500,32.000 -0.000,31.507 -0.000,31.000 C-0.000,31.000 -0.000,26.000 -0.000,26.000 C-0.000,25.493 0.500,25.000 1.000,25.000 C1.000,25.000 1.000,19.000 1.000,19.000 C0.500,19.000 -0.000,17.507 -0.000,16.999 C-0.000,16.999 -0.000,16.000 -0.000,16.000 C-0.000,15.492 0.500,14.000 1.000,14.000 C1.000,14.000 1.000,7.000 1.000,7.000 C1.213,2.965 3.788,0.061 7.182,-0.001 C7.182,-0.001 50.818,-0.001 50.818,-0.001 C54.818,-0.001 57.000,2.943 57.000,7.000 C57.000,7.000 57.000,25.000 57.000,25.000 C57.500,25.000 58.000,25.493 58.000,26.000 C58.000,26.000 58.000,29.577 58.000,29.577 C67.588,34.822 74.000,45.260 74.000,57.000 C74.000,64.920 70.965,71.569 66.000,76.999 C66.000,76.999 69.000,81.000 69.000,81.000 C70.022,80.343 71.755,80.000 73.000,80.000 zM56.000,7.000 C56.000,3.950 54.007,0.999 51.000,0.999 C51.000,0.999 8.000,0.999 8.000,0.999 C4.993,0.999 2.000,3.950 2.000,7.000 C2.000,7.000 2.000,111.000 2.000,111.000 C2.000,114.049 4.993,117.000 8.000,117.000 C8.000,117.000 51.000,117.000 51.000,117.000 C54.007,117.000 56.000,114.049 56.000,111.000 C56.000,111.000 56.000,84.052 56.000,84.052 C55.669,84.207 55.337,84.360 55.000,84.505 C55.000,84.505 55.000,101.000 55.000,101.000 C55.000,103.026 51.998,105.000 50.000,105.000 C50.000,105.000 7.000,105.000 7.000,105.000 C5.002,105.000 3.000,103.026 3.000,101.000 C3.000,101.000 3.000,16.999 3.000,16.999 C3.000,14.973 6.002,12.999 8.000,12.999 C8.000,12.999 51.000,12.999 51.000,12.999 C52.998,12.999 55.000,14.973 55.000,16.999 C55.000,16.999 55.000,28.152 55.000,28.152 C55.336,28.289 55.670,28.428 56.000,28.577 C56.000,28.577 56.000,7.000 56.000,7.000 zM54.000,101.000 C54.000,101.000 54.000,84.918 54.000,84.918 C50.661,86.230 47.094,87.009 43.520,86.999 C26.684,86.949 12.999,73.829 13.000,57.000 C13.001,40.169 27.169,26.000 44.000,26.000 C47.524,26.000 50.884,26.628 54.000,27.765 C54.000,27.765 54.000,16.999 54.000,16.999 C54.000,15.485 51.493,14.000 50.000,14.000 C50.000,14.000 8.000,14.000 8.000,14.000 C6.506,14.000 4.000,15.485 4.000,16.999 C4.000,16.999 4.000,101.000 4.000,101.000 C4.000,102.515 5.506,104.000 7.000,104.000 C7.000,104.000 50.000,104.000 50.000,104.000 C51.493,104.000 54.000,102.515 54.000,101.000 zM73.000,57.000 C73.469,41.153 59.806,26.832 44.000,26.999 C27.146,27.178 13.618,41.507 14.000,57.000 C14.381,72.450 27.545,86.000 43.000,86.000 C58.455,86.000 72.542,72.448 73.000,57.000 zM68.000,86.999 C68.022,87.186 68.137,87.386 68.294,87.586 C68.294,87.586 68.934,88.227 68.934,88.227 C69.139,88.398 69.347,88.556 69.525,88.681 C69.525,88.681 69.448,88.740 69.448,88.740 L90.026,109.319 L96.265,103.971 L76.030,83.737 C76.030,83.737 76.006,83.755 76.006,83.755 C76.004,83.739 75.994,83.715 75.991,83.698 C75.991,83.698 75.000,82.707 75.000,82.707 L75.000,83.000 L70.000,87.999 L69.000,87.999 L74.646,82.353 L74.646,82.353 C74.646,82.353 75.063,81.937 75.063,81.937 C74.519,81.292 73.747,80.748 72.749,80.760 C70.595,80.786 67.311,81.272 68.000,86.999 zM18.000,57.000 C18.000,43.104 30.104,31.000 44.000,31.000 C57.896,31.000 69.000,43.104 69.000,57.000 C69.000,70.896 56.896,82.000 43.000,82.000 C29.104,82.000 18.000,70.896 18.000,57.000 zM68.000,57.000 C68.701,44.000 55.974,31.689 43.000,32.000 C30.484,32.299 19.170,44.481 19.000,57.000 C18.822,70.077 31.283,81.617 44.000,81.000 C56.505,80.393 67.326,69.501 68.000,57.000 zM30.000,60.000 L46.000,60.000 L46.000,61.000 L30.000,61.000 L30.000,60.000 zM54.000,67.999 L45.000,67.999 L45.000,67.000 L54.000,67.000 L54.000,67.999 zM50.000,60.000 L57.000,60.000 L57.000,61.000 L50.000,61.000 L50.000,60.000 zM39.000,53.000 L58.000,53.000 L58.000,54.000 L39.000,54.000 L39.000,53.000 zM37.000,46.000 L53.000,46.000 L53.000,46.999 L37.000,46.999 L37.000,46.000 zM37.000,39.000 C30.492,40.907 27.541,46.664 26.005,51.011 C25.952,51.082 23.814,53.044 24.470,50.843 C26.391,44.390 31.390,39.390 37.843,37.469 C39.151,37.080 38.307,38.610 37.000,39.000 zM36.000,54.000 L30.000,54.000 L30.000,53.000 L36.000,53.000 L36.000,54.000 zM40.000,67.999 L35.000,67.999 L35.000,67.000 L40.000,67.000 L40.000,67.999 zM36.000,7.999 C36.000,7.999 22.000,7.999 22.000,7.999 C21.750,7.999 21.727,8.089 21.727,7.836 C21.727,7.582 21.750,7.000 22.000,7.000 C22.000,7.000 36.000,7.000 36.000,7.000 C36.250,7.000 36.273,7.582 36.273,7.836 C36.273,8.089 36.250,7.999 36.000,7.999 zM19.454,8.297 C19.203,8.297 19.000,8.090 19.000,7.836 C19.000,7.581 19.203,7.374 19.454,7.374 C19.705,7.374 19.909,7.581 19.909,7.836 C19.909,8.090 19.705,8.297 19.454,8.297 zM29.000,106.937 C31.008,106.937 32.636,108.588 32.636,110.625 C32.636,112.661 31.008,114.312 29.000,114.312 C26.992,114.312 25.364,112.661 25.364,110.625 C25.364,108.588 26.992,106.937 29.000,106.937 zM29.000,113.390 C30.504,113.390 31.727,112.150 31.727,110.625 C31.727,109.100 30.504,107.859 29.000,107.859 C27.496,107.859 26.273,109.100 26.273,110.625 C26.273,112.150 27.496,113.390 29.000,113.390 z" fill="#0088CC" />
</g>
</svg>
