<svg version="1.1" xmlns="http://www.w3.org/2000/svg" xmlns:xlink="http://www.w3.org/1999/xlink" width="76" height="76" viewBox="0 0 76 76">
<defs>
<linearGradient id="gradient1" gradientUnits="userSpaceOnUse" x1="50.000%" y1="100.000%" x2="50.000%" y2="0.000%" >
<stop offset="0%" stop-color="#01B41F" />
<stop offset="100%" stop-color="#67FF81" />
</linearGradient>
<filter id="Rounded-Rectangl-fx" filterUnits="userSpaceOnUse">
<feFlood flood-color="#0088CC" />
<feComposite operator="in" in2="SourceAlpha" result="sourceFill" />
<feBlend mode="normal" in="SourceGraphic" in2="sourceFill" result="gradientFill" />
</filter>
</defs>
<g id="whatsapp">
<path id="Rounded-Rectangl" d="M4.000,0.000 C4.000,0.000 72.000,0.000 72.000,0.000 C74.209,0.000 76.000,1.791 76.000,4.000 C76.000,4.000 76.000,72.000 76.000,72.000 C76.000,74.209 74.209,76.000 72.000,76.000 C72.000,76.000 4.000,76.000 4.000,76.000 C1.791,76.000 0.000,74.209 0.000,72.000 C0.000,72.000 0.000,4.000 0.000,4.000 C0.000,1.791 1.791,0.000 4.000,0.000 z" fill="url(#gradient1)" filter="url(#Rounded-Rectangl-fx)" />
<path id="Shape-18" d="M38.112,64.536 C38.111,64.536 38.112,64.536 38.112,64.536 C38.112,64.536 38.101,64.536 38.101,64.536 C33.601,64.534 29.179,63.410 25.252,61.278 C25.252,61.278 10.999,65.000 10.999,65.000 C10.999,65.000 14.814,51.134 14.814,51.134 C12.461,47.076 11.223,42.472 11.225,37.756 C11.231,23.003 23.292,11.000 38.111,11.000 C45.304,11.003 52.054,13.790 57.130,18.848 C62.206,23.905 65.001,30.628 64.998,37.778 C64.992,52.531 52.929,64.536 38.112,64.536 zM53.919,22.042 C49.700,17.838 44.089,15.521 38.120,15.519 C25.794,15.519 15.769,25.496 15.764,37.758 C15.762,41.960 16.944,46.053 19.181,49.594 C19.181,49.594 19.712,50.435 19.712,50.435 L17.455,58.642 L25.912,56.434 C25.912,56.434 26.729,56.916 26.729,56.916 C30.160,58.943 34.093,60.015 38.102,60.016 C38.102,60.016 38.112,60.016 38.112,60.016 C50.429,60.016 60.453,50.039 60.458,37.776 C60.461,31.833 58.138,26.245 53.919,22.042 zM46.730,50.499 C45.573,50.671 44.108,50.743 42.499,50.234 C41.523,49.926 40.272,49.514 38.669,48.826 C31.930,45.929 27.529,39.176 27.193,38.730 C26.857,38.284 24.450,35.105 24.450,31.814 C24.450,28.523 26.185,26.905 26.801,26.236 C27.417,25.567 28.145,25.399 28.593,25.399 C29.040,25.399 29.489,25.403 29.880,25.423 C30.292,25.444 30.846,25.267 31.392,26.571 C31.952,27.909 33.295,31.200 33.463,31.535 C33.631,31.870 33.743,32.260 33.519,32.706 C33.295,33.152 33.183,33.431 32.847,33.822 C32.511,34.212 32.142,34.694 31.839,34.993 C31.503,35.327 31.153,35.689 31.545,36.358 C31.937,37.027 33.285,39.216 35.282,40.989 C37.848,43.267 40.013,43.973 40.685,44.308 C41.356,44.643 41.748,44.587 42.140,44.141 C42.532,43.694 43.820,42.188 44.267,41.519 C44.715,40.850 45.163,40.961 45.779,41.184 C46.395,41.408 49.697,43.025 50.369,43.360 C51.041,43.694 51.489,43.862 51.657,44.141 C51.825,44.419 51.825,45.758 51.265,47.320 C50.705,48.882 48.021,50.307 46.730,50.499 z" fill="#FFFFFF" />
</g>
</svg>
