<svg xmlns="http://www.w3.org/2000/svg" viewBox="0 0 61.7 70.8"><path d="M26.3 60.7C12.3 60.7 1 49.4 1 35.4c0-13.9 11.3-25.3 25.3-25.3s25.3 11.3 25.3 25.3-11.4 25.3-25.3 25.3zm0-48.1c-12.6 0-22.8 10.2-22.8 22.8 0 12.6 10.2 22.8 22.8 22.8 12.6 0 22.8-10.2 22.8-22.8 0-12.5-10.2-22.8-22.8-22.8z"/><path d="M26.3 70.8v-2.5c18.2 0 32.9-14.8 32.9-32.9S44.4 2.5 26.3 2.5C17.4 2.5 9.1 6 2.9 12.3l-1.8-1.8C7.8 3.7 16.8 0 26.3 0c19.5 0 35.4 15.9 35.4 35.4 0 19.6-15.9 35.4-35.4 35.4z"/><path d="M28.2 37.3l-13.1-5.4.9-2.3 9.7 4V17.7h2.5zM6.3 13.4H0V6.8h2.5v4.1h3.8z"/></svg>
