<svg xmlns="http://www.w3.org/2000/svg" preserveAspectRatio="xMidYMid" width="75" height="74" viewBox="0 0 75 74"><path d="M37.273 6.66c9.947 0 11.123.037 15.056.215 3.63.163 5.602.764 6.914 1.274 1.739.67 2.981 1.469 4.284 2.761 1.304 1.298 2.112 2.525 2.789 4.251.507 1.301 1.114 3.261 1.281 6.863.178 3.896.217 5.067.217 14.93 0 9.869-.039 11.04-.217 14.936-.167 3.603-.774 5.562-1.281 6.864-.677 1.721-1.485 2.953-2.789 4.246-1.303 1.297-2.545 2.095-4.284 2.766-1.312.504-3.284 1.106-6.914 1.274-3.933.177-5.109.215-15.056.215-9.948 0-11.124-.038-15.058-.215-3.631-.168-5.602-.77-6.913-1.274-1.741-.671-2.983-1.469-4.284-2.766-1.304-1.293-2.112-2.525-2.785-4.246-.513-1.302-1.12-3.261-1.285-6.864-.178-3.896-.217-5.067-.217-14.936 0-9.863.039-11.034.217-14.93.165-3.602.772-5.562 1.285-6.863.673-1.726 1.481-2.953 2.785-4.251 1.301-1.292 2.543-2.091 4.284-2.761 1.311-.51 3.282-1.111 6.913-1.274 3.934-.178 5.11-.215 15.058-.215m0-6.659c-10.118 0-11.388.042-15.363.225-3.966.176-6.671.802-9.04 1.717-2.451.942-4.529 2.206-6.599 4.259-2.069 2.058-3.345 4.116-4.298 6.546-.919 2.352-1.55 5.04-1.732 8.973-.179 3.943-.226 5.198-.226 15.233 0 10.042.047 11.296.226 15.239.182 3.934.813 6.621 1.732 8.973.953 2.431 2.229 4.489 4.298 6.546 2.07 2.053 4.148 3.317 6.599 4.26 2.369.915 5.074 1.539 9.04 1.717 3.975.182 5.245.224 15.363.224 10.117 0 11.387-.042 15.36-.224 3.966-.178 6.671-.802 9.042-1.717 2.451-.943 4.529-2.207 6.599-4.26 2.069-2.057 3.343-4.115 4.298-6.546.924-2.352 1.549-5.039 1.732-8.973.179-3.943.226-5.197.226-15.239 0-10.035-.047-11.29-.226-15.233-.183-3.933-.808-6.621-1.732-8.973-.955-2.43-2.229-4.488-4.298-6.546-2.07-2.053-4.148-3.317-6.599-4.259-2.371-.915-5.076-1.541-9.042-1.717C48.66.043 47.39.001 37.273.001m0 17.978c-10.564 0-19.13 8.496-19.13 18.975 0 10.485 8.566 18.982 19.13 18.982 10.563 0 19.129-8.497 19.129-18.982 0-10.479-8.566-18.975-19.129-18.975m0 31.298c-6.858 0-12.418-5.514-12.418-12.323 0-6.802 5.56-12.318 12.418-12.318s12.416 5.516 12.416 12.318c0 6.809-5.558 12.323-12.416 12.323m19.886-36.482c-2.468 0-4.468 1.988-4.468 4.433 0 2.448 2 4.437 4.468 4.437 2.469 0 4.468-1.989 4.468-4.437 0-2.445-1.999-4.433-4.468-4.433" class="cls-2" fill-rule="evenodd"/></svg>