<svg xmlns="http://www.w3.org/2000/svg" width="17" height="14" viewBox="0 0 17 14"><title>Twitter Icon</title><path d="M16.54 2.25c-.571.25-1.186.42-1.831.5a3.181 3.181 0 0 0 1.402-1.74 6.43 6.43 0 0 1-2.025.76 3.208 3.208 0 0 0-2.328-.99c-1.762 0-3.189 1.4-3.189 3.14 0 .25.028.49.082.72a9.14 9.14 0 0 1-6.572-3.29 3.13 3.13 0 0 0-.431 1.58c0 1.09.563 2.05 1.418 2.62a3.2 3.2 0 0 1-1.444-.4v.04A3.14 3.14 0 0 0 4.18 8.27c-.268.08-.549.11-.84.11-.206 0-.406-.01-.6-.05.405 1.25 1.583 2.15 2.979 2.18a6.475 6.475 0 0 1-3.961 1.34c-.257 0-.512-.01-.761-.04a9.134 9.134 0 0 0 4.888 1.41c5.866 0 9.073-4.78 9.073-8.94 0-.13-.003-.27-.009-.4.623-.45 1.164-1 1.591-1.63z"/></svg>
