<svg xmlns="http://www.w3.org/2000/svg" preserveAspectRatio="xMidYMid" width="15" height="14" viewBox="0 0 15 14"><path d="M11.5 13.324V8.513c0-1.209-.454-2.036-1.589-2.036-.865 0-1.382.556-1.608 1.094-.084.192-.104.462-.104.73v5.023H5.063s.042-8.151 0-8.995h3.136v1.276l-.02.029h.02v-.029c.417-.614 1.16-1.486 2.826-1.486 2.063 0 3.611 1.284 3.611 4.047v5.158H11.5zM1.76 3.101h-.021c-1.052 0-1.732-.69-1.732-1.554 0-.882.7-1.554 1.773-1.554s1.734.672 1.753 1.554c0 .864-.68 1.554-1.773 1.554zm1.567 10.223H.192V4.329h3.135v8.995z" fill-rule="evenodd"/></svg>
