<svg xmlns="http://www.w3.org/2000/svg" preserveAspectRatio="xMidYMid" width="28" height="28" viewBox="0 0 92 92"><defs><style>.cls-2{stroke:#242424;stroke-width:7px;fill:none}</style></defs><path d="M70.795 88.486h-.002c-7.118-.002-20.072-4.48-41.359-25.813C16.781 49.995 8.647 38.989 5.258 29.963c-3.665-9.758-.779-14.657 1.269-16.706l7.258-7.274a8.436 8.436 0 0 1 6.013-2.497 8.45 8.45 0 0 1 6.719 3.29l8.843 11.385a8.523 8.523 0 0 1-.038 10.523l-1.996 2.532a5.13 5.13 0 0 0 .396 6.796l20.324 20.366c1.784 1.788 4.794 1.968 6.781.398l2.526-2c2.974-2.355 7.511-2.372 10.502-.039l11.362 8.86a8.539 8.539 0 0 1 .79 12.759L78.75 85.63c-1.3 1.304-3.736 2.856-7.955 2.856z" id="path-1" class="cls-2" fill-rule="evenodd"/></svg>
