<svg xmlns="http://www.w3.org/2000/svg" preserveAspectRatio="xMidYMid" width="16" height="17" viewBox="0 0 16 17"><path d="M11.636 10.625c1.534-.909 2.901-2.459 2.901-4.631 0-3.297-2.778-5.995-6.173-5.995S2.191 2.697 2.191 5.994c0 2.172.639 3.722 2.173 4.631C1.697 11.599.533 14.273 0 17h1.333C2 14.013 4.733 11.806 8 11.806s6 2.207 6.667 5.194H16c-.533-2.792-1.697-5.466-4.364-6.375zM4.008 5.801c0-2.341 1.977-4.254 4.393-4.254 2.416 0 4.393 1.913 4.393 4.254 0 2.339-1.977 4.253-4.393 4.253-2.416 0-4.393-1.914-4.393-4.253z"/></svg>
