<svg xmlns="http://www.w3.org/2000/svg" preserveAspectRatio="xMidYMid" width="79" height="78" viewBox="0 0 79 78"><path d="M78.291 4.3v69.083c0 2.365-1.931 4.288-4.323 4.288H54.022V47.595h10.179l1.524-11.716H54.022v-7.485c0-3.391.948-5.706 5.854-5.706h6.256V12.204c-1.081-.14-4.793-.462-9.115-.462-9.022 0-15.192 5.464-15.192 15.49v8.647H31.623v11.716h10.202v30.076H4.331c-2.388 0-4.321-1.923-4.321-4.288V4.3C.01 1.934 1.943.012 4.331.012h69.637c2.392 0 4.323 1.922 4.323 4.288" class="cls-2" fill-rule="evenodd"/></svg>