<svg xmlns="http://www.w3.org/2000/svg" preserveAspectRatio="xMidYMid" width="23" height="14" viewBox="0 0 23 14"><path d="M19.534 7.187v2.321h-1.763V7.187h-2.424V5.5h2.424V3.179h1.763V5.5h2.423v1.687h-2.423zm-12.56 6.16c-3.846 0-6.963-2.984-6.963-6.667C.011 3 3.128.014 6.974.014c1.81 0 3.459.663 4.697 1.747L9.619 3.685a4.193 4.193 0 0 0-2.645-.928c-2.264 0-4.099 1.756-4.099 3.923 0 2.168 1.835 3.925 4.099 3.925 1.751 0 3.245-1.052 3.832-2.532h-3.92V5.288h6.898c.1.45.153.915.153 1.392 0 3.683-3.118 6.667-6.963 6.667z" fill-rule="evenodd"/></svg>
