<svg xmlns="http://www.w3.org/2000/svg" width="30" height="30" viewBox="0 0 29 30"><defs><clipPath id="a"><path d="M1273.17 2088.01c-2.35 0-6.61-1.48-13.63-8.51-4.17-4.18-6.84-7.81-7.96-10.78-1.21-3.22-.26-4.83.42-5.51l2.39-2.39c.53-.53 1.23-.83 1.98-.83.87 0 1.68.4 2.21 1.09l2.92 3.75c.79 1.02.78 2.45-.02 3.47l-.65.83c-.53.67-.48 1.64.13 2.24l6.69 6.71c.59.59 1.58.65 2.23.13l.84-.65c.98-.78 2.47-.79 3.46-.02l3.74 2.92a2.834 2.834 0 0 1 .26 4.21l-2.39 2.39c-.43.43-1.23.95-2.62.95z" fill="#fff"/></clipPath></defs><path d="M1273.17 2088.01c-2.35 0-6.61-1.48-13.63-8.51-4.17-4.18-6.84-7.81-7.96-10.78-1.21-3.22-.26-4.83.42-5.51l2.39-2.39c.53-.53 1.23-.83 1.98-.83.87 0 1.68.4 2.21 1.09l2.92 3.75c.79 1.02.78 2.45-.02 3.47l-.65.83c-.53.67-.48 1.64.13 2.24l6.69 6.71c.59.59 1.58.65 2.23.13l.84-.65c.98-.78 2.47-.79 3.46-.02l3.74 2.92a2.834 2.834 0 0 1 .26 4.21l-2.39 2.39c-.43.43-1.23.95-2.62.95z" fill="none" stroke="#f95318" stroke-width="2" transform="translate(-1250 -2059)"/></svg>
