<svg xmlns="http://www.w3.org/2000/svg" viewBox="0 0 44 65.9"><path class="st0" d="M7.8 8.7h10.9v2.5H7.8zM7.8 17.5H34V20H7.8zM7.8 26.2H34v2.5H7.8zM7.8 35h10.9v2.5H7.8zM7.8 43.7h8.7v2.5H7.8zM7.8 52.5h8.7V55H7.8zM29.7 55c-4.2 0-7.5-2.2-7.8-5.2l2.5-.2c.1 1.4 2.2 3 5.3 3 2.8 0 5.3-1.5 5.3-3.1 0-1.5-1.7-2.5-5.2-3.1l-.6-.1c-1.8-.3-7.3-1.2-7.3-5.6 0-3.2 3.4-5.6 7.8-5.6 4.2 0 7.5 2.2 7.8 5.2l-2.5.1c-.1-1.4-2.2-3-5.3-3-2.8 0-5.3 1.5-5.3 3.1 0 2.2 3.9 2.9 5.2 3.1l.6.1c1.8.3 7.3 1.2 7.3 5.6 0 3.2-3.5 5.7-7.8 5.7z"/><path class="st0" d="M28.4 34h2.5v21.9h-2.5z"/><path class="st0" d="M44 65.9h-4.7v-1.3c0-.5-.4-.9-.9-.9s-.9.4-.9.9v1.3h-4.7v-1.3c0-.5-.4-.9-.9-.9s-.9.4-.9.9v1.3h-4.7v-1.3c0-.5-.4-.9-.9-.9s-.9.4-.9.9v1.3h-4.7v-1.3c0-.5-.4-.9-.9-.9s-.9.4-.9.9v1.3h-4.7v-1.3c0-.5-.4-.9-.9-.9s-.9.4-.9.9v1.3H6.6v-1.3c0-.5-.4-.9-.9-.9s-.9.4-.9.9v1.3H0V0h4.7v1.3c0 .5.4.9.9.9s.9-.4.9-.9V0h4.7v1.3c0 .5.4.9.9.9s.9-.4.9-.9V0h4.7v1.3c0 .5.4.9.9.9s.9-.4.9-.9V0h4.7v1.3c0 .5.4.9.9.9s.9-.4.9-.9V0h4.7v1.3c0 .5.4.9.9.9s.9-.4.9-.9V0h4.7v1.3c0 .5.4.9.9.9s.9-.4.9-.9V0h5v65.9zm-8.9-2.5h.2c.5-1.3 1.7-2.2 3.2-2.2 1.4 0 2.6.8 3.1 2V2.7c-.5 1.2-1.7 2-3.1 2-1.5 0-2.7-.9-3.2-2.2h-.2c-.5 1.3-1.7 2.2-3.2 2.2s-2.7-.9-3.2-2.2h-.2c-.5 1.3-1.7 2.2-3.2 2.2-1.5 0-2.7-.9-3.2-2.2h-.2c-.5 1.3-1.7 2.2-3.2 2.2s-2.7-.9-3.2-2.2h-.2c-.5 1.3-1.7 2.2-3.2 2.2-1.5 0-2.7-.9-3.2-2.2h-.1c-.5 1.3-1.7 2.2-3.2 2.2-1.4 0-2.6-.8-3.1-2v60.5c.5-1.2 1.7-2 3.1-2 1.5 0 2.7.9 3.2 2.2H9c.5-1.3 1.7-2.2 3.2-2.2s2.7.9 3.2 2.2h.2c.5-1.3 1.7-2.2 3.2-2.2s2.7.9 3.2 2.2h.2c.5-1.3 1.7-2.2 3.2-2.2s2.7.9 3.2 2.2h.2c.5-1.3 1.7-2.2 3.2-2.2s2.6.9 3.1 2.2z"/></svg>