<svg xmlns="http://www.w3.org/2000/svg" viewBox="0 0 63.7 65.9"><path class="st0" d="M38.2 65.9H25.6c-1.4 0-2.6-1-2.8-2.4l-1.1-7.7c-1.5-.7-3-1.5-4.4-2.6l-7.2 2.9c-1.3.5-2.8-.1-3.5-1.3L.4 43.9c-.7-1.3-.4-2.8.7-3.6l6.1-4.8c-.1-1-.1-1.8-.1-2.6s0-1.6.1-2.6l-6.1-4.8C0 24.7-.3 23.2.4 22l6.3-11c.7-1.2 2.1-1.8 3.5-1.2l7.2 2.9c1.5-1.1 2.9-1.9 4.4-2.6l1.1-7.7C23 1 24.2 0 25.6 0h12.6c1.4 0 2.6 1 2.8 2.4l1.1 7.7c1.5.7 3 1.5 4.4 2.6l7.2-2.9c1.3-.5 2.8.1 3.5 1.3L63.3 22c.7 1.3.4 2.8-.7 3.6l-6.1 4.8c.1.7.1 1.6.1 2.6s-.1 1.8-.1 2.6l6.1 4.8c1.1.9 1.4 2.4.7 3.6L57 55c-.7 1.2-2.2 1.8-3.5 1.2l-7.2-2.9c-1.5 1-2.9 1.9-4.4 2.6l-1.1 7.7c0 1.3-1.2 2.3-2.6 2.3zM17.7 50.4l.6.4c1.6 1.2 3.3 2.2 5 2.9l.7.3 1.3 9.1c0 .2.1.3.3.3h12.6c.2 0 .3-.1.3-.2l1.3-9.1.7-.3c1.7-.7 3.3-1.7 5-2.9l.6-.4 8.5 3.4c.1.1.3 0 .4-.1l6.3-11c.1-.1 0-.3-.1-.4L54 36.7l.1-.7c.1-1.2.2-2.1.2-3 0-.9-.1-1.8-.2-3l-.1-.7 7.2-5.7c.1-.1.1-.3.1-.5L55 12.2c-.1-.2-.3-.2-.4-.1L46 15.5l-.6-.4c-1.6-1.2-3.3-2.2-5-2.9l-.7-.3-1.3-9.1c0-.2-.1-.3-.3-.3H25.6c-.2 0-.3.1-.3.2L24 11.9l-.7.3c-1.7.7-3.3 1.7-5 2.9l-.6.4-8.5-3.4c-.1 0-.3 0-.4.1l-6.3 11c-.1.2 0 .3.1.4l7.2 5.7-.1.7c-.1 1.2-.2 2.1-.2 3s.1 1.8.2 3l.1.7-7.2 5.7c-.1.1-.1.3-.1.5l6.3 10.9c.1.2.3.2.4.1l8.5-3.5zm14.4-4.2c-7.3 0-13.3-6-13.3-13.3 0-7.3 6-13.3 13.3-13.3 7.3 0 13.3 6 13.3 13.3 0 7.3-6 13.3-13.3 13.3zm0-24.1c-5.9 0-10.8 4.8-10.8 10.8s4.8 10.8 10.8 10.8 10.8-4.8 10.8-10.8S38 22.1 32.1 22.1z"/></svg>