<svg xmlns="http://www.w3.org/2000/svg" viewBox="0 0 61.2 54.1"><path class="st0" d="M10.3 48.7H0V24.1h1.3c2.5 0 10.7.3 12.9 2.3l.4.4-.1.6c-.6 6.5-3.9 19.7-4 20.3l-.2 1zm-7.8-2.5h5.8c.7-3 3.1-12.7 3.7-18.2-1.5-.7-5.7-1.2-9.5-1.3v19.5z"/><path class="st0" d="M34.5 54c-1.7 0-3.1-.5-5.2-1.3l-.4-.2-19-6 .8-2.4 19.5 6.2c4.4 1.7 4.9 1.9 14.7-2.1l12.7-5.4c-1.4-1.8-3.8-2.8-5.9-2.2l-10.1 2-.5-2.5 10-2c3.6-.9 7.6 1.1 9.4 4.7l.6 1.2-15.3 6.5c-6 2.6-8.9 3.5-11.3 3.5z"/><path class="st0" d="M36.9 43.8c-.6 0-1.2-.1-1.8-.2l-12.1-3 .6-2.4 12 3c.9.2 1.5.2 2.4 0l2-.7c-.1-2.6-.8-3.3-3.1-3.9l-24.1-6 .6-2.4 24.1 6c4.2 1 5 3.4 5 7.2v.9l-3.9 1.3c-.5.2-1.1.2-1.7.2zM46.2 23.3h2.5v4h-2.5z"/><path class="st0" d="M47.4 34.6c-5.1 0-9.3-4.2-9.3-9.3s4.2-9.3 9.3-9.3 9.3 4.2 9.3 9.3-4.2 9.3-9.3 9.3zm0-16c-3.7 0-6.8 3-6.8 6.8 0 3.7 3 6.8 6.8 6.8s6.8-3 6.8-6.8-3-6.8-6.8-6.8z"/><g><path class="st0" d="M30.1 7.3h2.5v4h-2.5z"/></g><g><path class="st0" d="M31.4 18.6c-5.1 0-9.3-4.2-9.3-9.3 0-5.1 4.2-9.3 9.3-9.3 5.1 0 9.3 4.2 9.3 9.3-.1 5.1-4.2 9.3-9.3 9.3zm0-16.1c-3.7 0-6.8 3-6.8 6.8 0 3.7 3 6.8 6.8 6.8s6.8-3 6.8-6.8c-.1-3.8-3.1-6.8-6.8-6.8z"/></g></svg>