<svg xmlns="http://www.w3.org/2000/svg" viewBox="0 0 52.8 66.5"><path class="st0" d="M27.5 66.5l-.4-.1C15.9 62.7 0 46.8 0 36.7V9.3h1.3c8.2 0 19.9-2.9 25.4-8.4l.8-.9.9.9c5.8 5.8 15.8 8.4 23.2 8.4h1.3v27.5c0 9.8-13.5 25.9-24.9 29.6l-.5.1zm-25-54.8v25c0 8.2 13.9 23.3 25 27.1 10.3-3.6 22.8-18.4 22.8-27.1v-25c-6.9-.2-16.4-2.5-22.8-8.3-6.5 5.8-17.9 8.1-25 8.3z"/><path class="st0" d="M27.5 62.2l-.5-.3C17.7 57.9 4.4 43 4.4 36.7v-23l1.1-.1c6.5-.7 15.9-2.8 21.3-6.4l.7-.5.7.5c4.9 3.3 11.9 5.6 19.1 6.4l1.1.1v23c0 6.3-11.2 21.1-20.4 25.2l-.5.3zM6.9 16v20.7c0 4.9 11.8 18.5 20.6 22.7 8.6-4.1 18.4-17.8 18.4-22.7V16c-6.9-.9-13.5-3.1-18.4-6.2C22 13.2 13.3 15.2 6.9 16z"/><path class="st0" d="M27.5 46.8c-5.5 0-9.9-2.9-10.3-6.8l2.5-.2c.2 2.5 3.7 4.5 7.8 4.5 4.2 0 7.8-2.2 7.8-4.8 0-3.5-5.7-4.4-7.5-4.7l-.9-.2c-2.4-.4-9.6-1.6-9.6-7.2 0-4.1 4.5-7.3 10.3-7.3 5.5 0 9.9 2.9 10.3 6.8l-2.5.2c-.2-2.5-3.7-4.5-7.8-4.5-4.2 0-7.8 2.2-7.8 4.8 0 3.5 5.7 4.4 7.5 4.7l.9.1c2.4.4 9.6 1.6 9.6 7.2 0 4.2-4.6 7.4-10.3 7.4z"/><path class="st0" d="M26.2 17.1h2.5v33h-2.5z"/></svg>