<svg xmlns="http://www.w3.org/2000/svg" viewBox="0 0 61.9 61.9"><path class="st0" d="M48 61.9H30.7v-1.3c0-3.5 2.9-6.4 6.4-6.4h2.6l-9.9-10c-1.5-1.6-1.5-4.1 0-5.6.8-.8 1.7-1.2 2.8-1.2 1.1 0 2.1.4 2.8 1.2l2.3 2.3c.2-.5.5-.9.8-1.2.9-.9 2.2-1.3 3.4-1.1.1-.8.5-1.5 1.1-2.1 1.1-1.1 2.8-1.4 4.1-.9.2-.6.5-1.2 1-1.6.7-.8 1.7-1.2 2.8-1.2 1.1 0 2.1.4 2.8 1.2l4 4c2.6 2.7 4.1 6.2 4.1 9.9.1 7.7-6.1 14-13.8 14zm-14.5-2.5H48c6.3 0 11.4-5.2 11.4-11.5 0-3.1-1.2-6-3.4-8.2l-4-4c-.3-.3-.6-.4-1-.4s-.8.2-1 .4c-.6.6-.6 1.5 0 2.1l-1.8 1.8-1.2-1.3c-.6-.6-1.5-.6-2.1 0-.6.6-.6 1.5 0 2.1l1.3 1.3-1.8 1.8-1.3-1.3-.1-.1-.6-.6c-.6-.6-1.5-.6-2.1 0-.6.6-.6 1.5 0 2.1l3.2 3.2-1.8 1.8-8.1-8.2c-.6-.6-1.5-.6-2.1 0-.5.6-.5 1.6.1 2.2l14.1 14.2h-8.6c-1.7 0-3.1 1.1-3.6 2.6z"/><path class="st0" d="M25.8 61.9H6.4C2.9 61.9 0 59 0 55.5V6.4C0 2.9 2.9 0 6.4 0h30.7c3.5 0 6.4 2.9 6.4 6.4V32H41V6.4c0-2.1-1.7-3.9-3.9-3.9H6.4c-2.1 0-3.9 1.7-3.9 3.9v49.2c0 2.1 1.7 3.9 3.9 3.9h19.5v2.4z"/><path class="st0" d="M1.3 51.2h24.6v2.5H1.3zM19.7 55.3h4.1v2.5h-4.1zM7.4 9.7c-1.3 0-2.3-1-2.3-2.3s1-2.3 2.3-2.3 2.3 1 2.3 2.3-1 2.3-2.3 2.3zm0-2.5c-.1 0-.2.1-.2.2 0 .2.5.2.5 0-.1-.1-.2-.2-.3-.2z"/></svg>