<svg xmlns="http://www.w3.org/2000/svg" viewBox="0 0 72.1 73.1"><path class="st0" d="M48 58.6H6V30.4h42v28.2zM8.5 56.1h37V32.9h-37v23.2z"/><path class="st0" d="M54 52.6h-7.2v-2.5h4.7V26.9H14.4v4.7h-2.5v-7.2H54z"/><path class="st0" d="M59.9 46.7h-7.2v-2.5h4.7V21h-37v4.7h-2.5v-7.2h42z"/><path class="st0" d="M65.8 40.8h-7.2v-2.5h4.7V15.1h-37v4.7h-2.5v-7.2h42zM27 54.6c-5.1 0-9.2-4.1-9.2-9.2s4.1-9.2 9.2-9.2 9.2 4.1 9.2 9.2-4.1 9.2-9.2 9.2zm0-15.8a6.7 6.7 0 1 0 0 13.4 6.7 6.7 0 0 0 0-13.4zM42.1 54.6h-3.2v-2.5h1c.3-.8.9-1.4 1.7-1.7v-9.9c-.8-.3-1.4-.9-1.7-1.7h-1v-2.5h3.2v1.3c0 .4.3.7.7.7h1.3v14.4h-1.3c-.4 0-.7.3-.7.7v1.2zM15.1 54.6h-3.2v-1.3c0-.4-.3-.7-.7-.7H9.9V38.3h1.3c.4 0 .7-.3.7-.7v-1.3h3.2v2.5h-1c-.3.8-.9 1.4-1.7 1.7v9.9c.8.3 1.4.9 1.7 1.7h1v2.5z"/><g><path class="st0" d="M70.319.025l1.78 1.755-70.36 71.343-1.78-1.756z"/></g></svg>