<svg xmlns="http://www.w3.org/2000/svg" viewBox="0 0 40.6 67.5"><path class="st0" d="M32.6 67.5H8c-4.4 0-8-3.6-8-8V8c0-4.4 3.6-8 8-8h24.7c4.4 0 8 3.6 8 8v51.6c-.1 4.3-3.7 7.9-8.1 7.9zM8 2.5C5 2.5 2.5 5 2.5 8v51.6C2.5 62.5 5 65 8 65h24.7c3 0 5.5-2.5 5.5-5.5V8c0-3-2.5-5.5-5.5-5.5H8z"/><path class="st0" d="M1.3 9h38.1v2.5H1.3zM2.4 53.8h35.9v2.5H2.4zM14.7 4.5h11.2V7H14.7zM20.3 63c-1.3 0-2.4-1.1-2.4-2.4 0-1.3 1.1-2.4 2.4-2.4 1.3 0 2.4 1.1 2.4 2.4 0 1.4-1.1 2.4-2.4 2.4z"/><g><path class="st0" d="M19.1 38.5L13.6 33l1.8-1.7 3.7 3.7 6.7-6.8 1.8 1.8z"/></g><g><path class="st0" d="M20.6 44.1c-6.6 0-11.9-5.3-11.9-11.9 0-6.6 5.3-11.9 11.9-11.9s11.9 5.3 11.9 11.9c0 6.5-5.3 11.9-11.9 11.9zm0-21.4c-5.2 0-9.4 4.2-9.4 9.4s4.2 9.4 9.4 9.4 9.4-4.2 9.4-9.4-4.2-9.4-9.4-9.4z"/></g></svg>