<svg xmlns="http://www.w3.org/2000/svg" viewBox="0 0 47.7 63.8"><path class="st0" d="M34.9 58.3C27 51.9 18.6 44.2 16.2 35.7c-1-3.5 1-7.2 4.5-8.3 1.7-.5 3.4-.3 5 .6 1.6.9 2.7 2.3 3.2 4 1 3.6 6 9.1 14.1 15.7l-1.6 1.9c-6-4.9-13.5-11.7-15-16.9-.3-1.1-1-2-2-2.5-.9-.5-2-.6-3.1-.3-2.2.6-3.4 3-2.8 5.2 2.2 7.8 10.3 15.1 17.9 21.3l-1.5 1.9z"/><path class="st0" d="M1.6 52l-.8-2.4c2.6-.8 7-4.2 5.1-10.9-1.3-4.5-.7-9 1.5-13.2 2.2-4.1 5.9-7.1 10.3-8.4 8.9-2.6 18.3 2.6 21.2 11.5.9.9 5.3 4.7 8.3 7.2l-1.6 1.9c-8.5-7.2-8.8-7.7-8.9-7.9l-.1-.3c-2.3-7.8-10.5-12.3-18.1-10.1-3.8 1.1-6.9 3.7-8.8 7.2-1.9 3.7-2.4 7.6-1.3 11.4 2.1 7.5-2 12.5-6.8 14z"/><path class="st0" d="M5.9 57.4L5.2 55c5.6-1.8 8.6-5.4 5.9-17.9-1.4-6.7 2.1-13.1 8.2-14.9 3-.9 6.2-.5 9 1 2.8 1.6 4.9 4.2 5.8 7.3.4 1.3 1 3.6 11.2 11.8l-1.6 1.9c-9.9-8-11.4-10.8-12-13.1-.7-2.5-2.3-4.6-4.6-5.8-2.2-1.2-4.7-1.5-7.1-.8-4.8 1.4-7.6 6.6-6.4 12 2.6 12.3.4 18.3-7.7 20.9z"/><path class="st0" d="M39.2 53.8c-.5-.5-1.6-1.3-2.8-2.3-4.8-3.7-12.9-9.9-15-17.3l2.4-.7c1.9 6.6 9.5 12.5 14.1 16 1.4 1.1 2.5 1.9 3.1 2.5l-1.8 1.8zM19.4 63.8c0-.7-.1-6.6 2.1-8.9.7-.7 1.5-1 2.4-1 3.3 0 5.8 3.3 7.4 5.5.4.6.8 1.1 1.1 1.3l-1.8 1.8c-.4-.4-.8-1-1.3-1.6-1.3-1.8-3.3-4.5-5.4-4.5-.2 0-.3 0-.6.3-1.2 1.2-1.5 5.3-1.4 7.1h-2.5zM11.3 62.8l-.8-2.4c3.5-1.2 5.7-10 4.6-13.5l2.4-.7c1.5 4.6-1.1 14.9-6.2 16.6zM2.5 33.8H0c0-12.7 10.1-23 22.5-23 12.2 0 16.6 7 19.8 12.2 1.5 2.4 2.8 4.6 4.5 5.1l-.8 2.4c-2.6-.8-4.1-3.3-5.9-6.2-3-4.9-6.8-11-17.7-11-10.9 0-19.9 9.2-19.9 20.5zM1.2 43.9C1.1 43.7 0 41.7 0 40h2.5c0 .8.6 2.1.9 2.6l-2.2 1.3z"/><path class="st0" d="M40 14.4c-1.3-2.2-8.6-7.5-18.9-7.5-10.7 0-16.4 5.6-17.6 7.5l-2.1-1.3c1.4-2.4 7.8-8.8 19.7-8.8 11.2 0 19.2 5.7 21 8.8L40 14.4z"/><path class="st0" d="M35.4 5.1c-.5-.2-1-.4-1.6-.6-2.8-1.1-5.5-2.1-12.7-2.1-6.4 0-7.9.8-9.8 1.8-.5.3-1 .5-1.6.8l-1-2.3c.6-.3 1-.5 1.5-.7 2.2-1.2 4-2.1 11-2.1 7.7 0 10.7 1.1 13.6 2.2l1.5.6-.9 2.4z"/><g><path class="st0" d="M45.3 23.2c-.6-1.9-2.5-4.9-2.5-4.9l2.1-1.3c.1.1 2.1 3.3 2.8 5.5l-2.4.7z"/></g></svg>