<svg xmlns="http://www.w3.org/2000/svg" viewBox="0 0 111.1 60.1"><path class="st0" d="M92.5 24.2H75.8V12.1h12.8l3.9 12.1zm-14.2-2.5H89l-2.3-7.1h-8.5v7.1zM20.8 60.1c-4.4 0-8-3.6-8-8s3.6-8 8-8 8 3.6 8 8-3.6 8-8 8zm0-13.5c-3 0-5.5 2.5-5.5 5.5s2.5 5.5 5.5 5.5 5.5-2.5 5.5-5.5-2.5-5.5-5.5-5.5zM91.7 60.1c-4.4 0-8-3.6-8-8s3.6-8 8-8 8 3.6 8 8-3.6 8-8 8zm0-13.5c-3 0-5.5 2.5-5.5 5.5s2.5 5.5 5.5 5.5 5.5-2.5 5.5-5.5-2.5-5.5-5.5-5.5z"/><path class="st0" d="M111.1 53.4h-8.7v-1.3c0-5.9-4.8-10.8-10.8-10.8s-10.8 4.8-10.8 10.8v1.3H69V13c0-3.7 3-6.8 6.8-6.8h16.8l5.7 17.4h12.9v29.8zm-6.2-2.5h3.7V26.1H96.4L90.7 8.7h-15c-2.3 0-4.3 1.9-4.3 4.3v37.9h7c.6-6.7 6.3-12 13.2-12s12.7 5.2 13.3 12zM66.1 53.4H31.6v-1.3c0-5.9-4.8-10.8-10.8-10.8S10 46.2 10 52.1v1.3H0V6.8C0 3 3 0 6.8 0h52.5c3.7 0 6.8 3 6.8 6.8v46.6zM34 50.9h29.5V6.8c0-2.3-1.9-4.3-4.3-4.3H6.8c-2.3 0-4.3 1.9-4.3 4.3v44.1h5.1c.6-6.7 6.3-12 13.2-12s12.6 5.2 13.2 12z"/></svg>