<svg xmlns="http://www.w3.org/2000/svg" viewBox="0 0 83.6 63.2"><path class="st0" d="M83.6 54.4H58.4V4.6h2.5v47.3h22.7zM11.9 26.1H47v2.5H11.9z"/><path class="st0" d="M52.4 63.2c-4.7 0-8.5-3.8-8.5-8.5s3.8-8.5 8.5-8.5 8.5 3.8 8.5 8.5-3.9 8.5-8.5 8.5zm0-14.5c-3.3 0-6 2.7-6 6s2.7 6 6 6 6-2.7 6-6-2.7-6-6-6zM17.3 63.2c-4.7 0-8.5-3.8-8.5-8.5s3.8-8.5 8.5-8.5 8.5 3.8 8.5 8.5-3.8 8.5-8.5 8.5zm0-14.5c-3.3 0-6 2.7-6 6s2.7 6 6 6 6-2.7 6-6-2.7-6-6-6z"/><path class="st0" d="M36.5 55.9h-12v-2.5h9.6c.7-11 10.1-14.5 13.2-15.4v-7.5l-14.8-28H13.2v26l-1.2.1c-.4 0-9.5.9-9.5 9.3v15.6H10V56H0V37.9c0-7.9 6.4-11 10.7-11.7V0H34l15.8 29.9V40l-1 .2c-.5.1-12.2 2.3-12.2 14.4v1.3zM52.6 28h2.5v11.7h-2.5z"/></svg>