<svg xmlns="http://www.w3.org/2000/svg" viewBox="0 0 64.7 64.7"><path class="st0" d="M27 28.2H0V27c0-3.2 2.2-6 5.3-6.8l3.9-1 .2-.8c-.9-1.1-1.6-2.4-1.9-3.8-.8-.3-1.3-1-1.4-1.9l-.3-2.2c-.1-.7.1-1.4.5-1.9.2-.2.3-.3.5-.4 0-.7-.1-1.5-.1-1.9 0-2.1.6-5 5.9-5.2C14.4 0 16.2 0 17 0c2.8 0 4.1 1.2 4.8 2.2 1.4 2.2.5 3.6-.1 4.3l-.2.2-.1 1.4c.2.1.3.3.5.4.4.5.6 1.2.6 1.8l-.3 2.2c-.1.8-.6 1.5-1.3 1.8-.3 1.5-1 2.9-2 4l.2.7 3.9 1c3.1.8 5.3 3.6 5.3 6.8v1.3l-1.3.1zM2.7 25.7h22.9c-.4-1.5-1.6-2.7-3.2-3.1L17 21.3l-.9-3.6.6-.5c1-.9 1.8-2.4 1.9-3.8l.1-1.2h1.1l.2-2h-1.1l.1-4.5.9-.9c.2-.2.4-.4-.2-1.2-.5-.7-1.4-1.1-2.7-1.1-.7 0-2.1 0-3.3.9l-.3.2H13c-3.8 0-3.8 1.3-3.8 2.7 0 .5.2 1.9.3 2.6l.2 1.4H8.3l.2 2h1.2l.1 1.2c.1 1.4.8 2.8 1.8 3.7l.5.5-.9 3.6-5.3 1.3c-1.6.4-2.8 1.6-3.2 3.1zM63.4 28.2h-27V27c0-3.2 2.2-6 5.3-6.8l3.9-1 .2-.8c-.9-1.1-1.6-2.4-1.9-3.8-.8-.3-1.3-1-1.4-1.9l-.3-2.2c-.1-.7.1-1.4.6-1.9.2-.2.3-.3.5-.4-.1-.7-.2-1.5-.2-1.9 0-2.1.6-5 5.9-5.2C50.8 0 52.7 0 53.5 0c2.8 0 4.1 1.2 4.8 2.2 1.4 2.2.5 3.6-.1 4.3l-.2.2-.1 1.4c.2.1.3.3.5.4.4.5.6 1.2.6 1.8l-.3 2.2c-.1.8-.6 1.5-1.3 1.8-.3 1.5-1 2.9-2 4l.2.7 3.9 1c3.1.8 5.3 3.6 5.3 6.8v1.3l-1.4.1zm-24.3-2.5H62c-.4-1.5-1.6-2.7-3.2-3.1l-5.3-1.3-.9-3.6.6-.5c1-.9 1.8-2.4 1.9-3.8l.1-1.2h1.1l.2-2h-1.2l.2-4.6.9-.9c.2-.2.4-.4-.2-1.2-.5-.7-1.4-1.1-2.7-1.1-.7 0-2.1 0-3.3.9l-.3.2h-.4c-3.8 0-3.8 1.3-3.8 2.7 0 .5.2 1.9.3 2.6l.2 1.4h-1.4l.2 2h1.2l.1 1.2c.1 1.4.8 2.8 1.8 3.7l.5.5-.9 3.6-5.3 1.3c-1.7.5-2.9 1.7-3.3 3.2zM44.1 64.6H15v-1.3c0-3.4 2.3-6.4 5.6-7.2l4.3-1.1.2-1c-1-1.2-1.8-2.7-2.1-4.2-.8-.3-1.4-1.1-1.5-2l-.3-2.4c-.1-.7.1-1.4.6-1.9.2-.2.4-.4.6-.5-.1-.7-.2-1.6-.2-2.1 0-2.3.7-5.3 6.3-5.5 1.9-1.2 3.9-1.2 4.8-1.2 2.9 0 4.4 1.3 5.1 2.4 1.5 2.3.6 3.8-.1 4.6l-.3.3v1.6c.2.1.4.3.5.5.5.5.7 1.2.6 1.9l-.3 2.5c-.1.9-.6 1.6-1.4 1.9-.3 1.6-1.1 3.2-2.2 4.4l.2.9 4.3 1.1c3.3.8 5.6 3.8 5.6 7.2v1.3l-1.2-.2zm-26.4-2.5h25c-.4-1.7-1.8-3.1-3.6-3.6l-5.7-1.4-.9-3.7.6-.5c1.1-1 1.9-2.6 2.1-4.2l.1-1.2h1.2l.3-2.4h-1.3l.1-1.2.2-3.5.9-.9c.2-.2.5-.5-.2-1.5-.6-.8-1.5-1.3-3-1.3-.7 0-2.3 0-3.7 1l-.4.3H29c-4.2 0-4.2 1.5-4.2 3 0 .5.2 2 .3 2.9l.2 1.4h-1.5l.3 2.4h1.4l.1 1.2c.1 1.5.9 3 2 4.1l.5.5-1 3.8-5.7 1.4c-1.9.3-3.3 1.7-3.7 3.4zM12.796 32.518l6.436 6.435-1.768 1.768-6.435-6.435zM49.65 32.553l1.767 1.768-6.435 6.435-1.768-1.768z"/></svg>