<svg xmlns="http://www.w3.org/2000/svg" viewBox="0 0 65.4 65.8"><path class="st0" d="M35.5 65.8h-5.6c-9 0-16.3-7.3-16.3-16.3V24.8c0-9 7.3-16.3 16.3-16.3h5.6c9 0 16.3 7.3 16.3 16.3v24.8c-.1 8.9-7.4 16.2-16.3 16.2zM29.9 11c-7.6 0-13.8 6.2-13.8 13.8v24.8c0 7.6 6.2 13.8 13.8 13.8h5.6c7.6 0 13.8-6.2 13.8-13.8V24.8c0-7.6-6.2-13.8-13.8-13.8h-5.6z"/><path class="st0" d="M60.6 45.8h-2.5V28.5c0-14.3-11.4-26-25.4-26S7.2 14.1 7.2 28.5v17.4H4.7V28.5C4.7 12.8 17.3 0 32.7 0s27.9 12.8 27.9 28.5v17.3z"/><path class="st0" d="M16.2 36h-1.4l.2-2.5c.6.1 15.7 1.3 20.2-12l1.6-4.7.8 4.9c.1.3 1.5 7.8 13.1 10.9l-.5 2.4c-8.5-2.2-12.2-6.7-13.8-9.7C31.2 35.1 20.1 36 16.2 36zM36.2 54.8v-2.5c13.4 0 22-12.4 22.1-12.5l2.1 1.4c-.4.5-9.4 13.6-24.2 13.6z"/><path class="st0" d="M31.9 58.9c-3 0-5.4-2.4-5.4-5.4s2.4-5.4 5.4-5.4 5.4 2.4 5.4 5.4-2.4 5.4-5.4 5.4zm0-8.3c-1.6 0-2.9 1.3-2.9 2.9s1.3 2.9 2.9 2.9 2.9-1.3 2.9-2.9-1.3-2.9-2.9-2.9zM62.9 27.5h2.5v15.6h-2.5zM0 27.5h2.5v15.6H0z"/></svg>