<svg xmlns="http://www.w3.org/2000/svg" width="24" height="19" viewBox="0 0 24 19"><path d="M21.6 19H2.4C1.08 19 0 17.931 0 16.625V2.375C0 1.069 1.08 0 2.4 0h19.2C22.92 0 24 1.069 24 2.375v14.25C24 17.931 22.92 19 21.6 19zM3.12 2.221c-.497 0-.9.387-.9.866s.403.867.9.867.9-.388.9-.867-.403-.866-.9-.866zm2.4 0c-.497 0-.9.387-.9.866s.403.867.9.867.9-.388.9-.867-.403-.866-.9-.866zm16.104.154H7.2V3.8h14.424V2.375zm0 3.325H2.376v10.925h19.248V5.7zm-11.79 4.738a.81.81 0 0 1 .777-.102l2.736 1.079 4.128-3.958a.805.805 0 0 1 1.131.017c.308.314.3.816-.017 1.12l-4.5 4.316a.809.809 0 0 1-.853.167l-2.8-1.105-3.988 2.961a.803.803 0 0 1-1.12-.159.786.786 0 0 1 .16-1.108l4.346-3.228z" fill="#747474"/></svg>