<svg xmlns="http://www.w3.org/2000/svg" width="24" height="22" viewBox="0 0 24 22"><path d="M17.911 17.602a.367.367 0 0 1-.53 0 34.475 34.475 0 0 1-2.894-3.527c-1.459-2.05-3.199-5.055-3.199-7.734 0-3.498 2.852-6.344 6.358-6.344s6.358 2.846 6.358 6.344c0 2.677-1.737 5.68-3.195 7.729a34.557 34.557 0 0 1-2.898 3.532zm-.265-15.218a3.882 3.882 0 0 0-3.882 3.874 3.883 3.883 0 0 0 7.764 0 3.882 3.882 0 0 0-3.882-3.874zm-6.2 13.478l-9.582-1.046 1.367-4.722a.642.642 0 0 1 .617-.463h7.121c.33.914.761 1.806 1.229 2.64l-.752 3.591zm-1.286 6.141H.638a.642.642 0 0 1-.617-.819l1.301-4.494 9.728 1.062-.89 4.251zm3.542-7.372c.417.585.832 1.126 1.223 1.611l-1.556-.17.309-1.475.024.034zm8.235-.498l.859 2.968-2.878-.314a34.661 34.661 0 0 0 2.019-2.654zm1.437 4.965l.592 2.046a.641.641 0 0 1-.604.859h-.001-11.233l.846-4.041 10.4 1.136z" fill="#747474"/></svg>