<svg xmlns="http://www.w3.org/2000/svg" width="17" height="22" viewBox="0 0 17 22"><path d="M0 4.011V1.828c0-.384.322-.695.72-.695h4.944V.232c0-.128.107-.232.24-.232h5.191c.133 0 .241.104.241.232v.901h4.944c.397 0 .72.311.72.695v2.183H0zm15.005 16.928c-.026.593-.532 1.061-1.147 1.061H3.142c-.615 0-1.121-.468-1.147-1.061L1.23 5.357h14.54l-.765 15.582zM6.076 9.227a.458.458 0 0 0-.466-.449h-.746a.457.457 0 0 0-.466.449v8.903c0 .248.208.449.466.449h.746a.458.458 0 0 0 .466-.449V9.227zm3.263 0a.458.458 0 0 0-.466-.449h-.746a.457.457 0 0 0-.466.449v8.903c0 .248.208.449.466.449h.746a.458.458 0 0 0 .466-.449V9.227zm3.263 0a.458.458 0 0 0-.466-.449h-.746a.458.458 0 0 0-.466.449v8.903c0 .248.209.449.466.449h.746a.458.458 0 0 0 .466-.449V9.227z" fill="#949494"/></svg>