<svg xmlns="http://www.w3.org/2000/svg" width="24" height="19" viewBox="0 0 24 19"><path d="M23.991 16.11c-1.899 0-3.843-1.157-5.067-2.06 1.231-1.304 1.955-2.909 1.955-4.64 0-4.394-4.672-7.957-10.436-7.957-.849 0-1.675.078-2.465.222C9.656.634 11.815.006 14.17.006c5.352 0 9.691 3.238 9.691 7.234 0 1.311-.468 2.54-1.283 3.599-.035 1.27.061 4.026 1.413 5.271zm-4.603-5.976c0 3.997-4.338 7.234-9.69 7.234-1.147 0-2.244-.149-3.263-.421-1.228.902-3.168 2.057-5.068 2.057.954-.875 1.284-2.5 1.382-3.828C1.053 13.874.008 12.093.008 10.134c0-3.997 4.338-7.234 9.69-7.234 5.352 0 9.69 3.237 9.69 7.234z" fill="#747474"/></svg>