<svg xmlns="http://www.w3.org/2000/svg" width="11" height="10" viewBox="0 0 11 10"><path d="M5.119.224a.43.43 0 0 1 .382-.226.43.43 0 0 1 .382.226l1.369 2.642c.062.12.181.203.32.222l3.062.424a.42.42 0 0 1 .344.276.392.392 0 0 1-.108.415L8.655 6.26a.396.396 0 0 0-.123.359l.523 2.905a.396.396 0 0 1-.169.396.444.444 0 0 1-.449.031L5.699 8.58a.447.447 0 0 0-.397 0L2.564 9.951a.444.444 0 0 1-.449-.031.396.396 0 0 1-.169-.396l.523-2.905a.391.391 0 0 0-.123-.359L.131 4.203a.392.392 0 0 1-.108-.415.42.42 0 0 1 .344-.276l3.062-.424a.424.424 0 0 0 .321-.222L5.119.224z" fill="#F7406B"/></svg>