<svg xmlns="http://www.w3.org/2000/svg" width="16" height="17" viewBox="0 0 16 17"><path d="M15.952 15.744V.575c0-.454-.57-.569-.57-.569H3.697c-1.707 0-1.708 1.82-1.708 1.82v14.563c0 .334.271.606.607.606h10.928a.606.606 0 0 0 .607-.606l1.214-.001c.653 0 .607-.644.607-.644zm-2.669-9.643H7.486V2.982h5.797v3.119zm.847 5.007V2.459a.605.605 0 0 0-.606-.607L3.183 1.847c0-.417.628-.628.628-.628h10.32c.646 0 .626.568.626.568v13.656s-.106.395-.626.395v-4.73M4.233 6.657a.912.912 0 0 1-.912.912H1.21a.912.912 0 0 1 0-1.823h2.111c.504 0 .912.408.912.911zm0 4.668a.912.912 0 0 1-.912.912H1.21a.913.913 0 0 1 0-1.824h2.111c.504 0 .912.409.912.912z" fill="#747474"/></svg>