<svg xmlns="http://www.w3.org/2000/svg" width="25" height="25" viewBox="0 0 25 25"><path d="M7.149 2.724L5.527 1.03C2.747 3.208.893 6.596.661 10.469h2.317c.232-3.268 1.738-6.051 4.171-7.745zm15.523 7.745h2.317c-.232-3.873-1.969-7.261-4.75-9.439l-1.622 1.694c2.317 1.694 3.823 4.477 4.055 7.745zm-2.317.605c0-3.751-2.433-6.777-5.792-7.624v-.847c0-.968-.811-1.815-1.738-1.815-.927 0-1.737.847-1.737 1.815v.847c-3.36.847-5.793 3.873-5.793 7.624v6.655l-2.317 2.42-.105.99h19.905l-.106-.99-2.317-2.42v-6.655zM12.8 24.975c.115.014.373.014.489.014.81-.121 1.39-.726 1.622-1.452.115-.242.126-.935.126-1.298h-4.423c-.065 1.294.569 2.54 2.186 2.736z" fill="#747474"/></svg>