<svg xmlns="http://www.w3.org/2000/svg" width="24" height="14" viewBox="0 0 24 14"><path d="M14.3 10.612a.613.613 0 0 0-.078-.249L8.572.361c-.166-.294-.543-.432-.884-.325-.342.108-.546.43-.481.758l2.202 11.091a.627.627 0 0 0 .103.238c.022.095.048.19.082.284.355.949 1.325 1.588 2.414 1.588.281 0 .56-.042.828-.127a2.479 2.479 0 0 0 1.464-1.192 2.172 2.172 0 0 0 0-2.064zM12.009.762c-.403 0-.729.301-.729.672 0 .37.326.671.729.671 5.81 0 10.535 4.357 10.535 9.713 0 .37.328.671.73.671.403 0 .729-.301.729-.671 0-6.097-5.381-11.056-11.994-11.056zM4.471 3.217C1.639 5.328.014 8.463.014 11.818c0 .37.326.671.729.671.404 0 .73-.301.73-.671 0-2.947 1.427-5.701 3.915-7.556a.636.636 0 0 0 .109-.945.774.774 0 0 0-1.026-.1z" fill="#747474"/></svg>