<svg xmlns="http://www.w3.org/2000/svg" width="171" height="171" viewBox="0 0 171 171"><path d="M85.5 0C132.72 0 171 38.28 171 85.5S132.72 171 85.5 171 0 132.72 0 85.5 38.28 0 85.5 0z" fill="#F6F3F3"/><path d="M85.5 19c36.727 0 66.5 29.773 66.5 66.5 0 36.727-29.773 66.5-66.5 66.5C48.773 152 19 122.227 19 85.5 19 48.773 48.773 19 85.5 19z" fill="#EEEBEB"/><path d="M85.5 39c25.681 0 46.5 20.819 46.5 46.5S111.181 132 85.5 132 39 111.181 39 85.5 59.819 39 85.5 39z" fill="#F7406B"/><path d="M110.939 86.392c-.025.134-.04.265-.093.393-.052.128-.14.238-.218.356-.064.096-.098.204-.179.291-.027.029-.06.049-.088.076-.012.011-.016.027-.028.038l-9.497 8.729a2.124 2.124 0 0 1-1.445.563 2.128 2.128 0 0 1-1.561-.678 2.1 2.1 0 0 1 .116-2.984l5.513-5.067h-22.48a2.12 2.12 0 0 1-2.128-2.112 2.12 2.12 0 0 1 2.128-2.112h22.48l-5.513-5.067a2.1 2.1 0 0 1-.116-2.984 2.136 2.136 0 0 1 3.006-.115l9.497 8.729c.013.012.017.028.03.041.027.026.06.045.086.073.081.087.115.195.179.291.078.118.166.228.218.356.053.128.068.259.093.393.026.133.062.26.062.395s-.036.262-.062.395zm-17.976-9.687a2.119 2.119 0 0 1-2.127-2.112v-4.365H73.249v31.538h17.587v-4.365a2.12 2.12 0 0 1 2.127-2.112 2.12 2.12 0 0 1 2.128 2.112v6.477a2.12 2.12 0 0 1-2.128 2.111H71.122a2.12 2.12 0 0 1-2.128-2.111V68.116a2.12 2.12 0 0 1 2.128-2.111h21.841a2.12 2.12 0 0 1 2.128 2.111v6.477a2.12 2.12 0 0 1-2.128 2.112z" fill="#FFF"/></svg>