<svg xmlns="http://www.w3.org/2000/svg" width="171" height="171" viewBox="0 0 171 171"><path d="M85.5 0C132.72 0 171 38.28 171 85.5S132.72 171 85.5 171 0 132.72 0 85.5 38.28 0 85.5 0z" fill="#F6F3F3"/><path d="M85.5 19c36.727 0 66.5 29.773 66.5 66.5 0 36.727-29.773 66.5-66.5 66.5C48.773 152 19 122.227 19 85.5 19 48.773 48.773 19 85.5 19z" fill="#EEEBEB"/><path d="M85.5 39c25.681 0 46.5 20.819 46.5 46.5S111.181 132 85.5 132 39 111.181 39 85.5 59.819 39 85.5 39z" fill="#F7406B"/><path d="M82.733 78.343a3.12 3.12 0 0 0 0-4.418 3.12 3.12 0 0 0-2.211-.915 3.12 3.12 0 0 0-2.212.915l-9.382 9.372a3.004 3.004 0 0 0-.208.229c-.029.035-.054.072-.08.107-.035.046-.07.091-.102.139-.03.043-.055.088-.081.133-.026.043-.053.085-.077.129-.024.046-.045.093-.067.139-.022.046-.044.091-.064.138-.019.045-.034.092-.051.138-.018.05-.037.099-.052.15-.014.046-.024.093-.036.14-.013.052-.028.104-.038.157-.011.054-.017.108-.025.162-.007.047-.016.093-.021.14a3.415 3.415 0 0 0-.015.303V85.51c0 .102.006.203.015.304.005.046.014.091.02.138.008.055.015.11.026.164.01.053.024.104.037.155.012.047.023.095.037.142.015.05.034.098.052.148.017.047.032.094.051.14.019.046.042.09.063.135.023.048.044.096.069.143.023.042.049.083.074.124.027.046.053.093.083.138.03.045.064.088.097.132.028.038.055.076.085.113a2.906 2.906 0 0 0 .207.229l9.383 9.372a3.13 3.13 0 0 0 4.423 0 3.12 3.12 0 0 0 0-4.418l-4.044-4.039h21.183A3.127 3.127 0 0 0 103 85.506a3.126 3.126 0 0 0-3.128-3.124H78.689l4.044-4.039z" fill="#FFF"/></svg>