<svg xmlns="http://www.w3.org/2000/svg" width="171" height="171" viewBox="0 0 171 171"><path d="M85.5 0C132.72 0 171 38.28 171 85.5S132.72 171 85.5 171 0 132.72 0 85.5 38.28 0 85.5 0z" fill="#F6F3F3"/><path d="M85.5 19c36.727 0 66.5 29.773 66.5 66.5 0 36.727-29.773 66.5-66.5 66.5C48.773 152 19 122.227 19 85.5 19 48.773 48.773 19 85.5 19z" fill="#EEEBEB"/><path d="M85.5 39c25.681 0 46.5 20.819 46.5 46.5S111.181 132 85.5 132 39 111.181 39 85.5 59.819 39 85.5 39z" fill="#F7406B"/><path d="M103.763 83.891a18.117 18.117 0 0 0-.774-3.88l2.977-1.231a21.21 21.21 0 0 1 1.031 5.111h-3.234zm-4.217-10.126l2.277-2.273a21.523 21.523 0 0 1 2.906 4.322l-2.98 1.233a18.372 18.372 0 0 0-2.203-3.282zm-4.35-3.774V66.31a21.684 21.684 0 0 1 4.347 2.916L97.266 71.5a18.535 18.535 0 0 0-2.07-1.509zm3.869 11.866L86.142 92.938a.947.947 0 0 1-1.233 0L71.985 81.857c-.666-.571-.261-1.662.616-1.662h4.612a.946.946 0 0 0 .946-.944V65.295a21.42 21.42 0 0 1 7.366-1.303c2.588 0 5.067.463 7.367 1.303v13.956c0 .521.423.944.946.944h4.611c.878 0 1.282 1.091.616 1.662zm-31.857 3.64c0 10.086 8.217 18.291 18.317 18.291 4.472 0 8.571-1.613 11.755-4.282l2.274 2.27c-3.773 3.247-8.67 5.225-14.029 5.225-11.874 0-21.533-9.646-21.533-21.504 0-8.383 4.838-15.641 11.862-19.187v3.681c-5.181 3.235-8.646 8.967-8.646 15.506zm37.519 9.681a21.569 21.569 0 0 1-2.899 4.327l-2.274-2.27a18.36 18.36 0 0 0 2.2-3.287l2.973 1.23zm-.967-8.075h3.217a21.344 21.344 0 0 1-1.009 5.111l-2.971-1.229c.392-1.242.646-2.542.763-3.882z" fill="#FFF"/></svg>