<svg xmlns="http://www.w3.org/2000/svg" width="431" height="431" viewBox="0 0 431 431"><path d="M215.5 0C334.517 0 431 96.483 431 215.5S334.517 431 215.5 431 0 334.517 0 215.5 96.483 0 215.5 0z" fill="#F1F1F1"/><path d="M216 48c92.784 0 168 75.216 168 168s-75.216 168-168 168S48 308.784 48 216 123.216 48 216 48z" fill="#E9E9E9"/><path d="M235.109 235.965a5.187 5.187 0 0 0-.651-2.067l-47.107-82.904c-1.389-2.436-4.526-3.586-7.371-2.698-2.849.9-4.55 3.565-4.009 6.282l18.358 91.934c.143.728.446 1.383.861 1.978.178.784.394 1.57.684 2.347 2.957 7.87 11.045 13.168 20.119 13.168 2.346 0 4.676-.352 6.905-1.057 5.375-1.687 9.71-5.19 12.207-9.873 2.501-4.679 2.856-9.965 1.014-14.893a17.47 17.47 0 0 0-1.01-2.217zm-19.107-81.645c-3.36 0-6.077 2.492-6.077 5.564 0 3.073 2.717 5.567 6.077 5.567 48.44 0 87.84 36.115 87.84 80.504 0 3.069 2.729 5.563 6.085 5.563 3.359 0 6.079-2.494 6.079-5.563-.002-50.534-44.864-91.635-100.004-91.635zm-62.845 20.345c-23.612 17.5-37.159 43.481-37.159 71.29 0 3.071 2.72 5.566 6.08 5.566 3.366 0 6.084-2.495 6.084-5.566 0-24.426 11.897-47.251 32.643-62.624 2.617-1.934 3.014-5.443.907-7.834-2.107-2.392-5.937-2.766-8.555-.832z" fill="#747474" opacity=".149"/></svg>