<svg xmlns="http://www.w3.org/2000/svg" width="450" height="399" viewBox="0 0 450 399"><g opacity=".2"><path d="M68 137c11.701 2.291 24.182 6.418 35 10 10.88 3.603 21.116 3.406 32 7 6.213 2.051 23.445 9.194 32 7 15.387-3.945 33.068-8.364 48-13l20-4c5.535-1.722 21.998-8.858 29-7 19.244 5.107 41.514 10.36 61 16 10.744 3.11 21.164 4.069 31 7l9 1c2.748 1.476 4.592 12.283 6 16 3.381 8.921 7.384 19.311 11 28 1.76 4.23 1.236 7.772 3 12 11.257 26.985 19.746 57.014 31 84 4.025 9.653 4.961 19.329 9 29 4.313 10.327 8.706 22.696 13 33 2.162 5.188 1.835 9.814 4 15 2.656 6.363 6.283 13.693 8 21h-4c-4.961-3.417-13.358-1.287-20-3-13.662-3.522-30.396-4.48-44-8h-7l-82-14c-4.817.602-12.443 2.771-17 4l-12 1c-9.133 2.399-20.871 3.584-30 6l-24 3c-19.887 5.178-42.735 6.833-63 11-3.291.677-7.687-1.392-10-2-10.616-2.788-22.184-2.408-32-5l-30-4c-23.832-6.317-51.032-9.067-75-14v-2c4.105-5.285 3.617-14.015 6-21 5.33-15.62 8.381-32.5 14-49 13.051-38.328 22.051-79.71 35-118 5.37-15.879 7.122-31.908 13-47z" fill="#B9B9B9"/><path d="M222.529 5.005c-58.815 0-106.664 47.6-106.664 106.11 0 15.262 3.14 29.832 9.328 43.311 26.669 58.054 77.801 119.344 92.84 136.744a5.952 5.952 0 0 0 8.997 0c15.036-17.398 66.164-78.682 92.841-136.744 6.189-13.479 9.326-28.049 9.326-43.311-.005-58.51-47.855-106.11-106.668-106.11zm-.001 183.896c-43.042 0-78.064-34.838-78.064-77.658 0-42.824 35.022-77.664 78.064-77.664 43.041 0 78.062 34.84 78.062 77.664 0 42.82-35.021 77.658-78.062 77.658z" fill="#FFF"/><path d="M222.528 188.901c-43.042 0-78.064-34.838-78.064-77.658 0-42.824 35.022-77.664 78.064-77.664 43.041 0 78.062 34.84 78.062 77.664 0 42.82-35.021 77.658-78.062 77.658z" fill="#DCDCDC"/><path d="M249 163c6.446 2.927 17.475 4.787 24 7l.413.059c-13.677 11.727-31.457 18.842-50.885 18.842-18.765 0-36.002-6.625-49.48-17.642 6.623-4.272 19.899-4.376 27.952-7.259 4.493-1.609 5.123-5.801 10-7 .345-13.302-8.231-16.07-10-30l-5-1c-.961-1.778-1.3-1.641-2-4-3.966-4.66.49-8.157 0-13-.539-5.327-5.854-14.833-3-23 .766-2.193 4.191-4.273 5-6v-6c1.401-4.287 4.691-6.75 7-10h1v2c-1.351 1.313-2.148 3.194-3 5h1c5.063-7.635 17.844-11.633 30-12v1c-3.167.349-3.807.989-6 2v1c10.162-.183 16.978 1.369 24 3v1c-.634.931-2.203.257-1 1 4.938 5.283 10.406 7.037 11 17h-1c-.633-1.273-1.048-2.087-2-3 .289 4.933 1.532 7.019-1 10-.625-1.868-.074-.907-1-2v8c-5.944 8.46 4.711 16.181 0 23-1.915 5.762-6.291 4.188-8 7l-1 8c-1.216 2.891-5.056 6.223-6 9l1 12c4.509.984 4.482 4.403 8 6z" fill="#E7E7E7"/></g></svg>