<svg xmlns="http://www.w3.org/2000/svg" width="171" height="171" viewBox="0 0 171 171"><path d="M85.5 0C132.72 0 171 38.28 171 85.5S132.72 171 85.5 171 0 132.72 0 85.5 38.28 0 85.5 0z" fill="#F6F3F3"/><path d="M85.5 19c36.727 0 66.5 29.773 66.5 66.5 0 36.727-29.773 66.5-66.5 66.5C48.773 152 19 122.227 19 85.5 19 48.773 48.773 19 85.5 19z" fill="#EEEBEB"/><path d="M85.5 39c25.681 0 46.5 20.819 46.5 46.5S111.181 132 85.5 132 39 111.181 39 85.5 59.819 39 85.5 39z" fill="#F7406B"/><path d="M85.5 98.007c-2.967 0-15.505-14.788-15.505-23.042 0-8.255 6.955-14.971 15.505-14.971s15.506 6.716 15.506 14.971c0 8.254-12.538 23.042-15.506 23.042zm0-31.118c-4.612 0-8.365 3.622-8.365 8.076 0 4.453 3.753 8.076 8.365 8.076 4.613 0 8.365-3.623 8.365-8.076 0-4.454-3.752-8.076-8.365-8.076zM87.658 106.989l5.979 5.988a1.18 1.18 0 1 1-1.669 1.671l-5.978-5.988-5.979 5.988a1.179 1.179 0 0 1-1.668 0 1.182 1.182 0 0 1 0-1.671l5.978-5.988-5.978-5.988a1.182 1.182 0 0 1 0-1.671 1.179 1.179 0 0 1 1.668 0l5.979 5.988 5.978-5.988a1.18 1.18 0 1 1 1.669 1.671l-5.979 5.988z" fill="#FFF"/></svg>