<svg xmlns="http://www.w3.org/2000/svg" width="171" height="171" viewBox="0 0 171 171"><path d="M85.5 0C132.72 0 171 38.28 171 85.5S132.72 171 85.5 171 0 132.72 0 85.5 38.28 0 85.5 0z" fill="#F6F3F3"/><path d="M85.5 19c36.727 0 66.5 29.773 66.5 66.5 0 36.727-29.773 66.5-66.5 66.5C48.773 152 19 122.227 19 85.5 19 48.773 48.773 19 85.5 19z" fill="#EEEBEB"/><path d="M85.5 39c25.681 0 46.5 20.819 46.5 46.5S111.181 132 85.5 132 39 111.181 39 85.5 59.819 39 85.5 39z" fill="#F7406B"/><path d="M71 73.11v-3.87c0-.68.569-1.231 1.271-1.231h8.724v-1.598c0-.227.19-.411.424-.411h9.161c.235 0 .424.184.424.411v1.598h8.725c.702 0 1.271.551 1.271 1.231v3.87H71zm26.479 30.009c-.046 1.051-.938 1.881-2.024 1.881H76.544c-1.085 0-1.978-.83-2.023-1.881L73.17 75.496h25.659l-1.35 27.623zM81.722 82.357a.81.81 0 0 0-.823-.797h-1.316a.81.81 0 0 0-.822.797v15.782c0 .44.368.797.822.797h1.316a.81.81 0 0 0 .823-.797V82.357zm5.759 0a.81.81 0 0 0-.823-.797h-1.316a.81.81 0 0 0-.823.797v15.782c0 .44.369.797.823.797h1.316a.81.81 0 0 0 .823-.797V82.357zm5.758 0a.81.81 0 0 0-.823-.797H91.1a.81.81 0 0 0-.822.797v15.782c0 .44.368.797.822.797h1.316a.81.81 0 0 0 .823-.797V82.357z" fill="#FFF"/></svg>