<svg xmlns="http://www.w3.org/2000/svg" width="227" height="177" viewBox="0 0 227 177"><path d="M127.5 0C174.72 0 213 38.28 213 85.5S174.72 171 127.5 171 42 132.72 42 85.5 80.28 0 127.5 0z" fill="#F6F3F3"/><path d="M127.5 19c36.727 0 66.5 29.773 66.5 66.5 0 36.727-29.773 66.5-66.5 66.5C90.773 152 61 122.227 61 85.5 61 48.773 90.773 19 127.5 19z" fill="#EEEBEB"/><path d="M127.5 39c25.681 0 46.5 20.819 46.5 46.5S153.181 132 127.5 132 81 111.181 81 85.5 101.819 39 127.5 39z" fill="#F7406B"/><path d="M174.5 13c7.456 0 13.5 6.044 13.5 13.5S181.956 40 174.5 40 161 33.956 161 26.5 167.044 13 174.5 13z" fill="#39BC9D"/><path d="M174.5 33.906c-1.084 0-5.663-5.423-5.663-8.45 0-3.028 2.54-5.49 5.663-5.49s5.663 2.462 5.663 5.49c0 3.027-4.579 8.45-5.663 8.45zm0-11.412c-1.685 0-3.055 1.328-3.055 2.962 0 1.633 1.37 2.961 3.055 2.961s3.055-1.328 3.055-2.961c0-1.634-1.37-2.962-3.055-2.962zM127.5 106.999c-3.545 0-18.523-17.51-18.523-27.284 0-9.774 8.31-17.725 18.523-17.725 10.214 0 18.523 7.951 18.523 17.725 0 9.774-14.978 27.284-18.523 27.284zm0-36.846c-5.51 0-9.993 4.289-9.993 9.562s4.483 9.563 9.993 9.563c5.51 0 9.993-4.29 9.993-9.563 0-5.273-4.483-9.562-9.993-9.562z" fill="#FFF"/><path d="M13.5 40C20.956 40 27 46.044 27 53.5S20.956 67 13.5 67 0 60.956 0 53.5 6.044 40 13.5 40z" fill="#39BC9D"/><path d="M13.5 60.906c-1.084 0-5.663-5.423-5.663-8.45 0-3.028 2.54-5.49 5.663-5.49s5.663 2.462 5.663 5.49c0 3.027-4.579 8.45-5.663 8.45zm0-11.412c-1.685 0-3.055 1.328-3.055 2.962 0 1.633 1.37 2.961 3.055 2.961s3.055-1.328 3.055-2.961c0-1.634-1.37-2.962-3.055-2.962z" fill="#FFF"/><path d="M213.5 150c7.456 0 13.5 6.044 13.5 13.5s-6.044 13.5-13.5 13.5-13.5-6.044-13.5-13.5 6.044-13.5 13.5-13.5z" fill="#39BC9D"/><path d="M213.5 170.906c-1.084 0-5.663-5.423-5.663-8.45 0-3.028 2.54-5.49 5.663-5.49s5.663 2.462 5.663 5.49c0 3.027-4.579 8.45-5.663 8.45zm0-11.412c-1.685 0-3.055 1.328-3.055 2.962 0 1.633 1.37 2.961 3.055 2.961s3.055-1.328 3.055-2.961c0-1.634-1.37-2.962-3.055-2.962z" fill="#FFF"/></svg>