<svg xmlns="http://www.w3.org/2000/svg" width="227" height="177" viewBox="0 0 227 177"><path d="M127.5 0C174.72 0 213 38.28 213 85.5S174.72 171 127.5 171 42 132.72 42 85.5 80.28 0 127.5 0z" fill="#F6F3F3"/><path d="M127.5 19c36.727 0 66.5 29.773 66.5 66.5 0 36.727-29.773 66.5-66.5 66.5C90.773 152 61 122.227 61 85.5 61 48.773 90.773 19 127.5 19z" fill="#EEEBEB"/><path d="M127.5 39c25.681 0 46.5 20.819 46.5 46.5S153.181 132 127.5 132 81 111.181 81 85.5 101.819 39 127.5 39z" fill="#F7406B"/><path d="M132.969 91.741a1.323 1.323 0 0 0-.169-.534l-12.25-21.433c-.362-.63-1.177-.927-1.917-.698-.741.233-1.184.922-1.043 1.624l4.774 23.767c.037.189.116.358.224.512.047.202.103.406.178.607.769 2.034 2.872 3.404 5.232 3.404.61 0 1.216-.091 1.796-.273 1.398-.437 2.525-1.342 3.174-2.553a4.598 4.598 0 0 0 .001-4.423zM128 70.634c-.873 0-1.58.644-1.58 1.438 0 .795.707 1.439 1.58 1.439 12.598 0 22.844 9.337 22.844 20.813 0 .793.71 1.438 1.582 1.438.874 0 1.581-.645 1.581-1.438 0-13.065-11.667-23.69-26.007-23.69zm-16.343 5.259c-6.14 4.525-9.663 11.241-9.663 18.431 0 .793.707 1.438 1.581 1.438.875 0 1.582-.645 1.582-1.438 0-6.315 3.094-12.216 8.489-16.19.681-.5.784-1.407.236-2.026-.548-.618-1.544-.714-2.225-.215z" fill="#FFF"/><path d="M174.5 13c7.456 0 13.5 6.044 13.5 13.5S181.956 40 174.5 40 161 33.956 161 26.5 167.044 13 174.5 13z" fill="#39BC9D"/><path d="M174.5 33.906c-1.084 0-5.663-5.423-5.663-8.45 0-3.028 2.54-5.49 5.663-5.49s5.663 2.462 5.663 5.49c0 3.027-4.579 8.45-5.663 8.45zm0-11.412c-1.685 0-3.055 1.328-3.055 2.962 0 1.633 1.37 2.961 3.055 2.961s3.055-1.328 3.055-2.961c0-1.634-1.37-2.962-3.055-2.962z" fill="#FFF"/><path d="M13.5 40C20.956 40 27 46.044 27 53.5S20.956 67 13.5 67 0 60.956 0 53.5 6.044 40 13.5 40z" fill="#39BC9D"/><path d="M13.5 60.906c-1.084 0-5.663-5.423-5.663-8.45 0-3.028 2.54-5.49 5.663-5.49s5.663 2.462 5.663 5.49c0 3.027-4.579 8.45-5.663 8.45zm0-11.412c-1.685 0-3.055 1.328-3.055 2.962 0 1.633 1.37 2.961 3.055 2.961s3.055-1.328 3.055-2.961c0-1.634-1.37-2.962-3.055-2.962z" fill="#FFF"/><path d="M213.5 150c7.456 0 13.5 6.044 13.5 13.5s-6.044 13.5-13.5 13.5-13.5-6.044-13.5-13.5 6.044-13.5 13.5-13.5z" fill="#39BC9D"/><path d="M213.5 170.906c-1.084 0-5.663-5.423-5.663-8.45 0-3.028 2.54-5.49 5.663-5.49s5.663 2.462 5.663 5.49c0 3.027-4.579 8.45-5.663 8.45zm0-11.412c-1.685 0-3.055 1.328-3.055 2.962 0 1.633 1.37 2.961 3.055 2.961s3.055-1.328 3.055-2.961c0-1.634-1.37-2.962-3.055-2.962z" fill="#FFF"/></svg>