<svg xmlns="http://www.w3.org/2000/svg" width="227" height="177" viewBox="0 0 227 177"><path d="M127.5 0C174.72 0 213 38.28 213 85.5S174.72 171 127.5 171 42 132.72 42 85.5 80.28 0 127.5 0z" fill="#F6F3F3"/><path d="M127.5 19c36.727 0 66.5 29.773 66.5 66.5 0 36.727-29.773 66.5-66.5 66.5C90.773 152 61 122.227 61 85.5 61 48.773 90.773 19 127.5 19z" fill="#EEEBEB"/><path d="M127.5 39c25.681 0 46.5 20.819 46.5 46.5S153.181 132 127.5 132 81 111.181 81 85.5 101.819 39 127.5 39z" fill="#F7406B"/><path d="M137.808 96.404a.79.79 0 0 1-1.149 0 74.618 74.618 0 0 1-6.27-7.695c-3.162-4.472-6.932-11.029-6.932-16.873 0-7.633 6.18-13.843 13.776-13.843s13.776 6.21 13.776 13.843c0 5.84-3.765 12.393-6.924 16.862a75.227 75.227 0 0 1-6.277 7.706zm-.575-33.202c-4.638 0-8.411 3.792-8.411 8.453 0 4.659 3.773 8.454 8.411 8.454s8.411-3.795 8.411-8.454c0-4.661-3.773-8.453-8.411-8.453zM123.8 92.609l-20.761-2.283L106 80.024a1.393 1.393 0 0 1 1.337-1.01h15.43c.715 1.993 1.648 3.941 2.662 5.76l-1.629 7.835zm-2.786 13.397h-20.632c-.437 0-.849-.206-1.111-.557a1.404 1.404 0 0 1-.225-1.228l2.818-9.806 21.078 2.318-1.928 9.273zm7.674-16.083a73.516 73.516 0 0 0 2.649 3.514l-3.37-.37.669-3.218.052.074zm17.842-1.088l1.862 6.478-6.235-.686a75.156 75.156 0 0 0 3.629-4.715c.245-.347.494-.707.744-1.077zm3.113 10.833l1.284 4.465c.053.148.082.309.082.476 0 .771-.622 1.397-1.391 1.397h-.002-24.339l1.833-8.815 22.533 2.477z" fill="#FFF"/><path d="M174.5 13c7.456 0 13.5 6.044 13.5 13.5S181.956 40 174.5 40 161 33.956 161 26.5 167.044 13 174.5 13z" fill="#39BC9D"/><path d="M174.5 33.906c-1.084 0-5.663-5.423-5.663-8.45 0-3.028 2.54-5.49 5.663-5.49s5.663 2.462 5.663 5.49c0 3.027-4.579 8.45-5.663 8.45zm0-11.412c-1.685 0-3.055 1.328-3.055 2.962 0 1.633 1.37 2.961 3.055 2.961s3.055-1.328 3.055-2.961c0-1.634-1.37-2.962-3.055-2.962z" fill="#FFF"/><path d="M13.5 40C20.956 40 27 46.044 27 53.5S20.956 67 13.5 67 0 60.956 0 53.5 6.044 40 13.5 40z" fill="#39BC9D"/><path d="M13.5 60.906c-1.084 0-5.663-5.423-5.663-8.45 0-3.028 2.54-5.49 5.663-5.49s5.663 2.462 5.663 5.49c0 3.027-4.579 8.45-5.663 8.45zm0-11.412c-1.685 0-3.055 1.328-3.055 2.962 0 1.633 1.37 2.961 3.055 2.961s3.055-1.328 3.055-2.961c0-1.634-1.37-2.962-3.055-2.962z" fill="#FFF"/><path d="M213.5 150c7.456 0 13.5 6.044 13.5 13.5s-6.044 13.5-13.5 13.5-13.5-6.044-13.5-13.5 6.044-13.5 13.5-13.5z" fill="#39BC9D"/><path d="M213.5 170.906c-1.084 0-5.663-5.423-5.663-8.45 0-3.028 2.54-5.49 5.663-5.49s5.663 2.462 5.663 5.49c0 3.027-4.579 8.45-5.663 8.45zm0-11.412c-1.685 0-3.055 1.328-3.055 2.962 0 1.633 1.37 2.961 3.055 2.961s3.055-1.328 3.055-2.961c0-1.634-1.37-2.962-3.055-2.962z" fill="#FFF"/></svg>