<svg xmlns="http://www.w3.org/2000/svg" width="171" height="171" viewBox="0 0 171 171"><path d="M85.5 0C132.72 0 171 38.28 171 85.5S132.72 171 85.5 171 0 132.72 0 85.5 38.28 0 85.5 0z" fill="#F6F3F3"/><path d="M85.5 19c36.727 0 66.5 29.773 66.5 66.5 0 36.727-29.773 66.5-66.5 66.5C48.773 152 19 122.227 19 85.5 19 48.773 48.773 19 85.5 19z" fill="#EEEBEB"/><path d="M85.5 39c25.681 0 46.5 20.819 46.5 46.5S111.181 132 85.5 132 39 111.181 39 85.5 59.819 39 85.5 39z" fill="#F7406B"/><path d="M103.644 95.017L88.792 69.718c-1.805-3.072-4.758-3.072-6.56 0l-14.851 25.3c-1.806 3.078-.531 5.588 2.827 5.588v-.001h30.607c3.361 0 4.634-2.512 2.829-5.588zm-16.245 1.311h-3.755v-3.916h3.755v3.916zm.144-15.601l-.961 10.344h-2.127v.002l-.978-10.341v-4.786h4.065v4.781h.001z" fill="#FFF"/></svg>