<svg xmlns="http://www.w3.org/2000/svg" width="245" height="205" viewBox="0 0 245 205"><path d="M244.997 157.589s-5.483 10.868-32.239 16.073c-.456-25.578-2.663-42.988-12.265-55.948-5.554-7.497-13.096-12.62-21.386-16.299a35.19 35.19 0 0 0 1.577.038c13.048 0 18.647-7.022 18.647-7.022 39.769 7.066 44.965 18.227 45.596 57.398.04 2.523.062 2.942.073 2.708-.003.664-.003 1.636-.003 3.052zm-64.312-66.281c-5.599 0-10.878-1.626-15.536-4.49 6.777-10.565 10.458-23.325 10.458-36.689 0-11.804-.92-26.592-7.629-38.766 3.617-.966 7.821-1.484 12.707-1.484 29.046 0 34.052 18.229 34.052 40.715 0 22.485-15.246 40.714-34.052 40.714zm-58.185 8.95c-23.155 0-41.927-22.444-41.928-50.129C80.572 22.443 86.735 0 122.5 0c35.763 0 41.927 22.443 41.927 50.129 0 27.685-18.773 50.129-41.927 50.129zm-58.186-8.95c-18.806 0-34.051-18.229-34.051-40.714 0-22.486 5.004-40.714 34.051-40.714 4.887 0 9.091.517 12.707 1.483-6.708 12.174-7.628 26.962-7.628 38.766 0 13.365 3.681 26.125 10.459 36.69-4.661 2.863-9.939 4.489-15.538 4.489zm0 10.145c.541 0 1.064-.016 1.577-.039-8.29 3.679-15.831 8.803-21.384 16.299-9.603 12.961-11.809 30.371-12.267 55.948C5.486 168.456.002 157.588.002 157.588L0 154.536c.01.234.031-.184.072-2.707.63-39.172 5.828-50.333 45.595-57.398 0 0 5.599 7.022 18.647 7.022zM43.43 173.209c.893-46.961 7.682-60.501 56.113-69.105 0 0 6.893 8.646 22.958 8.646 16.065 0 22.959-8.646 22.959-8.646 48.965 8.7 55.364 22.442 56.14 70.672.049 3.084.076 3.618.089 3.342l-.002 3.748S190.028 205 122.502 205c-67.527 0-79.185-23.134-79.185-23.134 0-2.69-.004-4.233-.006-5.067.013.446.047.244.119-3.59z" fill="#E9E9E9"/></svg>