<svg xmlns="http://www.w3.org/2000/svg" width="17" height="17" viewBox="0 0 17 17"><path d="M16.279 11.607H5.34c-.943 0-.943-1.566 0-1.566h10.939c.943 0 .943 1.566 0 1.566zm0-4.69H5.34c-.943 0-.943-1.567 0-1.567h10.939c.943 0 .943 1.567 0 1.567zm0-4.962H5.34c-.943 0-.943-1.567 0-1.567h10.939c.943 0 .943 1.567 0 1.567zm-13.613.456H.63c-.075 0-.134-.048-.134-.107V.102c0-.06.06-.108.134-.108h2.036c.074 0 .134.048.134.108v2.202c0 .059-.06.107-.134.107zm-.124 2.473c.074 0 .133.048.133.107v2.203c0 .058-.06.107-.133.107H.505c-.074 0-.134-.049-.134-.107V4.991c0-.059.061-.107.134-.107h2.037zM.505 9.64h2.037c.074 0 .133.048.133.107v2.203c0 .058-.06.107-.133.107H.505c-.074 0-.134-.049-.134-.107V9.747c0-.059.061-.107.134-.107zm0 4.938h2.037c.074 0 .133.048.133.108v2.201c0 .06-.06.108-.133.108H.505c-.074 0-.134-.048-.134-.108v-2.201c0-.06.061-.108.134-.108zm4.835.425h10.939c.943 0 .943 1.567 0 1.567H5.34c-.943 0-.943-1.567 0-1.567z" fill="#3E3E3E"/></svg>