<svg xmlns="http://www.w3.org/2000/svg" width="22" height="19" viewBox="0 0 22 19"><path d="M20.894.08a.372.372 0 0 0-.34-.064l-6.629 1.988L7.294.016l-.02-.003a.352.352 0 0 0-.181 0l-.021.003L.305 2.037A.423.423 0 0 0 0 2.425v16.171c0 .127.079.247.18.323a.42.42 0 0 0 .365.064l6.637-1.987 6.635 1.987c.011.004.023.006.034.008l.019.004a.405.405 0 0 0 .12 0l.019-.004a.198.198 0 0 0 .033-.008l6.726-2.021c.169-.051.264-.208.264-.388V.404c0-.127-.038-.247-.138-.324zM6.746 16.272L.794 18.055V2.728L6.746.944v15.328zm6.746 1.783L7.54 16.272V.944l5.952 1.784v15.327zm6.747-1.783l-5.953 1.783V2.728L20.239.944v15.328z" fill="#3E3E3E"/></svg>