<svg xmlns="http://www.w3.org/2000/svg" width="32" height="32" viewBox="0 0 32 32"><path d="M16 3c7.179 0 13 5.82 13 13s-5.821 13-13 13C8.82 29 3 23.18 3 16S8.82 3 16 3z" fill="#39BC9D"/><path d="M16 1.5c8.008 0 14.5 6.492 14.5 14.5S24.008 30.5 16 30.5 1.5 24.008 1.5 16 7.992 1.5 16 1.5z" fill="none" stroke="#FFF" stroke-width="3" stroke-linejoin="round"/><path d="M21.95 18.622l-5.099-8.62c-.619-1.046-1.633-1.046-2.252 0l-5.097 8.62c-.62 1.049-.182 1.904.97 1.904v-.001h10.507c1.154 0 1.59-.855.971-1.903zm-5.577.447h-1.289v-1.335h1.289v1.335zm.05-5.316l-.33 3.524h-.73v.001l-.336-3.523v-1.631h1.395v1.629h.001z" fill="#FFF"/></svg>