<svg xmlns="http://www.w3.org/2000/svg" width="32" height="32" viewBox="0 0 32 32"><path d="M16 3c7.179 0 13 5.82 13 13s-5.821 13-13 13C8.82 29 3 23.18 3 16S8.82 3 16 3z" fill="#39BC9D"/><path d="M16 1.5c8.008 0 14.5 6.492 14.5 14.5S24.008 30.5 16 30.5 1.5 24.008 1.5 16 7.992 1.5 16 1.5z" fill="none" stroke="#FFF" stroke-width="3" stroke-linejoin="round"/><path d="M20.611 14.736h1.504v3.096l-1.498-1.271-.006-1.825zm1.646 5.258l-5.849-5.245-6.239 5.278c-1.044.883-1.523 0-1.523 0l7.762-6.836 7.511 6.803s-.454.872-1.662 0zm-.585.473v4.685s.019-.139-.404-.139h-3.769l.007-3.146s.037-.52-.56-.52h-1.597c-.505 0-.451.52-.451.52l-.006 3.156-3.849.004c-.334 0-.32.223-.32.223v-4.783l5.638-4.724 5.311 4.724zM15.374 7.599a.704.704 0 0 0-.5-1.205.704.704 0 0 0-.5.206l-2.121 2.119-.047.052-.018.024-.023.032c-.007.009-.012.02-.018.03a.736.736 0 0 0-.018.029l-.015.031-.014.031-.012.032a1.302 1.302 0 0 0-.012.034l-.008.031-.009.036-.005.036-.005.032a.796.796 0 0 0-.003.069v.002a.773.773 0 0 0 .008.099l.005.038.009.035.008.032.012.033.012.032.014.03.015.033a.26.26 0 0 1 .017.028l.019.031.022.03.019.025a.535.535 0 0 0 .045.05l.002.002 2.121 2.119a.707.707 0 0 0 1-.999l-.914-.913h4.789a.706.706 0 1 0 0-1.413H14.46l.914-.913z" fill="#FFF"/></svg>