<svg xmlns="http://www.w3.org/2000/svg" width="32" height="32" viewBox="0 0 32 32"><path d="M16 3c7.179 0 13 5.82 13 13s-5.821 13-13 13C8.82 29 3 23.18 3 16S8.82 3 16 3z" fill="#39BC9D"/><path d="M16 1.5c8.008 0 14.5 6.492 14.5 14.5S24.008 30.5 16 30.5 1.5 24.008 1.5 16 7.992 1.5 16 1.5z" fill="none" stroke="#FFF" stroke-width="3" stroke-linejoin="round"/><path d="M22.422 14.917h-.694v-1.391a.356.356 0 0 0-.36-.352H10.143a.356.356 0 0 0-.361.352v4.948c0 .194.162.352.361.352h11.225c.199 0 .36-.158.36-.352v-1.391h.694c.199 0 .36-.158.36-.353v-1.461a.356.356 0 0 0-.36-.352zm-1.689 3.029H10.711l3.243-3.893h6.779v3.893z" fill="#FFF"/></svg>