<svg xmlns="http://www.w3.org/2000/svg" width="32" height="32" viewBox="0 0 32 32"><path d="M16 3c7.179 0 13 5.82 13 13 0 7.179-5.821 13-13 13-7.18 0-13-5.821-13-13C3 8.82 8.82 3 16 3z" fill="#39BC9D"/><path d="M16 1.5c8.008 0 14.5 6.492 14.5 14.5S24.008 30.5 16 30.5 1.5 24.008 1.5 16 7.992 1.5 16 1.5z" fill="none" stroke="#FFF" stroke-width="3" stroke-linejoin="round"/><path d="M20.611 14.736h1.504v3.096l-1.498-1.271-.006-1.825zm1.646 5.258l-5.849-5.245-6.239 5.278c-1.044.883-1.523 0-1.523 0l7.762-6.836 7.511 6.803s-.454.872-1.662 0zm-.585.473v4.685s.019-.139-.404-.139h-3.769l.007-3.146s.037-.52-.56-.52h-1.597c-.505 0-.451.52-.451.52l-.006 3.156-3.849.004c-.334 0-.32.223-.32.223v-4.783l5.638-4.724 5.311 4.724zM16.625 10.835a.706.706 0 1 0 1 .999l2.121-2.119a.477.477 0 0 0 .048-.052l.018-.024.023-.031.018-.03.017-.029a.477.477 0 0 0 .016-.032l.014-.031a.383.383 0 0 0 .011-.031.279.279 0 0 0 .02-.066c.003-.012.007-.023.009-.035.003-.012.004-.025.006-.037l.004-.032a.507.507 0 0 0 .004-.068v-.001-.001a.532.532 0 0 0-.004-.069l-.004-.031c-.002-.012-.003-.025-.006-.037l-.008-.035c-.003-.011-.005-.022-.009-.032a.338.338 0 0 0-.011-.034l-.012-.032-.014-.03a.318.318 0 0 0-.033-.06l-.018-.031-.022-.03-.019-.026-.045-.049-.002-.003-2.122-2.119a.706.706 0 1 0-1 .999l.914.914H12.75a.707.707 0 1 0 0 1.412h4.789l-.914.913z" fill="#FFF"/></svg>