<svg xmlns="http://www.w3.org/2000/svg" width="32" height="32" viewBox="0 0 32 32"><path d="M16 3c7.179 0 13 5.82 13 13s-5.821 13-13 13C8.82 29 3 23.18 3 16S8.82 3 16 3z" fill="#39BC9D"/><path d="M16 1.5c8.008 0 14.5 6.492 14.5 14.5S24.008 30.5 16 30.5 1.5 24.008 1.5 16 7.992 1.5 16 1.5z" fill="none" stroke="#FFF" stroke-width="3" stroke-linejoin="round"/><path d="M17.283 14.807a.436.436 0 0 0-.053-.171L13.37 7.77a.517.517 0 0 0-.604-.223.459.459 0 0 0-.329.52l1.504 7.614c.012.06.037.114.071.164.015.065.032.13.056.194.242.652.905 1.091 1.649 1.091.192 0 .383-.03.565-.088.441-.14.796-.43 1.001-.818a1.494 1.494 0 0 0 0-1.417zm-1.566-6.762c-.275 0-.498.207-.498.461 0 .255.223.461.498.461 3.97 0 7.198 2.991 7.198 6.668 0 .254.224.46.499.46s.498-.206.498-.46c0-4.186-3.676-7.59-8.195-7.59zM10.568 9.73c-1.935 1.45-3.045 3.602-3.045 5.905 0 .254.223.461.498.461.276 0 .498-.207.498-.461 0-2.023.975-3.914 2.675-5.187a.439.439 0 0 0 .075-.649.527.527 0 0 0-.701-.069z" fill="#FFF"/></svg>