<svg xmlns="http://www.w3.org/2000/svg" width="32" height="32" viewBox="0 0 32 32"><path d="M16 3c7.179 0 13 5.82 13 13s-5.821 13-13 13C8.82 29 3 23.18 3 16S8.82 3 16 3z" fill="#39BC9D"/><path d="M16 1.5c8.008 0 14.5 6.492 14.5 14.5S24.008 30.5 16 30.5 1.5 24.008 1.5 16 7.992 1.5 16 1.5z" fill="none" stroke="#FFF" stroke-width="3" stroke-linejoin="round"/><path d="M19.773 16l-2.009-2.152.709-.759 1.3 1.392 3.428-3.662.709.759L19.773 16zm-6.106.371c-1.522 0-2.756-1.475-2.756-3.295 0-2.522 1.234-3.294 2.756-3.294 1.522 0 2.756.772 2.756 3.294 0 1.82-1.234 3.295-2.756 3.295zm-2.075.174c.61.471 1.328.72 2.075.72.747 0 1.465-.249 2.075-.72a.137.137 0 0 1 .148-.013l2.158 1.147a.702.702 0 0 1 .314.342l1.391 3.198a.722.722 0 0 1-.053.675.69.69 0 0 1-.583.323h-10.9a.69.69 0 0 1-.583-.323.722.722 0 0 1-.052-.675l1.39-3.198a.706.706 0 0 1 .314-.342l2.158-1.147a.135.135 0 0 1 .148.013z" fill="#FFF"/></svg>