<svg xmlns="http://www.w3.org/2000/svg" width="70" height="70" viewBox="0 0 70 70"><path d="M35 0c19.33 0 35 15.67 35 35S54.33 70 35 70 0 54.33 0 35 15.67 0 35 0z" fill="#39BC9D"/><path d="M55.989 46.484s-.354 1.809-3.293 2.569c-.408.105-.827.201-1.246.287-.89.184-1.787.32-2.687.42 1.116-1.167 1.386-2.314 1.426-2.521l.033-.167.007-.17c.022-.541.184-5.382-1.007-8.433a7.747 7.747 0 0 0-1.155-2.007c.11-.054.219-.112.326-.174 4.116.504 6.165 2.109 6.887 3.96.874 2.24.709 6.236.709 6.236zm-8.035-11.852a4.57 4.57 0 0 1-1.187.524c-1.213-.989-2.91-1.864-5.297-2.414 1.795-1.892 2.761-4.447 2.761-7.407 0-1.231-.102-2.353-.294-3.373a7.615 7.615 0 0 1 1.578-.15c2.494 0 5.508.865 5.508 6.899 0 3.248-1.596 4.998-3.069 5.921zm-9.516-2.142a5.536 5.536 0 0 1-5.892 0c-1.781-1.116-3.71-3.231-3.71-7.155 0-7.291 3.643-8.336 6.656-8.336s6.656 1.045 6.656 8.336c0 3.924-1.929 6.039-3.71 7.155zm-8.923.252c-2.388.55-4.085 1.425-5.298 2.414a4.55 4.55 0 0 1-1.186-.524c-1.474-.923-3.07-2.673-3.07-5.921 0-6.034 3.014-6.899 5.508-6.899.514 0 1.051.038 1.578.15a18.241 18.241 0 0 0-.293 3.373c0 2.96.965 5.515 2.761 7.407zm-6.598 3.72a7.747 7.747 0 0 0-1.155 2.007c-1.191 3.051-1.029 7.892-1.007 8.433l.007.17.033.167c.041.207.31 1.354 1.426 2.521-.9-.1-1.797-.236-2.687-.42a25.974 25.974 0 0 1-1.246-.287c-2.938-.76-3.293-2.569-3.293-2.569s-.165-3.996.709-6.236c.722-1.851 2.772-3.456 6.887-3.96.107.062.216.12.326.174zm9.098-1.971a6.95 6.95 0 0 0 6.954 0c4.973.609 7.45 2.548 8.322 4.784 1.056 2.707.857 7.536.857 7.536s-.429 2.185-3.98 3.103a35.42 35.42 0 0 1-17.352 0c-3.551-.918-3.98-3.103-3.98-3.103s-.199-4.829.857-7.536c.872-2.236 3.349-4.175 8.322-4.784z" fill="#FFF"/></svg>