<svg xmlns="http://www.w3.org/2000/svg" width="70" height="70" viewBox="0 0 70 70"><path d="M35 0c19.33 0 35 15.67 35 35S54.33 70 35 70 0 54.33 0 35 15.67 0 35 0z" fill="#F4DB49"/><path d="M47.997 47.163S46.083 51 35 51s-12.996-3.837-12.996-3.837l-.001-.84c.002.074.008.04.02-.596.146-7.788 1.26-10.034 9.209-11.461 0 0 1.131 1.434 3.768 1.434 2.637 0 3.768-1.434 3.768-1.434 8.037 1.443 9.087 3.722 9.214 11.721.008.512.013.6.015.555v.621zM35 33.628c-3.8 0-6.881-3.722-6.882-8.314C28.118 20.722 29.13 17 35 17c5.869 0 6.881 3.722 6.881 8.314 0 4.592-3.081 8.314-6.881 8.314z" fill="#FFF"/></svg>