<svg xmlns="http://www.w3.org/2000/svg" width="56" height="27" viewBox="0 0 56 27"><path fill="#fff" d="M2.02 7.93c.96 0 1.7-.29 2.25-.88.54-.59.81-1.39.81-2.42V3.36A3.4 3.4 0 0 0 4.25.98 2.84 2.84 0 0 0 2.07.11H0v7.82zm.13-6.51c.49.02.84.17 1.05.46.2.29.3.79.3 1.53v1.35c-.01.68-.12 1.16-.34 1.44-.21.28-.58.42-1.11.42h-.47v-5.2zM7.86.11H6.28v7.82h1.58zm6.65 3.7h-2.69v1.2h1.1v1.43l-.14.1c-.19.12-.44.18-.75.18-.49 0-.84-.16-1.05-.48-.22-.33-.32-.84-.32-1.56V3.27c0-.68.1-1.18.3-1.49.19-.31.5-.47.93-.47.35 0 .6.09.77.27.16.18.27.52.31 1.02h1.54c-.07-.9-.32-1.55-.75-1.97C13.33.21 12.69 0 11.84 0c-.9 0-1.59.29-2.06.87a3.87 3.87 0 0 0-.71 2.49v1.41c.02 1.06.27 1.87.77 2.43s1.2.84 2.09.84c.53 0 1.02-.09 1.46-.25.44-.17.81-.42 1.12-.75zm2.76-3.7h-1.58v7.82h1.58zm6.4 0h-5.42v1.31h1.9v6.51h1.58V1.42h1.94zm4.41 7.82h1.69L27.31.11h-1.45l-2.44 7.82h1.67l.42-1.6h2.15zm-1.5-5.71l.73 2.79h-1.46zm5.5-2.11H30.5v7.82h4.35V6.62h-2.77zm7.8 0H38.3v7.82h4.35V6.62h-2.77zm7.06 0v5.41c-.01.43-.08.73-.22.92-.14.19-.39.28-.77.28s-.64-.09-.78-.28c-.14-.19-.21-.51-.21-.95V.11h-1.59v5.37c0 .83.22 1.46.66 1.9.44.44 1.08.66 1.92.66.82 0 1.46-.22 1.9-.65.44-.43.66-1.06.67-1.87V.11zm4.17 0H49.3l1.84 3.88-1.88 3.94h1.84l1.06-2.74 1.08 2.74h1.83l-1.88-3.94L55.03.11h-1.81l-1.06 2.68zM0 12v14.93h3.01v-4.04l-.27-6.22 2.98 10.26h2.05l2.99-10.26-.28 6.22v4.04h3.02V12H9.57L6.76 22.8 3.94 12zm23.71 6.04h-4.7v-3.53h5.54V12H16v14.93h8.57v-2.5h-5.56v-3.96h4.7zm7.16 8.89c1.81 0 3.24-.56 4.28-1.68 1.03-1.11 1.55-2.65 1.55-4.62v-2.42c-.02-1.92-.55-3.44-1.58-4.55A5.44 5.44 0 0 0 30.95 12H27v14.93zM31.1 15c.93.03 1.6.32 1.99.87.39.55.58 1.52.58 2.91v2.6c-.02 1.3-.23 2.21-.65 2.74-.41.53-1.11.8-2.12.8H30V15zm10.91-3H39v14.93h3.01zm9.89 14.93h3.22L50.42 12h-2.75L43 26.93h3.19l.8-3.06h4.11zM49.39 16l1.4 5.32H48z"/></svg>