<svg xmlns="http://www.w3.org/2000/svg" width="49" height="49" viewBox="0 0 49 49"><path fill="none" stroke="#fff" stroke-miterlimit="50" stroke-width="2" d="M1 24.5a23.5 23.5 0 1 1 47 0 23.5 23.5 0 0 1-47 0z"/><path fill="#fff" d="M28.49 17h-2.11c-2.38 0-3.92 1.44-3.92 3.66v1.68h-2.13c-.18 0-.33.14-.33.31v2.44c0 .17.15.3.33.3h2.13v6.17c0 .17.15.3.33.3h2.78c.18 0 .33-.13.33-.3v-6.17h2.49c.19 0 .33-.13.33-.3l.01-2.44a.32.32 0 0 0-.1-.22.4.4 0 0 0-.24-.09H25.9v-1.43c0-.68.18-1.03 1.17-1.03h1.42c.19 0 .33-.14.33-.3v-2.27c0-.17-.14-.31-.33-.31z"/></svg>
