<svg xmlns="http://www.w3.org/2000/svg" width="48.3" height="48.3" viewBox="0 0 48.3 48.3">
	<linearGradient id="a" x1="65" x2="5" y1="5" y2="45" gradientUnits="userSpaceOnUse">
		<stop offset=".2" stop-color="#af2ea7"/>
		<stop offset=".48" stop-color="#cb3381"/>
		<stop offset="1" stop-color="#fb9e3a"/>
	</linearGradient>
	<path fill="none" stroke="#fff" stroke-miterlimit="50" stroke-width="1.3" d="M.65 24.15a23.5 23.5 0 1 1 47 0 23.5 23.5 0 0 1-47 0z"/>
	<path fill="#fff" d="M20.59 15.65a4.95 4.95 0 0 0-4.94 4.94v8.02a4.95 4.95 0 0 0 4.94 4.94h8.02a4.95 4.95 0 0 0 4.94-4.94v-8.02a4.95 4.95 0 0 0-4.94-4.94zm8.02 16.31h-8.02a3.35 3.35 0 0 1-3.35-3.35v-8.02c0-1.85 1.5-3.35 3.35-3.35h8.02c1.85 0 3.35 1.5 3.35 3.35v8.02c0 1.85-1.5 3.35-3.35 3.35z"/>
	<path fill="#fff" d="M19.65 24.26a4.61 4.61 0 1 0 9.22 0 4.61 4.61 0 0 0-9.22 0zm1.59 0a3.03 3.03 0 1 1 3.02 3.03 3.03 3.03 0 0 1-3.02-3.03zm8.57-5.61a1.17 1.17 0 0 0-.82 1.99c.22.21.52.34.82.34.31 0 .61-.13.83-.34a1.17 1.17 0 0 0 0-1.65 1.17 1.17 0 0 0-.83-.34z"/>
</svg>
