<svg xmlns="http://www.w3.org/2000/svg" width="15" height="15" viewBox="0 0 15 15"><linearGradient id="instaGr2" x1="65" x2="5" y1="5" y2="45" gradientUnits="userSpaceOnUse"><stop offset=".2" stop-color="#af2ea7"/><stop offset=".48" stop-color="#cb3381"/><stop offset="1" stop-color="#fb9e3a"/></linearGradient><path fill="url(#instaGr2)" d="M4.4.05a5.5 5.5 0 0 0-1.82.34c-.49.19-.91.45-1.32.87-.42.41-.68.83-.87 1.32A5.5 5.5 0 0 0 .05 4.4C.01 5.2 0 5.45 0 7.48c0 2.04.01 2.29.05 3.09.03.8.16 1.34.34 1.82.19.49.45.91.87 1.32.41.42.83.67 1.32.87a5.5 5.5 0 0 0 1.82.34c.8.04 1.05.05 3.09.05 2.03 0 2.29-.01 3.09-.05a5.44 5.44 0 0 0 1.81-.34c.5-.2.91-.45 1.33-.87.42-.41.67-.83.86-1.32.19-.48.31-1.02.35-1.82.04-.8.05-1.05.05-3.09 0-2.03-.01-2.28-.05-3.08a5.48 5.48 0 0 0-.35-1.82 3.54 3.54 0 0 0-.86-1.32 3.6 3.6 0 0 0-1.33-.87 5.44 5.44 0 0 0-1.81-.34C9.78.01 9.52 0 7.49 0 5.45 0 5.2.01 4.4.05zm6.11 1.34c.73.04 1.13.16 1.39.26a2.5 2.5 0 0 1 1.43 1.42c.1.26.22.66.25 1.39.04.79.05 1.03.05 3.02 0 2-.01 2.24-.05 3.03a4.21 4.21 0 0 1-.25 1.39 2.5 2.5 0 0 1-1.43 1.42c-.26.1-.66.22-1.39.26-.79.03-1.02.04-3.02.04s-2.24-.01-3.03-.04a4.42 4.42 0 0 1-1.39-.26c-.35-.14-.6-.3-.86-.56a2.37 2.37 0 0 1-.56-.86c-.1-.27-.22-.66-.26-1.39-.03-.79-.04-1.03-.04-3.03 0-1.99.01-2.23.04-3.02.04-.73.16-1.13.26-1.39.14-.35.3-.6.56-.86.26-.26.51-.42.86-.56.27-.1.66-.22 1.39-.26.79-.03 1.03-.04 3.03-.04 2 0 2.23.01 3.02.04z"/><path fill="url(#instaGr2)" d="M5.35 7.84a2.5 2.5 0 1 1 5 .02 2.5 2.5 0 0 1-5-.02zM4 7.84a3.85 3.85 0 1 0 7.7 0 3.85 3.85 0 0 0-7.7 0zm8.8-3.94a.9.9 0 0 1-.9.9.9.9 0 0 1-.9-.9c0-.5.4-.9.9-.9.49 0 .9.4.9.9"/></svg>
