<svg width="239" height="35" viewBox="0 0 239 35" xmlns="http://www.w3.org/2000/svg"><title>logo</title><g fill="#FEFEFE" fill-rule="evenodd"><path d="M16.292.658h10.202V18.9c0 3.83-.333 6.745-1 8.744-.667 1.998-2.008 3.692-4.022 5.081-2.016 1.389-4.596 2.083-7.742 2.083-3.325 0-5.903-.457-7.73-1.374-1.828-.917-3.24-2.255-4.236-4.02C.768 27.651.179 25.471 0 22.875l9.73-1.352c.015 1.481.142 2.58.383 3.298a3.58 3.58 0 0 0 1.213 1.742c.39.29.943.433 1.662.433 1.139 0 1.974-.43 2.506-1.292.532-.863.798-2.314.798-4.359V.658zM47.396 21.195c-.164-1.64-.597-2.815-1.3-3.525-.703-.709-1.628-1.065-2.774-1.065-1.323 0-2.38.537-3.172 1.607-.505.668-.826 1.663-.962 2.983h8.208zm8.474 4.069H39.167c.15 1.363.512 2.378 1.086 3.045.804.96 1.854 1.44 3.151 1.44.819 0 1.597-.21 2.334-.626.45-.264.934-.73 1.453-1.398l8.209.772c-1.256 2.226-2.771 3.82-4.545 4.789-1.773.965-4.318 1.449-7.635 1.449-2.879 0-5.144-.416-6.796-1.242-1.65-.827-3.019-2.142-4.104-3.942-1.084-1.802-1.627-3.92-1.627-6.354 0-3.462 1.088-6.265 3.265-8.406 2.177-2.142 5.182-3.213 9.017-3.213 3.111 0 5.567.48 7.368 1.44a9.615 9.615 0 0 1 4.115 4.172c.942 1.822 1.412 4.193 1.412 7.114v.96zM69.12 3.65v8.429h4.585v6.216H69.12v7.851c0 .943.088 1.567.266 1.873.272.473.75.707 1.433.707.614 0 1.474-.18 2.579-.542l.613 5.863c-2.06.458-3.984.688-5.772.688-2.074 0-3.603-.27-4.585-.814-.982-.54-1.709-1.362-2.18-2.467-.47-1.106-.706-2.893-.706-5.366v-7.793h-3.07V12.08h3.07V8.011l8.352-4.36zM76.124 23.126l9.686-.618c.21 1.604.636 2.825 1.281 3.665 1.048 1.36 2.546 2.038 4.494 2.038 1.453 0 2.574-.348 3.36-1.042.786-.696 1.179-1.5 1.179-2.416 0-.871-.374-1.65-1.123-2.336-.748-.689-2.487-1.336-5.214-1.948-4.464-1.023-7.648-2.382-9.55-4.076-1.918-1.695-2.877-3.855-2.877-6.482 0-1.724.491-3.355 1.472-4.89.981-1.534 2.457-2.74 4.428-3.618C85.229.525 87.93.087 91.36.087c4.21 0 7.418.798 9.629 2.392 2.21 1.596 3.524 4.135 3.945 7.615l-9.596.572c-.256-1.51-.79-2.61-1.608-3.297-.816-.687-1.943-1.03-3.381-1.03-1.182 0-2.075.255-2.674.767-.599.512-.898 1.133-.898 1.866 0 .535.246 1.016.74 1.443.48.443 1.618.857 3.417 1.237 4.449.977 7.636 1.966 9.56 2.966 1.926 1 3.326 2.24 4.203 3.722.876 1.481 1.315 3.137 1.315 4.97 0 2.153-.584 4.137-1.753 5.954-1.168 1.818-2.802 3.196-4.9 4.134-2.097.939-4.74 1.41-7.931 1.41-5.603 0-9.483-1.102-11.64-3.298-2.157-2.201-3.38-4.994-3.664-8.384M125.251 21.195c-.163-1.64-.598-2.815-1.299-3.525-.704-.709-1.628-1.065-2.775-1.065-1.322 0-2.381.537-3.172 1.607-.506.668-.826 1.663-.962 2.983h8.208zm8.474 4.069h-16.703c.15 1.363.512 2.378 1.086 3.045.805.96 1.854 1.44 3.151 1.44.82 0 1.597-.21 2.334-.626.45-.264.935-.73 1.454-1.398l8.207.772c-1.255 2.226-2.77 3.82-4.543 4.789-1.774.965-4.32 1.449-7.635 1.449-2.88 0-5.146-.416-6.796-1.242-1.652-.827-3.02-2.142-4.103-3.942-1.086-1.802-1.629-3.92-1.629-6.354 0-3.462 1.088-6.265 3.265-8.406 2.177-2.142 5.181-3.213 9.017-3.213 3.111 0 5.568.48 7.37 1.44 1.8.96 3.17 2.35 4.112 4.172.942 1.822 1.413 4.193 1.413 7.114v.96zM146.975 3.65v8.429h4.583v6.216h-4.583v7.851c0 .943.089 1.567.266 1.873.273.473.75.707 1.432.707.615 0 1.475-.18 2.58-.542l.613 5.863c-2.06.458-3.983.688-5.771.688-2.075 0-3.604-.27-4.587-.814-.982-.54-1.708-1.362-2.179-2.467-.471-1.106-.706-2.893-.706-5.366v-7.793h-3.071V12.08h3.07V8.011l8.353-4.36zM164.952 3.65v8.429h4.585v6.216h-4.585v7.851c0 .943.089 1.567.266 1.873.273.473.75.707 1.432.707.615 0 1.475-.18 2.581-.542l.612 5.863c-2.059.458-3.983.688-5.77.688-2.076 0-3.604-.27-4.586-.814-.984-.54-1.708-1.362-2.18-2.467-.47-1.106-.707-2.893-.707-5.366v-7.793h-3.07V12.08h3.07V8.011l8.352-4.36zM188.539 21.195c-.164-1.64-.598-2.815-1.301-3.525-.702-.709-1.627-1.065-2.774-1.065-1.324 0-2.38.537-3.172 1.607-.505.668-.826 1.663-.961 2.983h8.208zm8.474 4.069H180.31c.15 1.363.51 2.378 1.086 3.045.805.96 1.854 1.44 3.151 1.44.819 0 1.596-.21 2.334-.626.45-.264.933-.73 1.453-1.398l8.208.772c-1.255 2.226-2.771 3.82-4.544 4.789-1.773.965-4.319 1.449-7.635 1.449-2.88 0-5.145-.416-6.796-1.242-1.65-.827-3.02-2.142-4.105-3.942-1.083-1.802-1.626-3.92-1.626-6.354 0-3.462 1.088-6.265 3.265-8.406 2.176-2.142 5.181-3.213 9.017-3.213 3.11 0 5.566.48 7.368 1.44 1.802.96 3.172 2.35 4.114 4.172.942 1.822 1.413 4.193 1.413 7.114v.96zM200.293 12.079h7.799v3.63c.751-1.571 1.525-2.652 2.323-3.244.799-.592 1.785-.888 2.96-.888 1.226 0 2.57.39 4.031 1.169l-2.58 6.05c-.981-.417-1.76-.625-2.333-.625-1.092 0-1.937.458-2.538 1.375-.86 1.295-1.29 3.716-1.29 7.26v7.428h-8.372V12.079zM216.008 34.515c-.92 0-1.565-.723-1.565-1.68 0-.981.667-1.682 1.587-1.682.94 0 1.585.68 1.585 1.682 0 .957-.625 1.68-1.585 1.68h-.022zM228.474 31.174c0 1.233.043 2.256.083 3.106h-2.254l-.127-1.575h-.04c-.439.747-1.44 1.81-3.26 1.81-1.856 0-3.547-1.127-3.547-4.511v-6.086h2.568v5.638c0 1.724.543 2.83 1.901 2.83 1.022 0 1.69-.743 1.962-1.404.082-.235.146-.51.146-.808v-6.256h2.568v7.256zM236.325 29.217c-1.816-.044-3.55.36-3.55 1.936 0 1.022.648 1.49 1.461 1.49 1.025 0 1.777-.683 2.005-1.427.063-.192.084-.404.084-.574v-1.425zm2.505 2.573c0 .937.042 1.852.146 2.491h-2.316l-.168-1.15h-.063c-.625.81-1.69 1.385-3.006 1.385-2.046 0-3.196-1.512-3.196-3.087 0-2.618 2.278-3.936 6.035-3.915v-.17c0-.681-.27-1.81-2.066-1.81-1.003 0-2.046.319-2.735.767l-.503-1.702c.752-.469 2.068-.915 3.676-.915 3.256 0 4.196 2.107 4.196 4.361v3.745z"/></g></svg>
