<svg xmlns="http://www.w3.org/2000/svg" width="132" height="21" viewBox="0 0 132 21"><path fill="#fff" d="M66.79 7.36c-.43-.92-1.05-1.38-1.86-1.38-.39 0-.76.13-1.11.4-.99.74-1.49 2.16-1.49 4.26 0 .89.18 1.68.53 2.37.44.85 1.05 1.27 1.86 1.27.42 0 .81-.14 1.18-.42.94-.73 1.42-2.07 1.42-4.02 0-.92-.18-1.75-.53-2.48zm3.02 7.05c-.41.18-.77.27-1.07.27-.72 0-1.12-.47-1.23-1.43-.42.59-.78.99-1.09 1.19-.41.3-.91.45-1.51.45-2.61 0-3.91-1.71-3.91-5.12 0-1.19.31-2.22.94-3.1a3.22 3.22 0 0 1 2.74-1.43c1.32 0 2.25.67 2.77 2.01V0c.22 0 .44.03.68.09.26-.06.5-.09.72-.09v13.32c0 .51.14.76.41.76l.55-.09zm2.24-7.51c.5-.89 1.18-1.34 2.04-1.34.43 0 .78.19 1.05.56.22.34.32.74.32 1.19 0 .53-.24.94-.72 1.21l-1.59.67a3.4 3.4 0 0 0-1.53 1.56 5.34 5.34 0 0 1 .43-3.85zm.05 5.53c-.15-.3-.22-.56-.22-.78 0-.54.42-1.01 1.25-1.41.78-.33 1.56-.66 2.33-1.01.84-.45 1.25-1.01 1.25-1.68 0-.8-.27-1.43-.8-1.88a2.99 2.99 0 0 0-2-.67c-1.18 0-2.15.53-2.9 1.59A5.55 5.55 0 0 0 70 9.9c0 1.27.38 2.38 1.14 3.32.8 1 1.8 1.5 3.01 1.5 1.02 0 2.01-.41 2.98-1.21l.04-1.01a3.92 3.92 0 0 1-2.86 1.32 2.3 2.3 0 0 1-2.21-1.39zM92.65 2L90.7 4.46H90L90.7 2c.29.12.63.18 1.03.18.36 0 .67-.06.92-.18M85.1 13.66a4.4 4.4 0 0 1-2.77 1.01c-1.3 0-2.36-.48-3.17-1.46A5.15 5.15 0 0 1 78 9.79c0-1.4.42-2.55 1.25-3.45A4.3 4.3 0 0 1 82.55 5c.46 0 .85.06 1.16.18.17.07.51.27 1.02.58l-.39 1.3a1.87 1.87 0 0 0-.95-.88 3 3 0 0 0-1.37-.35c-.9 0-1.57.44-2.01 1.32a5.86 5.86 0 0 0-.48 2.55c0 1.12.26 2.08.77 2.89a2.73 2.73 0 0 0 2.42 1.39c.6 0 1.31-.41 2.12-1.23zm7.24-6.58c-.47-1.01-1.15-1.52-2.06-1.52-.43 0-.85.14-1.24.43-1.01.76-1.51 2.11-1.51 4.05 0 1 .18 1.86.55 2.59.45.96 1.12 1.44 2.01 1.44.43 0 .86-.14 1.27-.43 1.03-.74 1.55-2.02 1.55-3.83 0-1.03-.19-1.94-.57-2.73zm.92 6.14a3.93 3.93 0 0 1-3.17 1.47c-.89 0-1.68-.26-2.36-.78a4.1 4.1 0 0 1-1.45-2.08 5.87 5.87 0 0 1-.26-1.77L86 9.88c0-1.36.38-2.5 1.14-3.42A3.94 3.94 0 0 1 90.31 5c1.26 0 2.28.48 3.03 1.43.7.9 1.05 2.01 1.05 3.34 0 1.37-.38 2.52-1.13 3.45z"/><path fill="#c41d3c" d="M93.68 15h.62c-.27 1.15-1.11 2.08-2.52 2.78-1.41.7-2.95 1.05-4.63 1.05-.6 0-1.26-.04-1.97-.12l-1.95-.24a19.1 19.1 0 0 0-1.77-.12c-.83 0-1.64.19-2.43.56-.79.37-1.3.96-1.52 1.77h-.72a2.5 2.5 0 0 0-1.48-1.75 5.59 5.59 0 0 0-2.47-.58c-.6 0-1.31.06-2.12.16-1.51.21-2.69.32-3.57.32-1.65 0-3.18-.34-4.58-1.03-1.41-.68-2.26-1.62-2.57-2.8h.66c.69 1.54 2.14 2.32 4.34 2.32.7 0 1.65-.08 2.84-.24 1.2-.16 2.17-.24 2.92-.24 1.15 0 2.31.23 3.48.69a5.77 5.77 0 0 1 2.81 2.31h.07a6.08 6.08 0 0 1 2.73-2.23 9.35 9.35 0 0 1 3.69-.77c.92 0 1.89.08 2.91.24 1.02.16 1.97.24 2.85.24 2.23 0 3.69-.78 4.38-2.32"/><path fill="#fff" d="M97.72 13.88c0 .48-.39.88-.86.88a.87.87 0 0 1-.86-.88c0-.49.38-.88.86-.88.47 0 .86.39.86.88m4.35-.97h-.78c-.52 0-.88.14-1.1.43a.65.65 0 0 0-.12.4c0 .15.02.27.05.37.03.09.08.18.15.25.14.14.34.22.62.22.27 0 .67-.1 1.18-.3zm0 1.86v-.05c-.58.39-1.1.58-1.55.58-.69 0-1.15-.27-1.39-.81-.09-.18-.13-.4-.13-.67s.06-.5.18-.69c.12-.2.28-.36.5-.48.4-.23.98-.34 1.74-.34h.65v-.37c0-.46-.03-.78-.09-.94a.89.89 0 0 0-.25-.37.6.6 0 0 0-.39-.12c-.16 0-.32.03-.48.09a3.4 3.4 0 0 0-.9.53l-.39.31-.38-.54a.31.31 0 0 1-.07-.21c0-.09.07-.17.19-.26.13-.09.29-.16.49-.23.41-.13.8-.2 1.15-.2.36 0 .66.04.91.11.26.07.48.18.67.33.42.34.63.84.63 1.5v2.72h.81v.37c-.25.14-.66.21-1.23.21-.43 0-.66-.16-.67-.47zm4.57-4.08c-.74 0-1.11.46-1.11 1.38 0 .43.09.78.27 1.02.18.25.46.37.84.37.37 0 .65-.12.83-.37.19-.24.28-.59.28-1.02 0-.92-.37-1.38-1.11-1.38zm-1.3 3.54c0 .14.05.24.16.31.12.07.26.12.44.16.19.04.39.07.63.09l.71.07c.24.03.48.07.71.12.23.05.44.12.62.22.41.22.61.56.61 1.01 0 .49-.26.88-.77 1.16-.46.25-1.03.38-1.7.38-.67 0-1.29-.12-1.86-.35a1.94 1.94 0 0 1-.77-.52c-.08-.1-.12-.18-.12-.26a.3.3 0 0 1 .05-.18.7.7 0 0 1 .15-.13c.14-.09.37-.19.67-.3a2.27 2.27 0 0 0 2.02 1.14c.56 0 .96-.13 1.19-.38.1-.1.14-.22.14-.36a.4.4 0 0 0-.15-.33 1.57 1.57 0 0 0-.41-.18 4.22 4.22 0 0 0-.58-.12l-.67-.1c-.23-.03-.45-.08-.67-.13a2.33 2.33 0 0 1-.58-.21c-.38-.2-.57-.49-.57-.87 0-.31.16-.55.48-.72l.24-.13a1.68 1.68 0 0 1-.88-1.55c0-.57.21-1.03.63-1.37.42-.33.94-.5 1.58-.5.39 0 .75.07 1.07.21.32.14.58.33.77.58l.28-.36c.2-.26.36-.42.46-.48.16-.1.33-.15.51-.15s.31.06.4.18c.03.03.04.08.04.14v.66c-.48 0-.79.02-.91.04-.22.05-.41.17-.57.34a1.94 1.94 0 0 1-.01 1.5c-.12.23-.27.42-.47.58-.4.34-.93.51-1.57.51a3 3 0 0 1-.92-.14c-.25.14-.38.28-.38.42zm9.16-1.93c.04-.11.05-.24.05-.4 0-.16-.02-.32-.08-.48a1.4 1.4 0 0 0-.22-.44 1.04 1.04 0 0 0-.86-.44c-.44 0-.77.18-.99.53-.18.28-.28.69-.31 1.23zm1 2.53c-.48.34-1.09.51-1.82.51s-1.35-.23-1.85-.68a2.56 2.56 0 0 1-.83-2.01c0-.79.23-1.42.7-1.9.48-.5 1.12-.75 1.94-.75.6 0 1.08.19 1.46.58.35.36.52.8.52 1.33 0 .66-.24.99-.73.99h-2.79c.06.57.28 1.01.66 1.34.36.31.83.47 1.39.47.38 0 .78-.07 1.19-.21zm1.87.41c-.37 0-.55-.16-.55-.47v-4.13H116v-.37a4.09 4.09 0 0 1 1.79-.17c.08.04.11.11.11.23v.24c.05-.02.14-.05.26-.12l.46-.19c.47-.17.87-.26 1.18-.26.32 0 .56.04.73.12.17.08.3.18.39.32.16.24.24.61.24 1.11v3.11h.81v.37a2.64 2.64 0 0 1-1.67.14.45.45 0 0 1-.22-.4v-3.12c0-.35-.03-.57-.1-.67a.55.55 0 0 0-.22-.21.9.9 0 0 0-.3-.05l-.32.02-.32.05-.32.07a7.2 7.2 0 0 0-.6.15v2.67c0 .5.02.85.06 1.04l.07.36c-.17.1-.39.16-.66.16m9.12-.45a3.1 3.1 0 0 1-1.83.51c-.73 0-1.34-.22-1.84-.66a2.39 2.39 0 0 1-.82-1.9c0-.84.27-1.51.82-2.01.52-.49 1.2-.73 2.03-.73.39 0 .73.05 1.02.16.2.08.3.17.3.28 0 .05-.01.08-.03.1l-.33.65-.34-.2a2.58 2.58 0 0 0-1.22-.41c-.39 0-.69.2-.9.59-.18.33-.27.7-.27 1.09 0 .39.04.73.12 1.01a1.86 1.86 0 0 0 1.91 1.4c.38 0 .79-.07 1.22-.21z"/><path fill="#fff" d="M130.37 11.36c0-.36-.08-.68-.25-.96l.62-.32c.11-.05.2-.08.27-.08.19 0 .29.17.29.52 0 .36-.07.76-.21 1.18a19.4 19.4 0 0 1-.73 1.91l-.38.79a15.2 15.2 0 0 1-.94 1.68 3.8 3.8 0 0 1-.99 1.03c-.38.26-.8.38-1.26.38-.29 0-.51-.04-.65-.13-.05-.04-.08-.08-.08-.11l.01-.12.26-.72.61.19c.17.06.33.08.47.08.14 0 .28-.04.41-.12.13-.09.26-.2.38-.32.21-.23.4-.51.56-.82l-1.88-4.52-.71.32-.17-.32.28-.27c.45-.42.85-.63 1.18-.63.19 0 .31.08.36.23l.06.17 1.39 3.54.11.27c.66-1.28.99-2.23.99-2.85M6.36 9.69a2.96 2.96 0 0 0-.83-1.68c-.4-.36-.92-.54-1.56-.54-.39 0-.75.06-1.08.19a2.3 2.3 0 0 0-.9.63c-.25.3-.45.68-.6 1.16a5.93 5.93 0 0 0-.22 1.77c0 .43.05.86.15 1.28.11.43.27.8.5 1.13.22.33.51.59.87.79.35.21.78.31 1.28.31.58 0 1.08-.14 1.5-.42.42-.28.79-.69 1.12-1.22l.23.17a3.6 3.6 0 0 1-1.36 1.52c-.27.15-.55.26-.86.32-.31.07-.63.1-.98.1a3.48 3.48 0 0 1-3.37-2.43c-.17-.48-.25-1-.25-1.55a4.48 4.48 0 0 1 1.06-2.99 3.7 3.7 0 0 1 1.15-.9c.44-.22.91-.33 1.41-.33.64 0 1.2.09 1.66.28.47.18.81.4 1.02.66.15.18.23.43.25.75.03.32.04.65.04 1zm4.9 4.34V9.47H9.22c0 1-.05 1.86-.15 2.59a8 8 0 0 1-.5 1.97zM8.31 9.56c-.1-.22-.32-.33-.67-.33V9h4.67v5.03h.46c.12 0 .22.04.29.12a.4.4 0 0 1 .12.3v1.87h-.46a3.3 3.3 0 0 0-.38-1.4c-.18-.28-.47-.42-.85-.42h-2.8a.96.96 0 0 0-.85.42c-.19.29-.31.75-.37 1.4H7v-1.87a.4.4 0 0 1 .12-.3.37.37 0 0 1 .29-.12h.35c.13-.28.24-.59.33-.9a10.85 10.85 0 0 0 .33-1.88c.03-.3.04-.58.04-.84a2 2 0 0 0-.15-.85zm9.25 2.02c0-.68-.1-1.2-.31-1.57a.99.99 0 0 0-.92-.54.8.8 0 0 0-.49.16c-.14.1-.27.25-.38.44-.11.18-.2.41-.26.66-.06.26-.09.54-.09.85zm1.08.46h-3.53c0 .32.03.62.1.89.07.28.18.51.31.71.14.2.3.36.5.47.19.1.41.16.66.16.38 0 .7-.08.95-.25.26-.16.48-.39.69-.69l.23.18c-.27.44-.57.76-.92.95a2.5 2.5 0 0 1-1.18.28 2.22 2.22 0 0 1-1.84-.85c-.2-.25-.36-.56-.46-.9a4.04 4.04 0 0 1 .01-2.24 2.38 2.38 0 0 1 1.19-1.52c.29-.15.62-.23.98-.23.8 0 1.38.22 1.76.67.38.44.58 1.08.58 1.91zm2.68-1.63c0 .88-.05 1.59-.15 2.14-.1.54-.23.97-.4 1.28a1.4 1.4 0 0 1-.56.63 1.35 1.35 0 0 1-.92.13l-.29-.07v-.3c.19 0 .37-.05.55-.14.19-.1.35-.29.49-.56.15-.27.26-.66.35-1.16a12.62 12.62 0 0 0 .1-2.43 1 1 0 0 0-.12-.37.53.53 0 0 0-.25-.24.89.89 0 0 0-.43-.09V9h4.73v5.5h-1.05V9.47h-2.05zm8 1.52h-.35c-.58 0-1.04.1-1.37.32a.97.97 0 0 0-.49.85c0 .19.03.35.09.49a1.01 1.01 0 0 0 .6.56c.13.04.27.06.42.06a1 1 0 0 0 .68-.22c.17-.14.31-.3.42-.48zm.47 2.69l-.41-.53h-.06c-.11.15-.3.3-.57.44a2.27 2.27 0 0 1-1.6.13 1.58 1.58 0 0 1-.98-.77 1.68 1.68 0 0 1-.17-.79c0-.32.08-.59.24-.8.17-.21.39-.38.66-.5.27-.13.59-.21.94-.26.36-.06.74-.08 1.13-.08h.35c0-.41-.03-.74-.09-1a1.58 1.58 0 0 0-.26-.61.76.76 0 0 0-.39-.3 1.51 1.51 0 0 0-.48-.08c-.33 0-.6.07-.82.21-.22.14-.38.4-.46.78h-.53c0-.2.01-.39.04-.56a.86.86 0 0 1 .55-.68 3.68 3.68 0 0 1 .92-.2l.53-.02c.27 0 .52.03.77.09.24.06.46.17.65.35.19.18.34.42.45.75.12.32.17.75.17 1.27v3.16zm5.58-2.63h-2.33v2.51h-1.05v-4.09c0-.36-.05-.64-.14-.85-.1-.22-.33-.33-.68-.33H31V9h.99c.2 0 .37.02.51.05.13.04.24.11.33.21.08.11.13.25.16.44.04.18.05.42.05.71v1.11h2.33V9h1.05v4.1c0 .35.05.63.15.85.1.21.32.32.67.32h.17v.23h-.99c-.2 0-.37-.01-.5-.05a.53.53 0 0 1-.33-.21 1 1 0 0 1-.17-.43 4.34 4.34 0 0 1-.05-.71zm6.55-1.06c-.07-.3-.17-.55-.3-.76a1.53 1.53 0 0 0-.46-.51.99.99 0 0 0-.59-.19 1 1 0 0 0-.6.19c-.18.12-.33.29-.46.51-.13.21-.23.46-.3.76-.07.29-.1.6-.1.94 0 .33.03.65.1.94.07.29.17.55.3.76.13.22.28.39.46.51a1 1 0 0 0 .6.19c.21 0 .41-.06.59-.19.18-.12.33-.29.46-.51.13-.21.23-.47.3-.76.07-.29.1-.61.1-.94 0-.34-.03-.65-.1-.94zm-3.75-.18A2.47 2.47 0 0 1 40.57 9a2.52 2.52 0 0 1 1.89.84c.22.26.39.56.5.91.12.35.17.72.17 1.12 0 .4-.05.77-.17 1.12a2.55 2.55 0 0 1-1.31 1.52c-.32.15-.68.23-1.08.23a2.47 2.47 0 0 1-2.4-1.75 3.7 3.7 0 0 1 0-2.24zm10.81 1.12v2.11l.36.08.4.03c.47 0 .83-.09 1.08-.27.25-.18.38-.46.38-.84 0-.74-.53-1.11-1.58-1.11zm0-.47h.64c.42 0 .74-.08.98-.25a.84.84 0 0 0 .37-.74.88.88 0 0 0-.35-.75 1.47 1.47 0 0 0-.88-.25l-.4.03-.36.09zm.88-2.4c.29 0 .56.02.83.07.27.05.51.13.71.23a1.17 1.17 0 0 1 .67 1.11c0 .32-.09.59-.27.79-.18.2-.48.35-.89.43.44.09.78.25 1.03.48.24.23.37.52.37.87 0 .3-.07.54-.19.74-.12.19-.3.35-.51.47-.22.11-.48.2-.78.24-.3.05-.62.07-.97.07h-1.93v-4.09c0-.36-.05-.64-.14-.85-.1-.22-.32-.33-.67-.33H47V9z"/></svg>