<svg xmlns="http://www.w3.org/2000/svg" width="27" height="28" viewBox="0 0 27 28"><path fill="#fff" d="M8.34 8.11a5.9 5.9 0 0 1 5.91-5.87 5.89 5.89 0 1 1 0 11.75 5.9 5.9 0 0 1-5.91-5.88zM6 8.2a8.2 8.2 0 0 0 5.07 7.56c.2.11.99.55 1.1 1.41l.01.2v4.65s.01.07-.01.19c-.03.21-.12.58-.37 1.08a2.97 2.97 0 0 0 2.45 4.68c1.65 0 3-1.33 3-2.97 0-.47-.11-.91-.31-1.3l-.19-.33c0-.02-.01-.02-.02-.03a3.04 3.04 0 0 1-.41-1.31v-4.66c0-.97.85-1.47 1.1-1.6l.04-.02.04-.01A8.2 8.2 0 0 0 14.25 0 8.22 8.22 0 0 0 6 8.2z"/><path fill="#fff" d="M18.46 6L12 11.93c.82.47 1.74.51 2.16.49.35-.33 3.17-2.96 4.62-4.28A4.78 4.78 0 0 0 18.46 6zm-.76-.11c-1.01.9-5.83 5.33-6.69 6.13l-.12.1-.02.01-.04.04c-.34-.25-.83-.87-.83-.87l.1-.09L16.87 5c.24.21.56.52.83.89zM22.69 18s.27 3.02 3.59 3.64c-1.25-.23-3.79 1.97-3.69 3.59-.07-1.21-1.36-3.41-3.59-3.64 1.09.08 3.47-1.43 3.69-3.59zM2.56 10s.19 2.09 2.49 2.53c-.86-.16-2.63 1.36-2.56 2.49-.04-.84-.94-2.36-2.49-2.53.75.06 2.41-.99 2.56-2.49zm3.13 5s.27 3.02 3.59 3.64c-1.25-.22-3.79 1.97-3.7 3.59-.06-1.21-1.35-3.41-3.58-3.64 1.09.08 3.47-1.43 3.69-3.59z"/></svg>