<svg xmlns="http://www.w3.org/2000/svg" width="38" height="15" viewBox="0 0 38 15"><path fill="#fff" d="M15.87 5.98a22.88 22.88 0 0 0-8.18-1.16c1.62.31 3.11.52 4.55.9 1.23.33 2.4.86 3.6 1.31.4.15.61.39.61.87.01.5-.18.78-.61 1.01a18.24 18.24 0 0 1-4.88 1.59c-1.06.21-2.13.36-3.2.54l.01.17c1.35-.1 2.71-.14 4.05-.33 1.35-.2 2.69-.56 4.11-.78-.71.59-1.38 1.21-2.12 1.75-2.92 2.1-6.2 3.1-9.82 3.11a.96.96 0 0 1-.87-.46 11.07 11.07 0 0 1 .05-13.1c.14-.19.43-.39.65-.4a16.13 16.13 0 0 1 12 4.8c.02.03.02.07.05.18m6.75-.01l-.1-.16c.81-.66 1.59-1.38 2.45-1.97a15.86 15.86 0 0 1 9.54-2.83c.28 0 .65.2.81.42 2.52 3.6 3 8.27.4 12.47-.49.79-1 1.12-1.97 1.06-4-.22-7.51-1.58-10.49-4.22-.24-.22-.51-.41-.7-.7 2.7.75 5.4 1.19 8.18.99-.83-.13-1.65-.23-2.48-.38a19.4 19.4 0 0 1-5.52-1.69c-.41-.21-.75-.41-.74-.99.01-.56.29-.78.71-1 2.05-1.05 4.27-1.5 6.52-1.86.47-.08.93-.13 1.4-.2-2.75-.22-5.41.21-8.01 1.06zm-3.27 4.34l-1.98-.42c-.36-.07-.38-.28-.37-.59.04-.83 0-1.65.03-2.48.01-.16.14-.42.28-.47a5.49 5.49 0 0 1 3.93.03c.29.11.34.27.32.57-.05.79-.06 1.58.01 2.37.03.38-.03.59-.42.66l-1.8.33"/></svg>