<svg xmlns="http://www.w3.org/2000/svg" width="30" height="29" viewBox="0 0 30 29"><path fill="#fff" d="M25.8 29H8.19C5.41 29 4 28.39 4 25.07V14.54c0-.3.24-.54.54-.54.3 0 .54.24.54.54v10.53c0 2.5.67 2.86 3.11 2.86H25.8c2.85 0 3.12-.51 3.12-2.86V14.54c0-.3.24-.54.54-.54.3 0 .54.24.54.54v10.53c0 2.77-.58 3.93-4.2 3.93zM5.52 12.6l-.14-.02c-.28-.08-.44-.39-.36-.68l.65-2.49a.53.53 0 0 1 .5-.41h3.54c.21 0 .4.14.48.35l.4 1.11a.56.56 0 0 1-.3.72.5.5 0 0 1-.67-.32l-.27-.75H6.57l-.55 2.08a.52.52 0 0 1-.5.41z"/><path fill="#fff" d="M6.13 11.77H6.1c-.07-.02-.11-.1-.1-.17l.59-2.5a.14.14 0 0 1 .16-.1c.07.02.11.1.09.17l-.58 2.49c-.02.07-.07.11-.13.11zm3.59 0a.13.13 0 0 1-.13-.11L9 9.17c-.01-.07.03-.15.1-.17.07-.01.14.03.16.11l.58 2.49c.02.07-.02.15-.09.17h-.03zm-2.59 0h-.02c-.07-.01-.12-.08-.11-.16l.31-2.49A.13.13 0 0 1 7.46 9c.07.01.12.08.11.16l-.31 2.49a.14.14 0 0 1-.13.12zm1.31 0c-.07 0-.12-.05-.13-.12L8 9.16c-.01-.08.04-.15.11-.16.07-.01.14.04.15.12l.31 2.49c.01.08-.04.15-.11.16h-.02z"/><path fill="#fff" d="M8.13 11.79c-.07 0-.13-.06-.13-.14V9.14c0-.08.06-.14.13-.14s.13.06.13.14v2.51c0 .08-.06.14-.13.14zM29.44 15h-9.88c-.31 0-.56-.22-.56-.5s.25-.5.56-.5h9.88c.31 0 .56.22.56.5s-.25.5-.56.5z"/><path fill="#fff" d="M4.56 15a.55.55 0 0 1-.39-.16.52.52 0 0 1-.16-.37L4 11.93c0-.29.24-.53.55-.53l5.47-.02v-.82c0-.29.24-.53.54-.53l3.39-.03.01 1.07-2.85.02.01.82c0 .15-.06.28-.16.38a.57.57 0 0 1-.39.16l-5.47.02v1.46l8.9-.03v1.07L4.56 15z"/><path fill="#fff" d="M13.38 15a.38.38 0 0 1-.38-.38V9.37c0-.2.17-.37.38-.37h5.25c.2 0 .37.17.37.37v5.25c0 .21-.17.38-.37.38zm4.87-.75v-4.5h-4.5v4.5z"/><path fill="#fff" d="M29.44 15a.56.56 0 0 1-.57-.56c0-2.52-.14-3.31-3.07-3.31h-6.24a.57.57 0 0 1-.56-.57c0-.31.25-.56.56-.56h6.24c3.92 0 4.2 1.68 4.2 4.44 0 .31-.25.56-.56.56zM15 13.99h3.03V11H15zm.64-1.42a.88.88 0 0 1 1.76 0 .88.88 0 0 1-1.76 0z"/><path fill="#fff" d="M15.14 14.27a.14.14 0 0 1-.14-.14v-2.99c0-.08.06-.14.14-.14h3.03c.08 0 .14.06.14.14v2.99c0 .08-.06.14-.14.14zm2.89-.28v-2.71h-2.75v2.71zm-2.39-1.28zm.28 0c0 .4.33.73.74.73a.74.74 0 1 0 0-1.47.74.74 0 0 0-.74.74zM11 16.5a.5.5 0 1 1 1 0 .5.5 0 0 1-1 0zm2 5a3.5 3.5 0 1 0 7 0 3.5 3.5 0 0 0-7 0zm1.75 0c0-.97.78-1.75 1.75-1.75s1.75.78 1.75 1.75-.78 1.75-1.75 1.75-1.75-.78-1.75-1.75z"/><path fill="#fff" d="M11 21.5a5.51 5.51 0 0 1 11 0 5.51 5.51 0 0 1-11 0zm1.05 0a4.45 4.45 0 1 0 8.9 0 4.45 4.45 0 0 0-8.9 0zM7 4V0h1v4zM0 5V4h4v1zm14.31-2l.69.69L11.69 7 11 6.31 14.31 3z"/></svg>