<svg xmlns="http://www.w3.org/2000/svg" width="37" height="33" viewBox="0 0 37 33"><path fill="#fff" d="M30.42 16.3c.1.06.28.06.39.02.83-.31 1.6-.73 2.2-1.37.35-.37.57-.8.41-1.38 1.1.29 2.14.6 2.98 1.32.55.47.57.96 0 1.4-.52.41-1.09.76-1.68 1.04a28.78 28.78 0 0 1-7.4 2.24c-.56.1-1.11.22-1.67.31-.11.02-.32-.02-.35-.09-.4-.83-1.18-1.09-1.99-1.12a6.79 6.79 0 0 0-2.34.23c-1.55.49-3.04 1.12-4.54 1.74-.35.14-.62.49-.95.69-.24.14-.52.22-.79.31-.12.03-.25.01-.38.01-.33-.01-.72.09-.95-.06-.19-.12-.17-.53-.26-.82-.28-.98-1.18-1.51-2.43-1.45-.04.01-1.34.09-2.68.81a45.71 45.71 0 0 1-3.16-1.58c-.29-.17-.49-.14-.76.05-.82.59-1.66 1.15-2.5 1.72-.48.33-.82.43-1.57.4l3.56-2.85-1.82-1.01c.53-.47 1.01-.9 1.66-1.13.42-.15.75.06 1.08.22.35.18.53.13.73-.21.45-.75.92-1.49 1.42-2.22.15-.21.41-.35.62-.52l.14.11-.4 1.33c-.18.63-.34 1.26-.56 1.87-.12.34-.01.47.3.58.95.35 2.5 1.34 3.68 1.41 1.17.07 4.65-1.02 6.89-1.7 3.25-1.01 6.46-2.14 9.79-2.87.9-.2 1.81-.32 2.72-.44l.56-.05c.64-.07 1.1-.07 1.22.01.12.08.13.21.11.33-.01.13-.39.7-.74.91-.26.15-.54.24-.81.36"/><path fill="#fff" d="M3 32.2l1.76-1.47c1.03-.85 2.06-1.69 3.08-2.55l8.33-6.96c.21-.17.45-.33.71-.45 1.5-.68 3.01-1.34 4.64-1.67a3.6 3.6 0 0 1 2.13.13c.17.08.3.24.44.36-.12.12-.22.28-.36.37L8.47 30.29a66.6 66.6 0 0 0-2.59 1.81 1.8 1.8 0 0 1-1.58.36L3 32.2M25.67 3.93l.15-.35s.44-1.27.84-1.75c.42-.51 1.1-.75 1.8-.83.31-.03.28.21.25.4l-.38 2.72-1.14 8.19c-.04.34-.15.51-.53.6-1.7.43-3.38.9-5.07 1.36l-.59.17 4.67-10.51zM11.04 20.54c-.46-.02-.84.41-.84.95s.41 1.03.88 1.04c.44 0 .8-.41.81-.94 0-.57-.37-1.04-.85-1.05zm-4.39 2.84c-.7-.23-.87-.79-.34-1.29 1.16-1.09 2.45-2 4.15-2.09.89-.04 1.55.33 1.74.97.26.88-.02 1.6-.85 2.05-.93.5-1.96.58-3.29.64-.29-.05-.87-.11-1.41-.28z"/></svg>