<svg xmlns="http://www.w3.org/2000/svg" width="33" height="31" viewBox="0 0 33 31"><defs><clipPath id="a"><path fill="#fff" d="M560.5 332.72l10.17 7.28-3.84-11.86 10.17-7.01h-12.37L560.5 309l-4.12 12.13H544l10.17 7.01-3.84 11.86z"/></clipPath><clipPath id="b"><path fill="#fff" d="M560.5 328.71l4.63 3.29-1.75-5.36 4.62-3.16h-5.62L560.5 318l-1.87 5.48H553l4.63 3.16-1.75 5.36z"/></clipPath></defs><path d="M16.5 23.72L26.67 31l-3.84-11.86L33 12.13H20.63L16.5 0l-4.12 12.13H0l10.17 7.01L6.33 31z"/><path fill="none" stroke="#fff" stroke-miterlimit="50" stroke-width="2.2" d="M560.5 332.72l10.17 7.28-3.84-11.86 10.17-7.01h-12.37L560.5 309l-4.12 12.13H544l10.17 7.01-3.84 11.86z" clip-path="url(&quot;#a&quot;)" transform="translate(-544 -309)"/><path fill="#fff" d="M16.5 19.71L21.13 23l-1.75-5.36L24 14.48h-5.62L16.5 9l-1.87 5.48H9l4.63 3.16L11.88 23z"/><path fill="none" stroke="#fff" stroke-miterlimit="50" d="M560.5 328.71l4.63 3.29-1.75-5.36 4.62-3.16h-5.62L560.5 318l-1.87 5.48H553l4.63 3.16-1.75 5.36z" clip-path="url(&quot;#b&quot;)" transform="translate(-544 -309)"/></svg>