<svg xmlns="http://www.w3.org/2000/svg" width="31" height="24" viewBox="0 0 31 24"><path fill="#fff" d="M0 8.33C0 3.73 3.73 0 8.33 0h13.68a8.33 8.33 0 0 1 8.32 8.33v2.56a8.33 8.33 0 0 1-8.32 8.32H8.52L0 23.17zm1.86 0v11.93l6.25-2.91h13.9c3.57 0 6.47-2.9 6.47-6.47V8.32a6.49 6.49 0 0 0-6.47-6.47H8.33v.01a6.47 6.47 0 0 0-6.47 6.47zm8.84 1.62a1.76 1.76 0 1 1-3.53 0 1.76 1.76 0 0 1 3.53 0zm12.46 0a1.76 1.76 0 1 1-3.53 0 1.76 1.76 0 0 1 3.53 0zm-7.99-1.77a1.77 1.77 0 1 0 0 3.53 1.77 1.77 0 0 0 0-3.53z"/></svg>