<svg version="1.1" xmlns="http://www.w3.org/2000/svg" xmlns:xlink="http://www.w3.org/1999/xlink" width="282" height="126" viewBox="0 0 282 126">
<path id="icon-404" d="M265.840,97.089 L265.840,123.390 L247.024,123.390 L247.024,97.089 L192.136,97.089 L192.136,82.166 L247.024,2.523 L265.840,2.523 L265.840,81.012 L282.027,81.012 L282.027,97.089 L265.840,97.089 zM247.188,24.289 C245.654,27.916 243.244,32.314 239.957,37.480 C239.957,37.480 210.130,81.012 210.130,81.012 L247.024,81.012 C247.024,81.012 247.024,50.754 247.024,50.754 C247.024,39.982 247.297,31.160 247.845,24.289 C247.845,24.289 247.188,24.289 247.188,24.289 zM140.863,125.039 C127.497,125.039 117.363,119.790 110.461,109.291 C103.559,98.793 100.108,83.403 100.108,63.121 C100.108,41.850 103.462,26.172 110.173,16.085 C116.883,6.000 127.113,0.956 140.863,0.956 C154.283,0.956 164.445,6.233 171.347,16.786 C178.249,27.339 181.700,42.785 181.700,63.121 C181.700,84.062 178.344,99.618 171.635,109.786 C164.924,119.955 154.667,125.039 140.863,125.039 zM157.091,28.040 C153.667,20.813 148.258,17.198 140.863,17.198 C133.468,17.198 128.086,20.743 124.717,27.834 C121.348,34.924 119.664,46.687 119.664,63.121 C119.664,79.556 121.348,91.291 124.717,98.326 C128.086,105.362 133.468,108.879 140.863,108.879 C148.258,108.879 153.667,105.307 157.091,98.161 C160.514,91.016 162.227,79.336 162.227,63.121 C162.227,46.961 160.514,35.268 157.091,28.040 zM73.732,123.390 L54.915,123.390 L54.915,97.089 L0.027,97.089 L0.027,82.166 L54.915,2.523 L73.732,2.523 L73.732,81.012 L89.919,81.012 L89.919,97.089 L73.732,97.089 L73.732,123.390 zM55.080,24.289 C53.546,27.916 51.136,32.314 47.849,37.480 C47.849,37.480 18.022,81.012 18.022,81.012 L54.915,81.012 C54.915,81.012 54.915,50.754 54.915,50.754 C54.915,39.982 55.189,31.160 55.737,24.289 C55.737,24.289 55.080,24.289 55.080,24.289 z" fill="#2295F4" />
</svg>
