<svg version="1.1" xmlns="http://www.w3.org/2000/svg" xmlns:xlink="http://www.w3.org/1999/xlink" width="100" height="100" viewBox="0 0 100 100">
<g id="icon-loupe-big">
<path id="Ellipse-1-copy-3" d="M50.000,-0.000 C77.614,-0.000 100.000,22.386 100.000,50.000 C100.000,77.614 77.614,100.000 50.000,100.000 C22.386,100.000 -0.000,77.614 -0.000,50.000 C-0.000,22.386 22.386,-0.000 50.000,-0.000 z" fill="#ECF7FF" />
<g id="Group-3">
<g id="Rectangle-5" >
<path id="Rectangle-5-stroke" d="M41.848,55.084 L45.915,59.152 L29.152,75.915 L25.085,71.847 L41.848,55.084 z" fill="none" stroke="#2295F4" stroke-opacity="1.000" stroke-width="1" />
</g>
<g id="Rounded-Rectangl" >
<path id="Rounded-Rectangl-fill" d="M30.364,69.221 C30.364,69.221 31.778,70.636 31.778,70.636 C32.950,71.807 32.950,73.707 31.778,74.878 C31.778,74.878 29.879,76.778 29.879,76.778 C28.707,77.949 26.807,77.949 25.636,76.778 C25.636,76.778 24.222,75.363 24.222,75.363 C23.050,74.192 23.050,72.293 24.222,71.121 C24.222,71.121 26.121,69.221 26.121,69.221 C27.293,68.050 29.192,68.050 30.364,69.221 z" fill="#BEDCF3" />
<path id="Rounded-Rectangl-stroke" d="M30.141,69.582 C30.141,69.582 31.421,70.862 31.421,70.862 C32.481,71.922 32.481,73.641 31.421,74.701 C31.421,74.701 29.702,76.420 29.702,76.420 C28.641,77.481 26.922,77.481 25.862,76.420 C25.862,76.420 24.582,75.140 24.582,75.140 C23.522,74.080 23.522,72.361 24.582,71.301 C24.582,71.301 26.301,69.582 26.301,69.582 C27.361,68.522 29.080,68.522 30.141,69.582 z" fill="none" stroke="#2295F4" stroke-opacity="1.000" stroke-width="1" />
</g>
<g id="Ellipse-3" >
<path id="Ellipse-3-fill" d="M57.000,63.000 C45.954,63.000 37.000,54.046 37.000,43.000 C37.000,31.954 45.954,23.000 57.000,23.000 C68.046,23.000 77.000,31.954 77.000,43.000 C77.000,54.046 68.046,63.000 57.000,63.000 zM57.000,27.000 C48.163,27.000 41.000,34.163 41.000,43.000 C41.000,51.837 48.163,59.000 57.000,59.000 C65.837,59.000 73.000,51.837 73.000,43.000 C73.000,34.163 65.837,27.000 57.000,27.000 z" fill="#BEDCF3" />
<path id="Ellipse-3-stroke" d="M57.000,62.525 C46.217,62.525 37.475,53.783 37.475,43.000 C37.475,32.217 46.217,23.475 57.000,23.475 C67.783,23.475 76.525,32.217 76.525,43.000 C76.525,53.783 67.783,62.525 57.000,62.525 zM57.000,27.380 C48.373,27.380 41.380,34.373 41.380,43.000 C41.380,51.627 48.373,58.620 57.000,58.620 C65.627,58.620 72.620,51.627 72.620,43.000 C72.620,34.373 65.627,27.380 57.000,27.380 z" fill="none" stroke="#2295F4" stroke-opacity="1.000" stroke-width="1" />
</g>
<path id="Ellipse-4" d="M67.999,42.986 C67.992,36.927 63.086,32.017 57.028,32.001 C57.019,31.670 57.009,31.350 57.000,31.000 C63.627,31.000 69.000,36.372 69.000,43.000 C68.645,43.000 68.333,42.991 67.999,42.986 z" fill="#2295F4" />
</g>
</g>
</svg>
