<svg version="1.1" xmlns="http://www.w3.org/2000/svg" xmlns:xlink="http://www.w3.org/1999/xlink" width="268" height="268" viewBox="0 0 268 268">
<path id="icon-question" d="M263.218,168.624 C253.970,203.139 231.834,231.987 200.888,249.853 C169.942,267.720 133.892,272.466 99.376,263.218 C64.861,253.969 36.013,231.834 18.146,200.888 C0.280,169.942 -4.466,133.891 4.782,99.376 C14.030,64.861 36.166,36.012 67.112,18.146 C98.058,0.279 134.109,-4.466 168.624,4.782 C203.139,14.030 231.987,36.166 249.853,67.112 C267.720,98.058 272.466,134.109 263.218,168.624 zM165.865,15.078 C100.291,-2.492 32.649,36.561 15.078,102.135 C-2.492,167.708 36.561,235.351 102.135,252.921 C167.709,270.492 235.351,231.439 252.922,165.865 C270.492,100.291 231.439,32.649 165.865,15.078 zM185.244,148.415 C173.758,156.705 159.951,161.271 145.948,161.482 C145.948,161.482 140.618,181.373 140.618,181.373 C137.957,191.307 127.707,197.225 117.772,194.563 C107.837,191.900 101.919,181.652 104.582,171.717 C104.582,171.717 114.070,136.307 114.070,136.307 C116.732,126.372 126.981,120.455 136.916,123.117 C153.664,127.604 170.972,117.514 175.498,100.624 C179.985,83.876 170.010,66.599 153.262,62.111 C136.514,57.624 119.237,67.598 114.750,84.347 C112.088,94.282 101.839,100.199 91.903,97.537 C81.968,94.875 76.051,84.626 78.713,74.690 C88.525,38.071 126.299,16.262 162.918,26.075 C199.538,35.887 221.347,73.661 211.535,110.280 C207.430,125.599 198.093,139.142 185.244,148.415 zM160.160,36.370 C129.218,28.079 97.300,46.507 89.009,77.449 C87.868,81.707 90.404,86.099 94.662,87.240 C98.920,88.381 103.313,85.845 104.454,81.587 C110.463,59.162 133.596,45.806 156.021,51.815 C178.447,57.824 191.803,80.956 185.794,103.382 C179.747,125.950 156.583,139.421 134.157,133.412 C129.899,132.271 125.507,134.807 124.366,139.065 C124.366,139.065 114.878,174.475 114.878,174.475 C113.737,178.733 116.273,183.125 120.531,184.266 C124.789,185.407 129.181,182.871 130.322,178.613 C130.322,178.613 136.729,154.704 136.729,154.704 C137.379,152.278 139.633,150.636 142.141,150.760 C169.310,152.106 194.164,133.921 201.238,107.521 C209.529,76.579 191.101,44.661 160.160,36.370 zM64.326,225.152 C63.641,224.969 62.982,224.645 62.392,224.176 C40.338,206.646 25.494,181.706 20.593,153.949 C20.082,151.051 22.016,148.286 24.915,147.774 C27.813,147.262 30.579,149.197 31.090,152.096 C35.538,177.287 49.010,199.922 69.025,215.831 C71.329,217.663 71.712,221.015 69.881,223.320 C68.518,225.034 66.314,225.685 64.326,225.152 zM29.682,128.103 C29.512,131.042 26.993,133.287 24.054,133.117 C23.683,133.096 23.321,133.037 22.976,132.944 C20.586,132.304 18.892,130.057 19.040,127.490 C19.491,119.669 20.756,111.834 22.800,104.204 C23.562,101.361 26.485,99.674 29.328,100.435 C32.171,101.197 33.859,104.120 33.097,106.963 C31.240,113.893 30.091,121.006 29.682,128.103 zM92.443,217.020 C95.105,207.085 105.354,201.167 115.289,203.829 C125.224,206.491 131.142,216.741 128.480,226.676 C128.480,226.676 127.928,228.735 127.928,228.735 C125.266,238.670 115.017,244.588 105.081,241.926 C95.146,239.263 89.229,229.014 91.891,219.079 C91.891,219.079 92.443,217.020 92.443,217.020 zM107.840,231.629 C112.098,232.770 116.491,230.234 117.632,225.976 C117.632,225.976 118.183,223.917 118.183,223.917 C119.324,219.659 116.788,215.266 112.530,214.126 C108.272,212.985 103.880,215.521 102.739,219.779 C102.739,219.779 102.187,221.838 102.187,221.838 C101.046,226.096 103.582,230.489 107.840,231.629 z" fill="#EBEDF5" />
</svg>
