<svg version="1.1" xmlns="http://www.w3.org/2000/svg" xmlns:xlink="http://www.w3.org/1999/xlink" width="34" height="40" viewBox="0 0 34 40">
<g id="icon-paper">
<g id="Rectangle-20" >
<path id="Rectangle-20-fill" d="M5.000,36.000 L5.000,8.999 L11.000,4.000 L29.000,4.000 L29.000,36.000 L5.000,36.000 zM26.000,17.000 L8.000,17.000 L8.000,19.000 L26.000,19.000 L26.000,17.000 zM26.000,22.000 L8.000,22.000 L8.000,24.000 L26.000,24.000 L26.000,22.000 z" fill="#BEDCF3" />
<path id="Rectangle-20-stroke" d="M5.475,35.525 L5.475,9.326 L11.237,4.475 L28.525,4.475 L28.525,35.525 L5.475,35.525 zM25.644,17.089 L8.356,17.089 L8.356,19.030 L25.644,19.030 L25.644,17.089 zM25.644,21.941 L8.356,21.941 L8.356,23.881 L25.644,23.881 L25.644,21.941 z" fill="none" stroke="#2295F4" stroke-opacity="1.000" stroke-width="1" />
</g>
<path id="Rectangle-21" d="M11.000,10.000 L5.000,10.000 L5.000,9.000 L11.000,9.000 L11.000,4.000 L12.000,4.000 L12.000,9.000 L12.000,10.000 L11.000,10.000 z" fill="#2295F4" />
</g>
</svg>
