<svg version="1.1" xmlns="http://www.w3.org/2000/svg" xmlns:xlink="http://www.w3.org/1999/xlink" width="180" height="180" viewBox="0 0 180 180">
<g id="icon-message-pop">
<path id="bg" d="M90.000,-0.000 C139.706,-0.000 180.000,40.294 180.000,90.000 C180.000,139.706 139.706,180.000 90.000,180.000 C40.294,180.000 -0.000,139.706 -0.000,90.000 C-0.000,40.294 40.294,-0.000 90.000,-0.000 z" fill="#ECF7FF" />
<g id="message">
<g id="Rounded-Rectangl" >
<path id="Rounded-Rectangl-fill" d="M115.000,136.000 C115.000,136.000 67.000,136.000 67.000,136.000 C64.239,136.000 62.000,133.761 62.000,131.000 C62.000,131.000 62.000,49.000 62.000,49.000 C62.000,46.239 64.239,44.000 67.000,44.000 C67.000,44.000 115.000,44.000 115.000,44.000 C117.761,44.000 120.000,46.239 120.000,49.000 C120.000,49.000 120.000,131.000 120.000,131.000 C120.000,133.761 117.761,136.000 115.000,136.000 zM91.000,132.000 C92.105,132.000 93.000,131.105 93.000,130.000 C93.000,128.895 92.105,128.000 91.000,128.000 C89.895,128.000 89.000,128.895 89.000,130.000 C89.000,131.105 89.895,132.000 91.000,132.000 zM116.000,51.000 C116.000,49.343 114.657,48.000 113.000,48.000 C113.000,48.000 69.000,48.000 69.000,48.000 C67.343,48.000 66.000,49.343 66.000,51.000 C66.000,51.000 66.000,121.000 66.000,121.000 C66.000,122.657 67.343,124.000 69.000,124.000 C69.000,124.000 113.000,124.000 113.000,124.000 C114.657,124.000 116.000,122.657 116.000,121.000 C116.000,121.000 116.000,51.000 116.000,51.000 z" fill="#BEDCF3" />
<path id="Rounded-Rectangl-stroke" d="M114.607,135.525 C114.607,135.525 67.393,135.525 67.393,135.525 C64.677,135.525 62.475,133.310 62.475,130.577 C62.475,130.577 62.475,49.423 62.475,49.423 C62.475,46.690 64.677,44.475 67.393,44.475 C67.393,44.475 114.607,44.475 114.607,44.475 C117.323,44.475 119.525,46.690 119.525,49.423 C119.525,49.423 119.525,130.577 119.525,130.577 C119.525,133.310 117.323,135.525 114.607,135.525 zM91.000,131.566 C92.086,131.566 92.967,130.680 92.967,129.587 C92.967,128.494 92.086,127.608 91.000,127.608 C89.914,127.608 89.033,128.494 89.033,129.587 C89.033,130.680 89.914,131.566 91.000,131.566 zM115.591,51.403 C115.591,49.763 114.269,48.434 112.640,48.434 C112.640,48.434 69.360,48.434 69.360,48.434 C67.731,48.434 66.409,49.763 66.409,51.403 C66.409,51.403 66.409,120.680 66.409,120.680 C66.409,122.320 67.731,123.649 69.360,123.649 C69.360,123.649 112.640,123.649 112.640,123.649 C114.269,123.649 115.591,122.320 115.591,120.680 C115.591,120.680 115.591,51.403 115.591,51.403 z" fill="none" stroke="#2295F4" stroke-opacity="1.000" stroke-width="1" />
</g>
<g id="icon-email-copy">
<g id="Rounded-Rectangl" >
<path id="Rounded-Rectangl-fill" d="M77.000,74.000 C77.000,74.000 105.000,74.000 105.000,74.000 C106.657,74.000 108.000,75.343 108.000,77.000 C108.000,77.000 108.000,94.000 108.000,94.000 C108.000,95.657 106.657,97.000 105.000,97.000 C105.000,97.000 77.000,97.000 77.000,97.000 C75.343,97.000 74.000,95.657 74.000,94.000 C74.000,94.000 74.000,77.000 74.000,77.000 C74.000,75.343 75.343,74.000 77.000,74.000 z" fill="#BEDCF3" />
<path id="Rounded-Rectangl-stroke" d="M76.588,73.500 C76.588,73.500 105.412,73.500 105.412,73.500 C107.117,73.500 108.500,74.902 108.500,76.630 C108.500,76.630 108.500,94.370 108.500,94.370 C108.500,96.098 107.117,97.500 105.412,97.500 C105.412,97.500 76.588,97.500 76.588,97.500 C74.883,97.500 73.500,96.098 73.500,94.370 C73.500,94.370 73.500,76.630 73.500,76.630 C73.500,74.902 74.883,73.500 76.588,73.500 z" fill="none" stroke="#2295F4" stroke-opacity="1.000" stroke-width="1" stroke-linejoin="round" />
</g>
<path id="Rectangle-22" d="M108.454,74.667 L91.309,89.333 L91.163,88.594 L91.000,89.333 L73.545,75.065 L74.302,73.965 L91.138,87.655 L107.733,73.534 L108.454,74.667 z" fill="#2295F4" />
</g>
</g>
</g>
</svg>
