<svg version="1.1" xmlns="http://www.w3.org/2000/svg" xmlns:xlink="http://www.w3.org/1999/xlink" width="34" height="34" viewBox="0 0 34 34">
<g id="icon-chat-2">
<g id="Rounded-Rectangl" >
<path id="Rounded-Rectangl-fill" d="M29.000,26.000 C29.000,26.000 29.000,30.000 29.000,30.000 L22.000,26.000 C22.000,26.000 5.000,26.000 5.000,26.000 C3.012,26.000 1.000,23.988 1.000,22.000 C1.000,22.000 1.000,8.000 1.000,8.000 C1.000,6.011 3.012,4.000 5.000,4.000 C5.000,4.000 29.000,4.000 29.000,4.000 C30.988,4.000 33.000,6.011 33.000,8.000 C33.000,8.000 33.000,22.000 33.000,22.000 C33.000,23.988 30.988,26.000 29.000,26.000 zM23.000,11.000 L6.000,11.000 L6.000,13.000 L23.000,13.000 L23.000,11.000 zM28.000,17.000 L6.000,17.000 L6.000,19.000 L28.000,19.000 L28.000,17.000 z" fill="#BEDCF3" />
<path id="Rounded-Rectangl-stroke" d="M28.644,25.671 C28.644,25.671 28.644,29.525 28.644,29.525 L21.852,25.671 C21.852,25.671 5.356,25.671 5.356,25.671 C3.427,25.671 1.475,23.733 1.475,21.817 C1.475,21.817 1.475,8.329 1.475,8.329 C1.475,6.413 3.427,4.475 5.356,4.475 C5.356,4.475 28.644,4.475 28.644,4.475 C30.573,4.475 32.525,6.413 32.525,8.329 C32.525,8.329 32.525,21.817 32.525,21.817 C32.525,23.733 30.573,25.671 28.644,25.671 zM22.822,11.219 L6.327,11.219 L6.327,13.146 L22.822,13.146 L22.822,11.219 zM27.673,17.000 L6.327,17.000 L6.327,18.927 L27.673,18.927 L27.673,17.000 z" fill="none" stroke="#2295F4" stroke-opacity="1.000" stroke-width="1" />
</g>
</g>
</svg>
