<svg version="1.1" xmlns="http://www.w3.org/2000/svg" xmlns:xlink="http://www.w3.org/1999/xlink" width="50" height="16" viewBox="0 0 50 16">
<g id="icon-visa">
<path id="Forma-1" d="M46.708,0.297 C46.708,0.297 43.569,0.297 43.569,0.297 C42.595,0.297 41.868,0.573 41.440,1.583 C41.440,1.583 35.407,15.788 35.407,15.788 L39.674,15.788 C39.674,15.788 40.370,13.878 40.527,13.460 C40.995,13.460 45.141,13.467 45.733,13.467 C45.854,14.008 46.227,15.788 46.227,15.788 L49.998,15.788 L46.708,0.297 zM41.697,10.288 C42.033,9.397 43.316,5.956 43.316,5.956 C43.294,5.998 43.648,5.059 43.858,4.476 C43.858,4.476 44.132,5.812 44.132,5.812 C44.132,5.812 44.910,9.512 45.073,10.288 C45.073,10.288 41.697,10.288 41.697,10.288 zM35.694,10.716 C35.663,13.936 32.888,16.013 28.617,16.013 C26.795,15.994 25.040,15.619 24.089,15.187 C24.089,15.187 24.660,11.717 24.660,11.717 C24.660,11.717 25.184,11.964 25.184,11.964 C26.519,12.543 27.384,12.777 29.010,12.777 C30.178,12.777 31.429,12.302 31.441,11.264 C31.448,10.585 30.917,10.100 29.335,9.341 C27.792,8.599 25.749,7.356 25.775,5.130 C25.797,2.117 28.627,0.015 32.644,0.015 C34.218,0.015 35.479,0.351 36.284,0.665 C36.284,0.665 35.734,4.025 35.734,4.025 C35.734,4.025 35.367,3.846 35.367,3.846 C34.619,3.533 33.656,3.230 32.325,3.253 C30.735,3.253 29.996,3.941 29.996,4.586 C29.988,5.311 30.858,5.789 32.280,6.507 C34.626,7.611 35.710,8.954 35.694,10.716 zM18.379,0.294 L11.980,15.765 L7.681,15.771 C7.681,15.771 4.041,2.846 4.041,2.846 C6.657,4.587 8.885,7.348 9.670,9.269 C9.670,9.269 10.094,10.866 10.094,10.866 L14.074,0.296 L18.379,0.294 L18.379,0.294 zM20.022,0.282 L24.088,0.282 L21.545,15.782 L17.482,15.782 L20.022,0.282 z" fill="#5F5F5F" />
<path id="Rectangle-10" d="M0.005,0.458 C0.005,0.458 0.057,0.147 0.057,0.147 C0.057,0.147 6.357,0.147 6.357,0.147 C7.207,0.181 7.891,0.462 8.128,1.406 C8.128,1.406 9.498,8.255 9.498,8.255 C8.152,4.674 4.907,1.692 0.005,0.458 z" fill="#8A8A8A" />
</g>
</svg>
