<svg version="1.1" xmlns="http://www.w3.org/2000/svg" xmlns:xlink="http://www.w3.org/1999/xlink" width="77" height="21" viewBox="0 0 77 21">
<g id="icon-paypal">
<path id="Forma-1" d="M15.185,2.249 C14.907,1.705 14.468,1.256 13.922,0.920 C13.354,0.580 12.682,0.341 11.914,0.200 C11.133,0.062 10.231,-0.000 9.185,-0.010 C9.185,-0.010 4.358,-0.007 4.358,-0.007 C3.857,-0.000 3.365,0.381 3.248,0.855 C3.248,0.855 0.000,14.654 0.000,14.654 C-0.117,15.123 0.197,15.514 0.699,15.514 C0.699,15.514 3.010,15.514 3.010,15.514 C3.512,15.514 4.008,15.132 4.119,14.654 C4.119,14.654 4.912,11.304 4.912,11.304 C5.019,10.837 5.513,10.448 6.021,10.448 C6.021,10.448 6.681,10.448 6.681,10.448 C9.508,10.443 11.696,9.881 13.269,8.753 C14.850,7.623 15.630,6.130 15.630,4.281 C15.628,3.471 15.492,2.791 15.185,2.249 zM10.200,6.757 C9.502,7.256 8.530,7.506 7.277,7.506 C7.277,7.506 6.713,7.506 6.713,7.506 C6.210,7.506 5.902,7.118 6.011,6.646 C6.011,6.646 6.707,3.715 6.707,3.715 C6.805,3.245 7.311,2.857 7.808,2.860 C7.808,2.860 8.565,2.855 8.565,2.855 C9.449,2.855 10.125,3.004 10.576,3.294 C11.022,3.579 11.246,4.034 11.243,4.637 C11.254,5.554 10.896,6.259 10.200,6.757 zM41.974,4.957 C41.974,4.957 32.765,20.151 32.765,20.151 C32.469,20.626 31.814,21.009 31.316,21.009 C31.316,21.009 28.922,21.012 28.922,21.012 C28.425,21.012 28.262,20.626 28.565,20.153 C28.565,20.153 30.613,16.672 30.613,16.672 C30.613,16.672 30.778,16.470 30.631,15.338 C30.316,13.283 28.744,4.553 28.744,4.553 C28.631,4.080 28.937,3.692 29.436,3.692 C29.436,3.692 31.506,3.689 31.506,3.689 C32.141,3.689 32.651,4.096 32.765,4.573 C32.765,4.573 33.796,10.628 33.796,10.628 C33.796,10.628 34.180,10.633 34.180,10.633 C34.502,10.077 37.811,4.535 37.811,4.535 C38.127,4.067 38.767,3.674 39.266,3.674 C39.266,3.674 41.489,3.681 42.037,3.674 C42.860,3.658 41.974,4.957 41.974,4.957 zM26.330,4.221 C25.458,3.742 24.081,3.502 22.198,3.502 C21.267,3.502 20.340,3.573 19.402,3.714 C18.710,3.817 18.643,3.837 18.217,3.927 C17.338,4.115 17.200,4.970 17.200,4.970 C17.200,4.970 16.917,6.105 16.917,6.105 C16.758,6.830 17.185,6.802 17.363,6.741 C17.747,6.629 17.961,6.514 18.745,6.343 C19.495,6.177 20.284,6.052 20.910,6.061 C21.835,6.061 22.542,6.156 23.013,6.350 C23.478,6.547 23.710,6.885 23.710,7.375 C23.710,7.375 23.670,7.693 23.670,7.693 C23.670,7.693 23.336,7.894 23.336,7.894 C22.025,7.975 21.077,8.092 19.927,8.255 C18.803,8.408 17.816,8.676 16.997,9.042 C16.116,9.420 15.463,9.927 15.007,10.573 C14.565,11.222 14.345,12.008 14.345,12.932 C14.345,13.801 14.665,14.516 15.286,15.071 C15.911,15.617 16.735,15.883 17.722,15.883 C18.347,15.880 18.830,15.832 19.173,15.752 C19.173,15.752 20.293,15.376 20.293,15.376 L21.241,14.861 L22.112,14.301 L22.124,14.316 L22.037,14.677 L22.032,14.689 C22.032,14.689 22.032,14.693 22.032,14.693 C21.937,15.134 22.210,15.496 22.650,15.536 C22.650,15.536 22.658,15.548 22.658,15.548 L22.698,15.548 L24.471,15.548 L24.804,15.548 C24.804,15.548 24.835,15.533 24.835,15.533 C25.296,15.482 25.729,15.120 25.829,14.689 C25.829,14.689 27.515,7.575 27.515,7.575 L27.602,6.995 C27.602,6.995 27.643,6.452 27.643,6.452 C27.651,5.447 27.204,4.699 26.330,4.221 zM22.604,12.223 C22.604,12.223 22.244,12.688 22.244,12.688 C22.244,12.688 21.335,13.147 21.335,13.147 C20.907,13.314 20.502,13.403 20.126,13.403 C19.557,13.403 19.111,13.323 18.809,13.156 C18.809,13.156 18.364,12.312 18.364,12.312 C18.364,11.852 18.472,11.491 18.702,11.212 C18.702,11.212 19.681,10.561 19.681,10.561 C20.101,10.423 20.613,10.307 21.206,10.226 C21.734,10.162 22.777,10.045 22.914,10.042 C22.914,10.042 23.074,10.316 23.074,10.316 C23.042,10.469 22.745,11.677 22.604,12.223 z" fill="#626262" />
<path id="Rectangle-13" d="M57.157,2.300 C56.868,1.753 56.435,1.311 55.884,0.966 C55.324,0.624 54.655,0.385 53.876,0.247 C53.109,0.114 52.195,0.042 51.158,0.040 C51.158,0.040 46.324,0.043 46.324,0.043 C45.820,0.051 45.336,0.432 45.221,0.900 C45.221,0.900 41.971,14.709 41.971,14.709 C41.853,15.177 42.177,15.564 42.668,15.564 C42.668,15.564 44.983,15.561 44.983,15.561 C45.474,15.564 45.979,15.177 46.093,14.709 C46.093,14.709 46.877,11.357 46.877,11.357 C46.990,10.888 47.487,10.495 47.987,10.500 C47.987,10.500 48.649,10.500 48.649,10.500 C51.478,10.500 53.672,9.932 55.251,8.807 C56.812,7.669 57.601,6.179 57.601,4.328 C57.594,3.520 57.450,2.838 57.157,2.300 zM52.172,6.815 C51.475,7.304 50.502,7.554 49.256,7.554 C49.256,7.554 48.680,7.554 48.680,7.554 C48.184,7.558 47.862,7.165 47.973,6.695 C47.973,6.695 48.674,3.770 48.674,3.770 C48.776,3.302 49.280,2.909 49.779,2.914 C49.779,2.914 50.530,2.909 50.530,2.909 C51.419,2.914 52.085,3.057 52.541,3.346 C52.991,3.635 53.206,4.088 53.213,4.690 C53.216,5.607 52.866,6.312 52.172,6.815 zM68.310,4.231 C67.434,3.751 66.058,3.510 64.180,3.510 C63.250,3.510 62.319,3.581 61.385,3.726 C60.692,3.825 60.623,3.847 60.195,3.936 C59.317,4.121 59.182,4.980 59.182,4.980 C59.182,4.980 58.899,6.113 58.899,6.113 C58.742,6.837 59.161,6.804 59.353,6.749 C59.738,6.637 59.947,6.527 60.724,6.350 C61.472,6.185 62.266,6.064 62.896,6.068 C63.815,6.068 64.522,6.164 64.994,6.358 C65.463,6.555 65.691,6.897 65.691,7.381 C65.691,7.381 65.656,7.699 65.656,7.699 C65.656,7.699 65.324,7.904 65.324,7.904 C64.001,7.981 63.052,8.099 61.913,8.262 C60.792,8.414 59.800,8.680 58.978,9.049 C58.102,9.428 57.440,9.936 56.989,10.581 C56.545,11.230 56.328,12.014 56.328,12.932 C56.328,13.807 56.646,14.523 57.272,15.075 C57.902,15.618 58.719,15.891 59.705,15.891 C60.327,15.885 60.810,15.845 61.155,15.758 C61.155,15.758 62.273,15.389 62.273,15.389 L63.226,14.874 L64.091,14.306 L64.108,14.324 L64.029,14.686 L64.019,14.693 C64.019,14.693 64.024,14.699 64.024,14.699 C63.920,15.140 64.193,15.505 64.639,15.545 C64.639,15.545 64.642,15.553 64.642,15.553 L64.683,15.553 C64.683,15.553 64.683,15.553 64.683,15.553 C64.974,15.553 65.980,15.553 66.460,15.553 C66.460,15.553 66.788,15.553 66.788,15.553 C66.788,15.553 66.820,15.541 66.820,15.541 C67.277,15.487 67.710,15.126 67.804,14.693 C67.804,14.693 69.495,7.585 69.495,7.585 L69.582,7.002 C69.582,7.002 69.632,6.456 69.632,6.456 C69.632,5.453 69.193,4.709 68.310,4.231 zM64.591,12.232 C64.591,12.232 64.218,12.701 64.218,12.701 C64.218,12.701 63.315,13.158 63.315,13.158 C62.888,13.323 62.480,13.413 62.112,13.413 C61.527,13.413 61.089,13.333 60.797,13.166 C60.797,13.166 60.346,12.324 60.346,12.324 C60.346,11.863 60.458,11.504 60.678,11.222 C60.902,10.952 61.244,10.734 61.668,10.573 C62.082,10.434 62.594,10.323 63.191,10.239 C63.715,10.174 64.755,10.055 64.890,10.053 C64.890,10.053 65.051,10.329 65.051,10.329 C65.028,10.481 64.729,11.684 64.591,12.232 zM76.979,1.010 C76.979,1.010 76.984,1.012 76.984,1.012 L73.890,14.693 C73.890,14.693 73.778,14.858 73.778,14.858 C73.597,15.241 73.204,15.554 72.782,15.554 C72.782,15.554 70.631,15.554 70.631,15.554 C70.631,15.554 70.597,15.508 70.597,15.508 C70.186,15.447 69.918,15.126 70.016,14.706 C70.016,14.706 70.013,14.693 70.013,14.693 L70.105,14.298 L73.000,1.465 L73.104,1.018 C73.104,1.018 73.219,0.844 73.219,0.844 C73.406,0.466 73.788,0.159 74.212,0.159 C74.212,0.159 76.283,0.159 76.283,0.159 C76.782,0.156 77.082,0.540 76.979,1.010 z" fill="#7F7F7F" />
</g>
</svg>
