<svg version="1.1" xmlns="http://www.w3.org/2000/svg" xmlns:xlink="http://www.w3.org/1999/xlink" width="140" height="140" viewBox="0 0 140 140">
<g id="icon-prise">
<path id="Ellipse-1" d="M70.000,-0.000 C108.660,-0.000 140.000,31.340 140.000,70.000 C140.000,108.660 108.660,140.000 70.000,140.000 C31.340,140.000 -0.000,108.660 -0.000,70.000 C-0.000,31.340 31.340,-0.000 70.000,-0.000 z" fill="#ECF7FF" />
<g id="Rectangle-19" >
<path id="Rectangle-19-fill" d="M90.000,108.000 C90.000,108.000 52.000,108.000 52.000,108.000 C49.791,108.000 48.000,106.209 48.000,104.000 C48.000,104.000 48.000,52.000 48.000,52.000 C48.000,52.000 67.200,30.000 71.000,30.000 C74.800,30.000 94.000,52.000 94.000,52.000 C94.000,52.000 94.000,104.000 94.000,104.000 C94.000,106.209 92.209,108.000 90.000,108.000 zM71.000,36.000 C69.895,36.000 69.000,36.895 69.000,38.000 C69.000,39.105 69.895,40.000 71.000,40.000 C72.105,40.000 73.000,39.105 73.000,38.000 C73.000,36.895 72.105,36.000 71.000,36.000 zM70.445,85.493 C70.672,85.361 71.066,85.295 71.626,85.295 C72.801,85.295 74.120,85.614 75.583,86.251 C75.583,86.251 76.832,83.353 76.832,83.353 C75.418,82.763 74.015,82.431 72.623,82.357 C72.623,82.357 72.623,80.984 72.623,80.984 L70.450,80.984 C70.450,80.984 70.450,82.377 70.450,82.377 C68.966,82.526 67.854,82.916 67.112,83.546 C66.370,84.176 66.000,85.051 66.000,86.169 C66.000,86.902 66.124,87.513 66.372,88.005 C66.621,88.496 67.018,88.940 67.564,89.336 C68.109,89.733 68.827,90.091 69.715,90.409 C70.506,90.688 71.134,90.925 71.599,91.121 C72.065,91.318 72.397,91.494 72.596,91.650 C72.796,91.806 72.896,91.995 72.896,92.219 C72.896,92.544 72.757,92.777 72.481,92.916 C72.204,93.055 71.769,93.124 71.174,93.124 C70.453,93.124 69.617,92.990 68.666,92.722 C67.714,92.455 66.832,92.121 66.021,91.721 C66.021,91.721 66.021,95.097 66.021,95.097 C67.441,95.693 68.918,96.025 70.450,96.093 C70.450,96.093 70.450,97.994 70.450,97.994 L72.623,97.994 C72.623,97.994 72.623,96.032 72.623,96.032 C74.050,95.863 75.137,95.422 75.882,94.710 C76.627,93.999 77.000,93.073 77.000,91.935 C77.000,90.925 76.681,90.099 76.044,89.459 C75.408,88.818 74.358,88.247 72.896,87.746 C72.175,87.508 71.611,87.300 71.206,87.120 C70.800,86.941 70.515,86.778 70.350,86.632 C70.186,86.486 70.104,86.301 70.104,86.078 C70.104,85.820 70.217,85.626 70.445,85.493 z" fill="#BEDCF3" />
<path id="Rectangle-19-stroke" d="M89.608,107.525 C89.608,107.525 52.392,107.525 52.392,107.525 C50.229,107.525 48.475,105.756 48.475,103.573 C48.475,103.573 48.475,52.207 48.475,52.207 C48.475,52.207 67.278,30.475 71.000,30.475 C74.722,30.475 93.525,52.207 93.525,52.207 C93.525,52.207 93.525,103.573 93.525,103.573 C93.525,105.756 91.771,107.525 89.608,107.525 zM71.000,36.402 C69.918,36.402 69.041,37.286 69.041,38.378 C69.041,39.469 69.918,40.353 71.000,40.353 C72.082,40.353 72.959,39.469 72.959,38.378 C72.959,37.286 72.082,36.402 71.000,36.402 zM70.456,85.292 C70.679,85.162 71.064,85.097 71.613,85.097 C72.764,85.097 74.056,85.411 75.488,86.041 C75.488,86.041 76.711,83.178 76.711,83.178 C75.327,82.596 73.953,82.268 72.589,82.194 C72.589,82.194 72.589,80.838 72.589,80.838 L70.461,80.838 C70.461,80.838 70.461,82.214 70.461,82.214 C69.008,82.361 67.919,82.746 67.192,83.369 C66.466,83.992 66.103,84.856 66.103,85.960 C66.103,86.684 66.224,87.288 66.468,87.773 C66.711,88.259 67.100,88.697 67.635,89.089 C68.169,89.481 68.871,89.834 69.742,90.149 C70.516,90.423 71.131,90.658 71.587,90.852 C72.043,91.046 72.368,91.220 72.563,91.374 C72.759,91.528 72.856,91.715 72.856,91.936 C72.856,92.258 72.721,92.487 72.450,92.624 C72.180,92.762 71.753,92.830 71.171,92.830 C70.465,92.830 69.646,92.698 68.714,92.434 C67.782,92.169 66.918,91.839 66.123,91.444 C66.123,91.444 66.123,94.779 66.123,94.779 C67.514,95.368 68.961,95.696 70.461,95.763 C70.461,95.763 70.461,97.641 70.461,97.641 L72.589,97.641 C72.589,97.641 72.589,95.703 72.589,95.703 C73.987,95.535 75.051,95.100 75.781,94.397 C76.511,93.694 76.876,92.780 76.876,91.655 C76.876,90.658 76.564,89.842 75.940,89.210 C75.317,88.577 74.289,88.013 72.856,87.517 C72.151,87.283 71.599,87.077 71.202,86.900 C70.804,86.722 70.525,86.561 70.364,86.417 C70.203,86.273 70.122,86.091 70.122,85.870 C70.122,85.615 70.233,85.423 70.456,85.292 z" fill="none" stroke="#2295F4" stroke-opacity="1.000" stroke-width="1" />
</g>
<path id="Shape-2" d="M71.000,37.000 C72.000,36.666 64.833,29.500 66.000,24.000 C67.167,18.500 71.833,22.666 75.000,21.000 C78.167,19.333 76.000,17.000 76.000,17.000 C76.000,17.000 76.667,18.666 74.000,20.000 C71.333,21.333 65.333,16.666 65.000,24.000 C64.667,31.333 70.000,37.333 71.000,37.000 z" fill="#2295F4" />
<path id="Ellipse-8" d="M75.500,65.000 C74.672,65.000 74.000,64.328 74.000,63.500 C74.000,62.672 74.672,62.000 75.500,62.000 C76.328,62.000 77.000,62.672 77.000,63.500 C77.000,64.328 76.328,65.000 75.500,65.000 zM65.500,65.000 C64.672,65.000 64.000,64.328 64.000,63.500 C64.000,62.672 64.672,62.000 65.500,62.000 C66.328,62.000 67.000,62.672 67.000,63.500 C67.000,64.328 66.328,65.000 65.500,65.000 z" fill="#2295F4" />
<path id="Ellipse-9" d="M71.000,73.000 C79.911,73.000 87.207,70.579 87.928,67.500 C87.967,67.665 88.000,67.831 88.000,68.000 C88.000,71.314 80.389,74.000 71.000,74.000 C61.611,74.000 54.000,71.314 54.000,68.000 C54.000,67.831 54.033,67.665 54.072,67.500 C54.793,70.579 62.089,73.000 71.000,73.000 z" fill="#2295F4" />
</g>
</svg>
