<svg version="1.1" xmlns="http://www.w3.org/2000/svg" xmlns:xlink="http://www.w3.org/1999/xlink" width="104" height="26" viewBox="0 0 104 26">
<g id="icon-moneback">
<path id="Moneyback" d="M104.013,13.679 L100.158,13.679 L98.020,10.111 L96.924,10.963 L96.924,13.679 L93.535,13.679 L93.535,0.004 L96.924,0.004 C96.924,0.004 96.924,5.382 96.924,5.382 C96.924,6.302 96.861,7.202 96.735,8.081 C96.735,8.081 96.804,8.081 96.804,8.081 C97.212,7.419 97.560,6.903 97.847,6.534 C97.847,6.534 100.038,3.721 100.038,3.721 L103.797,3.721 L100.408,7.957 L104.013,13.679 zM89.810,6.406 C89.465,6.298 89.106,6.244 88.732,6.244 C88.186,6.244 87.763,6.461 87.464,6.894 C87.165,7.328 87.016,7.940 87.016,8.731 C87.016,10.325 87.594,11.122 88.749,11.122 C89.738,11.122 90.687,10.829 91.595,10.243 C91.595,10.243 91.595,12.976 91.595,12.976 C90.727,13.562 89.683,13.855 88.465,13.855 C86.866,13.855 85.655,13.416 84.830,12.537 C84.005,11.658 83.592,10.395 83.592,8.749 C83.592,7.096 84.038,5.816 84.929,4.908 C85.820,4.000 87.088,3.546 88.732,3.546 C89.865,3.546 90.931,3.798 91.931,4.301 C91.931,4.301 90.940,6.841 90.940,6.841 C90.531,6.660 90.155,6.515 89.810,6.406 zM78.737,12.361 C78.737,12.361 78.668,12.361 78.668,12.361 C78.214,12.935 77.751,13.328 77.280,13.539 C76.808,13.750 76.199,13.855 75.452,13.855 C74.532,13.855 73.807,13.574 73.279,13.012 C72.750,12.449 72.485,11.658 72.485,10.638 C72.485,9.578 72.847,8.788 73.572,8.270 C74.296,7.751 75.345,7.460 76.719,7.395 C76.719,7.395 78.349,7.342 78.349,7.342 C78.349,7.342 78.349,7.202 78.349,7.202 C78.349,6.381 77.953,5.971 77.159,5.971 C76.446,5.971 75.541,6.218 74.443,6.710 C74.443,6.710 73.468,4.442 73.468,4.442 C74.607,3.845 76.044,3.546 77.780,3.546 C79.033,3.546 80.004,3.862 80.691,4.495 C81.378,5.128 81.721,6.013 81.721,7.149 C81.721,7.149 81.721,13.679 81.721,13.679 L79.384,13.679 L78.737,12.361 zM78.367,9.232 C78.367,9.232 77.590,9.267 77.590,9.267 C76.481,9.308 75.926,9.724 75.926,10.515 C75.926,11.125 76.245,11.429 76.883,11.429 C77.291,11.429 77.641,11.298 77.931,11.034 C78.221,10.770 78.367,10.427 78.367,10.006 C78.367,10.006 78.367,9.232 78.367,9.232 zM67.518,13.855 C67.156,13.855 66.834,13.816 66.552,13.736 C66.271,13.657 66.019,13.547 65.798,13.407 C65.576,13.266 65.319,13.032 65.026,12.704 C65.026,12.704 64.819,12.704 64.819,12.704 L64.284,13.679 L61.654,13.679 L61.654,0.004 L65.026,0.004 C65.026,0.004 65.026,3.097 65.026,3.097 C65.026,3.466 64.986,4.102 64.905,5.005 C64.905,5.005 65.026,5.005 65.026,5.005 C65.354,4.489 65.731,4.117 66.160,3.888 C66.588,3.660 67.075,3.546 67.622,3.546 C68.685,3.546 69.529,4.000 70.153,4.908 C70.776,5.816 71.088,7.073 71.088,8.678 C71.088,10.296 70.773,11.563 70.144,12.480 C69.514,13.397 68.639,13.855 67.518,13.855 zM66.388,6.244 C65.917,6.244 65.572,6.411 65.354,6.745 C65.135,7.079 65.026,7.603 65.026,8.318 C65.026,8.318 65.026,8.801 65.026,8.801 C65.026,9.616 65.135,10.200 65.354,10.555 C65.572,10.909 65.928,11.086 66.423,11.086 C66.820,11.086 67.124,10.880 67.337,10.467 C67.550,10.054 67.656,9.446 67.656,8.643 C67.656,7.043 67.234,6.244 66.388,6.244 zM54.803,17.169 C54.081,17.725 53.140,18.003 51.978,18.003 C51.530,18.003 51.070,17.954 50.599,17.854 C50.599,17.854 50.599,15.156 50.599,15.156 C50.903,15.226 51.251,15.261 51.642,15.261 C51.941,15.261 52.203,15.203 52.427,15.086 C52.651,14.968 52.846,14.803 53.013,14.589 C53.180,14.375 53.358,14.025 53.548,13.539 C53.548,13.539 49.702,3.721 49.702,3.721 L53.255,3.721 C53.255,3.721 54.910,9.434 54.910,9.434 C54.991,9.733 55.045,10.093 55.074,10.515 C55.074,10.515 55.143,10.515 55.143,10.515 C55.189,10.111 55.258,9.757 55.350,9.452 C55.350,9.452 57.049,3.721 57.049,3.721 L60.490,3.721 C60.490,3.721 56.627,14.312 56.627,14.312 C56.132,15.660 55.524,16.612 54.803,17.169 zM43.549,10.937 C43.925,11.253 44.438,11.412 45.088,11.412 C45.680,11.412 46.225,11.355 46.722,11.240 C47.220,11.126 47.759,10.931 48.339,10.656 C48.339,10.656 48.339,13.126 48.339,13.126 C47.810,13.401 47.264,13.592 46.701,13.697 C46.137,13.802 45.465,13.855 44.683,13.855 C43.056,13.855 41.793,13.414 40.893,12.532 C39.993,11.650 39.543,10.395 39.543,8.766 C39.543,7.084 39.960,5.794 40.794,4.894 C41.627,3.995 42.817,3.546 44.364,3.546 C45.835,3.546 46.972,3.937 47.774,4.719 C48.576,5.501 48.977,6.628 48.977,8.098 C48.977,8.098 48.977,9.627 48.977,9.627 C48.977,9.627 42.950,9.627 42.950,9.627 C42.973,10.184 43.172,10.621 43.549,10.937 zM45.916,7.465 C45.904,6.985 45.771,6.601 45.515,6.314 C45.259,6.027 44.916,5.883 44.485,5.883 C44.088,5.883 43.756,6.011 43.489,6.266 C43.221,6.521 43.065,6.920 43.019,7.465 C43.019,7.465 45.916,7.465 45.916,7.465 zM34.300,8.248 C34.300,7.586 34.207,7.086 34.020,6.749 C33.833,6.412 33.533,6.244 33.119,6.244 C32.550,6.244 32.139,6.475 31.886,6.938 C31.632,7.401 31.506,8.195 31.506,9.320 C31.506,9.320 31.506,13.679 31.506,13.679 L28.134,13.679 L28.134,3.721 L30.678,3.721 L31.101,4.952 C31.101,4.952 31.299,4.952 31.299,4.952 C31.587,4.483 31.985,4.131 32.493,3.897 C33.002,3.663 33.587,3.546 34.248,3.546 C35.329,3.546 36.170,3.865 36.771,4.503 C37.371,5.142 37.672,6.041 37.672,7.202 C37.672,7.202 37.672,13.679 37.672,13.679 L34.300,13.679 C34.300,13.679 34.300,8.248 34.300,8.248 zM21.313,13.855 C19.830,13.855 18.650,13.389 17.773,12.458 C16.896,11.526 16.458,10.266 16.458,8.678 C16.458,7.055 16.888,5.794 17.747,4.894 C18.607,3.995 19.813,3.546 21.365,3.546 C22.325,3.546 23.173,3.754 23.909,4.169 C24.645,4.586 25.212,5.182 25.612,5.958 C26.011,6.735 26.211,7.641 26.211,8.678 C26.211,10.307 25.781,11.577 24.922,12.488 C24.063,13.400 22.860,13.855 21.313,13.855 zM22.451,6.753 C22.233,6.320 21.859,6.103 21.330,6.103 C20.813,6.103 20.442,6.319 20.218,6.749 C19.994,7.180 19.882,7.823 19.882,8.678 C19.882,9.534 19.994,10.186 20.218,10.634 C20.442,11.082 20.819,11.306 21.348,11.306 C21.871,11.306 22.240,11.082 22.456,10.634 C22.671,10.186 22.779,9.534 22.779,8.678 C22.779,7.829 22.670,7.187 22.451,6.753 zM11.232,8.046 C11.232,7.753 11.236,7.427 11.245,7.070 C11.254,6.712 11.293,5.837 11.362,4.442 C11.362,4.442 11.284,4.442 11.284,4.442 L8.740,13.679 L5.497,13.679 L2.919,4.424 C2.919,4.424 2.841,4.424 2.841,4.424 C2.962,6.001 3.022,7.225 3.022,8.098 C3.022,8.098 3.022,13.679 3.022,13.679 L0.004,13.679 L0.004,0.830 L4.540,0.830 L7.170,9.953 L7.239,9.953 L9.818,0.830 L14.363,0.830 L14.363,13.679 L11.232,13.679 C11.232,13.679 11.232,8.046 11.232,8.046 z" fill="#909090" />
<path id="Rectangle-18" d="M85.991,24.531 L85.991,25.895 L81.265,25.895 L81.265,18.102 L85.991,18.102 L85.991,19.456 L83.005,19.456 L83.005,21.167 L85.784,21.167 L85.784,22.521 L83.005,22.521 L83.005,24.531 L85.991,24.531 zM74.827,18.102 L79.553,18.102 L79.553,19.456 L76.567,19.456 L76.567,21.167 L79.345,21.167 L79.345,22.521 L76.567,22.521 L76.567,24.531 L79.553,24.531 L79.553,25.895 L74.827,25.895 L74.827,18.102 zM71.336,25.895 L69.595,25.895 L69.595,19.477 L67.367,19.477 L67.367,18.102 L73.564,18.102 L73.564,19.477 L71.336,19.477 L71.336,25.895 zM60.323,19.999 C60.323,19.999 60.272,19.999 60.272,19.999 C60.343,21.041 60.379,21.783 60.379,22.228 C60.379,22.228 60.379,25.895 60.379,25.895 L58.824,25.895 L58.824,18.102 L61.019,18.102 L64.583,23.939 C64.583,23.939 64.622,23.939 64.622,23.939 C64.566,22.926 64.538,22.210 64.538,21.790 C64.538,21.790 64.538,18.102 64.538,18.102 L66.104,18.102 L66.104,25.895 L63.893,25.895 L60.323,19.999 zM55.321,24.040 L52.330,24.040 L51.735,25.895 L49.860,25.895 L52.756,18.070 L54.884,18.070 L57.791,25.895 L55.916,25.895 L55.321,24.040 zM53.977,19.802 C53.908,19.582 53.858,19.408 53.828,19.280 C53.705,19.735 53.351,20.859 52.767,22.654 C52.767,22.654 54.906,22.654 54.906,22.654 C54.356,20.973 54.046,20.023 53.977,19.802 zM45.970,22.905 L45.044,22.905 L45.044,25.895 L43.304,25.895 L43.304,18.102 C43.304,18.102 45.695,18.102 45.695,18.102 C46.810,18.102 47.635,18.295 48.170,18.680 C48.705,19.066 48.973,19.651 48.973,20.437 C48.973,20.895 48.840,21.303 48.574,21.660 C48.309,22.017 47.933,22.297 47.446,22.500 C48.681,24.252 49.486,25.384 49.860,25.895 C49.860,25.895 47.929,25.895 47.929,25.895 L45.970,22.905 zM46.815,19.690 C46.547,19.534 46.133,19.456 45.571,19.456 C45.571,19.456 45.044,19.456 45.044,19.456 L45.044,21.561 C45.044,21.561 45.605,21.561 45.605,21.561 C46.155,21.561 46.561,21.474 46.823,21.300 C47.085,21.126 47.216,20.852 47.216,20.479 C47.216,20.110 47.082,19.847 46.815,19.690 zM39.801,24.040 L36.809,24.040 L36.214,25.895 L34.340,25.895 L37.236,18.070 L39.363,18.070 L42.271,25.895 L40.396,25.895 L39.801,24.040 zM38.457,19.802 C38.388,19.582 38.338,19.408 38.308,19.280 C38.185,19.735 37.831,20.859 37.247,22.654 C37.247,22.654 39.386,22.654 39.386,22.654 C38.836,20.973 38.526,20.023 38.457,19.802 zM31.780,25.656 C31.267,25.886 30.661,26.002 29.961,26.002 C28.906,26.002 28.087,25.745 27.503,25.232 C26.919,24.718 26.627,24.015 26.627,23.123 C26.627,23.123 26.627,18.102 26.627,18.102 L28.362,18.102 C28.362,18.102 28.362,22.873 28.362,22.873 C28.362,23.473 28.489,23.914 28.743,24.195 C28.998,24.476 29.419,24.616 30.006,24.616 C30.575,24.616 30.988,24.474 31.244,24.192 C31.500,23.910 31.628,23.466 31.628,22.862 C31.628,22.862 31.628,18.102 31.628,18.102 L33.363,18.102 C33.363,18.102 33.363,23.145 33.363,23.145 C33.363,23.720 33.227,24.225 32.956,24.659 C32.685,25.092 32.293,25.424 31.780,25.656 zM21.811,26.002 C20.573,26.002 19.627,25.656 18.974,24.965 C18.321,24.274 17.994,23.281 17.994,21.988 C17.994,20.730 18.373,19.749 19.131,19.045 C19.889,18.341 20.939,17.990 22.283,17.990 C23.125,17.990 23.937,18.150 24.719,18.470 C24.719,18.470 24.141,19.792 24.141,19.792 C23.542,19.507 22.919,19.365 22.271,19.365 C21.519,19.365 20.917,19.605 20.464,20.085 C20.011,20.565 19.785,21.210 19.785,22.020 C19.785,22.865 19.967,23.511 20.332,23.958 C20.697,24.404 21.227,24.627 21.923,24.627 C22.286,24.627 22.655,24.591 23.029,24.520 C23.029,24.520 23.029,22.894 23.029,22.894 L21.474,22.894 L21.474,21.519 L24.730,21.519 C24.730,21.519 24.730,25.559 24.730,25.559 C24.202,25.723 23.706,25.837 23.240,25.903 C22.774,25.969 22.298,26.002 21.811,26.002 z" fill="#626262" />
</g>
</svg>
