<svg version="1.1" xmlns="http://www.w3.org/2000/svg" xmlns:xlink="http://www.w3.org/1999/xlink" width="180" height="180" viewBox="0 0 180 180">
<g id="icon-phone-yes">
<path id="Ellipse-1-copy" d="M90.000,-0.000 C139.706,-0.000 180.000,40.294 180.000,90.000 C180.000,139.706 139.706,180.000 90.000,180.000 C40.294,180.000 -0.000,139.706 -0.000,90.000 C-0.000,40.294 40.294,-0.000 90.000,-0.000 z" fill="#ECF7FF" />
<g id="Group-2">
<g id="Rounded-Rectangl" >
<path id="Rounded-Rectangl-fill" d="M116.000,138.000 C116.000,138.000 65.000,138.000 65.000,138.000 C62.239,138.000 60.000,135.761 60.000,133.000 C60.000,133.000 60.000,49.000 60.000,49.000 C60.000,46.239 62.239,44.000 65.000,44.000 C65.000,44.000 116.000,44.000 116.000,44.000 C118.761,44.000 121.000,46.239 121.000,49.000 C121.000,49.000 121.000,133.000 121.000,133.000 C121.000,135.761 118.761,138.000 116.000,138.000 zM91.000,133.000 C92.105,133.000 93.000,132.105 93.000,131.000 C93.000,129.895 92.105,129.000 91.000,129.000 C89.895,129.000 89.000,129.895 89.000,131.000 C89.000,132.105 89.895,133.000 91.000,133.000 zM117.000,51.000 C117.000,49.343 115.657,48.000 114.000,48.000 C114.000,48.000 67.000,48.000 67.000,48.000 C65.343,48.000 64.000,49.343 64.000,51.000 C64.000,51.000 64.000,121.000 64.000,121.000 C64.000,122.657 65.343,124.000 67.000,124.000 C67.000,124.000 114.000,124.000 114.000,124.000 C115.657,124.000 117.000,122.657 117.000,121.000 C117.000,121.000 117.000,51.000 117.000,51.000 z" fill="#BEDCF3" />
<path id="Rounded-Rectangl-stroke" d="M115.603,137.525 C115.603,137.525 65.397,137.525 65.397,137.525 C62.679,137.525 60.475,135.309 60.475,132.576 C60.475,132.576 60.475,49.424 60.475,49.424 C60.475,46.691 62.679,44.475 65.397,44.475 C65.397,44.475 115.603,44.475 115.603,44.475 C118.321,44.475 120.525,46.691 120.525,49.424 C120.525,49.424 120.525,132.576 120.525,132.576 C120.525,135.309 118.321,137.525 115.603,137.525 zM90.992,132.576 C92.080,132.576 92.961,131.689 92.961,130.596 C92.961,129.502 92.080,128.616 90.992,128.616 C89.905,128.616 89.023,129.502 89.023,130.596 C89.023,131.689 89.905,132.576 90.992,132.576 zM116.587,51.404 C116.587,49.764 115.265,48.435 113.634,48.435 C113.634,48.435 67.366,48.435 67.366,48.435 C65.735,48.435 64.413,49.764 64.413,51.404 C64.413,51.404 64.413,120.697 64.413,120.697 C64.413,122.337 65.735,123.666 67.366,123.666 C67.366,123.666 113.634,123.666 113.634,123.666 C115.265,123.666 116.587,122.337 116.587,120.697 C116.587,120.697 116.587,51.404 116.587,51.404 z" fill="none" stroke="#2295F4" stroke-opacity="1.000" stroke-width="1" />
</g>
<path id="Rounded-Rectangl" d="M108.525,113.000 C108.525,113.000 92.030,113.000 92.030,113.000 C89.871,113.000 88.121,111.209 88.121,108.999 C88.121,106.790 89.871,105.000 92.030,105.000 C92.030,105.000 108.091,105.000 108.091,105.000 C110.250,105.000 112.000,106.790 112.000,108.999 C112.000,111.209 112.000,115.666 112.000,115.666 L108.525,113.000 zM102.030,88.999 C99.871,88.999 98.121,87.209 98.121,84.999 C98.121,82.790 99.871,80.999 102.030,80.999 C102.030,80.999 108.091,80.999 108.091,80.999 C110.250,80.999 112.000,82.790 112.000,84.999 C112.000,87.209 112.000,91.666 112.000,91.666 L108.525,88.999 C108.525,88.999 102.030,88.999 102.030,88.999 zM82.030,62.999 C79.871,62.999 78.121,61.209 78.121,58.999 C78.121,56.790 79.871,55.000 82.030,55.000 C82.030,55.000 108.091,55.000 108.091,55.000 C110.250,55.000 112.000,56.790 112.000,58.999 C112.000,61.209 112.000,65.666 112.000,65.666 L108.525,62.999 C108.525,62.999 82.030,62.999 82.030,62.999 z" fill="#2295F4" />
<path id="Rounded-Rectangl" d="M95.000,101.000 C95.000,101.000 73.000,101.000 73.000,101.000 L69.000,103.727 C69.000,103.727 69.000,99.244 69.000,97.022 C69.000,94.801 70.757,93.000 72.924,93.000 C72.924,93.000 95.080,93.000 95.080,93.000 C97.247,93.000 99.004,94.801 99.004,97.022 C99.004,99.244 97.167,101.000 95.000,101.000 zM89.000,76.000 C89.000,76.000 73.000,76.000 73.000,76.000 L69.000,78.727 C69.000,78.727 69.000,74.244 69.000,72.022 C69.000,69.801 70.757,67.999 72.924,67.999 C72.924,67.999 89.080,67.999 89.080,67.999 C91.247,67.999 93.004,69.801 93.004,72.022 C93.004,74.244 91.167,76.000 89.000,76.000 z" fill="#BEDCF3" />
</g>
<path id="Ellipse-2-copy" d="M155.000,10.000 C163.284,10.000 170.000,16.716 170.000,25.000 C170.000,33.284 163.284,40.000 155.000,40.000 C146.716,40.000 140.000,33.284 140.000,25.000 C140.000,16.716 146.716,10.000 155.000,10.000 z" fill="#5CC75A" />
<path id="Rectangle-4-copy" d="M162.657,20.757 L154.414,29.000 L154.657,29.242 L153.243,30.656 L153.000,30.414 L152.757,30.656 L151.343,29.242 L151.586,29.000 L147.343,24.757 L148.757,23.343 L153.000,27.585 L161.243,19.343 L162.657,20.757 z" fill="#FFFFFF" />
</g>
</svg>
