<svg version="1.1" xmlns="http://www.w3.org/2000/svg" xmlns:xlink="http://www.w3.org/1999/xlink" width="34" height="40" viewBox="0 0 34 40">
<g id="icon-chat">
<g id="6" >
<path id="6-fill" d="M29.083,8.000 C29.083,8.000 3.917,8.000 3.917,8.000 C2.308,8.000 1.000,9.345 1.000,11.000 C1.000,11.000 1.000,26.571 1.000,26.571 C1.000,28.045 2.038,29.274 3.402,29.524 C2.764,30.588 2.038,31.580 2.030,31.592 C2.027,31.596 2.024,31.600 2.021,31.604 C1.900,31.758 1.833,31.947 1.833,32.143 C1.833,32.615 2.207,33.000 2.667,33.000 C2.781,33.000 2.895,32.972 3.007,32.919 C4.064,32.611 7.003,31.945 9.000,30.000 C9.000,30.000 29.000,30.000 29.000,30.000 C30.608,30.000 32.000,28.225 32.000,26.571 C32.000,26.571 32.000,11.000 32.000,11.000 C32.000,9.345 30.692,8.000 29.083,8.000 z" fill="#BEDCF3" />
<path id="6-stroke" d="M28.698,8.475 C28.698,8.475 4.302,8.475 4.302,8.475 C2.743,8.475 1.475,9.769 1.475,11.361 C1.475,11.361 1.475,26.340 1.475,26.340 C1.475,27.758 2.481,28.940 3.803,29.181 C3.185,30.205 2.481,31.159 2.473,31.171 C2.471,31.174 2.468,31.178 2.465,31.182 C2.347,31.330 2.283,31.512 2.283,31.700 C2.283,32.154 2.645,32.525 3.091,32.525 C3.201,32.525 3.312,32.498 3.421,32.447 C4.445,32.150 7.294,31.510 9.230,29.639 C9.230,29.639 28.617,29.639 28.617,29.639 C30.176,29.639 31.525,27.932 31.525,26.340 C31.525,26.340 31.525,11.361 31.525,11.361 C31.525,9.769 30.257,8.475 28.698,8.475 z" fill="none" stroke="#2295F4" stroke-opacity="1.000" stroke-width="1" />
</g>
</g>
</svg>
