<svg version="1.1" xmlns="http://www.w3.org/2000/svg" xmlns:xlink="http://www.w3.org/1999/xlink" width="34" height="34" viewBox="0 0 34 34">
<g id="icon-info">
<g id="Ellipse-7" >
<path id="Ellipse-7-fill" d="M17.000,32.594 C8.388,32.594 1.406,25.612 1.406,17.000 C1.406,8.388 8.388,1.406 17.000,1.406 C25.612,1.406 32.594,8.388 32.594,17.000 C32.594,25.612 25.612,32.594 17.000,32.594 zM12.566,14.924 C12.566,14.924 12.319,15.995 12.319,15.995 C12.499,15.924 12.714,15.847 12.966,15.769 C13.216,15.690 13.462,15.650 13.701,15.650 C14.190,15.650 14.518,15.738 14.691,15.912 C14.863,16.086 14.950,16.396 14.950,16.839 C14.950,17.084 14.922,17.356 14.866,17.653 C14.810,17.950 14.739,18.265 14.657,18.598 C14.657,18.598 13.732,22.068 13.732,22.068 C13.650,22.433 13.590,22.759 13.552,23.049 C13.515,23.339 13.496,23.622 13.496,23.898 C13.496,24.612 13.745,25.200 14.242,25.664 C14.739,26.126 15.436,26.359 16.332,26.359 C16.916,26.359 17.428,26.278 17.869,26.116 C18.309,25.953 18.900,25.718 19.640,25.408 C19.640,25.408 19.887,24.339 19.887,24.339 C19.759,24.402 19.553,24.475 19.271,24.558 C18.988,24.640 18.733,24.682 18.509,24.682 C18.032,24.682 17.696,24.600 17.501,24.433 C17.308,24.266 17.211,23.953 17.211,23.494 C17.211,23.312 17.240,23.041 17.301,22.686 C17.360,22.329 17.428,22.012 17.504,21.734 C17.504,21.734 18.425,18.277 18.425,18.277 C18.515,17.960 18.577,17.611 18.610,17.231 C18.644,16.851 18.660,16.585 18.660,16.434 C18.660,15.705 18.419,15.114 17.937,14.657 C17.455,14.201 16.768,13.973 15.878,13.973 C15.383,13.973 14.859,14.067 14.305,14.253 C13.751,14.439 13.172,14.663 12.566,14.924 zM19.476,8.281 C19.047,7.854 18.530,7.640 17.925,7.640 C17.318,7.640 16.799,7.854 16.365,8.281 C15.932,8.710 15.715,9.225 15.715,9.826 C15.715,10.428 15.932,10.943 16.365,11.365 C16.800,11.790 17.318,12.003 17.925,12.003 C18.530,12.003 19.047,11.790 19.476,11.365 C19.906,10.943 20.120,10.428 20.120,9.826 C20.120,9.225 19.907,8.710 19.476,8.281 z" fill="#BEDCF3" />
<path id="Ellipse-7-stroke" d="M17.000,32.131 C8.643,32.131 1.869,25.357 1.869,17.000 C1.869,8.643 8.643,1.869 17.000,1.869 C25.357,1.869 32.131,8.643 32.131,17.000 C32.131,25.357 25.357,32.131 17.000,32.131 zM12.698,14.986 C12.698,14.986 12.458,16.024 12.458,16.024 C12.633,15.956 12.842,15.882 13.086,15.805 C13.329,15.729 13.567,15.690 13.799,15.690 C14.273,15.690 14.592,15.775 14.759,15.944 C14.927,16.113 15.010,16.414 15.010,16.844 C15.010,17.082 14.984,17.346 14.929,17.633 C14.875,17.922 14.807,18.227 14.727,18.550 C14.727,18.550 13.829,21.918 13.829,21.918 C13.749,22.272 13.691,22.588 13.654,22.869 C13.618,23.150 13.600,23.426 13.600,23.694 C13.600,24.386 13.842,24.957 14.324,25.407 C14.806,25.856 15.483,26.081 16.352,26.081 C16.918,26.081 17.415,26.002 17.843,25.845 C18.270,25.688 18.843,25.459 19.562,25.158 C19.562,25.158 19.801,24.121 19.801,24.121 C19.678,24.183 19.478,24.253 19.203,24.333 C18.929,24.414 18.682,24.454 18.464,24.454 C18.001,24.454 17.676,24.374 17.486,24.212 C17.299,24.051 17.205,23.747 17.205,23.301 C17.205,23.125 17.233,22.862 17.292,22.518 C17.350,22.171 17.415,21.863 17.489,21.593 C17.489,21.593 18.382,18.239 18.382,18.239 C18.470,17.932 18.530,17.593 18.562,17.224 C18.595,16.855 18.611,16.597 18.611,16.451 C18.611,15.744 18.377,15.170 17.909,14.727 C17.441,14.284 16.775,14.063 15.911,14.063 C15.431,14.063 14.923,14.154 14.385,14.335 C13.848,14.515 13.286,14.732 12.698,14.986 zM19.403,8.540 C18.986,8.126 18.484,7.918 17.897,7.918 C17.309,7.918 16.805,8.125 16.384,8.540 C15.964,8.956 15.753,9.456 15.753,10.039 C15.753,10.623 15.964,11.123 16.384,11.533 C16.805,11.945 17.309,12.151 17.897,12.151 C18.484,12.151 18.986,11.945 19.403,11.533 C19.820,11.123 20.028,10.623 20.028,10.039 C20.028,9.456 19.820,8.956 19.403,8.540 z" fill="none" stroke="#2295F4" stroke-opacity="1.000" stroke-width="1" />
</g>
</g>
</svg>
