<svg version="1.1" xmlns="http://www.w3.org/2000/svg" xmlns:xlink="http://www.w3.org/1999/xlink" width="34" height="40" viewBox="0 0 34 40">
<g id="icon-movie">
<g id="3" >
<path id="3-fill" d="M27.769,36.000 C27.769,36.000 4.230,36.000 4.230,36.000 C2.998,36.000 2.000,35.001 2.000,33.769 C2.000,33.769 2.000,8.230 2.000,8.230 C2.000,6.998 2.998,5.999 4.230,5.999 C4.230,5.999 27.769,5.999 27.769,5.999 C29.001,5.999 31.004,7.003 31.000,8.235 C31.000,8.235 31.000,33.769 31.000,33.769 C31.000,35.001 29.001,36.000 27.769,36.000 zM18.000,33.000 L20.000,33.000 L20.000,31.000 L18.000,31.000 L18.000,33.000 zM13.000,33.000 L15.000,33.000 L15.000,31.000 L13.000,31.000 L13.000,33.000 zM10.000,9.000 L8.000,9.000 L8.000,11.000 L10.000,11.000 L10.000,9.000 zM10.000,31.000 L8.000,31.000 L8.000,33.000 L10.000,33.000 L10.000,31.000 zM15.000,9.000 L13.000,9.000 L13.000,11.000 L15.000,11.000 L15.000,9.000 zM20.000,9.000 L18.000,9.000 L18.000,11.000 L20.000,11.000 L20.000,9.000 zM22.571,20.314 C22.571,20.314 13.182,15.042 13.182,15.042 C12.653,14.746 12.000,15.865 12.000,16.464 C12.000,16.464 12.000,25.535 12.000,25.535 C12.000,26.134 12.653,27.225 13.182,26.929 C13.182,26.929 22.571,21.657 22.571,21.657 C23.106,21.361 23.106,20.611 22.571,20.314 zM25.000,9.000 L23.000,9.000 L23.000,11.000 L25.000,11.000 L25.000,9.000 zM25.000,31.000 L23.000,31.000 L23.000,33.000 L25.000,33.000 L25.000,31.000 z" fill="#BEDCF3" />
<path id="3-stroke" d="M27.400,35.525 C27.400,35.525 4.632,35.525 4.632,35.525 C3.440,35.525 2.475,34.558 2.475,33.365 C2.475,33.365 2.475,8.634 2.475,8.634 C2.475,7.441 3.440,6.474 4.632,6.474 C4.632,6.474 27.400,6.474 27.400,6.474 C28.592,6.474 30.529,7.446 30.525,8.639 C30.525,8.639 30.525,33.365 30.525,33.365 C30.525,34.558 28.592,35.525 27.400,35.525 zM17.951,32.620 L19.885,32.620 L19.885,30.683 L17.951,30.683 L17.951,32.620 zM13.115,32.620 L15.049,32.620 L15.049,30.683 L13.115,30.683 L13.115,32.620 zM10.213,9.380 L8.278,9.380 L8.278,11.317 L10.213,11.317 L10.213,9.380 zM10.213,30.683 L8.278,30.683 L8.278,32.620 L10.213,32.620 L10.213,30.683 zM15.049,9.380 L13.115,9.380 L13.115,11.317 L15.049,11.317 L15.049,9.380 zM19.885,9.380 L17.951,9.380 L17.951,11.317 L19.885,11.317 L19.885,9.380 zM22.372,20.336 C22.372,20.336 13.291,15.231 13.291,15.231 C12.779,14.944 12.147,16.028 12.147,16.608 C12.147,16.608 12.147,25.391 12.147,25.391 C12.147,25.971 12.779,27.028 13.291,26.741 C13.291,26.741 22.372,21.637 22.372,21.637 C22.890,21.349 22.890,20.623 22.372,20.336 zM24.721,9.380 L22.787,9.380 L22.787,11.317 L24.721,11.317 L24.721,9.380 zM24.721,30.683 L22.787,30.683 L22.787,32.620 L24.721,32.620 L24.721,30.683 z" fill="none" stroke="#2295F4" stroke-opacity="1.000" stroke-width="1" />
</g>
</g>
</svg>
