<svg version="1.1" xmlns="http://www.w3.org/2000/svg" xmlns:xlink="http://www.w3.org/1999/xlink" width="34" height="40" viewBox="0 0 34 40">
<g id="icon-books">
<g id="4" >
<path id="4-fill" d="M32.279,30.670 C32.279,30.670 23.179,37.921 21.333,39.074 C20.361,39.681 19.126,39.998 17.760,39.998 C14.514,39.998 11.157,38.196 11.157,35.184 C11.157,35.184 11.157,14.310 11.157,14.310 C11.157,13.575 11.648,12.983 12.306,12.794 C12.660,12.226 13.325,11.646 14.511,11.124 C15.776,10.167 24.644,3.663 24.644,3.663 C24.644,3.663 27.137,4.973 24.637,6.973 C23.666,7.556 17.013,12.528 14.096,14.729 C14.209,15.061 14.279,15.311 14.279,15.311 C14.279,15.311 14.408,16.165 14.667,16.406 C15.462,17.155 17.605,16.840 19.717,15.540 C21.281,14.575 28.021,9.236 30.485,7.260 C30.957,6.885 31.594,6.817 32.131,7.084 C32.669,7.351 33.009,7.909 33.009,8.522 C33.009,8.522 33.009,29.313 33.009,29.313 C33.009,29.863 32.733,30.376 32.279,30.670 zM29.887,15.659 L22.083,21.871 L22.083,25.074 L29.887,18.862 L29.887,15.659 zM9.000,16.000 C9.000,16.000 9.000,32.000 9.000,32.000 C6.261,32.987 0.231,31.666 0.231,29.165 C0.231,25.387 0.231,9.147 0.231,9.147 C0.231,9.147 1.885,12.408 6.321,9.680 C8.311,8.454 17.961,1.860 17.961,1.860 C17.961,1.860 19.461,1.293 19.961,2.043 C20.461,2.793 20.344,1.952 20.287,4.093 C9.532,11.420 8.988,11.237 9.000,16.000 zM11.157,2.320 C8.657,4.070 0.000,8.400 2.000,10.000 C-0.800,9.800 -0.012,7.153 2.025,5.959 C3.350,5.183 11.157,0.001 11.157,0.001 C11.157,0.001 13.657,0.570 11.157,2.320 z" fill="#BEDCF3" />
<path id="4-stroke" d="M31.827,30.417 C31.827,30.417 22.989,37.495 21.196,38.621 C20.252,39.213 19.053,39.523 17.726,39.523 C14.574,39.523 11.313,37.764 11.313,34.823 C11.313,34.823 11.313,14.446 11.313,14.446 C11.313,13.728 11.790,13.149 12.429,12.965 C12.773,12.410 13.419,11.844 14.571,11.335 C15.799,10.401 24.412,4.051 24.412,4.051 C24.412,4.051 26.833,5.330 24.405,7.283 C23.462,7.852 17.000,12.705 14.167,14.854 C14.277,15.178 14.345,15.422 14.345,15.422 C14.345,15.422 14.471,16.256 14.722,16.492 C15.494,17.222 17.575,16.915 19.627,15.646 C21.146,14.704 27.692,9.492 30.084,7.562 C30.543,7.197 31.162,7.130 31.683,7.391 C32.206,7.652 32.536,8.196 32.536,8.795 C32.536,8.795 32.536,29.091 32.536,29.091 C32.536,29.629 32.268,30.130 31.827,30.417 zM29.504,15.762 L21.924,21.826 L21.924,24.953 L29.504,18.889 L29.504,15.762 zM9.218,16.095 C9.218,16.095 9.218,31.715 9.218,31.715 C6.558,32.679 0.702,31.389 0.702,28.948 C0.702,25.259 0.702,9.404 0.702,9.404 C0.702,9.404 2.308,12.588 6.616,9.925 C8.549,8.728 17.922,2.291 17.922,2.291 C17.922,2.291 19.378,1.738 19.864,2.470 C20.350,3.202 20.235,2.380 20.180,4.471 C9.735,11.624 9.206,11.445 9.218,16.095 zM11.313,2.740 C8.885,4.449 0.477,8.675 2.420,10.237 C-0.300,10.042 0.465,7.458 2.444,6.293 C3.731,5.535 11.313,0.476 11.313,0.476 C11.313,0.476 13.741,1.032 11.313,2.740 z" fill="none" stroke="#2295F4" stroke-opacity="1.000" stroke-width="1" />
</g>
</g>
</svg>
