<svg version="1.1" xmlns="http://www.w3.org/2000/svg" xmlns:xlink="http://www.w3.org/1999/xlink" width="64" height="25" viewBox="0 0 64 25">
<g id="icon-paypal-veri">
<path id="Forma-1-copy" d="M12.642,1.820 C12.411,1.379 12.046,1.017 11.593,0.744 C11.121,0.469 10.563,0.276 9.925,0.162 C9.275,0.050 8.526,-0.001 7.657,-0.008 C7.657,-0.008 3.647,-0.006 3.647,-0.006 C3.230,-0.001 2.822,0.308 2.724,0.692 C2.724,0.692 0.026,11.863 0.026,11.863 C-0.072,12.242 0.190,12.559 0.607,12.559 C0.607,12.559 2.527,12.559 2.527,12.559 C2.944,12.559 3.356,12.250 3.448,11.863 C3.448,11.863 4.107,9.150 4.107,9.150 C4.195,8.772 4.607,8.457 5.028,8.457 C5.028,8.457 5.577,8.457 5.577,8.457 C7.926,8.454 9.744,7.998 11.050,7.085 C12.364,6.170 13.012,4.962 13.012,3.465 C13.010,2.809 12.897,2.259 12.642,1.820 zM8.501,5.470 C7.920,5.874 7.113,6.076 6.072,6.076 C6.072,6.076 5.604,6.076 5.604,6.076 C5.186,6.076 4.930,5.762 5.020,5.380 C5.020,5.380 5.598,3.007 5.598,3.007 C5.680,2.627 6.100,2.312 6.513,2.315 C6.513,2.315 7.142,2.311 7.142,2.311 C7.877,2.311 8.438,2.431 8.813,2.666 C9.183,2.897 9.370,3.265 9.367,3.753 C9.376,4.495 9.079,5.067 8.501,5.470 zM34.900,4.012 C34.900,4.012 27.248,16.313 27.248,16.313 C27.003,16.697 26.458,17.007 26.045,17.007 C26.045,17.007 24.056,17.010 24.056,17.010 C23.643,17.010 23.507,16.697 23.759,16.314 C23.759,16.314 25.460,13.496 25.460,13.496 C25.460,13.496 25.597,13.333 25.475,12.416 C25.213,10.752 23.907,3.686 23.907,3.686 C23.813,3.303 24.068,2.988 24.482,2.988 C24.482,2.988 26.202,2.986 26.202,2.986 C26.729,2.986 27.154,3.316 27.248,3.701 C27.248,3.701 28.105,8.603 28.105,8.603 C28.105,8.603 28.424,8.607 28.424,8.607 C28.691,8.157 31.441,3.671 31.441,3.671 C31.703,3.291 32.235,2.974 32.649,2.974 C32.649,2.974 34.497,2.979 34.951,2.974 C35.635,2.961 34.900,4.012 34.900,4.012 zM47.514,1.862 C47.273,1.419 46.914,1.061 46.456,0.782 C45.991,0.505 45.435,0.311 44.787,0.199 C44.151,0.092 43.391,0.033 42.530,0.032 C42.530,0.032 38.514,0.034 38.514,0.034 C38.094,0.041 37.693,0.349 37.597,0.728 C37.597,0.728 34.897,11.907 34.897,11.907 C34.799,12.286 35.067,12.599 35.476,12.599 C35.476,12.599 37.399,12.596 37.399,12.596 C37.808,12.599 38.227,12.286 38.321,11.907 C38.321,11.907 38.973,9.193 38.973,9.193 C39.067,8.814 39.479,8.496 39.895,8.500 C39.895,8.500 40.445,8.500 40.445,8.500 C42.796,8.500 44.618,8.040 45.931,7.129 C47.227,6.208 47.882,5.002 47.882,3.503 C47.877,2.849 47.757,2.297 47.514,1.862 zM43.372,5.516 C42.793,5.912 41.984,6.114 40.949,6.114 C40.949,6.114 40.471,6.114 40.471,6.114 C40.059,6.118 39.791,5.800 39.884,5.419 C39.884,5.419 40.466,3.052 40.466,3.052 C40.550,2.672 40.970,2.355 41.384,2.359 C41.384,2.359 42.008,2.355 42.008,2.355 C42.747,2.359 43.300,2.474 43.678,2.708 C44.053,2.942 44.231,3.309 44.237,3.796 C44.240,4.539 43.949,5.110 43.372,5.516 zM21.902,3.417 C21.177,3.029 20.033,2.835 18.469,2.835 C17.695,2.835 16.925,2.892 16.146,3.006 C15.571,3.090 15.515,3.106 15.161,3.179 C14.431,3.331 14.316,4.023 14.316,4.023 C14.316,4.023 14.081,4.942 14.081,4.942 C13.949,5.528 14.304,5.505 14.452,5.457 C14.771,5.366 14.949,5.273 15.600,5.135 C16.223,5.001 16.878,4.899 17.399,4.906 C18.167,4.906 18.755,4.983 19.146,5.140 C19.532,5.300 19.725,5.574 19.725,5.970 C19.725,5.970 19.692,6.227 19.692,6.227 C19.692,6.227 19.414,6.390 19.414,6.390 C18.325,6.455 17.538,6.551 16.582,6.682 C15.648,6.806 14.828,7.023 14.147,7.319 C13.415,7.625 12.873,8.036 12.494,8.559 C12.127,9.084 11.944,9.720 11.944,10.468 C11.944,11.172 12.210,11.751 12.726,12.200 C13.245,12.642 13.930,12.857 14.750,12.857 C15.269,12.855 15.670,12.816 15.956,12.751 C15.956,12.751 16.886,12.447 16.886,12.447 L17.674,12.030 L18.397,11.577 L18.408,11.589 L18.335,11.881 L18.331,11.891 C18.331,11.891 18.331,11.894 18.331,11.894 C18.252,12.251 18.479,12.544 18.844,12.577 C18.844,12.577 18.851,12.586 18.851,12.586 L18.884,12.586 L20.357,12.586 L20.634,12.586 C20.634,12.586 20.659,12.574 20.659,12.574 C21.043,12.533 21.402,12.239 21.486,11.891 C21.486,11.891 22.886,6.132 22.886,6.132 L22.959,5.662 C22.959,5.662 22.992,5.222 22.992,5.222 C22.999,4.409 22.628,3.804 21.902,3.417 zM18.806,9.894 C18.806,9.894 18.507,10.271 18.507,10.271 C18.507,10.271 17.751,10.642 17.751,10.642 C17.396,10.777 17.060,10.850 16.747,10.850 C16.275,10.850 15.904,10.785 15.653,10.650 C15.653,10.650 15.283,9.967 15.283,9.967 C15.283,9.594 15.373,9.302 15.564,9.076 C15.564,9.076 16.378,8.549 16.378,8.549 C16.726,8.437 17.152,8.343 17.644,8.277 C18.083,8.226 18.950,8.132 19.063,8.129 C19.063,8.129 19.196,8.351 19.196,8.351 C19.170,8.474 18.923,9.453 18.806,9.894 zM56.780,3.425 C56.052,3.036 54.909,2.841 53.349,2.841 C52.576,2.841 51.803,2.898 51.027,3.016 C50.450,3.096 50.393,3.114 50.038,3.186 C49.309,3.336 49.196,4.031 49.196,4.031 C49.196,4.031 48.962,4.948 48.962,4.948 C48.831,5.535 49.179,5.508 49.339,5.463 C49.658,5.372 49.832,5.283 50.478,5.140 C51.099,5.007 51.759,4.909 52.282,4.911 C53.046,4.911 53.633,4.990 54.025,5.146 C54.414,5.306 54.604,5.583 54.604,5.975 C54.604,5.975 54.575,6.232 54.575,6.232 C54.575,6.232 54.300,6.398 54.300,6.398 C53.200,6.460 52.412,6.556 51.465,6.688 C50.534,6.811 49.710,7.027 49.027,7.325 C48.299,7.632 47.749,8.043 47.374,8.565 C47.006,9.090 46.825,9.725 46.825,10.468 C46.825,11.177 47.089,11.756 47.609,12.203 C48.133,12.643 48.811,12.864 49.631,12.864 C50.147,12.858 50.549,12.826 50.836,12.756 C50.836,12.756 51.764,12.457 51.764,12.457 L52.557,12.041 L53.275,11.581 L53.289,11.595 L53.223,11.889 L53.215,11.894 C53.215,11.894 53.219,11.899 53.219,11.899 C53.133,12.256 53.360,12.551 53.730,12.583 C53.730,12.583 53.733,12.590 53.733,12.590 L53.767,12.590 C53.767,12.590 53.767,12.590 53.767,12.590 C54.008,12.590 54.844,12.590 55.243,12.590 C55.243,12.590 55.515,12.590 55.515,12.590 C55.515,12.590 55.542,12.581 55.542,12.581 C55.922,12.536 56.281,12.244 56.359,11.894 C56.359,11.894 57.765,6.140 57.765,6.140 L57.837,5.667 C57.837,5.667 57.878,5.226 57.878,5.226 C57.878,4.414 57.513,3.812 56.780,3.425 zM53.690,9.902 C53.690,9.902 53.380,10.281 53.380,10.281 C53.380,10.281 52.630,10.651 52.630,10.651 C52.275,10.785 51.937,10.858 51.631,10.858 C51.144,10.858 50.781,10.793 50.538,10.658 C50.538,10.658 50.164,9.976 50.164,9.976 C50.164,9.603 50.256,9.313 50.440,9.084 C50.625,8.866 50.909,8.689 51.262,8.559 C51.606,8.446 52.031,8.356 52.527,8.288 C52.962,8.235 53.827,8.139 53.939,8.138 C53.939,8.138 54.073,8.361 54.073,8.361 C54.054,8.484 53.805,9.458 53.690,9.902 zM63.982,0.817 C63.982,0.817 63.986,0.819 63.986,0.819 L61.416,11.894 C61.416,11.894 61.323,12.028 61.323,12.028 C61.173,12.338 60.846,12.591 60.495,12.591 C60.495,12.591 58.709,12.591 58.709,12.591 C58.709,12.591 58.680,12.554 58.680,12.554 C58.338,12.504 58.116,12.244 58.198,11.904 C58.198,11.904 58.195,11.894 58.195,11.894 L58.272,11.574 L60.677,1.186 L60.763,0.824 C60.763,0.824 60.859,0.683 60.859,0.683 C61.014,0.377 61.331,0.129 61.684,0.129 C61.684,0.129 63.405,0.129 63.405,0.129 C63.818,0.126 64.068,0.437 63.982,0.817 z" fill="#909090" />
<path id="Rectangle-17" d="M52.889,24.888 L52.611,24.158 C52.611,24.158 52.550,24.158 52.550,24.158 C52.223,24.712 51.726,24.989 51.058,24.989 C50.439,24.989 49.954,24.732 49.601,24.218 C49.248,23.705 49.071,22.993 49.071,22.084 C49.071,21.161 49.251,20.442 49.610,19.927 C49.970,19.412 50.464,19.155 51.095,19.155 C51.757,19.155 52.263,19.430 52.611,19.980 C52.611,19.980 52.658,19.980 52.658,19.980 C52.586,19.560 52.550,19.187 52.550,18.857 C52.550,18.857 52.550,17.055 52.550,17.055 L53.990,17.055 L53.990,24.888 L52.889,24.888 zM52.649,22.094 C52.649,21.490 52.562,21.057 52.387,20.795 C52.213,20.534 51.930,20.403 51.538,20.403 C51.218,20.403 50.969,20.548 50.792,20.838 C50.614,21.128 50.526,21.550 50.526,22.104 C50.526,22.658 50.615,23.073 50.794,23.350 C50.973,23.627 51.229,23.765 51.561,23.765 C51.928,23.765 52.197,23.651 52.369,23.423 C52.540,23.195 52.633,22.807 52.649,22.260 C52.649,22.260 52.649,22.094 52.649,22.094 zM44.229,23.478 C44.455,23.723 44.771,23.846 45.179,23.846 C45.496,23.846 45.796,23.811 46.078,23.740 C46.361,23.670 46.656,23.557 46.963,23.403 C46.963,23.403 46.963,24.591 46.963,24.591 C46.712,24.725 46.444,24.825 46.158,24.890 C45.873,24.956 45.525,24.989 45.113,24.989 C44.266,24.989 43.604,24.738 43.127,24.238 C42.650,23.739 42.412,23.030 42.412,22.114 C42.412,21.171 42.632,20.442 43.073,19.927 C43.514,19.412 44.123,19.155 44.902,19.155 C45.645,19.155 46.224,19.381 46.639,19.834 C47.053,20.287 47.260,20.913 47.260,21.711 C47.260,21.711 47.260,22.457 47.260,22.457 C47.260,22.457 43.866,22.457 43.866,22.457 C43.882,22.893 44.003,23.233 44.229,23.478 zM45.914,21.435 C45.907,21.056 45.815,20.763 45.636,20.556 C45.457,20.350 45.215,20.247 44.911,20.247 C44.607,20.247 44.368,20.350 44.196,20.556 C44.023,20.763 43.924,21.056 43.899,21.435 C43.899,21.435 45.914,21.435 45.914,21.435 zM39.551,18.561 C39.030,18.561 38.769,18.309 38.769,17.805 C38.769,17.306 39.030,17.055 39.551,17.055 C40.072,17.055 40.332,17.306 40.332,17.805 C40.332,18.044 40.267,18.229 40.137,18.362 C40.006,18.494 39.811,18.561 39.551,18.561 zM37.343,18.218 C37.139,18.218 36.991,18.283 36.900,18.412 C36.810,18.541 36.764,18.707 36.764,18.908 C36.764,18.908 36.764,19.260 36.764,19.260 L38.007,19.260 L38.007,20.413 L36.764,20.413 L36.764,24.888 L35.328,24.888 L35.328,20.413 L34.538,20.413 L34.538,19.673 L35.328,19.260 C35.328,19.260 35.328,18.847 35.328,18.847 C35.328,18.206 35.476,17.738 35.771,17.443 C36.066,17.148 36.538,17.000 37.188,17.000 C37.684,17.000 38.124,17.079 38.510,17.237 C38.510,17.237 38.143,18.364 38.143,18.364 C37.854,18.267 37.588,18.218 37.343,18.218 zM31.912,18.561 C31.391,18.561 31.131,18.309 31.131,17.805 C31.131,17.306 31.391,17.055 31.912,17.055 C32.433,17.055 32.693,17.306 32.693,17.805 C32.693,18.044 32.628,18.229 32.498,18.362 C32.368,18.494 32.172,18.561 31.912,18.561 zM28.740,20.589 C28.282,20.589 27.925,20.715 27.669,20.967 C27.414,21.218 27.286,21.571 27.286,22.023 C27.286,22.023 27.286,24.888 27.286,24.888 L25.850,24.888 L25.850,19.260 L26.938,19.260 L27.149,20.207 C27.149,20.207 27.220,20.207 27.220,20.207 C27.383,19.891 27.604,19.637 27.881,19.444 C28.159,19.251 28.461,19.155 28.787,19.155 C28.982,19.155 29.143,19.169 29.272,19.200 C29.272,19.200 29.164,20.639 29.164,20.639 C29.048,20.606 28.907,20.589 28.740,20.589 zM20.687,23.478 C20.913,23.723 21.230,23.846 21.638,23.846 C21.955,23.846 22.255,23.811 22.537,23.740 C22.820,23.670 23.115,23.557 23.422,23.403 C23.422,23.403 23.422,24.591 23.422,24.591 C23.171,24.725 22.903,24.825 22.617,24.890 C22.332,24.956 21.983,24.989 21.572,24.989 C20.725,24.989 20.063,24.738 19.586,24.238 C19.109,23.739 18.870,23.030 18.870,22.114 C18.870,21.171 19.091,20.442 19.532,19.927 C19.973,19.412 20.582,19.155 21.360,19.155 C22.104,19.155 22.683,19.381 23.097,19.834 C23.512,20.287 23.719,20.913 23.719,21.711 C23.719,21.711 23.719,22.457 23.719,22.457 C23.719,22.457 20.325,22.457 20.325,22.457 C20.341,22.893 20.461,23.233 20.687,23.478 zM22.372,21.435 C22.366,21.056 22.274,20.763 22.095,20.556 C21.916,20.350 21.674,20.247 21.370,20.247 C21.065,20.247 20.827,20.350 20.654,20.556 C20.482,20.763 20.383,21.056 20.358,21.435 C20.358,21.435 22.372,21.435 22.372,21.435 zM13.995,24.888 L11.990,19.260 L13.491,19.260 C13.491,19.260 14.508,22.466 14.508,22.466 C14.621,22.873 14.691,23.257 14.720,23.619 C14.720,23.619 14.748,23.619 14.748,23.619 C14.764,23.297 14.834,22.913 14.960,22.466 C14.960,22.466 15.972,19.260 15.972,19.260 L17.473,19.260 L15.468,24.888 L13.995,24.888 zM32.627,24.888 L31.192,24.888 L31.192,19.260 L32.627,19.260 L32.627,24.888 zM40.266,24.888 L38.830,24.888 L38.830,19.260 L40.266,19.260 L40.266,24.888 z" fill="#626262" />
</g>
</svg>
