<svg version="1.1" xmlns="http://www.w3.org/2000/svg" xmlns:xlink="http://www.w3.org/1999/xlink" width="34" height="40" viewBox="0 0 34 40">
<g id="icon-book">
<g id="1" >
<path id="1-fill" d="M7.574,32.965 C7.574,32.965 28.336,32.965 28.336,32.965 C28.378,32.965 28.419,32.959 28.458,32.950 C28.461,32.950 28.464,32.951 28.467,32.951 C28.761,32.951 29.000,32.715 29.000,32.424 C29.000,32.424 29.000,4.527 29.000,4.527 C29.000,4.236 28.761,4.000 28.467,4.000 C28.467,4.000 28.337,4.000 28.337,4.000 L8.426,4.000 C8.426,4.000 7.575,4.000 7.575,4.000 C6.157,4.000 5.005,5.142 5.005,6.544 C5.005,6.563 5.008,6.581 5.010,6.599 C5.008,7.894 4.992,32.799 5.008,34.364 C5.007,34.394 5.004,34.424 5.004,34.455 C5.004,35.804 6.071,36.908 7.412,36.991 C7.439,36.995 7.465,36.999 7.493,36.999 C7.493,36.999 28.467,36.999 28.467,36.999 C28.761,36.999 29.000,36.763 29.000,36.472 C29.000,36.472 29.000,34.488 29.000,34.488 C29.000,34.197 28.761,33.961 28.467,33.961 C28.173,33.961 27.935,34.197 27.935,34.488 C27.935,34.488 27.935,35.945 27.935,35.945 C27.935,35.945 7.574,35.945 7.574,35.945 C6.765,35.945 6.104,35.309 6.072,34.516 C6.073,34.502 6.075,34.489 6.075,34.475 C6.074,34.451 6.074,34.415 6.073,34.367 C6.120,33.587 6.774,32.965 7.574,32.965 zM8.000,9.000 L10.000,9.000 L10.000,28.000 L8.000,28.000 L8.000,9.000 z" fill="#BEDCF3" />
<path id="1-stroke" d="M7.947,32.607 C7.947,32.607 27.887,32.607 27.887,32.607 C27.928,32.607 27.967,32.601 28.005,32.592 C28.008,32.592 28.010,32.593 28.013,32.593 C28.295,32.593 28.525,32.363 28.525,32.081 C28.525,32.081 28.525,4.987 28.525,4.987 C28.525,4.705 28.295,4.475 28.013,4.475 C28.013,4.475 27.888,4.475 27.888,4.475 L8.765,4.475 C8.765,4.475 7.948,4.475 7.948,4.475 C6.587,4.475 5.479,5.584 5.479,6.946 C5.479,6.964 5.483,6.981 5.485,6.999 C5.483,8.257 5.467,32.445 5.483,33.965 C5.482,33.994 5.478,34.023 5.478,34.054 C5.478,35.363 6.503,36.435 7.792,36.517 C7.817,36.520 7.843,36.524 7.870,36.524 C7.870,36.524 28.013,36.524 28.013,36.524 C28.295,36.524 28.525,36.295 28.525,36.013 C28.525,36.013 28.525,34.086 28.525,34.086 C28.525,33.803 28.295,33.574 28.013,33.574 C27.731,33.574 27.502,33.803 27.502,34.086 C27.502,34.086 27.502,35.501 27.502,35.501 C27.502,35.501 7.947,35.501 7.947,35.501 C7.170,35.501 6.536,34.883 6.504,34.113 C6.505,34.099 6.508,34.086 6.507,34.072 C6.507,34.050 6.506,34.014 6.506,33.968 C6.550,33.210 7.179,32.607 7.947,32.607 zM8.356,9.331 L10.277,9.331 L10.277,27.784 L8.356,27.784 L8.356,9.331 z" fill="none" stroke="#2295F4" stroke-opacity="1.000" stroke-width="1" />
</g>
</g>
</svg>
