<svg xmlns="http://www.w3.org/2000/svg" xmlns:xlink="http://www.w3.org/1999/xlink" preserveAspectRatio="xMidYMid" width="434" height="563" viewBox="0 0 434 563">
  <defs>
    <style>

      .cls-2 {
        fill: #ebedf5;
      }
    </style>
  </defs>
  <path d="M301.835,478.173 C297.276,476.951 294.581,472.272 295.800,467.723 C295.800,467.723 375.298,171.034 375.298,171.034 C376.517,166.485 381.190,163.780 385.748,165.002 C390.307,166.223 393.001,170.903 391.783,175.452 C391.783,175.452 312.285,472.140 312.285,472.140 C311.066,476.689 306.393,479.394 301.835,478.173 ZM433.621,151.188 C433.621,151.188 433.582,151.337 433.582,151.337 C433.582,151.337 345.256,480.974 345.256,480.974 C344.037,485.522 339.363,488.227 334.805,487.006 C330.247,485.785 327.552,481.105 328.771,476.556 C328.771,476.556 414.893,155.144 414.893,155.144 C414.893,155.144 390.165,148.518 390.165,148.518 C385.607,147.296 382.912,142.617 384.131,138.068 C385.350,133.520 390.023,130.815 394.582,132.036 C394.582,132.036 414.215,137.297 414.215,137.297 C414.215,137.297 405.102,92.774 405.102,92.774 C405.102,92.774 367.124,135.596 367.124,135.596 C367.124,135.596 266.066,512.752 266.066,512.752 C262.413,526.383 270.535,540.449 284.169,544.102 C297.802,547.755 311.869,539.634 315.522,526.003 C315.522,526.003 317.730,517.762 317.730,517.762 C317.730,517.762 293.002,511.137 293.002,511.137 C288.444,509.916 285.749,505.236 286.968,500.687 C288.186,496.138 292.860,493.433 297.418,494.654 C297.418,494.654 330.390,503.489 330.390,503.489 C334.948,504.711 337.643,509.390 336.424,513.939 C336.424,513.939 332.007,530.422 332.007,530.422 C325.919,553.144 302.477,566.675 279.752,560.586 C257.026,554.496 243.491,531.056 249.580,508.336 C249.580,508.336 351.160,129.234 351.160,129.234 C351.502,127.957 352.138,126.767 353.012,125.782 C353.012,125.782 403.650,68.686 403.650,68.686 C407.949,63.848 417.099,66.300 418.396,72.637 C418.396,72.637 433.673,147.237 433.673,147.237 C433.955,148.495 433.954,149.847 433.621,151.188 ZM120.239,396.012 C138.422,400.884 149.248,419.631 144.376,437.812 C139.505,455.992 120.756,466.815 102.573,461.943 C84.390,457.070 73.564,438.323 78.435,420.143 C83.307,401.963 102.056,391.140 120.239,396.012 ZM106.989,445.460 C116.073,447.894 125.456,442.486 127.892,433.395 C130.327,424.304 124.906,414.929 115.822,412.494 C106.730,410.058 97.356,415.470 94.920,424.560 C92.484,433.650 97.898,443.023 106.989,445.460 ZM199.279,496.688 C193.191,519.409 169.748,532.941 147.024,526.851 C147.024,526.851 31.626,495.931 31.626,495.931 C8.900,489.841 -4.635,466.401 1.453,443.680 C1.453,443.680 23.536,361.267 23.536,361.267 C24.755,356.718 29.428,354.013 33.986,355.235 C38.545,356.456 41.239,361.135 40.021,365.684 C40.021,365.684 17.938,448.098 17.938,448.098 C14.285,461.730 22.408,475.795 36.041,479.448 C36.041,479.448 151.438,510.369 151.438,510.369 C165.071,514.022 179.139,505.902 182.791,492.271 C182.791,492.271 293.204,80.203 293.204,80.203 C296.857,66.571 288.734,52.506 275.101,48.853 C275.101,48.853 159.703,17.932 159.703,17.932 C146.070,14.279 132.002,22.399 128.350,36.030 C128.350,36.030 121.725,60.754 121.725,60.754 C121.725,60.754 162.939,71.797 162.939,71.797 C167.497,73.019 170.192,77.698 168.973,82.247 C167.754,86.796 163.081,89.501 158.523,88.280 C158.523,88.280 117.309,77.236 117.309,77.236 C117.309,77.236 112.892,93.720 112.892,93.720 C112.892,93.720 121.134,95.929 121.134,95.929 C125.693,97.150 128.388,101.830 127.169,106.378 C125.950,110.927 121.276,113.632 116.718,112.411 C116.718,112.411 108.476,110.202 108.476,110.202 C108.476,110.202 104.059,126.685 104.059,126.685 C104.059,126.685 112.301,128.894 112.301,128.894 C116.860,130.116 119.554,134.795 118.336,139.344 C117.117,143.892 112.443,146.597 107.885,145.376 C107.885,145.376 99.643,143.168 99.643,143.168 C99.643,143.168 95.226,159.651 95.226,159.651 C95.226,159.651 103.468,161.860 103.468,161.860 C108.027,163.081 110.721,167.760 109.502,172.309 C108.284,176.859 103.610,179.563 99.052,178.342 C99.052,178.342 90.809,176.134 90.809,176.134 C90.809,176.134 86.393,192.617 86.393,192.617 C86.393,192.617 127.607,203.660 127.607,203.660 C132.165,204.881 134.860,209.560 133.641,214.109 C132.422,218.658 127.749,221.363 123.190,220.142 C123.190,220.142 81.976,209.099 81.976,209.099 C81.976,209.099 77.560,225.582 77.560,225.582 C77.560,225.582 85.802,227.790 85.802,227.790 C90.361,229.012 93.055,233.691 91.836,238.240 C90.618,242.789 85.944,245.494 81.386,244.272 C81.386,244.272 73.144,242.064 73.144,242.064 C73.144,242.064 68.727,258.548 68.727,258.548 C68.727,258.548 76.969,260.756 76.969,260.756 C81.527,261.977 84.222,266.657 83.003,271.206 C81.784,275.755 77.111,278.460 72.553,277.239 C72.553,277.239 64.310,275.030 64.310,275.030 C64.310,275.030 59.894,291.513 59.894,291.513 C59.894,291.513 68.136,293.721 68.136,293.721 C72.694,294.943 75.389,299.622 74.170,304.171 C72.951,308.720 68.278,311.425 63.720,310.204 C63.720,310.204 55.477,307.995 55.477,307.995 C55.477,307.995 51.061,324.478 51.061,324.478 C51.061,324.478 92.275,335.521 92.275,335.521 C96.833,336.742 99.528,341.422 98.309,345.971 C97.090,350.520 92.416,353.225 87.858,352.003 C87.858,352.003 38.402,338.751 38.402,338.751 C33.844,337.530 31.149,332.851 32.368,328.302 C32.368,328.302 111.865,31.613 111.865,31.613 C117.954,8.891 141.396,-4.640 164.121,1.449 C164.121,1.449 279.518,32.370 279.518,32.370 C302.243,38.459 315.778,61.898 309.692,84.620 C309.692,84.620 199.279,496.688 199.279,496.688 Z" id="path-1" class="cls-2" fill-rule="evenodd"/>
</svg>
