<svg version="1.1" xmlns="http://www.w3.org/2000/svg" xmlns:xlink="http://www.w3.org/1999/xlink" width="225" height="294" viewBox="0 0 225 294">
<path id="icon-faq-message" d="M208.513,89.956 C208.513,89.956 196.412,93.198 196.412,93.198 C196.412,93.198 199.287,104.598 199.287,104.598 C199.631,105.961 199.260,107.406 198.302,108.436 C197.761,109.018 197.076,109.423 196.332,109.622 C195.757,109.776 195.147,109.808 194.543,109.703 C194.543,109.703 158.299,103.410 158.299,103.410 C158.299,103.410 141.077,108.025 141.077,108.025 C129.899,111.020 118.372,104.376 115.381,93.214 C115.381,93.214 102.507,45.166 102.507,45.166 C99.516,34.005 106.176,22.487 117.354,19.492 C117.354,19.492 184.791,1.422 184.791,1.422 C195.969,-1.573 207.495,5.072 210.485,16.233 C210.485,16.233 223.360,64.281 223.360,64.281 C226.350,75.443 219.690,86.960 208.513,89.956 zM215.332,66.432 C215.332,66.432 202.458,18.384 202.458,18.384 C200.652,11.643 193.689,7.630 186.939,9.439 C186.939,9.439 119.502,27.509 119.502,27.509 C112.752,29.318 108.729,36.274 110.535,43.015 C110.535,43.015 123.410,91.063 123.410,91.063 C125.216,97.805 132.178,101.818 138.929,100.009 C138.929,100.009 157.036,95.157 157.036,95.157 C157.620,95.000 158.230,94.973 158.825,95.076 C158.825,95.076 189.665,100.431 189.665,100.431 C189.665,100.431 187.353,91.266 187.353,91.266 C186.799,89.066 188.115,86.829 190.309,86.241 C190.309,86.241 206.365,81.939 206.365,81.939 C213.116,80.130 217.138,73.173 215.332,66.432 zM173.527,57.602 C173.485,57.647 173.435,57.697 173.384,57.749 C170.362,60.743 169.237,65.053 170.438,69.010 C171.103,71.203 169.862,73.521 167.666,74.187 C167.621,74.201 167.577,74.213 167.532,74.225 C165.376,74.803 163.136,73.571 162.484,71.423 C160.392,64.527 162.312,57.048 167.496,51.895 C169.807,49.420 170.662,46.004 169.789,42.746 C168.404,37.575 163.064,34.497 157.886,35.885 C152.708,37.272 149.622,42.608 151.008,47.779 C151.601,49.992 150.285,52.268 148.068,52.863 C145.850,53.457 143.573,52.143 142.980,49.930 C140.410,40.339 146.133,30.442 155.738,27.868 C165.343,25.294 175.248,31.004 177.818,40.594 C179.443,46.661 177.840,53.019 173.527,57.602 zM168.625,78.219 C169.680,77.936 170.832,78.085 171.776,78.629 C172.725,79.177 173.430,80.093 173.713,81.152 C173.995,82.205 173.844,83.351 173.295,84.300 C172.751,85.247 171.828,85.953 170.773,86.236 C169.719,86.518 168.566,86.369 167.616,85.821 C166.672,85.272 165.967,84.356 165.685,83.303 C165.402,82.245 165.553,81.098 166.097,80.151 C166.648,79.207 167.566,78.503 168.625,78.219 zM190.886,131.480 C190.886,131.480 212.833,213.386 212.833,213.386 C215.823,224.547 209.163,236.065 197.985,239.060 C197.985,239.060 97.181,266.070 97.181,266.070 C97.181,266.070 64.842,293.061 64.842,293.061 C64.370,293.455 63.826,293.732 63.254,293.886 C62.334,294.132 61.339,294.061 60.441,293.649 C58.985,292.980 58.044,291.533 58.024,289.932 C58.024,289.932 57.860,276.607 57.860,276.607 C57.860,276.607 48.528,279.107 48.528,279.107 C37.350,282.102 25.823,275.458 22.833,264.296 C22.833,264.296 0.886,182.391 0.886,182.391 C-2.104,171.229 4.556,159.711 15.733,156.717 C15.733,156.717 165.191,116.670 165.191,116.670 C176.369,113.675 187.895,120.318 190.886,131.480 zM8.914,180.240 C8.914,180.240 30.861,262.145 30.861,262.145 C32.667,268.886 39.629,272.899 46.380,271.090 C46.380,271.090 60.875,267.206 60.875,267.206 C62.114,266.874 63.436,267.132 64.459,267.905 C65.481,268.678 66.088,269.880 66.104,271.160 C66.104,271.160 66.226,281.092 66.226,281.092 C66.226,281.092 92.558,259.115 92.558,259.115 C93.022,258.729 93.564,258.447 94.147,258.291 C94.147,258.291 195.837,231.043 195.837,231.043 C202.588,229.234 206.611,222.278 204.804,215.537 C204.804,215.537 182.858,133.631 182.858,133.631 C181.052,126.891 174.090,122.878 167.339,124.686 C167.339,124.686 17.881,164.734 17.881,164.734 C11.131,166.542 7.108,173.499 8.914,180.240 zM163.672,150.873 C163.672,150.873 34.151,185.579 34.151,185.579 C31.934,186.173 29.656,184.859 29.063,182.646 C28.470,180.432 29.786,178.156 32.003,177.562 C32.003,177.562 161.524,142.857 161.524,142.857 C163.741,142.263 166.019,143.576 166.612,145.789 C167.205,148.003 165.889,150.279 163.672,150.873 zM37.922,199.652 C37.922,199.652 167.443,164.947 167.443,164.947 C169.660,164.353 171.938,165.666 172.531,167.880 C173.124,170.094 171.809,172.370 169.591,172.964 C169.591,172.964 40.070,207.669 40.070,207.669 C37.853,208.263 35.575,206.950 34.982,204.736 C34.389,202.523 35.705,200.246 37.922,199.652 zM43.841,221.743 C43.841,221.743 173.362,187.038 173.362,187.038 C175.579,186.444 177.857,187.757 178.450,189.971 C179.044,192.184 177.728,194.460 175.510,195.055 C175.510,195.055 45.989,229.760 45.989,229.760 C43.772,230.354 41.494,229.041 40.901,226.827 C40.308,224.613 41.624,222.337 43.841,221.743 zM49.760,243.834 C49.760,243.834 179.282,209.129 179.282,209.129 C181.498,208.535 183.777,209.848 184.370,212.062 C184.963,214.276 183.647,216.552 181.430,217.146 C181.430,217.146 51.909,251.851 51.909,251.851 C49.692,252.445 47.414,251.132 46.820,248.918 C46.227,246.704 47.544,244.428 49.760,243.834 z" fill="#EBEDF5" />
</svg>
