<svg version="1.1" xmlns="http://www.w3.org/2000/svg" xmlns:xlink="http://www.w3.org/1999/xlink" width="34" height="40" viewBox="0 0 34 40">
<g id="icon-loupe">
<g id="5" >
<path id="5-fill" d="M33.026,36.066 C32.404,36.688 31.589,36.999 30.775,36.999 C29.960,36.999 29.145,36.688 28.524,36.066 C28.524,36.066 22.706,30.241 22.706,30.241 C22.242,30.487 21.736,30.624 21.224,30.624 C20.409,30.624 19.595,30.313 18.973,29.691 C18.953,29.670 18.939,29.646 18.920,29.625 C17.334,30.264 15.607,30.624 13.795,30.624 C6.189,30.624 -0.000,24.429 -0.000,16.812 C-0.000,9.196 6.189,3.000 13.795,3.000 C21.402,3.000 27.591,9.196 27.591,16.812 C27.591,18.626 27.231,20.355 26.593,21.943 C26.614,21.962 26.638,21.976 26.658,21.996 C27.671,23.009 27.844,24.530 27.208,25.734 C27.208,25.734 33.026,31.558 33.026,31.558 C34.269,32.803 34.269,34.821 33.026,36.066 zM13.733,6.937 C8.328,6.937 3.932,11.339 3.932,16.749 C3.932,22.160 8.328,26.561 13.733,26.561 C19.137,26.561 23.533,22.160 23.533,16.749 C23.533,11.339 19.137,6.937 13.733,6.937 zM14.468,10.045 C11.090,10.045 7.036,14.104 7.036,17.485 C7.036,18.162 6.488,18.711 5.811,18.711 C5.134,18.711 5.892,18.162 5.892,17.485 C5.892,12.751 9.739,8.899 14.468,8.899 C15.145,8.899 15.693,8.141 15.693,8.818 C15.693,9.496 15.145,10.045 14.468,10.045 z" fill="#BEDCF3" />
<path id="5-stroke" d="M32.577,35.617 C31.973,36.222 31.181,36.524 30.389,36.524 C29.598,36.524 28.806,36.222 28.201,35.617 C28.201,35.617 22.546,29.955 22.546,29.955 C22.095,30.194 21.603,30.327 21.105,30.327 C20.314,30.327 19.522,30.025 18.917,29.420 C18.898,29.400 18.885,29.377 18.866,29.356 C17.324,29.977 15.645,30.327 13.884,30.327 C6.490,30.327 0.474,24.305 0.474,16.901 C0.474,9.498 6.490,3.475 13.884,3.475 C21.279,3.475 27.295,9.498 27.295,16.901 C27.295,18.664 26.944,20.345 26.325,21.889 C26.345,21.907 26.368,21.920 26.388,21.940 C27.372,22.925 27.541,24.403 26.922,25.573 C26.922,25.573 32.577,31.235 32.577,31.235 C33.786,32.445 33.786,34.407 32.577,35.617 zM13.824,7.302 C8.570,7.302 4.297,11.581 4.297,16.840 C4.297,22.099 8.570,26.378 13.824,26.378 C19.077,26.378 23.350,22.099 23.350,16.840 C23.350,11.581 19.077,7.302 13.824,7.302 zM14.538,10.323 C11.255,10.323 7.314,14.268 7.314,17.555 C7.314,18.213 6.782,18.747 6.123,18.747 C5.465,18.747 6.202,18.213 6.202,17.555 C6.202,12.953 9.942,9.209 14.538,9.209 C15.196,9.209 15.729,8.472 15.729,9.130 C15.729,9.789 15.196,10.323 14.538,10.323 z" fill="none" stroke="#2295F4" stroke-opacity="1.000" stroke-width="1" />
</g>
</g>
</svg>
