<svg version="1.1" xmlns="http://www.w3.org/2000/svg" xmlns:xlink="http://www.w3.org/1999/xlink" width="225" height="267" viewBox="0 0 225 267">
<path id="icon-graduate-pa" d="M223.091,82.420 C223.091,82.420 180.884,239.939 180.884,239.939 C180.015,243.179 178.264,246.163 175.819,248.566 C174.803,249.568 173.373,249.893 172.087,249.548 C171.442,249.375 170.834,249.035 170.328,248.522 C168.825,246.994 168.848,244.536 170.373,243.031 C171.830,241.597 172.875,239.830 173.384,237.929 C173.384,237.929 215.591,80.410 215.591,80.410 C219.470,65.934 210.847,51.001 196.376,47.124 C196.376,47.124 53.876,8.941 53.876,8.941 C39.416,5.066 24.503,13.668 20.604,28.115 C18.119,37.447 20.819,47.488 27.648,54.338 C29.159,55.853 29.163,58.314 27.640,59.827 C26.122,61.338 23.667,61.335 22.152,59.820 C13.392,51.041 9.923,38.169 13.080,26.195 C13.080,26.195 13.091,26.151 13.091,26.151 L13.104,26.105 L13.115,26.064 C13.115,26.064 13.127,26.019 13.127,26.019 C18.168,7.488 37.319,-3.535 55.886,1.440 C55.886,1.440 198.386,39.623 198.386,39.623 C216.997,44.610 228.079,63.806 223.091,82.420 zM35.615,32.093 C35.060,34.163 32.934,35.394 30.860,34.839 C28.786,34.283 27.560,32.154 28.115,30.084 C30.885,19.743 41.551,13.585 51.890,16.356 C53.963,16.911 55.189,19.041 54.634,21.110 C54.634,21.110 8.408,193.631 8.408,193.631 C6.746,199.834 10.440,206.235 16.643,207.897 C16.643,207.897 87.893,226.989 87.893,226.989 C89.966,227.544 91.192,229.674 90.637,231.744 C90.083,233.814 87.956,235.045 85.883,234.489 C85.883,234.489 14.633,215.398 14.633,215.398 C4.294,212.628 -1.863,201.961 0.908,191.622 C0.908,191.622 45.958,23.493 45.958,23.493 C41.177,23.872 36.925,27.203 35.615,32.093 zM75.172,199.461 C73.875,199.114 72.852,198.116 72.461,196.830 C72.074,195.544 72.380,194.147 73.265,193.138 C73.333,193.064 73.403,192.986 73.472,192.904 C71.476,193.664 69.040,194.807 66.868,196.058 C65.504,196.843 63.809,196.734 62.563,195.773 C61.316,194.820 60.771,193.207 61.177,191.692 C61.177,191.692 61.669,189.858 61.669,189.858 C59.811,190.747 57.647,191.875 55.618,193.044 C54.035,193.954 52.026,193.637 50.803,192.292 C49.574,190.938 49.454,188.912 50.516,187.424 C55.285,180.743 61.226,169.187 59.512,164.409 C59.253,163.697 58.750,162.903 56.961,162.424 C53.954,161.618 51.538,162.052 49.775,163.714 C46.463,166.835 45.511,173.718 47.233,182.139 C47.667,184.241 46.309,186.293 44.209,186.723 C42.109,187.149 40.056,185.795 39.630,183.695 C37.329,172.455 39.088,163.114 44.449,158.063 C48.196,154.533 53.354,153.419 58.971,154.924 C63.899,156.244 65.959,159.385 66.822,161.791 C68.796,167.296 66.439,174.648 63.474,180.779 C67.109,179.739 68.255,180.625 69.145,181.305 C70.452,182.307 71.059,183.912 70.812,185.599 C73.771,184.518 76.874,183.839 79.192,184.460 C81.134,184.980 82.561,186.315 83.102,188.121 C83.614,189.825 83.203,191.661 82.421,193.364 C82.421,193.364 92.182,195.980 92.182,195.980 C94.256,196.536 95.481,198.665 94.927,200.735 C94.372,202.805 92.246,204.036 90.172,203.480 C90.172,203.480 75.172,199.461 75.172,199.461 zM110.840,222.316 C112.361,220.798 114.820,220.798 116.334,222.317 C117.849,223.833 117.849,226.293 116.334,227.808 C116.334,227.808 104.316,239.823 104.316,239.823 C104.316,239.823 106.597,240.583 106.597,240.583 C107.756,240.965 108.666,241.876 109.050,243.036 C109.050,243.036 109.814,245.315 109.814,245.315 C109.814,245.315 121.637,233.485 121.637,233.485 C123.156,231.971 125.616,231.972 127.128,233.486 C128.647,235.002 128.646,237.462 127.131,238.977 C127.131,238.977 110.863,255.247 110.863,255.247 C109.909,256.197 108.530,256.588 107.225,256.282 C107.225,256.282 107.109,256.251 107.109,256.251 C105.853,255.914 104.844,254.969 104.433,253.729 C104.433,253.729 102.300,247.333 102.300,247.333 C102.300,247.333 95.906,245.202 95.906,245.202 C94.625,244.779 93.662,243.720 93.354,242.412 C93.045,241.104 93.435,239.725 94.385,238.774 C94.385,238.774 110.840,222.316 110.840,222.316 zM118.432,203.014 C121.757,190.603 134.553,183.215 146.962,186.540 C159.370,189.865 166.757,202.661 163.432,215.071 C160.107,227.482 147.311,234.870 134.902,231.545 C122.494,228.220 115.107,215.424 118.432,203.014 zM136.912,224.044 C145.185,226.261 153.715,221.335 155.932,213.061 C158.149,204.788 153.224,196.257 144.952,194.041 C136.679,191.824 128.149,196.750 125.932,205.023 C123.715,213.297 128.640,221.827 136.912,224.044 zM175.025,141.803 C174.471,143.873 172.344,145.105 170.271,144.549 C170.271,144.549 147.771,138.520 147.771,138.520 C145.697,137.964 144.471,135.835 145.026,133.765 C145.581,131.694 147.707,130.463 149.780,131.019 C149.780,131.019 172.280,137.048 172.280,137.048 C174.354,137.604 175.580,139.733 175.025,141.803 zM101.840,69.937 C101.840,69.937 131.840,77.975 131.840,77.975 C133.913,78.531 135.140,80.660 134.585,82.730 C134.030,84.800 131.904,86.031 129.830,85.476 C129.830,85.476 99.830,77.437 99.830,77.437 C97.756,76.882 96.530,74.752 97.085,72.682 C97.640,70.612 99.766,69.381 101.840,69.937 zM59.781,106.904 C59.781,106.904 82.281,112.933 82.281,112.933 C84.354,113.489 85.580,115.618 85.026,117.688 C84.471,119.758 82.345,120.989 80.271,120.433 C80.271,120.433 57.771,114.405 57.771,114.405 C55.697,113.849 54.471,111.720 55.026,109.650 C55.581,107.580 57.707,106.348 59.781,106.904 zM96.741,148.965 C96.741,148.965 51.741,136.907 51.741,136.907 C49.668,136.352 48.442,134.222 48.996,132.152 C49.551,130.082 51.677,128.851 53.751,129.407 C53.751,129.407 98.751,141.464 98.751,141.464 C100.825,142.020 102.051,144.149 101.496,146.220 C100.941,148.289 98.815,149.521 96.741,148.965 zM113.751,145.484 C113.751,145.484 151.251,155.532 151.251,155.532 C153.325,156.087 154.551,158.217 153.996,160.287 C153.441,162.357 151.315,163.588 149.241,163.032 C149.241,163.032 111.742,152.984 111.742,152.984 C109.668,152.429 108.442,150.299 108.997,148.229 C109.551,146.159 111.677,144.928 113.751,145.484 zM92.526,119.697 C93.080,117.627 95.207,116.396 97.281,116.951 C97.281,116.951 134.780,127.000 134.780,127.000 C136.854,127.555 138.080,129.685 137.525,131.755 C136.971,133.825 134.844,135.056 132.771,134.500 C132.771,134.500 95.271,124.452 95.271,124.452 C93.197,123.896 91.971,121.767 92.526,119.697 zM84.830,73.418 C84.830,73.418 69.830,69.399 69.830,69.399 C67.756,68.844 66.530,66.714 67.085,64.644 C67.640,62.574 69.766,61.343 71.840,61.899 C71.840,61.899 86.840,65.918 86.840,65.918 C88.913,66.474 90.139,68.603 89.585,70.673 C89.030,72.743 86.904,73.974 84.830,73.418 zM121.055,103.224 C120.501,105.294 118.374,106.525 116.301,105.969 C116.301,105.969 63.801,91.902 63.801,91.902 C61.727,91.346 60.501,89.217 61.056,87.147 C61.610,85.077 63.737,83.846 65.810,84.401 C65.810,84.401 118.310,98.469 118.310,98.469 C120.384,99.024 121.610,101.154 121.055,103.224 zM152.330,91.505 C152.330,91.505 144.830,89.495 144.830,89.495 C142.756,88.940 141.530,86.810 142.085,84.740 C142.639,82.670 144.766,81.439 146.839,81.995 C146.839,81.995 154.340,84.004 154.340,84.004 C156.413,84.560 157.639,86.689 157.084,88.759 C156.530,90.830 154.404,92.061 152.330,91.505 zM173.555,117.291 C173.000,119.361 170.874,120.592 168.800,120.036 C168.800,120.036 131.300,109.988 131.300,109.988 C129.227,109.433 128.001,107.303 128.555,105.233 C129.110,103.163 131.236,101.932 133.310,102.488 C133.310,102.488 170.810,112.536 170.810,112.536 C172.884,113.091 174.110,115.221 173.555,117.291 zM140.688,237.195 C142.754,236.639 144.884,237.869 145.446,239.941 C145.446,239.941 149.748,256.015 149.748,256.015 C149.748,256.015 151.541,254.422 151.541,254.422 C152.457,253.614 153.700,253.280 154.897,253.524 C154.897,253.524 157.252,254.006 157.252,254.006 C157.252,254.006 152.902,237.795 152.902,237.795 C152.347,235.725 153.577,233.594 155.651,233.041 C157.714,232.480 159.848,233.711 160.405,235.786 C160.405,235.786 166.378,258.065 166.378,258.065 C166.721,259.362 166.373,260.752 165.451,261.731 C164.530,262.710 163.167,263.145 161.846,262.871 C161.846,262.871 155.245,261.525 155.245,261.525 C155.245,261.525 150.205,265.995 150.205,265.995 C149.226,266.861 147.875,267.175 146.623,266.839 C146.623,266.839 146.507,266.808 146.507,266.808 C145.224,266.420 144.225,265.393 143.874,264.093 C143.874,264.093 137.942,241.950 137.942,241.950 C137.388,239.880 138.618,237.750 140.688,237.195 z" fill="#EBEDF5" />
</svg>
