<svg version="1.1" xmlns="http://www.w3.org/2000/svg" xmlns:xlink="http://www.w3.org/1999/xlink" width="100" height="100" viewBox="0 0 100 100">
<g id="icon-phone">
<path id="Ellipse-1-copy-2" d="M50.000,-0.000 C77.614,-0.000 100.000,22.386 100.000,50.000 C100.000,77.614 77.614,100.000 50.000,100.000 C22.386,100.000 -0.000,77.614 -0.000,50.000 C-0.000,22.386 22.386,-0.000 50.000,-0.000 z" fill="#ECF7FF" />
<g id="Group-2-copy-2">
<g id="Rounded-Rectangl" >
<path id="Rounded-Rectangl-fill" d="M64.000,81.000 C64.000,81.000 36.000,81.000 36.000,81.000 C33.239,81.000 31.000,78.761 31.000,76.000 C31.000,76.000 31.000,24.000 31.000,24.000 C31.000,21.239 33.239,19.000 36.000,19.000 C36.000,19.000 64.000,19.000 64.000,19.000 C66.761,19.000 69.000,21.239 69.000,24.000 C69.000,24.000 69.000,76.000 69.000,76.000 C69.000,78.761 66.761,81.000 64.000,81.000 zM50.000,77.000 C51.105,77.000 52.000,76.105 52.000,75.000 C52.000,73.895 51.105,73.000 50.000,73.000 C48.895,73.000 48.000,73.895 48.000,75.000 C48.000,76.105 48.895,77.000 50.000,77.000 zM65.000,26.000 C65.000,24.343 63.657,23.000 62.000,23.000 C62.000,23.000 38.000,23.000 38.000,23.000 C36.343,23.000 35.000,24.343 35.000,26.000 C35.000,26.000 35.000,66.000 35.000,66.000 C35.000,67.657 36.343,69.000 38.000,69.000 C38.000,69.000 62.000,69.000 62.000,69.000 C63.657,69.000 65.000,67.657 65.000,66.000 C65.000,66.000 65.000,26.000 65.000,26.000 z" fill="#BEDCF3" />
<path id="Rounded-Rectangl-stroke" d="M63.650,80.525 C63.650,80.525 36.350,80.525 36.350,80.525 C33.658,80.525 31.475,78.321 31.475,75.602 C31.475,75.602 31.475,24.398 31.475,24.398 C31.475,21.679 33.658,19.475 36.350,19.475 C36.350,19.475 63.650,19.475 63.650,19.475 C66.342,19.475 68.525,21.679 68.525,24.398 C68.525,24.398 68.525,75.602 68.525,75.602 C68.525,78.321 66.342,80.525 63.650,80.525 zM50.000,76.586 C51.077,76.586 51.950,75.705 51.950,74.617 C51.950,73.529 51.077,72.648 50.000,72.648 C48.923,72.648 48.050,73.529 48.050,74.617 C48.050,75.705 48.923,76.586 50.000,76.586 zM64.625,26.368 C64.625,24.736 63.315,23.414 61.700,23.414 C61.700,23.414 38.300,23.414 38.300,23.414 C36.685,23.414 35.375,24.736 35.375,26.368 C35.375,26.368 35.375,65.755 35.375,65.755 C35.375,67.386 36.685,68.709 38.300,68.709 C38.300,68.709 61.700,68.709 61.700,68.709 C63.315,68.709 64.625,67.386 64.625,65.755 C64.625,65.755 64.625,26.368 64.625,26.368 z" fill="none" stroke="#2295F4" stroke-opacity="1.000" stroke-width="1" />
</g>
<path id="Rounded-Rectangl" d="M60.333,52.000 C60.333,52.000 54.000,52.000 54.000,52.000 C52.343,52.000 51.000,50.657 51.000,48.999 C51.000,47.343 52.343,46.000 54.000,46.000 C54.000,46.000 60.000,46.000 60.000,46.000 C61.657,46.000 63.000,47.343 63.000,48.999 C63.000,50.657 63.000,54.000 63.000,54.000 L60.333,52.000 zM44.000,32.000 C42.343,32.000 41.000,30.656 41.000,28.999 C41.000,27.343 42.343,25.999 44.000,25.999 C44.000,25.999 60.000,25.999 60.000,25.999 C61.657,25.999 63.000,27.343 63.000,28.999 C63.000,30.656 63.000,33.999 63.000,33.999 L60.333,32.000 C60.333,32.000 44.000,32.000 44.000,32.000 z" fill="#2295F4" />
<path id="Rounded-Rectangl" d="M52.000,41.999 C52.000,41.999 39.667,41.999 39.667,41.999 L37.000,44.000 C37.000,44.000 37.000,40.656 37.000,39.000 C37.000,37.343 38.343,36.000 40.000,36.000 C40.000,36.000 52.000,36.000 52.000,36.000 C53.657,36.000 55.000,37.343 55.000,39.000 C55.000,40.656 53.657,41.999 52.000,41.999 zM40.000,56.000 C40.000,56.000 46.000,56.000 46.000,56.000 C47.657,56.000 49.000,57.343 49.000,59.000 C49.000,60.657 47.657,62.000 46.000,62.000 C46.000,62.000 39.667,62.000 39.667,62.000 L37.000,64.000 C37.000,64.000 37.000,60.657 37.000,59.000 C37.000,57.343 38.343,56.000 40.000,56.000 z" fill="#BEDCF3" />
</g>
</g>
</svg>
