<svg version="1.1" xmlns="http://www.w3.org/2000/svg" xmlns:xlink="http://www.w3.org/1999/xlink" width="34" height="34" viewBox="0 0 34 34">
<g id="icon-payment">
<g id="Ellipse-7-copy" >
<path id="Ellipse-7-copy-fill" d="M17.000,32.594 C8.388,32.594 1.406,25.612 1.406,17.000 C1.406,8.388 8.388,1.406 17.000,1.406 C25.612,1.406 32.594,8.388 32.594,17.000 C32.594,25.612 25.612,32.594 17.000,32.594 zM16.102,13.323 C16.296,13.202 16.631,13.141 17.107,13.141 C18.107,13.141 19.229,13.434 20.474,14.018 C20.474,14.018 21.537,11.359 21.537,11.359 C20.334,10.818 19.140,10.513 17.955,10.445 C17.955,10.445 17.955,9.185 17.955,9.185 L16.107,9.185 C16.107,9.185 16.107,10.463 16.107,10.463 C14.844,10.600 13.898,10.958 13.267,11.536 C12.635,12.115 12.320,12.917 12.320,13.944 C12.320,14.615 12.425,15.177 12.637,15.628 C12.848,16.079 13.186,16.486 13.650,16.850 C14.115,17.214 14.725,17.542 15.482,17.834 C16.154,18.089 16.688,18.307 17.085,18.488 C17.481,18.668 17.763,18.829 17.933,18.973 C18.103,19.116 18.188,19.290 18.188,19.495 C18.188,19.794 18.070,20.007 17.835,20.134 C17.599,20.262 17.229,20.325 16.723,20.325 C16.109,20.325 15.398,20.203 14.588,19.957 C13.778,19.711 13.028,19.405 12.338,19.038 C12.338,19.038 12.338,22.136 12.338,22.136 C13.546,22.683 14.803,22.988 16.107,23.050 C16.107,23.050 16.107,24.795 16.107,24.795 L17.955,24.795 C17.955,24.795 17.955,22.994 17.955,22.994 C19.170,22.838 20.095,22.434 20.729,21.781 C21.363,21.128 21.680,20.279 21.680,19.234 C21.680,18.307 21.409,17.550 20.867,16.962 C20.325,16.374 19.432,15.850 18.188,15.390 C17.574,15.172 17.095,14.981 16.750,14.816 C16.404,14.651 16.162,14.502 16.022,14.368 C15.882,14.235 15.812,14.065 15.812,13.860 C15.812,13.623 15.909,13.445 16.102,13.323 z" fill="#BEDCF3" />
<path id="Ellipse-7-copy-stroke" d="M17.000,32.131 C8.643,32.131 1.869,25.357 1.869,17.000 C1.869,8.643 8.643,1.869 17.000,1.869 C25.357,1.869 32.131,8.643 32.131,17.000 C32.131,25.357 25.357,32.131 17.000,32.131 zM16.129,13.432 C16.316,13.315 16.641,13.256 17.104,13.256 C18.074,13.256 19.163,13.540 20.371,14.107 C20.371,14.107 21.402,11.526 21.402,11.526 C20.235,11.002 19.077,10.706 17.927,10.640 C17.927,10.640 17.927,9.417 17.927,9.417 L16.133,9.417 C16.133,9.417 16.133,10.657 16.133,10.657 C14.908,10.790 13.990,11.137 13.377,11.699 C12.765,12.260 12.459,13.039 12.459,14.034 C12.459,14.686 12.561,15.231 12.766,15.668 C12.971,16.106 13.299,16.502 13.750,16.854 C14.201,17.208 14.793,17.526 15.527,17.810 C16.179,18.057 16.698,18.268 17.082,18.443 C17.466,18.618 17.741,18.775 17.905,18.914 C18.070,19.053 18.152,19.222 18.152,19.421 C18.152,19.711 18.038,19.918 17.810,20.041 C17.582,20.165 17.222,20.227 16.731,20.227 C16.136,20.227 15.446,20.108 14.660,19.869 C13.874,19.631 13.146,19.334 12.476,18.977 C12.476,18.977 12.476,21.983 12.476,21.983 C13.649,22.514 14.868,22.810 16.133,22.870 C16.133,22.870 16.133,24.563 16.133,24.563 L17.927,24.563 C17.927,24.563 17.927,22.816 17.927,22.816 C19.106,22.665 20.003,22.273 20.618,21.639 C21.233,21.005 21.541,20.182 21.541,19.167 C21.541,18.268 21.278,17.533 20.752,16.963 C20.226,16.393 19.360,15.884 18.152,15.438 C17.557,15.226 17.092,15.041 16.757,14.880 C16.422,14.721 16.187,14.576 16.051,14.446 C15.915,14.317 15.847,14.152 15.847,13.953 C15.847,13.724 15.941,13.550 16.129,13.432 z" fill="none" stroke="#2295F4" stroke-opacity="1.000" stroke-width="1" />
</g>
</g>
</svg>
