<svg xmlns="http://www.w3.org/2000/svg" xmlns:xlink="http://www.w3.org/1999/xlink" preserveAspectRatio="xMidYMid" width="552" height="405" viewBox="0 0 552 405">
  <defs>
    <style>

      .cls-2 {
        fill: #ebedf5;
      }
    </style>
  </defs>
  <path d="M548.330,367.674 C547.820,368.175 547.253,368.591 546.661,368.932 C543.351,370.844 539.050,370.341 536.271,367.473 C536.271,367.473 511.817,342.184 511.817,342.184 C508.540,338.796 508.633,333.393 512.023,330.116 C515.392,326.840 520.808,326.935 524.080,330.317 C524.080,330.317 548.535,355.605 548.535,355.605 C551.816,359.001 551.719,364.397 548.330,367.674 ZM517.108,385.995 C513.022,388.354 507.807,386.951 505.453,382.873 C505.453,382.873 492.655,360.706 492.655,360.706 C490.300,356.628 491.692,351.411 495.779,349.051 C499.866,346.692 505.080,348.095 507.435,352.173 C507.435,352.173 520.232,374.340 520.232,374.340 C522.587,378.418 521.195,383.635 517.108,385.995 ZM491.514,341.663 C479.291,348.721 463.601,344.518 456.546,332.297 C450.991,322.676 452.504,310.976 459.313,302.956 C459.313,302.956 367.889,144.606 367.889,144.606 C367.889,144.606 367.885,144.598 367.885,144.598 C367.885,144.598 354.217,120.924 354.217,120.924 C354.217,120.924 251.704,138.130 251.704,138.130 C248.452,144.342 243.018,150.169 235.620,154.440 C219.045,164.010 200.438,161.768 193.262,149.340 C186.087,136.912 193.449,119.677 210.024,110.107 C226.600,100.537 245.207,102.780 252.382,115.207 C253.334,116.855 253.988,118.585 254.446,120.370 C254.446,120.370 353.231,103.789 353.231,103.789 C353.231,103.789 417.808,19.698 417.808,19.698 C417.808,19.698 176.246,51.603 176.246,51.603 C176.246,51.603 27.834,244.850 27.834,244.850 C27.834,244.850 269.397,212.946 269.397,212.946 C269.397,212.946 326.235,138.949 326.235,138.949 C329.109,135.221 334.460,134.506 338.195,137.374 C341.935,140.250 342.642,145.605 339.762,149.337 C339.762,149.337 280.779,226.137 280.779,226.137 C280.095,227.036 279.241,227.774 278.280,228.329 C277.319,228.885 276.251,229.254 275.132,229.398 C275.132,229.398 9.629,264.464 9.629,264.464 C6.207,264.923 2.847,263.267 1.119,260.274 C-0.608,257.281 -0.358,253.551 1.745,250.810 C1.745,250.810 164.866,38.410 164.866,38.410 C166.245,36.619 168.270,35.450 170.511,35.151 C170.511,35.151 436.022,0.079 436.022,0.079 C439.440,-0.368 442.796,1.281 444.524,4.273 C446.252,7.266 446.005,11.005 443.898,13.738 C443.898,13.738 368.630,111.754 368.630,111.754 C368.630,111.754 376.338,125.105 376.338,125.105 C376.338,125.105 443.950,37.412 443.950,37.412 C443.950,37.412 442.542,34.974 442.542,34.974 C440.187,30.896 441.579,25.679 445.666,23.319 C449.753,20.960 454.967,22.363 457.322,26.442 C457.322,26.442 461.588,33.830 461.588,33.830 C463.315,36.823 463.074,40.568 460.959,43.306 C460.959,43.306 385.565,141.089 385.565,141.089 C385.565,141.089 438.481,232.742 438.481,232.742 C442.038,217.980 440.905,205.758 440.374,201.887 C440.374,201.887 411.301,151.532 411.301,151.532 C408.947,147.454 410.339,142.236 414.425,139.877 C418.512,137.517 423.726,138.921 426.081,142.999 C426.081,142.999 455.943,194.720 455.943,194.720 C456.416,195.540 456.749,196.441 456.931,197.371 C457.144,198.508 461.851,224.223 449.879,252.484 C449.879,252.484 474.093,294.423 474.093,294.423 C484.444,292.536 495.332,297.077 500.886,306.697 C507.942,318.918 503.737,334.606 491.514,341.663 ZM237.602,123.741 C235.862,120.727 227.580,119.676 218.556,124.886 C209.532,130.096 206.300,137.793 208.041,140.808 C209.781,143.822 218.064,144.872 227.087,139.663 C236.110,134.453 239.343,126.756 237.602,123.741 ZM486.105,315.229 C483.755,311.158 478.528,309.752 474.450,312.107 C470.371,314.462 468.975,319.691 471.326,323.762 C473.676,327.834 478.902,329.239 482.981,326.884 C487.060,324.530 488.455,319.300 486.105,315.229 ZM17.042,270.785 C21.121,268.430 26.343,269.829 28.698,273.907 C28.698,273.907 30.114,276.360 30.114,276.360 C30.114,276.360 286.461,242.501 286.461,242.501 C286.461,242.501 346.170,164.739 346.170,164.739 C349.040,161.023 354.401,160.292 358.141,163.167 C361.876,166.036 362.583,171.391 359.714,175.126 C359.714,175.126 297.842,255.694 297.842,255.694 C297.158,256.591 296.303,257.330 295.343,257.885 C294.382,258.439 293.314,258.809 292.196,258.953 C292.196,258.953 26.692,294.019 26.692,294.019 C23.271,294.478 19.911,292.822 18.183,289.829 C18.183,289.829 13.917,282.441 13.917,282.441 C11.563,278.362 12.963,273.140 17.042,270.785 ZM133.603,302.007 C137.682,299.652 142.904,301.051 145.259,305.129 C145.259,305.129 174.233,355.314 174.233,355.314 C183.832,362.107 245.532,400.590 338.983,350.537 C338.983,350.537 300.752,284.318 300.752,284.318 C298.397,280.239 299.797,275.018 303.876,272.663 C307.955,270.308 313.177,271.706 315.531,275.785 C315.531,275.785 353.801,342.070 353.801,342.070 C386.317,321.829 405.100,300.227 415.128,285.186 C417.756,281.255 423.046,280.211 426.960,282.828 C430.890,285.435 431.944,290.727 429.325,294.652 C417.547,312.309 395.100,338.215 355.068,361.327 C240.529,427.456 165.586,370.286 162.452,367.829 C161.598,367.151 160.883,366.323 160.341,365.384 C160.341,365.384 130.479,313.662 130.479,313.662 C128.125,309.584 129.524,304.362 133.603,302.007 ZM471.259,353.651 C475.792,352.354 480.517,354.975 481.814,359.507 C481.814,359.507 491.488,393.329 491.488,393.329 C492.582,397.170 490.867,401.145 487.556,403.057 C486.965,403.398 486.320,403.681 485.632,403.872 C481.099,405.168 476.371,402.558 475.078,398.015 C475.078,398.015 465.404,364.194 465.404,364.194 C464.104,359.672 466.717,354.932 471.259,353.651 Z" id="path-1" class="cls-2" fill-rule="evenodd"/>
</svg>
