<svg version="1.1" xmlns="http://www.w3.org/2000/svg" xmlns:xlink="http://www.w3.org/1999/xlink" width="100" height="100" viewBox="0 0 100 100">
<g id="icon-papers">
<path id="Ellipse-1-copy-4" d="M50.000,-0.000 C77.614,-0.000 100.000,22.386 100.000,50.000 C100.000,77.614 77.614,100.000 50.000,100.000 C22.386,100.000 -0.000,77.614 -0.000,50.000 C-0.000,22.386 22.386,-0.000 50.000,-0.000 z" fill="#ECF7FF" />
<g id="Group-4">
<g id="Rectangle-6" >
<path id="Rectangle-6-fill" d="M34.000,27.000 L74.000,27.000 L74.000,82.000 L34.000,82.000 L34.000,27.000 z" fill="#BEDCF3" />
<path id="Rectangle-6-stroke" d="M34.475,27.475 L73.525,27.475 L73.525,81.525 L34.475,81.525 L34.475,27.475 z" fill="none" stroke="#2295F4" stroke-opacity="1.000" stroke-width="1" />
</g>
<g id="Rectangle-6-copy" >
<path id="Rectangle-6-copy-fill" d="M26.000,19.000 L66.000,19.000 L66.000,74.000 L26.000,74.000 L26.000,19.000 z" fill="#ECF7FF" />
<path id="Rectangle-6-copy-stroke" d="M26.475,19.475 L65.525,19.475 L65.525,73.525 L26.475,73.525 L26.475,19.475 z" fill="none" stroke="#2295F4" stroke-opacity="1.000" stroke-width="1" />
</g>
<path id="Rectangle-7" d="M32.000,65.000 L32.000,62.000 L59.000,62.000 L59.000,65.000 L32.000,65.000 zM32.000,56.000 L59.000,56.000 L59.000,59.000 L32.000,59.000 L32.000,56.000 zM32.000,50.000 L59.000,50.000 L59.000,53.000 L32.000,53.000 L32.000,50.000 zM32.000,44.000 L59.000,44.000 L59.000,47.000 L32.000,47.000 L32.000,44.000 zM32.000,38.000 L59.000,38.000 L59.000,41.000 L32.000,41.000 L32.000,38.000 zM32.000,32.000 L59.000,32.000 L59.000,35.000 L32.000,35.000 L32.000,32.000 zM32.000,26.000 L42.000,26.000 L42.000,29.000 L32.000,29.000 L32.000,26.000 z" fill="#BEDCF3" />
</g>
</g>
</svg>
