<svg version="1.1" xmlns="http://www.w3.org/2000/svg" xmlns:xlink="http://www.w3.org/1999/xlink" width="30" height="30" viewBox="0 0 30 30">
<g id="icon-question-gr">
<path id="Ellipse-2-copy-3" d="M15.000,-0.000 C23.284,-0.000 30.000,6.716 30.000,15.000 C30.000,23.284 23.284,30.000 15.000,30.000 C6.716,30.000 -0.000,23.284 -0.000,15.000 C-0.000,6.716 6.716,-0.000 15.000,-0.000 z" fill="#5CC75A" />
<path id="?" d="M15.793,17.576 C15.793,17.576 15.793,16.941 15.793,16.941 C15.793,16.518 15.886,16.176 16.071,15.915 C16.255,15.654 16.696,15.273 17.391,14.772 C18.406,14.067 19.094,13.431 19.456,12.867 C19.819,12.303 20.000,11.633 20.000,10.856 C20.000,9.692 19.560,8.761 18.679,8.063 C17.799,7.364 16.612,7.015 15.119,7.015 C13.308,7.015 11.594,7.456 9.978,8.338 C9.978,8.338 11.163,10.655 11.163,10.655 C12.554,9.964 13.793,9.618 14.880,9.618 C15.503,9.618 15.989,9.738 16.337,9.978 C16.685,10.218 16.859,10.567 16.859,11.026 C16.859,11.435 16.737,11.805 16.494,12.137 C16.252,12.468 15.750,12.899 14.989,13.428 C14.199,13.992 13.656,14.525 13.359,15.026 C13.061,15.527 12.913,16.116 12.913,16.793 C12.913,16.793 12.913,17.576 12.913,17.576 L15.793,17.576 zM13.065,22.523 C13.398,22.837 13.869,22.994 14.478,22.994 C15.072,22.994 15.536,22.833 15.870,22.512 C16.203,22.192 16.370,21.752 16.370,21.195 C16.370,20.617 16.205,20.172 15.875,19.862 C15.545,19.551 15.080,19.396 14.478,19.396 C13.855,19.396 13.380,19.548 13.054,19.851 C12.728,20.154 12.565,20.603 12.565,21.195 C12.565,21.766 12.732,22.209 13.065,22.523 z" fill="#FFFFFF" />
</g>
</svg>
