<svg version="1.1" xmlns="http://www.w3.org/2000/svg" xmlns:xlink="http://www.w3.org/1999/xlink" width="95" height="16" viewBox="0 0 95 16">
<g id="icon-mastercard">
<path id="Forma-1" d="M63.082,12.767 C64.163,12.767 65.738,11.977 65.738,11.977 L65.163,15.481 C65.163,15.481 63.435,15.920 62.354,15.920 C58.520,15.920 56.572,13.275 56.572,9.264 C56.572,3.216 60.180,-0.005 63.887,-0.005 C65.560,-0.005 67.505,0.783 67.505,0.783 L66.981,4.189 C66.981,4.189 65.667,3.270 64.033,3.270 C61.848,3.270 59.886,5.357 59.886,9.154 C59.886,11.025 60.801,12.767 63.082,12.767 zM82.585,10.614 C82.585,13.251 83.894,15.831 86.568,15.831 C88.493,15.831 89.558,14.492 89.558,14.492 L89.418,15.635 L92.543,15.635 L94.998,0.347 L91.778,0.353 L91.083,4.655 C91.083,4.655 89.875,2.982 87.981,2.982 C85.037,2.984 82.585,6.536 82.585,10.614 zM90.284,8.743 C90.284,10.439 89.444,12.710 87.704,12.710 C86.547,12.710 86.005,11.738 86.005,10.214 C86.005,7.720 87.123,6.077 88.536,6.077 C89.690,6.078 90.284,6.872 90.284,8.743 zM72.577,2.899 C70.371,2.899 68.684,3.608 68.684,3.608 L68.217,6.378 C68.217,6.378 69.611,5.812 71.717,5.812 C72.915,5.812 73.791,5.945 73.791,6.918 C73.791,7.510 73.681,7.728 73.681,7.728 C73.681,7.728 72.740,7.649 72.299,7.649 C69.522,7.649 66.605,8.834 66.605,12.413 C66.605,15.235 68.520,15.879 69.707,15.879 C71.971,15.879 72.949,14.406 73.002,14.406 C73.002,14.406 72.896,15.635 72.896,15.635 L75.724,15.635 C75.724,15.635 76.987,6.780 76.987,6.780 C76.991,3.020 73.714,2.899 72.577,2.899 zM70.994,13.184 C69.993,13.184 69.735,12.421 69.735,11.969 C69.735,11.091 70.213,10.032 72.567,10.032 C73.114,10.034 73.173,10.093 73.267,10.105 C73.328,10.649 72.927,13.184 70.994,13.184 zM82.913,6.818 C80.683,6.028 80.512,10.350 79.573,15.672 C79.573,15.672 76.275,15.672 76.275,15.672 L78.280,3.210 L81.272,3.210 L80.985,5.015 C80.985,5.015 82.053,3.051 83.492,3.051 C83.911,3.051 84.110,3.093 84.110,3.093 C83.685,3.961 83.305,4.759 82.913,6.818 z" fill="#777777" />
<path id="Rectangle-12" d="M20.497,2.899 C18.294,2.899 16.606,3.608 16.606,3.608 L16.139,6.378 C16.139,6.378 17.533,5.812 19.641,5.812 C20.838,5.812 21.713,5.945 21.713,6.918 C21.713,7.510 21.607,7.728 21.607,7.728 C21.607,7.728 20.664,7.649 20.227,7.649 C17.448,7.649 14.528,8.834 14.528,12.413 C14.528,15.235 16.441,15.879 17.631,15.879 C19.897,15.879 20.876,14.406 20.926,14.406 C20.926,14.406 20.819,15.635 20.819,15.635 L23.649,15.635 C23.649,15.635 24.910,6.780 24.910,6.780 C24.908,3.020 21.633,2.899 20.497,2.899 zM18.910,13.184 C17.913,13.184 17.653,12.421 17.653,11.969 C17.653,11.091 18.130,10.032 20.485,10.032 C21.033,10.034 21.093,10.093 21.184,10.105 C21.246,10.649 20.847,13.184 18.910,13.184 zM28.947,6.916 C28.947,8.522 32.775,7.732 32.775,11.725 C32.775,15.998 28.639,15.814 27.916,15.814 C25.220,15.814 24.388,15.444 24.311,15.420 C24.311,15.420 24.739,12.608 24.739,12.608 C24.744,12.584 26.092,13.100 27.594,13.100 C28.460,13.100 29.583,13.015 29.583,11.977 C29.583,10.427 25.562,10.797 25.562,7.116 C25.562,3.868 27.972,2.918 30.349,2.918 C32.185,2.918 33.314,3.170 33.314,3.170 L32.908,6.007 C32.908,6.007 31.166,5.864 30.714,5.864 C29.569,5.868 28.947,6.118 28.947,6.916 zM36.572,11.807 C36.501,12.250 36.624,12.844 37.742,12.844 C38.027,12.844 38.350,12.751 38.571,12.751 C38.571,12.751 38.168,15.485 38.168,15.485 C37.846,15.570 36.932,15.896 35.760,15.904 C34.263,15.920 33.200,15.078 33.200,13.182 C33.200,11.904 35.025,1.401 35.096,1.332 C35.096,1.332 38.308,1.332 38.308,1.332 L37.981,3.208 L39.584,3.208 L39.174,6.232 L37.473,6.232 C37.473,6.232 36.572,11.807 36.572,11.807 zM48.966,10.480 C48.966,10.480 49.388,8.397 49.388,7.550 C49.388,5.430 48.336,2.847 44.810,2.847 C41.578,2.849 39.187,6.333 39.187,10.268 C39.187,14.813 42.182,15.891 44.736,15.891 C47.093,15.891 48.129,15.367 48.129,15.367 L48.695,12.262 C48.695,12.262 46.903,13.056 45.283,13.056 C41.834,13.056 42.438,10.480 42.438,10.480 L48.966,10.480 zM44.820,5.728 C46.633,5.728 46.298,7.768 46.298,7.932 C46.298,7.932 42.732,7.932 42.732,7.932 C42.732,7.722 43.068,5.728 44.820,5.728 zM15.680,0.339 L13.146,15.651 L9.858,15.651 L11.687,4.107 L7.559,15.651 L5.347,15.651 L5.059,4.107 L3.104,15.651 L0.004,15.651 L2.574,0.339 L7.262,0.339 L7.426,9.735 L10.592,0.339 L15.680,0.339 zM57.135,3.091 C56.708,3.961 56.332,4.759 55.940,6.820 C53.710,6.031 53.535,10.350 52.600,15.674 C52.600,15.674 49.302,15.674 49.302,15.674 L51.307,3.212 L54.297,3.212 L54.011,5.018 C54.011,5.018 55.076,3.053 56.515,3.053 C56.934,3.049 57.135,3.091 57.135,3.091 z" fill="#929292" />
</g>
</svg>
