<svg version="1.1" xmlns="http://www.w3.org/2000/svg" xmlns:xlink="http://www.w3.org/1999/xlink" width="34" height="34" viewBox="0 0 34 34">
<g id="icon-messenger">
<g id="icon-copy" >
<path id="icon-copy-fill" d="M17.000,31.213 C15.288,31.213 13.635,30.978 12.079,30.538 C12.015,30.570 6.532,33.798 6.532,33.798 C6.532,33.798 6.403,29.108 6.403,27.854 C2.449,25.017 0.200,20.687 0.200,15.706 C0.200,7.141 7.721,0.198 17.000,0.198 C26.278,0.198 33.799,7.141 33.799,15.706 C33.799,24.271 26.278,31.213 17.000,31.213 zM19.047,15.807 L15.567,11.944 L8.606,20.351 L14.952,16.716 L18.433,20.351 L25.393,12.172 L19.047,15.807 z" fill="#BEDCF3" />
<path id="icon-copy-stroke" d="M17.000,30.816 C15.335,30.816 13.729,30.587 12.216,30.160 C12.154,30.191 6.825,33.328 6.825,33.328 C6.825,33.328 6.699,28.770 6.699,27.551 C2.855,24.793 0.669,20.584 0.669,15.743 C0.669,7.417 7.981,0.668 17.000,0.668 C26.019,0.668 33.330,7.417 33.330,15.743 C33.330,24.068 26.019,30.816 17.000,30.816 zM18.990,15.840 L15.607,12.086 L8.841,20.257 L15.010,16.724 L18.393,20.257 L25.159,12.307 L18.990,15.840 z" fill="none" stroke="#2295F4" stroke-opacity="1.000" stroke-width="1" />
</g>
</g>
</svg>
