<svg xmlns="http://www.w3.org/2000/svg" xmlns:xlink="http://www.w3.org/1999/xlink" preserveAspectRatio="xMidYMid" width="245" height="253" viewBox="0 0 245 253">
  <defs>
    <style>

      .cls-2 {
        fill: #ebedf5;
      }
    </style>
  </defs>
  <path d="M242.869,153.704 C242.869,153.704 207.644,214.703 207.644,214.703 C207.141,215.574 206.309,216.213 205.336,216.474 C205.336,216.474 183.302,222.378 183.302,222.378 C181.276,222.921 179.190,221.717 178.647,219.691 C178.647,219.691 172.744,197.661 172.744,197.661 C172.483,196.688 172.621,195.647 173.124,194.777 C173.124,194.777 208.348,133.778 208.348,133.778 C212.476,126.635 221.073,124.319 228.230,128.451 C228.230,128.451 237.542,133.826 237.542,133.826 C244.961,138.111 247.152,146.288 242.869,153.704 ZM205.650,202.955 C205.650,202.955 229.008,162.507 229.008,162.507 C229.008,162.507 221.623,158.244 221.623,158.244 C221.623,158.244 198.265,198.692 198.265,198.692 C198.265,198.692 205.650,202.955 205.650,202.955 ZM185.007,214.051 C185.007,214.051 201.849,209.538 201.849,209.538 C201.849,209.538 180.496,197.212 180.496,197.212 C180.496,197.212 185.007,214.051 185.007,214.051 ZM207.654,150.181 C207.654,150.181 184.297,190.630 184.297,190.630 C184.297,190.630 191.681,194.893 191.681,194.893 C191.681,194.893 215.039,154.444 215.039,154.444 C215.039,154.444 207.654,150.181 207.654,150.181 ZM233.741,140.409 C233.741,140.409 224.429,135.034 224.429,135.034 C220.733,132.903 217.057,133.904 214.932,137.578 C214.932,137.578 211.456,143.598 211.456,143.598 C211.456,143.598 232.809,155.924 232.809,155.924 C232.809,155.924 236.285,149.904 236.285,149.904 C238.460,146.138 237.509,142.587 233.741,140.409 ZM218.448,118.514 C216.421,119.057 214.335,117.853 213.792,115.827 C213.792,115.827 195.099,46.065 195.099,46.065 C195.099,46.065 162.049,54.921 162.049,54.921 C151.924,57.634 141.480,51.606 138.768,41.483 C138.768,41.483 133.849,23.125 133.849,23.125 C133.306,21.098 134.510,19.012 136.537,18.469 C138.564,17.926 140.650,19.130 141.193,21.157 C141.193,21.157 146.112,39.515 146.112,39.515 C147.740,45.588 154.007,49.205 160.081,47.578 C160.081,47.578 196.804,37.738 196.804,37.738 C198.831,37.195 200.917,38.399 201.460,40.425 C201.460,40.425 221.136,113.859 221.136,113.859 C221.679,115.886 220.475,117.971 218.448,118.514 ZM174.906,161.663 C174.906,161.663 167.561,163.631 167.561,163.631 C165.534,164.174 163.448,162.970 162.905,160.944 C162.362,158.917 163.567,156.831 165.594,156.288 C165.594,156.288 172.938,154.320 172.938,154.320 C174.965,153.777 177.051,154.981 177.594,157.008 C178.137,159.034 176.933,161.120 174.906,161.663 ZM186.381,131.042 C186.924,133.069 185.720,135.155 183.693,135.697 C183.693,135.697 161.659,141.601 161.659,141.601 C159.632,142.144 157.546,140.940 157.003,138.914 C156.460,136.887 157.664,134.801 159.691,134.258 C159.691,134.258 181.725,128.354 181.725,128.354 C183.752,127.811 185.838,129.015 186.381,131.042 ZM169.919,84.294 C171.946,83.751 174.032,84.955 174.575,86.982 C175.118,89.009 173.913,91.094 171.886,91.637 C171.886,91.637 142.508,99.510 142.508,99.510 C140.481,100.053 138.395,98.848 137.852,96.822 C137.309,94.795 138.513,92.710 140.540,92.166 C140.540,92.166 169.919,84.294 169.919,84.294 ZM97.915,79.977 C97.915,79.977 134.638,70.137 134.638,70.137 C136.664,69.594 138.750,70.798 139.293,72.824 C139.836,74.851 138.632,76.937 136.605,77.480 C136.605,77.480 99.882,87.320 99.882,87.320 C97.855,87.863 95.769,86.659 95.226,84.632 C94.683,82.606 95.888,80.520 97.915,79.977 ZM107.032,128.692 C106.489,126.665 107.694,124.579 109.720,124.036 C109.720,124.036 117.065,122.068 117.065,122.068 C119.092,121.525 121.178,122.729 121.721,124.756 C122.264,126.782 121.060,128.868 119.033,129.411 C119.033,129.411 111.688,131.379 111.688,131.379 C109.661,131.922 107.575,130.718 107.032,128.692 ZM112.935,150.722 C112.392,148.695 113.596,146.609 115.623,146.066 C115.623,146.066 145.002,138.194 145.002,138.194 C147.029,137.651 149.115,138.855 149.658,140.882 C150.201,142.908 148.996,144.994 146.969,145.537 C146.969,145.537 117.591,153.409 117.591,153.409 C115.564,153.952 113.478,152.748 112.935,150.722 ZM156.808,182.254 C158.835,181.711 160.921,182.915 161.464,184.942 C162.007,186.968 160.802,189.054 158.775,189.597 C158.775,189.597 129.397,197.469 129.397,197.469 C127.370,198.012 125.284,196.808 124.741,194.781 C124.198,192.755 125.402,190.669 127.429,190.126 C127.429,190.126 156.808,182.254 156.808,182.254 ZM118.838,172.752 C118.295,170.725 119.499,168.639 121.526,168.096 C121.526,168.096 150.905,160.224 150.905,160.224 C152.932,159.681 155.018,160.885 155.561,162.912 C156.104,164.938 154.899,167.024 152.872,167.567 C152.872,167.567 123.494,175.439 123.494,175.439 C121.467,175.982 119.381,174.778 118.838,172.752 ZM127.819,103.445 C127.819,103.445 105.785,109.349 105.785,109.349 C103.759,109.892 101.673,108.688 101.130,106.662 C100.587,104.635 101.791,102.549 103.818,102.006 C103.818,102.006 125.852,96.102 125.852,96.102 C127.879,95.559 129.965,96.763 130.508,98.790 C131.051,100.817 129.846,102.902 127.819,103.445 ZM168.477,108.293 C170.504,107.750 172.590,108.954 173.133,110.980 C173.676,113.007 172.472,115.093 170.445,115.636 C170.445,115.636 133.722,125.476 133.722,125.476 C131.695,126.019 129.609,124.815 129.066,122.788 C128.523,120.762 129.727,118.676 131.754,118.133 C131.754,118.133 168.477,108.293 168.477,108.293 ZM104.149,176.688 C104.149,176.688 110.051,198.718 110.051,198.718 C110.595,200.744 109.390,202.830 107.363,203.374 C107.363,203.374 85.329,209.277 85.329,209.277 C83.302,209.820 81.216,208.616 80.673,206.590 C80.673,206.590 74.770,184.560 74.770,184.560 C74.227,182.533 75.432,180.447 77.459,179.905 C77.459,179.905 99.493,174.000 99.493,174.000 C101.520,173.457 103.605,174.661 104.149,176.688 ZM83.099,186.263 C83.099,186.263 87.034,200.950 87.034,200.950 C87.034,200.950 101.723,197.014 101.723,197.014 C101.723,197.014 97.788,182.327 97.788,182.327 C97.788,182.327 83.099,186.263 83.099,186.263 ZM83.752,115.253 C83.752,115.253 61.718,121.157 61.718,121.157 C59.691,121.700 57.605,120.496 57.062,118.469 C57.062,118.469 51.159,96.440 51.159,96.440 C50.616,94.413 51.821,92.327 53.848,91.784 C53.848,91.784 75.881,85.880 75.881,85.880 C77.908,85.337 79.994,86.541 80.537,88.568 C80.537,88.568 86.440,110.598 86.440,110.598 C86.983,112.624 85.779,114.710 83.752,115.253 ZM74.176,94.208 C74.176,94.208 59.487,98.143 59.487,98.143 C59.487,98.143 63.423,112.830 63.423,112.830 C63.423,112.830 78.112,108.894 78.112,108.894 C78.112,108.894 74.176,94.208 74.176,94.208 ZM89.890,130.010 C91.877,130.682 92.943,132.840 92.272,134.830 C92.272,134.830 83.486,160.796 83.486,160.796 C83.121,161.874 82.293,162.734 81.227,163.133 C81.106,163.182 80.990,163.217 80.868,163.249 C79.899,163.509 78.859,163.374 77.984,162.869 C77.984,162.869 68.671,157.493 68.671,157.493 C66.850,156.443 66.229,154.122 67.280,152.302 C68.331,150.482 70.652,149.859 72.473,150.910 C72.473,150.910 77.770,153.965 77.770,153.965 C77.770,153.965 85.069,132.392 85.069,132.392 C85.745,130.405 87.895,129.337 89.890,130.010 ZM177.262,33.950 C177.262,33.950 132.065,7.862 132.065,7.862 C132.065,7.862 16.072,38.942 16.072,38.942 C9.998,40.569 6.380,46.836 8.007,52.908 C8.007,52.908 57.198,236.491 57.198,236.491 C58.825,242.564 65.092,246.182 71.166,244.554 C71.166,244.554 166.646,218.971 166.646,218.971 C168.673,218.427 170.759,219.632 171.302,221.659 C171.845,223.686 170.641,225.771 168.614,226.314 C168.614,226.314 73.134,251.898 73.134,251.898 C63.010,254.611 52.566,248.582 49.854,238.460 C49.854,238.460 0.663,54.876 0.663,54.876 C-2.050,44.754 3.980,34.311 14.105,31.598 C14.105,31.598 131.618,0.110 131.618,0.110 C132.591,-0.150 133.631,-0.016 134.503,0.490 C134.503,0.490 181.064,27.368 181.064,27.368 C182.884,28.418 183.506,30.739 182.455,32.559 C181.404,34.380 179.083,35.002 177.262,33.950 Z" id="path-1" class="cls-2" fill-rule="evenodd"/>
</svg>
