<svg version="1.1" xmlns="http://www.w3.org/2000/svg" xmlns:xlink="http://www.w3.org/1999/xlink" width="180" height="180" viewBox="0 0 180 180">
<g id="icon-monitor-no">
<path id="bg" d="M90.000,-0.000 C139.706,-0.000 180.000,40.294 180.000,90.000 C180.000,139.706 139.706,180.000 90.000,180.000 C40.294,180.000 -0.000,139.706 -0.000,90.000 C-0.000,40.294 40.294,-0.000 90.000,-0.000 z" fill="#ECF7FF" />
<g id="Group-2-copy">
<g id="Rounded-Rectangl" >
<path id="Rounded-Rectangl-fill" d="M140.000,126.000 C140.000,126.000 39.000,126.000 39.000,126.000 C36.239,126.000 34.000,123.761 34.000,121.000 C34.000,121.000 34.000,49.000 34.000,49.000 C34.000,46.239 36.239,44.000 39.000,44.000 C39.000,44.000 140.000,44.000 140.000,44.000 C142.761,44.000 145.000,46.239 145.000,49.000 C145.000,49.000 145.000,121.000 145.000,121.000 C145.000,123.761 142.761,126.000 140.000,126.000 zM90.000,121.000 C91.105,121.000 92.000,120.105 92.000,119.000 C92.000,117.895 91.105,117.000 90.000,117.000 C88.895,117.000 88.000,117.895 88.000,119.000 C88.000,120.105 88.895,121.000 90.000,121.000 zM141.000,51.000 C141.000,49.343 139.657,48.000 138.000,48.000 C138.000,48.000 41.000,48.000 41.000,48.000 C39.343,48.000 38.000,49.343 38.000,51.000 C38.000,51.000 38.000,109.000 38.000,109.000 C38.000,110.657 39.343,112.000 41.000,112.000 C41.000,112.000 138.000,112.000 138.000,112.000 C139.657,112.000 141.000,110.657 141.000,109.000 C141.000,109.000 141.000,51.000 141.000,51.000 z" fill="#BEDCF3" />
<path id="Rounded-Rectangl-stroke" d="M139.568,125.525 C139.568,125.525 39.432,125.525 39.432,125.525 C36.694,125.525 34.475,123.312 34.475,120.583 C34.475,120.583 34.475,49.417 34.475,49.417 C34.475,46.688 36.694,44.475 39.432,44.475 C39.432,44.475 139.568,44.475 139.568,44.475 C142.306,44.475 144.525,46.688 144.525,49.417 C144.525,49.417 144.525,120.583 144.525,120.583 C144.525,123.312 142.306,125.525 139.568,125.525 zM89.996,120.583 C91.091,120.583 91.979,119.698 91.979,118.606 C91.979,117.514 91.091,116.629 89.996,116.629 C88.901,116.629 88.013,117.514 88.013,118.606 C88.013,119.698 88.901,120.583 89.996,120.583 zM140.559,51.394 C140.559,49.756 139.228,48.429 137.585,48.429 C137.585,48.429 41.415,48.429 41.415,48.429 C39.772,48.429 38.441,49.756 38.441,51.394 C38.441,51.394 38.441,108.722 38.441,108.722 C38.441,110.360 39.772,111.687 41.415,111.687 C41.415,111.687 137.585,111.687 137.585,111.687 C139.228,111.687 140.559,110.360 140.559,108.722 C140.559,108.722 140.559,51.394 140.559,51.394 z" fill="none" stroke="#2295F4" stroke-opacity="1.000" stroke-width="1" />
</g>
<path id="Rectangle-3" d="M92.000,103.000 L92.000,100.000 L130.000,100.000 L130.000,103.000 L92.000,103.000 zM92.000,94.000 L130.000,94.000 L130.000,97.000 L92.000,97.000 L92.000,94.000 zM92.000,88.000 L130.000,88.000 L130.000,91.000 L92.000,91.000 L92.000,88.000 zM92.000,82.000 L130.000,82.000 L130.000,85.000 L92.000,85.000 L92.000,82.000 zM92.000,76.000 L130.000,76.000 L130.000,79.000 L92.000,79.000 L92.000,76.000 zM92.000,70.000 L130.000,70.000 L130.000,73.000 L92.000,73.000 L92.000,70.000 zM92.000,64.000 L130.000,64.000 L130.000,67.000 L92.000,67.000 L92.000,64.000 zM92.000,58.000 L130.000,58.000 L130.000,61.000 L92.000,61.000 L92.000,58.000 zM55.000,100.000 L87.000,100.000 L87.000,103.000 L55.000,103.000 L55.000,100.000 zM55.000,94.000 L87.000,94.000 L87.000,97.000 L55.000,97.000 L55.000,94.000 zM55.000,88.000 L87.000,88.000 L87.000,91.000 L55.000,91.000 L55.000,88.000 zM55.000,82.000 L87.000,82.000 L87.000,85.000 L55.000,85.000 L55.000,82.000 zM55.000,76.000 L87.000,76.000 L87.000,79.000 L55.000,79.000 L55.000,76.000 zM55.000,70.000 L87.000,70.000 L87.000,73.000 L55.000,73.000 L55.000,70.000 zM55.000,64.000 L87.000,64.000 L87.000,67.000 L55.000,67.000 L55.000,64.000 zM55.000,58.000 L87.000,58.000 L87.000,61.000 L55.000,61.000 L55.000,58.000 zM49.000,100.000 L52.000,100.000 L52.000,103.000 L49.000,103.000 L49.000,100.000 zM49.000,94.000 L52.000,94.000 L52.000,97.000 L49.000,97.000 L49.000,94.000 zM49.000,88.000 L52.000,88.000 L52.000,91.000 L49.000,91.000 L49.000,88.000 zM49.000,82.000 L52.000,82.000 L52.000,85.000 L49.000,85.000 L49.000,82.000 zM49.000,76.000 L52.000,76.000 L52.000,79.000 L49.000,79.000 L49.000,76.000 zM49.000,70.000 L52.000,70.000 L52.000,73.000 L49.000,73.000 L49.000,70.000 zM49.000,64.000 L52.000,64.000 L52.000,67.000 L49.000,67.000 L49.000,64.000 zM49.000,58.000 L52.000,58.000 L52.000,61.000 L49.000,61.000 L49.000,58.000 z" fill="#BEDCF3" />
<g id="Rounded-Rectangl" >
<path id="Rounded-Rectangl-fill" d="M78.000,132.000 C78.000,132.000 102.000,132.000 102.000,132.000 C103.657,132.000 105.000,133.343 105.000,135.000 C105.000,136.657 103.657,138.000 102.000,138.000 C102.000,138.000 78.000,138.000 78.000,138.000 C76.343,138.000 75.000,136.657 75.000,135.000 C75.000,133.343 76.343,132.000 78.000,132.000 z" fill="#BEDCF3" />
<path id="Rounded-Rectangl-stroke" d="M78.380,132.475 C78.380,132.475 101.620,132.475 101.620,132.475 C103.224,132.475 104.525,133.605 104.525,135.000 C104.525,136.395 103.224,137.525 101.620,137.525 C101.620,137.525 78.380,137.525 78.380,137.525 C76.776,137.525 75.475,136.395 75.475,135.000 C75.475,133.605 76.776,132.475 78.380,132.475 z" fill="none" stroke="#2295F4" stroke-opacity="1.000" stroke-width="1" />
</g>
<g id="Rectangle-2" >
<path id="Rectangle-2-stroke" d="M80.475,125.475 L99.525,125.475 L99.525,132.525 L80.475,132.525 L80.475,125.475 z" fill="none" stroke="#2295F4" stroke-opacity="1.000" stroke-width="1" />
</g>
</g>
<path id="Ellipse-2" d="M155.000,10.000 C163.284,10.000 170.000,16.716 170.000,25.000 C170.000,33.284 163.284,40.000 155.000,40.000 C146.716,40.000 140.000,33.284 140.000,25.000 C140.000,16.716 146.716,10.000 155.000,10.000 z" fill="#F0888A" />
<path id="Rectangle-4" d="M160.657,29.242 L159.243,30.656 L155.000,26.414 L150.757,30.656 L149.343,29.242 L153.586,25.000 L149.343,20.757 L150.757,19.343 L155.000,23.585 L159.243,19.343 L160.657,20.757 L156.414,25.000 L160.657,29.242 z" fill="#FFFFFF" />
</g>
</svg>
