<svg version="1.1" xmlns="http://www.w3.org/2000/svg" xmlns:xlink="http://www.w3.org/1999/xlink" width="34" height="34" viewBox="0 0 34 34">
<g id="icon-email">
<g id="Rounded-Rectangl" >
<path id="Rounded-Rectangl-fill" d="M4.000,6.000 C4.000,6.000 30.000,6.000 30.000,6.000 C31.657,6.000 33.000,7.343 33.000,9.000 C33.000,9.000 33.000,25.000 33.000,25.000 C33.000,26.657 31.657,28.000 30.000,28.000 C30.000,28.000 4.000,28.000 4.000,28.000 C2.343,28.000 1.000,26.657 1.000,25.000 C1.000,25.000 1.000,9.000 1.000,9.000 C1.000,7.343 2.343,6.000 4.000,6.000 z" fill="#BEDCF3" />
<path id="Rounded-Rectangl-stroke" d="M3.594,5.500 C3.594,5.500 30.406,5.500 30.406,5.500 C32.115,5.500 33.500,6.904 33.500,8.636 C33.500,8.636 33.500,25.363 33.500,25.363 C33.500,27.096 32.115,28.500 30.406,28.500 C30.406,28.500 3.594,28.500 3.594,28.500 C1.885,28.500 0.500,27.096 0.500,25.363 C0.500,25.363 0.500,8.636 0.500,8.636 C0.500,6.904 1.885,5.500 3.594,5.500 z" fill="none" stroke="#2295F4" stroke-opacity="1.000" stroke-width="1" stroke-linejoin="round" />
</g>
<path id="Rectangle-22" d="M32.600,7.087 L17.240,20.600 L17.127,20.022 L17.000,20.600 L1.400,7.400 L1.987,6.539 L17.109,19.284 L32.040,6.201 L32.600,7.087 z" fill="#2295F4" />
</g>
</svg>
