<svg version="1.1" xmlns="http://www.w3.org/2000/svg" xmlns:xlink="http://www.w3.org/1999/xlink" width="34" height="34" viewBox="0 0 34 34">
<g id="icon-like">
<g id="Forma-1" >
<path id="Forma-1-fill" d="M5.118,18.446 C3.788,18.507 2.661,17.455 2.602,16.096 C2.544,14.737 3.479,13.515 4.809,13.456 C4.809,13.456 13.641,12.342 13.641,12.342 C13.641,12.342 11.800,9.249 11.800,4.666 C11.800,1.611 13.973,1.200 15.250,1.200 C16.255,1.200 16.526,3.156 16.526,3.156 C16.526,3.156 16.528,3.156 16.528,3.156 C16.755,4.411 17.052,5.506 18.081,7.523 C19.234,9.784 20.804,9.572 22.636,11.586 C22.960,11.941 23.394,12.526 23.818,13.246 C23.852,13.284 23.884,13.338 23.916,13.413 C23.954,13.502 23.999,13.564 24.039,13.647 C24.109,13.776 24.178,13.906 24.246,14.042 C25.380,15.181 27.147,15.065 27.899,15.065 C29.409,15.065 30.199,15.946 30.199,17.375 C30.199,17.375 30.200,27.940 30.200,27.940 C30.200,29.544 29.547,30.085 27.899,30.085 C27.899,30.085 25.600,30.085 25.600,30.085 C24.442,30.085 23.535,30.752 22.150,31.240 C20.252,31.901 17.418,32.396 12.537,32.396 C11.683,32.396 9.035,32.400 9.035,32.400 C8.224,32.400 7.573,32.027 7.103,31.578 C6.924,31.407 6.738,31.159 6.658,30.675 C6.645,30.600 6.631,30.285 6.633,30.243 C6.572,28.858 7.405,28.357 7.877,28.199 C7.864,28.194 7.873,28.183 7.847,28.183 C7.847,28.183 6.349,28.251 6.349,28.251 C5.018,28.312 3.705,27.349 3.705,25.711 C3.705,24.354 4.801,23.396 6.126,23.331 C6.126,23.331 5.332,23.368 5.332,23.368 C4.002,23.427 2.877,22.375 2.816,21.016 C2.758,19.657 3.788,18.507 5.118,18.446 z" fill="#BEDCF3" />
<path id="Forma-1-stroke" d="M4.729,18.497 C3.354,18.560 2.187,17.475 2.127,16.074 C2.067,14.672 3.034,13.412 4.410,13.352 C4.410,13.352 13.546,12.203 13.546,12.203 C13.546,12.203 11.642,9.013 11.642,4.287 C11.642,1.136 13.889,0.712 15.211,0.712 C16.250,0.712 16.531,2.730 16.531,2.730 C16.531,2.730 16.532,2.730 16.532,2.730 C16.768,4.023 17.074,5.153 18.140,7.234 C19.332,9.565 20.956,9.346 22.851,11.423 C23.186,11.789 23.636,12.392 24.074,13.135 C24.109,13.175 24.143,13.230 24.175,13.307 C24.214,13.399 24.261,13.463 24.302,13.548 C24.375,13.682 24.446,13.815 24.516,13.955 C25.690,15.131 27.518,15.011 28.296,15.011 C29.858,15.011 30.675,15.919 30.675,17.393 C30.675,17.393 30.676,28.288 30.676,28.288 C30.676,29.942 30.000,30.500 28.296,30.500 C28.296,30.500 25.917,30.500 25.917,30.500 C24.719,30.500 23.781,31.188 22.348,31.691 C20.385,32.373 17.454,32.884 12.404,32.884 C11.521,32.884 8.781,32.887 8.781,32.887 C7.943,32.887 7.269,32.503 6.783,32.040 C6.598,31.864 6.405,31.608 6.323,31.109 C6.309,31.031 6.295,30.707 6.297,30.663 C6.233,29.235 7.095,28.718 7.584,28.555 C7.570,28.551 7.579,28.539 7.553,28.539 C7.553,28.539 6.002,28.609 6.002,28.609 C4.626,28.672 3.268,27.679 3.268,25.990 C3.268,24.590 4.401,23.602 5.772,23.535 C5.772,23.535 4.951,23.573 4.951,23.573 C3.575,23.634 2.411,22.549 2.348,21.148 C2.288,19.746 3.354,18.560 4.729,18.497 z" fill="none" stroke="#2295F4" stroke-opacity="1.000" stroke-width="1" stroke-linejoin="round" />
</g>
</g>
</svg>
