<svg version="1.1" xmlns="http://www.w3.org/2000/svg" xmlns:xlink="http://www.w3.org/1999/xlink" width="198" height="28" viewBox="0 0 198 28">
<g id="logo-footer">
<g id="Group-5">
<path id="ASAPHelper" d="M197.717,12.405 C197.419,12.327 197.057,12.288 196.630,12.288 C195.455,12.288 194.539,12.580 193.883,13.164 C193.227,13.748 192.899,14.565 192.899,15.616 C192.899,15.616 192.899,22.260 192.899,22.260 L189.217,22.260 L189.217,9.205 L192.006,9.205 L192.549,11.400 C192.549,11.400 192.730,11.400 192.730,11.400 C193.149,10.669 193.714,10.079 194.427,9.631 C195.139,9.184 195.914,8.960 196.751,8.960 C197.250,8.960 197.664,8.995 197.994,9.065 C197.994,9.065 197.717,12.405 197.717,12.405 zM178.447,18.990 C179.026,19.559 179.839,19.843 180.886,19.843 C181.699,19.843 182.467,19.761 183.192,19.598 C183.916,19.434 184.673,19.173 185.462,18.815 C185.462,18.815 185.462,21.571 185.462,21.571 C184.818,21.883 184.129,22.114 183.397,22.266 C182.664,22.418 181.771,22.494 180.717,22.494 C178.543,22.494 176.845,21.914 175.621,20.754 C174.398,19.594 173.786,17.951 173.786,15.826 C173.786,13.638 174.351,11.947 175.482,10.752 C176.613,9.558 178.177,8.960 180.173,8.960 C182.081,8.960 183.566,9.485 184.629,10.536 C185.691,11.587 186.222,13.039 186.222,14.892 C186.222,14.892 186.222,16.620 186.222,16.620 C186.222,16.620 177.517,16.620 177.517,16.620 C177.557,17.632 177.867,18.422 178.447,18.990 zM182.769,14.249 C182.753,13.370 182.516,12.691 182.057,12.212 C181.598,11.733 180.978,11.494 180.197,11.494 C179.416,11.494 178.805,11.733 178.362,12.212 C177.919,12.691 177.666,13.370 177.601,14.249 C177.601,14.249 182.769,14.249 182.769,14.249 zM169.126,21.688 C168.345,22.225 167.427,22.494 166.373,22.494 C164.787,22.494 163.543,21.937 162.642,20.824 C162.642,20.824 162.449,20.824 162.449,20.824 C162.577,21.914 162.642,22.544 162.642,22.715 C162.642,22.715 162.642,28.005 162.642,28.005 L158.959,28.005 L158.959,9.205 L161.953,9.205 L162.473,10.898 C162.473,10.898 162.642,10.898 162.642,10.898 C163.503,9.606 164.779,8.960 166.469,8.960 C168.063,8.960 169.311,9.555 170.212,10.747 C171.114,11.937 171.565,13.592 171.565,15.709 C171.565,17.103 171.353,18.313 170.931,19.341 C170.508,20.368 169.906,21.151 169.126,21.688 zM167.200,12.772 C166.793,12.130 166.155,11.809 165.286,11.809 C164.376,11.809 163.712,12.079 163.294,12.620 C162.875,13.162 162.658,14.055 162.642,15.300 C162.642,15.300 162.642,15.686 162.642,15.686 C162.642,17.087 162.857,18.091 163.288,18.699 C163.718,19.306 164.400,19.609 165.334,19.609 C166.984,19.609 167.809,18.294 167.809,15.663 C167.809,14.378 167.606,13.415 167.200,12.772 zM151.413,4.091 L155.096,4.091 L155.096,22.260 L151.413,22.260 L151.413,4.091 zM140.643,18.990 C141.223,19.559 142.035,19.843 143.082,19.843 C143.895,19.843 144.664,19.761 145.388,19.598 C146.112,19.434 146.869,19.173 147.658,18.815 C147.658,18.815 147.658,21.571 147.658,21.571 C147.014,21.883 146.326,22.114 145.593,22.266 C144.861,22.418 143.967,22.494 142.913,22.494 C140.740,22.494 139.041,21.914 137.818,20.754 C136.594,19.594 135.982,17.951 135.982,15.826 C135.982,13.638 136.548,11.947 137.679,10.752 C138.810,9.558 140.373,8.960 142.370,8.960 C144.277,8.960 145.762,9.485 146.825,10.536 C147.887,11.587 148.419,13.039 148.419,14.892 C148.419,14.892 148.419,16.620 148.419,16.620 C148.419,16.620 139.713,16.620 139.713,16.620 C139.753,17.632 140.063,18.422 140.643,18.990 zM144.965,14.249 C144.949,13.370 144.712,12.691 144.253,12.212 C143.794,11.733 143.174,11.494 142.394,11.494 C141.613,11.494 141.001,11.733 140.558,12.212 C140.116,12.691 139.862,13.370 139.798,14.249 C139.798,14.249 144.965,14.249 144.965,14.249 zM128.907,14.892 L121.916,14.892 L121.916,22.260 L118.173,22.260 L118.173,5.188 L121.916,5.188 L121.916,11.879 L128.907,11.879 L128.907,5.188 L132.638,5.188 L132.638,22.260 L128.907,22.260 L128.907,14.892 z" fill="#7A7A7A" />
<path id="Rectangle-9" d="M113.060,14.728 C111.873,15.701 110.184,16.188 107.995,16.188 C107.995,16.188 106.389,16.188 106.389,16.188 L106.389,22.260 L102.646,22.260 L102.646,5.188 C102.646,5.188 108.285,5.188 108.285,5.188 C110.426,5.188 112.054,5.634 113.169,6.525 C114.283,7.417 114.841,8.746 114.841,10.513 C114.841,12.350 114.247,13.755 113.060,14.728 zM110.343,8.761 C109.864,8.356 109.114,8.154 108.091,8.154 C108.091,8.154 106.389,8.154 106.389,8.154 L106.389,13.222 C106.389,13.222 107.621,13.222 107.621,13.222 C108.772,13.222 109.633,13.002 110.204,12.562 C110.776,12.123 111.062,11.482 111.062,10.641 C111.062,9.793 110.822,9.166 110.343,8.761 zM95.112,18.197 L88.677,18.197 L87.397,22.260 L83.364,22.260 L89.594,5.118 L94.170,5.118 L100.424,22.260 L96.392,22.260 L95.112,18.197 zM92.220,8.913 C92.071,8.431 91.965,8.049 91.900,7.769 C91.635,8.765 90.874,11.229 89.618,15.160 C89.618,15.160 94.218,15.160 94.218,15.160 C93.035,11.478 92.369,9.396 92.220,8.913 zM75.703,11.208 C76.037,11.429 76.828,11.828 78.076,12.405 C79.726,13.168 80.857,13.933 81.468,14.699 C82.080,15.466 82.386,16.406 82.386,17.519 C82.386,19.060 81.812,20.275 80.665,21.162 C79.518,22.050 77.923,22.494 75.878,22.494 C73.995,22.494 72.328,22.151 70.879,21.466 C70.879,21.466 70.879,18.103 70.879,18.103 C72.071,18.617 73.079,18.979 73.904,19.189 C74.729,19.399 75.484,19.504 76.168,19.504 C76.989,19.504 77.619,19.352 78.057,19.049 C78.496,18.745 78.715,18.294 78.715,17.694 C78.715,17.359 78.619,17.062 78.426,16.801 C78.233,16.540 77.949,16.289 77.574,16.048 C77.200,15.807 76.437,15.421 75.286,14.892 C74.208,14.401 73.399,13.930 72.860,13.479 C72.320,13.027 71.889,12.502 71.567,11.902 C71.246,11.303 71.085,10.603 71.085,9.801 C71.085,8.290 71.614,7.103 72.672,6.239 C73.731,5.375 75.194,4.943 77.061,4.943 C77.979,4.943 78.854,5.048 79.687,5.258 C80.520,5.468 81.392,5.764 82.301,6.145 C82.301,6.145 81.094,8.960 81.094,8.960 C80.152,8.586 79.373,8.325 78.758,8.178 C78.142,8.030 77.536,7.955 76.940,7.955 C76.232,7.955 75.689,8.115 75.311,8.434 C74.932,8.754 74.743,9.170 74.743,9.684 C74.743,10.003 74.819,10.281 74.972,10.519 C75.125,10.756 75.369,10.986 75.703,11.208 zM64.432,18.197 L57.996,18.197 L56.717,22.260 L52.684,22.260 L58.914,5.118 L63.490,5.118 L69.744,22.260 L65.712,22.260 L64.432,18.197 zM61.540,8.913 C61.391,8.431 61.284,8.049 61.220,7.769 C60.955,8.765 60.194,11.229 58.938,15.160 C58.938,15.160 63.538,15.160 63.538,15.160 C62.355,11.478 61.689,9.396 61.540,8.913 z" fill="#585858" />
</g>
<path id="ASAPHelper-copy" d="M42.069,16.839 C40.926,17.956 27.538,17.796 26.558,16.839 C26.027,16.321 25.210,12.062 24.779,8.062 C24.779,8.062 19.335,8.062 19.335,8.062 C18.944,12.020 18.191,16.241 17.578,16.839 C16.435,17.956 3.046,17.796 2.066,16.839 C1.087,15.883 -0.873,2.172 0.434,0.896 C1.740,-0.379 18.068,-0.220 19.211,0.896 C19.568,1.246 19.654,2.830 19.568,4.875 C19.568,4.875 24.524,4.875 24.524,4.875 C24.431,2.861 24.523,1.289 24.925,0.896 C26.231,-0.379 42.559,-0.220 43.702,0.896 C44.845,2.012 43.212,15.724 42.069,16.839 zM3.699,4.085 L5.332,13.651 L14.312,13.651 L15.945,4.085 L3.699,4.085 zM28.191,4.085 L29.824,13.651 L38.804,13.651 L40.437,4.085 L28.191,4.085 zM24.967,24.654 C25.608,24.654 26.099,24.525 26.442,24.266 C26.784,24.008 26.956,23.624 26.956,23.113 C26.956,22.829 26.880,22.576 26.729,22.353 C26.579,22.131 26.357,21.918 26.065,21.712 C25.773,21.507 25.177,21.179 24.279,20.728 C23.437,20.311 22.805,19.910 22.385,19.526 C21.964,19.141 21.628,18.694 21.376,18.184 C21.125,17.674 20.999,17.078 20.999,16.395 C20.999,12.984 23.547,13.197 23.762,14.667 C23.976,16.137 23.855,15.859 23.855,16.296 C23.855,16.568 23.915,16.804 24.034,17.006 C24.153,17.208 24.343,17.404 24.604,17.593 C24.865,17.782 24.734,18.121 25.708,18.611 C26.995,19.261 27.878,19.912 28.356,20.564 C28.833,21.217 29.820,22.017 29.820,22.964 C29.820,24.276 29.373,25.310 28.478,26.065 C27.582,26.820 26.337,27.198 24.741,27.198 C23.271,27.198 21.970,26.907 20.839,26.324 C20.839,26.324 20.839,23.461 20.839,23.461 C21.769,23.899 22.556,24.207 23.200,24.386 C23.844,24.564 24.433,24.654 24.967,24.654 z" fill="#7A7A7A" />
</g>
</svg>
