<svg version="1.1" xmlns="http://www.w3.org/2000/svg" xmlns:xlink="http://www.w3.org/1999/xlink" width="347" height="50" viewBox="0 0 347 50">
<g id="logo">
<g id="Group-5">
<path id="ASAPHelper" d="M346.504,22.151 C345.982,22.013 345.347,21.943 344.599,21.943 C342.540,21.943 340.935,22.464 339.785,23.506 C338.635,24.549 338.061,26.009 338.061,27.885 C338.061,27.885 338.061,39.750 338.061,39.750 L331.607,39.750 L331.607,16.438 L336.495,16.438 L337.447,20.358 C337.447,20.358 337.765,20.358 337.765,20.358 C338.498,19.052 339.489,17.998 340.738,17.199 C341.986,16.400 343.344,16.000 344.811,16.000 C345.685,16.000 346.412,16.062 346.990,16.188 C346.990,16.188 346.504,22.151 346.504,22.151 zM312.732,33.912 C313.748,34.926 315.173,35.434 317.007,35.434 C318.431,35.434 319.779,35.288 321.048,34.996 C322.318,34.704 323.644,34.238 325.026,33.599 C325.026,33.599 325.026,38.520 325.026,38.520 C323.898,39.076 322.691,39.489 321.408,39.761 C320.124,40.032 318.558,40.167 316.710,40.167 C312.902,40.167 309.925,39.132 307.781,37.060 C305.636,34.989 304.565,32.056 304.565,28.261 C304.565,24.355 305.555,21.335 307.538,19.201 C309.519,17.067 312.260,16.000 315.758,16.000 C319.101,16.000 321.704,16.938 323.566,18.815 C325.428,20.692 326.359,23.284 326.359,26.592 C326.359,26.592 326.359,29.679 326.359,29.679 C326.359,29.679 311.103,29.679 311.103,29.679 C311.173,31.486 311.717,32.897 312.732,33.912 zM320.308,25.446 C320.279,23.875 319.863,22.662 319.059,21.807 C318.255,20.952 317.169,20.525 315.800,20.525 C314.432,20.525 313.360,20.952 312.584,21.807 C311.808,22.662 311.364,23.875 311.251,25.446 C311.251,25.446 320.308,25.446 320.308,25.446 zM296.397,38.728 C295.028,39.688 293.420,40.167 291.572,40.167 C288.793,40.167 286.614,39.174 285.034,37.185 C285.034,37.185 284.695,37.185 284.695,37.185 C284.921,39.132 285.034,40.257 285.034,40.564 C285.034,40.564 285.034,50.009 285.034,50.009 L278.580,50.009 L278.580,16.438 L283.828,16.438 L284.738,19.461 C284.738,19.461 285.034,19.461 285.034,19.461 C286.543,17.154 288.779,16.000 291.742,16.000 C294.535,16.000 296.721,17.063 298.301,19.190 C299.881,21.317 300.671,24.271 300.671,28.052 C300.671,30.541 300.301,32.702 299.560,34.537 C298.820,36.372 297.765,37.769 296.397,38.728 zM293.022,22.808 C292.309,21.661 291.191,21.088 289.668,21.088 C288.074,21.088 286.910,21.570 286.176,22.537 C285.443,23.503 285.062,25.098 285.034,27.322 C285.034,27.322 285.034,28.011 285.034,28.011 C285.034,30.513 285.411,32.306 286.166,33.390 C286.920,34.475 288.116,35.017 289.753,35.017 C292.644,35.017 294.090,32.667 294.090,27.969 C294.090,25.675 293.734,23.955 293.022,22.808 zM265.355,7.305 L271.809,7.305 L271.809,39.750 L265.355,39.750 L265.355,7.305 zM246.480,33.912 C247.496,34.926 248.921,35.434 250.755,35.434 C252.179,35.434 253.527,35.288 254.796,34.996 C256.066,34.704 257.391,34.238 258.774,33.599 C258.774,33.599 258.774,38.520 258.774,38.520 C257.646,39.076 256.439,39.489 255.156,39.761 C253.872,40.032 252.306,40.167 250.458,40.167 C246.650,40.167 243.673,39.132 241.529,37.060 C239.384,34.989 238.313,32.056 238.313,28.261 C238.313,24.355 239.304,21.335 241.286,19.201 C243.267,17.067 246.007,16.000 249.506,16.000 C252.850,16.000 255.452,16.938 257.314,18.815 C259.176,20.692 260.107,23.284 260.107,26.592 C260.107,26.592 260.107,29.679 260.107,29.679 C260.107,29.679 244.851,29.679 244.851,29.679 C244.921,31.486 245.465,32.897 246.480,33.912 zM254.056,25.446 C254.027,23.875 253.611,22.662 252.807,21.807 C252.003,20.952 250.917,20.525 249.549,20.525 C248.180,20.525 247.108,20.952 246.332,21.807 C245.556,22.662 245.112,23.875 244.999,25.446 C244.999,25.446 254.056,25.446 254.056,25.446 zM225.913,26.592 L213.661,26.592 L213.661,39.750 L207.102,39.750 L207.102,9.265 L213.661,9.265 L213.661,21.213 L225.913,21.213 L225.913,9.265 L232.451,9.265 L232.451,39.750 L225.913,39.750 L225.913,26.592 z" fill="#2295F4" />
<path id="Rectangle-9" d="M198.140,26.301 C196.059,28.038 193.101,28.907 189.264,28.907 C189.264,28.907 186.449,28.907 186.449,28.907 L186.449,39.750 L179.890,39.750 L179.890,9.265 C179.890,9.265 189.772,9.265 189.772,9.265 C193.524,9.265 196.377,10.061 198.331,11.652 C200.284,13.244 201.261,15.618 201.261,18.773 C201.261,22.054 200.221,24.563 198.140,26.301 zM193.379,15.645 C192.540,14.923 191.224,14.561 189.433,14.561 C189.433,14.561 186.449,14.561 186.449,14.561 L186.449,23.611 C186.449,23.611 188.608,23.611 188.608,23.611 C190.625,23.611 192.134,23.218 193.136,22.433 C194.137,21.647 194.639,20.504 194.639,19.003 C194.639,17.488 194.219,16.368 193.379,15.645 zM166.686,32.494 L155.408,32.494 L153.165,39.750 L146.097,39.750 L157.016,9.140 L165.035,9.140 L175.996,39.750 L168.929,39.750 L166.686,32.494 zM161.618,15.916 C161.357,15.055 161.170,14.373 161.058,13.873 C160.592,15.653 159.259,20.052 157.058,27.072 C157.058,27.072 165.120,27.072 165.120,27.072 C163.046,20.497 161.879,16.779 161.618,15.916 zM132.671,20.014 C133.257,20.410 134.643,21.123 136.829,22.151 C139.721,23.514 141.703,24.880 142.775,26.249 C143.847,27.618 144.383,29.297 144.383,31.284 C144.383,34.037 143.378,36.205 141.368,37.790 C139.358,39.375 136.561,40.167 132.978,40.167 C129.677,40.167 126.757,39.556 124.218,38.332 C124.218,38.332 124.218,32.327 124.218,32.327 C126.305,33.244 128.072,33.891 129.518,34.266 C130.964,34.642 132.287,34.829 133.486,34.829 C134.925,34.829 136.029,34.558 136.798,34.016 C137.566,33.474 137.951,32.667 137.951,31.597 C137.951,30.999 137.782,30.468 137.443,30.002 C137.104,29.536 136.607,29.088 135.951,28.657 C135.295,28.226 133.958,27.538 131.941,26.592 C130.051,25.717 128.633,24.876 127.688,24.070 C126.743,23.263 125.988,22.325 125.424,21.255 C124.860,20.184 124.578,18.933 124.578,17.501 C124.578,14.804 125.505,12.684 127.360,11.141 C129.215,9.598 131.779,8.827 135.052,8.827 C136.660,8.827 138.194,9.015 139.654,9.390 C141.114,9.765 142.641,10.294 144.235,10.975 C144.235,10.975 142.119,16.000 142.119,16.000 C140.469,15.333 139.104,14.867 138.025,14.603 C136.946,14.339 135.884,14.206 134.840,14.206 C133.599,14.206 132.647,14.492 131.984,15.061 C131.320,15.632 130.989,16.375 130.989,17.293 C130.989,17.863 131.123,18.360 131.391,18.784 C131.659,19.208 132.086,19.618 132.671,20.014 zM112.919,32.494 L101.640,32.494 L99.397,39.750 L92.330,39.750 L103.248,9.140 L111.268,9.140 L122.229,39.750 L115.161,39.750 L112.919,32.494 zM107.851,15.916 C107.589,15.055 107.403,14.373 107.290,13.873 C106.824,15.653 105.491,20.052 103.291,27.072 C103.291,27.072 111.353,27.072 111.353,27.072 C109.279,20.497 108.111,16.779 107.851,15.916 z" fill="#39456F" />
</g>
<path id="ASAPHelper-copy" d="M73.728,30.071 C71.725,32.064 48.260,31.779 46.544,30.071 C45.614,29.146 44.183,21.545 43.427,14.406 C43.427,14.406 33.884,14.406 33.884,14.406 C33.199,21.472 31.879,29.002 30.805,30.071 C28.803,32.064 5.338,31.779 3.621,30.071 C1.904,28.362 -1.529,3.878 0.760,1.601 C3.049,-0.677 31.664,-0.392 33.667,1.601 C34.295,2.226 34.444,5.060 34.293,8.719 C34.293,8.719 42.980,8.719 42.980,8.719 C42.816,5.116 42.977,2.303 43.682,1.601 C45.971,-0.677 74.586,-0.392 76.589,1.601 C78.592,3.594 75.731,28.078 73.728,30.071 zM6.483,7.295 L9.344,24.377 L25.083,24.377 L27.944,7.295 L6.483,7.295 zM49.405,7.295 L52.267,24.377 L68.005,24.377 L70.866,7.295 L49.405,7.295 zM43.755,44.025 C44.878,44.025 45.740,43.794 46.340,43.333 C46.940,42.872 47.240,42.186 47.240,41.274 C47.240,40.766 47.108,40.313 46.844,39.917 C46.580,39.521 46.191,39.139 45.679,38.772 C45.167,38.405 44.124,37.820 42.549,37.015 C41.074,36.270 39.967,35.554 39.230,34.868 C38.492,34.182 37.903,33.383 37.463,32.472 C37.022,31.561 36.802,30.496 36.802,29.277 C36.802,23.186 41.267,23.566 41.643,26.191 C42.019,28.816 41.806,28.319 41.806,29.100 C41.806,29.585 41.911,30.008 42.120,30.369 C42.329,30.730 42.662,31.079 43.119,31.416 C43.576,31.753 43.346,32.360 45.053,33.235 C47.310,34.395 48.857,35.557 49.694,36.722 C50.531,37.888 52.261,39.316 52.261,41.008 C52.261,43.351 51.477,45.197 49.907,46.545 C48.339,47.894 46.156,48.569 43.359,48.569 C40.782,48.569 38.503,48.048 36.521,47.007 C36.521,47.007 36.521,41.896 36.521,41.896 C38.150,42.677 39.530,43.227 40.658,43.546 C41.787,43.865 42.819,44.025 43.755,44.025 z" fill="#2295F4" />
</g>
</svg>
