<svg version="1.1" xmlns="http://www.w3.org/2000/svg" xmlns:xlink="http://www.w3.org/1999/xlink" width="1920" height="104" viewBox="0 0 1920 90">
<g id="bg-cta-big">
<path id="bg" d="M0.000,97.000 L0.000,76.000 L2.000,79.000 L5.000,75.000 L5.000,79.000 L11.000,74.000 L10.000,80.000 L16.000,73.000 L15.000,80.000 L19.000,73.000 L18.000,81.000 L23.000,71.000 L23.000,77.000 L25.000,71.000 L26.000,77.000 L31.000,72.000 L31.000,77.000 L35.000,71.000 L36.000,77.000 L39.000,71.000 L40.000,76.000 L46.000,70.000 L44.000,76.000 L50.000,70.000 L49.000,75.000 L55.000,70.000 L53.000,74.000 L58.000,70.000 L57.000,74.000 L60.000,69.000 L60.000,73.000 L63.000,69.000 L63.000,73.000 L66.000,69.000 L67.000,73.000 L70.000,69.000 L70.000,72.000 L74.000,69.000 L75.000,71.000 L78.000,68.000 L79.000,70.000 L81.000,66.000 L82.000,69.000 L85.000,66.000 L86.000,70.000 L90.000,66.000 L89.000,70.000 L93.000,66.000 L94.000,69.000 L96.000,64.000 L96.000,68.000 L101.000,64.000 L100.000,68.000 L103.000,65.000 L103.000,68.000 L109.000,64.000 L109.000,69.000 L114.000,63.000 L114.000,67.000 L119.000,62.000 L119.000,66.000 L123.000,61.000 L123.000,66.000 L125.000,65.000 L127.000,63.000 L127.000,65.000 L129.000,63.000 L130.000,65.000 L132.000,61.000 L134.000,64.000 L138.000,62.000 L139.000,64.000 L143.000,62.000 L144.000,64.000 L148.000,62.000 L149.000,63.000 L155.000,60.000 L156.000,62.000 L158.000,59.000 L159.000,62.000 L164.000,59.000 L165.000,61.000 L168.000,58.000 L169.000,60.000 L173.000,56.000 L174.000,59.000 L177.000,55.000 L177.000,59.000 L184.000,55.000 L183.000,60.000 L186.000,53.000 L186.000,59.000 L191.000,55.000 L191.000,58.000 L194.000,53.000 L195.000,57.000 L197.000,52.000 L199.000,55.000 L203.000,52.000 L204.000,56.000 L207.000,52.000 L209.000,55.000 L211.000,52.000 L213.000,55.000 L216.000,51.000 L218.000,54.000 L221.000,50.000 L222.000,53.000 L226.000,50.000 L227.000,53.000 L229.000,49.000 L230.000,52.000 L234.000,49.000 L235.000,51.000 L238.000,50.000 L239.000,52.000 L241.000,49.000 L244.000,51.000 L247.000,49.000 L248.000,50.000 L250.000,48.000 L251.000,50.000 L253.000,47.000 L255.000,50.000 L259.000,46.000 L260.000,49.000 L261.000,46.000 L263.000,48.000 L265.000,47.000 L267.000,48.000 L268.000,47.000 L271.000,48.000 L273.000,46.000 L275.000,48.000 L281.000,45.000 L282.000,47.000 L286.000,45.000 L287.000,47.000 L291.000,43.000 L292.000,46.000 L295.000,42.000 L295.000,45.000 L299.000,44.000 L301.000,45.000 L305.000,42.000 L307.000,44.000 L311.000,42.000 L311.000,45.000 L314.000,42.000 L317.000,44.000 L367.000,39.000 L369.000,34.000 L371.000,39.000 L373.000,36.000 L374.000,37.000 L377.000,36.000 L378.000,38.000 L381.000,35.000 L381.000,38.000 L388.000,35.000 L389.000,37.000 L391.000,33.000 L393.000,36.000 L395.000,35.000 L465.000,30.000 L468.000,28.000 L469.000,30.000 L471.000,28.000 L472.000,29.000 L474.000,28.000 L476.000,29.000 L484.000,27.000 L485.000,29.000 L487.000,26.000 L489.000,28.000 L538.000,25.000 L542.000,22.000 L542.000,24.000 L544.000,22.000 L545.000,23.000 L549.000,22.000 L551.000,23.000 L553.000,22.000 L555.000,24.000 L558.000,21.000 L559.000,22.000 L561.000,20.000 L563.000,22.000 L568.000,21.000 L570.000,22.000 L573.000,19.000 L574.000,22.000 L579.000,19.000 L580.000,21.000 L583.000,19.000 L584.000,21.000 L586.000,20.000 L588.000,21.000 L590.000,19.000 L591.000,20.000 L592.000,18.000 L593.000,20.000 L598.000,19.000 L599.000,21.000 L602.000,19.000 L605.000,20.000 L608.000,18.000 L609.000,20.000 L613.000,18.000 L616.000,21.000 L618.000,17.000 L619.000,19.000 L643.000,18.000 L649.000,15.000 L650.000,17.000 L653.000,15.000 L654.000,17.000 L657.000,11.000 L658.000,17.000 L662.000,13.000 L663.000,15.000 L665.000,13.000 L665.000,16.000 L669.000,12.000 L669.000,15.000 L672.000,11.000 L672.000,15.000 L676.000,12.000 L676.000,15.000 C676.000,15.000 677.418,13.865 678.744,12.805 C679.908,11.874 681.000,11.000 681.000,11.000 L683.000,12.000 L682.000,15.000 L686.000,13.000 L688.000,15.000 L691.000,13.000 L692.000,15.000 L695.000,13.000 L696.000,15.000 L698.000,13.000 L700.000,14.000 L704.000,11.000 L704.000,14.000 L707.000,10.000 L707.000,13.000 L711.000,10.000 L712.000,13.000 L715.000,11.000 L716.000,14.000 L718.000,11.000 L719.000,13.000 L720.000,11.000 L721.000,12.000 L723.000,10.000 L726.000,12.000 L727.000,9.000 C727.000,9.000 728.750,11.500 730.000,11.000 C731.250,10.500 736.000,8.000 736.000,8.000 L736.000,12.000 L740.000,8.000 L741.000,11.000 L743.000,9.000 L744.000,10.000 L748.000,7.000 L748.000,10.000 L751.000,8.000 L751.000,11.000 L757.000,6.000 L760.000,9.000 L766.000,5.000 L765.000,9.000 L770.000,4.000 L770.000,10.000 L773.000,6.000 L774.000,8.000 L776.000,4.000 L776.000,7.000 L780.000,3.000 L780.000,9.000 L785.000,5.000 L786.000,9.000 L789.000,5.000 L790.000,8.000 L794.000,5.000 L795.000,8.000 L801.000,5.000 L800.000,8.000 L804.000,4.000 L805.000,8.000 L809.000,4.000 L810.000,8.000 L813.000,4.000 L814.000,7.000 L815.000,4.000 L816.000,7.000 L817.000,4.000 L818.000,7.000 L820.000,4.000 L822.000,7.000 L824.000,4.000 L827.000,6.000 L831.000,4.000 L832.000,7.000 L834.000,4.000 L836.000,6.000 L837.000,3.000 L840.000,6.000 L843.000,4.000 L845.000,5.000 L847.000,4.000 L849.000,5.000 L851.000,3.000 L853.000,6.000 L858.000,3.000 L857.000,6.000 L863.000,3.000 L862.000,6.000 L868.000,3.000 L869.000,4.000 L872.000,2.000 L871.000,5.000 L875.000,3.000 L875.000,5.000 L875.000,8.000 L882.000,4.000 L880.000,8.000 L885.000,3.000 L884.000,7.000 L888.000,2.000 L888.000,5.000 L892.000,3.000 L894.000,6.000 L897.000,3.000 L899.000,6.000 L904.000,3.000 L904.000,6.000 L909.000,4.000 L908.000,7.000 L912.000,3.000 L912.000,7.000 L917.000,4.000 L917.000,7.000 L920.000,4.000 L921.000,7.000 L924.000,5.000 L925.000,8.000 L926.000,5.000 L927.000,7.000 L929.000,5.000 L931.000,6.000 L933.000,4.000 L934.000,6.000 L936.000,4.000 L938.000,6.000 L940.000,4.000 L943.000,6.000 L948.000,4.000 L948.000,6.000 L953.000,0.000 L954.000,5.000 L958.000,3.000 L960.000,4.000 L961.000,2.000 L962.000,4.000 L967.000,0.000 L966.000,6.000 L972.000,2.000 L971.000,9.000 L976.000,2.000 L976.000,5.000 L978.000,4.000 L978.000,7.000 L982.000,3.000 L983.000,6.000 L988.000,3.000 L989.000,7.000 L991.000,4.000 L991.000,7.000 L999.000,3.000 L997.000,8.000 L1001.000,3.000 L1002.000,8.000 C1002.000,8.000 1003.948,6.052 1005.125,4.875 C1005.635,4.365 1006.000,4.000 1006.000,4.000 L1010.000,3.000 L1010.000,8.000 L1013.000,2.000 L1014.000,6.000 L1015.000,2.000 L1016.000,6.000 L1019.000,4.000 L1020.000,7.000 L1021.000,3.000 L1023.000,4.000 L1027.000,6.000 L1032.000,4.000 L1037.000,5.000 L1038.000,3.000 L1040.000,5.000 L1043.000,3.000 L1044.000,6.000 L1049.000,1.000 L1049.000,6.000 L1053.000,1.000 L1053.000,7.000 L1059.000,3.000 L1060.000,6.000 L1061.000,4.000 L1062.000,6.000 L1063.000,4.000 L1063.000,7.000 L1066.000,2.000 L1067.000,7.000 L1070.000,1.000 L1071.000,8.000 L1078.000,4.000 L1078.000,8.000 L1082.000,5.000 L1083.000,8.000 L1085.000,5.000 L1086.000,9.000 L1092.000,5.000 L1092.000,8.000 L1096.000,5.000 L1095.000,9.000 L1100.000,5.000 L1100.000,8.000 L1104.000,6.000 L1103.000,8.000 C1103.000,8.000 1106.530,6.823 1108.175,6.275 C1108.674,6.109 1109.000,6.000 1109.000,6.000 L1109.000,9.000 L1113.000,5.000 L1114.000,7.000 L1116.000,6.000 L1117.000,8.000 L1120.000,6.000 L1121.000,8.000 L1124.000,7.000 L1126.000,9.000 L1128.000,6.000 L1130.000,9.000 L1132.000,6.000 L1134.000,8.000 L1137.000,6.000 L1138.000,9.000 L1142.000,7.000 L1142.000,10.000 L1146.000,7.000 L1147.000,9.000 L1150.000,8.000 L1152.000,10.000 L1155.000,7.000 L1155.000,11.000 L1159.000,7.000 L1159.000,10.000 L1163.000,7.000 L1163.000,11.000 L1167.000,6.000 L1165.000,11.000 L1171.000,7.000 L1170.000,13.000 L1173.000,10.000 L1175.000,12.000 L1178.000,8.000 L1178.000,12.000 L1182.000,9.000 L1185.000,13.000 L1190.000,10.000 L1191.000,13.000 L1196.000,10.000 L1197.000,13.000 L1202.000,11.000 L1201.000,15.000 L1209.000,12.000 L1208.000,15.000 L1213.000,12.000 L1212.000,15.000 L1216.000,12.000 L1217.000,14.000 L1224.000,13.000 L1223.000,16.000 L1239.000,15.000 L1245.000,14.000 L1246.000,16.000 L1250.000,14.000 L1250.000,17.000 L1253.000,14.000 L1255.000,16.000 L1257.000,13.000 L1257.000,16.000 L1263.000,14.000 L1261.000,17.000 L1268.000,13.000 L1269.000,18.000 L1274.000,14.000 L1274.000,18.000 L1278.000,14.000 L1280.000,18.000 L1285.000,15.000 L1285.000,17.000 L1288.000,14.000 L1288.000,18.000 L1292.000,16.000 L1292.000,18.000 L1298.000,15.000 L1296.000,18.000 L1302.000,16.000 L1302.000,19.000 L1306.000,17.000 L1306.000,20.000 L1311.000,17.000 L1312.000,19.000 L1316.000,17.000 L1317.000,20.000 L1321.000,17.000 L1322.000,20.000 L1324.000,19.000 L1325.000,21.000 L1327.000,19.000 L1329.000,21.000 L1330.000,19.000 L1331.000,21.000 L1333.000,19.000 L1335.000,21.000 L1338.000,19.000 L1339.000,21.000 L1342.000,19.000 L1346.000,20.000 L1350.000,20.000 L1351.000,21.000 L1354.000,19.000 L1355.000,21.000 L1357.000,19.000 L1358.000,22.000 L1361.000,20.000 L1362.000,21.000 L1364.000,21.000 L1364.000,22.000 L1368.000,21.000 L1369.000,23.000 L1372.000,22.000 L1373.000,24.000 L1378.000,20.000 L1376.000,24.000 L1383.000,21.000 L1382.000,25.000 L1386.000,21.000 L1387.000,23.000 L1392.000,20.000 L1392.000,23.000 L1395.000,22.000 L1395.000,25.000 L1397.000,21.000 L1397.000,25.000 L1401.000,23.000 L1401.000,26.000 L1405.000,23.000 L1405.000,26.000 L1411.000,23.000 L1411.000,26.000 L1416.000,24.000 L1416.000,26.000 L1418.000,24.000 L1419.000,26.000 L1421.000,24.000 L1422.000,26.000 L1425.000,24.000 L1425.000,27.000 L1428.000,24.000 L1428.000,27.000 L1431.000,25.000 L1432.000,27.000 L1436.000,25.000 L1437.000,27.000 L1440.000,25.000 L1440.000,27.000 L1443.000,25.000 L1443.000,27.000 L1447.000,25.000 L1448.000,26.000 L1451.000,24.000 L1451.000,27.000 L1454.000,26.000 L1455.000,28.000 L1457.000,26.000 L1458.000,28.000 L1461.000,27.000 L1461.000,28.000 L1464.000,27.000 L1464.000,29.000 L1467.000,27.000 L1469.000,29.000 L1472.000,26.000 L1472.000,29.000 L1475.000,27.000 L1476.000,29.000 L1481.000,27.000 L1480.000,30.000 L1483.000,28.000 L1483.000,31.000 L1487.000,30.000 L1491.000,31.000 L1540.000,38.000 L1555.000,39.000 L1559.000,38.000 L1559.000,39.000 L1562.000,38.000 L1564.000,40.000 L1566.000,39.000 L1567.000,40.000 L1570.000,37.000 L1570.000,41.000 L1572.000,38.000 L1573.000,41.000 L1580.000,40.000 L1584.000,38.000 L1584.000,42.000 L1588.000,40.000 L1589.000,42.000 L1593.000,41.000 L1594.000,43.000 L1599.000,42.000 L1599.000,43.000 L1603.000,40.000 L1603.000,44.000 L1606.000,41.000 L1606.000,43.000 L1608.000,40.000 L1608.000,44.000 L1610.000,40.000 L1610.000,43.000 L1612.000,42.000 L1612.000,45.000 C1612.000,45.000 1613.902,43.732 1614.677,43.215 C1614.875,43.083 1615.000,43.000 1615.000,43.000 L1618.000,43.000 L1618.000,44.000 L1622.000,42.000 L1622.000,45.000 L1626.000,44.000 L1627.000,45.000 L1631.000,43.000 L1633.000,45.000 L1638.000,45.000 L1639.000,47.000 L1643.000,44.000 L1645.000,48.000 L1647.000,45.000 L1647.000,48.000 L1649.000,45.000 L1650.000,47.000 C1650.000,47.000 1650.213,46.787 1650.500,46.500 C1651.092,45.908 1652.000,45.000 1652.000,45.000 L1654.000,43.000 L1654.000,48.000 L1656.000,45.000 L1658.000,48.000 L1660.000,45.000 L1661.000,48.000 L1668.000,47.000 L1669.000,49.000 L1671.000,46.000 L1672.000,49.000 L1675.000,46.000 L1674.000,50.000 L1678.000,47.000 L1677.000,50.000 L1683.000,49.000 L1690.000,49.000 L1694.000,49.000 L1701.000,49.000 L1701.000,50.000 L1703.000,48.000 L1704.000,51.000 L1705.000,49.000 L1706.000,51.000 L1709.000,50.000 L1712.000,53.000 L1715.000,50.000 L1716.000,54.000 L1720.000,51.000 L1719.000,54.000 L1724.000,51.000 L1724.000,54.000 L1728.000,51.000 L1729.000,54.000 L1731.000,53.000 L1730.000,55.000 L1733.000,54.000 L1732.000,56.000 L1738.000,54.000 L1738.000,56.000 L1742.000,54.000 L1742.000,56.000 L1745.000,54.000 L1745.000,56.000 L1750.000,55.000 L1749.000,57.000 L1752.000,56.000 L1755.000,55.000 L1755.000,58.000 L1759.000,55.000 L1758.000,58.000 L1761.000,55.000 L1761.000,59.000 L1765.000,57.000 L1767.000,57.000 L1765.000,59.000 L1770.000,57.000 L1769.000,61.000 L1772.000,58.000 L1773.000,60.000 L1774.000,58.000 C1774.000,58.000 1774.322,58.643 1774.600,59.200 C1774.813,59.625 1775.000,60.000 1775.000,60.000 L1777.000,60.000 L1778.000,59.000 L1778.000,61.000 L1780.000,59.000 L1780.000,61.000 L1782.000,59.000 L1783.000,60.000 L1785.000,60.000 L1787.000,60.000 L1790.000,61.000 L1804.000,61.000 L1810.000,60.000 L1810.000,63.000 L1812.000,61.000 L1816.000,62.000 L1819.000,61.000 L1818.000,63.000 L1824.000,58.000 L1821.000,65.000 L1826.000,61.000 L1824.000,64.000 L1829.000,60.000 L1828.000,63.000 L1831.000,59.000 L1830.000,63.000 L1834.000,59.000 L1833.000,63.000 L1836.000,61.000 L1837.000,63.000 L1840.000,61.000 L1840.000,64.000 L1845.000,63.000 L1847.000,64.000 L1851.000,63.000 L1850.000,65.000 L1855.000,63.000 L1852.000,66.000 L1856.000,64.000 L1857.000,66.000 L1860.000,64.000 L1860.000,66.000 L1863.000,63.000 L1863.000,66.000 C1863.000,66.000 1864.579,64.947 1865.446,64.369 C1865.774,64.151 1866.000,64.000 1866.000,64.000 L1868.000,63.000 L1868.000,67.000 L1871.000,64.000 L1871.000,66.000 L1875.000,64.000 L1875.000,67.000 L1877.000,65.000 L1878.000,67.000 L1880.000,64.000 L1880.000,65.000 L1883.000,65.000 L1883.000,66.000 L1886.000,65.000 L1885.000,68.000 L1888.000,65.000 L1889.000,68.000 L1892.000,66.000 L1893.000,67.000 L1895.000,66.000 L1894.000,68.000 L1898.000,67.000 L1897.000,69.000 C1897.000,69.000 1897.895,68.403 1898.708,67.862 C1899.382,67.412 1900.000,67.000 1900.000,67.000 L1902.000,66.000 L1902.000,69.000 L1905.000,66.000 L1905.000,68.000 L1909.000,66.000 L1907.000,69.000 L1910.000,68.000 L1908.000,72.000 L1914.000,69.000 L1913.000,72.000 L1918.000,68.000 L1918.000,71.000 L1920.000,69.000 L1920.000,97.000 L0.000,97.000 z" fill="#40A35F" />
</g>
</svg>
