<svg version="1.1" xmlns="http://www.w3.org/2000/svg" xmlns:xlink="http://www.w3.org/1999/xlink" width="1920" height="98" viewBox="0 0 1920 1">
<g id="bg-cta-little">
<path id="bg" d="M987.924,2.000 L986.924,9.000 L991.924,2.000 L991.924,5.000 L993.925,4.000 L993.925,7.000 L997.925,3.000 L998.925,6.000 L1003.925,3.000 L1004.925,7.000 L1006.926,4.000 L1006.926,7.000 L1014.926,3.000 L1012.926,8.000 L1016.926,3.000 L1017.926,8.000 C1017.926,8.000 1019.874,6.052 1021.052,4.875 C1021.562,4.365 1021.927,4.000 1021.927,4.000 L1025.927,3.000 L1025.927,8.000 L1028.927,2.000 L1029.927,6.000 L1030.928,2.000 L1031.928,6.000 L1034.928,4.000 L1035.928,7.000 L1036.928,3.000 L1038.928,4.000 L1042.928,6.000 L1047.929,4.000 L1052.929,5.000 L1053.929,3.000 L1055.929,5.000 L1058.930,3.000 L1059.930,6.000 L1064.930,1.000 L1064.930,6.000 L1068.931,1.000 L1068.931,7.000 L1074.931,3.000 L1075.931,6.000 L1076.931,4.000 L1077.931,6.000 L1078.931,4.000 L1078.931,7.000 L1081.932,2.000 L1082.932,7.000 L1085.932,1.000 L1086.932,8.000 L1093.933,4.000 L1093.933,8.000 L1097.933,5.000 L1098.933,8.000 L1100.933,5.000 L1101.933,9.000 L1107.934,5.000 L1107.934,8.000 L1111.934,5.000 L1110.934,9.000 L1115.934,5.000 L1115.934,8.000 L1119.935,6.000 L1118.935,8.000 C1118.935,8.000 1122.465,6.823 1124.110,6.275 C1124.609,6.109 1124.935,6.000 1124.935,6.000 L1124.935,9.000 L1128.935,5.000 L1129.935,7.000 L1131.936,6.000 L1132.936,8.000 L1135.936,6.000 L1136.936,8.000 L1139.936,7.000 L1141.936,9.000 L1143.936,6.000 L1145.937,9.000 L1147.937,6.000 L1149.937,8.000 L1152.937,6.000 L1153.937,9.000 L1157.938,7.000 L1157.938,10.000 L1161.938,7.000 L1162.938,9.000 L1165.938,8.000 L1167.938,10.000 L1170.939,7.000 L1170.939,11.000 L1174.939,7.000 L1174.939,10.000 L1178.939,7.000 L1178.939,11.000 L1182.940,6.000 L1180.939,11.000 L1186.940,7.000 L1185.940,13.000 L1188.940,10.000 L1190.940,12.000 L1193.940,8.000 L1193.940,12.000 L1197.941,9.000 L1200.941,13.000 L1205.941,10.000 L1206.941,13.000 L1211.942,10.000 L1212.942,13.000 L1217.942,11.000 L1216.942,15.000 L1224.943,12.000 L1223.943,15.000 L1228.943,12.000 L1227.943,15.000 L1231.943,12.000 L1232.944,14.000 L1239.944,13.000 L1238.944,16.000 L1254.945,15.000 L1260.946,14.000 L1261.946,16.000 L1265.946,14.000 L1265.946,17.000 L1268.946,14.000 L1270.947,16.000 L1272.947,13.000 L1272.947,16.000 L1278.947,14.000 L1276.947,17.000 L1283.948,13.000 L1284.948,18.000 L1289.948,14.000 L1289.948,18.000 L1293.948,14.000 L1295.949,18.000 L1300.949,15.000 L1300.949,17.000 L1303.949,14.000 L1303.949,18.000 L1307.950,16.000 L1307.950,18.000 L1313.950,15.000 L1311.950,18.000 L1317.950,16.000 L1317.950,19.000 L1321.951,17.000 L1321.951,20.000 L1326.951,17.000 L1327.951,19.000 L1331.951,17.000 L1332.952,20.000 L1336.952,17.000 L1337.952,20.000 L1339.952,19.000 L1340.952,21.000 L1342.952,19.000 L1344.952,21.000 L1345.953,19.000 L1346.953,21.000 L1348.953,19.000 L1350.953,21.000 L1353.953,19.000 L1354.953,21.000 L1357.954,19.000 L1361.954,20.000 L1365.954,20.000 L1366.954,21.000 L1369.954,19.000 L1370.955,21.000 L1372.955,19.000 L1373.955,22.000 L1376.955,20.000 L1377.955,21.000 L1379.955,21.000 L1379.955,22.000 L1383.956,21.000 L1384.956,23.000 L1387.956,22.000 L1388.956,24.000 L1393.956,20.000 L1391.956,24.000 L1398.957,21.000 L1397.957,25.000 L1401.957,21.000 L1402.957,23.000 L1407.957,20.000 L1407.957,23.000 L1410.958,22.000 L1410.958,25.000 L1412.958,21.000 L1412.958,25.000 L1416.958,23.000 L1416.958,26.000 L1420.959,23.000 L1420.959,26.000 L1426.959,23.000 L1426.959,26.000 L1431.959,24.000 L1431.959,26.000 L1433.960,24.000 L1434.960,26.000 L1436.960,24.000 L1437.960,26.000 L1440.960,24.000 L1440.960,27.000 L1443.960,24.000 L1443.960,27.000 L1446.961,25.000 L1447.961,27.000 L1451.961,25.000 L1452.961,27.000 L1455.961,25.000 L1455.961,27.000 L1458.962,25.000 L1458.962,27.000 L1462.962,25.000 L1463.962,26.000 L1466.962,24.000 L1466.962,27.000 L1469.962,26.000 L1470.962,28.000 L1472.963,26.000 L1473.963,28.000 L1476.963,27.000 L1476.963,28.000 L1479.963,27.000 L1479.963,29.000 L1482.963,27.000 L1484.964,29.000 L1487.964,26.000 L1487.964,29.000 L1490.964,27.000 L1491.964,29.000 L1496.965,27.000 L1495.964,30.000 L1498.965,28.000 L1498.965,31.000 L1502.965,30.000 L1506.965,31.000 L1555.969,38.000 L1570.970,39.000 L1574.971,38.000 L1574.971,39.000 L1577.971,38.000 L1579.971,40.000 L1581.971,39.000 L1582.971,40.000 L1585.972,37.000 L1585.972,41.000 L1587.972,38.000 L1588.972,41.000 L1595.972,40.000 L1599.973,38.000 L1599.973,42.000 L1603.973,40.000 L1604.973,42.000 L1608.973,41.000 L1609.974,43.000 L1614.974,42.000 L1614.974,43.000 L1618.974,40.000 L1618.974,44.000 L1621.974,41.000 L1621.974,43.000 L1623.975,40.000 L1623.975,44.000 L1625.975,40.000 L1625.975,43.000 L1627.975,42.000 L1627.975,45.000 C1627.975,45.000 1629.877,43.732 1630.652,43.215 C1630.851,43.083 1630.975,43.000 1630.975,43.000 L1633.975,43.000 L1633.975,44.000 L1637.976,42.000 L1637.976,45.000 L1641.976,44.000 L1642.976,45.000 L1646.976,43.000 L1648.977,45.000 L1653.977,45.000 L1654.977,47.000 L1658.977,44.000 L1660.978,48.000 L1662.978,45.000 L1662.978,48.000 L1664.978,45.000 L1665.978,47.000 C1665.978,47.000 1666.191,46.787 1666.478,46.500 C1667.070,45.908 1667.978,45.000 1667.978,45.000 L1669.978,43.000 L1669.978,48.000 L1671.978,45.000 L1673.979,48.000 L1675.979,45.000 L1676.979,48.000 L1683.979,47.000 L1684.979,49.000 L1686.980,46.000 L1687.980,49.000 L1690.980,46.000 L1689.980,50.000 L270.867,50.000 L274.867,46.000 L275.868,49.000 L276.868,46.000 L278.868,48.000 L280.868,47.000 L282.868,48.000 L283.868,47.000 L286.868,48.000 L288.869,46.000 L290.869,48.000 L296.869,45.000 L297.869,47.000 L301.870,45.000 L302.870,47.000 L306.870,43.000 L307.870,46.000 L310.870,42.000 L310.870,45.000 L314.871,44.000 L316.871,45.000 L320.871,42.000 L322.871,44.000 L326.872,42.000 L326.872,45.000 L329.872,42.000 L332.872,44.000 L382.876,39.000 L384.876,34.000 L386.876,39.000 L388.876,36.000 L389.877,37.000 L392.877,36.000 L393.877,38.000 L396.877,35.000 L396.877,38.000 L403.878,35.000 L404.878,37.000 L406.878,33.000 L408.878,36.000 L410.878,35.000 L480.884,30.000 L483.884,28.000 L484.884,30.000 L486.884,28.000 L487.884,29.000 L489.885,28.000 L491.885,29.000 L499.885,27.000 L500.885,29.000 L502.886,26.000 L504.886,28.000 L553.890,25.000 L557.890,22.000 L557.890,24.000 L559.890,22.000 L560.890,23.000 L564.890,22.000 L566.891,23.000 L568.891,22.000 L570.891,24.000 L573.891,21.000 L574.891,22.000 L576.891,20.000 L578.892,22.000 L583.892,21.000 L585.892,22.000 L588.892,19.000 L589.892,22.000 L594.893,19.000 L595.893,21.000 L598.893,19.000 L599.893,21.000 L601.893,20.000 L603.894,21.000 L605.894,19.000 L606.894,20.000 L607.894,18.000 L608.894,20.000 L613.894,19.000 L614.894,21.000 L617.895,19.000 L620.895,20.000 L623.895,18.000 L624.895,20.000 L628.896,18.000 L631.896,21.000 L633.896,17.000 L634.896,19.000 L658.898,18.000 L664.898,15.000 L665.899,17.000 L668.899,15.000 L669.899,17.000 L672.899,11.000 L673.899,17.000 L677.899,13.000 L678.900,15.000 L680.900,13.000 L680.900,16.000 L684.900,12.000 L684.900,15.000 L687.900,11.000 L687.900,15.000 L691.901,12.000 L691.901,15.000 C691.901,15.000 693.319,13.865 694.645,12.805 C695.808,11.874 696.901,11.000 696.901,11.000 L698.901,12.000 L697.901,15.000 L701.901,13.000 L703.902,15.000 L706.902,13.000 L707.902,15.000 L710.902,13.000 L711.902,15.000 L713.902,13.000 L715.902,14.000 L719.903,11.000 L719.903,14.000 L722.903,10.000 L722.903,13.000 L726.903,10.000 L727.903,13.000 L730.904,11.000 L731.904,14.000 L733.904,11.000 L734.904,13.000 L735.904,11.000 L736.904,12.000 L738.904,10.000 L741.905,12.000 L742.905,9.000 C742.905,9.000 744.655,11.500 745.905,11.000 C747.155,10.500 751.905,8.000 751.905,8.000 L751.905,12.000 L755.906,8.000 L756.906,11.000 L758.906,9.000 L759.906,10.000 L763.906,7.000 L763.906,10.000 L766.907,8.000 L766.907,11.000 L772.907,6.000 L775.907,9.000 L781.908,5.000 L780.908,9.000 L785.908,4.000 L785.908,10.000 L788.908,6.000 L789.908,8.000 L791.909,4.000 L791.909,7.000 L795.909,3.000 L795.909,9.000 L800.909,5.000 L801.909,9.000 L804.910,5.000 L805.910,8.000 L809.910,5.000 L810.910,8.000 L816.911,5.000 L815.910,8.000 L819.911,4.000 L820.911,8.000 L824.911,4.000 L825.911,8.000 L828.911,4.000 L829.912,7.000 L830.912,4.000 L831.912,7.000 L832.912,4.000 L833.912,7.000 L835.912,4.000 L837.912,7.000 L839.912,4.000 L842.913,6.000 L846.913,4.000 L847.913,7.000 L849.913,4.000 L851.913,6.000 L852.913,3.000 L855.914,6.000 L858.914,4.000 L860.914,5.000 L862.914,4.000 L864.914,5.000 L866.914,3.000 L868.915,6.000 L873.915,3.000 L872.915,6.000 L878.915,3.000 L877.915,6.000 L883.916,3.000 L884.916,4.000 L887.916,2.000 L886.916,5.000 L890.916,3.000 L890.916,5.000 L890.916,8.000 L897.917,4.000 L895.917,8.000 L900.917,3.000 L899.917,7.000 L903.917,2.000 L903.917,5.000 L907.918,3.000 L909.918,6.000 L912.918,3.000 L914.918,6.000 L919.919,3.000 L919.919,6.000 L924.919,4.000 L923.919,7.000 L927.919,3.000 L927.919,7.000 L932.920,4.000 L932.920,7.000 L935.920,4.000 L936.920,7.000 L939.920,5.000 L940.920,8.000 L941.920,5.000 L942.921,7.000 L944.921,5.000 L946.921,6.000 L948.921,4.000 L949.921,6.000 L951.921,4.000 L953.921,6.000 L955.922,4.000 L958.922,6.000 L963.922,4.000 L963.922,6.000 L968.923,0.000 L969.923,5.000 L973.923,3.000 L975.923,4.000 L976.923,2.000 L977.923,4.000 L982.924,0.000 L981.924,6.000 L987.924,2.000 zM1692.980,50.000 L1689.980,50.000 L1693.980,47.000 L1692.980,50.000 zM1705.981,49.000 L1709.981,49.000 L1716.982,49.000 L1716.982,50.000 L1692.980,50.000 L1698.981,49.000 L1705.981,49.000 zM1719.649,50.000 L1716.982,50.000 L1718.982,48.000 L1719.649,50.000 zM262.866,49.000 L263.867,50.000 L261.366,50.000 L262.866,49.000 zM265.867,48.000 L266.867,50.000 L263.867,50.000 L265.867,48.000 zM268.867,47.000 L270.867,50.000 L266.867,50.000 L268.867,47.000 zM256.199,50.000 L256.866,49.000 L258.366,50.000 L256.199,50.000 zM248.532,50.000 L249.865,49.000 L250.365,50.000 L248.532,50.000 zM244.365,50.000 L244.865,49.000 L245.198,50.000 L244.365,50.000 zM1720.982,49.000 L1721.482,50.000 L1720.482,50.000 L1720.982,49.000 z" fill="#40A35F" />
<path id="Rectangle-15-cop" d="M545.224,48.602 L544.365,50.000 L543.102,50.000 L542.648,49.254 L545.224,48.602 zM551.299,47.926 C551.044,48.216 550.710,48.597 550.361,49.004 C550.361,49.004 549.177,49.465 549.177,49.465 C549.404,48.941 549.594,48.514 549.594,48.514 C549.594,48.514 549.361,48.604 549.361,48.604 C550.346,47.399 551.769,45.805 551.769,45.805 C551.769,45.805 551.472,46.960 551.299,47.926 zM548.773,48.830 C548.773,48.830 546.151,49.837 546.151,49.837 L545.807,48.381 L549.594,46.926 C549.594,46.926 549.116,47.995 548.773,48.830 zM551.362,49.176 C551.421,49.128 551.497,49.036 551.591,48.889 C552.618,47.300 554.365,45.718 554.365,45.718 L555.067,47.439 C555.067,47.439 558.581,42.561 557.548,44.722 C557.235,45.377 556.813,46.304 556.418,47.214 C555.745,48.086 555.067,49.028 555.067,49.028 L554.971,48.792 L555.083,48.001 L554.735,48.213 L554.365,47.306 C554.365,47.306 553.048,48.499 552.029,49.854 C552.029,49.854 551.788,50.000 551.788,50.000 C551.788,50.000 551.221,50.000 551.221,50.000 C551.255,49.750 551.305,49.465 551.362,49.176 zM575.585,45.460 C575.585,45.460 575.455,45.603 575.455,45.603 C575.482,45.534 575.517,45.465 575.558,45.397 C575.567,45.418 575.575,45.440 575.585,45.460 zM575.581,43.765 C575.265,44.254 575.324,44.789 575.493,45.240 C574.844,45.753 572.716,47.970 571.939,48.745 C571.924,48.760 571.911,48.771 571.897,48.785 C571.897,48.785 572.332,46.760 572.332,46.760 C573.621,45.451 576.237,42.749 575.581,43.765 zM572.387,44.896 C572.387,44.896 568.963,49.034 568.963,49.034 L569.400,47.537 L572.545,44.534 C572.545,44.534 572.481,44.677 572.387,44.896 zM569.329,46.194 L568.082,47.299 L568.201,45.803 L565.119,49.364 L565.592,47.919 L569.955,44.050 L569.329,46.194 zM561.995,48.414 L560.150,45.652 C560.150,45.652 559.257,47.088 557.583,49.028 C557.583,49.028 557.818,47.164 557.818,47.164 C559.340,45.366 560.150,44.063 560.150,44.063 L561.995,46.825 L566.351,44.013 L565.691,46.027 L564.174,47.006 L564.224,46.670 L563.763,47.272 L561.995,48.414 zM588.890,44.104 L586.359,46.122 L586.322,46.003 L585.588,46.737 L584.059,47.956 L584.609,45.929 L589.295,42.193 L588.890,44.104 zM576.130,47.874 C576.130,47.874 576.029,47.763 575.901,47.583 C575.901,47.583 576.285,46.184 576.285,46.184 L579.906,43.810 C579.906,43.810 579.603,44.847 579.395,45.733 C579.395,45.733 576.130,47.874 576.130,47.874 zM584.588,44.420 C583.299,45.263 580.027,47.457 579.441,48.365 C578.978,49.082 579.285,47.710 579.574,46.602 C580.631,45.350 585.111,42.492 585.111,42.492 C585.111,42.492 584.588,44.420 584.588,44.420 zM590.680,45.447 L593.378,43.505 L590.751,46.984 L590.607,47.088 L590.680,45.447 zM601.270,45.386 C599.948,46.718 598.422,48.204 597.748,48.668 C597.229,49.026 597.246,48.287 597.519,47.167 C597.580,47.170 597.654,47.145 597.748,47.080 C599.056,46.179 603.577,41.426 603.577,41.426 C603.577,41.426 602.329,43.488 601.270,45.386 zM594.380,42.783 L596.369,41.351 C596.369,41.351 595.714,42.584 595.066,43.878 C595.066,43.878 594.702,44.140 594.702,44.140 L594.380,42.783 zM599.552,40.356 C599.175,40.939 598.655,42.123 598.213,43.343 C597.013,44.765 595.373,46.753 594.483,47.765 C594.483,47.765 595.129,45.946 595.129,45.946 C595.129,45.946 595.033,45.540 595.033,45.540 C596.937,43.311 600.379,39.075 599.552,40.356 zM601.039,47.390 C603.497,44.767 607.865,39.843 607.334,40.665 C606.970,41.229 605.868,43.152 605.294,44.339 C603.681,46.102 601.528,48.487 600.332,49.724 C600.210,49.850 600.112,49.940 600.035,50.000 C600.035,50.000 599.814,50.000 599.814,50.000 C599.824,49.691 600.368,48.612 601.039,47.390 zM646.807,42.204 L643.778,45.372 L644.310,43.227 L647.132,40.275 L646.807,42.204 zM644.114,42.430 L641.029,46.258 L641.679,43.863 L644.683,40.136 L644.114,42.430 zM641.523,42.850 L636.551,47.012 L637.889,44.303 L642.080,40.794 L641.523,42.850 zM637.744,43.008 L631.939,46.850 L632.874,44.643 L638.910,40.647 L637.744,43.008 zM632.958,42.856 L626.734,48.167 L628.563,45.018 L634.011,40.368 L632.958,42.856 zM628.600,43.366 L623.149,46.416 L623.489,44.637 L629.967,41.012 L628.600,43.366 zM606.430,43.790 C607.764,42.250 609.503,40.115 609.503,40.115 C609.503,40.115 608.843,42.508 608.843,42.508 C607.784,43.794 605.757,46.226 605.122,46.802 C604.511,47.355 605.550,45.354 606.430,43.790 zM614.920,45.771 L619.008,41.128 L620.400,45.714 L623.913,40.836 L623.499,42.999 L620.400,47.302 L619.008,42.716 L614.920,47.360 L614.683,42.672 L608.152,46.604 L608.677,44.700 L614.683,41.083 L614.920,45.771 zM649.863,41.103 L650.414,44.365 L650.072,43.930 L649.863,42.692 C649.863,42.692 646.490,46.290 646.490,46.290 C646.745,45.554 647.001,44.845 647.203,44.311 C647.315,44.018 647.356,43.855 647.346,43.789 C647.346,43.789 649.863,41.103 649.863,41.103 zM668.496,40.312 L665.652,42.460 C665.652,42.460 665.458,42.277 665.247,41.989 C665.247,41.989 665.299,41.750 665.299,41.750 L668.665,39.038 L668.496,40.312 zM665.349,39.930 C665.349,39.930 664.720,40.601 664.720,40.601 C664.723,40.394 664.771,40.183 664.882,39.976 C665.368,39.073 663.680,41.051 662.453,42.498 C662.453,42.498 662.780,41.082 662.780,41.082 L665.795,37.866 L665.349,39.930 zM662.482,40.785 C662.482,40.785 661.852,41.114 661.852,41.114 C661.894,40.989 661.921,40.912 661.921,40.912 L661.636,41.227 L658.874,42.671 L659.144,41.325 L659.435,40.874 L659.197,41.062 L659.230,40.897 L662.899,38.979 L662.482,40.785 zM653.760,42.275 L651.361,45.571 L650.761,44.807 L653.760,40.686 L654.163,43.433 L659.435,39.286 L657.969,41.556 L659.028,41.002 L658.794,41.378 L655.771,43.757 L655.922,43.113 L654.083,44.481 L653.760,42.275 zM668.843,41.849 C668.843,41.849 672.135,38.160 672.135,38.160 C672.135,38.160 672.072,38.424 672.072,38.424 C670.807,40.121 669.341,42.127 668.998,42.765 C668.698,43.322 668.728,42.679 668.843,41.849 zM675.710,40.134 L676.172,39.121 L677.964,38.066 L675.710,40.134 zM673.601,41.677 L673.732,39.957 L676.179,37.516 L675.183,39.703 L676.149,39.135 L673.601,41.677 zM683.518,41.876 C683.503,41.893 683.490,41.907 683.478,41.920 C683.478,41.920 683.810,41.019 683.810,41.019 C683.810,41.019 684.476,40.617 684.476,40.617 C684.049,41.202 683.704,41.662 683.518,41.876 zM678.195,39.519 L678.404,37.807 L680.951,36.308 L680.355,38.247 L678.195,39.519 zM684.711,36.987 L680.868,40.170 L684.988,36.235 L684.711,36.987 zM689.620,39.134 C689.620,39.134 689.576,39.656 689.576,39.656 C688.788,40.552 688.023,41.387 687.522,41.845 C687.522,41.845 689.620,39.134 689.620,39.134 zM689.957,42.957 C689.428,43.592 689.370,43.398 689.569,42.774 C689.569,42.774 691.358,41.222 691.358,41.222 C690.824,41.895 690.338,42.500 689.957,42.957 zM694.388,39.410 C694.388,39.410 694.469,39.784 694.469,39.784 C694.255,40.003 694.259,39.816 694.388,39.410 zM698.133,39.485 L699.101,38.977 L698.874,40.685 L697.808,41.245 L698.133,39.485 zM702.775,38.265 L701.734,38.989 L702.718,37.871 L702.775,38.265 zM733.715,50.000 L733.701,50.000 L733.719,49.974 L733.715,50.000 zM755.014,48.891 L754.874,50.000 L754.119,50.000 L755.014,48.891 zM770.914,34.531 L771.173,33.601 L773.218,31.987 L770.914,34.531 zM771.145,32.111 C770.767,32.357 770.221,32.715 769.626,33.120 C769.626,33.120 769.995,31.403 769.995,31.403 C769.995,31.403 766.962,35.068 766.962,35.068 C766.503,35.446 766.145,35.783 765.985,36.027 C765.515,36.746 765.837,35.357 766.135,34.247 C767.228,32.990 771.683,30.178 771.683,30.178 C771.683,30.178 771.145,32.111 771.145,32.111 zM766.470,31.474 C766.470,31.474 766.158,32.516 765.944,33.404 C765.944,33.404 765.264,33.845 765.264,33.845 L765.342,32.873 L763.524,34.973 L762.678,35.523 C762.678,35.523 761.449,34.177 762.116,33.055 C762.342,33.566 762.678,33.934 762.678,33.934 L766.470,31.474 zM762.145,31.412 C761.825,31.902 761.882,32.440 762.049,32.893 C761.386,33.417 759.260,35.608 758.481,36.377 C757.754,37.094 758.368,35.483 758.789,34.481 C760.051,33.215 762.823,30.375 762.145,31.412 zM758.169,34.641 C758.169,34.641 757.980,34.819 757.980,34.819 L757.981,34.811 L755.315,37.283 L755.954,35.145 L759.104,32.168 C759.104,32.168 758.316,33.903 758.169,34.641 zM755.873,33.828 L754.903,34.679 L755.014,33.801 L752.855,36.476 L751.909,37.307 L752.164,35.495 L756.517,31.674 L755.873,33.828 zM748.704,35.301 L752.914,31.622 L752.163,33.867 L748.704,36.889 L747.746,37.521 L748.795,35.572 L747.571,36.048 L748.704,35.301 zM735.988,39.258 L735.808,39.481 L735.821,39.322 L735.988,39.258 zM736.175,49.977 L736.173,50.000 L736.156,50.000 L736.175,49.977 zM740.064,39.416 C740.064,39.416 740.000,39.520 740.000,39.520 C740.000,39.520 739.994,39.497 739.994,39.497 C740.018,39.470 740.041,39.443 740.064,39.416 zM743.909,37.473 C744.735,36.424 745.495,35.559 744.934,36.716 C744.868,36.852 744.797,37.001 744.723,37.156 C744.723,37.156 743.909,37.473 743.909,37.473 zM771.552,48.917 L774.016,46.196 L773.390,48.476 L772.010,50.000 L771.250,50.000 L771.552,48.917 zM778.892,48.830 L778.896,50.000 L778.123,50.000 L778.892,48.830 zM783.727,49.014 C783.450,49.341 783.169,49.674 782.893,50.000 C782.893,50.000 781.626,50.000 781.626,50.000 L783.463,48.164 C783.463,48.164 783.727,49.014 783.727,49.014 zM785.695,33.620 C785.695,33.620 784.233,35.557 784.233,35.557 C784.233,35.557 784.053,34.977 784.053,34.977 C784.059,34.952 784.064,34.929 784.070,34.904 C784.129,34.903 784.201,34.877 784.290,34.816 C784.607,34.601 785.111,34.161 785.695,33.620 zM786.139,28.100 C785.755,28.685 785.224,29.878 784.772,31.103 C783.494,32.602 781.731,34.716 780.883,35.652 C780.883,35.652 780.432,36.103 780.432,36.103 C780.117,36.279 780.848,34.734 781.602,33.246 C783.524,31.020 786.971,26.826 786.139,28.100 zM773.371,33.455 L773.928,31.427 L775.870,29.895 L775.449,31.815 L773.371,33.455 zM781.623,31.615 C781.623,31.615 775.979,35.637 775.979,35.637 L776.436,33.736 L775.629,34.297 L782.949,29.082 C782.949,29.082 782.281,30.320 781.623,31.615 zM787.791,33.179 C787.791,33.179 787.865,31.517 787.865,31.517 C789.104,30.281 790.157,29.186 790.157,29.186 C790.157,29.186 788.883,31.261 787.809,33.161 C787.803,33.167 787.797,33.173 787.791,33.179 zM787.826,47.475 L785.920,50.000 L784.721,50.000 L787.901,45.787 L787.826,47.475 zM852.144,30.332 C852.144,30.332 851.272,31.251 851.272,31.251 C851.653,30.563 852.029,29.903 852.322,29.406 C852.340,29.376 852.352,29.352 852.368,29.325 C852.368,29.325 852.144,30.332 852.144,30.332 zM852.464,28.893 C851.959,29.188 849.591,31.967 849.591,31.967 L849.517,31.727 L849.585,31.444 L852.606,28.255 C852.606,28.255 852.464,28.893 852.464,28.893 zM849.305,31.032 L849.054,30.209 C849.054,30.209 847.627,31.320 846.483,32.610 C846.483,32.610 845.590,33.071 845.590,33.071 C845.647,32.714 845.790,32.192 845.945,31.685 C845.945,31.685 846.238,31.238 846.238,31.238 C846.238,31.238 846.068,31.292 846.068,31.292 C846.076,31.269 846.083,31.247 846.090,31.224 C846.090,31.224 849.703,29.356 849.703,29.356 L849.305,31.032 zM840.728,31.399 L846.238,29.649 C846.238,29.649 844.959,31.604 844.959,31.604 C844.939,31.624 844.920,31.643 844.900,31.663 C844.900,31.663 843.676,32.051 843.676,32.051 C843.952,31.542 844.182,31.128 844.182,31.128 L840.624,32.242 L840.343,30.239 L838.485,32.761 L837.126,33.018 L840.343,28.650 L840.728,31.399 zM833.378,30.153 L830.341,33.295 L830.891,31.138 L833.719,28.212 L833.378,30.153 zM830.681,30.374 L827.586,34.170 L828.257,31.758 L831.270,28.063 L830.681,30.374 zM828.089,30.775 L823.103,34.906 L824.467,32.188 L828.663,28.711 L828.089,30.775 zM824.307,30.917 L818.492,34.725 L819.446,32.512 L825.494,28.551 L824.307,30.917 zM819.521,30.749 L813.279,36.022 L815.139,32.862 L820.597,28.252 L819.521,30.749 zM815.161,31.236 L809.705,34.256 L810.059,32.471 L816.549,28.880 L815.161,31.236 zM801.470,33.578 L805.589,28.951 L806.950,33.542 L810.496,28.678 L810.063,30.860 L806.950,35.131 L805.589,30.539 L801.470,35.166 L801.264,30.477 L794.707,34.383 L795.247,32.473 L801.264,28.889 L801.470,33.578 zM795.410,30.309 C794.550,31.341 793.078,33.089 792.201,34.035 C792.201,34.035 792.270,33.017 792.270,33.017 C792.270,33.017 792.249,32.928 792.249,32.928 C792.492,32.471 792.765,31.980 793.024,31.527 C794.364,29.996 796.091,27.900 796.091,27.900 C796.091,27.900 795.410,30.309 795.410,30.309 zM793.919,28.440 C793.577,28.962 792.595,30.648 791.990,31.835 C791.990,31.835 791.716,30.678 791.716,30.678 C793.141,29.136 794.197,28.014 793.919,28.440 zM787.818,49.243 L791.412,44.483 L792.270,48.107 C792.270,48.107 792.252,48.367 792.252,48.367 C792.175,48.449 792.095,48.536 792.016,48.622 C792.016,48.622 791.412,46.072 791.412,46.072 C791.412,46.072 789.308,48.859 789.308,48.859 C789.801,48.033 790.157,47.453 790.157,47.453 C790.157,47.453 789.062,48.592 787.791,49.858 C787.791,49.858 787.818,49.243 787.818,49.243 zM837.094,34.650 L836.443,30.640 L832.918,34.361 L833.260,32.411 L836.443,29.051 L837.088,33.025 L837.035,33.035 L837.537,34.048 L837.094,34.650 zM855.469,29.439 L855.430,29.722 L855.333,29.547 L855.469,29.439 zM856.370,31.429 L858.945,28.575 L858.414,30.744 L856.557,31.769 L856.370,31.429 zM860.773,30.139 L862.993,27.947 L862.656,29.869 L859.582,32.903 L860.773,30.139 zM873.650,30.422 L870.703,32.075 C870.703,32.075 870.613,31.958 870.502,31.771 C870.502,31.771 870.614,31.473 870.614,31.473 L873.975,29.470 L873.650,30.422 zM864.500,30.130 L867.772,26.759 L867.035,29.107 L863.447,32.804 L864.500,30.130 zM870.884,29.167 C870.884,29.167 870.245,29.770 870.245,29.770 C870.286,29.689 870.334,29.608 870.394,29.529 C871.233,28.441 867.556,31.739 866.442,32.693 C866.425,32.708 866.411,32.718 866.395,32.730 C866.395,32.730 866.802,31.436 866.802,31.436 L871.811,26.703 L870.884,29.167 zM876.423,29.620 C876.423,29.620 876.296,31.007 876.296,31.007 C875.286,31.645 874.374,32.281 874.012,32.699 C874.012,32.699 876.423,29.620 876.423,29.620 zM880.243,31.505 L878.602,32.630 L879.316,30.712 L881.044,29.229 L881.362,30.738 L881.069,30.939 L881.044,30.818 L880.243,31.505 zM883.458,31.226 L884.217,28.785 L885.695,27.124 L885.431,29.009 L883.458,31.226 zM889.780,29.335 L889.576,29.461 L889.319,27.622 L885.368,32.061 L885.213,32.156 L885.464,30.364 L889.319,26.034 L889.780,29.335 zM1043.682,48.082 L1042.713,48.835 L1044.044,46.800 L1042.764,47.207 L1044.657,45.737 L1043.682,48.082 zM1044.657,29.059 L1043.682,31.404 L1042.713,32.156 L1044.044,30.121 L1042.764,30.528 L1044.657,29.059 zM1047.038,31.813 L1047.502,29.863 L1048.251,29.280 L1047.396,31.534 L1047.038,31.813 zM1047.396,48.213 L1047.038,48.492 L1047.502,46.542 L1048.251,45.958 L1047.396,48.213 zM1053.708,49.100 C1053.572,48.676 1053.525,48.176 1053.782,47.718 C1053.970,48.177 1054.232,48.504 1054.232,48.504 L1054.259,48.489 C1054.259,48.489 1053.708,49.100 1053.708,49.100 zM1054.259,31.810 C1054.259,31.810 1053.708,32.421 1053.708,32.421 C1053.572,31.997 1053.525,31.497 1053.782,31.039 C1053.970,31.498 1054.232,31.825 1054.232,31.825 L1054.259,31.810 zM1053.888,29.283 C1053.513,29.782 1053.552,30.353 1053.705,30.828 C1053.544,30.949 1053.326,31.127 1053.076,31.338 C1053.076,31.338 1053.276,29.911 1053.276,29.911 C1053.276,29.911 1050.436,32.176 1050.436,32.176 C1050.468,32.112 1050.499,32.051 1050.529,31.993 C1051.958,30.718 1054.604,28.331 1053.888,29.283 zM1050.796,29.895 C1050.796,29.895 1049.760,31.812 1049.649,32.445 C1049.649,32.445 1049.570,32.512 1049.570,32.512 L1050.005,30.558 L1050.796,29.895 zM1049.570,49.190 L1050.005,47.237 L1050.796,46.574 C1050.796,46.574 1049.760,48.491 1049.649,49.124 C1049.649,49.124 1049.570,49.190 1049.570,49.190 zM1050.529,48.672 C1051.958,47.397 1054.604,45.010 1053.888,45.961 C1053.513,46.461 1053.552,47.032 1053.705,47.507 C1053.544,47.628 1053.326,47.806 1053.076,48.017 C1053.076,48.017 1053.276,46.590 1053.276,46.590 C1053.276,46.590 1050.436,48.854 1050.436,48.854 C1050.468,48.791 1050.499,48.730 1050.529,48.672 zM1056.372,30.597 L1058.200,29.548 C1058.200,29.548 1057.786,30.642 1057.505,31.535 C1057.505,31.535 1055.920,32.445 1055.920,32.445 L1056.372,30.597 zM1057.505,48.214 C1057.505,48.214 1055.920,49.124 1055.920,49.124 L1056.372,47.276 L1058.200,46.227 C1058.200,46.227 1057.786,47.321 1057.505,48.214 zM1060.158,32.075 C1060.158,32.075 1060.472,30.289 1060.472,30.289 C1061.991,29.341 1063.501,28.498 1063.501,28.498 L1063.007,29.880 C1063.007,29.880 1061.922,30.998 1061.922,30.998 C1061.382,31.317 1060.764,31.691 1060.158,32.075 zM1063.007,46.559 C1063.007,46.559 1061.922,47.677 1061.922,47.677 C1061.382,47.996 1060.764,48.370 1060.158,48.754 C1060.158,48.754 1060.472,46.968 1060.472,46.968 C1061.991,46.020 1063.501,45.177 1063.501,45.177 L1063.007,46.559 zM1064.504,30.654 L1067.702,28.413 L1067.466,29.208 L1063.899,32.578 L1064.504,30.654 zM1067.466,45.886 L1063.899,49.257 L1064.504,47.333 L1067.702,45.092 L1067.466,45.886 zM1078.086,43.782 C1077.632,44.385 1076.960,45.667 1076.395,46.949 C1075.640,47.732 1074.764,48.651 1073.983,49.461 C1073.983,49.461 1074.144,47.705 1074.144,47.705 C1076.230,45.539 1078.881,42.725 1078.086,43.782 zM1078.086,27.103 C1077.632,27.707 1076.960,28.988 1076.395,30.270 C1075.640,31.053 1074.764,31.972 1073.983,32.782 C1073.983,32.782 1074.144,31.027 1074.144,31.027 C1076.230,28.860 1078.881,26.046 1078.086,27.103 zM1074.829,27.935 C1074.829,27.935 1074.020,29.219 1073.243,30.525 C1073.243,30.525 1071.127,31.862 1071.127,31.862 L1071.781,29.942 L1069.490,31.308 L1074.829,27.935 zM1074.829,44.613 C1074.829,44.613 1074.020,45.898 1073.243,47.204 C1073.243,47.204 1071.127,48.541 1071.127,48.541 L1071.781,46.621 L1069.491,47.986 L1074.829,44.613 zM1079.120,30.979 C1080.627,29.657 1082.016,28.377 1082.016,28.377 C1082.016,28.377 1080.599,30.377 1079.387,32.220 C1079.387,32.220 1079.383,32.223 1079.383,32.223 C1079.383,32.223 1079.120,30.979 1079.120,30.979 zM1079.387,48.898 C1079.387,48.898 1079.383,48.902 1079.383,48.902 C1079.383,48.902 1079.120,47.658 1079.120,47.658 C1080.627,46.335 1082.016,45.055 1082.016,45.055 C1082.016,45.055 1080.599,47.056 1079.387,48.898 zM1083.007,31.133 C1083.007,31.133 1083.129,30.258 1083.129,30.258 C1084.831,28.626 1086.159,27.367 1085.827,27.809 C1085.709,27.966 1085.520,28.234 1085.296,28.561 C1085.296,28.561 1083.007,31.133 1083.007,31.133 zM1085.827,44.487 C1085.709,44.644 1085.520,44.913 1085.296,45.240 C1085.296,45.240 1083.007,47.811 1083.007,47.811 C1083.007,47.811 1083.129,46.937 1083.129,46.937 C1084.831,45.305 1086.159,44.046 1085.827,44.487 zM1087.403,48.287 L1093.127,45.280 L1093.077,46.895 L1087.166,50.000 L1087.122,50.000 L1087.403,48.287 zM1102.358,45.504 L1101.704,47.879 L1099.938,50.000 L1098.616,50.000 L1102.358,45.504 zM1101.777,49.203 L1108.385,45.990 L1106.763,48.367 L1103.405,50.000 L1101.557,50.000 L1101.777,49.203 zM1106.928,49.714 L1112.473,45.553 L1111.136,48.145 L1108.663,50.000 L1106.732,50.000 L1106.928,49.714 zM1111.177,49.653 L1117.339,46.082 L1115.914,48.496 L1113.319,50.000 L1110.998,50.000 L1111.177,49.653 zM1116.255,49.508 L1120.491,46.390 L1119.720,48.546 L1117.744,50.000 L1115.964,50.000 L1116.255,49.508 zM1120.053,49.203 L1123.141,45.866 L1122.313,48.350 L1120.785,50.000 L1119.768,50.000 L1120.053,49.203 zM1122.706,48.760 L1125.574,46.130 L1125.053,48.197 L1123.086,50.000 L1122.292,50.000 L1122.706,48.760 zM1137.965,49.741 C1137.965,49.741 1137.792,49.787 1137.792,49.787 C1137.810,49.742 1137.828,49.696 1137.846,49.652 C1137.846,49.652 1141.446,48.023 1141.446,48.023 L1140.992,49.461 L1140.852,48.847 C1140.852,48.847 1140.172,49.318 1139.351,50.000 C1139.351,50.000 1137.770,50.000 1137.770,50.000 L1137.965,49.741 zM1144.176,33.836 C1144.039,33.960 1143.898,34.086 1143.752,34.214 C1143.752,34.214 1143.781,34.116 1143.781,34.116 C1143.781,34.116 1144.176,33.836 1144.176,33.836 zM1144.012,31.760 C1144.012,31.760 1143.762,32.591 1143.762,32.591 C1143.762,32.591 1142.990,33.313 1142.990,33.313 C1143.353,32.749 1143.711,32.206 1144.012,31.760 zM1144.207,31.111 C1143.462,31.665 1141.258,33.948 1141.258,33.948 L1141.202,33.705 L1141.341,33.265 L1144.426,30.382 C1144.426,30.382 1144.207,31.111 1144.207,31.111 zM1140.992,32.782 L1140.852,32.168 C1140.852,32.168 1139.346,33.210 1138.107,34.444 C1138.107,34.444 1137.182,34.862 1137.182,34.862 C1137.265,34.509 1137.447,33.994 1137.639,33.495 C1137.639,33.495 1137.965,33.063 1137.965,33.063 C1137.965,33.063 1137.792,33.108 1137.792,33.108 C1137.810,33.063 1137.828,33.017 1137.846,32.973 C1137.846,32.973 1141.446,31.345 1141.446,31.345 L1140.992,32.782 zM1128.583,34.450 L1132.155,30.200 L1132.334,32.962 L1137.965,31.474 L1136.474,33.457 C1136.474,33.457 1135.346,33.754 1135.346,33.754 C1135.660,33.259 1135.920,32.857 1135.920,32.857 L1132.286,33.801 L1132.155,31.788 L1130.112,34.219 L1128.644,34.424 L1129.070,35.459 L1128.583,36.039 L1128.232,32.005 L1124.435,35.554 L1124.960,33.476 L1128.232,30.417 L1128.583,34.450 zM1125.053,31.518 L1121.942,34.369 L1122.706,32.081 L1125.574,29.451 L1125.053,31.518 zM1122.313,31.671 L1119.127,35.113 L1120.053,32.524 L1123.141,29.187 L1122.313,31.671 zM1119.720,31.867 L1114.597,35.637 L1116.255,32.829 L1120.491,29.712 L1119.720,31.867 zM1115.914,31.817 L1110.008,35.240 L1111.177,32.974 L1117.339,29.403 L1115.914,31.817 zM1111.136,31.466 L1104.707,36.289 L1106.928,33.035 L1112.473,28.875 L1111.136,31.466 zM1106.763,31.688 L1101.271,34.359 L1101.777,32.525 L1108.385,29.311 L1106.763,31.688 zM1098.456,33.514 L1102.358,28.825 L1101.704,31.200 L1098.456,35.103 L1097.439,30.455 L1092.983,34.881 L1093.033,33.242 L1097.439,28.867 L1098.456,33.514 zM1087.349,44.781 C1087.763,44.342 1088.036,44.050 1088.036,44.050 L1087.466,45.623 C1087.466,45.623 1087.349,44.781 1087.349,44.781 zM1088.036,27.371 L1087.466,28.945 C1087.466,28.945 1087.349,28.102 1087.349,28.102 C1087.763,27.663 1088.036,27.371 1088.036,27.371 zM1093.077,30.216 L1087.118,33.346 L1087.403,31.608 L1093.127,28.602 L1093.077,30.216 zM1141.341,49.944 L1144.426,47.060 C1144.426,47.060 1144.207,47.790 1144.207,47.790 C1143.713,48.157 1142.580,49.282 1141.871,50.000 C1141.871,50.000 1141.323,50.000 1141.323,50.000 L1141.341,49.944 zM1144.012,48.438 C1144.012,48.438 1143.762,49.270 1143.762,49.270 C1143.762,49.270 1142.989,49.992 1142.989,49.992 C1143.353,49.428 1143.711,48.884 1144.012,48.438 zM1147.196,31.698 L1147.172,31.807 L1147.140,31.738 L1147.196,31.698 zM1147.172,48.486 L1147.140,48.416 L1147.196,48.377 L1147.172,48.486 zM1148.027,33.648 L1150.730,30.999 L1150.015,33.210 L1148.226,34.077 L1148.027,33.648 zM1150.730,47.677 L1150.015,49.889 L1149.786,50.000 L1148.360,50.000 L1150.730,47.677 zM1152.656,32.455 L1154.818,30.562 L1154.303,32.601 L1151.162,35.352 L1152.656,32.455 zM1152.656,49.134 L1154.818,47.241 L1154.303,49.280 L1153.481,50.000 L1152.209,50.000 L1152.656,49.134 zM1156.371,49.297 L1159.677,46.279 L1158.697,48.762 L1157.341,50.000 L1156.036,50.000 L1156.371,49.297 zM1165.666,49.278 L1165.361,50.000 L1164.292,50.000 L1165.666,49.278 zM1167.856,34.318 C1166.800,34.913 1165.859,35.504 1165.523,35.887 C1165.369,36.062 1165.295,36.096 1165.277,36.033 C1165.277,36.033 1168.099,32.863 1168.099,32.863 C1168.099,32.863 1167.856,34.318 1167.856,34.318 zM1165.239,33.611 L1162.325,35.048 C1162.325,35.048 1162.244,34.927 1162.147,34.735 C1162.147,34.735 1162.320,34.357 1162.320,34.357 L1165.666,32.599 L1165.239,33.611 zM1156.371,32.619 L1159.677,29.601 L1158.697,32.083 L1155.027,35.435 L1156.371,32.619 zM1162.528,32.316 C1162.528,32.316 1162.039,32.726 1162.039,32.726 C1162.086,32.646 1162.140,32.568 1162.206,32.492 C1163.125,31.445 1159.208,34.564 1158.025,35.465 C1158.007,35.478 1157.992,35.488 1157.976,35.500 C1157.976,35.500 1158.538,34.074 1158.538,34.074 L1163.712,29.734 L1162.528,32.316 zM1168.099,49.542 L1168.023,50.000 L1167.692,50.000 L1168.099,49.542 zM1171.890,34.928 L1170.169,35.973 L1171.089,33.949 L1172.741,32.690 L1172.956,34.280 L1172.758,34.401 L1172.741,34.279 L1171.890,34.928 zM1172.741,49.369 L1172.827,50.000 L1171.913,50.000 L1172.741,49.369 zM1176.062,49.073 L1175.758,49.258 L1177.541,47.487 L1177.104,49.509 L1176.609,50.000 L1175.699,50.000 L1176.062,49.073 zM1181.459,33.271 L1181.359,33.325 L1181.240,31.477 L1176.965,35.723 L1176.803,35.811 L1177.220,33.881 L1181.240,29.889 L1181.459,33.271 zM1177.541,30.808 L1177.104,32.830 L1175.121,34.800 L1176.062,32.394 L1175.758,32.579 L1177.541,30.808 zM1360.486,41.179 L1360.767,40.983 L1359.586,43.398 L1359.413,43.519 L1360.486,41.179 zM1363.287,45.277 L1363.641,44.492 L1364.699,43.692 L1363.287,45.277 zM1364.341,41.350 L1363.292,43.676 L1362.389,44.311 L1363.210,42.367 L1361.964,43.022 L1364.341,41.350 zM1365.272,44.846 L1365.576,43.027 L1366.843,42.069 C1366.843,42.069 1365.553,44.154 1365.517,44.661 C1365.517,44.661 1365.272,44.846 1365.272,44.846 zM1369.971,41.584 C1369.613,42.008 1369.579,42.498 1369.656,42.937 C1369.656,42.937 1365.560,46.060 1365.560,46.060 C1365.728,45.551 1366.323,44.524 1366.640,43.993 C1368.182,42.750 1370.714,40.702 1369.971,41.584 zM1372.943,42.702 L1370.628,45.001 L1370.488,43.963 L1372.943,42.702 zM1394.906,46.020 C1393.556,47.085 1392.151,48.150 1391.507,48.499 C1390.922,48.816 1391.070,48.033 1391.534,46.895 C1393.000,46.084 1398.121,41.829 1398.121,41.829 C1398.121,41.829 1396.296,44.120 1394.906,46.020 zM1394.278,40.397 C1393.762,41.010 1392.955,42.360 1392.287,43.679 C1390.610,45.249 1388.463,47.287 1387.843,47.777 C1387.118,48.349 1388.518,46.221 1389.672,44.541 C1391.936,42.433 1395.195,39.309 1394.278,40.397 zM1389.153,43.715 C1389.153,43.715 1382.034,47.755 1382.034,47.755 L1382.768,45.750 L1390.972,41.094 C1390.972,41.094 1390.033,42.409 1389.153,43.715 zM1379.622,41.194 L1378.980,42.693 C1378.980,42.693 1378.906,41.559 1378.906,41.559 C1379.344,41.333 1379.622,41.194 1379.622,41.194 zM1383.067,43.346 L1378.297,46.356 L1378.561,45.258 L1378.947,44.357 L1383.823,41.280 L1383.067,43.346 zM1401.964,41.418 C1401.452,42.026 1399.703,44.337 1399.111,45.342 C1397.331,46.880 1395.162,48.768 1393.920,49.784 C1393.805,49.878 1393.711,49.948 1393.634,50.000 C1393.634,50.000 1393.367,50.000 1393.367,50.000 C1393.448,49.630 1394.365,48.327 1395.374,46.975 C1398.254,44.520 1402.564,40.706 1401.964,41.418 zM1488.456,50.000 L1488.224,50.000 L1488.446,49.848 L1488.456,50.000 zM1475.599,46.228 L1474.393,48.809 L1472.947,50.000 L1471.712,50.000 L1472.293,48.950 L1475.599,46.228 zM1460.313,49.525 C1460.129,49.678 1459.933,49.838 1459.731,50.000 C1459.731,50.000 1459.569,50.000 1459.569,50.000 C1459.569,50.000 1460.313,49.525 1460.313,49.525 zM1460.014,47.206 C1459.126,47.861 1457.025,49.819 1457.025,49.819 L1456.986,49.573 L1457.204,49.008 L1460.318,46.385 C1460.318,46.385 1460.014,47.206 1460.014,47.206 zM1456.805,48.453 L1456.736,48.024 C1456.736,48.024 1455.325,48.903 1454.057,50.000 C1454.057,50.000 1453.101,50.000 1453.101,50.000 C1453.201,49.753 1453.320,49.483 1453.441,49.218 C1453.441,49.218 1453.794,48.800 1453.794,48.800 C1453.794,48.800 1453.618,48.838 1453.618,48.838 C1453.648,48.775 1453.678,48.713 1453.707,48.652 C1453.707,48.652 1457.279,47.224 1457.279,47.224 L1456.805,48.453 zM1452.151,49.160 C1452.151,49.160 1451.134,49.384 1451.134,49.384 C1451.479,48.902 1451.766,48.510 1451.766,48.510 L1448.074,49.305 L1448.075,48.467 L1453.794,47.211 L1452.151,49.160 zM1459.463,48.693 C1459.463,48.693 1458.796,49.255 1458.796,49.255 C1459.116,48.815 1459.432,48.389 1459.715,48.014 C1459.715,48.014 1459.463,48.693 1459.463,48.693 zM1444.231,49.800 L1448.075,45.701 L1448.075,47.290 L1445.877,49.634 L1444.397,49.778 L1444.473,50.000 L1444.201,50.000 L1444.143,47.346 L1440.993,50.000 L1440.356,50.000 L1440.819,48.559 L1444.143,45.758 L1444.231,49.800 zM1440.859,46.845 L1437.708,49.450 L1438.672,47.065 L1441.551,44.684 L1440.859,46.845 zM1438.082,46.936 L1434.928,50.000 L1434.882,50.000 L1436.016,47.354 L1439.139,44.321 L1438.082,46.936 zM1435.506,46.956 L1430.917,50.000 L1430.569,50.000 L1432.213,47.552 L1436.458,44.736 L1435.506,46.956 zM1431.693,46.737 L1425.733,49.831 L1427.095,47.535 L1433.330,44.299 L1431.693,46.737 zM1426.930,46.226 L1421.350,50.000 L1420.880,50.000 L1422.915,47.353 L1428.504,43.573 L1426.930,46.226 zM1422.566,46.219 L1417.065,48.593 L1417.708,46.728 L1424.394,43.841 L1422.566,46.219 zM1414.205,47.633 L1418.406,43.110 L1417.537,45.634 L1414.205,49.221 L1413.491,44.538 L1408.754,48.776 L1408.920,47.038 L1413.491,42.950 L1414.205,47.633 zM1409.043,44.172 L1402.142,47.404 L1403.006,45.411 L1409.202,42.509 L1409.043,44.172 zM1404.198,41.072 C1404.198,41.072 1403.024,43.780 1403.024,43.780 C1401.730,45.006 1399.747,46.860 1399.103,47.322 C1398.292,47.904 1400.281,45.164 1401.402,43.713 C1402.774,42.441 1404.198,41.072 1404.198,41.072 zM1463.778,49.727 L1466.573,47.259 L1465.694,49.494 L1464.517,50.000 L1463.885,50.000 L1463.778,49.727 zM1468.599,48.637 L1470.684,46.990 L1470.002,49.117 L1468.884,50.000 L1467.790,50.000 L1468.599,48.637 zM1476.578,50.000 C1476.578,50.000 1475.030,50.000 1475.030,50.000 L1479.620,46.527 L1478.198,49.191 C1478.198,49.191 1477.858,49.448 1477.858,49.448 C1477.911,49.370 1477.969,49.294 1478.040,49.221 C1478.550,48.700 1477.694,49.240 1476.578,50.000 zM1481.386,49.467 L1481.122,50.000 L1480.249,50.000 L1481.386,49.467 zM1483.799,49.831 L1483.759,50.000 L1483.631,50.000 L1483.799,49.831 zM1491.884,49.690 L1491.315,50.000 L1491.309,50.000 L1493.361,48.164 L1492.841,50.000 L1491.741,50.000 L1491.884,49.690 zM1181.459,49.950 L1181.367,50.000 L1181.359,50.000 L1181.240,48.156 L1179.383,50.000 L1177.784,50.000 L1181.240,46.568 L1181.459,49.950 zM1162.528,48.995 C1162.528,48.995 1162.039,49.405 1162.039,49.405 C1162.086,49.325 1162.140,49.246 1162.206,49.171 C1162.680,48.631 1161.867,49.200 1160.807,50.000 C1160.807,50.000 1159.436,50.000 1159.436,50.000 L1163.712,46.413 L1162.528,48.995 zM1132.155,46.879 L1132.334,49.641 L1137.965,48.153 L1136.576,50.000 C1136.576,50.000 1135.622,50.000 1135.622,50.000 C1135.798,49.724 1135.920,49.535 1135.920,49.535 L1134.133,50.000 L1132.254,50.000 L1132.155,48.467 L1130.867,50.000 L1129.532,50.000 L1132.155,46.879 zM1128.485,50.000 L1128.346,50.000 L1128.232,48.684 L1126.824,50.000 L1125.125,50.000 L1128.232,47.096 L1128.485,50.000 zM1093.033,49.921 L1097.439,45.546 L1098.414,50.000 L1098.066,50.000 L1097.439,47.134 L1094.553,50.000 L1093.031,50.000 L1093.033,49.921 zM775.596,49.411 L776.436,48.827 L776.154,50.000 L775.467,50.000 L775.596,49.411 zM769.533,48.640 L768.407,50.000 L767.093,50.000 L769.995,46.493 L769.533,48.640 zM765.202,49.714 L764.954,50.000 L763.580,50.000 L765.342,47.964 L765.202,49.714 zM761.192,50.000 L760.470,50.000 L761.365,48.831 L761.192,50.000 zM757.976,50.000 L757.874,50.000 L757.981,49.901 L757.976,50.000 zM1497.114,47.398 L1497.114,48.987 L1495.981,50.000 L1494.206,50.000 L1497.114,47.398 z" fill="#3D9C5B" />
</g>
</svg>
