<svg version="1.1" xmlns="http://www.w3.org/2000/svg" xmlns:xlink="http://www.w3.org/1999/xlink" width="1920" height="490" viewBox="0 0 1920 490">
<g id="bg-lead">
<path id="bg-copy" d="M0.000,-0.000 L1920.000,-0.000 L1920.000,490.000 L0.000,490.000 L0.000,-0.000 z" fill="#39BBFF" />
<path id="Shape-143-copy-2" d="M-13.085,404.752 C-25.227,392.601 3.853,334.818 11.655,335.058 C19.457,335.298 17.283,324.338 25.085,324.578 C32.887,324.819 46.637,298.928 50.998,298.194 C55.359,297.461 54.386,303.904 61.294,304.985 C68.202,306.066 100.212,221.558 107.987,222.667 C115.762,223.775 123.950,245.657 129.178,244.950 C134.406,244.243 133.699,239.011 137.167,239.118 C140.634,239.225 144.501,248.540 152.316,248.347 C160.131,248.154 181.592,227.935 192.901,226.982 C204.210,226.028 209.924,200.665 219.052,200.079 C228.181,199.492 228.888,207.060 243.231,206.199 C257.574,205.339 284.896,172.504 293.578,172.338 C297.456,172.263 301.110,176.479 304.723,174.979 C309.198,173.121 313.467,164.524 316.330,165.092 C321.504,166.120 322.104,172.822 328.145,173.877 C334.187,174.931 353.726,132.116 364.128,132.436 C374.531,132.757 398.655,172.498 405.537,174.447 C407.614,175.035 409.188,181.764 412.192,181.228 C414.171,180.875 417.554,165.949 420.601,165.608 C423.648,165.268 426.160,172.061 428.292,171.609 C431.987,170.827 434.123,166.723 437.691,166.833 C448.960,167.180 452.787,183.797 461.429,184.932 C470.071,186.066 482.608,173.427 489.489,175.376 C496.371,177.325 498.464,193.888 506.266,194.129 C514.068,194.369 532.360,181.841 542.776,181.728 C553.192,181.614 560.032,184.024 565.666,184.197 C571.301,184.371 574.789,168.716 579.123,168.850 C583.458,168.984 590.045,178.475 595.273,177.768 C600.501,177.061 632.150,185.487 641.712,184.913 C651.274,184.339 673.224,210.564 680.105,212.512 C686.987,214.461 691.706,212.970 701.215,214.132 C710.724,215.293 760.284,293.174 750.959,306.743 C608.080,408.488 -0.943,416.904 -13.085,404.752 z" fill="#0089D1" />
<path id="Shape-149" d="M714.872,254.956 C708.230,255.855 706.468,241.449 698.724,242.314 C690.980,243.180 684.032,254.005 678.729,247.218 C673.425,240.431 679.781,213.027 668.767,212.688 C657.752,212.348 648.651,257.331 637.603,258.094 C626.555,258.857 624.049,196.958 613.069,195.516 C602.089,194.073 600.207,219.407 589.125,221.273 C578.043,223.139 585.330,201.285 574.316,200.945 C563.302,200.606 558.455,214.808 550.779,213.467 C543.103,212.127 537.969,199.825 524.650,202.726 C511.331,205.628 505.179,226.413 493.199,221.628 C481.219,216.843 487.013,196.834 495.013,198.501 C503.013,200.168 518.415,185.404 540.534,173.025 C548.716,168.446 556.723,183.965 563.305,180.282 C572.668,175.042 574.147,166.749 579.147,166.415 C584.147,166.082 589.111,176.164 595.778,176.831 C602.444,177.497 620.169,141.660 640.502,146.326 C657.169,146.993 677.241,218.174 683.574,209.841 C699.241,191.508 719.342,234.611 719.342,234.611 C719.342,234.611 721.515,254.056 714.872,254.956 zM443.745,215.721 C433.337,203.570 429.372,205.857 419.818,209.750 C410.264,213.643 411.665,202.171 404.334,201.945 C397.003,201.719 399.695,216.457 388.078,219.240 C376.462,222.022 359.141,205.786 350.505,213.895 C341.869,222.003 339.517,230.305 330.092,230.015 C320.666,229.724 314.866,213.843 305.376,215.644 C295.886,217.445 298.416,237.413 291.150,235.095 C283.883,232.777 285.478,215.031 274.973,215.754 C264.468,216.477 259.892,228.898 251.579,226.548 C243.265,224.198 246.793,211.745 236.288,212.468 C225.783,213.191 207.658,223.101 212.394,205.451 C217.130,187.801 230.385,200.636 230.385,200.636 C230.385,200.636 237.688,208.002 249.772,201.259 C262.010,194.429 278.126,175.436 293.424,166.898 C295.401,165.795 301.365,174.699 303.305,173.616 C308.122,170.928 309.494,161.884 315.160,161.884 C320.827,161.884 322.710,172.805 331.377,172.138 C340.043,171.471 344.912,130.225 371.868,146.879 C373.191,147.697 380.588,150.789 389.594,154.509 C396.138,157.213 403.532,170.247 410.062,172.981 C419.196,176.804 414.707,159.288 422.707,160.954 C430.707,162.621 460.372,212.271 460.372,212.271 C460.372,212.271 454.152,227.873 443.745,215.721 zM178.616,267.058 C169.880,271.106 172.741,283.068 164.005,287.117 C155.269,291.166 154.592,278.191 144.813,281.128 C135.035,284.065 144.415,294.070 133.495,299.130 C122.575,304.191 118.572,294.352 107.784,295.099 C96.997,295.846 87.597,321.464 77.885,322.244 C68.173,323.024 71.698,313.417 62.052,312.041 C52.406,310.664 51.643,335.468 46.166,338.537 C40.690,341.607 29.092,333.693 29.092,333.693 C29.092,333.693 15.570,343.543 11.903,336.543 C15.904,335.543 18.558,325.451 22.558,322.784 C26.558,320.118 28.779,323.268 32.446,318.601 C39.779,309.268 41.247,302.097 51.066,296.108 C54.868,293.788 58.686,303.249 62.371,300.497 C71.116,293.967 79.117,268.236 84.407,259.377 C97.832,236.895 99.384,243.549 99.384,243.549 C99.384,243.549 105.146,234.129 128.554,240.108 C126.708,246.752 138.896,234.646 138.896,234.646 L148.969,248.031 C148.969,248.031 187.684,252.225 189.636,258.762 C191.587,265.298 187.352,263.009 178.616,267.058 z" fill="#0098E8" />
<path id="Shape-146" d="M652.753,170.856 C649.706,171.196 652.420,181.701 645.525,180.185 C638.630,178.670 643.258,169.261 638.097,167.799 C632.936,166.338 629.228,174.039 619.759,171.576 C615.742,170.531 612.220,166.563 610.648,162.340 C620.624,151.244 634.835,133.499 641.835,134.499 C648.835,135.499 660.812,167.188 663.022,175.515 C657.781,176.656 655.801,170.516 652.753,170.856 zM386.839,155.713 C382.898,156.895 385.406,160.011 383.185,161.679 C380.965,163.348 380.705,157.695 375.437,159.704 C370.169,161.713 375.943,171.442 369.862,171.689 C363.780,171.936 364.507,162.406 358.019,161.772 C351.531,161.138 346.569,181.392 340.175,177.721 C333.780,174.051 347.071,149.392 347.071,149.392 C347.071,149.392 356.051,131.995 363.385,131.995 C370.718,131.995 376.555,135.640 392.936,157.799 C390.544,156.646 388.265,155.286 386.839,155.713 zM132.354,241.779 C131.171,245.503 133.663,254.286 129.457,258.063 C125.870,261.860 121.869,250.882 117.481,252.484 C113.094,254.085 118.681,269.888 111.746,269.674 C104.811,269.460 106.999,254.765 101.824,253.738 C96.650,252.710 94.989,264.382 90.262,262.933 C85.534,261.485 90.715,248.185 90.715,248.185 C90.715,248.185 101.611,221.323 108.944,221.656 C116.277,221.990 115.472,231.134 127.286,236.827 C133.105,241.117 134.522,227.037 138.044,232.304 C139.783,234.905 141.059,235.591 141.693,238.327 C142.407,241.406 133.372,238.570 132.354,241.779 z" fill="#74CFFF" />
<path id="Shape-143-copy" d="M1941.397,390.901 C1953.049,379.251 1943.460,324.807 1935.973,325.038 C1928.485,325.268 1938.890,303.555 1931.403,303.786 C1923.915,304.016 1894.870,280.407 1888.215,280.407 C1881.560,280.407 1876.646,293.332 1870.016,294.369 C1863.386,295.406 1840.986,251.240 1833.524,252.302 C1826.063,253.365 1818.205,246.610 1813.188,245.932 C1808.170,245.254 1803.025,221.012 1797.202,220.179 C1791.379,219.346 1781.845,232.799 1774.345,232.614 C1766.845,232.428 1754.568,221.371 1743.715,220.456 C1732.861,219.542 1716.180,193.307 1707.420,192.745 C1698.659,192.182 1700.860,197.479 1687.095,196.654 C1673.330,195.829 1670.403,185.004 1662.071,184.844 C1658.348,184.773 1639.868,201.019 1636.401,199.580 C1632.106,197.798 1628.010,194.638 1625.262,195.183 C1620.296,196.169 1619.721,179.529 1613.923,180.540 C1608.125,181.551 1610.170,157.155 1600.187,157.463 C1590.204,157.770 1592.840,165.138 1586.236,167.006 C1584.243,167.570 1577.741,183.349 1574.858,182.835 C1572.959,182.497 1569.712,177.062 1566.788,176.736 C1563.863,176.410 1561.453,173.799 1559.407,173.366 C1555.861,172.616 1537.174,135.042 1533.750,135.147 C1522.935,135.480 1494.306,179.051 1486.012,180.139 C1477.719,181.228 1474.006,169.109 1467.402,170.978 C1460.798,172.846 1433.833,192.727 1426.346,192.958 C1418.859,193.188 1409.622,167.219 1399.626,167.111 C1389.630,167.002 1383.066,175.065 1377.659,175.231 C1372.251,175.398 1368.904,170.347 1364.744,170.475 C1360.585,170.603 1354.262,174.621 1349.245,173.943 C1344.228,173.265 1338.812,141.732 1329.635,141.182 C1320.458,140.632 1267.438,228.370 1260.833,230.239 C1254.229,232.108 1252.418,227.049 1243.292,228.163 C1234.167,229.276 1199.206,283.921 1208.155,296.930 C1345.274,394.483 1929.744,402.552 1941.397,390.901 z" fill="#0089D1" />
<path id="Shape-149-copy" d="M1913.000,314.803 C1906.999,321.196 1898.424,311.112 1898.424,311.112 C1898.424,311.112 1887.294,318.700 1882.038,315.756 C1862.640,308.649 1876.882,294.867 1867.625,296.187 C1858.368,297.508 1870.902,308.377 1851.599,300.134 C1842.278,299.386 1833.257,274.824 1822.905,274.108 C1812.552,273.392 1808.710,282.825 1798.230,277.973 C1787.750,273.121 1796.752,263.529 1787.368,260.713 C1777.984,257.897 1785.653,270.337 1777.269,266.455 C1768.885,262.573 1771.631,259.432 1763.247,255.550 C1754.863,251.668 1742.480,253.863 1744.353,247.596 C1746.226,241.328 1780.798,230.608 1787.548,223.358 C1794.298,216.108 1817.135,235.517 1817.135,235.517 L1840.159,246.331 C1840.159,246.331 1841.465,247.189 1845.196,253.431 C1848.724,259.333 1860.106,286.534 1868.856,291.284 C1877.606,296.034 1879.290,278.376 1890.290,281.126 C1901.290,283.876 1913.332,296.023 1913.332,296.023 C1913.332,296.023 1919.002,308.410 1913.000,314.803 zM1693.758,197.380 C1683.677,196.687 1687.063,208.627 1679.084,210.880 C1671.105,213.133 1666.714,210.385 1656.633,209.691 C1646.552,208.998 1656.400,226.014 1649.427,228.236 C1642.453,230.458 1636.563,211.313 1627.456,209.586 C1618.348,207.859 1621.100,223.086 1612.055,223.364 C1603.009,223.643 1592.433,199.027 1584.146,191.253 C1575.858,183.479 1567.554,215.702 1556.406,213.034 C1545.258,210.366 1532.867,196.235 1525.832,196.452 C1518.796,196.668 1520.141,207.667 1510.972,203.935 C1501.803,200.202 1497.998,198.010 1488.010,209.660 C1478.023,221.311 1472.054,206.351 1472.054,206.351 C1472.054,206.351 1508.425,142.100 1531.729,122.127 C1535.591,118.818 1556.290,169.629 1561.443,168.282 C1564.382,167.424 1563.998,159.480 1566.997,159.480 C1569.997,159.480 1569.470,169.277 1575.328,170.306 C1579.973,171.123 1583.354,154.128 1587.225,155.139 C1596.488,157.559 1592.322,147.016 1597.822,147.016 C1610.822,147.016 1601.816,163.108 1613.265,168.970 C1618.410,171.604 1618.253,181.595 1624.381,184.732 C1627.221,186.185 1634.122,193.671 1637.043,195.166 C1641.557,197.477 1660.119,178.812 1664.579,181.095 C1685.959,192.040 1685.729,197.528 1691.979,196.778 C1698.229,196.028 1701.126,188.854 1705.376,188.854 C1709.626,188.854 1718.227,198.931 1718.689,200.652 C1723.234,217.575 1703.840,198.074 1693.758,197.380 zM1397.888,197.201 C1385.107,194.419 1388.498,206.214 1381.132,207.499 C1373.765,208.784 1379.928,195.167 1369.358,195.493 C1358.788,195.818 1365.781,216.772 1355.146,214.983 C1344.511,213.193 1351.023,188.904 1340.486,190.287 C1329.948,191.670 1327.544,251.019 1316.941,250.287 C1306.338,249.555 1314.241,206.426 1303.671,206.752 C1293.101,207.077 1282.563,233.351 1277.473,239.859 C1272.384,246.366 1265.716,235.987 1258.284,235.157 C1250.852,234.328 1249.162,248.140 1242.787,247.278 C1216.739,243.755 1245.764,227.210 1253.387,214.002 C1256.749,208.176 1260.252,231.378 1263.746,224.118 C1280.416,189.485 1329.884,130.361 1329.884,130.361 C1329.884,130.361 1344.272,158.967 1349.551,165.296 C1357.801,167.361 1361.153,152.452 1368.726,154.348 C1371.457,156.725 1372.496,167.927 1377.996,167.677 C1383.496,167.427 1401.023,155.389 1405.098,163.080 C1413.491,178.920 1426.330,193.149 1426.330,193.149 C1426.330,193.149 1439.568,210.736 1428.071,215.324 C1416.575,219.912 1410.670,199.982 1397.888,197.201 z" fill="#0098E8" />
<path id="Shape-146-copy" d="M1835.279,246.110 C1830.313,247.095 1834.076,254.522 1827.421,254.727 C1820.765,254.932 1824.464,246.443 1820.253,244.907 C1816.042,243.372 1812.203,263.058 1808.760,259.417 C1799.340,250.965 1823.178,227.996 1807.564,234.722 C1802.534,233.628 1808.779,237.351 1803.358,237.102 C1797.938,236.852 1800.716,245.925 1796.959,245.625 C1793.203,245.324 1796.051,233.162 1792.697,232.432 C1789.344,231.703 1788.761,236.302 1784.954,234.338 C1783.990,233.841 1783.707,231.188 1783.821,227.502 C1784.660,224.631 1794.460,216.780 1797.960,216.780 C1801.460,216.780 1808.341,229.757 1812.841,230.257 C1817.341,230.757 1824.440,240.786 1834.940,240.786 C1838.190,240.786 1845.913,254.288 1846.376,254.927 C1841.838,256.315 1840.245,245.124 1835.279,246.110 zM1540.368,158.313 C1535.304,160.234 1540.855,169.539 1535.009,169.775 C1529.163,170.011 1529.862,160.898 1523.625,160.291 C1517.388,159.685 1512.618,179.053 1506.471,175.543 C1500.323,172.033 1515.023,141.758 1515.023,141.758 C1515.023,141.758 1528.568,120.246 1532.318,120.996 C1536.068,121.746 1548.206,148.463 1551.330,154.497 C1547.541,155.627 1549.952,158.607 1547.817,160.203 C1545.682,161.798 1545.432,156.393 1540.368,158.313 zM1331.532,160.432 C1325.306,161.041 1326.004,170.178 1320.167,169.941 C1314.331,169.704 1319.873,160.375 1314.817,158.450 C1309.762,156.524 1309.512,161.943 1307.381,160.344 C1305.427,158.615 1327.149,127.969 1331.399,129.469 C1335.649,130.969 1350.956,170.881 1348.657,175.724 C1342.521,179.244 1337.759,159.824 1331.532,160.432 z" fill="#74CFFF" />
<path id="Shape-324" d="M1382.000,307.543 L1397.923,296.848 L1389.077,296.848 L1405.000,282.587 L1397.923,283.478 L1411.192,271.000 L1416.500,285.261 L1410.308,282.587 L1421.808,301.304 L1413.846,300.413 L1428.000,312.000 L1382.000,307.543 z" fill="#137FB7" />
<path id="Shape-324-copy-6" d="M1680.000,332.848 L1691.423,325.283 L1685.077,325.283 L1696.500,315.196 L1691.423,315.826 L1700.942,307.000 L1704.750,317.087 L1700.308,315.196 L1708.558,328.435 L1702.846,327.804 L1713.000,336.000 L1680.000,332.848 z" fill="#137FB7" />
<path id="Shape-324-copy" d="M1479.086,311.149 L1465.894,293.959 L1474.611,295.464 L1462.026,274.760 L1468.848,276.842 L1460.395,260.691 L1450.239,275.440 L1456.796,273.858 L1441.600,294.288 L1449.597,294.764 L1432.998,307.716 L1479.086,311.149 z" fill="#137FB7" />
<path id="Shape-324-copy-2" d="M736.086,299.149 L722.894,281.959 L731.611,283.464 L719.026,262.760 L725.848,264.842 L717.395,248.691 L707.239,263.439 L713.796,261.858 L698.600,282.288 L706.597,282.764 L689.998,295.716 L736.086,299.149 z" fill="#137FB7" />
<path id="Shape-324-copy-3" d="M517.872,307.849 L502.083,293.009 L510.928,293.090 L495.172,274.685 L502.240,275.640 L491.295,261.062 L483.648,277.255 L489.864,274.637 L478.159,297.249 L486.128,296.430 L471.833,311.888 L517.872,307.849 z" fill="#137FB7" />
<path id="Shape-324-copy-4" d="M534.998,310.544 L525.394,301.490 L530.774,301.539 L521.190,290.311 L525.489,290.894 L518.832,282.000 L514.180,291.879 L517.961,290.282 L510.841,304.077 L515.689,303.577 L506.994,313.008 L534.998,310.544 z" fill="#137FB7" />
<path id="Shape-324-copy-5" d="M115.998,350.544 L106.394,341.490 L111.774,341.539 L102.190,330.311 L106.490,330.894 L99.832,322.000 L95.180,331.879 L98.961,330.282 L91.841,344.077 L96.689,343.577 L87.994,353.008 L115.998,350.544 z" fill="#137FB7" />
<path id="bg-copy-2" d="M0.000,490.000 L0.000,357.000 L2.000,360.000 L5.000,356.000 L5.000,360.000 L11.000,355.000 L10.000,361.000 L16.000,354.000 L15.000,361.000 L19.000,354.000 L18.000,362.000 L23.000,352.000 L23.000,358.000 L25.000,352.000 L26.000,358.000 L31.000,353.000 L31.000,358.000 L35.000,352.000 L36.000,358.000 L39.000,352.000 L40.000,357.000 L46.000,351.000 L44.000,357.000 L50.000,351.000 L49.000,356.000 L55.000,351.000 L53.000,355.000 L58.000,351.000 L57.000,355.000 L60.000,350.000 L60.000,354.000 L63.000,350.000 L63.000,354.000 L66.000,350.000 L67.000,354.000 L70.000,350.000 L70.000,353.000 L74.000,350.000 L75.000,352.000 L78.000,349.000 L79.000,351.000 L81.000,347.000 L82.000,350.000 L85.000,347.000 L86.000,351.000 L90.000,347.000 L89.000,351.000 L93.000,347.000 L94.000,350.000 L96.000,345.000 L96.000,349.000 L101.000,345.000 L100.000,349.000 L103.000,346.000 L103.000,349.000 L109.000,345.000 L109.000,350.000 L114.000,344.000 L114.000,348.000 L119.000,343.000 L119.000,347.000 L123.000,342.000 L123.000,347.000 L125.000,346.000 L127.000,344.000 L127.000,346.000 L129.000,344.000 L130.000,346.000 L132.000,342.000 L134.000,345.000 L138.000,343.000 L139.000,345.000 L143.000,343.000 L144.000,345.000 L148.000,343.000 L149.000,344.000 L155.000,341.000 L156.000,343.000 L158.000,340.000 L159.000,343.000 L164.000,340.000 L165.000,342.000 L168.000,339.000 L169.000,341.000 L173.000,337.000 L174.000,340.000 L177.000,336.000 L177.000,340.000 L184.000,336.000 L183.000,341.000 L186.000,334.000 L186.000,340.000 L191.000,336.000 L191.000,339.000 L194.000,334.000 L195.000,338.000 L197.000,333.000 L199.000,336.000 L203.000,333.000 L204.000,337.000 L207.000,333.000 L209.000,336.000 L211.000,333.000 L213.000,336.000 L216.000,332.000 L218.000,335.000 L221.000,331.000 L222.000,334.000 L226.000,331.000 L227.000,334.000 L229.000,330.000 L230.000,333.000 L234.000,330.000 L235.000,332.000 L238.000,331.000 L239.000,333.000 L241.000,330.000 L244.000,332.000 L247.000,330.000 L248.000,331.000 L250.000,329.000 L251.000,331.000 L253.000,328.000 L255.000,331.000 L259.000,327.000 L260.000,330.000 L261.000,327.000 L263.000,329.000 L265.000,328.000 L267.000,329.000 L268.000,328.000 L271.000,329.000 L273.000,327.000 L275.000,329.000 L281.000,326.000 L282.000,328.000 L286.000,326.000 L287.000,328.000 L291.000,324.000 L292.000,327.000 L295.000,323.000 L295.000,326.000 L299.000,325.000 L301.000,326.000 L305.000,323.000 L307.000,325.000 L311.000,323.000 L311.000,326.000 L314.000,323.000 L317.000,325.000 L367.000,320.000 L369.000,315.000 L371.000,320.000 L373.000,317.000 L374.000,318.000 L377.000,317.000 L378.000,319.000 L381.000,316.000 L381.000,319.000 L388.000,316.000 L389.000,318.000 L391.000,314.000 L393.000,317.000 L395.000,316.000 L465.000,311.000 L468.000,309.000 L469.000,311.000 L471.000,309.000 L472.000,310.000 L474.000,309.000 L476.000,310.000 L484.000,308.000 L485.000,310.000 L487.000,307.000 L489.000,309.000 L538.000,306.000 L542.000,303.000 L542.000,305.000 L544.000,303.000 L545.000,304.000 L549.000,303.000 L551.000,304.000 L553.000,303.000 L555.000,305.000 L558.000,302.000 L559.000,303.000 L561.000,301.000 L563.000,303.000 L568.000,302.000 L570.000,303.000 L573.000,300.000 L574.000,303.000 L579.000,300.000 L580.000,302.000 L583.000,300.000 L584.000,302.000 L586.000,301.000 L588.000,302.000 L590.000,300.000 L591.000,301.000 L592.000,299.000 L593.000,301.000 L598.000,300.000 L599.000,302.000 L602.000,300.000 L605.000,301.000 L608.000,299.000 L609.000,301.000 L613.000,299.000 L616.000,302.000 L618.000,298.000 L619.000,300.000 L643.000,299.000 L649.000,296.000 L650.000,298.000 L653.000,296.000 L654.000,298.000 L657.000,292.000 L658.000,298.000 L662.000,294.000 L663.000,296.000 L665.000,294.000 L665.000,297.000 L669.000,293.000 L669.000,296.000 L672.000,292.000 L672.000,296.000 L676.000,293.000 L676.000,296.000 C676.000,296.000 677.418,294.865 678.744,293.805 C679.908,292.874 681.000,292.000 681.000,292.000 L683.000,293.000 L682.000,296.000 L686.000,294.000 L688.000,296.000 L691.000,294.000 L692.000,296.000 L695.000,294.000 L696.000,296.000 L698.000,294.000 L700.000,295.000 L704.000,292.000 L704.000,295.000 L707.000,291.000 L707.000,294.000 L711.000,291.000 L712.000,294.000 L715.000,292.000 L716.000,295.000 L718.000,292.000 L719.000,294.000 L720.000,292.000 L721.000,293.000 L723.000,291.000 L726.000,293.000 L727.000,290.000 C727.000,290.000 728.750,292.500 730.000,292.000 C731.250,291.500 736.000,289.000 736.000,289.000 L736.000,293.000 L790.000,289.000 L795.000,289.000 L800.000,289.000 L805.000,289.000 L810.000,289.000 L814.000,288.000 L822.000,288.000 L827.000,287.000 L832.000,288.000 L836.000,287.000 L840.000,287.000 L853.000,287.000 L857.000,287.000 L862.000,287.000 L875.000,289.000 L880.000,289.000 L884.000,288.000 L894.000,287.000 L899.000,287.000 L904.000,287.000 L908.000,288.000 L912.000,288.000 L917.000,288.000 L921.000,288.000 L925.000,289.000 L927.000,288.000 L931.000,287.000 L934.000,287.000 L938.000,287.000 L943.000,287.000 L948.000,287.000 L966.000,287.000 L971.000,290.000 L978.000,288.000 L983.000,287.000 L989.000,288.000 L991.000,288.000 L997.000,289.000 L1002.000,289.000 L1010.000,289.000 L1014.000,287.000 L1016.000,287.000 L1020.000,288.000 L1060.000,287.000 L1062.000,287.000 L1063.000,288.000 L1067.000,288.000 L1071.000,289.000 L1078.000,289.000 L1083.000,289.000 L1086.000,290.000 L1092.000,289.000 L1095.000,290.000 L1100.000,289.000 L1103.000,289.000 L1109.000,290.000 L1114.000,288.000 L1117.000,289.000 L1121.000,289.000 L1126.000,290.000 L1130.000,290.000 L1134.000,289.000 L1138.000,290.000 L1142.000,291.000 L1147.000,290.000 L1152.000,291.000 L1155.000,292.000 L1159.000,291.000 L1163.000,292.000 L1165.000,292.000 L1170.000,294.000 L1175.000,293.000 L1178.000,293.000 L1182.000,290.000 L1185.000,294.000 L1190.000,291.000 L1191.000,294.000 L1196.000,291.000 L1197.000,294.000 L1202.000,292.000 L1201.000,296.000 L1209.000,293.000 L1208.000,296.000 L1213.000,293.000 L1212.000,296.000 L1216.000,293.000 L1217.000,295.000 L1224.000,294.000 L1223.000,297.000 L1239.000,296.000 L1245.000,295.000 L1246.000,297.000 L1250.000,295.000 L1250.000,298.000 L1253.000,295.000 L1255.000,297.000 L1257.000,294.000 L1257.000,297.000 L1263.000,295.000 L1261.000,298.000 L1268.000,294.000 L1269.000,299.000 L1274.000,295.000 L1274.000,299.000 L1278.000,295.000 L1280.000,299.000 L1285.000,296.000 L1285.000,298.000 L1288.000,295.000 L1288.000,299.000 L1292.000,297.000 L1292.000,299.000 L1298.000,296.000 L1296.000,299.000 L1302.000,297.000 L1302.000,300.000 L1306.000,298.000 L1306.000,301.000 L1311.000,298.000 L1312.000,300.000 L1316.000,298.000 L1317.000,301.000 L1321.000,298.000 L1322.000,301.000 L1324.000,300.000 L1325.000,302.000 L1327.000,300.000 L1329.000,302.000 L1330.000,300.000 L1331.000,302.000 L1333.000,300.000 L1335.000,302.000 L1338.000,300.000 L1339.000,302.000 L1342.000,300.000 L1346.000,301.000 L1350.000,301.000 L1351.000,302.000 L1354.000,300.000 L1355.000,302.000 L1357.000,300.000 L1358.000,303.000 L1361.000,301.000 L1362.000,302.000 L1364.000,302.000 L1364.000,303.000 L1368.000,302.000 L1369.000,304.000 L1372.000,303.000 L1373.000,305.000 L1378.000,301.000 L1376.000,305.000 L1383.000,302.000 L1382.000,306.000 L1386.000,302.000 L1387.000,304.000 L1392.000,301.000 L1392.000,304.000 L1395.000,303.000 L1395.000,306.000 L1397.000,302.000 L1397.000,306.000 L1401.000,304.000 L1401.000,307.000 L1405.000,304.000 L1405.000,307.000 L1411.000,304.000 L1411.000,307.000 L1416.000,305.000 L1416.000,307.000 L1418.000,305.000 L1419.000,307.000 L1421.000,305.000 L1422.000,307.000 L1425.000,305.000 L1425.000,308.000 L1428.000,305.000 L1428.000,308.000 L1431.000,306.000 L1432.000,308.000 L1436.000,306.000 L1437.000,308.000 L1440.000,306.000 L1440.000,308.000 L1443.000,306.000 L1443.000,308.000 L1447.000,306.000 L1448.000,307.000 L1451.000,305.000 L1451.000,308.000 L1454.000,307.000 L1455.000,309.000 L1457.000,307.000 L1458.000,309.000 L1461.000,308.000 L1461.000,309.000 L1464.000,308.000 L1464.000,310.000 L1467.000,308.000 L1469.000,310.000 L1472.000,307.000 L1472.000,310.000 L1475.000,308.000 L1476.000,310.000 L1481.000,308.000 L1480.000,311.000 L1483.000,309.000 L1483.000,312.000 L1487.000,311.000 L1491.000,312.000 L1540.000,319.000 L1555.000,320.000 L1559.000,319.000 L1559.000,320.000 L1562.000,319.000 L1564.000,321.000 L1566.000,320.000 L1567.000,321.000 L1570.000,318.000 L1570.000,322.000 L1572.000,319.000 L1573.000,322.000 L1580.000,321.000 L1584.000,319.000 L1584.000,323.000 L1588.000,321.000 L1589.000,323.000 L1593.000,322.000 L1594.000,324.000 L1599.000,323.000 L1599.000,324.000 L1603.000,321.000 L1603.000,325.000 L1606.000,322.000 L1606.000,324.000 L1608.000,321.000 L1608.000,325.000 L1610.000,321.000 L1610.000,324.000 L1612.000,323.000 L1612.000,326.000 C1612.000,326.000 1613.902,324.732 1614.677,324.215 C1614.875,324.083 1615.000,324.000 1615.000,324.000 L1618.000,324.000 L1618.000,325.000 L1622.000,323.000 L1622.000,326.000 L1626.000,325.000 L1627.000,326.000 L1631.000,324.000 L1633.000,326.000 L1638.000,326.000 L1639.000,328.000 L1643.000,325.000 L1645.000,329.000 L1647.000,326.000 L1647.000,329.000 L1649.000,326.000 L1650.000,328.000 C1650.000,328.000 1650.213,327.787 1650.500,327.500 C1651.092,326.908 1652.000,326.000 1652.000,326.000 L1654.000,324.000 L1654.000,329.000 L1656.000,326.000 L1658.000,329.000 L1660.000,326.000 L1661.000,329.000 L1668.000,328.000 L1669.000,330.000 L1671.000,327.000 L1672.000,330.000 L1675.000,327.000 L1674.000,331.000 L1678.000,328.000 L1677.000,331.000 L1683.000,330.000 L1690.000,330.000 L1694.000,330.000 L1701.000,330.000 L1701.000,331.000 L1703.000,329.000 L1704.000,332.000 L1705.000,330.000 L1706.000,332.000 L1709.000,331.000 L1712.000,334.000 L1715.000,331.000 L1716.000,335.000 L1720.000,332.000 L1719.000,335.000 L1724.000,332.000 L1724.000,335.000 L1728.000,332.000 L1729.000,335.000 L1731.000,334.000 L1730.000,336.000 L1733.000,335.000 L1732.000,337.000 L1738.000,335.000 L1738.000,337.000 L1742.000,335.000 L1742.000,337.000 L1745.000,335.000 L1745.000,337.000 L1750.000,336.000 L1749.000,338.000 L1752.000,337.000 L1755.000,336.000 L1755.000,339.000 L1759.000,336.000 L1758.000,339.000 L1761.000,336.000 L1761.000,340.000 L1765.000,338.000 L1767.000,338.000 L1765.000,340.000 L1770.000,338.000 L1769.000,342.000 L1772.000,339.000 L1773.000,341.000 L1774.000,339.000 C1774.000,339.000 1774.322,339.643 1774.600,340.200 C1774.813,340.625 1775.000,341.000 1775.000,341.000 L1777.000,341.000 L1778.000,340.000 L1778.000,342.000 L1780.000,340.000 L1780.000,342.000 L1782.000,340.000 L1783.000,341.000 L1785.000,341.000 L1787.000,341.000 L1790.000,342.000 L1804.000,342.000 L1810.000,341.000 L1810.000,344.000 L1812.000,342.000 L1816.000,343.000 L1819.000,342.000 L1818.000,344.000 L1824.000,339.000 L1821.000,346.000 L1826.000,342.000 L1824.000,345.000 L1829.000,341.000 L1828.000,344.000 L1831.000,340.000 L1830.000,344.000 L1834.000,340.000 L1833.000,344.000 L1836.000,342.000 L1837.000,344.000 L1840.000,342.000 L1840.000,345.000 L1845.000,344.000 L1847.000,345.000 L1851.000,344.000 L1850.000,346.000 L1855.000,344.000 L1852.000,347.000 L1856.000,345.000 L1857.000,347.000 L1860.000,345.000 L1860.000,347.000 L1863.000,344.000 L1863.000,347.000 C1863.000,347.000 1864.579,345.947 1865.446,345.369 C1865.774,345.151 1866.000,345.000 1866.000,345.000 L1868.000,344.000 L1868.000,348.000 L1871.000,345.000 L1871.000,347.000 L1875.000,345.000 L1875.000,348.000 L1877.000,346.000 L1878.000,348.000 L1880.000,345.000 L1880.000,346.000 L1883.000,346.000 L1883.000,347.000 L1886.000,346.000 L1885.000,349.000 L1888.000,346.000 L1889.000,349.000 L1892.000,347.000 L1893.000,348.000 L1895.000,347.000 L1894.000,349.000 L1898.000,348.000 L1897.000,350.000 C1897.000,350.000 1897.895,349.403 1898.708,348.862 C1899.382,348.412 1900.000,348.000 1900.000,348.000 L1902.000,347.000 L1902.000,350.000 L1905.000,347.000 L1905.000,349.000 L1909.000,347.000 L1907.000,350.000 L1910.000,349.000 L1908.000,353.000 L1914.000,350.000 L1913.000,353.000 L1918.000,349.000 L1918.000,352.000 L1920.000,350.000 L1920.000,490.000 L0.000,490.000 z" fill="#40A35F" />
<path id="Rectangle-15" d="M1815.283,412.561 L1815.060,409.527 L1816.412,410.224 L1817.085,410.458 L1815.283,412.561 zM1812.123,408.012 L1814.927,409.458 C1814.927,409.458 1813.081,411.114 1813.081,411.114 C1812.803,410.095 1812.123,408.012 1812.123,408.012 zM1812.949,411.232 C1812.949,411.232 1809.593,414.243 1809.593,414.243 C1809.593,414.243 1810.191,410.668 1810.191,410.668 C1810.939,411.895 1809.985,406.547 1809.985,406.547 C1809.985,406.547 1812.212,409.864 1812.949,411.232 zM1807.981,408.996 C1807.981,408.996 1805.920,410.262 1805.920,410.262 C1805.708,409.525 1805.437,408.648 1805.159,407.783 C1805.159,407.783 1805.609,406.667 1805.609,406.667 C1806.155,407.627 1806.636,408.519 1806.636,408.519 L1807.392,406.370 C1807.392,406.370 1808.899,408.180 1809.889,410.085 C1809.889,410.085 1805.335,416.085 1805.335,416.085 L1807.981,408.996 zM1804.242,405.036 C1803.708,403.515 1804.501,404.748 1805.313,406.151 C1805.313,406.151 1804.795,406.663 1804.795,406.663 C1804.594,406.057 1804.403,405.494 1804.242,405.036 zM1805.112,409.920 C1805.268,410.141 1805.403,410.334 1805.523,410.506 C1805.523,410.506 1803.581,411.699 1803.581,411.699 C1803.581,411.699 1804.598,409.175 1804.598,409.175 C1804.764,409.419 1804.933,409.667 1805.112,409.920 zM1802.115,405.043 C1802.453,405.687 1802.977,406.635 1803.681,407.763 C1803.681,407.763 1799.825,411.569 1799.825,411.569 C1799.825,411.569 1802.115,405.043 1802.115,405.043 zM1796.466,409.286 L1796.811,409.692 L1796.592,408.752 L1797.225,406.068 L1796.210,407.114 L1795.465,403.919 L1799.730,407.570 L1801.662,404.140 C1801.662,404.140 1801.815,404.471 1802.111,405.034 C1802.111,405.034 1795.895,411.710 1795.895,411.710 L1796.466,409.286 zM1792.516,408.545 L1792.929,409.068 L1792.695,407.933 L1793.121,406.479 L1792.535,407.154 L1791.861,403.874 L1795.362,407.988 L1791.520,411.946 L1792.516,408.545 zM1788.654,411.627 C1788.654,411.627 1789.527,407.397 1789.527,407.397 C1789.621,407.524 1789.707,407.638 1789.779,407.733 C1790.766,409.041 1789.257,404.417 1789.257,404.417 L1791.950,407.828 L1788.654,411.627 zM1785.420,410.687 L1786.848,405.489 L1782.903,409.827 L1783.829,406.601 C1783.829,406.601 1782.501,407.298 1782.501,407.298 C1782.677,406.996 1781.922,403.318 1781.922,403.318 L1785.617,406.530 C1785.617,406.530 1786.943,404.820 1786.246,403.372 C1785.611,402.053 1788.248,405.675 1789.467,407.317 C1789.467,407.317 1785.420,410.687 1785.420,410.687 zM1782.292,407.064 C1782.374,407.234 1782.431,407.310 1782.468,407.316 C1782.468,407.316 1778.604,409.348 1778.604,409.348 L1780.344,406.646 L1774.654,408.328 L1774.592,404.847 L1773.372,406.548 L1772.587,401.044 L1777.689,406.431 L1776.761,401.527 C1776.761,401.527 1781.595,405.617 1782.292,407.064 zM1770.841,410.075 L1770.662,404.988 L1766.717,409.325 C1766.717,409.325 1767.455,406.194 1767.455,406.194 C1767.569,406.361 1767.665,406.500 1767.737,406.595 C1768.060,407.022 1767.936,406.443 1767.625,405.473 C1767.625,405.473 1768.047,403.683 1768.047,403.683 C1768.047,403.683 1767.296,404.494 1767.296,404.494 C1766.589,402.468 1765.543,399.804 1765.543,399.804 L1773.063,406.978 L1770.841,410.075 zM1766.736,405.097 C1766.736,405.097 1764.276,407.750 1764.276,407.750 C1764.276,407.750 1765.611,403.322 1765.611,403.322 C1766.013,403.961 1766.399,404.571 1766.736,405.097 zM1764.247,405.019 C1763.878,402.874 1762.973,399.676 1762.393,398.470 C1761.754,397.143 1763.819,400.477 1765.599,403.303 C1765.599,403.303 1764.247,405.019 1764.247,405.019 zM1758.335,399.714 C1758.335,399.714 1760.325,402.492 1762.011,404.656 C1762.011,404.656 1760.875,405.640 1760.875,405.640 C1759.828,403.033 1758.335,399.714 1758.335,399.714 zM1752.312,408.443 L1754.978,402.515 L1753.578,403.751 L1752.453,397.914 C1752.453,397.914 1755.822,403.424 1756.670,404.442 C1757.519,405.460 1755.161,399.819 1754.603,398.661 C1754.232,397.889 1756.420,401.112 1758.547,404.208 C1758.547,404.208 1752.312,408.443 1752.312,408.443 zM1746.970,409.584 L1750.874,402.926 L1743.618,407.039 L1744.872,402.112 L1740.773,407.880 L1739.961,402.045 L1741.383,404.683 L1742.920,398.946 L1746.858,404.895 L1747.244,399.000 L1753.394,403.914 L1746.970,409.584 zM1735.656,401.518 L1733.761,402.682 L1731.968,398.522 L1738.663,403.498 L1738.025,398.454 L1739.943,402.011 L1735.313,407.416 L1735.656,401.518 zM1730.206,404.864 L1730.301,404.524 L1729.598,405.238 L1728.671,405.807 L1729.437,403.447 L1729.862,403.820 L1729.596,402.957 L1730.423,400.409 L1732.900,403.210 L1730.206,404.864 zM1727.946,397.608 C1727.946,397.608 1730.270,400.237 1730.270,400.237 C1730.009,400.563 1729.621,401.046 1729.176,401.595 C1729.176,401.595 1727.946,397.608 1727.946,397.608 zM1725.631,405.757 C1724.911,406.432 1726.410,403.661 1727.509,401.756 C1727.509,401.756 1728.404,402.541 1728.404,402.541 C1727.301,403.888 1726.103,405.316 1725.631,405.757 zM1724.298,401.297 C1724.464,401.022 1724.562,400.860 1724.562,400.860 C1724.562,400.860 1724.450,400.982 1724.259,401.188 C1724.259,401.188 1723.040,397.835 1723.040,397.835 C1723.040,397.835 1727.190,401.476 1727.190,401.476 C1726.632,402.096 1725.932,402.884 1725.183,403.730 C1725.183,403.730 1724.298,401.297 1724.298,401.297 zM1718.063,407.375 C1717.702,407.631 1717.619,407.337 1717.714,406.731 C1717.714,406.731 1718.258,405.536 1718.258,405.536 C1718.258,405.536 1717.955,405.693 1717.955,405.693 C1718.335,404.354 1719.044,402.505 1719.705,401.042 C1719.705,401.042 1720.794,402.843 1720.794,402.843 C1720.794,402.843 1720.241,399.921 1720.241,399.921 C1720.404,399.604 1720.556,399.331 1720.688,399.126 C1720.732,399.057 1720.764,399.005 1720.789,398.962 C1720.789,398.962 1723.514,401.984 1723.514,401.984 C1721.947,403.651 1719.071,406.661 1718.063,407.375 zM1719.866,397.939 C1719.866,397.939 1720.745,398.914 1720.745,398.914 C1720.635,399.022 1720.436,399.249 1720.173,399.558 C1720.173,399.558 1719.866,397.939 1719.866,397.939 zM1714.336,406.575 C1714.336,406.575 1716.688,401.745 1716.688,401.745 C1716.688,401.745 1716.340,402.044 1716.340,402.044 C1716.691,401.376 1717.003,400.794 1717.195,400.437 C1717.195,400.437 1718.074,401.658 1718.074,401.658 L1717.286,397.044 C1717.286,397.044 1719.381,400.507 1719.381,400.507 C1717.699,402.546 1715.077,405.816 1714.384,406.530 C1714.366,406.549 1714.352,406.560 1714.336,406.575 zM1714.833,397.157 L1717.089,400.290 L1715.316,401.606 L1714.833,397.157 zM1712.692,401.160 L1711.399,402.366 L1712.077,398.130 L1714.800,401.989 L1711.172,404.680 L1712.692,401.160 zM1709.159,404.458 L1710.098,401.000 L1711.030,402.711 L1709.159,404.458 zM1696.130,401.791 C1696.153,401.670 1696.182,401.549 1696.227,401.431 C1696.227,401.431 1696.359,401.572 1696.359,401.572 C1696.359,401.572 1696.130,401.791 1696.130,401.791 zM1707.734,401.860 L1704.713,404.565 L1706.053,400.389 C1706.053,400.389 1704.894,401.146 1703.571,402.090 C1703.571,402.090 1703.611,401.982 1703.611,401.982 C1703.611,401.982 1703.333,402.261 1703.333,402.261 C1701.888,403.302 1700.321,404.521 1699.882,405.202 C1699.012,406.553 1700.711,401.531 1700.711,401.531 L1696.648,404.263 C1696.648,404.263 1696.495,404.002 1696.349,403.609 C1696.349,403.609 1697.422,400.556 1697.422,400.556 L1696.634,401.309 L1695.953,396.634 L1699.334,401.424 L1698.812,398.108 L1703.659,401.478 L1702.265,398.583 L1707.705,400.953 L1708.194,397.506 L1709.930,400.691 L1707.466,402.721 L1707.734,401.860 zM1693.487,403.774 C1693.487,403.774 1694.333,401.452 1694.333,401.452 L1693.355,401.882 L1693.046,398.036 C1693.046,398.036 1696.007,401.197 1696.007,401.197 C1695.389,401.780 1694.347,402.870 1693.487,403.774 zM1689.922,403.391 L1690.323,402.203 L1690.521,402.465 L1690.428,401.893 L1690.472,401.764 L1690.854,401.254 L1690.628,401.304 L1690.779,400.857 L1690.327,401.272 L1689.605,396.842 L1693.045,401.965 L1692.948,402.061 L1689.922,403.391 zM1686.555,402.203 L1687.197,400.458 L1686.150,401.150 L1685.583,395.929 L1689.784,401.490 L1686.555,402.203 zM1682.182,402.745 L1681.257,400.492 L1681.283,399.747 L1682.326,401.068 L1680.852,394.287 L1684.740,399.661 L1682.182,402.745 zM1677.229,402.821 C1677.635,401.951 1678.037,401.113 1678.349,400.485 C1678.355,400.474 1678.358,400.465 1678.364,400.454 C1678.364,400.454 1678.583,400.734 1678.583,400.734 C1678.583,400.734 1678.457,400.260 1678.457,400.260 C1678.694,399.743 1678.619,399.714 1678.376,399.955 C1678.376,399.955 1678.208,399.322 1678.208,399.322 L1678.795,397.435 L1677.923,398.252 L1676.818,394.092 L1680.923,399.292 C1680.923,399.292 1677.229,402.821 1677.229,402.821 zM1673.815,399.707 L1673.405,397.984 L1673.705,397.234 L1673.299,397.538 L1672.087,392.451 L1675.942,397.366 L1673.815,399.707 zM1672.757,397.945 L1667.278,402.054 L1670.610,396.520 L1662.766,401.080 L1665.840,395.354 L1657.357,401.845 L1661.717,395.476 L1654.191,399.070 L1655.786,394.243 L1651.294,399.710 L1650.889,393.784 L1645.880,398.864 L1646.635,393.005 L1639.367,396.793 C1639.367,396.793 1641.078,392.556 1641.078,392.556 C1641.092,392.574 1641.107,392.593 1641.119,392.610 C1641.533,393.158 1641.508,392.664 1641.340,391.907 C1641.340,391.907 1641.732,390.936 1641.732,390.936 C1641.732,390.936 1641.543,391.143 1641.237,391.474 C1640.983,390.475 1640.598,389.294 1640.598,389.294 L1644.269,393.945 L1643.202,388.751 L1648.152,394.569 L1646.806,388.796 L1651.071,392.447 L1653.002,389.017 C1653.002,389.017 1654.199,391.603 1656.453,394.797 C1658.707,397.991 1656.986,395.804 1657.208,396.265 C1657.718,397.324 1657.765,397.122 1657.574,396.310 C1657.574,396.310 1656.230,392.253 1656.230,392.253 C1656.230,392.253 1656.272,391.957 1656.272,391.957 C1656.023,391.194 1655.780,390.474 1655.583,389.913 C1655.093,388.518 1655.719,389.440 1656.453,390.684 C1656.453,390.684 1656.883,387.656 1656.883,387.656 L1660.822,393.605 L1660.463,389.140 C1660.463,389.140 1663.946,394.401 1663.946,394.401 C1663.697,393.604 1663.464,392.889 1663.464,392.889 L1664.712,393.533 L1665.031,391.931 L1667.806,395.119 L1669.771,395.802 L1669.634,392.564 L1672.757,397.945 zM1636.339,396.531 C1635.310,397.366 1638.709,392.284 1639.479,391.255 C1640.248,390.226 1633.634,396.913 1631.001,399.356 C1628.367,401.799 1635.614,391.571 1635.614,391.571 C1635.614,391.571 1630.155,396.714 1628.676,397.613 C1627.238,398.488 1630.345,391.757 1631.756,389.730 C1632.632,390.598 1633.388,391.433 1633.633,391.941 C1634.330,393.389 1633.262,388.195 1633.262,388.195 L1636.958,391.407 C1636.958,391.407 1638.284,389.697 1637.587,388.249 C1636.970,386.967 1639.443,390.353 1640.702,392.051 C1639.345,393.511 1637.048,395.954 1636.339,396.531 zM1625.647,395.944 C1625.647,395.944 1626.668,393.795 1626.668,393.795 C1626.668,393.795 1626.658,393.269 1626.658,393.269 C1627.332,392.159 1628.012,391.080 1628.333,390.572 C1628.333,390.572 1629.029,391.308 1629.029,391.308 L1628.101,386.404 C1628.101,386.404 1630.054,388.056 1631.657,389.632 C1630.520,390.754 1627.166,394.404 1625.647,395.944 zM1626.627,391.482 L1626.586,389.153 L1624.702,391.352 L1623.928,385.920 L1628.227,390.461 L1626.627,391.482 zM1622.133,394.351 L1621.968,394.456 L1622.818,390.342 L1624.331,391.785 L1622.133,394.351 zM1621.373,390.131 L1617.985,392.545 L1617.974,392.391 L1617.095,393.180 L1615.331,394.437 L1617.184,389.803 C1617.184,389.803 1616.559,390.152 1615.699,390.659 C1615.455,388.599 1614.388,384.707 1613.733,383.347 C1612.758,381.320 1618.090,390.164 1619.078,391.472 C1620.065,392.779 1616.883,384.681 1616.883,384.681 L1622.761,390.288 L1620.330,393.127 L1621.373,390.131 zM1612.925,392.387 C1612.080,389.935 1609.675,384.591 1609.675,384.591 C1609.675,384.591 1613.052,389.304 1614.737,391.236 C1614.143,391.598 1613.515,391.993 1612.925,392.387 zM1607.531,393.007 C1607.531,393.007 1607.455,392.853 1607.367,392.607 C1607.367,392.607 1609.076,388.367 1609.076,388.367 C1609.076,388.367 1608.181,389.250 1608.181,389.250 C1608.024,388.346 1606.395,384.475 1605.944,383.538 C1605.497,382.609 1608.757,387.465 1611.156,390.923 C1611.156,390.923 1607.531,393.007 1607.531,393.007 zM1608.059,389.371 C1608.059,389.371 1607.344,390.076 1607.344,390.076 C1607.395,389.977 1607.452,389.880 1607.521,389.787 C1608.483,388.501 1604.437,392.294 1603.216,393.387 C1603.198,393.404 1603.183,393.415 1603.166,393.429 C1603.166,393.429 1604.146,390.635 1604.146,390.635 C1604.278,390.390 1604.366,390.233 1604.366,390.233 L1604.253,390.330 L1604.780,388.827 L1604.989,388.994 L1604.894,388.503 L1605.049,388.062 L1604.850,388.275 L1603.794,382.791 C1603.794,382.791 1607.163,388.301 1608.011,389.319 C1608.029,389.341 1608.044,389.355 1608.059,389.371 zM1600.221,393.248 L1601.915,389.199 L1599.718,390.947 L1600.152,389.109 L1596.362,393.013 L1597.973,389.431 L1598.199,389.772 L1598.263,388.785 L1598.369,388.549 L1598.275,388.602 L1598.585,383.877 L1604.526,388.624 L1600.221,393.248 zM1595.928,389.929 L1596.048,389.520 L1595.466,390.190 L1593.482,391.311 L1592.804,389.259 L1594.260,383.823 L1597.656,388.952 L1595.928,389.929 zM1589.005,391.332 C1589.005,391.332 1589.774,388.531 1589.774,388.531 C1589.774,388.531 1588.281,390.172 1588.281,390.172 C1588.727,389.368 1589.165,388.599 1589.511,388.009 C1589.511,388.009 1590.003,388.375 1590.003,388.375 L1589.366,383.331 C1589.366,383.331 1591.899,388.030 1591.899,388.030 C1591.409,388.658 1590.411,389.878 1589.005,391.332 zM1586.523,390.913 L1586.478,390.605 L1586.755,389.642 L1586.367,389.846 L1586.194,388.659 C1586.194,388.659 1586.019,388.802 1585.742,389.044 C1585.742,389.044 1583.309,383.399 1583.309,383.399 C1583.309,383.399 1589.226,387.797 1589.226,387.797 C1588.268,388.790 1586.523,390.913 1586.523,390.913 zM1585.376,389.371 C1584.813,389.881 1584.047,390.618 1583.354,391.430 C1583.354,391.430 1582.411,391.926 1582.411,391.926 C1582.509,391.484 1582.713,390.842 1582.927,390.221 C1582.927,390.221 1583.270,389.688 1583.270,389.688 C1583.270,389.688 1583.095,389.739 1583.095,389.739 C1583.370,388.967 1583.616,388.333 1583.616,388.333 C1583.616,388.333 1582.798,389.152 1581.889,390.096 C1581.889,390.096 1580.624,390.470 1580.624,390.470 C1580.958,389.857 1581.236,389.359 1581.236,389.359 L1577.563,390.425 L1577.518,387.888 L1575.373,390.878 L1573.897,391.086 L1574.279,392.403 L1573.768,393.116 L1573.588,388.029 L1569.643,392.366 L1570.974,386.724 L1567.202,390.791 L1568.553,386.309 L1564.357,391.632 L1565.882,386.880 L1559.808,392.138 L1562.247,387.361 L1562.613,388.033 L1563.418,383.007 L1566.799,387.797 L1566.174,382.034 L1569.415,386.535 L1568.627,381.921 L1572.135,387.720 L1571.207,382.816 L1576.587,388.783 L1574.381,382.712 L1581.203,388.697 L1579.287,382.485 C1579.287,382.485 1585.376,389.371 1585.376,389.371 zM1557.904,385.556 L1549.896,392.626 L1553.800,385.967 L1546.544,390.080 L1547.518,386.255 L1548.070,386.844 L1547.294,381.510 L1550.675,386.301 L1550.153,382.985 L1554.999,386.355 L1553.606,383.460 L1559.045,385.830 L1559.535,382.383 L1561.994,386.896 L1555.238,391.484 L1557.904,385.556 zM1542.880,385.039 L1541.710,386.406 L1540.946,381.719 L1544.745,387.378 L1544.387,382.913 L1547.232,385.950 L1543.699,390.921 L1542.880,385.039 zM1538.239,390.457 L1538.582,384.560 L1537.335,385.325 L1536.749,381.917 L1541.362,386.812 L1538.239,390.457 zM1532.018,380.275 L1536.764,385.676 L1531.597,388.848 L1532.561,385.878 L1533.492,387.057 L1532.965,384.633 L1533.547,382.840 C1533.547,382.840 1533.242,383.222 1532.782,383.794 C1532.782,383.794 1532.018,380.275 1532.018,380.275 zM1529.476,386.505 C1529.476,386.505 1529.748,386.722 1529.748,386.722 C1529.748,386.722 1529.621,386.242 1529.621,386.242 C1530.098,385.374 1530.614,384.480 1530.978,383.873 C1530.978,383.873 1531.837,384.962 1531.837,384.962 C1530.618,386.460 1529.103,388.288 1528.558,388.798 C1528.039,389.284 1528.671,387.983 1529.476,386.505 zM1527.984,380.081 C1527.984,380.081 1530.851,383.713 1530.851,383.713 C1530.496,384.093 1529.983,384.664 1529.381,385.339 C1529.381,385.339 1527.984,380.081 1527.984,380.081 zM1526.836,388.208 C1526.836,388.208 1526.288,385.906 1526.288,385.906 C1526.595,385.387 1526.868,384.931 1527.075,384.586 C1527.075,384.586 1528.814,385.976 1528.814,385.976 C1528.194,386.674 1527.514,387.443 1526.836,388.208 zM1525.715,383.498 C1525.715,383.498 1526.947,384.484 1526.947,384.484 C1526.731,384.715 1526.460,385.005 1526.151,385.332 C1526.151,385.332 1525.715,383.498 1525.715,383.498 zM1523.430,391.991 C1521.931,393.591 1523.773,390.226 1525.436,387.359 C1525.436,387.359 1526.288,388.826 1526.288,388.826 C1525.195,390.055 1524.153,391.219 1523.430,391.991 zM1523.262,383.612 C1523.262,383.612 1524.977,386.567 1524.977,386.567 C1524.481,387.083 1523.958,387.621 1523.453,388.130 C1523.453,388.130 1523.262,383.612 1523.262,383.612 zM1520.989,390.416 C1520.171,390.995 1520.773,388.771 1521.661,386.429 C1521.661,386.429 1523.287,388.297 1523.287,388.297 C1522.330,389.255 1521.457,390.084 1520.989,390.416 zM1519.730,384.210 C1519.730,384.210 1520.779,385.415 1520.779,385.415 C1519.337,387.181 1517.814,389.052 1517.310,389.571 C1516.444,390.463 1518.626,386.281 1519.730,384.210 zM1518.658,382.979 L1519.377,383.805 L1518.340,384.574 L1518.658,382.979 zM1513.391,384.635 L1516.780,385.732 L1513.664,388.043 L1513.391,384.635 zM1512.261,386.852 L1513.252,388.349 L1511.502,389.647 L1512.261,386.852 zM1509.810,383.151 L1511.134,385.151 L1509.313,386.651 L1509.810,383.151 zM1725.136,403.783 C1723.489,405.642 1721.619,407.760 1720.504,408.950 C1718.604,410.977 1722.069,405.032 1723.738,402.233 C1723.738,402.233 1725.136,403.783 1725.136,403.783 zM1685.925,401.299 L1685.096,401.848 L1685.179,400.268 L1685.925,401.299 zM1677.182,398.947 L1674.748,401.228 L1676.125,397.600 L1677.182,398.947 zM1673.793,399.731 L1671.851,401.868 L1673.150,398.622 L1673.793,399.731 zM1610.692,394.171 C1609.977,395.127 1610.921,392.677 1611.454,391.352 C1611.808,391.859 1612.136,392.325 1612.424,392.728 C1611.630,393.280 1610.969,393.801 1610.692,394.171 zM1678.000,399.990 C1678.000,399.990 1678.158,400.191 1678.158,400.191 C1678.053,400.311 1677.934,400.455 1677.806,400.614 C1677.806,400.614 1678.000,399.990 1678.000,399.990 zM1760.037,406.365 C1760.037,406.365 1756.882,409.097 1756.882,409.097 C1756.882,409.097 1759.024,404.901 1759.024,404.901 C1759.373,405.408 1759.714,405.901 1760.037,406.365 zM1761.533,408.461 C1761.533,408.461 1761.431,408.591 1761.431,408.591 C1761.431,408.591 1761.490,408.407 1761.490,408.407 C1761.505,408.425 1761.520,408.444 1761.533,408.461 zM1763.288,406.235 C1763.288,406.235 1761.786,408.141 1761.786,408.141 C1761.758,408.040 1761.723,407.927 1761.684,407.804 C1761.684,407.804 1762.496,405.272 1762.496,405.272 C1762.781,405.629 1763.049,405.956 1763.288,406.235 z" fill="#3D9C5B" />
<path id="Rectangle-15-cop" d="M1403.012,442.211 L1405.878,436.378 C1405.878,436.378 1404.592,437.437 1404.592,437.437 C1404.412,436.720 1403.415,434.000 1403.415,434.000 L1407.781,436.056 L1410.392,436.859 L1409.924,437.854 L1403.012,442.211 zM1404.525,437.492 C1404.525,437.492 1397.634,443.169 1397.634,443.169 C1397.634,443.169 1401.652,436.822 1401.652,436.822 C1402.296,437.575 1401.225,432.612 1401.225,432.612 C1401.225,432.612 1403.892,436.292 1404.491,437.429 C1404.504,437.454 1404.514,437.473 1404.525,437.492 zM1401.589,436.739 C1401.589,436.739 1394.371,440.511 1394.371,440.511 L1395.791,435.629 L1391.499,441.254 L1390.881,435.347 L1386.058,440.603 L1386.601,434.721 L1379.474,438.768 C1379.474,438.768 1381.032,434.472 1381.032,434.472 C1381.046,434.489 1381.062,434.508 1381.075,434.525 C1381.508,435.057 1381.465,434.565 1381.270,433.814 C1381.270,433.814 1381.627,432.830 1381.627,432.830 C1381.627,432.830 1381.446,433.043 1381.151,433.385 C1380.862,432.395 1380.434,431.230 1380.434,431.230 L1384.271,435.745 L1383.017,430.593 L1388.174,436.229 L1386.621,430.509 L1391.014,434.004 L1392.821,430.507 C1392.821,430.507 1394.110,433.048 1396.477,436.159 C1398.844,439.269 1397.046,437.146 1397.284,437.598 C1398.781,440.442 1396.494,434.019 1395.432,431.309 C1394.370,428.600 1397.949,434.704 1397.949,434.704 L1398.628,432.529 C1398.628,432.529 1400.397,434.503 1401.445,436.493 C1401.499,436.597 1401.547,436.676 1401.589,436.739 zM1376.438,438.615 C1375.441,439.487 1378.654,434.285 1379.386,433.229 C1380.119,432.173 1373.749,439.094 1371.205,441.630 C1368.661,444.166 1375.536,433.684 1375.536,433.684 C1375.536,433.684 1370.265,439.020 1368.820,439.972 C1367.414,440.898 1370.277,434.059 1371.614,431.983 C1372.521,432.820 1373.306,433.626 1373.569,434.125 C1374.318,435.547 1373.064,430.395 1373.064,430.395 L1376.873,433.472 C1376.873,433.472 1378.137,431.715 1377.388,430.294 C1376.725,429.034 1379.318,432.329 1380.638,433.981 C1379.334,435.489 1377.126,438.013 1376.438,438.615 zM1365.733,438.413 C1365.733,438.413 1366.675,436.229 1366.675,436.229 C1366.675,436.229 1366.647,435.703 1366.647,435.703 C1367.281,434.570 1367.921,433.466 1368.223,432.948 C1368.223,432.948 1368.946,433.658 1368.946,433.658 L1367.842,428.791 C1367.842,428.791 1369.853,430.372 1371.511,431.889 C1370.416,433.051 1367.195,436.819 1365.733,438.413 zM1366.551,433.919 L1366.426,431.593 L1364.623,433.858 L1363.654,428.457 L1368.114,432.840 L1366.551,433.919 zM1362.164,436.947 L1362.003,437.058 L1362.704,432.916 L1364.268,434.304 L1362.164,436.947 zM1361.252,432.758 L1357.953,435.292 L1357.936,435.138 L1357.086,435.958 L1355.369,437.277 L1357.054,432.580 C1357.054,432.580 1356.445,432.949 1355.601,433.489 C1355.283,431.438 1354.077,427.588 1353.374,426.252 C1352.326,424.262 1357.973,432.909 1359.007,434.180 C1360.041,435.451 1356.570,427.473 1356.570,427.473 L1362.645,432.864 L1360.317,435.789 L1361.252,432.758 zM1352.891,435.314 C1351.958,432.894 1349.363,427.642 1349.363,427.642 C1349.363,427.642 1352.907,432.230 1354.660,434.100 C1354.081,434.482 1353.465,434.900 1352.891,435.314 zM1347.523,436.129 C1347.523,436.129 1347.441,435.978 1347.344,435.736 C1347.344,435.736 1348.900,431.436 1348.900,431.436 C1348.900,431.436 1348.037,432.352 1348.037,432.352 C1347.848,431.453 1346.081,427.643 1345.596,426.723 C1345.116,425.811 1348.549,430.547 1351.070,433.916 C1351.070,433.916 1347.523,436.129 1347.523,436.129 zM1347.919,432.476 C1347.919,432.476 1347.231,433.207 1347.231,433.207 C1347.278,433.106 1347.331,433.007 1347.397,432.912 C1348.312,431.592 1344.405,435.528 1343.224,436.664 C1343.206,436.681 1343.192,436.693 1343.175,436.708 C1343.175,436.708 1344.055,433.880 1344.055,433.880 C1344.178,433.631 1344.260,433.471 1344.260,433.471 L1344.151,433.572 L1344.623,432.051 L1344.837,432.210 L1344.725,431.723 L1344.864,431.277 L1344.673,431.497 L1343.420,426.054 C1343.420,426.054 1346.985,431.440 1347.870,432.426 C1347.888,432.447 1347.904,432.461 1347.919,432.476 zM1340.226,436.633 L1341.773,432.525 L1339.641,434.351 L1340.008,432.499 L1336.361,436.537 L1337.842,432.899 L1338.080,433.232 L1338.109,432.243 L1338.207,432.004 L1338.115,432.060 L1338.254,427.327 L1344.362,431.857 L1340.226,436.633 zM1335.816,433.470 L1335.921,433.057 L1335.365,433.747 L1333.422,434.939 L1332.670,432.913 L1333.930,427.429 L1337.508,432.432 L1335.816,433.470 zM1328.948,435.121 C1328.948,435.121 1329.616,432.294 1329.616,432.294 C1329.616,432.294 1328.183,433.988 1328.183,433.988 C1328.600,433.169 1329.010,432.384 1329.334,431.782 C1329.334,431.782 1329.840,432.130 1329.840,432.130 L1329.022,427.112 C1329.022,427.112 1331.722,431.718 1331.722,431.718 C1331.255,432.362 1330.301,433.618 1328.948,435.121 zM1326.453,434.792 L1326.397,434.486 L1326.639,433.513 L1326.259,433.731 L1326.043,432.551 C1326.043,432.551 1325.873,432.700 1325.605,432.952 C1325.605,432.952 1322.971,427.398 1322.971,427.398 C1322.971,427.398 1329.042,431.581 1329.042,431.581 C1328.121,432.607 1326.453,434.792 1326.453,434.792 zM1325.251,433.292 C1324.707,433.822 1323.968,434.586 1323.305,435.423 C1323.305,435.423 1322.380,435.952 1322.380,435.952 C1322.462,435.507 1322.643,434.858 1322.834,434.229 C1322.834,434.229 1323.158,433.684 1323.158,433.684 C1323.158,433.684 1322.985,433.742 1322.985,433.742 C1323.232,432.960 1323.455,432.318 1323.455,432.318 C1323.455,432.318 1322.667,433.166 1321.792,434.142 C1321.792,434.142 1320.542,434.561 1320.542,434.561 C1320.854,433.936 1321.113,433.429 1321.113,433.429 L1317.481,434.627 L1317.345,432.093 L1315.309,435.158 L1313.842,435.419 L1314.270,436.722 L1313.785,437.452 L1313.423,432.375 L1309.636,436.851 L1310.763,431.165 L1307.140,435.365 L1308.329,430.837 L1304.327,436.308 L1305.680,431.504 L1299.799,436.977 L1302.065,432.115 L1302.455,432.773 L1303.078,427.722 L1306.629,432.388 L1305.797,426.650 L1309.199,431.032 L1308.245,426.449 L1311.959,432.118 L1310.856,427.251 L1316.447,433.021 L1314.024,427.033 L1321.056,432.768 L1318.918,426.630 C1318.918,426.630 1325.251,433.292 1325.251,433.292 zM1297.660,430.467 L1289.911,437.820 L1293.574,431.026 L1286.470,435.397 L1287.305,431.539 L1287.879,432.108 L1286.911,426.806 L1290.462,431.472 L1289.821,428.177 L1294.786,431.370 L1293.289,428.527 L1298.810,430.700 L1299.176,427.238 L1301.795,431.659 L1295.209,436.487 L1297.660,430.467 zM1287.009,431.244 L1283.657,436.340 L1282.627,430.491 L1281.506,431.899 L1280.575,427.243 L1284.575,432.762 L1284.056,428.312 L1287.009,431.244 zM1278.184,436.073 L1278.314,430.166 L1277.096,430.976 L1276.388,427.592 L1281.174,432.317 L1278.184,436.073 zM1271.601,426.121 L1276.538,431.347 L1271.488,434.703 L1272.345,431.700 L1273.317,432.845 L1272.704,430.442 L1273.221,428.629 C1273.221,428.629 1272.930,429.022 1272.491,429.609 C1272.491,429.609 1271.601,426.121 1271.601,426.121 zM1269.285,432.438 C1269.285,432.438 1269.564,432.645 1269.564,432.645 C1269.564,432.645 1269.419,432.170 1269.419,432.170 C1269.865,431.285 1270.349,430.373 1270.691,429.754 C1270.691,429.754 1271.589,430.811 1271.589,430.811 C1270.424,432.352 1268.975,434.233 1268.449,434.763 C1267.948,435.267 1268.533,433.944 1269.285,432.438 zM1267.562,426.072 C1267.562,426.072 1270.558,429.598 1270.558,429.598 C1270.217,429.991 1269.724,430.579 1269.147,431.276 C1269.147,431.276 1267.562,426.072 1267.562,426.072 zM1266.707,434.235 C1266.707,434.235 1266.077,431.954 1266.077,431.954 C1266.365,431.425 1266.621,430.959 1266.816,430.606 C1266.816,430.606 1268.604,431.933 1268.604,431.933 C1268.009,432.653 1267.358,433.446 1266.707,434.235 zM1265.417,429.569 C1265.417,429.569 1266.684,430.509 1266.684,430.509 C1266.476,430.748 1266.216,431.047 1265.920,431.385 C1265.920,431.385 1265.417,429.569 1265.417,429.569 zM1263.440,438.138 C1261.999,439.790 1263.719,436.361 1265.278,433.437 C1265.278,433.437 1266.181,434.872 1266.181,434.872 C1265.134,436.140 1264.135,437.340 1263.440,438.138 zM1262.970,429.770 C1262.970,429.770 1264.790,432.661 1264.790,432.661 C1264.313,433.195 1263.810,433.752 1263.324,434.279 C1263.324,434.279 1262.970,429.770 1262.970,429.770 zM1260.944,436.651 C1260.147,437.260 1260.669,435.016 1261.472,432.643 C1261.472,432.643 1263.163,434.452 1263.163,434.452 C1262.242,435.444 1261.400,436.303 1260.944,436.651 zM1259.462,430.495 C1259.462,430.495 1260.553,431.662 1260.553,431.662 C1259.177,433.479 1257.721,435.403 1257.237,435.940 C1256.403,436.862 1258.433,432.605 1259.462,430.495 zM1258.347,429.303 L1259.095,430.103 L1258.086,430.909 L1258.347,429.303 zM1253.142,431.147 L1256.569,432.122 L1253.538,434.544 L1253.142,431.147 zM1252.093,433.404 L1253.137,434.864 L1251.435,436.225 L1252.093,433.404 zM1249.511,429.793 L1250.906,431.744 L1249.140,433.309 L1249.511,429.793 zM1350.723,437.179 C1350.043,438.160 1350.898,435.678 1351.384,434.334 C1351.755,434.828 1352.099,435.281 1352.402,435.673 C1351.627,436.254 1350.987,436.798 1350.723,437.179 z" fill="#3D9C5B" />
<path id="Rectangle-15-cop" d="M590.998,320.827 L590.043,317.938 L591.524,318.285 L592.233,318.347 L590.998,320.827 zM586.825,317.185 L589.897,317.904 C589.897,317.904 588.510,319.960 588.510,319.960 C587.992,319.040 586.825,317.185 586.825,317.185 zM585.889,323.845 C585.889,323.845 585.598,320.231 585.598,320.231 C586.623,321.239 584.394,316.284 584.394,316.284 C584.394,316.284 587.363,318.959 588.411,320.107 C588.411,320.107 585.889,323.845 585.889,323.845 zM582.209,326.668 L583.048,319.149 C583.048,319.149 581.357,320.879 581.357,320.879 C580.972,320.215 580.495,319.431 580.015,318.659 C580.015,318.659 580.180,317.467 580.180,317.467 C580.943,318.266 581.627,319.014 581.627,319.014 L581.837,316.745 C581.837,316.745 583.739,318.133 585.164,319.739 C585.164,319.739 582.209,326.668 582.209,326.668 zM581.032,321.212 C581.032,321.212 579.439,322.842 579.439,322.842 C579.439,322.842 579.810,320.146 579.810,320.146 C580.030,320.343 580.255,320.541 580.490,320.743 C580.697,320.921 580.873,321.073 581.032,321.212 zM578.456,316.219 C577.568,314.873 578.637,315.877 579.767,317.039 C579.767,317.039 579.389,317.662 579.389,317.662 C579.047,317.124 578.724,316.624 578.456,316.219 zM575.765,323.632 C575.765,323.632 576.395,316.744 576.395,316.744 C576.880,317.286 577.619,318.078 578.577,319.000 C578.577,319.000 575.765,323.632 575.765,323.632 zM571.951,322.236 L572.384,322.545 L571.943,321.687 L571.903,318.929 L571.173,320.191 L569.672,317.275 L574.698,319.776 L575.736,315.979 C575.736,315.979 575.965,316.262 576.389,316.736 C576.389,316.736 571.987,324.726 571.987,324.726 L571.951,322.236 zM567.802,326.021 L567.939,322.480 L568.467,322.886 L567.964,321.842 L568.023,320.328 L567.619,321.126 L566.166,318.109 L570.563,321.246 L567.802,326.021 zM564.945,326.410 C564.945,326.410 564.761,322.095 564.761,322.095 C564.882,322.194 564.994,322.285 565.086,322.360 C566.363,323.387 563.772,319.271 563.772,319.271 L567.216,321.923 L564.945,326.410 zM561.579,326.286 L561.697,320.898 L558.928,326.066 L559.040,322.711 C559.040,322.711 557.923,323.711 557.923,323.711 C558.020,323.375 556.390,319.993 556.390,319.993 L560.757,322.207 C560.757,322.207 561.627,320.225 560.598,318.991 C559.659,317.865 563.103,320.739 564.683,322.031 C564.683,322.031 561.579,326.286 561.579,326.286 zM557.663,323.535 C557.783,323.680 557.857,323.740 557.895,323.736 C557.895,323.736 554.642,326.649 554.642,326.649 L555.671,323.605 L550.562,326.623 L549.654,323.261 L548.885,325.208 L546.783,320.061 L553.044,324.043 L550.949,319.513 C550.949,319.513 556.634,322.301 557.663,323.535 zM547.291,329.245 L545.877,324.355 L543.108,329.524 C543.108,329.524 543.061,326.307 543.061,326.307 C543.212,326.442 543.339,326.552 543.432,326.627 C543.849,326.963 543.588,326.431 543.050,325.566 C543.050,325.566 543.023,323.727 543.023,323.727 C543.023,323.727 542.492,324.697 542.492,324.697 C541.313,322.904 539.649,320.576 539.649,320.576 L548.691,325.700 L547.291,329.245 zM539.663,325.949 C538.783,323.958 537.126,321.078 536.269,320.050 C535.326,318.918 538.141,321.648 540.556,323.956 C540.556,323.956 539.663,325.949 539.663,325.949 zM536.544,327.373 C534.893,325.100 532.636,322.245 532.636,322.245 C532.636,322.245 535.243,324.453 537.407,326.142 C537.407,326.142 536.544,327.373 536.544,327.373 zM528.922,332.178 L530.063,325.779 L529.006,327.320 L526.493,321.933 C526.493,321.933 531.104,326.456 532.174,327.236 C533.245,328.017 529.584,323.120 528.761,322.133 C528.212,321.475 531.120,324.068 533.938,326.552 C533.938,326.552 528.922,332.178 528.922,332.178 zM528.868,327.522 L524.019,334.587 L526.183,327.178 L520.149,332.936 L520.164,327.851 L517.594,334.445 L515.384,328.983 L517.406,331.195 L517.499,325.257 L522.768,330.067 L521.706,324.256 L528.868,327.522 zM511.081,329.522 L509.527,331.112 L506.774,327.514 L514.479,330.709 L512.632,325.972 L515.359,328.955 L512.186,335.325 L511.081,329.522 zM506.611,334.095 L506.620,333.742 L506.112,334.605 L505.352,335.383 L505.519,332.908 L506.022,333.166 L505.554,332.394 L505.735,329.721 L508.820,331.834 L506.611,334.095 zM502.651,327.609 C502.651,327.609 505.546,329.591 505.546,329.591 C505.371,329.971 505.113,330.534 504.815,331.175 C504.815,331.175 502.651,327.609 502.651,327.609 zM501.462,334.219 C501.462,334.219 500.012,332.075 500.012,332.075 C500.105,331.768 500.161,331.587 500.161,331.587 C500.161,331.587 500.082,331.732 499.947,331.978 C499.947,331.978 497.948,329.024 497.948,329.024 C497.948,329.024 502.860,331.544 502.860,331.544 C502.469,332.281 501.983,333.216 501.462,334.219 zM495.446,339.489 C495.158,339.825 495.006,339.561 494.950,338.950 C494.950,338.950 495.186,337.658 495.186,337.658 C495.186,337.658 494.931,337.885 494.931,337.885 C494.973,336.493 495.210,334.527 495.494,332.947 C495.494,332.947 496.990,334.429 496.990,334.429 C496.990,334.429 495.742,331.729 495.742,331.729 C495.822,331.382 495.903,331.080 495.981,330.849 C496.007,330.771 496.025,330.714 496.039,330.666 C496.039,330.666 499.418,332.933 499.418,332.933 C498.305,334.931 496.249,338.551 495.446,339.489 zM494.895,329.899 C494.895,329.899 495.985,330.630 495.985,330.630 C495.905,330.762 495.766,331.030 495.587,331.394 C495.587,331.394 494.895,329.899 494.895,329.899 zM491.672,339.566 C491.659,339.589 491.648,339.604 491.636,339.621 C491.636,339.621 492.740,334.365 492.740,334.365 C492.740,334.365 492.475,334.739 492.475,334.739 C492.653,334.006 492.814,333.365 492.913,332.972 C492.913,332.972 494.064,333.942 494.064,333.942 L492.174,329.659 C492.174,329.659 495.050,332.507 495.050,332.507 C493.915,334.895 492.169,338.705 491.672,339.566 zM491.375,334.564 L489.823,330.366 L492.775,332.856 L491.375,334.564 zM488.106,338.555 L488.722,334.770 L487.762,336.256 L487.387,331.982 L490.969,335.060 L488.106,338.555 zM486.099,338.830 L486.167,335.247 L487.488,336.680 L486.099,338.830 zM484.084,336.658 L481.814,340.017 L482.095,335.641 C482.095,335.641 481.155,336.659 480.103,337.897 C480.103,337.897 480.115,337.781 480.115,337.781 C480.115,337.781 479.913,338.120 479.913,338.120 C478.765,339.482 477.543,341.045 477.283,341.813 C476.769,343.335 477.192,338.050 477.192,338.050 L473.918,341.690 C473.918,341.690 473.706,341.470 473.469,341.125 C473.469,341.125 473.765,337.906 473.765,337.906 L473.184,338.829 L471.385,334.460 L475.831,338.282 L474.517,335.193 L480.039,337.281 L477.981,334.812 L483.835,335.785 L483.470,332.323 L485.929,334.989 L484.034,337.558 L484.084,336.658 zM470.733,341.987 C470.733,341.987 470.988,339.528 470.988,339.528 L470.144,340.183 L468.907,336.529 C468.907,336.529 472.549,338.872 472.549,338.872 C472.092,339.588 471.347,340.900 470.733,341.987 zM469.793,340.456 L467.182,342.483 L467.282,341.234 L467.538,341.440 L467.308,340.907 L467.319,340.772 L467.565,340.184 L467.358,340.287 L467.395,339.818 L467.058,340.329 L465.279,336.209 L469.863,340.340 L469.793,340.456 zM463.627,342.151 L463.824,340.303 L462.978,341.230 L461.156,336.303 L466.585,340.673 L463.627,342.151 zM459.518,343.743 L458.072,341.783 L457.916,341.055 L459.249,342.082 L456.167,335.864 L461.247,340.129 L459.518,343.743 zM454.733,345.024 C454.915,344.081 455.100,343.171 455.250,342.485 C455.253,342.473 455.254,342.464 455.257,342.452 C455.257,342.452 455.537,342.669 455.537,342.669 C455.537,342.669 455.300,342.241 455.300,342.241 C455.404,341.682 455.324,341.671 455.147,341.965 C455.147,341.965 454.830,341.392 454.830,341.392 L454.939,339.419 L454.293,340.423 L452.208,336.659 L457.456,340.701 C457.456,340.701 454.733,345.024 454.733,345.024 zM450.663,342.836 L449.845,341.265 L449.954,340.464 L449.634,340.858 L447.219,336.219 L452.155,340.047 L450.663,342.836 zM449.207,341.385 L444.895,346.705 L446.779,340.526 L440.281,346.861 L441.867,340.557 L435.222,348.920 L437.899,341.681 L431.476,347.001 L431.846,341.930 L428.822,348.327 L426.985,342.679 L423.365,348.826 L422.669,342.960 L416.544,348.404 C416.544,348.404 417.171,343.878 417.171,343.878 C417.187,343.891 417.208,343.908 417.224,343.921 C417.757,344.350 417.612,343.878 417.266,343.187 C417.266,343.187 417.410,342.148 417.410,342.148 C417.410,342.148 417.277,342.394 417.060,342.790 C416.571,341.883 415.910,340.832 415.910,340.832 L420.604,344.447 L418.303,339.671 L424.522,344.106 L421.809,338.836 L426.835,341.337 L427.873,337.540 C427.873,337.540 429.663,339.757 432.627,342.305 C435.592,344.853 433.391,343.152 433.717,343.544 C434.470,344.447 434.467,344.241 434.084,343.499 C434.084,343.499 431.792,339.892 431.792,339.892 C431.792,339.892 431.760,339.594 431.760,339.594 C431.332,338.915 430.922,338.277 430.594,337.780 C429.779,336.546 430.610,337.288 431.626,338.316 C431.626,338.316 431.305,335.275 431.305,335.275 L436.574,340.084 L435.138,335.841 C435.138,335.841 439.798,340.094 439.798,340.094 C439.363,339.382 438.962,338.746 438.962,338.746 L440.329,339.066 L440.249,337.435 L443.717,339.851 L445.790,340.034 L444.868,336.927 L449.207,341.385 zM413.542,348.888 C412.749,349.949 414.806,344.192 415.302,343.006 C415.798,341.821 411.013,349.918 409.054,352.929 C407.095,355.940 411.631,344.254 411.631,344.254 C411.631,344.254 407.590,350.573 406.375,351.805 C405.193,353.004 406.566,345.721 407.440,343.410 C408.501,344.039 409.439,344.663 409.800,345.097 C410.828,346.331 408.528,341.554 408.528,341.554 L412.894,343.768 C412.894,343.768 413.764,341.786 412.735,340.552 C411.823,339.458 415.048,342.141 416.683,343.480 C415.722,345.227 414.090,348.156 413.542,348.888 zM403.031,350.925 C403.031,350.925 403.496,348.592 403.496,348.592 C403.496,348.592 403.359,348.084 403.359,348.084 C403.742,346.843 404.138,345.631 404.326,345.061 C404.326,345.061 405.181,345.604 405.181,345.604 L403.086,341.074 C403.086,341.074 405.382,342.201 407.320,343.339 C406.491,344.705 404.128,349.061 403.031,350.925 zM402.893,346.359 L402.286,344.110 L400.995,346.701 L398.920,341.622 L404.196,344.978 L402.893,346.359 zM397.468,346.329 L394.771,349.496 L394.722,349.349 L394.062,350.328 L392.658,351.977 L393.326,347.031 C393.326,347.031 392.805,347.522 392.094,348.224 C391.355,346.285 389.373,342.771 388.406,341.611 C386.966,339.883 394.293,347.161 395.569,348.188 C396.846,349.216 391.786,342.137 391.786,342.137 L398.853,346.143 L397.187,349.489 L397.468,346.329 zM389.825,350.575 C388.410,348.406 384.774,343.807 384.774,343.807 C384.774,343.807 389.198,347.555 391.302,349.018 C390.814,349.513 390.301,350.050 389.825,350.575 zM384.745,352.492 C384.745,352.492 384.633,352.360 384.488,352.144 C384.488,352.144 385.112,347.614 385.112,347.614 C385.112,347.614 384.459,348.690 384.459,348.690 C384.087,347.850 381.564,344.493 380.898,343.694 C380.238,342.902 384.583,346.818 387.753,349.587 C387.753,349.587 384.745,352.492 384.745,352.492 zM384.370,348.836 C384.370,348.836 383.849,349.694 383.849,349.694 C383.874,349.586 383.906,349.478 383.950,349.371 C384.570,347.889 381.570,352.554 380.653,353.911 C380.639,353.932 380.627,353.947 380.614,353.965 C380.614,353.965 380.884,351.015 380.884,351.015 C380.952,350.746 380.999,350.572 380.999,350.572 L380.913,350.694 L381.058,349.108 L381.301,349.218 L381.090,348.766 L381.132,348.301 L380.992,348.556 L378.630,343.494 C378.630,343.494 383.241,348.017 384.311,348.798 C384.334,348.814 384.352,348.825 384.370,348.836 zM377.714,354.507 L378.370,350.167 L376.665,352.397 L376.638,350.509 L373.914,355.219 L374.603,351.352 L374.905,351.628 L374.728,350.655 L374.773,350.401 L374.695,350.475 L373.843,345.817 L380.762,348.973 L377.714,354.507 zM372.741,352.334 L372.758,351.908 L372.357,352.699 L370.706,354.270 L369.548,352.446 L369.636,346.819 L374.179,350.965 L372.741,352.334 zM366.369,355.382 C366.369,355.382 366.432,352.477 366.432,352.477 C366.432,352.477 365.384,354.433 365.384,354.433 C365.621,353.545 365.858,352.692 366.050,352.035 C366.050,352.035 366.617,352.270 366.617,352.270 L364.769,347.533 C364.769,347.533 368.371,351.474 368.371,351.474 C368.049,352.202 367.379,353.629 366.369,355.382 zM363.860,355.580 L363.741,355.292 L363.775,354.291 L363.449,354.583 L362.991,353.474 C362.991,353.474 362.856,353.656 362.646,353.958 C362.646,353.958 358.912,349.076 358.912,349.076 C358.912,349.076 365.722,351.900 365.722,351.900 C365.035,353.096 363.860,355.580 363.860,355.580 zM362.371,354.364 C361.950,354.996 361.387,355.897 360.912,356.854 C360.912,356.854 360.119,357.564 360.119,357.564 C360.106,357.112 360.147,356.439 360.203,355.785 C360.203,355.785 360.406,355.184 360.406,355.184 C360.406,355.184 360.249,355.277 360.249,355.277 C360.328,354.461 360.412,353.786 360.412,353.786 C360.412,353.786 359.818,354.780 359.166,355.917 C359.166,355.917 358.031,356.588 358.031,356.588 C358.206,355.912 358.354,355.362 358.354,355.362 L355.051,357.291 L354.389,354.841 L353.038,358.263 L351.657,358.825 L352.348,360.009 L352.026,360.825 L350.612,355.935 L347.843,361.103 L347.758,355.307 L345.092,360.171 L345.310,355.494 L342.537,361.679 L342.858,356.699 L338.249,363.279 L339.450,358.051 L339.969,358.614 L339.524,353.543 L343.971,357.365 L341.960,351.928 L346.201,355.503 L344.311,351.220 L349.127,355.990 L347.032,351.460 L353.704,355.936 L350.085,350.585 L358.160,354.727 L354.788,349.170 C354.788,349.170 362.371,354.364 362.371,354.364 zM334.799,357.359 L328.755,366.167 L330.918,358.758 L324.883,364.515 L324.895,360.568 L325.575,361.005 L323.522,356.021 L327.968,359.844 L326.654,356.755 L332.176,358.842 L330.118,356.374 L335.972,357.347 L335.607,353.884 L339.091,357.662 L333.658,363.758 L334.799,357.359 zM324.544,360.342 L322.329,366.024 L320.101,360.519 L319.299,362.130 L317.416,357.770 L322.480,362.333 L321.044,358.090 L324.544,360.342 zM316.921,366.905 L315.816,361.102 L314.793,362.148 L313.394,358.986 L319.061,362.608 L316.921,366.905 zM310.087,366.963 L310.298,363.848 L311.487,364.764 L310.386,362.542 L310.513,360.661 C310.513,360.661 310.311,361.106 310.004,361.772 C310.004,361.772 308.406,358.546 308.406,358.546 L314.325,362.627 L310.087,366.963 zM307.127,367.656 C306.742,368.253 307.038,366.837 307.459,365.207 C307.459,365.207 307.775,365.352 307.775,365.352 C307.775,365.352 307.534,364.917 307.534,364.917 C307.786,363.959 308.069,362.966 308.274,362.289 C308.274,362.289 309.373,363.135 309.373,363.135 C308.555,364.885 307.531,367.028 307.127,367.656 zM304.446,359.341 C304.446,359.341 308.112,362.164 308.112,362.164 C307.860,362.620 307.501,363.298 307.082,364.100 C307.082,364.100 304.446,359.341 304.446,359.341 zM303.948,364.880 C303.948,364.880 303.078,363.208 303.078,363.208 C303.078,363.208 304.513,363.863 304.513,363.863 C304.360,364.141 304.167,364.488 303.948,364.880 zM302.013,368.251 C302.013,368.251 300.726,363.916 300.726,363.916 C300.726,363.916 303.110,366.364 303.110,366.364 C302.755,366.986 302.379,367.635 302.013,368.251 zM300.181,371.069 C299.529,371.830 299.570,369.526 299.861,367.038 C299.861,367.038 301.892,368.454 301.892,368.454 C301.198,369.616 300.554,370.633 300.181,371.069 zM297.446,365.356 C297.446,365.356 298.758,366.270 298.758,366.270 C297.790,368.334 296.769,370.520 296.407,371.146 C295.784,372.222 296.881,367.635 297.446,365.356 zM296.108,364.424 L297.006,365.050 L296.188,366.049 L296.108,364.424 zM291.402,367.314 L294.957,367.552 L292.498,370.553 L291.402,367.314 zM290.792,372.635 L290.847,369.740 L292.173,370.950 L290.792,372.635 zM287.569,366.747 L289.340,368.364 L287.939,370.263 L287.569,366.747 zM304.932,368.236 C304.172,369.694 303.445,371.076 302.932,372.001 C301.868,373.918 302.834,370.206 303.749,367.020 C303.749,367.020 304.932,368.236 304.932,368.236 zM304.662,363.931 C304.662,363.931 306.688,364.855 306.688,364.855 C306.256,365.684 305.785,366.595 305.313,367.503 C305.313,367.503 304.221,365.404 304.221,365.404 C304.392,364.825 304.545,364.317 304.662,363.931 zM454.755,342.742 C454.755,342.742 454.791,342.091 454.791,342.091 C454.791,342.091 454.993,342.247 454.993,342.247 C454.920,342.389 454.840,342.557 454.755,342.742 zM388.094,352.850 C387.634,353.951 387.952,351.345 388.146,349.930 C388.613,350.336 389.045,350.708 389.422,351.028 C388.787,351.757 388.272,352.423 388.094,352.850 zM398.921,346.181 L400.741,347.212 L399.234,350.236 L399.100,350.378 L398.921,346.181 zM449.285,345.410 L449.753,341.945 L450.648,342.864 L449.285,345.410 zM451.939,344.084 L452.390,340.229 L453.743,341.278 L451.939,344.084 zM504.297,332.281 C503.555,333.856 502.741,335.533 502.392,336.076 C501.857,336.905 502.636,333.853 503.238,331.737 C503.238,331.737 504.297,332.281 504.297,332.281 zM461.821,340.610 L462.796,341.429 L462.125,342.163 L461.821,340.610 zM472.982,339.150 C472.982,339.150 472.821,339.406 472.821,339.406 C472.814,339.287 472.805,339.168 472.819,339.046 C472.819,339.046 472.982,339.150 472.982,339.150 zM499.696,333.119 C499.696,333.119 501.430,334.282 501.430,334.282 C500.286,336.486 498.988,338.996 498.197,340.422 C496.848,342.851 498.760,336.240 499.696,333.119 zM535.908,328.281 C535.908,328.281 533.514,331.699 533.514,331.699 C533.514,331.699 534.569,327.108 534.569,327.108 C535.031,327.514 535.482,327.910 535.908,328.281 zM537.870,329.949 C537.870,329.949 537.802,330.100 537.802,330.100 C537.802,330.100 537.815,329.905 537.815,329.905 C537.832,329.918 537.854,329.937 537.870,329.949 zM538.026,326.620 C538.391,326.899 538.730,327.149 539.030,327.361 C539.030,327.361 538.037,329.577 538.037,329.577 C537.985,329.486 537.923,329.384 537.855,329.275 C537.855,329.275 538.026,326.620 538.026,326.620 zM542.096,325.418 C542.096,325.418 540.357,328.591 540.357,328.591 C540.357,328.591 540.572,323.971 540.572,323.971 C541.118,324.492 541.641,324.990 542.096,325.418 z" fill="#3D9C5B" />
<path id="Shape-325" d="M795.000,288.000 C739.000,287.000 199.000,421.000 71.000,490.000 C99.936,490.000 648.000,490.000 840.000,490.000 C951.000,396.000 1174.000,294.000 1187.000,294.000 C1106.500,281.000 862.000,283.000 795.000,288.000 z" fill="#555453" />
<path id="Shape-326" d="M831.000,490.000 L832.144,483.572 L835.023,485.558 L837.013,480.981 L838.183,486.116 L839.878,479.541 L841.045,484.105 L842.172,478.960 C842.172,478.960 842.764,483.241 843.045,481.812 C843.326,480.383 844.167,475.524 844.173,476.952 C844.179,478.380 845.905,479.229 845.905,479.229 L847.610,475.224 C847.610,475.224 848.778,479.788 848.772,478.360 C848.766,476.933 851.041,471.783 851.041,471.783 L852.207,476.061 L854.190,469.770 L855.935,475.188 L859.341,466.036 C859.341,466.036 859.948,473.743 860.229,472.314 C860.510,470.885 861.333,461.744 861.341,463.743 C861.350,465.742 862.814,472.589 863.382,471.159 C863.950,469.728 865.071,463.156 865.071,463.156 C865.071,463.156 865.404,474.291 865.965,471.147 C866.526,468.004 867.640,459.718 867.645,460.860 C867.649,462.002 867.959,467.427 868.242,466.283 C868.524,465.140 869.074,459.426 869.074,459.426 L870.532,464.846 L873.662,458.264 L876.265,462.822 L877.100,456.536 L880.561,460.519 L880.822,454.236 L882.275,458.513 L885.692,451.930 L886.008,458.782 L888.553,449.633 L889.438,455.341 L892.565,447.903 L893.163,453.612 L895.144,446.749 L896.310,451.028 L896.859,445.029 L898.024,449.022 L898.865,444.164 L900.607,449.011 L901.447,443.867 L904.046,447.568 L904.309,441.856 L906.042,444.418 L909.470,440.406 L909.482,443.261 L912.047,438.681 L912.920,441.533 L913.759,436.390 L915.214,440.952 L916.630,436.377 L918.081,440.083 L918.917,434.083 L920.372,438.931 L921.778,431.786 L923.521,436.633 L924.922,428.631 L926.383,434.622 L928.073,426.905 L929.246,432.896 L931.217,423.750 L932.680,430.312 L933.223,422.885 L934.962,426.875 L936.658,420.585 L938.390,422.862 L939.225,416.576 L940.676,420.283 L941.511,413.997 L943.821,417.413 L945.007,426.261 L846.000,490.000 L831.000,490.000 z" fill="#40A35F" />
<path id="Shape-326-copy" d="M934.000,425.899 L935.715,424.178 L938.284,420.740 C938.284,420.740 938.876,425.021 938.872,423.879 C938.867,422.737 939.424,418.736 939.424,418.736 C939.424,418.736 940.881,423.870 940.873,421.871 C940.864,419.872 941.429,417.586 941.429,417.586 L942.870,419.007 C942.870,419.007 943.131,412.724 943.429,415.292 C943.727,417.861 944.613,423.854 944.601,420.999 C944.599,420.545 944.074,422.961 944.634,419.532 C945.193,416.103 945.144,413.572 945.144,413.572 L948.023,415.558 L950.013,410.981 L951.183,416.116 L952.878,409.541 L954.045,414.105 L955.172,408.960 C955.172,408.960 955.764,413.241 956.045,411.812 C956.326,410.383 957.167,405.524 957.173,406.952 C957.179,408.380 958.905,409.229 958.905,409.229 L960.610,405.224 C960.610,405.224 961.778,409.788 961.772,408.360 C961.766,406.932 964.041,401.783 964.041,401.783 L965.207,406.061 L967.190,399.770 L968.935,405.188 L972.341,396.036 C972.341,396.036 972.948,403.743 973.229,402.314 C973.510,400.885 974.333,391.744 974.341,393.743 C974.350,395.742 975.814,402.589 976.382,401.159 C976.950,399.728 978.071,393.156 978.071,393.156 C978.071,393.156 978.404,404.291 978.965,401.148 C979.526,398.004 980.640,389.718 980.645,390.860 C980.649,392.002 980.959,397.427 981.241,396.283 C981.524,395.140 982.074,389.426 982.074,389.426 L983.532,394.846 L986.662,388.264 L989.265,392.822 L990.100,386.536 L993.561,390.519 L993.822,384.236 L995.275,388.513 L998.692,381.930 L999.008,388.782 L1001.553,379.633 L1002.438,385.341 L1005.565,377.903 L1006.163,383.612 L1008.144,376.750 L1009.310,381.028 L1009.859,375.029 L1011.024,379.022 L1011.865,374.163 L1013.607,379.011 L1014.447,373.867 L1017.046,377.568 L1017.309,371.856 L1019.042,374.418 L1022.470,370.406 L1022.482,373.261 L1025.047,368.681 L1025.920,371.533 L1026.759,366.389 L1028.214,370.952 L1029.630,366.377 L1031.081,370.083 L1031.917,364.083 L1033.373,368.931 L1034.778,361.786 L1036.521,366.633 L1037.922,358.631 L1039.383,364.622 L1041.073,356.904 L1042.246,362.896 L1044.217,358.750 L1045.680,365.312 L1046.223,357.885 L1047.962,361.875 L1049.658,355.585 L1051.390,357.862 L1052.225,351.576 L1053.676,355.283 L1054.511,348.997 L1056.821,352.413 L1058.007,361.261 L943.503,432.997 L934.000,425.899 z" fill="#40A35F" />
<path id="Shape-326-copy-2" d="M1059.732,354.533 L1061.562,352.934 L1064.362,349.682 C1064.362,349.682 1064.657,353.993 1064.731,352.853 C1064.805,351.714 1065.637,347.761 1065.637,347.761 C1065.637,347.761 1066.737,352.983 1066.866,350.989 C1066.996,348.994 1067.716,346.751 1067.716,346.751 L1069.056,348.269 C1069.056,348.269 1069.750,342.018 1069.870,344.602 C1069.990,347.185 1070.461,353.225 1070.646,350.375 C1070.675,349.922 1069.984,352.297 1070.779,348.915 C1071.574,345.532 1071.699,343.003 1071.699,343.003 L1074.435,345.184 L1076.736,340.754 L1077.549,345.958 L1079.693,339.515 L1080.543,344.149 L1082.022,339.094 C1082.022,339.094 1082.317,343.406 1082.696,341.999 C1083.075,340.593 1084.249,335.804 1084.156,337.229 C1084.064,338.654 1085.727,339.620 1085.727,339.620 L1087.705,335.742 C1087.705,335.742 1088.555,340.376 1088.647,338.951 C1088.740,337.526 1091.364,332.546 1091.364,332.546 L1092.233,336.894 L1094.645,330.755 L1096.012,336.281 L1100.042,327.385 C1100.042,327.385 1100.115,335.116 1100.494,333.710 C1100.873,332.304 1102.324,323.241 1102.195,325.235 C1102.065,327.230 1103.054,334.162 1103.719,332.774 C1104.385,331.387 1105.956,324.907 1105.956,324.907 C1105.956,324.907 1105.521,336.039 1106.297,332.941 C1107.074,329.844 1108.756,321.654 1108.682,322.794 C1108.608,323.934 1108.543,329.367 1108.904,328.246 C1109.264,327.124 1110.207,321.462 1110.207,321.462 L1111.288,326.969 L1114.864,320.620 L1117.146,325.346 L1118.413,319.133 L1121.591,323.345 L1122.285,317.094 L1123.439,321.462 L1127.303,315.130 L1127.145,321.988 L1130.315,313.036 L1130.805,318.791 L1134.437,311.586 L1134.640,317.323 L1137.089,310.614 L1137.957,314.963 L1138.919,309.016 L1139.805,313.079 L1140.979,308.291 L1142.383,313.246 L1143.576,308.173 L1145.914,312.044 L1146.570,306.364 L1148.122,309.040 L1151.819,305.273 L1151.634,308.123 L1154.508,303.731 L1155.182,306.636 L1156.375,301.562 L1157.511,306.214 L1159.239,301.748 L1160.431,305.545 L1161.679,299.617 L1162.797,304.554 L1164.692,297.523 L1166.096,302.479 L1168.046,294.593 L1169.090,300.670 L1171.308,293.087 L1172.066,299.146 L1174.318,295.145 L1175.325,301.792 L1176.379,294.420 L1177.838,298.521 L1179.964,292.363 L1181.535,294.754 L1182.801,288.541 L1183.993,292.338 L1185.259,286.125 L1187.329,289.693 L1187.902,298.601 L1068.723,362.269 L1059.732,354.533 z" fill="#40A35F" />
<path id="Shape-152" d="M1599.000,96.000 C1602.000,105.000 1893.333,109.000 1933.000,96.000 C1940.000,92.000 1936.000,87.000 1936.000,87.000 C1936.000,87.000 1929.000,81.000 1923.000,86.000 C1923.000,86.000 1897.000,63.000 1868.000,64.000 C1839.000,65.000 1829.000,80.000 1829.000,80.000 C1829.000,80.000 1821.000,74.000 1811.000,74.000 C1801.000,74.000 1793.000,82.000 1793.000,82.000 C1793.000,82.000 1769.000,53.000 1738.000,54.000 C1707.000,55.000 1695.000,77.000 1695.000,77.000 C1695.000,77.000 1689.333,72.000 1683.000,72.000 C1676.667,72.000 1673.333,76.000 1672.000,79.000 C1646.000,75.000 1634.000,84.000 1634.000,84.000 C1634.000,84.000 1632.333,80.333 1627.000,80.000 C1621.667,79.667 1618.000,83.333 1618.000,83.000 C1618.000,86.000 1596.000,87.000 1599.000,96.000 z" fill="#6ECDFF" />
<path id="Shape-152-copy-3" d="M224.077,78.127 C221.628,85.435 -16.222,88.683 -48.607,78.127 C-54.322,74.880 -51.056,70.820 -51.056,70.820 C-51.056,70.820 -45.341,65.948 -40.443,70.008 C-40.443,70.008 -19.216,51.333 4.460,52.145 C28.137,52.957 36.301,65.136 36.301,65.136 C36.301,65.136 42.832,60.264 50.996,60.264 C59.161,60.264 65.692,66.760 65.692,66.760 C65.692,66.760 85.286,43.213 110.595,44.025 C135.904,44.837 145.701,62.700 145.701,62.700 C145.701,62.700 150.328,58.640 155.498,58.640 C160.669,58.640 163.390,61.888 164.479,64.324 C185.706,61.076 195.503,68.384 195.503,68.384 C195.503,68.384 196.863,65.407 201.218,65.136 C205.572,64.865 208.565,67.843 208.565,67.572 C208.565,70.008 226.527,70.820 224.077,78.127 z" fill="#6ECDFF" />
<path id="Shape-152-copy" d="M86.565,90.174 C89.017,97.537 327.176,100.809 359.602,90.174 C365.325,86.902 362.055,82.812 362.055,82.812 C362.055,82.812 356.332,77.904 351.427,81.994 C351.427,81.994 330.173,63.179 306.466,63.997 C282.759,64.815 274.585,77.086 274.585,77.086 C274.585,77.086 268.045,72.177 259.870,72.177 C251.695,72.177 245.156,78.722 245.156,78.722 C245.156,78.722 225.536,54.998 200.194,55.816 C174.853,56.634 165.043,74.631 165.043,74.631 C165.043,74.631 160.410,70.541 155.233,70.541 C150.056,70.541 147.331,73.813 146.241,76.267 C124.986,72.995 115.177,80.358 115.177,80.358 C115.177,80.358 113.814,77.358 109.454,77.086 C105.095,76.813 102.097,79.812 102.097,79.540 C102.097,81.994 84.113,82.812 86.565,90.174 z" fill="#7DD2FF" />
<path id="Shape-152-copy-2" d="M1096.719,62.718 C1093.723,71.651 802.766,75.621 763.151,62.718 C756.160,58.748 760.155,53.785 760.155,53.785 C760.155,53.785 767.146,47.830 773.138,52.793 C773.138,52.793 777.067,41.956 788.067,40.956 C799.067,39.956 814.017,15.837 847.016,16.837 C880.016,17.837 884.006,39.882 884.993,40.882 C894.980,40.882 899.970,41.822 902.970,48.822 C902.970,50.822 908.899,19.031 937.899,19.031 C966.899,19.031 979.843,43.860 979.843,43.860 C979.843,43.860 998.503,38.897 1004.828,38.897 C1011.153,38.897 1022.482,42.867 1023.814,45.845 C1049.780,41.875 1061.764,50.807 1061.764,50.807 C1061.764,50.807 1063.429,47.168 1068.755,46.837 C1074.082,46.506 1077.744,50.146 1077.744,49.815 C1077.744,52.793 1099.715,53.785 1096.719,62.718 z" fill="#6ECDFF" />
</g>
</svg>
