<?xml version="1.0" encoding="utf-8"?>
<!-- Generator: Adobe Illustrator 18.1.1, SVG Export Plug-In . SVG Version: 6.00 Build 0)  -->
<svg version="1.1" id="Layer_1" xmlns="http://www.w3.org/2000/svg" xmlns:xlink="http://www.w3.org/1999/xlink" x="0px" y="0px"
	 viewBox="654 152 1920 490" enable-background="new 654 152 1920 490" xml:space="preserve">
<g id="bg-lead">
	<path id="bg-copy" fill="#39BBFF" d="M654,152h1920v490H654V152z"/>
	<path id="Shape-143-copy-2" fill="#0089D1" d="M640.9,556.8c-12.1-12.2,16.9-69.9,24.7-69.7c7.8,0.2,5.6-10.7,13.4-10.5
		c7.8,0.2,21.6-25.6,25.9-26.4c4.4-0.7,3.4,5.7,10.3,6.8c6.9,1.1,38.9-83.4,46.7-82.3c7.8,1.1,16,23,21.2,22.3
		c5.2-0.7,4.5-5.9,8-5.8c3.5,0.1,7.3,9.4,15.1,9.2s29.3-20.4,40.6-21.4c11.3-1,17-26.3,26.2-26.9c9.1-0.6,9.8,7,24.2,6.1
		c14.3-0.9,41.7-33.7,50.3-33.9c3.9-0.1,7.5,4.1,11.1,2.6c4.5-1.9,8.7-10.5,11.6-9.9c5.2,1,5.8,7.7,11.8,8.8
		c6,1.1,25.6-41.8,36-41.4c10.4,0.3,34.5,40.1,41.4,42c2.1,0.6,3.7,7.3,6.7,6.8c2-0.4,5.4-15.3,8.4-15.6c3-0.3,5.6,6.5,7.7,6
		c3.7-0.8,5.8-4.9,9.4-4.8c11.3,0.3,15.1,17,23.7,18.1c8.6,1.1,21.2-11.5,28.1-9.6c6.9,1.9,9,18.5,16.8,18.8
		c7.8,0.2,26.1-12.3,36.5-12.4c10.4-0.1,17.3,2.3,22.9,2.5c5.6,0.2,9.1-15.5,13.5-15.3c4.3,0.1,10.9,9.6,16.1,8.9s36.9,7.7,46.4,7.1
		c9.6-0.6,31.5,25.7,38.4,27.6c6.9,1.9,11.6,0.5,21.1,1.6c9.5,1.2,59.1,79,49.7,92.6C1262.1,560.5,653.1,568.9,640.9,556.8z"/>
	<path id="Shape-149" fill="#0098E8" d="M1368.9,407c-6.6,0.9-8.4-13.5-16.1-12.6c-7.7,0.9-14.7,11.7-20,4.9
		c-5.3-6.8,1.1-34.2-10-34.5c-11-0.3-20.1,44.6-31.2,45.4c-11,0.8-13.6-61.1-24.5-62.6c-11-1.4-12.9,23.9-23.9,25.8
		c-11.1,1.9-3.8-20-14.8-20.3c-11-0.3-15.9,13.9-23.5,12.5c-7.7-1.3-12.8-13.6-26.1-10.7c-13.3,2.9-19.5,23.7-31.5,18.9
		c-12-4.8-6.2-24.8,1.8-23.1c8,1.7,23.4-13.1,45.5-25.5c8.2-4.6,16.2,10.9,22.8,7.3c9.4-5.2,10.8-13.5,15.8-13.9
		c5-0.3,10,9.7,16.6,10.4c6.7,0.7,24.4-35.2,44.7-30.5c16.7,0.7,36.7,71.8,43.1,63.5c15.7-18.3,35.8,24.8,35.8,24.8
		S1375.5,406.1,1368.9,407z M1097.7,367.7c-10.4-12.2-14.4-9.9-23.9-6c-9.6,3.9-8.2-7.6-15.5-7.8s-4.6,14.5-16.3,17.3
		c-11.6,2.8-28.9-13.5-37.6-5.3c-8.6,8.1-11,16.4-20.4,16.1c-9.4-0.3-15.2-16.2-24.7-14.4c-9.5,1.8-7,21.8-14.2,19.5
		c-7.3-2.3-5.7-20.1-16.2-19.3s-15.1,13.1-23.4,10.8c-8.3-2.4-4.8-14.8-15.3-14.1c-10.5,0.7-28.6,10.6-23.9-7
		c4.7-17.6,18-4.8,18-4.8s7.3,7.4,19.4,0.6c12.2-6.8,28.4-25.8,43.7-34.4c2-1.1,7.9,7.8,9.9,6.7c4.8-2.7,6.2-11.7,11.9-11.7
		c5.7,0,7.5,10.9,16.2,10.3c8.7-0.7,13.5-41.9,40.5-25.3c1.3,0.8,8.7,3.9,17.7,7.6c6.5,2.7,13.9,15.7,20.5,18.5
		c9.1,3.8,4.6-13.7,12.6-12c8,1.7,37.7,51.3,37.7,51.3S1108.2,379.9,1097.7,367.7z M832.6,419.1c-8.7,4-5.9,16-14.6,20.1
		c-8.7,4-9.4-8.9-19.2-6c-9.8,2.9-0.4,12.9-11.3,18c-10.9,5.1-14.9-4.8-25.7-4c-10.8,0.7-20.2,26.4-29.9,27.1
		c-9.7,0.8-6.2-8.8-15.8-10.2c-9.6-1.4-10.4,23.4-15.9,26.5c-5.5,3.1-17.1-4.8-17.1-4.8s-13.5,9.9-17.2,2.9c4-1,6.7-11.1,10.7-13.8
		c4-2.7,6.2,0.5,9.9-4.2c7.3-9.3,8.8-16.5,18.6-22.5c3.8-2.3,7.6,7.1,11.3,4.4c8.7-6.5,16.7-32.3,22-41.1c13.4-22.5,15-15.8,15-15.8
		s5.8-9.4,29.2-3.4c-1.8,6.6,10.3-5.5,10.3-5.5L803,400c0,0,38.7,4.2,40.7,10.7C845.6,417.3,841.4,415,832.6,419.1z"/>
	<path id="Shape-146" fill="#74CFFF" d="M1306.8,322.9c-3,0.3-0.3,10.8-7.2,9.3c-6.9-1.5-2.3-10.9-7.4-12.4
		c-5.2-1.5-8.9,6.2-18.3,3.8c-4-1-7.5-5-9.1-9.2c10-11.1,24.2-28.8,31.2-27.8s19,32.7,21.2,41
		C1311.8,328.7,1309.8,322.5,1306.8,322.9z M1040.8,307.7c-3.9,1.2-1.4,4.3-3.7,6c-2.2,1.7-2.5-4-7.7-2c-5.3,2,0.5,11.7-5.6,12
		c-6.1,0.2-5.4-9.3-11.8-9.9c-6.5-0.6-11.5,19.6-17.8,15.9c-6.4-3.7,6.9-28.3,6.9-28.3s9-17.4,16.3-17.4c7.3,0,13.2,3.6,29.6,25.8
		C1044.5,308.6,1042.3,307.3,1040.8,307.7z M786.4,393.8c-1.2,3.7,1.3,12.5-2.9,16.3c-3.6,3.8-7.6-7.2-12-5.6
		c-4.4,1.6,1.2,17.4-5.7,17.2c-6.9-0.2-4.7-14.9-9.9-15.9c-5.2-1-6.8,10.6-11.6,9.2c-4.7-1.4,0.5-14.7,0.5-14.7s10.9-26.9,18.2-26.5
		c7.3,0.3,6.5,9.5,18.3,15.2c5.8,4.3,7.2-9.8,10.8-4.5c1.7,2.6,3,3.3,3.6,6C796.4,393.4,787.4,390.6,786.4,393.8z"/>
	<path id="Shape-143-copy" fill="#0089D1" d="M2595.4,542.9c11.7-11.7,2.1-66.1-5.4-65.9c-7.5,0.2,2.9-21.5-4.6-21.3
		c-7.5,0.2-36.5-23.4-43.2-23.4c-6.7,0-11.6,12.9-18.2,14c-6.6,1-29-43.1-36.5-42.1c-7.5,1.1-15.3-5.7-20.3-6.4
		c-5-0.7-10.2-24.9-16-25.8c-5.8-0.8-15.4,12.6-22.9,12.4c-7.5-0.2-19.8-11.2-30.6-12.2c-10.9-0.9-27.5-27.1-36.3-27.7
		c-8.8-0.6-6.6,4.7-20.3,3.9s-16.7-11.6-25-11.8c-3.7-0.1-22.2,16.2-25.7,14.7c-4.3-1.8-8.4-4.9-11.1-4.4c-5,1-5.5-15.7-11.3-14.6
		c-5.8,1-3.8-23.4-13.7-23.1c-10,0.3-7.3,7.7-14,9.5c-2,0.6-8.5,16.3-11.4,15.8c-1.9-0.3-5.1-5.8-8.1-6.1c-2.9-0.3-5.3-2.9-7.4-3.4
		c-3.5-0.8-22.2-38.3-25.7-38.2c-10.8,0.3-39.4,43.9-47.7,45c-8.3,1.1-12-11-18.6-9.2c-6.6,1.9-33.6,21.7-41.1,22
		c-7.5,0.2-16.7-25.7-26.7-25.8c-10-0.1-16.6,8-22,8.1c-5.4,0.2-8.8-4.9-12.9-4.8c-4.2,0.1-10.5,4.1-15.5,3.5
		c-5-0.7-10.4-32.2-19.6-32.8s-62.2,87.2-68.8,89.1c-6.6,1.9-8.4-3.2-17.5-2.1c-9.1,1.1-44.1,55.8-35.1,68.8
		C1999.3,546.5,2583.7,554.6,2595.4,542.9z"/>
	<path id="Shape-149-copy" fill="#0098E8" d="M2567,466.8c-6,6.4-14.6-3.7-14.6-3.7s-11.1,7.6-16.4,4.6
		c-19.4-7.1-5.2-20.9-14.4-19.6c-9.3,1.3,3.3,12.2-16,3.9c-9.3-0.7-18.3-25.3-28.7-26c-10.4-0.7-14.2,8.7-24.7,3.9
		c-10.5-4.9-1.5-14.4-10.9-17.3c-9.4-2.8-1.7,9.6-10.1,5.7c-8.4-3.9-5.6-7-14-10.9c-8.4-3.9-20.8-1.7-18.9-8
		c1.9-6.3,36.4-17,43.2-24.2s29.6,12.2,29.6,12.2l23,10.8c0,0,1.3,0.9,5,7.1c3.5,5.9,14.9,33.1,23.7,37.9s10.4-12.9,21.4-10.2
		s23,14.9,23,14.9S2573,460.4,2567,466.8z M2347.8,349.4c-10.1-0.7-6.7,11.2-14.7,13.5s-12.4-0.5-22.5-1.2
		c-10.1-0.7-0.2,16.3-7.2,18.5c-7,2.2-12.9-16.9-22-18.6c-9.1-1.7-6.4,13.5-15.4,13.8c-9,0.3-19.6-24.3-27.9-32.1
		c-8.3-7.8-16.6,24.4-27.7,21.8s-23.5-16.8-30.6-16.6c-7,0.2-5.7,11.2-14.9,7.5c-9.2-3.7-13-5.9-23,5.7c-10,11.7-16-3.3-16-3.3
		s36.4-64.3,59.7-84.2c3.9-3.3,24.6,47.5,29.7,46.2c2.9-0.9,2.6-8.8,5.6-8.8c3,0,2.5,9.8,8.3,10.8c4.6,0.8,8-16.2,11.9-15.2
		c9.3,2.4,5.1-8.1,10.6-8.1c13,0,4,16.1,15.4,22c5.1,2.6,5,12.6,11.1,15.8c2.8,1.5,9.7,8.9,12.7,10.4c4.5,2.3,23.1-16.4,27.5-14.1
		c21.4,10.9,21.1,16.4,27.4,15.7s9.1-7.9,13.4-7.9s12.9,10.1,13.3,11.8C2377.2,369.6,2357.8,350.1,2347.8,349.4z M2051.9,349.2
		c-12.8-2.8-9.4,9-16.8,10.3c-7.4,1.3-1.2-12.3-11.8-12c-10.6,0.3-3.6,21.3-14.2,19.5c-10.6-1.8-4.1-26.1-14.7-24.7
		c-10.5,1.4-12.9,60.7-23.5,60c-10.6-0.7-2.7-43.9-13.3-43.5c-10.6,0.3-21.1,26.6-26.2,33.1c-5.1,6.5-11.8-3.9-19.2-4.7
		c-7.4-0.8-9.1,13-15.5,12.1c-26-3.5,3-20.1,10.6-33.3c3.4-5.8,6.9,17.4,10.4,10.1c16.7-34.6,66.1-93.8,66.1-93.8
		s14.4,28.6,19.7,34.9c8.3,2.1,11.6-12.8,19.2-10.9c2.7,2.4,3.8,13.6,9.3,13.3s23-12.3,27.1-4.6c8.4,15.8,21.2,30.1,21.2,30.1
		s13.2,17.6,1.7,22.2C2070.6,371.9,2064.7,352,2051.9,349.2z"/>
	<path id="Shape-146-copy" fill="#74CFFF" d="M2489.3,398.1c-5,1-1.2,8.4-7.9,8.6c-6.7,0.2-3-8.3-7.2-9.8c-4.2-1.5-8,18.2-11.5,14.5
		c-9.4-8.5,14.4-31.4-1.2-24.7c-5-1.1,1.2,2.6-4.2,2.4c-5.4-0.3-2.6,8.8-6.4,8.5c-3.8-0.3-0.9-12.5-4.3-13.2
		c-3.4-0.7-3.9,3.9-7.7,1.9c-1-0.5-1.2-3.2-1.1-6.8c0.8-2.9,10.6-10.7,14.1-10.7s10.4,13,14.9,13.5s11.6,10.5,22.1,10.5
		c3.3,0,11,13.5,11.4,14.1C2495.8,408.3,2494.2,397.1,2489.3,398.1z M2194.4,310.3c-5.1,1.9,0.5,11.2-5.4,11.5s-5.1-8.9-11.4-9.5
		c-6.2-0.6-11,18.8-17.2,15.3c-6.1-3.5,8.6-33.8,8.6-33.8s13.5-21.5,17.3-20.8s15.9,27.5,19,33.5c-3.8,1.1-1.4,4.1-3.5,5.7
		C2199.7,313.8,2199.4,308.4,2194.4,310.3z M1985.5,312.4c-6.2,0.6-5.5,9.7-11.4,9.5c-5.8-0.2-0.3-9.6-5.3-11.5
		c-5.1-1.9-5.3,3.5-7.4,1.9c-2-1.7,19.8-32.4,24-30.9s19.6,41.4,17.3,46.3C1996.5,331.2,1991.8,311.8,1985.5,312.4z"/>
	<path id="Shape-324" fill="#137FB7" d="M2036,459.5l15.9-10.7h-8.8l15.9-14.3l-7.1,0.9l13.3-12.5l5.3,14.3l-6.2-2.7l11.5,18.7
		l-8-0.9L2082,464L2036,459.5z"/>
	<path id="Shape-324-copy-6" fill="#137FB7" d="M2334,484.8l11.4-7.6h-6.3l11.4-10.1l-5.1,0.6l9.5-8.8l3.8,10.1l-4.4-1.9l8.3,13.2
		l-5.7-0.6l10.2,8.2L2334,484.8z"/>
	<path id="Shape-324-copy" fill="#137FB7" d="M2133.1,463.1l-13.2-17.2l8.7,1.5l-12.6-20.7l6.8,2.1l-8.5-16.2l-10.2,14.7l6.6-1.6
		l-15.2,20.4l8,0.5l-16.6,13L2133.1,463.1z"/>
	<path id="Shape-324-copy-2" fill="#137FB7" d="M1390.1,451.1l-13.2-17.2l8.7,1.5l-12.6-20.7l6.8,2.1l-8.5-16.2l-10.2,14.7l6.6-1.6
		l-15.2,20.4l8,0.5l-16.6,13L1390.1,451.1z"/>
	<path id="Shape-324-copy-3" fill="#137FB7" d="M1171.9,459.8l-15.8-14.8l8.8,0.1l-15.8-18.4l7.1,1l-10.9-14.6l-7.6,16.2l6.2-2.6
		l-11.7,22.6l8-0.8l-14.3,15.5L1171.9,459.8z"/>
	<path id="Shape-324-copy-4" fill="#137FB7" d="M1189,462.5l-9.6-9.1l5.4,0l-9.6-11.2l4.3,0.6l-6.7-8.9l-4.7,9.9l3.8-1.6l-7.1,13.8
		l4.8-0.5l-8.7,9.4L1189,462.5z"/>
	<path id="Shape-324-copy-5" fill="#137FB7" d="M770,502.5l-9.6-9.1l5.4,0l-9.6-11.2l4.3,0.6l-6.7-8.9l-4.7,9.9l3.8-1.6l-7.1,13.8
		l4.8-0.5L742,505L770,502.5z"/>
	<path id="bg-copy-2" fill="#40A35F" d="M654,642V509l2,3l3-4v4l6-5l-1,6l6-7l-1,7l4-7l-1,8l5-10v6l2-6l1,6l5-5v5l4-6l1,6l3-6l1,5
		l6-6l-2,6l6-6l-1,5l6-5l-2,4l5-4l-1,4l3-5v4l3-4v4l3-4l1,4l3-4v3l4-3l1,2l3-3l1,2l2-4l1,3l3-3l1,4l4-4l-1,4l4-4l1,3l2-5v4l5-4l-1,4
		l3-3v3l6-4v5l5-6v4l5-5v4l4-5v5l2-1l2-2v2l2-2l1,2l2-4l2,3l4-2l1,2l4-2l1,2l4-2l1,1l6-3l1,2l2-3l1,3l5-3l1,2l3-3l1,2l4-4l1,3l3-4v4
		l7-4l-1,5l3-7v6l5-4v3l3-5l1,4l2-5l2,3l4-3l1,4l3-4l2,3l2-3l2,3l3-4l2,3l3-4l1,3l4-3l1,3l2-4l1,3l4-3l1,2l3-1l1,2l2-3l3,2l3-2l1,1
		l2-2l1,2l2-3l2,3l4-4l1,3l1-3l2,2l2-1l2,1l1-1l3,1l2-2l2,2l6-3l1,2l4-2l1,2l4-4l1,3l3-4v3l4-1l2,1l4-3l2,2l4-2v3l3-3l3,2l50-5l2-5
		l2,5l2-3l1,1l3-1l1,2l3-3v3l7-3l1,2l2-4l2,3l2-1l70-5l3-2l1,2l2-2l1,1l2-1l2,1l8-2l1,2l2-3l2,2l49-3l4-3v2l2-2l1,1l4-1l2,1l2-1l2,2
		l3-3l1,1l2-2l2,2l5-1l2,1l3-3l1,3l5-3l1,2l3-2l1,2l2-1l2,1l2-2l1,1l1-2l1,2l5-1l1,2l3-2l3,1l3-2l1,2l4-2l3,3l2-4l1,2l24-1l6-3l1,2
		l3-2l1,2l3-6l1,6l4-4l1,2l2-2v3l4-4v3l3-4v4l4-3v3c0,0,1.4-1.1,2.7-2.2c1.2-0.9,2.3-1.8,2.3-1.8l2,1l-1,3l4-2l2,2l3-2l1,2l3-2l1,2
		l2-2l2,1l4-3v3l3-4v3l4-3l1,3l3-2l1,3l2-3l1,2l1-2l1,1l2-2l3,2l1-3c0,0,1.8,2.5,3,2s6-3,6-3v4l54-4h5h5h5h5l4-1h8l5-1l5,1l4-1h4h13
		h4h5l13,2h5l4-1l10-1h5h5l4,1h4h5h4l4,1l2-1l4-1h3h4h5h5h18l5,3l7-2l5-1l6,1h2l6,1h5h8l4-2h2l4,1l40-1h2l1,1h4l4,1h7h5l3,1l6-1l3,1
		l5-1h3l6,1l5-2l3,1h4l5,1h4l4-1l4,1l4,1l5-1l5,1l3,1l4-1l4,1h2l5,2l5-1h3l4-3l3,4l5-3l1,3l5-3l1,3l5-2l-1,4l8-3l-1,3l5-3l-1,3l4-3
		l1,2l7-1l-1,3l16-1l6-1l1,2l4-2v3l3-3l2,2l2-3v3l6-2l-2,3l7-4l1,5l5-4v4l4-4l2,4l5-3v2l3-3v4l4-2v2l6-3l-2,3l6-2v3l4-2v3l5-3l1,2
		l4-2l1,3l4-3l1,3l2-1l1,2l2-2l2,2l1-2l1,2l2-2l2,2l3-2l1,2l3-2l4,1h4l1,1l3-2l1,2l2-2l1,3l3-2l1,1h2v1l4-1l1,2l3-1l1,2l5-4l-2,4
		l7-3l-1,4l4-4l1,2l5-3v3l3-1v3l2-4v4l4-2v3l4-3v3l6-3v3l5-2v2l2-2l1,2l2-2l1,2l3-2v3l3-3v3l3-2l1,2l4-2l1,2l3-2v2l3-2v2l4-2l1,1
		l3-2v3l3-1l1,2l2-2l1,2l3-1v1l3-1v2l3-2l2,2l3-3v3l3-2l1,2l5-2l-1,3l3-2v3l4-1l4,1l49,7l15,1l4-1v1l3-1l2,2l2-1l1,1l3-3v4l2-3l1,3
		l7-1l4-2v4l4-2l1,2l4-1l1,2l5-1v1l4-3v4l3-3v2l2-3v4l2-4v3l2-1v3c0,0,1.9-1.3,2.7-1.8c0.2-0.1,0.3-0.2,0.3-0.2h3v1l4-2v3l4-1l1,1
		l4-2l2,2h5l1,2l4-3l2,4l2-3v3l2-3l1,2c0,0,0.2-0.2,0.5-0.5c0.6-0.6,1.5-1.5,1.5-1.5l2-2v5l2-3l2,3l2-3l1,3l7-1l1,2l2-3l1,3l3-3
		l-1,4l4-3l-1,3l6-1h7h4h7v1l2-2l1,3l1-2l1,2l3-1l3,3l3-3l1,4l4-3l-1,3l5-3v3l4-3l1,3l2-1l-1,2l3-1l-1,2l6-2v2l4-2v2l3-2v2l5-1l-1,2
		l3-1l3-1v3l4-3l-1,3l3-3v4l4-2h2l-2,2l5-2l-1,4l3-3l1,2l1-2c0,0,0.3,0.6,0.6,1.2c0.2,0.4,0.4,0.8,0.4,0.8h2l1-1v2l2-2v2l2-2l1,1h2
		h2l3,1h14l6-1v3l2-2l4,1l3-1l-1,2l6-5l-3,7l5-4l-2,3l5-4l-1,3l3-4l-1,4l4-4l-1,4l3-2l1,2l3-2v3l5-1l2,1l4-1l-1,2l5-2l-3,3l4-2l1,2
		l3-2v2l3-3v3c0,0,1.6-1.1,2.4-1.6c0.3-0.2,0.6-0.4,0.6-0.4l2-1v4l3-3v2l4-2v3l2-2l1,2l2-3v1h3v1l3-1l-1,3l3-3l1,3l3-2l1,1l2-1l-1,2
		l4-1l-1,2c0,0,0.9-0.6,1.7-1.1c0.7-0.5,1.3-0.9,1.3-0.9l2-1v3l3-3v2l4-2l-2,3l3-1l-2,4l6-3l-1,3l5-4v3l2-2v140H654z"/>
	<path id="Rectangle-15" fill="#3D9C5B" d="M2469.3,564.6l-0.2-3l1.4,0.7l0.7,0.2L2469.3,564.6z M2466.1,560l2.8,1.4l-1.8,1.7
		C2466.8,562.1,2466.1,560,2466.1,560z M2466.9,563.2l-3.4,3l0.6-3.6c0.7,1.2-0.2-4.1-0.2-4.1S2466.2,561.9,2466.9,563.2z M2462,561
		l-2.1,1.3c-0.2-0.7-0.5-1.6-0.8-2.5l0.4-1.1c0.5,1,1,1.9,1,1.9l0.8-2.1c0,0,1.5,1.8,2.5,3.7l-4.6,6L2462,561z M2458.2,557
		c-0.5-1.5,0.3-0.3,1.1,1.1l-0.5,0.5C2458.6,558.1,2458.4,557.5,2458.2,557z M2459.1,561.9c0.2,0.2,0.3,0.4,0.4,0.6l-1.9,1.2l1-2.5
		C2458.8,561.4,2458.9,561.7,2459.1,561.9z M2456.1,557c0.3,0.6,0.9,1.6,1.6,2.7l-3.9,3.8L2456.1,557z M2450.5,561.3l0.3,0.4
		l-0.2-0.9l0.6-2.7l-1,1l-0.7-3.2l4.3,3.7l1.9-3.4c0,0,0.2,0.3,0.4,0.9l-6.2,6.7L2450.5,561.3z M2446.5,560.5l0.4,0.5l-0.2-1.1
		l0.4-1.5l-0.6,0.7l-0.7-3.3l3.5,4.1l-3.8,4L2446.5,560.5z M2442.7,563.6l0.9-4.2c0.1,0.1,0.2,0.2,0.3,0.3c1,1.3-0.5-3.3-0.5-3.3
		l2.7,3.4L2442.7,563.6z M2439.4,562.7l1.4-5.2l-3.9,4.3l0.9-3.2l-1.3,0.7c0.2-0.3-0.6-4-0.6-4l3.7,3.2c0,0,1.3-1.7,0.6-3.2
		c-0.6-1.3,2,2.3,3.2,3.9L2439.4,562.7z M2436.3,559.1c0.1,0.2,0.1,0.2,0.2,0.3l-3.9,2l1.7-2.7l-5.7,1.7l-0.1-3.5l-1.2,1.7l-0.8-5.5
		l5.1,5.4l-0.9-4.9C2430.8,553.5,2435.6,557.6,2436.3,559.1z M2424.8,562.1l-0.2-5.1l-3.9,4.3l0.7-3.1c0.1,0.2,0.2,0.3,0.3,0.4
		c0.3,0.4,0.2-0.2-0.1-1.1l0.4-1.8l-0.8,0.8c-0.7-2-1.8-4.7-1.8-4.7l7.5,7.2L2424.8,562.1z M2420.7,557.1l-2.5,2.7l1.3-4.4
		C2420,556,2420.4,556.6,2420.7,557.1z M2418.2,557c-0.4-2.1-1.3-5.3-1.9-6.5c-0.6-1.3,1.4,2,3.2,4.8L2418.2,557z M2412.3,551.7
		c0,0,2,2.8,3.7,4.9l-1.1,1C2413.8,555,2412.3,551.7,2412.3,551.7z M2406.3,560.4l2.7-5.9l-1.4,1.2l-1.1-5.8c0,0,3.4,5.5,4.2,6.5
		c0.8,1-1.5-4.6-2.1-5.8c-0.4-0.8,1.8,2.5,3.9,5.5L2406.3,560.4z M2401,561.6l3.9-6.7l-7.3,4.1l1.3-4.9l-4.1,5.8l-0.8-5.8l1.4,2.6
		l1.5-5.7l3.9,5.9l0.4-5.9l6.1,4.9L2401,561.6z M2389.7,553.5l-1.9,1.2l-1.8-4.2l6.7,5l-0.6-5l1.9,3.6l-4.6,5.4L2389.7,553.5z
		 M2384.2,556.9l0.1-0.3l-0.7,0.7l-0.9,0.6l0.8-2.4l0.4,0.4l-0.3-0.9l0.8-2.5l2.5,2.8L2384.2,556.9z M2381.9,549.6l2.3,2.6
		c-0.3,0.3-0.6,0.8-1.1,1.4L2381.9,549.6z M2379.6,557.8c-0.7,0.7,0.8-2.1,1.9-4l0.9,0.8C2381.3,555.9,2380.1,557.3,2379.6,557.8z
		 M2378.3,553.3c0.2-0.3,0.3-0.4,0.3-0.4s-0.1,0.1-0.3,0.3l-1.2-3.4l4.1,3.6c-0.6,0.6-1.3,1.4-2,2.3L2378.3,553.3z M2372.1,559.4
		c-0.4,0.3-0.4,0-0.3-0.6l0.5-1.2l-0.3,0.2c0.4-1.3,1.1-3.2,1.8-4.7l1.1,1.8l-0.6-2.9c0.2-0.3,0.3-0.6,0.4-0.8
		c0-0.1,0.1-0.1,0.1-0.2l2.7,3C2375.9,555.7,2373.1,558.7,2372.1,559.4z M2373.9,549.9l0.9,1c-0.1,0.1-0.3,0.3-0.6,0.6L2373.9,549.9
		z M2368.3,558.6l2.4-4.8l-0.3,0.3c0.4-0.7,0.7-1.3,0.9-1.6l0.9,1.2l-0.8-4.6l2.1,3.5C2371.7,554.5,2369.1,557.8,2368.3,558.6
		C2368.4,558.5,2368.4,558.6,2368.3,558.6z M2368.8,549.2l2.3,3.1l-1.8,1.3L2368.8,549.2z M2366.7,553.2l-1.3,1.2l0.7-4.2l2.7,3.9
		l-3.6,2.7L2366.7,553.2z M2363.2,556.5l0.9-3.5l0.9,1.7L2363.2,556.5z M2350.1,553.8c0-0.1,0.1-0.2,0.1-0.4l0.1,0.1L2350.1,553.8z
		 M2361.7,553.9l-3,2.7l1.3-4.2c0,0-1.2,0.8-2.5,1.7l0-0.1l-0.3,0.3c-1.4,1-3,2.3-3.5,2.9c-0.9,1.4,0.8-3.7,0.8-3.7l-4.1,2.7
		c0,0-0.2-0.3-0.3-0.7l1.1-3.1l-0.8,0.8l-0.7-4.7l3.4,4.8l-0.5-3.3l4.8,3.4l-1.4-2.9l5.4,2.4l0.5-3.4l1.7,3.2l-2.5,2L2361.7,553.9z
		 M2347.5,555.8l0.8-2.3l-1,0.4l-0.3-3.8l3,3.2C2349.4,553.8,2348.3,554.9,2347.5,555.8z M2343.9,555.4l0.4-1.2l0.2,0.3l-0.1-0.6
		l0-0.1l0.4-0.5l-0.2,0l0.2-0.4l-0.5,0.4l-0.7-4.4l3.4,5.1l-0.1,0.1L2343.9,555.4z M2340.6,554.2l0.6-1.7l-1,0.7l-0.6-5.2l4.2,5.6
		L2340.6,554.2z M2336.2,554.7l-0.9-2.3l0-0.7l1,1.3l-1.5-6.8l3.9,5.4L2336.2,554.7z M2331.2,554.8c0.4-0.9,0.8-1.7,1.1-2.3
		c0,0,0,0,0,0l0.2,0.3l-0.1-0.5c0.2-0.5,0.2-0.5-0.1-0.3l-0.2-0.6l0.6-1.9l-0.9,0.8l-1.1-4.2l4.1,5.2L2331.2,554.8z M2327.8,551.7
		l-0.4-1.7l0.3-0.8l-0.4,0.3l-1.2-5.1l3.9,4.9L2327.8,551.7z M2326.8,549.9l-5.5,4.1l3.3-5.5l-7.8,4.6l3.1-5.7l-8.5,6.5l4.4-6.4
		l-7.5,3.6l1.6-4.8l-4.5,5.5l-0.4-5.9l-5,5.1l0.8-5.9l-7.3,3.8l1.7-4.2c0,0,0,0,0,0.1c0.4,0.5,0.4,0.1,0.2-0.7l0.4-1
		c0,0-0.2,0.2-0.5,0.5c-0.3-1-0.6-2.2-0.6-2.2l3.7,4.7l-1.1-5.2l4.9,5.8l-1.3-5.8l4.3,3.7l1.9-3.4c0,0,1.2,2.6,3.5,5.8
		c2.3,3.2,0.5,1,0.8,1.5c0.5,1.1,0.6,0.9,0.4,0l-1.3-4.1l0-0.3c-0.2-0.8-0.5-1.5-0.7-2c-0.5-1.4,0.1-0.5,0.9,0.8l0.4-3l3.9,5.9
		l-0.4-4.5l3.5,5.3c-0.2-0.8-0.5-1.5-0.5-1.5l1.2,0.6l0.3-1.6l2.8,3.2l2,0.7l-0.1-3.2L2326.8,549.9z M2290.3,548.5
		c-1,0.8,2.4-4.2,3.1-5.3c0.8-1-5.8,5.7-8.5,8.1c-2.6,2.4,4.6-7.8,4.6-7.8s-5.5,5.1-6.9,6c-1.4,0.9,1.7-5.9,3.1-7.9
		c0.9,0.9,1.6,1.7,1.9,2.2c0.7,1.4-0.4-3.7-0.4-3.7l3.7,3.2c0,0,1.3-1.7,0.6-3.2c-0.6-1.3,1.9,2.1,3.1,3.8
		C2293.3,545.5,2291,548,2290.3,548.5z M2279.6,547.9l1-2.1l0-0.5c0.7-1.1,1.4-2.2,1.7-2.7l0.7,0.7l-0.9-4.9c0,0,2,1.7,3.6,3.2
		C2284.5,542.8,2281.2,546.4,2279.6,547.9z M2280.6,543.5l0-2.3l-1.9,2.2l-0.8-5.4l4.3,4.5L2280.6,543.5z M2276.1,546.4l-0.2,0.1
		l0.8-4.1l1.5,1.4L2276.1,546.4z M2275.4,542.1l-3.4,2.4l0-0.2l-0.9,0.8l-1.8,1.3l1.9-4.6c0,0-0.6,0.3-1.5,0.9c-0.2-2.1-1.3-6-2-7.3
		c-1-2,4.4,6.8,5.3,8.1c1,1.3-2.2-6.8-2.2-6.8l5.9,5.6l-2.4,2.8L2275.4,542.1z M2266.9,544.4c-0.8-2.5-3.3-7.8-3.3-7.8
		s3.4,4.7,5.1,6.6C2268.1,543.6,2267.5,544,2266.9,544.4z M2261.5,545c0,0-0.1-0.2-0.2-0.4l1.7-4.2l-0.9,0.9
		c-0.2-0.9-1.8-4.8-2.2-5.7c-0.4-0.9,2.8,3.9,5.2,7.4L2261.5,545z M2262.1,541.4l-0.7,0.7c0.1-0.1,0.1-0.2,0.2-0.3
		c1-1.3-3.1,2.5-4.3,3.6c0,0,0,0,0,0l1-2.8c0.1-0.2,0.2-0.4,0.2-0.4l-0.1,0.1l0.5-1.5l0.2,0.2l-0.1-0.5l0.2-0.4l-0.2,0.2l-1.1-5.5
		C2257.8,534.8,2261.2,540.3,2262.1,541.4C2262,541.3,2262,541.4,2262.1,541.4z M2254.2,545.2l1.7-4l-2.2,1.7l0.4-1.8l-3.8,3.9
		l1.6-3.6l0.2,0.3l0.1-1l0.1-0.2l-0.1,0.1l0.3-4.7l5.9,4.7L2254.2,545.2z M2249.9,541.9l0.1-0.4l-0.6,0.7l-2,1.1l-0.7-2.1l1.5-5.4
		l3.4,5.1L2249.9,541.9z M2243,543.3l0.8-2.8l-1.5,1.6c0.4-0.8,0.9-1.6,1.2-2.2l0.5,0.4l-0.6-5l2.5,4.7
		C2245.4,540.7,2244.4,541.9,2243,543.3z M2240.5,542.9l0-0.3l0.3-1l-0.4,0.2l-0.2-1.2c0,0-0.2,0.1-0.5,0.4l-2.4-5.6l5.9,4.4
		C2242.3,540.8,2240.5,542.9,2240.5,542.9z M2239.4,541.4c-0.6,0.5-1.3,1.2-2,2.1l-0.9,0.5c0.1-0.4,0.3-1.1,0.5-1.7l0.3-0.5
		l-0.2,0.1c0.3-0.8,0.5-1.4,0.5-1.4s-0.8,0.8-1.7,1.8l-1.3,0.4c0.3-0.6,0.6-1.1,0.6-1.1l-3.7,1.1l0-2.5l-2.1,3l-1.5,0.2l0.4,1.3
		l-0.5,0.7l-0.2-5.1l-3.9,4.3l1.3-5.6l-3.8,4.1l1.4-4.5l-4.2,5.3l1.5-4.8l-6.1,5.3l2.4-4.8l0.4,0.7l0.8-5l3.4,4.8l-0.6-5.8l3.2,4.5
		l-0.8-4.6l3.5,5.8l-0.9-4.9l5.4,6l-2.2-6.1l6.8,6l-1.9-6.2L2239.4,541.4z M2211.9,537.6l-8,7.1l3.9-6.7l-7.3,4.1l1-3.8l0.6,0.6
		l-0.8-5.3l3.4,4.8l-0.5-3.3l4.8,3.4l-1.4-2.9l5.4,2.4l0.5-3.4l2.5,4.5l-6.8,4.6L2211.9,537.6z M2196.9,537l-1.2,1.4l-0.8-4.7
		l3.8,5.7l-0.4-4.5l2.8,3l-3.5,5L2196.9,537z M2192.2,542.5l0.3-5.9l-1.2,0.8l-0.6-3.4l4.6,4.9L2192.2,542.5z M2186,532.3l4.7,5.4
		l-5.2,3.2l1-3l0.9,1.2l-0.5-2.4l0.6-1.8c0,0-0.3,0.4-0.8,1L2186,532.3z M2183.5,538.5l0.3,0.2l-0.1-0.5c0.5-0.9,1-1.8,1.4-2.4
		l0.9,1.1c-1.2,1.5-2.7,3.3-3.3,3.8C2182,541.3,2182.7,540,2183.5,538.5z M2182,532.1l2.9,3.6c-0.4,0.4-0.9,1-1.5,1.6L2182,532.1z
		 M2180.8,540.2l-0.5-2.3c0.3-0.5,0.6-1,0.8-1.3l1.7,1.4C2182.2,538.7,2181.5,539.4,2180.8,540.2z M2179.7,535.5l1.2,1
		c-0.2,0.2-0.5,0.5-0.8,0.8L2179.7,535.5z M2177.4,544c-1.5,1.6,0.3-1.8,2-4.6l0.9,1.5C2179.2,542.1,2178.2,543.2,2177.4,544z
		 M2177.3,535.6l1.7,3c-0.5,0.5-1,1.1-1.5,1.6L2177.3,535.6z M2175,542.4c-0.8,0.6-0.2-1.6,0.7-4l1.6,1.9
		C2176.3,541.3,2175.5,542.1,2175,542.4z M2173.7,536.2l1,1.2c-1.4,1.8-3,3.6-3.5,4.2C2170.4,542.5,2172.6,538.3,2173.7,536.2z
		 M2172.7,535l0.7,0.8l-1,0.8L2172.7,535z M2167.4,536.6l3.4,1.1l-3.1,2.3L2167.4,536.6z M2166.3,538.9l1,1.5l-1.8,1.3L2166.3,538.9
		z M2163.8,535.2l1.3,2l-1.8,1.5L2163.8,535.2z M2379.1,555.8c-1.6,1.9-3.5,4-4.6,5.2c-1.9,2,1.6-3.9,3.2-6.7L2379.1,555.8z
		 M2339.9,553.3l-0.8,0.5l0.1-1.6L2339.9,553.3z M2331.2,550.9l-2.4,2.3l1.4-3.6L2331.2,550.9z M2327.8,551.7l-1.9,2.1l1.3-3.2
		L2327.8,551.7z M2264.7,546.2c-0.7,1,0.2-1.5,0.8-2.8c0.4,0.5,0.7,1,1,1.4C2265.6,545.3,2265,545.8,2264.7,546.2z M2332,552
		l0.2,0.2c-0.1,0.1-0.2,0.3-0.4,0.4L2332,552z M2414,558.4l-3.2,2.7l2.1-4.2C2413.4,557.4,2413.7,557.9,2414,558.4z M2415.5,560.5
		l-0.1,0.1L2415.5,560.5C2415.5,560.4,2415.5,560.4,2415.5,560.5z M2417.3,558.2l-1.5,1.9c0-0.1-0.1-0.2-0.1-0.3l0.8-2.5
		C2416.8,557.6,2417,558,2417.3,558.2z"/>
	<path id="Rectangle-15-cop" fill="#3D9C5B" d="M2057,594.2l2.9-5.8l-1.3,1.1c-0.2-0.7-1.2-3.4-1.2-3.4l4.4,2.1l2.6,0.8l-0.5,1
		L2057,594.2z M2058.5,589.5l-6.9,5.7l4-6.3c0.6,0.8-0.4-4.2-0.4-4.2S2057.9,588.3,2058.5,589.5
		C2058.5,589.5,2058.5,589.5,2058.5,589.5z M2055.6,588.7l-7.2,3.8l1.4-4.9l-4.3,5.6l-0.6-5.9l-4.8,5.3l0.5-5.9l-7.1,4l1.6-4.3
		c0,0,0,0,0,0.1c0.4,0.5,0.4,0,0.2-0.7l0.4-1c0,0-0.2,0.2-0.5,0.6c-0.3-1-0.7-2.2-0.7-2.2l3.8,4.5l-1.3-5.2l5.2,5.6l-1.6-5.7
		l4.4,3.5l1.8-3.5c0,0,1.3,2.5,3.7,5.7c2.4,3.1,0.6,1,0.8,1.4c1.5,2.8-0.8-3.6-1.9-6.3c-1.1-2.7,2.5,3.4,2.5,3.4l0.7-2.2
		c0,0,1.8,2,2.8,4C2055.5,588.6,2055.5,588.7,2055.6,588.7z M2030.4,590.6c-1,0.9,2.2-4.3,2.9-5.4c0.7-1.1-5.6,5.9-8.2,8.4
		c-2.5,2.5,4.3-7.9,4.3-7.9s-5.3,5.3-6.7,6.3c-1.4,0.9,1.5-5.9,2.8-8c0.9,0.8,1.7,1.6,2,2.1c0.7,1.4-0.5-3.7-0.5-3.7l3.8,3.1
		c0,0,1.3-1.8,0.5-3.2c-0.7-1.3,1.9,2,3.3,3.7C2033.3,587.5,2031.1,590,2030.4,590.6z M2019.7,590.4l0.9-2.2l0-0.5
		c0.6-1.1,1.3-2.2,1.6-2.8l0.7,0.7l-1.1-4.9c0,0,2,1.6,3.7,3.1C2024.4,585.1,2021.2,588.8,2019.7,590.4z M2020.6,585.9l-0.1-2.3
		l-1.8,2.3l-1-5.4l4.5,4.4L2020.6,585.9z M2016.2,588.9l-0.2,0.1l0.7-4.1l1.6,1.4L2016.2,588.9z M2015.3,584.8l-3.3,2.5l0-0.2
		l-0.8,0.8l-1.7,1.3l1.7-4.7c0,0-0.6,0.4-1.5,0.9c-0.3-2.1-1.5-5.9-2.2-7.2c-1-2,4.6,6.7,5.6,7.9c1,1.3-2.4-6.7-2.4-6.7l6.1,5.4
		l-2.3,2.9L2015.3,584.8z M2006.9,587.3c-0.9-2.4-3.5-7.7-3.5-7.7s3.5,4.6,5.3,6.5C2008.1,586.5,2007.5,586.9,2006.9,587.3z
		 M2001.5,588.1c0,0-0.1-0.2-0.2-0.4l1.6-4.3l-0.9,0.9c-0.2-0.9-2-4.7-2.4-5.6c-0.5-0.9,3,3.8,5.5,7.2L2001.5,588.1z M2001.9,584.5
		l-0.7,0.7c0-0.1,0.1-0.2,0.2-0.3c0.9-1.3-3,2.6-4.2,3.8c0,0,0,0,0,0l0.9-2.8c0.1-0.2,0.2-0.4,0.2-0.4l-0.1,0.1l0.5-1.5l0.2,0.2
		l-0.1-0.5l0.1-0.4l-0.2,0.2l-1.3-5.4C1997.4,578.1,2001,583.4,2001.9,584.5C2001.9,584.4,2001.9,584.5,2001.9,584.5z M1994.2,588.6
		l1.5-4.1l-2.1,1.8l0.4-1.9l-3.6,4l1.5-3.6l0.2,0.3l0-1l0.1-0.2l-0.1,0.1l0.1-4.7l6.1,4.5L1994.2,588.6z M1989.8,585.5l0.1-0.4
		l-0.6,0.7l-1.9,1.2l-0.8-2l1.3-5.5l3.6,5L1989.8,585.5z M1982.9,587.1l0.7-2.8l-1.4,1.7c0.4-0.8,0.8-1.6,1.2-2.2l0.5,0.3l-0.8-5
		l2.7,4.6C1985.3,584.4,1984.3,585.6,1982.9,587.1z M1980.5,586.8l-0.1-0.3l0.2-1l-0.4,0.2l-0.2-1.2c0,0-0.2,0.1-0.4,0.4l-2.6-5.6
		l6.1,4.2C1982.1,584.6,1980.5,586.8,1980.5,586.8z M1979.3,585.3c-0.5,0.5-1.3,1.3-1.9,2.1l-0.9,0.5c0.1-0.4,0.3-1.1,0.5-1.7
		l0.3-0.5l-0.2,0.1c0.2-0.8,0.5-1.4,0.5-1.4s-0.8,0.8-1.7,1.8l-1.3,0.4c0.3-0.6,0.6-1.1,0.6-1.1l-3.6,1.2l-0.1-2.5l-2,3.1l-1.5,0.3
		l0.4,1.3l-0.5,0.7l-0.4-5.1l-3.8,4.5l1.1-5.7l-3.6,4.2l1.2-4.5l-4,5.5l1.4-4.8l-5.9,5.5l2.3-4.9l0.4,0.7l0.6-5.1l3.6,4.7l-0.8-5.7
		l3.4,4.4l-1-4.6l3.7,5.7l-1.1-4.9l5.6,5.8l-2.4-6l7,5.7l-2.1-6.1L1979.3,585.3z M1951.7,582.5l-7.7,7.4l3.7-6.8l-7.1,4.4l0.8-3.9
		l0.6,0.6l-1-5.3l3.6,4.7l-0.6-3.3l5,3.2l-1.5-2.8l5.5,2.2l0.4-3.5l2.6,4.4l-6.6,4.8L1951.7,582.5z M1941,583.2l-3.4,5.1l-1-5.8
		l-1.1,1.4l-0.9-4.7l4,5.5l-0.5-4.4L1941,583.2z M1932.2,588.1l0.1-5.9l-1.2,0.8l-0.7-3.4l4.8,4.7L1932.2,588.1z M1925.6,578.1
		l4.9,5.2l-5,3.4l0.9-3l1,1.1l-0.6-2.4l0.5-1.8c0,0-0.3,0.4-0.7,1L1925.6,578.1z M1923.3,584.4l0.3,0.2l-0.1-0.5
		c0.4-0.9,0.9-1.8,1.3-2.4l0.9,1.1c-1.2,1.5-2.6,3.4-3.1,4C1921.9,587.3,1922.5,585.9,1923.3,584.4z M1921.6,578.1l3,3.5
		c-0.3,0.4-0.8,1-1.4,1.7L1921.6,578.1z M1920.7,586.2l-0.6-2.3c0.3-0.5,0.5-1,0.7-1.3l1.8,1.3
		C1922,584.7,1921.4,585.4,1920.7,586.2z M1919.4,581.6l1.3,0.9c-0.2,0.2-0.5,0.5-0.8,0.9L1919.4,581.6z M1917.4,590.1
		c-1.4,1.7,0.3-1.8,1.8-4.7l0.9,1.4C1919.1,588.1,1918.1,589.3,1917.4,590.1z M1917,581.8l1.8,2.9c-0.5,0.5-1,1.1-1.5,1.6
		L1917,581.8z M1914.9,588.7c-0.8,0.6-0.3-1.6,0.5-4l1.7,1.8C1916.2,587.4,1915.4,588.3,1914.9,588.7z M1913.5,582.5l1.1,1.2
		c-1.4,1.8-2.8,3.7-3.3,4.3C1910.4,588.9,1912.4,584.6,1913.5,582.5z M1912.3,581.3l0.7,0.8l-1,0.8L1912.3,581.3z M1907.1,583.1
		l3.4,1l-3,2.4L1907.1,583.1z M1906.1,585.4l1,1.5l-1.7,1.4L1906.1,585.4z M1903.5,581.8l1.4,2l-1.8,1.6L1903.5,581.8z
		 M2004.7,589.2c-0.7,1,0.2-1.5,0.7-2.8c0.4,0.5,0.7,0.9,1,1.3C2005.6,588.3,2005,588.8,2004.7,589.2z"/>
	<path id="Rectangle-15-cop_1_" fill="#3D9C5B" d="M1245,472.8l-1-2.9l1.5,0.3l0.7,0.1L1245,472.8z M1240.8,469.2l3.1,0.7l-1.4,2.1
		C1242,471,1240.8,469.2,1240.8,469.2z M1239.9,475.8l-0.3-3.6c1,1-1.2-3.9-1.2-3.9s3,2.7,4,3.8L1239.9,475.8z M1236.2,478.7
		l0.8-7.5l-1.7,1.7c-0.4-0.7-0.9-1.4-1.3-2.2l0.2-1.2c0.8,0.8,1.4,1.5,1.4,1.5l0.2-2.3c0,0,1.9,1.4,3.3,3L1236.2,478.7z M1235,473.2
		l-1.6,1.6l0.4-2.7c0.2,0.2,0.4,0.4,0.7,0.6C1234.7,472.9,1234.9,473.1,1235,473.2z M1232.5,468.2c-0.9-1.3,0.2-0.3,1.3,0.8
		l-0.4,0.6C1233,469.1,1232.7,468.6,1232.5,468.2z M1229.8,475.6l0.6-6.9c0.5,0.5,1.2,1.3,2.2,2.3L1229.8,475.6z M1226,474.2
		l0.4,0.3l-0.4-0.9l0-2.8l-0.7,1.3l-1.5-2.9l5,2.5l1-3.8c0,0,0.2,0.3,0.7,0.8l-4.4,8L1226,474.2z M1221.8,478l0.1-3.5l0.5,0.4
		l-0.5-1l0.1-1.5l-0.4,0.8l-1.5-3l4.4,3.1L1221.8,478z M1218.9,478.4l-0.2-4.3c0.1,0.1,0.2,0.2,0.3,0.3c1.3,1-1.3-3.1-1.3-3.1
		l3.4,2.7L1218.9,478.4z M1215.6,478.3l0.1-5.4l-2.8,5.2l0.1-3.4l-1.1,1c0.1-0.3-1.5-3.7-1.5-3.7l4.4,2.2c0,0,0.9-2-0.2-3.2
		c-0.9-1.1,2.5,1.7,4.1,3L1215.6,478.3z M1211.7,475.5c0.1,0.1,0.2,0.2,0.2,0.2l-3.3,2.9l1-3l-5.1,3l-0.9-3.4l-0.8,1.9l-2.1-5.1
		l6.3,4l-2.1-4.5C1204.9,471.5,1210.6,474.3,1211.7,475.5z M1201.3,481.2l-1.4-4.9l-2.8,5.2l0-3.2c0.2,0.1,0.3,0.2,0.4,0.3
		c0.4,0.3,0.2-0.2-0.4-1.1l0-1.8l-0.5,1c-1.2-1.8-2.8-4.1-2.8-4.1l9,5.1L1201.3,481.2z M1193.7,477.9c-0.9-2-2.5-4.9-3.4-5.9
		c-0.9-1.1,1.9,1.6,4.3,3.9L1193.7,477.9z M1190.5,479.4c-1.7-2.3-3.9-5.1-3.9-5.1s2.6,2.2,4.8,3.9L1190.5,479.4z M1182.9,484.2
		l1.1-6.4l-1.1,1.5l-2.5-5.4c0,0,4.6,4.5,5.7,5.3c1.1,0.8-2.6-4.1-3.4-5.1c-0.5-0.7,2.4,1.9,5.2,4.4L1182.9,484.2z M1182.9,479.5
		l-4.8,7.1l2.2-7.4l-6,5.8l0-5.1l-2.6,6.6l-2.2-5.5l2,2.2l0.1-5.9l5.3,4.8l-1.1-5.8L1182.9,479.5z M1165.1,481.5l-1.6,1.6l-2.8-3.6
		l7.7,3.2l-1.8-4.7l2.7,3l-3.2,6.4L1165.1,481.5z M1160.6,486.1l0-0.4l-0.5,0.9l-0.8,0.8l0.2-2.5l0.5,0.3l-0.5-0.8l0.2-2.7l3.1,2.1
		L1160.6,486.1z M1156.7,479.6l2.9,2c-0.2,0.4-0.4,0.9-0.7,1.6L1156.7,479.6z M1155.5,486.2l-1.5-2.1c0.1-0.3,0.1-0.5,0.1-0.5
		s-0.1,0.1-0.2,0.4l-2-3l4.9,2.5C1156.5,484.3,1156,485.2,1155.5,486.2z M1149.4,491.5c-0.3,0.3-0.4,0.1-0.5-0.5l0.2-1.3l-0.3,0.2
		c0-1.4,0.3-3.4,0.6-4.9l1.5,1.5l-1.2-2.7c0.1-0.3,0.2-0.6,0.2-0.9c0-0.1,0-0.1,0.1-0.2l3.4,2.3
		C1152.3,486.9,1150.2,490.6,1149.4,491.5z M1148.9,481.9l1.1,0.7c-0.1,0.1-0.2,0.4-0.4,0.8L1148.9,481.9z M1145.7,491.6
		C1145.7,491.6,1145.6,491.6,1145.7,491.6l1.1-5.2l-0.3,0.4c0.2-0.7,0.3-1.4,0.4-1.8l1.2,1l-1.9-4.3l2.9,2.8
		C1147.9,486.9,1146.2,490.7,1145.7,491.6z M1145.4,486.6l-1.6-4.2l3,2.5L1145.4,486.6z M1142.1,490.6l0.6-3.8l-1,1.5l-0.4-4.3
		l3.6,3.1L1142.1,490.6z M1140.1,490.8l0.1-3.6l1.3,1.4L1140.1,490.8z M1138.1,488.7l-2.3,3.4l0.3-4.4c0,0-0.9,1-2,2.3l0-0.1
		l-0.2,0.3c-1.1,1.4-2.4,2.9-2.6,3.7c-0.5,1.5-0.1-3.8-0.1-3.8l-3.3,3.6c0,0-0.2-0.2-0.4-0.6l0.3-3.2l-0.6,0.9l-1.8-4.4l4.4,3.8
		l-1.3-3.1l5.5,2.1l-2.1-2.5l5.9,1l-0.4-3.5l2.5,2.7l-1.9,2.6L1138.1,488.7z M1124.7,494l0.3-2.5l-0.8,0.7l-1.2-3.7l3.6,2.3
		C1126.1,491.6,1125.3,492.9,1124.7,494z M1123.8,492.5l-2.6,2l0.1-1.2l0.3,0.2l-0.2-0.5l0-0.1l0.2-0.6l-0.2,0.1l0-0.5l-0.3,0.5
		l-1.8-4.1l4.6,4.1L1123.8,492.5z M1117.6,494.2l0.2-1.8l-0.8,0.9l-1.8-4.9l5.4,4.4L1117.6,494.2z M1113.5,495.7l-1.4-2l-0.2-0.7
		l1.3,1l-3.1-6.2l5.1,4.3L1113.5,495.7z M1108.7,497c0.2-0.9,0.4-1.9,0.5-2.5c0,0,0,0,0,0l0.3,0.2l-0.2-0.4c0.1-0.6,0-0.6-0.2-0.3
		l-0.3-0.6l0.1-2l-0.6,1l-2.1-3.8l5.2,4L1108.7,497z M1104.7,494.8l-0.8-1.6l0.1-0.8l-0.3,0.4l-2.4-4.6l4.9,3.8L1104.7,494.8z
		 M1103.2,493.4l-4.3,5.3l1.9-6.2l-6.5,6.3l1.6-6.3l-6.6,8.4l2.7-7.2l-6.4,5.3l0.4-5.1l-3,6.4l-1.8-5.6l-3.6,6.1l-0.7-5.9l-6.1,5.4
		l0.6-4.5c0,0,0,0,0.1,0c0.5,0.4,0.4,0,0-0.7l0.1-1c0,0-0.1,0.2-0.3,0.6c-0.5-0.9-1.2-2-1.2-2l4.7,3.6l-2.3-4.8l6.2,4.4l-2.7-5.3
		l5,2.5l1-3.8c0,0,1.8,2.2,4.8,4.8c3,2.5,0.8,0.8,1.1,1.2c0.8,0.9,0.8,0.7,0.4,0l-2.3-3.6l0-0.3c-0.4-0.7-0.8-1.3-1.2-1.8
		c-0.8-1.2,0-0.5,1,0.5l-0.3-3l5.3,4.8l-1.4-4.2l4.7,4.3c-0.4-0.7-0.8-1.3-0.8-1.3l1.4,0.3l-0.1-1.6l3.5,2.4l2.1,0.2l-0.9-3.1
		L1103.2,493.4z M1067.5,500.9c-0.8,1.1,1.3-4.7,1.8-5.9c0.5-1.2-4.3,6.9-6.2,9.9c-2,3,2.6-8.7,2.6-8.7s-4,6.3-5.3,7.6
		c-1.2,1.2,0.2-6.1,1.1-8.4c1.1,0.6,2,1.3,2.4,1.7c1,1.2-1.3-3.5-1.3-3.5l4.4,2.2c0,0,0.9-2-0.2-3.2c-0.9-1.1,2.3,1.6,3.9,2.9
		C1069.7,497.2,1068.1,500.2,1067.5,500.9z M1057,502.9l0.5-2.3l-0.1-0.5c0.4-1.2,0.8-2.5,1-3l0.9,0.5l-2.1-4.5c0,0,2.3,1.1,4.2,2.3
		C1060.5,496.7,1058.1,501.1,1057,502.9z M1056.9,498.4l-0.6-2.2l-1.3,2.6l-2.1-5.1l5.3,3.4L1056.9,498.4z M1051.5,498.3l-2.7,3.2
		l0-0.1l-0.7,1l-1.4,1.6l0.7-4.9c0,0-0.5,0.5-1.2,1.2c-0.7-1.9-2.7-5.5-3.7-6.6c-1.4-1.7,5.9,5.6,7.2,6.6c1.3,1-3.8-6.1-3.8-6.1
		l7.1,4l-1.7,3.3L1051.5,498.3z M1043.8,502.6c-1.4-2.2-5.1-6.8-5.1-6.8s4.4,3.7,6.5,5.2C1044.8,501.5,1044.3,502,1043.8,502.6z
		 M1038.7,504.5c0,0-0.1-0.1-0.3-0.3l0.6-4.5l-0.7,1.1c-0.4-0.8-2.9-4.2-3.6-5c-0.7-0.8,3.7,3.1,6.9,5.9L1038.7,504.5z
		 M1038.4,500.8l-0.5,0.9c0-0.1,0.1-0.2,0.1-0.3c0.6-1.5-2.4,3.2-3.3,4.5c0,0,0,0,0,0.1l0.3-2.9c0.1-0.3,0.1-0.4,0.1-0.4l-0.1,0.1
		l0.1-1.6l0.2,0.1l-0.2-0.5l0-0.5l-0.1,0.3l-2.4-5.1C1032.6,495.5,1037.2,500,1038.4,500.8C1038.3,500.8,1038.4,500.8,1038.4,500.8z
		 M1031.7,506.5l0.7-4.3l-1.7,2.2l0-1.9l-2.7,4.7l0.7-3.9l0.3,0.3l-0.2-1l0-0.3l-0.1,0.1l-0.9-4.7l6.9,3.2L1031.7,506.5z
		 M1026.7,504.3l0-0.4l-0.4,0.8l-1.7,1.6l-1.2-1.8l0.1-5.6l4.5,4.1L1026.7,504.3z M1020.4,507.4l0.1-2.9l-1,2
		c0.2-0.9,0.5-1.7,0.7-2.4l0.6,0.2l-1.8-4.7l3.6,3.9C1022,504.2,1021.4,505.6,1020.4,507.4z M1017.9,507.6l-0.1-0.3l0-1l-0.3,0.3
		l-0.5-1.1c0,0-0.1,0.2-0.3,0.5l-3.7-4.9l6.8,2.8C1019,505.1,1017.9,507.6,1017.9,507.6z M1016.4,506.4c-0.4,0.6-1,1.5-1.5,2.5
		l-0.8,0.7c0-0.5,0-1.1,0.1-1.8l0.2-0.6l-0.2,0.1c0.1-0.8,0.2-1.5,0.2-1.5s-0.6,1-1.2,2.1l-1.1,0.7c0.2-0.7,0.3-1.2,0.3-1.2
		l-3.3,1.9l-0.7-2.4l-1.4,3.4l-1.4,0.6l0.7,1.2l-0.3,0.8l-1.4-4.9l-2.8,5.2l-0.1-5.8l-2.7,4.9l0.2-4.7l-2.8,6.2l0.3-5l-4.6,6.6
		l1.2-5.2l0.5,0.6l-0.4-5.1l4.4,3.8l-2-5.4l4.2,3.6l-1.9-4.3l4.8,4.8l-2.1-4.5l6.7,4.5l-3.6-5.4l8.1,4.1l-3.4-5.6L1016.4,506.4z
		 M988.8,509.4l-6,8.8l2.2-7.4l-6,5.8l0-3.9l0.7,0.4l-2.1-5l4.4,3.8l-1.3-3.1l5.5,2.1l-2.1-2.5l5.9,1l-0.4-3.5l3.5,3.8l-5.4,6.1
		L988.8,509.4z M978.5,512.3l-2.2,5.7l-2.2-5.5l-0.8,1.6l-1.9-4.4l5.1,4.6l-1.4-4.2L978.5,512.3z M970.9,518.9l-1.1-5.8l-1,1
		l-1.4-3.2l5.7,3.6L970.9,518.9z M964.1,519l0.2-3.1l1.2,0.9l-1.1-2.2l0.1-1.9c0,0-0.2,0.4-0.5,1.1l-1.6-3.2l5.9,4.1L964.1,519z
		 M961.1,519.7c-0.4,0.6-0.1-0.8,0.3-2.4l0.3,0.1l-0.2-0.4c0.3-1,0.5-2,0.7-2.6l1.1,0.8C962.6,516.9,961.5,519,961.1,519.7z
		 M958.4,511.3l3.7,2.8c-0.3,0.5-0.6,1.1-1,1.9L958.4,511.3z M957.9,516.9l-0.9-1.7l1.4,0.7C958.4,516.1,958.2,516.5,957.9,516.9z
		 M956,520.3l-1.3-4.3l2.4,2.4C956.8,519,956.4,519.6,956,520.3z M954.2,523.1c-0.7,0.8-0.6-1.5-0.3-4l2,1.4
		C955.2,521.6,954.6,522.6,954.2,523.1z M951.4,517.4l1.3,0.9c-1,2.1-2,4.3-2.4,4.9C949.8,524.2,950.9,519.6,951.4,517.4z
		 M950.1,516.4l0.9,0.6l-0.8,1L950.1,516.4z M945.4,519.3l3.6,0.2l-2.5,3L945.4,519.3z M944.8,524.6l0.1-2.9l1.3,1.2L944.8,524.6z
		 M941.6,518.7l1.8,1.6l-1.4,1.9L941.6,518.7z M958.9,520.2c-0.8,1.5-1.5,2.8-2,3.8c-1.1,1.9-0.1-1.8,0.8-5L958.9,520.2z
		 M958.7,515.9l2,0.9c-0.4,0.8-0.9,1.7-1.4,2.6l-1.1-2.1C958.4,516.8,958.5,516.3,958.7,515.9z M1108.8,494.7l0-0.7l0.2,0.2
		C1108.9,494.4,1108.8,494.6,1108.8,494.7z M1042.1,504.9c-0.5,1.1-0.1-1.5,0.1-2.9c0.5,0.4,0.9,0.8,1.3,1.1
		C1042.8,503.8,1042.3,504.4,1042.1,504.9z M1052.9,498.2l1.8,1l-1.5,3l-0.1,0.1L1052.9,498.2z M1103.3,497.4l0.5-3.5l0.9,0.9
		L1103.3,497.4z M1105.9,496.1l0.5-3.9l1.4,1L1105.9,496.1z M1158.3,484.3c-0.7,1.6-1.6,3.3-1.9,3.8c-0.5,0.8,0.2-2.2,0.8-4.3
		L1158.3,484.3z M1115.8,492.6l1,0.8l-0.7,0.7L1115.8,492.6z M1127,491.1l-0.2,0.3c0-0.1,0-0.2,0-0.4L1127,491.1z M1153.7,485.1
		l1.7,1.2c-1.1,2.2-2.4,4.7-3.2,6.1C1150.8,494.9,1152.8,488.2,1153.7,485.1z M1189.9,480.3l-2.4,3.4l1.1-4.6
		C1189,479.5,1189.5,479.9,1189.9,480.3z M1191.9,481.9l-0.1,0.2L1191.9,481.9C1191.8,481.9,1191.9,481.9,1191.9,481.9z M1192,478.6
		c0.4,0.3,0.7,0.5,1,0.7l-1,2.2c-0.1-0.1-0.1-0.2-0.2-0.3L1192,478.6z M1196.1,477.4l-1.7,3.2l0.2-4.6
		C1195.1,476.5,1195.6,477,1196.1,477.4z"/>
	<path id="Shape-325" fill="#555453" d="M1449,440c-56-1-596,133-724,202c28.9,0,577,0,769,0c111-94,334-196,347-196
		C1760.5,433,1516,435,1449,440z"/>
	<path id="Shape-326" fill="#40A35F" d="M1485,642l1.1-6.4l2.9,2l2-4.6l1.2,5.1l1.7-6.6l1.2,4.6l1.1-5.1c0,0,0.6,4.3,0.9,2.9
		c0.3-1.4,1.1-6.3,1.1-4.9c0,1.4,1.7,2.3,1.7,2.3l1.7-4c0,0,1.2,4.6,1.2,3.1c0-1.4,2.3-6.6,2.3-6.6l1.2,4.3l2-6.3l1.7,5.4l3.4-9.2
		c0,0,0.6,7.7,0.9,6.3c0.3-1.4,1.1-10.6,1.1-8.6c0,2,1.5,8.8,2,7.4c0.6-1.4,1.7-8,1.7-8s0.3,11.1,0.9,8c0.6-3.1,1.7-11.4,1.7-10.3
		c0,1.1,0.3,6.6,0.6,5.4c0.3-1.1,0.8-6.9,0.8-6.9l1.5,5.4l3.1-6.6l2.6,4.6l0.8-6.3l3.5,4l0.3-6.3l1.5,4.3l3.4-6.6l0.3,6.9l2.5-9.1
		l0.9,5.7l3.1-7.4l0.6,5.7l2-6.9l1.2,4.3l0.5-6l1.2,4l0.8-4.9l1.7,4.8l0.8-5.1l2.6,3.7l0.3-5.7l1.7,2.6l3.4-4l0,2.9l2.6-4.6l0.9,2.9
		l0.8-5.1l1.5,4.6l1.4-4.6l1.5,3.7l0.8-6l1.5,4.8l1.4-7.1l1.7,4.8l1.4-8l1.5,6l1.7-7.7l1.2,6l2-9.1l1.5,6.6l0.5-7.4l1.7,4l1.7-6.3
		l1.7,2.3l0.8-6.3l1.5,3.7l0.8-6.3l2.3,3.4l1.2,8.8l-99,63.7H1485z"/>
	<path id="Shape-326-copy" fill="#40A35F" d="M1588,577.9l1.7-1.7l2.6-3.4c0,0,0.6,4.3,0.6,3.1c0-1.1,0.6-5.1,0.6-5.1
		s1.5,5.1,1.4,3.1c0-2,0.6-4.3,0.6-4.3l1.4,1.4c0,0,0.3-6.3,0.6-3.7c0.3,2.6,1.2,8.6,1.2,5.7c0-0.5-0.5,2,0-1.5c0.6-3.4,0.5-6,0.5-6
		l2.9,2l2-4.6l1.2,5.1l1.7-6.6l1.2,4.6l1.1-5.1c0,0,0.6,4.3,0.9,2.9c0.3-1.4,1.1-6.3,1.1-4.9c0,1.4,1.7,2.3,1.7,2.3l1.7-4
		c0,0,1.2,4.6,1.2,3.1c0-1.4,2.3-6.6,2.3-6.6l1.2,4.3l2-6.3l1.7,5.4l3.4-9.2c0,0,0.6,7.7,0.9,6.3c0.3-1.4,1.1-10.6,1.1-8.6
		c0,2,1.5,8.8,2,7.4c0.6-1.4,1.7-8,1.7-8s0.3,11.1,0.9,8c0.6-3.1,1.7-11.4,1.7-10.3c0,1.1,0.3,6.6,0.6,5.4c0.3-1.1,0.8-6.9,0.8-6.9
		l1.5,5.4l3.1-6.6l2.6,4.6l0.8-6.3l3.5,4l0.3-6.3l1.5,4.3l3.4-6.6l0.3,6.9l2.5-9.1l0.9,5.7l3.1-7.4l0.6,5.7l2-6.9l1.2,4.3l0.5-6
		l1.2,4l0.8-4.9l1.7,4.8l0.8-5.1l2.6,3.7l0.3-5.7l1.7,2.6l3.4-4l0,2.9l2.6-4.6l0.9,2.9l0.8-5.1l1.5,4.6l1.4-4.6l1.5,3.7l0.8-6
		l1.5,4.8l1.4-7.1l1.7,4.8l1.4-8l1.5,6l1.7-7.7l1.2,6l2-4.1l1.5,6.6l0.5-7.4l1.7,4l1.7-6.3l1.7,2.3l0.8-6.3l1.5,3.7l0.8-6.3l2.3,3.4
		l1.2,8.8L1597.5,585L1588,577.9z"/>
	<path id="Shape-326-copy-2" fill="#40A35F" d="M1713.7,506.5l1.8-1.6l2.8-3.3c0,0,0.3,4.3,0.4,3.2c0.1-1.1,0.9-5.1,0.9-5.1
		s1.1,5.2,1.2,3.2c0.1-2,0.8-4.2,0.8-4.2l1.3,1.5c0,0,0.7-6.3,0.8-3.7c0.1,2.6,0.6,8.6,0.8,5.8c0-0.5-0.7,1.9,0.1-1.5
		c0.8-3.4,0.9-5.9,0.9-5.9l2.7,2.2l2.3-4.4l0.8,5.2l2.1-6.4l0.8,4.6l1.5-5.1c0,0,0.3,4.3,0.7,2.9c0.4-1.4,1.6-6.2,1.5-4.8
		c-0.1,1.4,1.6,2.4,1.6,2.4l2-3.9c0,0,0.9,4.6,0.9,3.2c0.1-1.4,2.7-6.4,2.7-6.4l0.9,4.3l2.4-6.1l1.4,5.5l4-8.9c0,0,0.1,7.7,0.5,6.3
		s1.8-10.5,1.7-8.5c-0.1,2,0.9,8.9,1.5,7.5c0.7-1.4,2.2-7.9,2.2-7.9s-0.4,11.1,0.3,8c0.8-3.1,2.5-11.3,2.4-10.1
		c-0.1,1.1-0.1,6.6,0.2,5.5c0.4-1.1,1.3-6.8,1.3-6.8l1.1,5.5l3.6-6.3l2.3,4.7l1.3-6.2l3.2,4.2l0.7-6.3l1.2,4.4l3.9-6.3l-0.2,6.9
		l3.2-9l0.5,5.8l3.6-7.2l0.2,5.7l2.4-6.7l0.9,4.3l1-5.9l0.9,4.1l1.2-4.8l1.4,5l1.2-5.1l2.3,3.9l0.7-5.7l1.6,2.7l3.7-3.8l-0.2,2.8
		l2.9-4.4l0.7,2.9l1.2-5.1l1.1,4.7l1.7-4.5l1.2,3.8l1.2-5.9l1.1,4.9l1.9-7l1.4,5l2-7.9l1,6.1l2.2-7.6l0.8,6.1l2.3-4l1,6.6l1.1-7.4
		l1.5,4.1l2.1-6.2l1.6,2.4l1.3-6.2l1.2,3.8l1.3-6.2l2.1,3.6l0.6,8.9l-119.2,63.7L1713.7,506.5z"/>
	<path id="Shape-152" fill="#6ECDFF" d="M2253,248c3,9,294.3,13,334,0c7-4,3-9,3-9s-7-6-13-1c0,0-26-23-55-22s-39,16-39,16
		s-8-6-18-6s-18,8-18,8s-24-29-55-28s-43,23-43,23s-5.7-5-12-5s-9.7,4-11,7c-26-4-38,5-38,5s-1.7-3.7-7-4s-9,3.3-9,3
		C2272,238,2250,239,2253,248z"/>
	<path id="Shape-152-copy-3" fill="#6ECDFF" d="M878.1,230.1c-2.4,7.3-240.3,10.6-272.7,0c-5.7-3.2-2.4-7.3-2.4-7.3
		s5.7-4.9,10.6-0.8c0,0,21.2-18.7,44.9-17.9c23.7,0.8,31.8,13,31.8,13s6.5-4.9,14.7-4.9c8.2,0,14.7,6.5,14.7,6.5
		s19.6-23.5,44.9-22.7c25.3,0.8,35.1,18.7,35.1,18.7s4.6-4.1,9.8-4.1c5.2,0,7.9,3.2,9,5.7c21.2-3.2,31,4.1,31,4.1s1.4-3,5.7-3.2
		c4.4-0.3,7.3,2.7,7.3,2.4C862.6,222,880.5,222.8,878.1,230.1z"/>
	<path id="Shape-152-copy" fill="#7DD2FF" d="M740.6,242.2c2.5,7.4,240.6,10.6,273,0c5.7-3.3,2.5-7.4,2.5-7.4s-5.7-4.9-10.6-0.8
		c0,0-21.3-18.8-45-18c-23.7,0.8-31.9,13.1-31.9,13.1s-6.5-4.9-14.7-4.9c-8.2,0-14.7,6.5-14.7,6.5s-19.6-23.7-45-22.9
		c-25.3,0.8-35.2,18.8-35.2,18.8s-4.6-4.1-9.8-4.1s-7.9,3.3-9,5.7c-21.3-3.3-31.1,4.1-31.1,4.1s-1.4-3-5.7-3.3
		c-4.4-0.3-7.4,2.7-7.4,2.5C756.1,234,738.1,234.8,740.6,242.2z"/>
	<path id="Shape-152-copy-2" fill="#6ECDFF" d="M1750.7,214.7c-3,8.9-294,12.9-333.6,0c-7-4-3-8.9-3-8.9s7-6,13-1
		c0,0,3.9-10.8,14.9-11.8s26-25.1,58.9-24.1c33,1,37,23,38,24c10,0,15,0.9,18,7.9c0,2,5.9-29.8,34.9-29.8s41.9,24.8,41.9,24.8
		s18.7-5,25-5s17.7,4,19,6.9c26-4,38,5,38,5s1.7-3.6,7-4c5.3-0.3,9,3.3,9,3C1731.7,204.8,1753.7,205.8,1750.7,214.7z"/>
</g>
<g>
	<g id="car_2_">
		<path id="shadow_1_" opacity="0.102" enable-background="new    " d="M1401.6,479.7c-11,30,40,51,174,46c14,0,24-1,41-5
			c12-3,136-43,146-61c4-12-26-23-30-29S1412.6,449.7,1401.6,479.7z"/>
		<g id="wheels_1_">
			<path id="Shape-240_1_" fill="#161715" d="M1765.2,421.9l-8.7,1.6l-24-23.7l24.4-11.9l9.3,17.5L1765.2,421.9z"/>
			<path id="Shape-233_1_" fill="#303030" d="M1719.8,454.4l6.9,4.4c0,0,21,4.3,23.4,2.9c18.9-11.7,13.9-60,3.2-59.9
				c-9.5-1.3-24.3,0.6-24.3,0.6L1719.8,454.4z"/>
			<path id="Shape-310_1_" fill="#262626" d="M1719.2,448.9l19-13.4c0,0-5.7,15.9,6.7,26.1c-15.9-1.5-20.4-3.7-20.4-3.7
				L1719.2,448.9z"/>
			<path id="Ellipse-49_1_" fill="#3D3D3D" d="M1749.7,414.8c2.4,0,4.3,7.4,4.2,16.5c-0.1,9.1-2.1,16.5-4.5,16.4s-4.3-7.4-4.2-16.5
				C1745.3,422.2,1747.3,414.8,1749.7,414.8z"/>
			<path id="Shape-244_1_" fill="#414141" d="M1761.7,422.8c-3.6-32.2-17.2-10.6-17.2-10.6s6.2-12.1,11.3-8.6
				C1761,407.1,1761.8,415.8,1761.7,422.8z"/>
			<path id="Shape-237_1_" fill="#191A18" d="M1651.1,483.2l-11.3-0.1l-45.5-39.5l10.6-15.5l39.9-7.4l11.7,43.5L1651.1,483.2z"/>
			<path id="Shape-235_1_" fill="#303030" d="M1566.8,510.1c50,25.1,71-2.7,75.6-24.4c3.7-18.2-2.2-54-41-49.9
				C1566.4,439.5,1518.6,483.3,1566.8,510.1z"/>
			<path id="Ellipse-48_1_" fill="#3D3D3D" d="M1605.5,455c10.5,0.1,18.9,10.7,18.8,23.6c-0.1,12.9-8.8,23.3-19.3,23.2
				c-10.5-0.1-18.9-10.7-18.8-23.6C1586.4,465.3,1595,454.9,1605.5,455z"/>
			<path id="Shape-245_1_" fill="#414141" d="M1642.5,470.1c-7.7-46.1-46.3-27.4-46.3-27.4S1629.5,426.2,1642.5,470.1z"/>
			<path id="Shape-246_1_" fill="#414141" d="M1636.2,498.7c-19.8,30.6-46.1,15.1-46.1,15.1S1616.5,526.3,1636.2,498.7z"/>
			<path id="Shape-258_1_" fill="#222222" d="M1569,504.7l5.7,1.2c0,0,8,17,38,14.3C1569.6,523.5,1569,504.7,1569,504.7z"/>
			<path id="Shape-239_1_" fill="#E8E8E8" d="M1638.2,478.8c-0.8,11.7-9.5,35.3-31.5,35.3c-22.1,0-33.6-21.2-33.6-21.2
				s-16.3-31.2,22.1-46.6C1629.1,432.9,1638.8,463.6,1638.2,478.8z M1606.1,505.3c4.7,0,8.6-1.4,11.8-3.6c-1.6-5.6-6.1-10.7-9-14.6
				c-3.4,4.1-9.2,9.6-11.5,16.6C1600,504.8,1602.9,505.3,1606.1,505.3z M1577.6,476.5c-0.2,7,2.6,12.5,2.6,12.5s2.8,5.2,8.4,9.8
				c6.2-3.6,10-11.6,13.1-16.8C1595.9,479.6,1587,474.4,1577.6,476.5z M1603.7,451.3c-2,0.4-4.1,1-6.4,1.9
				c-7.5,3-12.3,6.8-15.2,10.7c4.9,6.6,15.6,7.7,22.3,9.1C1604.7,467.4,1606.5,458.8,1603.7,451.3z M1609.1,474.7
				c-2.3-0.1-4.2,1.9-4.2,4.4c0,2.5,1.8,4.5,4.1,4.5c2.2,0,4-2,4.1-4.4C1613.1,476.8,1611.4,474.8,1609.1,474.7z M1614.6,451.4
				c-2.5,6.1-1.4,15-1.3,21.1c4.4-1.1,10.9-1.9,15.5-5.5C1626.7,460.3,1622.3,453.6,1614.6,451.4z M1615.5,481.9
				c1.7,4.1,3.9,9.9,8.7,13.6c4-5.7,5.9-12.6,6.2-17.2c0-0.5,0-0.9,0-1.4C1625.4,476.8,1619.7,480.1,1615.5,481.9z"/>
			<path id="Shape-247_1_" fill="#D1D1D1" d="M1636.1,484.8c-2.4-38.4-24.6-39.2-37.6-38c-3.3-1.8,18.9-10.1,31.1,5.2
				C1637,459.5,1638.8,477.5,1636.1,484.8z"/>
			<path id="Shape-253_1_" fill="#FFFFFF" d="M1585.1,505.9c0.9-1.2,34.1,14.7,46-9.1c-0.5,1.5-0.5,8.8-14.4,14.3
				S1584.1,507,1585.1,505.9z"/>
			<path id="Shape-254_1_" fill="#FFFFFF" d="M1630.5,468.3c2.6,0.6,2,2.9-0.1,5.2c-2,2.3-14.2,7.1-14.8,4.2
				c-0.3-1.5,6.2-2.4,10.6-4.7C1630.6,470.7,1627.9,467.7,1630.5,468.3z"/>
			<path id="Shape-255_1_" fill="#FFFFFF" d="M1611.6,452.3c0.2,2.6-2.6,13.3-1.2,13.2c-2-0.2-2.7-11.6-2-13.2
				C1609.1,450.7,1611.5,449.7,1611.6,452.3z"/>
			<path id="Shape-256_1_" fill="#FFFFFF" d="M1612.1,484.6c5.7-2.1,11.5,14.4,9.4,15.7c-1.1,0.6-2.3-5.4-5-9.2
				C1613.7,487.3,1609.3,485.6,1612.1,484.6z"/>
			<path id="Shape-257_1_" fill="#FFFFFF" d="M1603.4,487.1c0,0-7.1,16.9-8.8,16.4c-1.7-0.5-3.4-2.6-3.4-2.6L1603.4,487.1z"/>
			<path id="Ellipse-44_1_" fill="#C2C2C2" d="M1609.5,485.4c-3.3,0-6-2.8-6-6.1c0-3.4,2.8-6,6.1-6c3.3,0,6,2.8,6,6.1
				C1615.6,482.8,1612.9,485.4,1609.5,485.4z M1609.1,474.7c-2.3-0.1-4.2,1.9-4.2,4.4c0,2.5,1.8,4.5,4.1,4.5c2.2,0,4-2,4.1-4.4
				C1613.1,476.8,1611.4,474.8,1609.1,474.7z"/>
			<path id="Shape-248_1_" fill="#D1D1D1" d="M1613.3,451.6c0,0-5.6,18.6-1.1,22.6s16.5-6.8,16.5-6.8s-13,6.1-15.9,5
				C1612.4,471.7,1613.3,451.6,1613.3,451.6z"/>
			<path id="Shape-249_1_" fill="#D1D1D1" d="M1604.7,451.5c0,0,4.3,20,0.6,22.6c-3.7,2.6-13.8-2.8-13.8-2.8l12.9,1.6L1604.7,451.5z
				"/>
			<path id="Shape-250_1_" fill="#D1D1D1" d="M1589.7,476.5c0,0,12.8,1,13.8,5.4c1,4.4-14,17.2-14,17.2s12.4-15.6,12.2-16.7
				C1600.5,480.7,1589.7,476.5,1589.7,476.5z"/>
			<path id="Shape-251_1_" fill="#D1D1D1" d="M1609.5,485.4c5.2,0.1,8.9,15.5,8.5,15.7c-0.4,0.3-7.8-13.1-9-14.3
				c-1.6,1.1-12.2,16.1-12.7,15.8C1595.7,502.3,1604.3,485.4,1609.5,485.4z"/>
			<path id="Shape-252_1_" fill="#D1D1D1" d="M1613.1,479.4c-0.5-9.3-6.9-4.4-6.9-4.4S1612.5,472.1,1613.1,479.4z"/>
			<path id="Shape-239-copy_1_" fill="#E8E8E8" d="M1759,430.9c-0.5,7.9-3.2,24.2-8.8,25.4c-5.9,1.3-6.4-7.2-7.5-14.2
				c-0.8-13.2,0.9-26.5,6.3-32.8C1757.9,400.1,1759.5,420.7,1759,430.9z M1745.1,439.1c0.1,1.5,0.2,2.9,0.4,4.3
				c1.4-1.2,2.7-5.4,3.7-8.6c-1.1-1.5-2.5-4.1-4.2-4.2C1744.8,433.5,1744.8,436.4,1745.1,439.1z M1750.3,413.3
				c-0.3,0.3-0.7,0.6-1,0.9c-1.2,2.1-2.2,4.7-2.9,7.5c1.2,1.1,3,3,4.5,6.2C1751.3,424.8,1751.7,419.8,1750.3,413.3z M1751.9,429
				c-0.6,0-1.1,1.5-1.2,3.2c-0.1,1.7,0.4,3.1,0.9,3c0.6-0.1,1.1-1.5,1.2-3.2C1752.8,430.3,1752.4,429,1751.9,429z M1751.8,437.3
				c-1,4.1-3.3,9.8-4.4,12.3c0.7,0.7,1.6,1,2.9,0.7c0.7-0.1,1.4-0.6,2-1.3C1754.1,444.3,1752.7,440.3,1751.8,437.3z M1753.2,412.5
				c2,4.7,1.6,11.2,0.7,15.4c1-0.4,2.2-1.2,3.1-3.8C1756.7,418.8,1755.6,413.4,1753.2,412.5z M1754.4,434.4c0.5,2,1,4.6,1.1,7
				c0.9-3.4,1.4-7.2,1.6-9.9C1756.3,432.7,1755.3,433.7,1754.4,434.4z"/>
			<path id="Shape-259_1_" fill="#FFFFFF" d="M1745.2,425.2c1.3-0.2,2.4,1.1,3.4,6.1c0.2,0.9,2.8-2.4,0.1-5.2
				C1747.2,424.8,1746.3,423.3,1745.2,425.2z"/>
			<path id="Shape-260_1_" fill="#FFFFFF" d="M1752.3,414c0,0,1,9.3,0.7,13C1755.6,424.9,1752.3,414,1752.3,414z"/>
			<path id="Shape-261_1_" fill="#FFFFFF" d="M1754.7,432.2c-1.5,0.4-0.9-0.9-0.9-0.9s2.6-4.1,3.5-3.4
				C1758.2,428.6,1756.2,431.8,1754.7,432.2z"/>
			<path id="Shape-262_1_" fill="#FFFFFF" d="M1752.9,435.7c0,0,2.5,5.2,2.5,7.8c0,2.6-0.9,2.6-0.9,2.6L1752.9,435.7z"/>
			<path id="Shape-263_1_" fill="#FFFFFF" d="M1750.3,436.5c1.5,1.8-3,13-4.4,10.4C1744,442.8,1749,442.4,1750.3,436.5z"/>
			<path id="Shape-264_1_" fill="#D4D4D4" d="M1753.7,445.3c-0.6,2.5-3,7.2-5.5,5.5s-3.1-13.4-3.1-13.4s0.1,14.1,3.3,15.7
				C1751.7,454.6,1754.3,448.5,1753.7,445.3z"/>
			<path id="Shape-265_1_" fill="#D4D4D4" d="M1746.2,420.9c0,0,8.6-24.1,11.2,3.6c-0.3-2.6-0.5-15.8-4.2-15.7
				C1747.4,409.3,1746.2,420.9,1746.2,420.9z"/>
			<path id="Ellipse-45_1_" fill="#C2C2C2" d="M1751.6,437.4c-1.2,0-2.1-2.4-2.1-5.2s1-5.2,2.2-5.2c1.2,0,2.1,2.4,2.1,5.2
				C1753.8,435.1,1752.8,437.4,1751.6,437.4z M1751.9,429c-0.6,0-1.1,1.5-1.2,3.2c-0.1,1.7,0.4,3.1,0.9,3c0.6-0.1,1.1-1.5,1.2-3.2
				C1752.8,430.3,1752.4,429,1751.9,429z"/>
		</g>
		<g id="car_3_">
			<path id="Shape-294_1_" fill="#403F3F" d="M1509.3,382.8c0,0,103.2-16.3,124-16.9c13-1.6,71.4,2.9,84.8,8.7
				c18.9,12.4-72.1,23.6-72.1,23.6L1509.3,382.8z"/>
			<path id="Shape-296_3_" fill="#333232" d="M1569.1,376.5c0,0-3-0.5-7,2.5c-3.9,3-4.4,8.6-4.4,8.6s45.8,11.8,46.6,13.5
				c0.8,1.7,3.2-12.6,1-17.4c-2.1-4.8-7.7-5.3-7.7-5.3s1.2-29.1-13.6-27.1C1571.9,353,1569.1,376.5,1569.1,376.5z"/>
			<path id="Shape-296_2_" fill="#333232" d="M1627.9,383.2c0,0-3-0.5-7,2.5c-3.9,3-4.4,8.6-4.4,8.6s45.8,11.8,46.6,13.5
				c0.8,1.7,3.2-12.6,1-17.4c-2.1-4.8-7.7-5.3-7.7-5.3s1.2-29.1-13.6-27.1C1630.8,359.7,1627.9,383.2,1627.9,383.2z"/>
			<g id="garlick_1_">
				<g id="body_1_">
					<path id="Shape-3_1_" fill="#F2DAC3" d="M1645.5,326.6c-0.6-8.7,4.4-17.7,2.9-18.5c-1.5-0.8-9.6,8.9-9.9,15
						C1638.1,329.1,1646.2,335.3,1645.5,326.6z"/>
					<path id="Shape-2_1_" fill="#F7E1CB" d="M1642,302.7c2.8,0.1-4,21,7.3,34.2c11.3,13.2,18.1,9.8,26.3,20.1
						c13.1,17.2-0.9,27.9-0.9,27.9s-1.4,22.3-27.2,19.5C1609.9,400.1,1638.5,302.6,1642,302.7z"/>
					<path id="Shape-21_1_" fill="#F6CCB2" d="M1680.3,378.2c0,0-2.4,2.7-3.7,2.6c-1.3-0.1-0.4-2-1.7-2.1c-1.3-0.1-1.4,0.9-1,1.6
						c0.3,0.7,0.7,5,0.7,5l4.2-3.8L1680.3,378.2z"/>
					<path id="Shape-1_1_" fill="#FCEAD8" d="M1652.4,310.2c1.6,0.9-8.2,8-7.1,32.1c0.9,20.1,14.6,27.5,12.7,45.1
						c-1.1,10.1-5.1,26.6-29.4,23.9c-16.1-1.8-18.5-9.8-18.5-9.8s-26.6,3.9-23.3-25.8c-2-2-6.6-13.3-0.2-22.2
						c6.4-8.9,20.9-9.9,32.3-20.1C1638.8,317.4,1651,309.5,1652.4,310.2z"/>
					<path id="Shape-16_1_" fill="#F7E1CB" d="M1646.6,319c1.4,0.4-6.1,18.4-1.2,34.5c6.2,18.9,10.7,24.9,10.7,24.9s2.5-5.3,2.6,6.9
						c0.2,12.2-14,25.2-21.3,25.7c-19.7,2.7-27-9.8-27-9.8s-3.7-11.3,0.9-11.7c4.5-0.4,2.6,5.6,6.7,6.7c8,1.6,4.8-13.2,12.5-16.9
						c7.6-3.6,14,2.3,16.8,0c2.8-2.3-7.1-18.6-7-29.7C1639.1,336.4,1645.3,318.9,1646.6,319z"/>
					<path id="Shape-15_1_" fill="#F6CCB2" d="M1658.3,387.1c0,0-2.9,11-6.9,12.1c-2,0.6-0.5-1.1-2.6-1.1c-2.1,0-3.5,12.5-23.2,10.3
						c-2.3-0.5-15.8-5-16.9-18.1c-0.9-12.6,9.9-32.5,9.9-32.5s2.6-3.9,2.2-4.3c-0.5,1.1-2.6,4.2-2.6,4.2s-12.7,19.1-11.6,33.8
						c1.2,14.7,15,18.8,19.3,20.3c12.8,3.8,22.1-3.8,23.7-4.9C1657.4,400.7,1658.3,387.1,1658.3,387.1z"/>
					<path id="Shape-14-copy_1_" fill="#E4A89B" d="M1645.1,338.3c0.6-0.1-0.6,3.1,1.9,13.3c2.6,10.1,5,11.6,4.4,11.8
						c-0.6,0.2-4.3-7.2-5.3-11.7C1645.2,347.2,1644.5,338.4,1645.1,338.3z"/>
					<path id="Shape-8_1_" fill="#FCEAD8" d="M1672.1,382.8c-1.8-9.8-15-25.1-17.1-23.7c-3.5,2.5,5.2,13.8,6.7,20.8
						c1.5,6.9-3.8,11.8,0.9,15.2C1666.5,397.7,1673.9,392.7,1672.1,382.8z"/>
					<path id="Shape-9_1_" fill="#FCEAD8" d="M1655.2,347.5c1.9-2.7,12.3,3.9,17,8.3c2.6,2.2,8.8,11.2,4.5,15.3
						c-4.3,4-5.9-9.1-8.8-12C1658.2,346.7,1654.9,349.4,1655.2,347.5z"/>
					<path id="Shape-18_1_" fill="#F7E1CB" d="M1608,380.2c-6.3,21-23.5,11.4-21.8,4.5c-1.4-5.8-0.8,0.1-0.2,4
						c8.1,15,22.9,13.7,20.9,0.1C1607.1,384.2,1607.4,381.9,1608,380.2z"/>
					<path id="Shape-18-copy_1_" fill="#F6CCB2" d="M1590.2,367.8c1-2.2,10.5-14,19.4-18.2c-2.5,0.2-16.6,11.2-19.6,18.2
						C1585.7,375.4,1586.6,376.1,1590.2,367.8z"/>
					<path id="Shape-4_1_" fill="#FDF3E9" d="M1644.9,316.2c-0.6-1.1-5.8,3-8.6,5.3c-2.8,2.3-17.1,11.8-15.9,14.2
						c0.9,1.1,3.3-2.2,3.7-1.6c0.4,0.6-1.4,2.1-0.8,2.6c0.6,0.5,3.2-2.4,3.9-1.8c0.7,0.6-4.7,5.1-3.8,5.8c0.9,0.7,4.8-3.8,5.4-3.3
						c0.6,0.5-1.6,4.3-0.5,4.7c1.1,0.4,2.3-4.5,3.2-4.4c0.8,0.1,0.7,5.2,1.9,5.5c2.2,0.3,1.7-5.4,3-5.4c1.3,0-0.3,2.8,1.1,2.8
						c1.9,0,0.7-1.1,3.3-12.7C1642.3,321.1,1645.5,317.3,1644.9,316.2z"/>
					<path id="Shape-17_1_" fill="#F6CCB2" d="M1608,381.7c-1.7-0.4-0.8,13.4-4.4,15.3c-4.6,3.1-12-2.6-11.5-0.2
						c1.8,5.1,12.6,5.7,12.6,5.7s5.9,0.9,6.1-1C1604.6,397.6,1609.7,382.1,1608,381.7z"/>
					<path id="Ellipse-1_1_" fill="#E4A89B" d="M1631.3,411.3c9.5,1.1,18.3-3.3,23.1-10.5c-4.4,8.5-14,13.8-24.4,12.7
						c-12.2-1.4-22.3-8.7-22.9-19.7C1609.3,403.5,1620,410,1631.3,411.3z"/>
					<path id="Shape-5_1_" fill="#FDF3E9" d="M1612.7,341.7c-1.7-1.8-16.5,5.4-21.4,9.6c-7.2,4.6-7.6,13.2-4,14.2
						c2.3,0.6,6.4-8.4,11.7-13C1605.6,346.9,1613.6,342.7,1612.7,341.7z"/>
					<path id="Shape-19_1_" fill="#F6CCB2" d="M1592.3,364.1c0,0-3,4-5.6,4.1c-2.6,0.1-2.2-6.7-3.3-6.4c-1.1,0.3,1.4,12.8,3,13.2
						C1587.2,373.6,1592.3,364.1,1592.3,364.1z"/>
					<path id="Shape-20_1_" fill="#F6CCB2" d="M1657.3,392.1c0,0-2.7,8.7,2.3,7.8c2.5,0.5,2.8-4.2,4.7-2c2.7,2.2,7.9-4.5,7.6-3.6
						c-0.3,0.8-3.8,7.7-11.9,9.4c-5.5,1.3-8.8,1.2-8.8,1.2L1657.3,392.1z"/>
					<path id="Shape-6_1_" fill="#FDF3E9" d="M1613,350c-1.9-1.9-18.5,11.2-22.8,21.4c-4.3,10.2-0.8,21.3,4.3,19.3
						c5.1-2,5.1-11.8,6.6-19.2C1602.5,364.2,1614.9,351.9,1613,350z"/>
					<path id="Shape-7_1_" fill="#FDF3E9" d="M1633.2,355.6c-3.2-0.4-1.8,1.7-3.6,4.1c-1.9,2.4-2.2-2.9-6.1-2.4
						c-3.9,0.5-20.6,42.5-0.6,46c20,3.5,25.2-13.6,20.3-24.1C1638.3,368.7,1636.4,356,1633.2,355.6z"/>
					<path id="Shape-14_1_" fill="#E4A89B" d="M1655.1,371.1c0.5-0.3,2.8,5.7,3.4,8.1c1.2,4.8,0.5,7.9-0.2,11.4
						c-0.7,3.5-2,6.6-2.2,6.5c-0.2-0.1,0.5-2.2,1.2-6.6c0.7-4.1,1.3-5.8,0.2-11.5C1656.7,375,1654.9,371.3,1655.1,371.1z"/>
					<path id="Shape-10_1_" fill="#E4A89B" d="M1608,340.8c0,0-21.1,9.2-23.4,17.3c-2.7,9.7,2.7,17.1,2.8,17.2
						c-2.5,5-7.6-11.5-3-19.6C1589.2,347.6,1608,340.8,1608,340.8z"/>
					<path id="Shape-11_1_" fill="#E4A89B" d="M1594.2,362c-10.9,13.9-9.7,30.3,1.1,36.9c7.7,4.1,15.5,1,15.9,2.8
						c1.8,2-9.4,3.3-16.7-1c-7.3-4.3-11.9-13.9-8.9-23.9C1588.6,366.9,1595.8,359.7,1594.2,362z"/>
					<path id="Shape-12_1_" fill="#E4A89B" d="M1668.7,371.3c-0.5,0.2,3.9,5,4.9,11c0.8,5.4-0.9,11.8-4.8,15.3
						c-8.1,7.4-17.1,6.7-17.1,6.7s0.1-0.1-1,1c-0.6,0.7,13.3,0.5,19.7-6.6c3.6-4,5.5-8.9,4.5-16.7
						C1674.2,376.9,1669.2,371.1,1668.7,371.3z"/>
					<path id="Shape-13_1_" fill="#E4A89B" d="M1645.7,331.1c-0.1,0.1,2.4,8.6,17.4,16.7c0.5,0.2,1,0.5,1.3,0.6
						c19.3,9.3,19.1,31.1,10.4,35.8c-1.3,2-0.7,2.2,0.2,2c2.8-0.3,10.4-8.5,6.7-19.7c-5.7-14.8-15.4-17.6-18.8-19.4
						C1648.7,339.9,1645.8,331,1645.7,331.1z"/>
				</g>
				<g id="mouth_1_">
					<path id="Shape-22-copy_1_" fill="#F6CCB2" d="M1639.4,387.6c-0.4-0.7-10.4,1.7-15,1.2c-4.5-0.4-9.1-2.1-10.4-0.7
						c-1.3,1.4,3.1,6.8,10.3,6.9C1631.5,395.2,1640.1,388.9,1639.4,387.6z"/>
					<path id="Shape-22-copy-2_1_" fill="#F7E1CB" d="M1640.2,384.1c-0.4-0.7-10.4,1.7-15,1.2c-4.5-0.4-9.1-2.1-10.4-0.7
						c-1.3,1.4,3.1,6.8,10.3,6.9S1641,385.4,1640.2,384.1z"/>
					<path id="Shape-22_1_" fill="#E4A89B" d="M1639.8,385.9c-0.4-0.7-10.4,1.7-15,1.2c-4.5-0.4-9.1-2.1-10.4-0.7
						c-1.3,1.4,3.1,6.8,10.3,6.9S1640.6,387.2,1639.8,385.9z"/>
					<path id="Shape-24_1_" fill="#FFFFFF" d="M1615.1,386.4c0,0,0.1,1.8,0.6,2.3c7,2.9,21.6,0.2,22.5,0c0.9-0.1,1.2-2.2,1.2-2.2
						s0.1-0.8-0.5-1.2c-2.2,0.2-7.9,3.1-23.5,0C1615,386,1615.1,386.4,1615.1,386.4z"/>
					<path id="Shape-25_1_" fill="#FFFFFF" d="M1637.8,388.6c-4.6,1.6-21.5,0.3-21.7,0.5c-0.2,0.3,0,0,0.1,0.5
						c0.8,3.1,9,4.6,15.7,2.5C1634,391.4,1637.5,389.3,1637.8,388.6z"/>
					<path id="Shape-62_1_" fill="#FEDE76" d="M1630.6,386.7l0.4,3.3l2.5-0.6l0.1-2.7H1630.6z"/>
					<path id="Shape-63_1_" fill="#FCDD71" d="M1631,386.6c0,0-0.4,2.8,1.9,2.7c0.9,0.2,0,0.6,0,0.6s-3.6,0.2-3.1-1.9
						C1629.7,386.1,1631,386.6,1631,386.6z"/>
					<path id="Shape-64_1_" fill="#FFEDAE" d="M1630.4,387.5c0,0,0.5,1.2,1.9,1.9c1.4,0.6-1.6,0.3-1.9,0
						C1630.1,389,1630.4,387.5,1630.4,387.5z"/>
				</g>
				<g id="glasses_1_">
					<path id="Shape-31_1_" fill="#1C1C1C" d="M1655.2,366.5c-0.2,0.8-1.6,0.9-1.5,1.6c0,0.6-0.4,7.3-2.6,11.3
						c-2.2,4-16.5,4.3-19.9,1.5c-3.3-2.8-5.7-10.6-5.7-10.6s-0.4-0.8-1.3-0.7c-0.6,0.1-1,0.7-1,0.7s-1.5,7.1-4.8,9.6
						c-3.2,2.4-16.4,1.6-18.1-2.2c-1.6-3.7-1.7-9.6-1.7-10.2c0.1-0.6-1-0.7-1.1-1.4c-0.1-0.7-0.6-3.4,0.3-3.8
						c7-2.2,24.2,2.6,26.5,3.2c1.6-0.5,20.3-5.9,30.6-3.3C1656.1,362.6,1655.4,365.6,1655.2,366.5z"/>
					<path id="Shape-37_1_" fill="#262626" d="M1620.9,367.1c0.2-0.5,1.3,0.2,1.5,0.9c0.2,0.7-0.4,2.7-0.8,2.6
						c-0.2-0.1,0.1-1.4,0.1-2.3C1621.6,367.6,1620.8,367.3,1620.9,367.1z"/>
					<path id="Shape-38_1_" fill="#262626" d="M1628.6,366.3c-0.9-0.6-2.4,0.9-2.7,1.6c-0.3,0.7,0.9,4,1.7,3.8c0.6,0-0.2-2-0.1-3.6
						C1627.6,366.8,1629.1,366.5,1628.6,366.3z"/>
					<path id="Shape-32_3_" fill="#393939" d="M1648.3,365.3c-2-2-17.5-0.9-19.4,2.6c-2.2,4,1.8,10.1,3.9,11.8
						c2.1,1.7,11.9,1.9,14.4-0.8C1649.8,376.3,1650.3,367.4,1648.3,365.3z"/>
					<path id="Shape-32-copy_1_" fill="#404040" d="M1647.7,366c-1.5-1.5-13.1-0.6-14.5,2c-1.6,3,1.3,7.6,2.9,8.9
						c1.5,1.3,8.9,1.4,10.8-0.6C1648.7,374.2,1649.2,367.5,1647.7,366z"/>
					<path id="Shape-32-copy-4_1_" fill="#474747" d="M1647,366.5c-1.2-1.3-11-0.5-12.2,1.6c-1.4,2.5,1.1,6.4,2.4,7.4
						c1.3,1.1,7.5,1.2,9.1-0.5C1647.9,373.4,1648.3,367.8,1647,366.5z"/>
					<path id="Shape-32-copy-5_1_" fill="#4F4F4F" d="M1645.6,367.7c-0.5-0.6-4.5-0.7-5,0.2c-0.7,1,0.2,2.8,0.7,3.3
						c0.5,0.5,3.8,0.9,4.5,0.3C1646.5,370.8,1646.1,368.3,1645.6,367.7z"/>
					<path id="Shape-32-copy-6_1_" fill="#5C5C5C" d="M1645.6,367.8c-0.2-0.3-1.9-0.3-2.1,0.1c-0.3,0.4,0.1,1.2,0.3,1.4
						c0.2,0.2,1.6,0.4,1.9,0.1C1645.9,369.1,1645.8,368.1,1645.6,367.8z"/>
					<path id="Shape-32_2_" fill="#393939" d="M1603.1,365.3c1.8-1.9,16.4-0.4,18,2.9c1.2,2.9-1.6,9.8-4.4,10.8
						c-2.9,1-11.1,1-13.1-1.5C1601.6,374.9,1601.4,367.2,1603.1,365.3z"/>
					<path id="Shape-32-copy-2_1_" fill="#404040" d="M1606,366.2c1.4-1.5,12.8-0.4,14.1,2.2c1,2.2-1.2,7.7-3.5,8.5
						c-2.2,0.8-8.7,0.8-10.3-1.2C1604.8,373.7,1604.7,367.7,1606,366.2z"/>
					<path id="Shape-32-copy-3_1_" fill="#474747" d="M1608,366.9c1.1-1.2,10.5-0.3,11.5,1.8c0.8,1.8-1,6.3-2.8,6.9
						c-1.8,0.6-7.1,0.7-8.4-1C1607,373,1606.9,368,1608,366.9z"/>
					<path id="Shape-32-copy-7_1_" fill="#4F4F4F" d="M1614,367.9c0.5-0.5,4.5-0.2,5,0.8c0.3,0.8,0.1,2.7-0.7,3
						c-0.8,0.3-3.6,0.4-4.2-0.3C1613.5,370.6,1613.5,368.4,1614,367.9z"/>
					<path id="Shape-32-copy-8_1_" fill="#5C5C5C" d="M1616.6,368.3c0.2-0.2,1.7-0.1,1.9,0.3c0.1,0.3,0.3,1.1-0.1,1.2
						c-0.3,0.1-1.5,0.2-1.8-0.1C1616.4,369.4,1616.4,368.5,1616.6,368.3z"/>
					<g id="Shape-33_1_">
						<path fill="#A1A1A1" d="M1653.9,364.6c-0.1-0.8-3.3-0.7-3.4,0C1650.4,365.4,1654,365.4,1653.9,364.6z"/>
					</g>
					<g id="Shape-33-copy_1_">
						<path fill="#A1A1A1" d="M1601.6,364.6c0.1-0.6-2.4-1.1-2.6-0.5C1598.8,364.7,1601.5,365.2,1601.6,364.6z"/>
					</g>
				</g>
			</g>
			<g id="hand-like_1_">
				<path id="Shape-42_1_" fill="#F7E1CB" d="M1679.1,372.6c3-2.7-0.7-5.6,2.9-4.9c4.8,0.9,12,0.4,19.7-6.5c13.4-12,7,4,5.8,8
					c-1.2,4-23.5,16.9-33.5,14.6C1673.3,379.7,1672.7,375.9,1679.1,372.6z"/>
				<path id="Shape-60_1_" fill="#E4A89B" d="M1673.8,382.2c0,0,5.2,2.8,24.2-6.4c0.7,1.6-15.6,10.2-23.3,8.9
					C1672.8,384.5,1673.8,382.2,1673.8,382.2z"/>
				<path id="Shape-43_1_" fill="#FCEAD8" d="M1693.3,336.4c4.8-1.3,6.4,3.6,7.2,6.8c0.9,3.7,0.4,6.7,3.9,7.4
					c4.9,1.7,6.8-3.1,11.9,2.3c3.6,3.7,4.8,7.7,4.8,11.8c0,4.1-1.3,13.6-8.6,14.9c-7.3,1.4-12.2-2-13.6-5c-1.4-3.1-0.9-5.4-0.8-8.5
					c-2.6-2.8-2.2-8.6-2.6-13c-0.2-3.1,0-3.6-1.6-5.8C1692.3,345.1,1688.5,337.7,1693.3,336.4z"/>
				<path id="Shape-55_1_" fill="#F7E1CB" d="M1694.8,345.4c1.5-0.6,0.9,2.8,3,3.9s2,0,1.9,0.7c-0.1,0.7-2.3,3.7-1.3,6
					s1.7,4.7-1.5,5.4s-0.2-9.1-1.4-10.9C1693.8,348,1693.9,345.8,1694.8,345.4z"/>
				<path id="Shape-54_1_" fill="#FDF3E9" d="M1693.9,336.6c-1.4,1.2-0.6,3.2-0.6,3.2s2.7,6.2,5.6,5.4c1.2-0.4,0.8-4.3-0.6-7
					C1697,335.5,1694.3,336.1,1693.9,336.6z"/>
				<path id="Shape-53_1_" fill="#F7E1CB" d="M1696.7,356.6c1.3,5.4,3,9.1,3,9.1s-2.4,3.6-0.9,9.1
					C1693.9,368.7,1695.5,351.2,1696.7,356.6z"/>
				<path id="Shape-50_1_" fill="#F6CCB2" d="M1712,371.8c0.9,0.2,0.8,1.2,0.1,1.9c-1.5,1.3-4.1,0.7-4.1,0.7S1712,373.6,1712,371.8z
					"/>
				<path id="Shape-47_1_" fill="#F6CCB2" d="M1703.2,357.2c0,0,0.1,1.5,1.3,2.1c1.3,0.6,3.3-2.1,7.5-1.2c-3.3-0.8-6.6,3.3-6.6,3.3
					l-1.3-0.7L1703.2,357.2z"/>
				<path id="Shape-48_1_" fill="#F6CCB2" d="M1704.5,364l1.7,5c0,0,3.4-4.7,8-4.4c-1.9-1.3-5.9,1.2-7.5,1.2
					C1705.3,365.7,1704.5,364,1704.5,364z"/>
				<path id="Shape-49_1_" fill="#F6CCB2" d="M1706.9,372.5c2.8,2.2,4.5-1.4,5.2-0.6c0.1-0.1,0.4,0.7,0.3,0.7c0,1.1-0.4,1.5-1.1,1.8
					C1708.3,374.8,1705.7,374.4,1706.9,372.5z"/>
				<path id="Shape-51_1_" fill="#FDF3E9" d="M1707.8,369.5c0.3,1.2,1.8,1.1,2.7,0c1.8-3.3,3.1-2.4,2.9-3.2
					c-0.5-1.6-4.5,1.1-4.5,1.1S1707.5,368.2,1707.8,369.5z"/>
				<path id="Shape-56_1_" fill="#E4A89B" d="M1697.9,371.7c-1.7,3.8,10.5,15.3,19.8,5C1708.3,384.4,1697.4,376,1697.9,371.7z"/>
				<path id="Shape-57_1_" fill="#E4A89B" d="M1714.5,351.4c0,0,10.9,7.3,5.7,19.2C1722.5,358.3,1714.5,351.4,1714.5,351.4z"/>
				<path id="Shape-58_1_" fill="#E4A89B" d="M1691.6,337.6c4.7-3.9,10.2,0.5,9.3,10C1700.1,334.1,1693.4,336.3,1691.6,337.6z"/>
				<path id="Shape-59_1_" fill="#E4A89B" d="M1691.4,338.3c-1.9,2.2,1.2,7.3,1.9,7.7C1692.1,344.3,1690.5,340.2,1691.4,338.3z"/>
				<path id="Shape-44-copy-2_1_" fill="#E4A89B" d="M1716,364.7c-4.5-1.3-10.3,2.4-10.3,5.6c0,1.7,0.5,4,2.1,4.4
					c1.6,0.4,4.4-0.6,4.2-2.4c-0.7,1.5-2.7,1.7-4,1.1c-1.3-0.5-1.3-2.3-1.3-3.3C1706.7,367.4,1712.2,364.1,1716,364.7z"/>
				<path id="Shape-44_1_" fill="#E4A89B" d="M1711.6,350.4c-4.3,0-9.6,3.8-9.2,7.7c0.4,3.9,2.3,3.8,2.3,3.8s0.8,0.6,1-0.2
					c0.3,0.8-1.9-0.1-2.3-3.8C1702.9,354.2,1706.9,351.1,1711.6,350.4z"/>
				<path id="Shape-44-copy_1_" fill="#E4A89B" d="M1713.2,358.1c-5.2-0.8-9.3,2.7-9,6c0,2.6,1.8,4.9,1.8,4.9s0.8,0.6,1-0.2
					c0.3,0.8-1.8-3.3-1.8-4.9C1705,361.5,1707.2,358.2,1713.2,358.1z"/>
				<path id="Shape-45_1_" fill="#FDF3E9" d="M1707.7,354.8c0.5-2.7,5.1-1.7,5.1-3.5c0-0.7-3.3-1-5.8,0.6c-2.2,1.1-2.9,2.5-3.1,3.8
					C1703.6,358,1707.3,358.6,1707.7,354.8z"/>
				<path id="Shape-45-copy_1_" fill="#FDF3E9" d="M1708.6,362.8c0-2.3,3.8-3.1,3.9-3.7c0-0.6-2.5-0.6-4.1,0.5
					c-1.6,1.1-2.7,2.5-2.8,3.8C1705.7,365.6,1708.6,364.4,1708.6,362.8z"/>
			</g>
			<path id="Shape-232_1_" fill="#3B3B3B" d="M1394.9,471.9c9.9,51.3,180.5,42.7,192.7,36.8c6.2-3,0.6-75.4,30.1-79.4
				c29.5-4,30.7,19.5,31.6,53.1c2.5,7,88.7-32.9,88.7-32.9s4.3-50.8,15.6-53.2c11.3-2.5,8.9,25.7,11.5,25.7
				c2.6,0,7.3-37.3-12.5-42.7c-6.4-1.7-20.4-5.8-33.4-4.8c-4.5,10.5-64.6,20.1-64.6,20.1s17.7-34.6,6.5-39.1
				c-11.2-4.5-80.8-12.1-94.3-9.2c-0.6,0.1-1.3,0.3-2.1,0.6c6.4,0,88.7,4.6,91.5,10.7c2.8,6.1-10.3,36.2-13.7,37.7
				c-3.5,1.4-127.2-13.2-127.2-13.2s-73.7,4.4-85,15.6C1419,408.7,1385.1,420.5,1394.9,471.9z"/>
			<path id="Shape-306_1_" fill="#5F5F5F" d="M1658.5,357.4c6,4.4-3.8,28.6-5.5,27.7C1651.3,384.3,1660.1,367.4,1658.5,357.4z"/>
			<path id="Shape-288_1_" fill="#4D4D4D" d="M1727.5,379c6.9-1.7,18.2-0.7,21.6,3.7c3.4,4.4-90.4,35.5-97.3,30.2
				c-6.9-5.3-50.8,12.9-51.1,3.8c-0.3-9.1,44.3-16.5,48.6-14.2c10.3,2.7,45.6-9.8,65.4-17.6C1721.6,382.3,1725.8,379.4,1727.5,379z"
				/>
			<path id="Shape-314_1_" fill="#5C5C5C" d="M1734.6,381.7c4.7-0.3,13.3,2.3,11,7c-2.3,4.7-66.7,25.3-72,24c-5.3-1.3-4.3-5.3-2-6
				C1687.3,405,1730,382,1734.6,381.7z"/>
			<path id="Shape-272_1_" fill="#424242" d="M1421.3,433.1c3.4,7.9,67.3,21.5,78.7,9.5c11.4-12,77.6-45.9,139.9-47
				c13,1-96.9-7.9-123.2-11.6C1490.4,380.4,1417.9,425.2,1421.3,433.1z"/>
			<path id="Shape-273_1_" fill="#333333" d="M1405.1,417.3c0,0-6.8,13-2,14.7c9.5,4,21.9-19.7,21.9-19.7l-13.9,7.7L1405.1,417.3z"
				/>
			<path id="Shape-282_1_" fill="#333333" d="M1395.1,441.7c0,0,21.6,17.4,51.9,22.9c30.3,5.5,130.3,14.4,142-2.8
				c11.7-17.2,16.7-35.3,29.8-31.8c-25.6-2.3-25.6,67.7-30.3,77.7c-4.7,10-174.8,13.5-192.8-32.9
				C1392,459.4,1395.1,441.7,1395.1,441.7z"/>
			<path id="Shape-289_1_" fill="#2E2E2E" d="M1655.5,398.7c0,0-6.2,50.6-1.7,71.5C1652.5,435.9,1655.5,398.7,1655.5,398.7z"/>
			<path id="Shape-290_1_" fill="#333232" d="M1706.7,385.7c29.4,3.3,17.6,60.1,17.6,60.1S1733.5,390.8,1706.7,385.7z"/>
			<path id="Shape-293_1_" fill="#4D4C4C" d="M1707.3,410c4,1.2,13.9-2.7,13.9-5.9c0-3.2-8.7-0.1-8.7-0.1S1703.3,408.8,1707.3,410z"
				/>
			<path id="Shape-291_1_" fill="#575656" d="M1717.8,404.1c0,0-14.3,3.3-9.6,6.8C1712.9,414.4,1725.1,401.1,1717.8,404.1z"/>
			<path id="Shape-292_1_" fill="#5E5D5D" d="M1709.2,406.7c0,0-1.5,2.6,3.4,2.6c4.9,0.1,6.1-5.1,6.1-5.1L1709.2,406.7z"/>
			<path id="Shape-283_1_" fill="#4A4949" d="M1650.5,456.3c0.2-1.5,0.9-31.8-26.5-32.4C1624.9,422.5,1654.9,420.8,1650.5,456.3z"/>
			<path id="Shape-284_1_" fill="#363636" d="M1746.4,394c-14,10.3-13.3,26.8-15,28.5c-1.8,1.7-1.7,0.9-2.6-0.9
				C1728,419.8,1733.7,397.3,1746.4,394z"/>
			<path id="Shape-285_1_" fill="#575656" d="M1751.6,393.1c1.7,1.5-2.3-1.5-8.2,13.2c-2.1,7.5-2.7,13-5,12.7
				c-2.3-0.3-0.2-7.2,1.9-13C1742.3,400.3,1749.9,391.7,1751.6,393.1z"/>
			<path id="Shape-286_1_" fill="#575656" d="M1627.5,425.7c-0.3-1.4-27.1-4-33.9,16.1c-1.5,2.3,2.5,5.8,5.2,0.9
				C1606.4,422.3,1627.7,427.1,1627.5,425.7z"/>
			<path id="Shape-274_1_" fill="#333333" d="M1523.5,430.7c-3.9,0-20.9,10.6-15.8,22.4c8.5,18.8,57.2-8.1,56.4-15
				c-1.6-10.4-28.6,0.6-28.6,0.6S1527.4,430.7,1523.5,430.7z"/>
			<path id="Shape-275_1_" fill="#454545" d="M1433.8,397.6c-0.9,3.2-0.4,6.1,4.3,6.1c4.6,0,28.5-15.6,53-18.5
				C1475.2,384.4,1434.7,394.4,1433.8,397.6z"/>
			<path id="Shape-276_1_" fill="#525252" d="M1437,399.5c2.6,0.4,31.2-11.4,37-11.1c0.7-2.6-35.5,3.9-37.7,8.4
				C1435,399.1,1434.4,399.1,1437,399.5z"/>
			<path id="Shape-277_1_" fill="#454545" d="M1571.2,427.7c3-0.3,4-5.4,24.9-17.4s45.4-12.4,43.8-14c-23.7-7.6-91.1,19-91.1,19
				S1560.3,428.9,1571.2,427.7z"/>
			<path id="Shape-278_1_" fill="#595959" d="M1551.4,414.5c0,0-10.9,6,3.4,6.1c14.3,0.1,57-27.2,75.6-25.3
				C1611.8,391.2,1551.4,414.5,1551.4,414.5z"/>
			<path id="Shape-279_1_" fill="#4D4D4D" d="M1424.8,431.4c-4.2-10,56.8-47.2,88.8-46.8c11.8,0.1,27.2,3.6,41.5,4.9
				c24.5,2.2,45.3,3.6,42.4,5.6c-2.9,2-65.7,12.6-87.7,19C1487.8,420.5,1445.8,449,1424.8,431.4z"/>
			<path id="Shape-281_1_" fill="#595959" d="M1510.1,388c-21.2,0.6-86.5,31.6-79.2,41.7c7.3,10.1,57.3-29.6,78.1-31.1
				s48.3-0.9,50.5-4.8C1561.6,389.8,1531.3,387.4,1510.1,388z"/>
			<path id="Shape-241_1_" fill="#424242" d="M1513.8,450.5c-17.2-14.9,38.7-45.6,56.3-32.8C1587.8,430.4,1531,465.4,1513.8,450.5z"
				/>
			<path id="Shape-303_1_" fill="#CFCFCC" d="M1545.3,419.6c0,0,16.5-5.9,22.6-5c10.4,1.6,3.3,11.3,3.3,11.3s-18.3,13.3-23.5,12.8
				C1542.5,438.3,1545.3,419.6,1545.3,419.6z"/>
			<path id="Ellipse-46_1_" fill="#F7F7F7" d="M1549.4,420c4.2,1.1,6.4,6.2,5,11.3c-1.4,5.1-5.9,8.3-10,7.1s-6.4-6.2-5-11.3
				C1540.8,422,1545.3,418.8,1549.4,420z"/>
			<path id="Shape-302_1_" opacity="0.878" fill="#FFEE5B" enable-background="new    " d="M1514.8,432.3
				c-6.2,9.9-1.9,18.6,10.2,17.5c12.1-1.2,62.8-21,45.5-35.3C1563.8,409.8,1528,412.9,1514.8,432.3z"/>
			<path id="Shape-312_1_" opacity="0.349" fill="#FFFFFF" enable-background="new    " d="M1560.6,417.7c-3.3-4.3-37.7,5-45,20
				c-3,5.7,11,9.3,15,0C1536.3,419,1562,420.3,1560.6,417.7z"/>
			<path id="Ellipse-47_1_" opacity="0.502" fill="#FFFFFF" enable-background="new    " d="M1547.4,421.4c2.6,0,4.7,2.2,4.7,4.8
				s-2.2,4.8-4.8,4.7c-2.6,0-4.7-2.2-4.7-4.8C1542.6,423.5,1544.8,421.4,1547.4,421.4z"/>
			<path id="Shape-242_1_" fill="#424242" d="M1431.2,397.6c-3.9-3.5-35.3,20-25.4,29.3C1415.6,436.1,1435.1,401.1,1431.2,397.6z"/>
			<path id="Shape-303-copy_1_" fill="#CFCFCC" d="M1421.2,405.2l9.2-5c0,0,0-0.1-1.3,4.6c-1.3,4.8-5.6,12-8,11.7
				C1417.7,416.3,1421.2,405.2,1421.2,405.2z"/>
			<path id="Ellipse-46-copy_1_" fill="#F7F7F7" d="M1423,405.4c2.6,0.7,2.3,3.9,1.4,7.2c-0.3,0.7-0.3,3.6-2.9,2.9
				c-1.8,0.1-4.1-2.2-3.2-5.5C1418.3,408.5,1420.3,404.7,1423,405.4z"/>
			<path id="Shape-242-copy_1_" opacity="0.859" fill="#FFEE5B" enable-background="new    " d="M1430.2,398
				c-3.9-3.5-31.9,17.7-24.4,26.3C1415.7,433.5,1432.6,406.5,1430.2,398z"/>
			<path id="Ellipse-47-copy_1_" opacity="0.502" fill="#FFFFFF" enable-background="new    " d="M1423,406c1.2,0,2.2,1,2.1,2.2
				c0,1.2-1,2.2-2.2,2.1c-1.2,0-2.2-1-2.1-2.2C1420.8,407,1421.8,406,1423,406z"/>
			<path id="Shape-313_1_" opacity="0.349" fill="#FFFFFF" enable-background="new    " d="M1428.6,399.7c-2.7-2.3-14,8-15,12
				s0.7,6,4,5S1431.3,402,1428.6,399.7z"/>
			<path id="Shape-243_1_" fill="#3B3B3B" d="M1652.9,395.6c0.4-7.2,3.2-2.6,6.1-6.9c5.3-10.9,32.1-2.8,32,5.5
				C1690.9,402.6,1652.5,402.8,1652.9,395.6z"/>
			<path id="Shape-300_1_" fill="#333333" d="M1654.6,394.7c4.6-0.8,3.9,0.9,6.9,2.7c5.6,3.7,21.6,2,21.6,2s-11,3.4-25,0.2
				C1656.1,396,1651.1,400.2,1654.6,394.7z"/>
			<path id="Shape-299_1_" fill="#424242" d="M1661.6,387.9c0.6-1.7,16.3-9.4,25.9,4.6c6,6.4-9.6,4.5-11.3,2.5
				C1667.7,384.2,1661,389.6,1661.6,387.9z"/>
			<path id="Shape-301_1_" fill="#4F4F4F" d="M1671.2,386.2c1.5-1.7,16.4,0.6,15.5,7.1c-0.9,2.6-3.5,2.6-5.2-0.1
				C1679.8,390.6,1669.6,387.9,1671.2,386.2z"/>
			<path id="_x30_0000000000_1_" opacity="0.502" fill="#D3ECF6" enable-background="new    " d="M1511.9,382.8
				c0,1.4,129.5,14.4,132.4,12.7c2.9-1.7,14.7-29.7,13.4-37.2c-2.2-8.1-77.2-12.1-91.7-11.4C1551.5,345.6,1511.9,381.4,1511.9,382.8
				z"/>
			<path id="Shape-308_1_" fill="#2B2B2B" d="M1653.7,398.2c5.2,0.1,6.9,1.8,6.9,1.8s21,3.8,30.3-3.2c3.4-3.4-2.1,1.9-12.3,3
				c-10.1,1.1-16.4-0.1-18.1-1.5C1658.7,397.5,1655.7,397.3,1653.7,398.2z"/>
			<path id="Shape-309_1_" fill="#616060" d="M1690.2,392.5c0,0-3.9-9.6-21.6-8.9C1685.4,383.5,1687.6,392.8,1690.2,392.5z"/>
			<path id="Shape-305_1_" opacity="0.541" fill="#F6FAFC" enable-background="new    " d="M1562.4,350.3
				c-12.1,2.5-30.9,15.7-27.9,17.9c3,2.2,88-9.9,87.6-13S1574.6,347.9,1562.4,350.3z"/>
			<path id="Shape-304_1_" fill="#C2BCAB" d="M1590,447c0,0,2.6,1.3,1.7,3.5c-2.2,5.6-13,4.2-13,1.6C1578.8,446.9,1590,447,1590,447
				z"/>
			<path id="Shape-304-copy_1_" opacity="0.502" fill="#FFFFFF" enable-background="new    " d="M1590.5,446.7c0,0,1.6,0.7,1,1.9
				c-1.3,3-7.9,2.2-7.9,0.9C1583.7,446.7,1590.5,446.7,1590.5,446.7z"/>
			<path id="Shape-266_1_" fill="#363636" d="M1657.3,472.9c0.8,3.5,64.3-22.3,66.9-24.5c2.6-2.1,6.2-9.5,2.7-10.4
				c-3.5-0.9-1.1,6.2-5.7,8.1C1700.8,458.1,1659.2,472.7,1657.3,472.9z"/>
			<path id="Shape-268_1_" fill="#424242" d="M1397.4,478c1.7,1.8,38.2,36.9,185.9,24.5c-0.6-0.3,1.7-0.3,0,1.7
				C1564.2,513.9,1423.1,510.4,1397.4,478z"/>
			<path id="Shape-270_1_" fill="#424242" d="M1412.2,474.7c-7.6,5.4,11.4,13.1,23.2,16.7c46.7,10.3,49.3,2.8,49.3,2.3
				c0.3-2.3-10.3-4.4-10.3-4.4S1419.8,469.2,1412.2,474.7z"/>
			<path id="Shape-269_1_" fill="#292828" d="M1410.6,466.8c2.1-1.1,15.3,5.2,25.5,8.2c12.9,3.8,36.6,4.9,41.2,6.5
				c4.6,1.6,6.1,11.6,3.2,12.1c-35.6,2-68.2-12.5-70.1-15.4C1408.4,475.2,1408.5,467.9,1410.6,466.8z"/>
			<path id="Shape-271_1_" fill="#2E2D2D" d="M1409.5,477.8c-1.7-2,0.1-11.3,2.7-9.3c10.6,4.3,21.5,8.8,31.4,10.8
				c17.7,3.6,31.7,2.6,33.4,3.8c1.7,1.2,3.9,5.1,4.8,8.1C1482.2,500.1,1421.5,488.8,1409.5,477.8z"/>
			<path id="Shape-287_1_" fill="#404040" d="M1416.1,433c0,0-13.8,3.6-15-3.4c-1.7-3.9-4.3,7.7-2.4,11.9
				c23.9,28.5,172.8,33.9,181.6,22.7c-48.4-0.6-75,3.8-79.1-17.1c-12.2,5.9-39.2,3.7-51,0.8C1417.6,440.1,1416.1,433,1416.1,433z"/>
			<path id="Shape-267_1_" fill="#3B3B3B" d="M1585.2,492.1c-1.2,4.9-0.9,2.2-1,9.5c-6.2,10.8-164.2,9.6-187.6-25.4
				c31,31.8,180.8,30.3,185.2,23.4C1583.6,497.1,1583.3,491.8,1585.2,492.1z"/>
		</g>
	</g>
</g>
</svg>
