<svg version="1.1" xmlns="http://www.w3.org/2000/svg" xmlns:xlink="http://www.w3.org/1999/xlink" width="138" height="129" viewBox="0 0 138 129">
<defs>
<filter id="Shape-33-fx" filterUnits="userSpaceOnUse">
<feFlood flood-color="#121212" flood-opacity="1.000"/>
<feComposite operator="in" in2="SourceAlpha" />
<feOffset dx="1" dy="1.73205080756888"/>
<feGaussianBlur stdDeviation="0.0" result="blur" />
<feComposite operator="out" in="blur" in2="SourceAlpha" result="maskedShadow"/>
<feComposite operator="over" in="maskedShadow" in2="SourceGraphic" result="dropShadow"/>
<feFlood flood-color="#FFFFFF" flood-opacity="0.500"/>
<feComposite operator="out" in2="SourceAlpha"/>
<feOffset dx="1" dy="1.73205080756888"/>
<feGaussianBlur stdDeviation="0.0" result="blur" />
<feComposite operator="in" in="blur" in2="SourceAlpha" result="maskedShadow"/>
<feBlend mode="normal" in="maskedShadow" in2="dropShadow" result="innerShadow"/>
</filter>
<filter id="Shape-33-copy-fx" filterUnits="userSpaceOnUse">
<feFlood flood-color="#121212" flood-opacity="1.000"/>
<feComposite operator="in" in2="SourceAlpha" />
<feOffset dx="1" dy="1.73205080756888"/>
<feGaussianBlur stdDeviation="0.0" result="blur" />
<feComposite operator="out" in="blur" in2="SourceAlpha" result="maskedShadow"/>
<feComposite operator="over" in="maskedShadow" in2="SourceGraphic" result="dropShadow"/>
<feFlood flood-color="#FFFFFF" flood-opacity="0.500"/>
<feComposite operator="out" in2="SourceAlpha"/>
<feOffset dx="1" dy="1.73205080756888"/>
<feGaussianBlur stdDeviation="0.0" result="blur" />
<feComposite operator="in" in="blur" in2="SourceAlpha" result="maskedShadow"/>
<feBlend mode="normal" in="maskedShadow" in2="dropShadow" result="innerShadow"/>
</filter>
</defs>
<g id="icon-cta-garliic">
<path id="shadow" d="M51.000,115.000 C78.062,115.000 100.000,118.134 100.000,122.000 C100.000,125.866 78.062,129.000 51.000,129.000 C23.938,129.000 2.000,125.866 2.000,122.000 C2.000,118.134 23.938,115.000 51.000,115.000 z" fill="#000000" opacity="0.102" />
<g id="hand-like">
<path id="Shape-42" d="M95.589,66.712 C98.581,64.025 94.853,61.089 98.496,61.740 C103.288,62.598 110.481,62.106 118.100,55.236 C131.509,43.144 125.128,59.261 123.896,63.269 C122.664,67.278 100.463,80.297 90.489,77.945 C89.824,73.914 89.206,70.004 95.589,66.712 z" fill="#F7E1CB" />
<path id="Shape-60" d="M90.248,76.384 C90.248,76.384 95.418,79.218 114.368,69.947 C115.033,71.559 98.802,80.184 91.122,78.874 C89.260,78.740 90.248,76.384 90.248,76.384 z" fill="#E4A89B" />
<path id="Shape-43" d="M109.791,30.275 C114.579,29.015 116.212,33.904 116.996,37.151 C117.895,40.871 117.384,43.881 120.852,44.623 C125.704,46.324 127.629,41.459 132.676,46.965 C136.287,50.708 137.430,54.677 137.478,58.853 C137.525,63.030 136.161,72.512 128.886,73.899 C121.612,75.286 116.680,71.913 115.310,68.837 C113.939,65.761 114.367,63.363 114.497,60.304 C111.874,57.467 112.269,51.628 111.940,47.224 C111.703,44.056 111.906,43.639 110.312,41.337 C108.717,39.034 105.003,31.535 109.791,30.275 z" fill="#FCEAD8" />
<path id="Shape-55" d="M111.211,39.347 C112.744,38.784 112.143,42.184 114.230,43.294 C116.317,44.405 116.213,43.285 116.130,43.966 C116.047,44.648 113.842,47.738 114.839,50.006 C115.837,52.273 116.579,54.711 113.337,55.466 C110.096,56.222 113.133,46.252 111.985,44.527 C110.244,41.910 110.315,39.676 111.211,39.347 z" fill="#F7E1CB" />
<path id="Shape-54" d="M110.336,30.479 C108.935,31.674 109.781,33.669 109.781,33.669 C109.781,33.669 112.519,39.920 115.411,39.103 C116.579,38.664 116.178,34.787 114.832,32.078 C113.486,29.369 110.762,29.897 110.336,30.479 z" fill="#FDF3E9" />
<path id="Shape-53" d="M113.175,50.585 C114.452,56.008 116.169,59.777 116.169,59.777 C116.169,59.777 113.783,63.442 115.226,68.937 C110.380,62.749 111.898,45.163 113.175,50.585 z" fill="#F7E1CB" />
<path id="Shape-50" d="M128.421,65.962 C129.322,66.156 129.216,67.146 128.531,67.924 C127.066,69.239 124.442,68.652 124.442,68.652 C124.442,68.652 128.356,67.688 128.421,65.962 z" fill="#F6CCB2" />
<path id="Shape-47" d="M119.574,51.214 C119.574,51.214 119.661,52.767 120.909,53.352 C122.156,53.936 124.188,51.194 128.374,52.184 C125.090,51.388 121.759,55.518 121.759,55.518 L120.507,54.852 L119.574,51.214 z" fill="#F6CCB2" />
<path id="Shape-48" d="M120.929,58.026 L122.672,63.094 C122.672,63.094 126.051,58.388 130.684,58.695 C128.749,57.412 124.761,59.938 123.219,59.863 C121.676,59.788 120.929,58.026 120.929,58.026 z" fill="#F6CCB2" />
<path id="Shape-49" d="M123.271,66.610 C126.066,68.786 127.721,65.197 128.421,65.962 C128.563,65.832 128.824,66.625 128.704,66.684 C128.683,67.751 128.303,68.183 127.590,68.471 C124.741,68.981 122.164,68.519 123.271,66.610 z" fill="#F6CCB2" />
<path id="Shape-51" d="M124.175,63.552 C124.459,64.778 125.953,64.638 126.912,63.557 C128.712,60.267 129.997,61.165 129.788,60.313 C129.320,58.666 125.341,61.379 125.341,61.379 C125.341,61.379 123.892,62.327 124.175,63.552 z" fill="#FDF3E9" />
<path id="Shape-56" d="M114.321,65.790 C112.671,69.576 124.823,81.180 134.038,70.806 C124.681,78.646 113.838,70.165 114.321,65.790 z" fill="#E4A89B" />
<path id="Shape-57" d="M130.907,45.393 C130.907,45.393 141.766,52.725 136.612,64.752 C138.826,52.279 130.907,45.393 130.907,45.393 z" fill="#E4A89B" />
<path id="Shape-58" d="M108.015,31.455 C112.712,27.493 118.184,31.915 117.326,41.500 C116.503,27.951 109.823,30.120 108.015,31.455 z" fill="#E4A89B" />
<path id="Shape-59" d="M107.815,32.204 C105.874,34.408 109.019,39.579 109.709,39.970 C108.577,38.190 106.946,34.038 107.815,32.204 z" fill="#E4A89B" />
<path id="Shape-44-copy-2" d="M132.393,58.798 C127.947,57.496 122.087,61.199 122.169,64.444 C122.200,66.189 122.642,68.475 124.284,68.872 C125.926,69.270 128.693,68.316 128.470,66.503 C127.786,68.019 125.800,68.184 124.495,67.644 C123.189,67.104 123.155,65.277 123.155,64.275 C123.091,61.529 128.549,58.117 132.393,58.798 z" fill="#E4A89B" />
<path id="Shape-44" d="M127.962,44.346 C123.702,44.381 118.364,48.199 118.746,52.114 C119.128,56.029 121.051,55.969 121.051,55.969 C121.051,55.969 121.872,56.556 122.037,55.800 C122.344,56.563 120.186,55.692 119.732,51.945 C119.278,48.198 123.309,45.028 127.962,44.346 z" fill="#E4A89B" />
<path id="Shape-44-copy" d="M129.585,52.070 C124.440,51.299 120.270,54.823 120.599,58.136 C120.645,60.727 122.420,63.027 122.420,63.027 C122.420,63.027 123.241,63.613 123.406,62.858 C123.713,63.621 121.585,59.569 121.585,57.967 C121.378,55.557 123.598,52.168 129.585,52.070 z" fill="#E4A89B" />
<path id="Shape-45" d="M124.108,48.754 C124.613,46.014 129.219,47.049 129.198,45.246 C129.237,44.505 125.905,44.287 123.400,45.826 C121.245,46.912 120.487,48.383 120.319,49.698 C120.028,52.012 123.748,52.594 124.108,48.754 z" fill="#FDF3E9" />
<path id="Shape-45-copy" d="M125.048,56.821 C125.080,54.522 128.865,53.714 128.914,53.137 C128.962,52.560 126.451,52.540 124.811,53.619 C123.171,54.698 122.139,56.162 121.971,57.478 C122.080,59.687 124.978,58.466 125.048,56.821 z" fill="#FDF3E9" />
</g>
<g id="garlick">
<g id="body">
<path id="Shape-3" d="M37.095,23.940 C37.733,15.201 32.709,6.231 34.216,5.421 C35.723,4.612 43.804,14.313 44.148,20.375 C44.493,26.436 36.456,32.679 37.095,23.940 z" fill="#F2DAC3" />
<path id="Shape-2" d="M40.641,-0.001 C37.796,0.054 44.634,20.954 33.322,34.196 C22.011,47.438 15.178,44.005 7.021,54.248 C-6.092,71.433 7.954,82.187 7.954,82.187 C7.954,82.187 9.335,104.511 35.182,101.643 C72.692,97.482 44.143,-0.068 40.641,-0.001 z" fill="#F7E1CB" />
<path id="Shape-21" d="M2.333,75.532 C2.333,75.532 4.759,78.260 6.020,78.120 C7.281,77.981 6.442,76.147 7.703,76.007 C8.963,75.867 9.079,76.925 8.728,77.606 C8.378,78.287 8.000,82.610 8.000,82.610 L3.755,78.800 L2.333,75.532 z" fill="#F6CCB2" />
<path id="Shape-1" d="M30.198,7.580 C28.553,8.464 38.408,15.553 37.295,39.692 C36.370,59.753 22.692,67.222 24.621,84.834 C25.733,94.983 29.769,111.449 54.040,108.756 C70.119,106.973 72.561,98.923 72.561,98.923 C72.561,98.923 99.120,102.834 95.861,73.078 C97.817,71.124 102.497,59.805 96.096,50.884 C89.696,41.963 75.206,40.948 63.763,30.767 C43.857,14.710 31.605,6.824 30.198,7.580 z" fill="#FCEAD8" />
<path id="Shape-16" d="M36.051,16.349 C34.603,16.724 42.105,34.730 37.281,50.891 C31.054,69.778 26.613,75.836 26.613,75.836 C26.613,75.836 24.120,70.547 23.969,82.765 C23.818,94.984 38.002,107.967 45.285,108.443 C64.941,111.186 72.282,98.598 72.282,98.598 C72.282,98.598 75.934,87.276 71.429,86.919 C66.923,86.563 68.856,92.556 64.723,93.657 C56.760,95.263 59.900,80.429 52.269,76.780 C44.638,73.132 38.237,79.042 35.437,76.784 C32.638,74.525 42.551,58.227 42.397,47.113 C43.483,33.720 37.312,16.209 36.051,16.349 z" fill="#F7E1CB" />
<path id="Shape-15" d="M24.365,84.434 C24.365,84.434 27.273,95.457 31.218,96.517 C33.202,97.154 31.732,95.390 33.857,95.368 C35.982,95.347 37.348,107.825 57.101,105.634 C59.389,105.166 72.934,100.666 74.043,87.486 C74.895,74.868 64.103,54.980 64.103,54.980 C64.103,54.980 61.550,51.089 61.935,50.725 C62.483,51.842 64.523,54.934 64.523,54.934 C64.523,54.934 77.253,74.071 76.097,88.756 C74.940,103.441 61.138,107.541 56.841,109.088 C44.068,112.859 34.735,105.332 33.126,104.226 C25.217,98.040 24.365,84.434 24.365,84.434 z" fill="#F6CCB2" />
<path id="Shape-14-copy" d="M37.528,35.665 C36.882,35.594 38.156,38.807 35.579,48.940 C33.002,59.072 30.541,60.558 31.132,60.778 C31.724,60.998 35.450,53.592 36.442,49.058 C37.435,44.524 38.174,35.737 37.528,35.665 z" fill="#E4A89B" />
<path id="Shape-8" d="M10.500,80.192 C12.295,70.362 25.511,55.087 27.576,56.463 C31.041,58.968 22.393,70.312 20.916,77.217 C19.439,84.123 24.757,88.993 20.027,92.407 C16.172,95.082 8.706,90.022 10.500,80.192 z" fill="#FCEAD8" />
<path id="Shape-9" d="M27.469,44.809 C25.581,42.129 15.139,48.746 10.512,53.112 C7.884,55.329 1.748,64.360 6.017,68.381 C10.285,72.402 11.869,59.246 14.784,56.374 C24.441,44.057 27.678,46.712 27.469,44.809 z" fill="#FCEAD8" />
<path id="Shape-18" d="M74.623,77.544 C80.964,98.576 98.078,88.904 96.414,82.007 C97.818,76.216 97.261,82.101 96.644,86.049 C88.555,101.064 73.704,99.787 75.770,86.125 C75.482,81.555 75.183,79.208 74.623,77.544 z" fill="#F7E1CB" />
<path id="Shape-18-copy" d="M92.436,65.109 C91.411,62.868 81.974,51.142 73.005,46.929 C75.510,47.150 89.618,58.143 92.647,65.086 C96.968,72.725 96.020,73.425 92.436,65.109 z" fill="#F6CCB2" />
<path id="Shape-4" d="M37.756,13.531 C38.395,12.445 43.527,16.542 46.327,18.800 C49.126,21.058 63.462,30.623 62.212,33.045 C61.324,34.158 58.944,30.870 58.500,31.426 C58.056,31.983 59.912,33.554 59.292,34.046 C58.673,34.537 56.089,31.694 55.396,32.278 C54.702,32.863 60.083,37.426 59.233,38.112 C58.382,38.799 54.442,34.330 53.823,34.821 C53.203,35.313 55.472,39.121 54.335,39.501 C53.198,39.881 51.993,35.024 51.162,35.117 C50.330,35.209 50.473,40.353 49.235,40.575 C47.082,40.898 47.550,35.179 46.284,35.150 C45.019,35.121 46.618,37.989 45.186,37.979 C43.256,38.024 44.502,36.874 41.890,25.322 C40.299,18.477 37.118,14.616 37.756,13.531 z" fill="#FDF3E9" />
<path id="Shape-17" d="M74.611,79.074 C76.269,78.676 75.440,92.468 79.057,94.422 C83.653,97.551 91.106,91.801 90.520,94.220 C88.741,99.341 77.955,99.895 77.955,99.895 C77.955,99.895 72.094,100.760 71.885,98.856 C78.052,94.961 72.953,79.472 74.611,79.074 z" fill="#F6CCB2" />
<path id="Ellipse-1" d="M51.367,108.625 C62.668,107.371 73.377,100.819 75.616,91.094 C74.958,102.095 64.873,109.481 52.672,110.834 C42.234,111.992 32.668,106.648 28.270,98.166 C33.090,105.345 41.867,109.678 51.367,108.625 z" fill="#E4A89B" />
<path id="Shape-5" d="M69.892,39.069 C71.543,37.302 86.350,44.444 91.279,48.621 C98.484,53.187 98.881,61.776 95.301,62.845 C92.968,63.407 88.949,54.472 83.555,49.834 C77.026,44.220 68.988,40.037 69.892,39.069 z" fill="#FDF3E9" />
<path id="Shape-19" d="M90.338,61.489 C90.338,61.489 93.323,65.439 95.891,65.582 C98.459,65.725 98.138,58.911 99.235,59.217 C100.332,59.524 97.870,71.999 96.212,72.396 C95.420,70.986 90.338,61.489 90.338,61.489 z" fill="#F6CCB2" />
<path id="Shape-20" d="M25.341,89.463 C25.341,89.463 27.995,98.159 22.999,97.215 C20.501,97.706 20.201,93.030 18.309,95.167 C15.575,97.396 10.375,90.695 10.677,91.518 C10.980,92.341 14.499,99.228 22.552,100.904 C28.014,102.224 31.400,102.063 31.400,102.063 L25.341,89.463 z" fill="#F6CCB2" />
<path id="Shape-6" d="M69.643,47.301 C71.559,45.376 88.100,58.526 92.410,68.751 C96.720,78.976 93.255,90.064 88.144,88.062 C83.033,86.060 83.018,76.215 81.577,68.882 C80.136,61.550 67.726,49.227 69.643,47.301 z" fill="#FDF3E9" />
<path id="Shape-7" d="M49.420,52.970 C52.572,52.620 51.204,54.699 53.058,57.062 C54.912,59.424 55.290,54.138 59.177,54.670 C63.064,55.202 79.778,97.125 59.744,100.631 C39.709,104.138 34.541,87.049 39.453,76.552 C44.365,66.055 46.267,53.320 49.420,52.970 z" fill="#FDF3E9" />
<path id="Shape-14" d="M27.507,68.459 C26.978,68.160 24.732,74.189 24.138,76.539 C22.896,81.386 23.637,84.445 24.373,87.931 C25.109,91.417 26.334,94.524 26.527,94.469 C26.719,94.414 26.040,92.306 25.295,87.899 C24.600,83.782 24.009,82.084 25.133,76.372 C25.935,72.300 27.740,68.647 27.507,68.459 z" fill="#E4A89B" />
<path id="Shape-10" d="M74.600,38.189 C74.600,38.189 95.709,47.407 97.978,55.504 C100.631,65.163 95.278,72.607 95.185,72.725 C97.643,77.696 102.747,61.182 98.143,53.130 C93.423,44.985 74.600,38.189 74.600,38.189 z" fill="#E4A89B" />
<path id="Shape-11" d="M88.403,59.349 C99.281,73.233 98.100,89.633 87.343,96.285 C79.600,100.355 71.817,97.258 71.488,99.114 C69.689,101.133 80.894,102.459 88.182,98.119 C95.470,93.778 100.054,84.172 97.051,74.230 C94.048,64.288 86.875,57.056 88.403,59.349 z" fill="#E4A89B" />
<path id="Shape-12" d="M13.919,68.681 C14.370,68.917 9.973,73.676 9.058,79.717 C8.235,85.149 9.982,91.495 13.826,95.022 C21.944,102.470 30.933,101.687 30.933,101.687 C30.933,101.687 30.855,101.624 31.890,102.651 C32.465,103.372 18.543,103.132 12.238,96.054 C8.660,92.038 6.787,87.147 7.742,79.345 C8.457,74.270 13.468,68.446 13.919,68.681 z" fill="#E4A89B" />
<path id="Shape-13" d="M36.951,28.451 C37.088,28.562 34.544,37.048 19.580,45.180 C19.082,45.419 18.561,45.651 18.274,45.789 C-1.029,55.071 -0.819,76.873 7.884,81.553 C9.167,83.551 8.548,83.727 7.673,83.503 C4.871,83.171 -2.682,75.018 0.982,63.801 C6.725,49.014 16.374,46.188 19.792,44.382 C33.900,37.251 36.860,28.378 36.951,28.451 z" fill="#E4A89B" />
</g>
<g id="mouth">
<path id="Shape-22-copy" d="M43.228,84.957 C43.608,84.280 53.670,86.614 58.191,86.187 C62.712,85.761 67.331,84.052 68.593,85.485 C69.855,86.917 65.484,92.287 58.314,92.408 C51.144,92.530 42.488,86.275 43.228,84.957 z" fill="#F6CCB2" />
<path id="Shape-22-copy-2" d="M42.382,81.404 C42.762,80.727 52.824,83.061 57.346,82.634 C61.867,82.208 66.485,80.499 67.747,81.931 C69.009,83.364 64.638,88.734 57.468,88.855 C50.298,88.976 41.642,82.722 42.382,81.404 z" fill="#F7E1CB" />
<path id="Shape-22" d="M42.805,83.255 C43.185,82.578 53.247,84.912 57.768,84.485 C62.290,84.059 66.908,82.350 68.170,83.783 C69.432,85.215 65.061,90.585 57.891,90.706 C50.721,90.827 42.065,84.573 42.805,83.255 z" fill="#E4A89B" />
<path id="Shape-24" d="M67.499,83.724 C67.499,83.724 67.402,85.532 66.869,86.041 C59.889,88.912 45.225,86.195 44.327,86.070 C43.429,85.945 43.089,83.838 43.089,83.838 C43.089,83.838 42.956,83.072 43.623,82.655 C45.789,82.822 51.492,85.722 67.159,82.639 C67.659,83.305 67.499,83.724 67.499,83.724 z" fill="#FFFFFF" />
<path id="Shape-25" d="M44.791,85.960 C49.431,87.610 66.272,86.228 66.513,86.508 C66.754,86.789 66.543,86.542 66.410,86.994 C65.611,90.113 57.363,91.553 50.708,89.458 C48.625,88.791 45.126,86.640 44.791,85.960 z" fill="#FFFFFF" />
<path id="Shape-62" d="M52.000,84.000 L51.613,87.300 L49.126,86.676 L49.000,84.000 L52.000,84.000 z" fill="#FEDE76" />
<path id="Shape-63" d="M51.613,83.935 C51.613,83.935 52.018,86.716 49.748,86.676 C48.882,86.894 49.748,87.300 49.748,87.300 C49.748,87.300 53.375,87.456 52.857,85.429 C52.940,83.467 51.613,83.935 51.613,83.935 z" fill="#FCDD71" />
<path id="Shape-64" d="M52.235,84.806 C52.235,84.806 51.769,86.053 50.369,86.676 C48.970,87.300 51.924,86.988 52.235,86.676 C52.546,86.364 52.235,84.806 52.235,84.806 z" fill="#FFEDAE" />
</g>
<g id="glasses">
<path id="Shape-31" d="M85.061,63.384 C84.929,64.128 83.871,64.222 83.925,64.796 C83.979,65.370 83.895,71.252 82.261,74.955 C80.600,78.720 67.419,79.566 64.180,77.118 C60.874,74.620 59.404,67.529 59.404,67.529 C59.404,67.529 58.965,66.976 58.384,66.863 C57.519,66.777 57.109,67.555 57.109,67.555 C57.109,67.555 54.776,75.403 51.439,78.192 C48.023,81.045 33.699,80.675 31.512,76.696 C29.292,72.657 28.901,66.028 28.941,65.379 C28.981,64.730 27.633,64.647 27.429,63.805 C27.225,62.963 26.554,59.901 27.627,59.484 C37.966,56.878 56.611,62.257 58.235,62.736 C60.587,62.227 77.765,57.396 84.760,59.576 C85.612,59.945 85.192,62.640 85.061,63.384 z" fill="#1C1C1C" />
<path id="Shape-37" d="M61.730,64.435 C61.514,63.936 60.381,64.659 60.215,65.350 C60.048,66.042 60.594,68.074 60.985,67.956 C61.208,67.888 60.858,66.533 60.929,65.625 C60.983,64.944 61.823,64.649 61.730,64.435 z" fill="#262626" />
<path id="Shape-38" d="M53.986,63.595 C54.874,62.961 56.425,64.501 56.716,65.218 C57.007,65.935 55.767,69.177 55.009,69.047 C54.373,69.002 55.207,67.056 55.109,65.497 C55.026,64.163 53.577,63.887 53.986,63.595 z" fill="#262626" />
<path id="Shape-32" d="M34.297,62.692 C36.272,60.671 51.834,61.840 53.683,65.280 C55.874,69.303 51.864,75.382 49.830,77.072 C47.778,78.779 37.905,78.922 35.391,76.280 C32.855,73.613 32.282,64.754 34.297,62.692 z" fill="#393939" />
<path id="Shape-32-copy" d="M34.951,63.339 C36.423,61.819 48.035,62.711 49.417,65.302 C51.055,68.331 48.067,72.904 46.551,74.175 C45.021,75.458 37.655,75.558 35.777,73.568 C33.883,71.558 33.449,64.890 34.951,63.339 z" fill="#404040" />
<path id="Shape-32-copy-4" d="M35.631,63.838 C36.868,62.566 46.626,63.307 47.786,65.474 C49.161,68.007 46.649,71.834 45.374,72.898 C44.088,73.971 37.898,74.059 36.321,72.394 C34.730,70.714 34.368,65.136 35.631,63.838 z" fill="#474747" />
<path id="Shape-32-copy-5" d="M36.995,65.036 C37.464,64.434 41.447,64.336 42.040,65.213 C42.741,66.238 41.843,67.993 41.348,68.506 C40.849,69.025 37.584,69.411 36.836,68.768 C36.082,68.119 36.515,65.649 36.995,65.036 z" fill="#4F4F4F" />
<path id="Shape-32-copy-6" d="M37.075,65.152 C37.273,64.897 38.953,64.857 39.204,65.229 C39.500,65.664 39.121,66.407 38.913,66.625 C38.702,66.845 37.324,67.008 37.009,66.735 C36.690,66.460 36.872,65.412 37.075,65.152 z" fill="#5C5C5C" />
<path id="Shape-32" d="M79.526,62.675 C77.772,60.808 63.094,62.234 61.488,65.540 C60.240,68.394 63.067,75.372 65.938,76.338 C68.808,77.304 77.065,77.368 79.077,74.803 C81.068,72.265 81.248,64.507 79.526,62.675 z" fill="#393939" />
<path id="Shape-32-copy-2" d="M76.604,63.561 C75.233,62.097 63.769,63.209 62.516,65.801 C61.542,68.038 63.752,73.509 65.995,74.267 C68.237,75.025 74.686,75.078 76.256,73.068 C77.811,71.079 77.949,64.998 76.604,63.561 z" fill="#404040" />
<path id="Shape-32-copy-3" d="M74.649,64.209 C73.526,63.011 64.132,63.923 63.105,66.044 C62.307,67.874 64.117,72.350 65.955,72.970 C67.792,73.590 73.077,73.632 74.363,71.988 C75.637,70.360 75.752,65.384 74.649,64.209 z" fill="#474747" />
<path id="Shape-32-copy-7" d="M68.639,65.196 C68.152,64.654 64.106,65.044 63.668,65.997 C63.328,66.820 63.581,68.719 64.375,69.002 C65.168,69.285 67.981,69.437 68.533,68.699 C69.078,67.969 69.116,65.728 68.639,65.196 z" fill="#4F4F4F" />
<path id="Shape-32-copy-8" d="M66.038,65.646 C65.833,65.431 64.332,65.574 64.144,65.956 C63.998,66.286 63.891,67.069 64.225,67.180 C64.560,67.292 65.749,67.346 65.984,67.049 C66.216,66.755 66.238,65.858 66.038,65.646 z" fill="#5C5C5C" />
<path id="Shape-33" d="M28.703,61.904 C28.759,61.113 32.027,61.178 32.112,61.954 C32.197,62.729 28.648,62.695 28.703,61.904 z" fill="#A1A1A1" filter="url(#Shape-33-fx)" />
<path id="Shape-33-copy" d="M81.062,61.977 C80.981,61.362 83.495,60.893 83.682,61.474 C83.868,62.055 81.144,62.592 81.062,61.977 z" fill="#A1A1A1" filter="url(#Shape-33-copy-fx)" />
</g>
</g>
</g>
</svg>
