<svg version="1.1" xmlns="http://www.w3.org/2000/svg" xmlns:xlink="http://www.w3.org/1999/xlink" width="104" height="138" viewBox="0 0 104 138">
<defs>
<filter id="Shape-33-fx" filterUnits="userSpaceOnUse">
<feFlood flood-color="#121212" flood-opacity="1.000"/>
<feComposite operator="in" in2="SourceAlpha" />
<feOffset dx="1" dy="1.73205080756888"/>
<feGaussianBlur stdDeviation="0.0" result="blur" />
<feComposite operator="out" in="blur" in2="SourceAlpha" result="maskedShadow"/>
<feComposite operator="over" in="maskedShadow" in2="SourceGraphic" result="dropShadow"/>
<feFlood flood-color="#FFFFFF" flood-opacity="0.500"/>
<feComposite operator="out" in2="SourceAlpha"/>
<feOffset dx="1" dy="1.73205080756888"/>
<feGaussianBlur stdDeviation="0.0" result="blur" />
<feComposite operator="in" in="blur" in2="SourceAlpha" result="maskedShadow"/>
<feBlend mode="normal" in="maskedShadow" in2="dropShadow" result="innerShadow"/>
</filter>
<filter id="Shape-33-copy-fx" filterUnits="userSpaceOnUse">
<feFlood flood-color="#121212" flood-opacity="1.000"/>
<feComposite operator="in" in2="SourceAlpha" />
<feOffset dx="1" dy="1.73205080756888"/>
<feGaussianBlur stdDeviation="0.0" result="blur" />
<feComposite operator="out" in="blur" in2="SourceAlpha" result="maskedShadow"/>
<feComposite operator="over" in="maskedShadow" in2="SourceGraphic" result="dropShadow"/>
<feFlood flood-color="#FFFFFF" flood-opacity="0.500"/>
<feComposite operator="out" in2="SourceAlpha"/>
<feOffset dx="1" dy="1.73205080756888"/>
<feGaussianBlur stdDeviation="0.0" result="blur" />
<feComposite operator="in" in="blur" in2="SourceAlpha" result="maskedShadow"/>
<feBlend mode="normal" in="maskedShadow" in2="dropShadow" result="innerShadow"/>
</filter>
</defs>
<g id="icon-404-garlic">
<g id="garlick">
<g id="body">
<path id="Shape-3" d="M43.620,25.110 C44.277,16.126 39.108,6.905 40.658,6.073 C42.208,5.241 50.524,15.214 50.879,21.444 C51.233,27.675 42.964,34.093 43.620,25.110 z" fill="#D2D2D2" />
<path id="Shape-2" d="M56.369,0.499 C53.442,0.556 46.478,22.040 34.839,35.653 C23.199,49.265 16.168,45.736 7.775,56.266 C-5.718,73.931 8.735,84.986 8.735,84.986 C8.735,84.986 10.156,107.934 36.752,104.986 C55.050,102.809 59.973,0.430 56.369,0.499 z" fill="#E1E1E1" />
<path id="Shape-21" d="M2.951,78.145 C2.951,78.145 5.447,80.949 6.744,80.805 C8.042,80.662 7.179,78.777 8.476,78.633 C9.773,78.489 9.892,79.577 9.531,80.277 C9.170,80.977 8.782,85.421 8.782,85.421 L4.413,81.504 L2.951,78.145 z" fill="#D2D2D2" />
<path id="Shape-1" d="M31.624,8.292 C29.931,9.200 40.071,16.488 38.926,41.302 C37.975,61.924 23.900,69.603 25.885,87.707 C27.029,98.140 31.182,115.066 56.157,112.298 C72.702,110.465 75.215,102.190 75.215,102.190 C75.215,102.190 102.544,106.210 99.191,75.622 C101.203,73.614 106.019,61.978 99.433,52.807 C92.847,43.637 77.937,42.594 66.162,32.127 C45.678,15.621 33.072,7.515 31.624,8.292 z" fill="#EAEAEA" />
<path id="Shape-16" d="M37.646,17.307 C36.156,17.692 43.876,36.201 38.912,52.815 C32.505,72.229 27.935,78.457 27.935,78.457 C27.935,78.457 25.369,73.020 25.214,85.580 C25.059,98.140 39.654,111.487 47.148,111.976 C67.374,114.796 74.928,101.856 74.928,101.856 C74.928,101.856 78.686,90.217 74.050,89.850 C69.414,89.484 71.403,95.645 67.149,96.777 C58.956,98.428 62.187,83.179 54.335,79.428 C46.482,75.678 39.896,81.753 37.015,79.431 C34.134,77.110 44.335,60.356 44.177,48.931 C45.294,35.164 38.943,17.163 37.646,17.307 z" fill="#E1E1E1" />
<path id="Shape-15" d="M25.621,87.296 C25.621,87.296 28.614,98.627 32.673,99.717 C34.714,100.371 33.203,98.558 35.389,98.536 C37.575,98.514 38.981,111.341 59.307,109.089 C61.662,108.608 75.599,103.982 76.740,90.433 C77.617,77.463 66.512,57.018 66.512,57.018 C66.512,57.018 63.885,53.018 64.281,52.644 C64.845,53.792 66.944,56.970 66.944,56.970 C66.944,56.970 80.044,76.643 78.853,91.739 C77.663,106.834 63.461,111.049 59.039,112.639 C45.895,116.516 36.293,108.778 34.636,107.642 C26.498,101.282 25.621,87.296 25.621,87.296 z" fill="#D2D2D2" />
<path id="Shape-14-copy" d="M39.166,37.163 C38.502,37.090 39.812,40.392 37.160,50.809 C34.508,61.225 31.977,62.752 32.585,62.978 C33.193,63.204 37.028,55.591 38.049,50.930 C39.070,46.269 39.831,37.236 39.166,37.163 z" fill="#BBBBBB" />
<path id="Shape-8" d="M11.355,82.935 C13.202,72.830 26.801,57.128 28.925,58.543 C32.491,61.118 23.592,72.778 22.072,79.877 C20.552,86.976 26.025,91.982 21.157,95.492 C17.191,98.242 9.508,93.040 11.355,82.935 z" fill="#EAEAEA" />
<path id="Shape-9" d="M28.816,46.562 C26.872,43.807 16.128,50.609 11.367,55.097 C8.662,57.377 2.348,66.660 6.741,70.794 C11.134,74.927 12.763,61.403 15.763,58.450 C25.700,45.789 29.030,48.518 28.816,46.562 z" fill="#EAEAEA" />
<path id="Shape-18" d="M77.337,80.213 C83.862,101.833 101.472,91.891 99.760,84.801 C101.204,78.848 100.632,84.897 99.996,88.956 C91.673,104.391 76.391,103.079 78.517,89.035 C78.221,84.336 77.913,81.923 77.337,80.213 z" fill="#E1E1E1" />
<path id="Shape-18-copy" d="M95.667,67.430 C94.612,65.127 84.901,53.073 75.672,48.741 C78.250,48.969 92.766,60.270 95.883,67.406 C100.330,75.259 99.355,75.979 95.667,67.430 z" fill="#BBBBBB" />
<path id="Shape-17" d="M77.325,81.786 C79.030,81.377 78.177,95.555 81.899,97.563 C86.629,100.779 94.298,94.868 93.695,97.356 C91.864,102.620 80.765,103.190 80.765,103.190 C80.765,103.190 74.734,104.078 74.520,102.122 C80.866,98.117 75.618,82.195 77.325,81.786 z" fill="#D2D2D2" />
<path id="Ellipse-1" d="M53.406,112.163 C65.036,110.874 76.055,104.139 78.359,94.142 C77.682,105.451 67.304,113.044 54.750,114.435 C44.009,115.625 34.165,110.132 29.640,101.412 C34.600,108.791 43.631,113.246 53.406,112.163 z" fill="#BBBBBB" />
<path id="Shape-19" d="M93.508,63.709 C93.508,63.709 96.580,67.769 99.222,67.916 C101.865,68.064 101.534,61.059 102.663,61.374 C103.792,61.689 101.258,74.513 99.552,74.922 C98.737,73.472 93.508,63.709 93.508,63.709 z" fill="#D2D2D2" />
<path id="Shape-20" d="M26.626,92.466 C26.626,92.466 29.356,101.405 24.216,100.434 C21.645,100.939 21.337,96.132 19.389,98.329 C16.577,100.621 11.225,93.732 11.537,94.578 C11.849,95.424 15.470,102.504 23.756,104.226 C29.377,105.584 32.860,105.418 32.860,105.418 L26.626,92.466 z" fill="#D2D2D2" />
<path id="Shape-14" d="M28.855,70.873 C28.310,70.567 25.999,76.765 25.388,79.179 C24.110,84.162 24.872,87.307 25.630,90.891 C26.387,94.474 27.647,97.668 27.846,97.612 C28.044,97.555 27.345,95.388 26.579,90.858 C25.863,86.626 25.256,84.880 26.412,79.008 C27.237,74.822 29.095,71.067 28.855,70.873 z" fill="#BBBBBB" />
<path id="Shape-10" d="M77.313,39.757 C77.313,39.757 99.034,49.233 101.369,57.556 C104.099,67.486 98.591,75.138 98.495,75.259 C101.025,80.370 106.277,63.394 101.540,55.117 C96.682,46.743 77.313,39.757 77.313,39.757 z" fill="#BBBBBB" />
<path id="Shape-11" d="M91.516,61.509 C102.710,75.782 101.495,92.641 90.426,99.478 C82.458,103.662 74.449,100.479 74.111,102.387 C72.260,104.462 83.790,105.825 91.289,101.363 C98.788,96.902 103.506,87.026 100.415,76.806 C97.325,66.586 89.945,59.152 91.516,61.509 z" fill="#BBBBBB" />
<path id="Shape-12" d="M14.873,71.103 C15.337,71.345 10.813,76.237 9.871,82.447 C9.024,88.031 10.822,94.555 14.777,98.180 C23.130,105.836 32.380,105.031 32.380,105.031 C32.380,105.031 32.300,104.966 33.364,106.022 C33.956,106.763 19.630,106.517 13.142,99.241 C9.461,95.112 7.534,90.084 8.516,82.065 C9.252,76.847 14.408,70.861 14.873,71.103 z" fill="#BBBBBB" />
<path id="Shape-13" d="M38.572,29.747 C38.714,29.861 36.096,38.584 20.698,46.944 C20.185,47.189 19.649,47.428 19.354,47.570 C-0.509,57.112 -0.293,79.524 8.663,84.334 C9.982,86.388 9.346,86.569 8.445,86.338 C5.563,85.998 -2.209,77.616 1.560,66.086 C7.470,50.885 17.399,47.980 20.916,46.123 C35.433,38.793 38.478,29.672 38.572,29.747 z" fill="#BBBBBB" />
<path id="Shape-4" d="M39.401,14.409 C40.058,13.293 45.340,17.505 48.220,19.826 C51.101,22.147 65.852,31.979 64.567,34.469 C63.653,35.614 61.204,32.233 60.747,32.806 C60.290,33.378 62.199,34.992 61.562,35.498 C60.924,36.003 58.266,33.081 57.552,33.681 C56.838,34.282 62.375,38.973 61.500,39.678 C60.625,40.384 56.571,35.790 55.933,36.295 C55.296,36.801 57.630,40.716 56.461,41.106 C55.291,41.497 54.051,36.504 53.195,36.599 C52.340,36.694 52.486,41.981 51.213,42.210 C48.997,42.542 49.479,36.663 48.176,36.633 C46.874,36.604 48.520,39.552 47.047,39.541 C45.060,39.587 46.342,38.406 43.655,26.530 C42.018,19.494 38.744,15.525 39.401,14.409 z" fill="#F3F3F3" />
<path id="Shape-5" d="M72.469,40.662 C74.168,38.845 89.404,46.188 94.476,50.481 C101.890,55.175 102.299,64.004 98.615,65.103 C96.214,65.681 92.079,56.496 86.528,51.728 C79.810,45.957 71.539,41.657 72.469,40.662 z" fill="#F3F3F3" />
<path id="Shape-6" d="M72.212,49.125 C74.184,47.146 91.205,60.663 95.640,71.174 C100.075,81.685 96.509,93.083 91.250,91.025 C85.991,88.967 85.976,78.847 84.493,71.309 C83.010,63.772 70.240,51.104 72.212,49.125 z" fill="#F3F3F3" />
<path id="Shape-7" d="M51.403,54.951 C54.646,54.592 53.239,56.729 55.147,59.158 C57.054,61.586 57.443,56.153 61.443,56.700 C65.442,57.246 82.641,100.342 62.026,103.946 C41.411,107.551 36.093,89.984 41.147,79.193 C46.202,68.403 48.159,55.311 51.403,54.951 z" fill="#F3F3F3" />
</g>
<g id="mouth">
<path id="Ellipse-51" d="M54.453,85.187 C57.154,85.187 59.344,88.014 59.344,91.500 C59.344,94.986 57.154,97.813 54.453,97.813 C51.752,97.813 49.563,94.986 49.563,91.500 C49.563,88.014 51.752,85.187 54.453,85.187 z" fill="#D2D2D2" />
<path id="Ellipse-51-copy" d="M54.450,85.900 C55.712,85.900 56.862,86.513 57.731,87.521 C56.142,88.775 52.556,87.740 51.073,87.634 C51.952,86.560 53.141,85.900 54.450,85.900 z" fill="#FFFFFF" />
<path id="Ellipse-51-copy-" d="M54.496,96.400 C55.824,96.400 57.035,95.823 57.950,94.874 C55.110,95.327 52.503,94.668 50.942,94.768 C51.867,95.779 53.118,96.400 54.496,96.400 z" fill="#FFFFFF" />
</g>
<g id="glasses">
<path id="Shape-31" d="M83.855,66.111 C83.707,66.948 82.517,67.044 82.577,67.689 C82.638,68.335 82.544,74.946 80.715,79.059 C78.865,83.218 64.537,83.673 61.107,80.891 C57.643,78.080 56.115,70.379 56.115,70.379 C56.115,70.379 55.661,69.775 55.060,69.646 C54.165,69.540 53.743,70.372 53.743,70.372 C53.743,70.372 51.350,78.756 47.955,81.639 C44.518,84.558 30.489,83.659 28.402,79.466 C26.296,75.238 25.926,68.396 25.964,67.727 C26.002,67.059 24.732,66.961 24.540,66.093 C24.348,65.226 23.718,62.076 24.725,61.649 C34.610,58.936 53.273,64.679 54.907,65.194 C57.476,64.620 75.758,59.395 83.516,61.823 C84.477,62.240 84.003,65.274 83.855,66.111 z" fill="#1C1C1C" />
<path id="Shape-37" d="M58.537,67.058 C58.311,66.515 57.131,67.288 56.957,68.034 C56.784,68.780 57.352,70.987 57.759,70.865 C57.992,70.795 57.628,69.322 57.702,68.340 C57.757,67.602 58.634,67.291 58.537,67.058 z" fill="#262626" />
<path id="Shape-38" d="M50.543,66.083 C51.449,65.411 53.039,67.078 53.339,67.853 C53.639,68.628 52.364,72.095 51.587,71.942 C50.938,71.883 51.791,69.809 51.690,68.134 C51.604,66.702 50.126,66.393 50.543,66.083 z" fill="#262626" />
<path id="Shape-32" d="M31.064,64.990 C32.964,62.896 48.355,64.192 50.234,67.886 C52.474,72.233 48.385,78.652 46.332,80.396 C44.272,82.144 34.545,81.974 32.115,79.142 C29.682,76.307 29.135,67.115 31.064,64.990 z" fill="#393939" />
<path id="Shape-32-copy" d="M31.692,65.667 C33.110,64.094 44.529,65.097 45.916,67.863 C47.567,71.111 44.561,75.918 43.047,77.228 C41.526,78.545 34.302,78.452 32.487,76.328 C30.666,74.197 30.250,67.266 31.692,65.667 z" fill="#404040" />
<path id="Shape-32-copy-4" d="M32.346,66.192 C33.541,64.875 43.122,65.719 44.281,68.027 C45.659,70.737 43.144,74.751 41.877,75.849 C40.602,76.952 34.538,76.891 33.012,75.117 C31.479,73.336 31.132,67.531 32.346,66.192 z" fill="#474747" />
<path id="Shape-32-copy-5" d="M33.663,67.453 C34.118,66.830 38.001,66.763 38.583,67.691 C39.272,68.777 38.390,70.611 37.904,71.143 C37.414,71.679 34.233,72.029 33.510,71.345 C32.781,70.657 33.199,68.088 33.663,67.453 z" fill="#4F4F4F" />
<path id="Shape-32-copy-6" d="M33.740,67.575 C33.932,67.311 35.564,67.285 35.808,67.677 C36.096,68.136 35.728,68.910 35.524,69.136 C35.319,69.363 33.982,69.515 33.677,69.227 C33.368,68.935 33.545,67.845 33.740,67.575 z" fill="#5C5C5C" />
<path id="Shape-32" d="M77.675,65.273 C75.739,63.183 59.965,64.679 58.284,68.254 C56.984,71.328 59.937,78.958 62.964,80.095 C66.018,81.243 74.962,81.587 77.178,78.795 C79.385,76.013 79.586,67.336 77.675,65.273 z" fill="#393939" />
<path id="Shape-32-copy-2" d="M74.456,66.236 C72.957,64.602 60.675,65.745 59.359,68.549 C58.341,70.963 60.657,76.951 63.024,77.836 C65.408,78.727 72.361,78.972 74.076,76.787 C75.782,74.613 75.934,67.847 74.456,66.236 z" fill="#404040" />
<path id="Shape-32-copy-3" d="M72.320,66.937 C71.100,65.602 61.057,66.525 59.977,68.820 C59.140,70.797 61.041,75.699 62.982,76.419 C64.934,77.143 70.612,77.328 72.009,75.543 C73.398,73.768 73.523,68.252 72.320,66.937 z" fill="#474747" />
<path id="Shape-32-copy-7" d="M65.837,67.961 C65.318,67.362 61.030,67.745 60.569,68.777 C60.211,69.667 60.478,71.736 61.312,72.058 C62.149,72.381 65.136,72.599 65.724,71.800 C66.307,71.008 66.348,68.550 65.837,67.961 z" fill="#4F4F4F" />
<path id="Shape-32-copy-8" d="M63.070,68.424 C62.853,68.186 61.267,68.324 61.070,68.738 C60.916,69.096 60.803,69.946 61.155,70.072 C61.508,70.198 62.764,70.275 63.013,69.954 C63.259,69.637 63.282,68.657 63.070,68.424 z" fill="#5C5C5C" />
<path id="Shape-33" d="M25.740,64.144 C25.792,63.329 28.892,63.408 28.973,64.212 C29.054,65.016 25.688,64.959 25.740,64.144 z" fill="#A1A1A1" filter="url(#Shape-33-fx)" />
<path id="Shape-33-copy" d="M79.379,64.503 C79.288,63.815 82.095,63.300 82.305,63.953 C82.514,64.607 79.470,65.192 79.379,64.503 z" fill="#A1A1A1" filter="url(#Shape-33-copy-fx)" />
</g>
<path id="shadow" d="M52.000,121.052 C26.995,121.052 6.724,124.734 6.724,129.276 C6.724,133.818 26.995,137.500 52.000,137.500 C77.005,137.500 97.276,133.818 97.276,129.276 C97.276,124.734 77.005,121.052 52.000,121.052 z" fill="#000000" opacity="0.051" />
</g>
</g>
</svg>
