<svg version="1.1" xmlns="http://www.w3.org/2000/svg" xmlns:xlink="http://www.w3.org/1999/xlink" width="60" height="54" viewBox="0 0 60 54">
<g id="icon-convert">
<g id="5">
<g id="Group-14">
<path id="Ellipse-20-copy" d="M10.000,10.199 C4.477,10.199 -0.000,13.660 -0.000,19.158 C-0.000,22.333 4.477,23.140 10.000,23.140 C15.523,23.140 20.000,22.333 20.000,19.158 C20.000,13.660 15.523,10.199 10.000,10.199 z" fill="#72A6ED" />
<path id="Ellipse-21" d="M10.000,10.187 C12.209,10.187 14.000,11.083 14.000,12.188 C14.000,13.292 12.209,14.188 10.000,14.188 C7.791,14.188 6.000,13.292 6.000,12.188 C6.000,11.083 7.791,10.187 10.000,10.187 z" fill="#659BE3" />
<path id="Shape-129" d="M4.037,14.085 C2.648,13.501 0.665,16.422 1.062,18.954 C1.459,21.486 11.572,21.486 11.969,19.928 C12.366,18.369 7.675,18.509 5.547,17.203 C3.733,16.090 5.425,14.669 4.037,14.085 z" fill="#81B1F2" />
<path id="Ellipse-20" d="M10.000,0.244 C6.686,0.244 5.000,1.923 5.000,5.222 C5.000,8.520 6.686,12.190 10.000,12.190 C13.314,12.190 15.000,8.520 15.000,5.222 C15.000,1.923 13.314,0.244 10.000,0.244 z" fill="#EDD4A0" />
<path id="Shape-130" d="M13.635,2.211 C16.502,10.442 5.818,10.442 8.423,12.188 C12.279,12.434 13.241,10.936 14.804,9.197 C15.618,5.458 13.769,-0.020 13.635,2.211 z" fill="#E0C386" />
</g>
<path id="Shape-131" d="M48.317,22.746 L45.246,31.109 L38.494,24.859 C38.494,24.859 41.148,24.288 41.148,24.288 C35.829,10.391 24.697,15.993 23.116,13.574 C21.491,11.086 25.759,10.269 25.759,10.269 C25.759,10.269 42.206,7.407 45.337,23.084 C45.340,23.191 45.336,23.285 45.336,23.388 C45.336,23.388 48.317,22.746 48.317,22.746 z" fill="#4EBD56" />
<path id="Shape-133" d="M23.000,13.000 C23.167,13.000 41.917,9.416 42.000,24.000 C42.500,24.250 39.500,18.500 36.000,16.000 C32.500,13.500 22.833,14.000 23.000,13.000 z" fill="#36A13E" />
<path id="Shape-131-copy-2" d="M37.689,43.832 L30.987,49.700 C30.987,49.700 30.502,46.733 30.502,46.733 C30.407,46.771 30.320,46.809 30.218,46.845 C14.422,49.699 11.118,33.580 11.118,33.580 C11.118,33.580 10.330,29.371 13.248,29.952 C16.085,30.518 14.893,42.766 29.822,42.567 C29.822,42.567 29.391,39.926 29.391,39.926 L37.689,43.832 z" fill="#4EBD56" />
<path id="Shape-132" d="M11.000,34.000 C15.000,47.500 31.000,45.000 31.000,45.000 L31.000,47.000 C31.000,47.000 25.750,47.250 23.000,47.000 C20.250,46.750 13.000,42.000 11.000,34.000 z" fill="#36A13E" />
<path id="Shape-134" d="M30.000,43.000 L38.000,44.000 L33.000,41.000 L30.000,39.000 L30.000,43.000 z" fill="#5FD368" />
<path id="Ellipse-22" d="M50.000,33.000 C55.523,33.000 60.000,37.477 60.000,43.000 C60.000,48.523 55.523,53.000 50.000,53.000 C44.477,53.000 40.000,48.523 40.000,43.000 C40.000,37.477 44.477,33.000 50.000,33.000 z" fill="#FFD11A" />
<path id="Ellipse-22-copy-" d="M49.000,35.969 C52.314,35.969 55.000,38.662 55.000,41.984 C55.000,45.307 52.314,48.000 49.000,48.000 C45.686,48.000 43.000,45.307 43.000,41.984 C43.000,38.662 45.686,35.969 49.000,35.969 z" fill="#FFDA48" />
<path id="Ellipse-22-copy-" d="M47.000,35.969 C49.209,35.969 51.000,37.767 51.000,39.984 C51.000,42.202 49.209,44.000 47.000,44.000 C44.791,44.000 43.000,42.202 43.000,39.984 C43.000,37.767 44.791,35.969 47.000,35.969 z" fill="#FFE376" />
<path id="Ellipse-22-copy" d="M50.000,53.000 C44.477,53.000 40.000,48.523 40.000,43.000 C40.000,37.477 44.477,33.000 50.000,33.000 C55.523,33.000 60.000,37.477 60.000,43.000 C60.000,48.523 55.523,53.000 50.000,53.000 zM50.000,35.000 C45.582,35.000 42.000,38.582 42.000,43.000 C42.000,47.418 45.582,51.000 50.000,51.000 C54.418,51.000 58.000,47.418 58.000,43.000 C58.000,38.582 54.418,35.000 50.000,35.000 z" fill="#EEB609" />
<path id="$" d="M50.007,44.074 C50.278,44.168 50.488,44.263 50.637,44.361 C50.786,44.459 50.861,44.602 50.861,44.788 C50.861,44.975 50.768,45.138 50.581,45.278 C50.394,45.418 50.072,45.488 49.615,45.488 C49.167,45.488 48.754,45.414 48.376,45.264 C47.998,45.115 47.678,44.938 47.417,44.732 C47.230,44.835 47.058,44.982 46.899,45.173 C46.740,45.365 46.661,45.596 46.661,45.867 C46.661,46.090 46.717,46.291 46.829,46.469 C46.941,46.646 47.097,46.800 47.298,46.931 C47.499,47.061 47.737,47.169 48.012,47.253 C48.287,47.337 48.593,47.397 48.929,47.435 C48.929,47.435 48.929,47.575 48.929,47.575 C48.929,47.986 49.032,48.254 49.237,48.380 C49.442,48.506 49.727,48.569 50.091,48.569 C50.278,48.569 50.460,48.555 50.637,48.527 C50.814,48.499 50.945,48.476 51.029,48.457 C51.029,48.457 51.029,47.337 51.029,47.337 C51.804,47.178 52.392,46.877 52.793,46.434 C53.194,45.990 53.395,45.451 53.395,44.816 C53.395,44.070 53.159,43.479 52.688,43.045 C52.217,42.611 51.542,42.254 50.665,41.974 C50.665,41.974 49.923,41.736 49.923,41.736 C49.680,41.661 49.498,41.580 49.377,41.491 C49.256,41.402 49.195,41.288 49.195,41.148 C49.195,40.971 49.293,40.824 49.489,40.707 C49.685,40.590 49.993,40.532 50.413,40.532 C50.824,40.532 51.202,40.581 51.547,40.679 C51.892,40.777 52.168,40.891 52.373,41.022 C52.532,40.901 52.667,40.754 52.779,40.581 C52.891,40.408 52.947,40.200 52.947,39.958 C52.947,39.566 52.772,39.257 52.422,39.033 C52.072,38.809 51.608,38.660 51.029,38.585 C51.029,38.585 51.029,38.403 51.029,38.403 C51.029,37.993 50.926,37.724 50.721,37.598 C50.516,37.472 50.231,37.409 49.867,37.409 C49.680,37.409 49.498,37.423 49.321,37.451 C49.144,37.479 49.013,37.503 48.929,37.521 C48.929,37.521 48.929,38.655 48.929,38.655 C48.201,38.814 47.641,39.110 47.249,39.545 C46.857,39.979 46.661,40.513 46.661,41.148 C46.661,41.559 46.729,41.906 46.864,42.191 C46.999,42.476 47.188,42.721 47.431,42.926 C47.674,43.132 47.963,43.306 48.299,43.451 C48.635,43.596 49.008,43.738 49.419,43.878 C49.419,43.878 50.007,44.074 50.007,44.074 z" fill="#DAA80C" />
</g>
</g>
</svg>
