<svg version="1.1" xmlns="http://www.w3.org/2000/svg" xmlns:xlink="http://www.w3.org/1999/xlink" width="101" height="90" viewBox="0 0 101 90">
<defs>
<filter id="9-fx" filterUnits="userSpaceOnUse">
<feFlood flood-color="#000000" flood-opacity="0.100"/>
<feComposite operator="out" in2="SourceAlpha"/>
<feOffset dx="-2.12132034355965" dy="-2.12132034355965"/>
<feGaussianBlur stdDeviation="0.0" result="blur" />
<feComposite operator="in" in="blur" in2="SourceAlpha" result="maskedShadow"/>
<feBlend mode="normal" in="maskedShadow" in2="SourceGraphic" result="innerShadow"/>
</filter>
</defs>
<g id="icon-rebills">
<g id="Group-14-copy-7">
<path id="Ellipse-20-copy" d="M20.000,56.293 C15.582,56.293 12.000,59.158 12.000,63.707 C12.000,66.335 15.582,67.002 20.000,67.002 C24.418,67.002 28.000,66.335 28.000,63.707 C28.000,59.158 24.418,56.293 20.000,56.293 z" fill="#72A6ED" />
<path id="Ellipse-21" d="M20.000,56.281 C21.760,56.281 23.187,57.023 23.187,57.938 C23.187,58.852 21.760,59.594 20.000,59.594 C18.240,59.594 16.813,58.852 16.813,57.938 C16.813,57.023 18.240,56.281 20.000,56.281 z" fill="#659BE3" />
<path id="Shape-129" d="M15.229,59.509 C14.119,59.026 12.532,61.443 12.849,63.538 C13.167,65.633 21.258,65.633 21.575,64.344 C21.892,63.055 18.140,63.170 16.438,62.090 C14.987,61.168 16.340,59.993 15.229,59.509 z" fill="#81B1F2" />
<path id="Ellipse-20" d="M20.000,48.055 C17.349,48.055 16.000,49.445 16.000,52.174 C16.000,54.904 17.349,57.941 20.000,57.941 C22.651,57.941 24.000,54.904 24.000,52.174 C24.000,49.445 22.651,48.055 20.000,48.055 z" fill="#EDD4A0" />
<path id="Shape-130" d="M22.908,49.683 C25.201,56.494 16.654,56.494 18.739,57.939 C20.157,58.051 21.993,58.558 23.243,54.637 C24.494,50.715 24.115,50.205 22.908,49.683 z" fill="#E0C386" />
</g>
<g id="1">
<path id="Ellipse-20-copy" d="M40.000,56.293 C35.582,56.293 32.000,59.158 32.000,63.707 C32.000,66.335 35.582,67.002 40.000,67.002 C44.418,67.002 48.000,66.335 48.000,63.707 C48.000,59.158 44.418,56.293 40.000,56.293 z" fill="#B9B9B9" />
<path id="Ellipse-21" d="M40.000,56.281 C41.760,56.281 43.187,57.023 43.187,57.938 C43.187,58.852 41.760,59.594 40.000,59.594 C38.240,59.594 36.813,58.852 36.813,57.938 C36.813,57.023 38.240,56.281 40.000,56.281 z" fill="#ADADAD" />
<path id="Shape-129" d="M35.229,59.509 C34.119,59.026 32.532,61.443 32.849,63.538 C33.167,65.633 41.258,65.633 41.575,64.344 C41.892,63.055 38.140,63.170 36.438,62.090 C34.987,61.168 36.340,59.993 35.229,59.509 z" fill="#CCCCCC" />
<path id="Ellipse-20" d="M40.000,48.055 C37.349,48.055 36.000,49.445 36.000,52.174 C36.000,54.904 37.349,57.941 40.000,57.941 C42.651,57.941 44.000,54.904 44.000,52.174 C44.000,49.445 42.651,48.055 40.000,48.055 z" fill="#CCCCCC" />
<path id="Shape-130" d="M42.908,49.683 C45.201,56.494 36.654,56.494 38.739,57.939 C39.990,58.217 42.159,57.392 43.243,54.637 C44.494,50.715 43.448,48.372 42.908,49.683 z" fill="#BFBFBF" />
</g>
<g id="1-copy-9">
<path id="Ellipse-20-copy" d="M60.000,56.293 C55.582,56.293 52.000,59.158 52.000,63.707 C52.000,66.335 55.582,67.002 60.000,67.002 C64.418,67.002 68.000,66.335 68.000,63.707 C68.000,59.158 64.418,56.293 60.000,56.293 z" fill="#B9B9B9" />
<path id="Ellipse-21" d="M60.000,56.281 C61.760,56.281 63.187,57.023 63.187,57.938 C63.187,58.852 61.760,59.594 60.000,59.594 C58.240,59.594 56.813,58.852 56.813,57.938 C56.813,57.023 58.240,56.281 60.000,56.281 z" fill="#ADADAD" />
<path id="Shape-129" d="M55.229,59.509 C54.119,59.026 52.532,61.443 52.849,63.538 C53.167,65.633 61.258,65.633 61.575,64.344 C61.892,63.055 58.140,63.170 56.438,62.090 C54.987,61.168 56.340,59.993 55.229,59.509 z" fill="#CCCCCC" />
<path id="Ellipse-20" d="M60.000,48.055 C57.349,48.055 56.000,49.445 56.000,52.174 C56.000,54.904 57.349,57.941 60.000,57.941 C62.651,57.941 64.000,54.904 64.000,52.174 C64.000,49.445 62.651,48.055 60.000,48.055 z" fill="#CCCCCC" />
<path id="Shape-130" d="M62.908,49.683 C65.201,56.494 56.654,56.494 58.739,57.939 C59.990,58.217 62.159,57.392 63.243,54.637 C64.494,50.715 63.448,48.372 62.908,49.683 z" fill="#BFBFBF" />
</g>
<g id="1-copy-10">
<path id="Ellipse-20-copy" d="M80.000,56.293 C75.582,56.293 72.000,59.158 72.000,63.707 C72.000,66.335 75.582,67.002 80.000,67.002 C84.418,67.002 88.000,66.335 88.000,63.707 C88.000,59.158 84.418,56.293 80.000,56.293 z" fill="#B9B9B9" />
<path id="Ellipse-21" d="M80.000,56.281 C81.760,56.281 83.187,57.023 83.187,57.938 C83.187,58.852 81.760,59.594 80.000,59.594 C78.240,59.594 76.813,58.852 76.813,57.938 C76.813,57.023 78.240,56.281 80.000,56.281 z" fill="#ADADAD" />
<path id="Shape-129" d="M75.229,59.509 C74.119,59.026 72.532,61.443 72.849,63.538 C73.167,65.633 81.258,65.633 81.575,64.344 C81.892,63.055 78.140,63.170 76.438,62.090 C74.987,61.168 76.340,59.993 75.229,59.509 z" fill="#CCCCCC" />
<path id="Ellipse-20" d="M80.000,48.055 C77.349,48.055 76.000,49.445 76.000,52.174 C76.000,54.904 77.349,57.941 80.000,57.941 C82.651,57.941 84.000,54.904 84.000,52.174 C84.000,49.445 82.651,48.055 80.000,48.055 z" fill="#CCCCCC" />
<path id="Shape-130" d="M82.908,49.683 C85.201,56.494 76.654,56.494 78.739,57.939 C79.990,58.217 82.159,57.392 83.243,54.637 C84.494,50.715 83.448,48.372 82.908,49.683 z" fill="#BFBFBF" />
</g>
<g id="1-copy-11">
<path id="Ellipse-20-copy" d="M10.000,74.293 C5.582,74.293 2.000,77.158 2.000,81.707 C2.000,84.335 5.582,85.002 10.000,85.002 C14.418,85.002 18.000,84.335 18.000,81.707 C18.000,77.158 14.418,74.293 10.000,74.293 z" fill="#B9B9B9" />
<path id="Ellipse-21" d="M10.000,74.281 C11.760,74.281 13.187,75.023 13.187,75.938 C13.187,76.852 11.760,77.594 10.000,77.594 C8.240,77.594 6.813,76.852 6.813,75.938 C6.813,75.023 8.240,74.281 10.000,74.281 z" fill="#ADADAD" />
<path id="Shape-129" d="M5.229,77.509 C4.119,77.026 2.532,79.443 2.849,81.538 C3.167,83.633 11.258,83.633 11.575,82.344 C11.892,81.055 8.140,81.170 6.438,80.089 C4.987,79.168 6.340,77.993 5.229,77.509 z" fill="#CCCCCC" />
<path id="Ellipse-20" d="M10.000,66.055 C7.349,66.055 6.000,67.444 6.000,70.174 C6.000,72.904 7.349,75.941 10.000,75.941 C12.651,75.941 14.000,72.904 14.000,70.174 C14.000,67.444 12.651,66.055 10.000,66.055 z" fill="#CCCCCC" />
<path id="Shape-130" d="M12.908,67.683 C15.201,74.494 6.654,74.494 8.739,75.939 C9.990,76.217 12.159,75.392 13.243,72.637 C14.494,68.715 13.448,66.372 12.908,67.683 z" fill="#BFBFBF" />
</g>
<g id="1-copy-12">
<path id="Ellipse-20-copy" d="M30.000,74.293 C25.582,74.293 22.000,77.158 22.000,81.707 C22.000,84.335 25.582,85.002 30.000,85.002 C34.418,85.002 38.000,84.335 38.000,81.707 C38.000,77.158 34.418,74.293 30.000,74.293 z" fill="#B9B9B9" />
<path id="Ellipse-21" d="M30.000,74.281 C31.760,74.281 33.187,75.023 33.187,75.938 C33.187,76.852 31.760,77.594 30.000,77.594 C28.240,77.594 26.813,76.852 26.813,75.938 C26.813,75.023 28.240,74.281 30.000,74.281 z" fill="#ADADAD" />
<path id="Shape-129" d="M25.229,77.509 C24.119,77.026 22.532,79.443 22.849,81.538 C23.167,83.633 31.258,83.633 31.575,82.344 C31.892,81.055 28.140,81.170 26.438,80.089 C24.987,79.168 26.340,77.993 25.229,77.509 z" fill="#CCCCCC" />
<path id="Ellipse-20" d="M30.000,66.055 C27.349,66.055 26.000,67.444 26.000,70.174 C26.000,72.904 27.349,75.941 30.000,75.941 C32.651,75.941 34.000,72.904 34.000,70.174 C34.000,67.444 32.651,66.055 30.000,66.055 z" fill="#CCCCCC" />
<path id="Shape-130" d="M32.908,67.683 C35.201,74.494 26.654,74.494 28.739,75.939 C29.990,76.217 32.159,75.392 33.243,72.637 C34.494,68.715 33.448,66.372 32.908,67.683 z" fill="#BFBFBF" />
</g>
<g id="1-copy-13">
<path id="Ellipse-20-copy" d="M50.000,74.293 C45.582,74.293 42.000,77.158 42.000,81.707 C42.000,84.335 45.582,85.002 50.000,85.002 C54.418,85.002 58.000,84.335 58.000,81.707 C58.000,77.158 54.418,74.293 50.000,74.293 z" fill="#B9B9B9" />
<path id="Ellipse-21" d="M50.000,74.281 C51.760,74.281 53.187,75.023 53.187,75.938 C53.187,76.852 51.760,77.594 50.000,77.594 C48.240,77.594 46.813,76.852 46.813,75.938 C46.813,75.023 48.240,74.281 50.000,74.281 z" fill="#ADADAD" />
<path id="Shape-129" d="M45.229,77.509 C44.119,77.026 42.532,79.443 42.849,81.538 C43.167,83.633 51.258,83.633 51.575,82.344 C51.892,81.055 48.140,81.170 46.438,80.089 C44.987,79.168 46.340,77.993 45.229,77.509 z" fill="#CCCCCC" />
<path id="Ellipse-20" d="M50.000,66.055 C47.349,66.055 46.000,67.444 46.000,70.174 C46.000,72.904 47.349,75.941 50.000,75.941 C52.651,75.941 54.000,72.904 54.000,70.174 C54.000,67.444 52.651,66.055 50.000,66.055 z" fill="#CCCCCC" />
<path id="Shape-130" d="M52.908,67.683 C55.201,74.494 46.654,74.494 48.739,75.939 C49.990,76.217 52.159,75.392 53.243,72.637 C54.494,68.715 53.448,66.372 52.908,67.683 z" fill="#BFBFBF" />
</g>
<g id="1-copy-14">
<path id="Ellipse-20-copy" d="M70.000,74.293 C65.582,74.293 62.000,77.158 62.000,81.707 C62.000,84.335 65.582,85.002 70.000,85.002 C74.418,85.002 78.000,84.335 78.000,81.707 C78.000,77.158 74.418,74.293 70.000,74.293 z" fill="#B9B9B9" />
<path id="Ellipse-21" d="M70.000,74.281 C71.760,74.281 73.187,75.023 73.187,75.938 C73.187,76.852 71.760,77.594 70.000,77.594 C68.240,77.594 66.813,76.852 66.813,75.938 C66.813,75.023 68.240,74.281 70.000,74.281 z" fill="#ADADAD" />
<path id="Shape-129" d="M65.229,77.509 C64.119,77.026 62.532,79.443 62.849,81.538 C63.167,83.633 71.258,83.633 71.575,82.344 C71.892,81.055 68.140,81.170 66.438,80.089 C64.987,79.168 66.340,77.993 65.229,77.509 z" fill="#CCCCCC" />
<path id="Ellipse-20" d="M70.000,66.055 C67.349,66.055 66.000,67.444 66.000,70.174 C66.000,72.904 67.349,75.941 70.000,75.941 C72.651,75.941 74.000,72.904 74.000,70.174 C74.000,67.444 72.651,66.055 70.000,66.055 z" fill="#CCCCCC" />
<path id="Shape-130" d="M72.908,67.683 C75.201,74.494 66.654,74.494 68.739,75.939 C69.990,76.217 72.159,75.392 73.243,72.637 C74.494,68.715 73.448,66.372 72.908,67.683 z" fill="#BFBFBF" />
</g>
<g id="1-copy-15">
<path id="Ellipse-20-copy" d="M90.000,74.293 C85.582,74.293 82.000,77.158 82.000,81.707 C82.000,84.335 85.582,85.002 90.000,85.002 C94.418,85.002 98.000,84.335 98.000,81.707 C98.000,77.158 94.418,74.293 90.000,74.293 z" fill="#B9B9B9" />
<path id="Ellipse-21" d="M90.000,74.281 C91.760,74.281 93.187,75.023 93.187,75.938 C93.187,76.852 91.760,77.594 90.000,77.594 C88.240,77.594 86.813,76.852 86.813,75.938 C86.813,75.023 88.240,74.281 90.000,74.281 z" fill="#ADADAD" />
<path id="Shape-129" d="M85.229,77.509 C84.119,77.026 82.532,79.443 82.849,81.538 C83.167,83.633 91.258,83.633 91.575,82.344 C91.892,81.055 88.140,81.170 86.438,80.089 C84.987,79.168 86.340,77.993 85.229,77.509 z" fill="#CCCCCC" />
<path id="Ellipse-20" d="M90.000,66.055 C87.349,66.055 86.000,67.444 86.000,70.174 C86.000,72.904 87.349,75.941 90.000,75.941 C92.651,75.941 94.000,72.904 94.000,70.174 C94.000,67.444 92.651,66.055 90.000,66.055 z" fill="#CCCCCC" />
<path id="Shape-130" d="M92.908,67.683 C95.201,74.494 86.654,74.494 88.739,75.939 C89.990,76.217 92.159,75.392 93.243,72.637 C94.494,68.715 93.448,66.372 92.908,67.683 z" fill="#BFBFBF" />
</g>
<path id="9" d="M43.668,30.752 C42.724,30.544 41.820,30.248 40.956,29.864 C40.540,30.184 40.180,30.656 39.876,31.280 C39.572,31.904 39.420,32.552 39.420,33.224 C39.420,34.664 40.140,35.736 41.580,36.440 C43.020,37.143 45.020,37.496 47.580,37.496 C49.596,37.496 51.436,37.160 53.100,36.488 C54.764,35.816 56.196,34.808 57.396,33.464 C58.596,32.120 59.532,30.440 60.204,28.424 C60.876,26.408 61.212,24.072 61.212,21.416 C61.212,16.744 60.132,13.144 57.972,10.616 C55.812,8.088 52.844,6.824 49.068,6.824 C47.180,6.824 45.524,7.104 44.100,7.664 C42.676,8.224 41.484,8.976 40.524,9.920 C39.564,10.864 38.844,11.952 38.364,13.184 C37.884,14.416 37.644,15.720 37.644,17.096 C37.644,18.664 37.884,20.040 38.364,21.224 C38.844,22.408 39.516,23.408 40.380,24.224 C41.244,25.040 42.276,25.656 43.476,26.072 C44.676,26.488 46.012,26.696 47.484,26.696 C48.956,26.696 50.164,26.504 51.108,26.120 C52.052,25.736 52.700,25.400 53.052,25.112 C53.052,26.968 52.436,28.424 51.204,29.480 C49.972,30.536 48.332,31.064 46.284,31.064 C45.484,31.064 44.612,30.960 43.668,30.752 zM46.764,19.568 C46.092,18.912 45.756,18.040 45.756,16.952 C45.756,15.832 46.052,14.944 46.644,14.288 C47.236,13.632 48.060,13.304 49.116,13.304 C50.300,13.304 51.196,13.720 51.804,14.552 C52.412,15.384 52.732,16.712 52.764,18.536 C52.764,18.536 52.764,19.112 52.764,19.112 C52.348,19.560 51.828,19.912 51.204,20.168 C50.580,20.424 49.964,20.552 49.356,20.552 C48.300,20.552 47.436,20.224 46.764,19.568 z" fill="#FFAE00" filter="url(#9-fx)" />
</g>
</svg>
