<svg version="1.1" xmlns="http://www.w3.org/2000/svg" xmlns:xlink="http://www.w3.org/1999/xlink" width="18" height="18" viewBox="0 0 18 18">
<path id="icon-icq-reg" d="M16.745,9.135 C16.745,9.135 16.652,8.988 16.652,8.988 C16.502,8.768 16.353,8.548 16.129,8.402 C15.942,8.273 15.718,8.182 15.513,8.090 C16.091,7.815 16.487,7.430 16.675,6.936 C16.914,6.196 16.507,5.355 15.592,5.103 C15.311,5.048 15.001,5.048 14.721,5.066 C14.721,5.066 14.107,5.194 14.107,5.194 C14.107,5.194 14.316,4.737 14.316,4.737 C14.502,4.150 14.447,3.582 14.130,3.050 C14.130,3.050 14.074,2.959 14.074,2.959 C13.794,2.501 13.383,2.226 12.822,2.079 C12.244,1.933 11.751,1.987 11.228,2.262 C10.704,2.538 10.210,2.959 10.210,3.509 C10.210,3.509 10.210,3.545 10.210,3.545 L10.144,3.674 L10.046,3.545 C10.046,3.545 9.847,3.216 9.847,3.216 C9.548,2.757 9.168,2.482 8.701,2.354 C8.290,2.262 7.952,2.299 7.597,2.482 C7.205,2.720 6.979,3.088 6.885,3.600 C6.791,4.132 6.885,4.645 7.165,5.158 C7.165,5.158 7.295,5.342 7.295,5.342 C7.295,5.342 6.847,5.194 6.847,5.194 C6.286,5.066 5.763,5.139 5.241,5.414 C4.698,5.689 4.362,6.074 4.138,6.606 C3.932,7.119 3.951,7.613 4.213,8.071 C4.325,8.273 4.493,8.438 4.642,8.548 C4.867,8.768 5.147,8.896 5.483,8.951 C5.483,8.951 5.613,8.988 5.613,8.988 C5.613,8.988 5.334,9.227 5.334,9.227 C5.072,9.447 4.923,9.721 4.829,9.996 C4.736,10.326 4.773,10.656 4.960,10.968 C5.054,11.114 5.147,11.241 5.296,11.334 C5.446,11.462 5.633,11.554 5.856,11.572 C6.268,11.664 6.697,11.664 7.164,11.517 C7.164,11.517 6.827,12.067 6.827,12.067 C6.827,12.067 6.735,12.305 6.735,12.305 C6.548,12.891 6.603,13.404 6.884,13.936 C7.014,14.138 7.164,14.321 7.313,14.486 C7.537,14.687 7.817,14.816 8.154,14.908 C8.713,15.054 9.274,15.035 9.816,14.760 C10.339,14.486 10.675,14.045 10.843,13.496 C10.843,13.496 10.861,13.387 10.861,13.387 C11.217,13.771 11.553,14.028 11.927,14.119 C12.300,14.229 12.673,14.211 13.010,13.991 C13.327,13.807 13.551,13.496 13.663,13.111 C13.756,12.708 13.756,12.305 13.663,11.848 C13.850,11.975 14.037,12.067 14.261,12.121 C14.858,12.305 15.381,12.286 15.904,12.012 C16.409,11.737 16.745,11.297 16.913,10.729 C17.063,10.179 17.026,9.648 16.745,9.135 zM14.033,6.473 C14.033,6.473 14.142,6.428 14.142,6.428 C14.307,6.356 14.463,6.338 14.628,6.356 C14.783,6.374 14.893,6.445 14.948,6.553 C14.948,6.553 14.984,6.670 14.984,6.670 C14.984,6.670 14.966,6.760 14.966,6.760 C14.902,6.922 14.765,7.047 14.536,7.146 C14.445,7.191 14.344,7.209 14.234,7.226 C14.234,7.226 13.108,7.362 13.108,7.362 L13.090,7.299 L13.072,7.271 L13.108,7.226 L14.033,6.473 zM11.558,4.353 C11.604,4.174 11.732,4.039 11.897,3.949 C12.061,3.860 12.244,3.841 12.418,3.904 C12.611,3.949 12.748,4.048 12.830,4.201 C12.876,4.291 12.903,4.398 12.903,4.515 C12.903,4.515 12.876,4.712 12.876,4.712 C12.840,4.811 12.794,4.901 12.739,4.982 C12.739,4.982 11.915,5.970 11.915,5.970 C11.833,5.907 11.741,5.862 11.650,5.817 C11.650,5.817 11.558,4.803 11.558,4.803 L11.549,4.443 C11.549,4.443 11.558,4.353 11.558,4.353 zM8.239,4.377 C8.248,4.215 8.311,4.107 8.422,4.045 C8.477,4.000 8.559,4.000 8.632,4.036 C8.797,4.081 8.934,4.197 9.044,4.422 C9.090,4.512 9.135,4.601 9.154,4.709 C9.154,4.709 9.337,5.769 9.337,5.769 L9.200,5.814 L8.385,4.943 C8.385,4.943 8.339,4.853 8.339,4.853 C8.266,4.691 8.220,4.539 8.239,4.377 zM5.867,7.297 C5.791,7.159 5.791,7.022 5.848,6.883 C5.914,6.708 6.037,6.571 6.215,6.497 C6.385,6.405 6.555,6.378 6.744,6.423 C6.744,6.423 6.998,6.524 6.998,6.524 C6.998,6.524 7.828,7.113 7.828,7.113 C7.753,7.205 7.706,7.297 7.677,7.389 C7.677,7.389 6.319,7.555 6.319,7.555 C6.319,7.555 6.225,7.536 6.225,7.536 C6.055,7.509 5.942,7.435 5.867,7.297 zM9.496,12.646 C9.496,12.646 9.463,12.736 9.463,12.736 C9.399,12.898 9.278,13.032 9.113,13.104 C8.948,13.194 8.768,13.212 8.604,13.167 C8.420,13.122 8.280,13.015 8.207,12.871 C8.161,12.781 8.124,12.673 8.124,12.565 C8.124,12.565 8.168,12.359 8.168,12.359 C8.187,12.269 8.232,12.179 8.305,12.108 C8.305,12.108 9.074,11.209 9.074,11.209 C9.165,11.254 9.280,11.299 9.381,11.309 C9.399,11.613 9.496,11.937 9.496,12.287 C9.496,12.287 9.496,12.646 9.496,12.646 zM9.498,9.447 C9.255,9.227 9.125,8.915 9.125,8.585 C9.125,8.255 9.255,7.981 9.498,7.724 C9.723,7.522 10.022,7.394 10.376,7.394 C10.713,7.394 11.030,7.522 11.236,7.724 C11.496,7.981 11.609,8.255 11.609,8.585 C11.609,8.915 11.496,9.227 11.236,9.447 C10.993,9.685 10.713,9.813 10.376,9.813 C10.022,9.813 9.723,9.685 9.498,9.447 zM12.409,12.202 C12.390,12.364 12.335,12.481 12.225,12.526 C12.161,12.570 12.088,12.570 12.015,12.562 C11.841,12.517 11.704,12.382 11.603,12.166 C11.603,12.166 11.493,11.870 11.493,11.870 L11.356,11.089 L11.511,11.035 L11.631,10.973 L12.015,11.358 L12.253,11.646 C12.253,11.646 12.299,11.735 12.299,11.735 C12.381,11.888 12.427,12.032 12.409,12.202 zM15.124,10.318 C15.078,10.498 14.968,10.633 14.812,10.704 C14.648,10.794 14.483,10.812 14.300,10.749 C14.190,10.723 14.117,10.677 14.053,10.606 C14.053,10.606 13.092,9.825 13.092,9.825 L13.156,9.690 L13.184,9.582 L14.218,9.492 L14.584,9.483 C14.584,9.483 14.675,9.492 14.675,9.492 C14.812,9.537 14.941,9.618 15.014,9.752 C15.105,9.852 15.151,9.986 15.151,10.139 C15.151,10.139 15.124,10.318 15.124,10.318 z" fill="#8F8F8F" />
</svg>
