<svg version="1.1" xmlns="http://www.w3.org/2000/svg" xmlns:xlink="http://www.w3.org/1999/xlink" width="18" height="18" viewBox="0 0 18 18">
<path id="icon-email-reg" d="M15.000,14.000 C15.000,14.000 7.000,14.000 7.000,14.000 C5.343,14.000 4.000,12.657 4.000,11.000 C4.000,11.000 4.000,6.000 4.000,6.000 C4.000,5.680 4.063,5.378 4.156,5.089 C4.156,5.089 11.000,9.000 11.000,9.000 C11.000,9.000 17.844,5.089 17.844,5.089 C17.937,5.378 18.000,5.680 18.000,6.000 C18.000,6.000 18.000,11.000 18.000,11.000 C18.000,12.657 16.657,14.000 15.000,14.000 zM11.000,7.000 C11.000,7.000 5.148,3.656 5.148,3.656 C5.660,3.252 6.297,3.000 7.000,3.000 C7.000,3.000 15.000,3.000 15.000,3.000 C15.703,3.000 16.340,3.252 16.852,3.656 C16.852,3.656 11.000,7.000 11.000,7.000 z" fill="#8F8F8F" />
</svg>
