<svg version="1.1" xmlns="http://www.w3.org/2000/svg" xmlns:xlink="http://www.w3.org/1999/xlink" width="160" height="195" viewBox="0 0 160 195">
<defs>
<filter id="Shape-33-fx" filterUnits="userSpaceOnUse">
<feFlood flood-color="#121212" flood-opacity="1.000"/>
<feComposite operator="in" in2="SourceAlpha" />
<feOffset dx="1" dy="1.73205080756888"/>
<feGaussianBlur stdDeviation="0.0" result="blur" />
<feComposite operator="out" in="blur" in2="SourceAlpha" result="maskedShadow"/>
<feComposite operator="over" in="maskedShadow" in2="SourceGraphic" result="dropShadow"/>
<feFlood flood-color="#FFFFFF" flood-opacity="0.500"/>
<feComposite operator="out" in2="SourceAlpha"/>
<feOffset dx="1" dy="1.73205080756888"/>
<feGaussianBlur stdDeviation="0.0" result="blur" />
<feComposite operator="in" in="blur" in2="SourceAlpha" result="maskedShadow"/>
<feBlend mode="normal" in="maskedShadow" in2="dropShadow" result="innerShadow"/>
</filter>
<filter id="Shape-33-copy-fx" filterUnits="userSpaceOnUse">
<feFlood flood-color="#121212" flood-opacity="1.000"/>
<feComposite operator="in" in2="SourceAlpha" />
<feOffset dx="1" dy="1.73205080756888"/>
<feGaussianBlur stdDeviation="0.0" result="blur" />
<feComposite operator="out" in="blur" in2="SourceAlpha" result="maskedShadow"/>
<feComposite operator="over" in="maskedShadow" in2="SourceGraphic" result="dropShadow"/>
<feFlood flood-color="#FFFFFF" flood-opacity="0.500"/>
<feComposite operator="out" in2="SourceAlpha"/>
<feOffset dx="1" dy="1.73205080756888"/>
<feGaussianBlur stdDeviation="0.0" result="blur" />
<feComposite operator="in" in="blur" in2="SourceAlpha" result="maskedShadow"/>
<feBlend mode="normal" in="maskedShadow" in2="dropShadow" result="innerShadow"/>
</filter>
</defs>
<g id="icon-garlic-cash">
<path id="shadow" d="M110.000,168.000 C134.300,168.000 154.000,171.581 154.000,176.000 C154.000,180.418 134.300,184.000 110.000,184.000 C85.699,184.000 66.000,180.418 66.000,176.000 C66.000,171.581 85.699,168.000 110.000,168.000 z" fill="#000000" opacity="0.051" />
<g id="money-2">
<path id="Shape-89" d="M44.645,168.480 L16.754,160.120 L16.754,157.232 L18.261,156.168 C18.261,156.168 16.754,156.196 16.754,155.864 C16.754,154.812 16.754,154.040 16.754,154.040 L37.860,156.320 L44.645,161.640 L44.645,160.120 L64.998,157.840 L64.998,164.680 L44.645,168.480 z" fill="#397D4F" />
<path id="Shape-92" d="M65.505,157.840 L46.152,160.880 L46.152,169.000 L65.505,164.200 L65.505,157.840 z" fill="#3D8F56" />
<path id="Shape-93" d="M46.152,163.920 L53.690,163.160 L46.152,164.680 L46.152,163.920 z" fill="#3E8755" />
<path id="Shape-91" d="M32.584,162.400 L34.091,164.680 L44.645,164.680 L32.584,162.400 z" fill="#25693A" />
<path id="Shape-90" d="M31.830,160.120 L27.307,162.400 L46.152,163.920 L31.830,160.120 z" fill="#42AD64" />
<path id="Rectangle-1" d="M37.107,151.000 L65.751,157.840 L44.645,162.400 L16.000,154.040 L37.107,151.000 z" fill="#40A35F" />
<path id="Ellipse-10" d="M40.125,154.063 C43.870,154.063 46.906,154.902 46.906,155.938 C46.906,156.973 43.870,157.812 40.125,157.812 C36.380,157.812 33.344,156.973 33.344,155.938 C33.344,154.902 36.380,154.063 40.125,154.063 z" fill="#40B364" />
</g>
<g id="garlick">
<g id="body">
<path id="Shape-3" d="M122.905,64.940 C122.267,56.201 127.291,47.231 125.784,46.422 C124.278,45.612 116.196,55.313 115.852,61.375 C115.507,67.436 123.544,73.679 122.905,64.940 z" fill="#F2DAC3" />
<path id="Shape-2" d="M119.359,40.999 C122.204,41.054 115.366,61.954 126.678,75.196 C137.989,88.438 144.822,85.005 152.979,95.248 C166.092,112.433 152.046,123.187 152.046,123.187 C152.046,123.187 150.665,145.511 124.818,142.643 C87.308,138.482 115.857,40.932 119.359,40.999 z" fill="#F7E1CB" />
<path id="Shape-21" d="M157.667,116.532 C157.667,116.532 155.241,119.260 153.980,119.120 C152.719,118.981 153.558,117.147 152.297,117.007 C151.037,116.867 150.921,117.925 151.272,118.606 C151.622,119.287 152.000,123.610 152.000,123.610 L156.245,119.800 L157.667,116.532 z" fill="#F6CCB2" />
<path id="Shape-1" d="M129.802,48.580 C131.447,49.464 121.592,56.553 122.705,80.692 C123.630,100.753 137.308,108.222 135.379,125.834 C134.268,135.983 130.231,152.449 105.960,149.756 C89.881,147.973 87.439,139.923 87.439,139.923 C87.439,139.923 60.880,143.834 64.139,114.078 C62.183,112.124 57.503,100.805 63.904,91.884 C70.304,82.963 84.794,81.948 96.237,71.767 C116.143,55.710 128.395,47.824 129.802,48.580 z" fill="#FCEAD8" />
<path id="Shape-16" d="M123.949,57.350 C125.397,57.724 117.895,75.730 122.719,91.891 C128.946,110.778 133.387,116.836 133.387,116.836 C133.387,116.836 135.880,111.547 136.031,123.765 C136.182,135.984 121.998,148.967 114.715,149.443 C95.059,152.186 87.718,139.598 87.718,139.598 C87.718,139.598 84.066,128.276 88.571,127.919 C93.077,127.563 91.144,133.556 95.277,134.657 C103.240,136.263 100.100,121.429 107.731,117.781 C115.362,114.132 121.763,120.042 124.563,117.784 C127.362,115.525 117.449,99.227 117.603,88.113 C116.517,74.720 122.688,57.209 123.949,57.350 z" fill="#F7E1CB" />
<path id="Shape-15" d="M135.635,125.434 C135.635,125.434 132.727,136.457 128.782,137.517 C126.798,138.154 128.268,136.390 126.143,136.368 C124.018,136.347 122.652,148.825 102.899,146.634 C100.611,146.166 87.066,141.666 85.957,128.486 C85.105,115.868 95.897,95.980 95.897,95.980 C95.897,95.980 98.450,92.089 98.065,91.725 C97.517,92.842 95.477,95.934 95.477,95.934 C95.477,95.934 82.747,115.071 83.903,129.756 C85.060,144.441 98.862,148.541 103.159,150.088 C115.932,153.859 125.265,146.332 126.875,145.226 C134.784,139.040 135.635,125.434 135.635,125.434 z" fill="#F6CCB2" />
<path id="Shape-14-copy" d="M122.472,76.665 C123.118,76.594 121.844,79.807 124.421,89.940 C126.998,100.072 129.459,101.558 128.868,101.778 C128.276,101.998 124.550,94.592 123.558,90.058 C122.565,85.524 121.826,76.737 122.472,76.665 z" fill="#E4A89B" />
<path id="Shape-8" d="M149.500,121.192 C147.705,111.362 134.489,96.087 132.424,97.463 C128.959,99.968 137.607,111.312 139.084,118.217 C140.561,125.123 135.243,129.993 139.973,133.407 C143.828,136.082 151.294,131.022 149.500,121.192 z" fill="#FCEAD8" />
<path id="Shape-9" d="M132.531,85.809 C134.419,83.129 144.861,89.746 149.488,94.112 C152.116,96.330 158.252,105.360 153.983,109.381 C149.715,113.402 148.131,100.246 145.216,97.374 C135.559,85.057 132.322,87.712 132.531,85.809 z" fill="#FCEAD8" />
<path id="Shape-18" d="M85.377,118.544 C79.036,139.576 61.922,129.904 63.586,123.007 C62.182,117.216 62.739,123.101 63.356,127.049 C71.445,142.064 86.296,140.787 84.230,127.125 C84.518,122.555 84.817,120.208 85.377,118.544 z" fill="#F7E1CB" />
<path id="Shape-18-copy" d="M67.564,106.109 C68.589,103.868 78.026,92.142 86.995,87.929 C84.490,88.150 70.382,99.144 67.353,106.086 C63.032,113.725 63.980,114.425 67.564,106.109 z" fill="#F6CCB2" />
<path id="Shape-4" d="M122.244,54.531 C121.605,53.445 116.473,57.542 113.673,59.800 C110.874,62.058 96.538,71.623 97.788,74.045 C98.676,75.158 101.056,71.870 101.500,72.427 C101.944,72.983 100.088,74.554 100.708,75.046 C101.327,75.537 103.911,72.694 104.604,73.278 C105.298,73.863 99.917,78.426 100.767,79.112 C101.618,79.799 105.558,75.330 106.177,75.821 C106.797,76.313 104.528,80.121 105.665,80.501 C106.802,80.881 108.007,76.024 108.838,76.117 C109.670,76.209 109.527,81.353 110.765,81.575 C112.918,81.898 112.450,76.179 113.716,76.150 C114.981,76.121 113.382,78.989 114.814,78.979 C116.745,79.024 115.498,77.874 118.110,66.322 C119.701,59.477 122.882,55.616 122.244,54.531 z" fill="#FDF3E9" />
<path id="Shape-17" d="M85.389,120.074 C83.731,119.676 84.560,133.468 80.944,135.422 C76.347,138.551 68.894,132.801 69.480,135.220 C71.259,140.341 82.045,140.895 82.045,140.895 C82.045,140.895 87.906,141.760 88.115,139.856 C81.948,135.961 87.047,120.472 85.389,120.074 z" fill="#F6CCB2" />
<path id="Ellipse-1" d="M108.633,149.625 C118.133,150.678 126.910,146.345 131.730,139.166 C127.332,147.648 117.766,152.992 107.328,151.834 C95.127,150.481 85.042,143.095 84.384,132.094 C86.623,141.819 97.332,148.371 108.633,149.625 z" fill="#E4A89B" />
<path id="Shape-5" d="M90.108,80.069 C88.457,78.302 73.650,85.444 68.721,89.621 C61.516,94.187 61.119,102.776 64.699,103.845 C67.032,104.408 71.051,95.472 76.445,90.834 C82.974,85.220 91.012,81.037 90.108,80.069 z" fill="#FDF3E9" />
<path id="Shape-19" d="M69.662,102.489 C69.662,102.489 66.677,106.439 64.109,106.582 C61.541,106.725 61.862,99.911 60.765,100.217 C59.668,100.524 62.130,112.999 63.788,113.396 C64.580,111.986 69.662,102.489 69.662,102.489 z" fill="#F6CCB2" />
<path id="Shape-20" d="M134.659,130.463 C134.659,130.463 132.005,139.159 137.001,138.215 C139.499,138.706 139.799,134.030 141.692,136.167 C144.425,138.396 149.625,131.695 149.323,132.518 C149.020,133.341 145.501,140.228 137.448,141.904 C131.986,143.225 128.600,143.063 128.600,143.063 L134.659,130.463 z" fill="#F6CCB2" />
<path id="Shape-6" d="M90.357,88.301 C88.441,86.376 71.900,99.526 67.590,109.751 C63.280,119.976 66.745,131.064 71.856,129.062 C76.967,127.060 76.982,117.215 78.423,109.882 C79.864,102.550 92.274,90.227 90.357,88.301 z" fill="#FDF3E9" />
<path id="Shape-7" d="M110.581,93.970 C107.428,93.620 108.796,95.699 106.942,98.062 C105.088,100.424 104.710,95.138 100.823,95.670 C96.937,96.202 80.222,138.125 100.256,141.631 C120.291,145.138 125.459,128.049 120.547,117.552 C115.635,107.055 113.733,94.320 110.581,93.970 z" fill="#FDF3E9" />
<path id="Shape-14" d="M132.493,109.459 C133.022,109.160 135.269,115.190 135.862,117.539 C137.104,122.386 136.363,125.445 135.627,128.931 C134.891,132.417 133.666,135.524 133.473,135.469 C133.281,135.414 133.960,133.306 134.705,128.899 C135.400,124.782 135.991,123.084 134.867,117.372 C134.065,113.300 132.260,109.647 132.493,109.459 z" fill="#E4A89B" />
<path id="Shape-10" d="M85.400,79.189 C85.400,79.189 64.291,88.407 62.022,96.504 C59.369,106.163 64.722,113.607 64.815,113.725 C62.357,118.696 57.253,102.182 61.857,94.131 C66.577,85.985 85.400,79.189 85.400,79.189 z" fill="#E4A89B" />
<path id="Shape-11" d="M71.597,100.349 C60.719,114.233 61.900,130.633 72.657,137.285 C80.400,141.355 88.183,138.258 88.512,140.114 C90.311,142.134 79.106,143.459 71.818,139.119 C64.530,134.778 59.946,125.172 62.949,115.230 C65.952,105.288 73.125,98.056 71.597,100.349 z" fill="#E4A89B" />
<path id="Shape-12" d="M146.081,109.681 C145.630,109.917 150.027,114.676 150.942,120.717 C151.765,126.149 150.018,132.496 146.174,136.022 C138.056,143.470 129.067,142.687 129.067,142.687 C129.067,142.687 129.145,142.624 128.110,143.651 C127.535,144.372 141.457,144.132 147.762,137.054 C151.340,133.038 153.213,128.147 152.258,120.345 C151.543,115.270 146.532,109.446 146.081,109.681 z" fill="#E4A89B" />
<path id="Shape-13" d="M123.049,69.451 C122.912,69.562 125.456,78.048 140.420,86.180 C140.918,86.419 141.439,86.651 141.726,86.789 C161.029,96.071 160.819,117.873 152.116,122.553 C150.833,124.551 151.452,124.727 152.327,124.503 C155.129,124.171 162.682,116.018 159.018,104.801 C153.275,90.014 143.626,87.188 140.208,85.382 C126.100,78.251 123.140,69.378 123.049,69.451 z" fill="#E4A89B" />
</g>
<g id="mouth">
<path id="Shape-22-copy" d="M116.772,125.957 C116.392,125.280 106.330,127.614 101.809,127.188 C97.288,126.761 92.669,125.052 91.407,126.485 C90.145,127.917 94.516,133.287 101.686,133.408 C108.856,133.530 117.512,127.275 116.772,125.957 z" fill="#F6CCB2" />
<path id="Shape-22-copy-2" d="M117.618,122.404 C117.238,121.727 107.176,124.061 102.654,123.634 C98.133,123.208 93.515,121.499 92.253,122.931 C90.991,124.364 95.362,129.734 102.532,129.855 C109.702,129.976 118.358,123.722 117.618,122.404 z" fill="#F7E1CB" />
<path id="Shape-22" d="M117.195,124.255 C116.815,123.578 106.753,125.912 102.232,125.485 C97.711,125.059 93.092,123.350 91.830,124.783 C90.568,126.215 94.939,131.585 102.109,131.706 C109.279,131.827 117.935,125.573 117.195,124.255 z" fill="#E4A89B" />
<path id="Shape-24" d="M92.501,124.724 C92.501,124.724 92.598,126.532 93.132,127.041 C100.111,129.912 114.775,127.195 115.673,127.070 C116.571,126.945 116.911,124.838 116.911,124.838 C116.911,124.838 117.044,124.072 116.377,123.655 C114.211,123.822 108.508,126.722 92.841,123.639 C92.341,124.305 92.501,124.724 92.501,124.724 z" fill="#FFFFFF" />
<path id="Shape-25" d="M115.209,126.960 C110.569,128.610 93.728,127.228 93.487,127.508 C93.246,127.789 93.457,127.542 93.590,127.994 C94.389,131.113 102.637,132.553 109.292,130.458 C111.375,129.791 114.874,127.640 115.209,126.960 z" fill="#FFFFFF" />
<path id="Shape-62" d="M108.000,125.000 L108.387,128.300 L110.874,127.676 L111.000,125.000 L108.000,125.000 z" fill="#FEDE76" />
<path id="Shape-63" d="M108.387,124.935 C108.387,124.935 107.981,127.716 110.253,127.676 C111.118,127.894 110.253,128.300 110.253,128.300 C110.253,128.300 106.625,128.456 107.143,126.429 C107.060,124.467 108.387,124.935 108.387,124.935 z" fill="#FCDD71" />
<path id="Shape-64" d="M107.765,125.806 C107.765,125.806 108.232,127.053 109.631,127.676 C111.030,128.300 108.076,127.988 107.765,127.676 C107.454,127.364 107.765,125.806 107.765,125.806 z" fill="#FFEDAE" />
</g>
<g id="glasses">
<path id="Shape-31" d="M132.571,104.806 C132.367,105.647 131.019,105.730 131.059,106.379 C131.099,107.028 130.708,113.657 128.488,117.696 C126.301,121.675 111.977,122.045 108.561,119.192 C105.224,116.403 102.891,108.555 102.891,108.555 C102.891,108.555 102.481,107.777 101.616,107.863 C101.035,107.976 100.596,108.529 100.596,108.529 C100.596,108.529 99.126,115.620 95.820,118.118 C92.581,120.566 79.400,119.720 77.739,115.955 C76.105,112.253 76.021,106.370 76.075,105.796 C76.129,105.222 75.071,105.128 74.939,104.384 C74.808,103.640 74.388,100.945 75.240,100.577 C82.235,98.396 99.413,103.227 101.766,103.737 C103.390,103.257 122.034,97.878 132.373,100.484 C133.446,100.901 132.775,103.963 132.571,104.806 z" fill="#1C1C1C" />
<path id="Shape-37" d="M98.270,105.435 C98.486,104.936 99.619,105.659 99.785,106.350 C99.952,107.042 99.406,109.074 99.015,108.956 C98.792,108.888 99.142,107.533 99.071,106.625 C99.017,105.944 98.177,105.649 98.270,105.435 z" fill="#262626" />
<path id="Shape-38" d="M106.014,104.595 C105.126,103.961 103.575,105.501 103.284,106.218 C102.993,106.935 104.233,110.177 104.991,110.047 C105.627,110.002 104.793,108.056 104.891,106.497 C104.974,105.163 106.423,104.887 106.014,104.595 z" fill="#262626" />
<path id="Shape-32" d="M125.703,103.692 C123.728,101.671 108.166,102.840 106.317,106.280 C104.126,110.303 108.136,116.382 110.170,118.072 C112.222,119.779 122.095,119.922 124.609,117.280 C127.145,114.613 127.718,105.754 125.703,103.692 z" fill="#393939" />
<path id="Shape-32-copy" d="M125.049,104.339 C123.577,102.819 111.965,103.711 110.583,106.302 C108.945,109.331 111.933,113.904 113.449,115.175 C114.979,116.458 122.345,116.559 124.223,114.568 C126.117,112.558 126.551,105.890 125.049,104.339 z" fill="#404040" />
<path id="Shape-32-copy-4" d="M124.369,104.838 C123.132,103.566 113.374,104.307 112.214,106.474 C110.839,109.007 113.351,112.834 114.626,113.898 C115.912,114.972 122.102,115.059 123.679,113.394 C125.270,111.714 125.632,106.136 124.369,104.838 z" fill="#474747" />
<path id="Shape-32-copy-5" d="M123.006,106.036 C122.536,105.435 118.553,105.336 117.960,106.213 C117.259,107.238 118.157,108.993 118.652,109.506 C119.151,110.025 122.416,110.411 123.164,109.768 C123.918,109.119 123.485,106.649 123.006,106.036 z" fill="#4F4F4F" />
<path id="Shape-32-copy-6" d="M122.926,106.152 C122.727,105.897 121.047,105.857 120.796,106.229 C120.500,106.664 120.879,107.407 121.087,107.625 C121.298,107.845 122.676,108.008 122.991,107.735 C123.310,107.460 123.128,106.412 122.926,106.152 z" fill="#5C5C5C" />
<path id="Shape-32" d="M80.474,103.675 C82.228,101.808 96.906,103.234 98.512,106.540 C99.760,109.394 96.933,116.372 94.062,117.338 C91.192,118.304 82.935,118.368 80.923,115.803 C78.932,113.265 78.752,105.507 80.474,103.675 z" fill="#393939" />
<path id="Shape-32-copy-2" d="M83.396,104.561 C84.767,103.097 96.231,104.209 97.484,106.801 C98.458,109.038 96.248,114.509 94.005,115.267 C91.763,116.025 85.314,116.078 83.744,114.068 C82.189,112.079 82.051,105.998 83.396,104.561 z" fill="#404040" />
<path id="Shape-32-copy-3" d="M85.351,105.209 C86.474,104.011 95.868,104.923 96.895,107.044 C97.693,108.874 95.883,113.350 94.046,113.970 C92.208,114.590 86.924,114.632 85.637,112.988 C84.363,111.360 84.248,106.384 85.351,105.209 z" fill="#474747" />
<path id="Shape-32-copy-7" d="M91.361,106.196 C91.848,105.654 95.894,106.044 96.332,106.997 C96.672,107.820 96.419,109.719 95.626,110.002 C94.832,110.285 92.019,110.437 91.468,109.699 C90.922,108.969 90.884,106.728 91.361,106.196 z" fill="#4F4F4F" />
<path id="Shape-32-copy-8" d="M93.962,106.646 C94.167,106.431 95.668,106.574 95.856,106.956 C96.002,107.286 96.109,108.069 95.775,108.180 C95.440,108.292 94.251,108.346 94.016,108.049 C93.784,107.755 93.762,106.858 93.962,106.646 z" fill="#5C5C5C" />
<path id="Shape-33" d="M131.297,102.904 C131.241,102.113 127.973,102.178 127.888,102.954 C127.803,103.729 131.352,103.695 131.297,102.904 z" fill="#A1A1A1" filter="url(#Shape-33-fx)" />
<path id="Shape-33-copy" d="M78.938,102.977 C79.019,102.362 76.505,101.893 76.318,102.474 C76.132,103.055 78.856,103.592 78.938,102.977 z" fill="#A1A1A1" filter="url(#Shape-33-copy-fx)" />
</g>
</g>
<g id="money">
<path id="Shape-89" d="M39.744,194.000 L3.179,186.956 C3.179,186.956 3.179,185.103 3.179,183.200 C3.179,182.832 4.769,182.104 4.769,182.104 C4.769,182.104 3.179,181.350 3.179,181.008 C3.179,179.925 3.179,179.130 3.179,179.130 L31.000,179.913 L39.744,184.608 L39.744,183.043 L61.205,180.695 L61.205,190.087 L39.744,194.000 z" fill="#44955D" />
<path id="Shape-92" d="M61.205,180.478 L39.744,184.608 L39.744,194.000 L61.205,190.087 L61.205,180.478 z" fill="#4AA365" />
<path id="Shape-93" d="M39.744,187.739 L47.692,186.956 L39.744,188.521 L39.744,187.739 z" fill="#44955D" />
<path id="Shape-91" d="M4.769,183.826 L7.154,186.956 L17.487,186.174 L4.769,183.826 z" fill="#2C7B44" />
<path id="Shape-90" d="M4.769,182.261 L-0.000,184.608 L19.872,186.174 L4.769,182.261 z" fill="#46B96A" />
<path id="Rectangle-1" d="M24.641,176.000 L62.000,180.695 L39.744,185.391 L2.385,179.130 L24.641,176.000 z" fill="#46B96A" />
<path id="Ellipse-10" d="M32.594,179.125 C36.978,179.125 40.531,179.825 40.531,180.688 C40.531,181.550 36.978,182.250 32.594,182.250 C28.210,182.250 24.656,181.550 24.656,180.688 C24.656,179.825 28.210,179.125 32.594,179.125 z" fill="#4FCD76" />
</g>
</g>
</svg>
