<svg version="1.1" xmlns="http://www.w3.org/2000/svg" xmlns:xlink="http://www.w3.org/1999/xlink" width="60" height="54" viewBox="0 0 60 54">
<g id="icon-refound">
<g id="4">
<path id="$-copy" d="M30.464,28.937 C30.986,29.105 31.391,29.276 31.679,29.452 C31.967,29.627 32.111,29.883 32.111,30.217 C32.111,30.552 31.931,30.845 31.571,31.095 C31.211,31.347 30.589,31.472 29.707,31.472 C28.843,31.472 28.047,31.338 27.318,31.070 C26.588,30.803 25.972,30.485 25.468,30.117 C25.107,30.301 24.774,30.565 24.468,30.907 C24.162,31.250 24.009,31.665 24.009,32.150 C24.009,32.551 24.117,32.911 24.334,33.229 C24.549,33.547 24.851,33.823 25.238,34.057 C25.625,34.292 26.084,34.484 26.615,34.634 C27.146,34.785 27.736,34.893 28.384,34.961 C28.384,34.961 28.384,35.212 28.384,35.212 C28.384,35.948 28.582,36.429 28.978,36.655 C29.374,36.881 29.924,36.994 30.626,36.994 C30.986,36.994 31.337,36.968 31.679,36.918 C32.021,36.868 32.273,36.826 32.435,36.793 C32.435,36.793 32.435,34.785 32.435,34.785 C33.929,34.501 35.063,33.961 35.838,33.166 C36.612,32.372 36.999,31.405 36.999,30.267 C36.999,28.929 36.544,27.870 35.635,27.092 C34.726,26.314 33.425,25.674 31.733,25.172 C31.733,25.172 30.302,24.746 30.302,24.746 C29.833,24.612 29.482,24.466 29.248,24.307 C29.014,24.148 28.897,23.943 28.897,23.692 C28.897,23.374 29.086,23.111 29.465,22.901 C29.842,22.692 30.437,22.587 31.247,22.587 C32.039,22.587 32.768,22.675 33.434,22.851 C34.100,23.027 34.631,23.232 35.027,23.466 C35.333,23.249 35.595,22.985 35.811,22.675 C36.027,22.366 36.135,21.994 36.135,21.558 C36.135,20.855 35.797,20.303 35.122,19.902 C34.447,19.500 33.551,19.233 32.435,19.099 C32.435,19.099 32.435,18.772 32.435,18.772 C32.435,18.036 32.237,17.555 31.841,17.329 C31.445,17.104 30.896,16.990 30.194,16.990 C29.833,16.990 29.482,17.016 29.140,17.066 C28.798,17.116 28.546,17.158 28.384,17.191 C28.384,17.191 28.384,19.224 28.384,19.224 C26.980,19.509 25.900,20.040 25.144,20.818 C24.387,21.596 24.009,22.554 24.009,23.692 C24.009,24.428 24.140,25.051 24.401,25.561 C24.662,26.072 25.026,26.511 25.495,26.879 C25.963,27.247 26.521,27.561 27.169,27.820 C27.817,28.080 28.537,28.335 29.329,28.586 C29.329,28.586 30.464,28.937 30.464,28.937 z" fill="#29A537" />
<path id="Shape-120" d="M35.000,26.000 C37.600,38.000 25.000,31.000 25.000,31.000 L24.000,32.000 C24.000,32.000 24.000,33.257 27.155,34.514 C27.909,34.814 28.843,37.000 30.000,37.000 C31.321,37.000 32.400,34.660 33.279,34.131 C36.392,32.256 37.000,30.000 37.000,30.000 C37.000,30.000 37.400,28.000 35.000,26.000 z" fill="#22972F" fill-opacity="0.631" />
<path id="Shape-121" d="M24.000,23.000 C23.846,20.655 25.492,20.070 27.276,19.116 C28.753,18.326 27.849,16.968 30.049,16.968 C32.249,16.968 31.013,18.578 32.139,19.125 C33.170,19.626 35.199,18.912 36.000,22.000 C27.800,14.600 24.800,27.800 24.000,23.000 z" fill="#3EC04C" />
<g id="Group-22-copy-2">
<path id="Ellipse-17" d="M50.681,34.917 L43.298,23.180 C43.298,23.180 47.515,22.924 47.515,22.924 C47.129,21.238 46.519,19.578 45.609,18.001 C40.637,9.393 29.625,6.444 21.013,11.415 C20.072,11.958 19.211,12.585 18.408,13.261 C18.408,13.261 17.942,13.040 17.942,13.040 C17.694,14.161 16.696,15.000 15.499,15.000 C14.115,15.000 12.993,13.880 12.993,12.499 C12.993,11.912 13.204,11.379 13.543,10.953 C13.543,10.953 13.227,10.803 13.227,10.803 C14.725,9.247 16.443,7.859 18.400,6.723 C29.734,0.142 44.226,4.046 50.769,15.443 C52.076,17.719 52.946,20.123 53.438,22.564 C53.438,22.564 57.365,22.325 57.365,22.325 L50.681,34.917 z" fill="#F5AB55" />
<path id="Shape-122" d="M52.254,22.513 L47.505,23.479 L52.526,19.649 L52.254,22.513 z" fill="#D5882E" />
<path id="Shape-123" d="M53.365,22.325 L50.480,34.463 L57.469,21.773 L53.365,22.325 z" fill="#DF933B" />
<path id="Shape-124" d="M53.254,21.513 C53.254,21.513 38.505,-1.714 19.794,9.151 C16.416,13.349 13.305,12.832 13.305,12.832 C13.305,12.832 12.526,11.622 16.309,8.081 C43.759,-8.127 53.254,21.513 53.254,21.513 z" fill="#FFBC6F" />
</g>
<g id="Group-22-copy-3">
<path id="Ellipse-17" d="M49.273,42.551 C47.470,44.839 45.236,46.843 42.575,48.394 C31.224,55.005 16.711,51.083 10.159,39.633 C8.975,37.565 8.174,35.389 7.662,33.179 C7.662,33.179 3.554,33.724 3.554,33.724 L9.247,21.069 L17.643,31.856 C17.643,31.856 13.557,32.398 13.557,32.398 C13.949,33.979 14.535,35.537 15.390,37.019 C20.364,45.641 31.380,48.594 39.996,43.616 C41.560,42.713 42.930,41.606 44.107,40.355 C44.107,40.355 44.255,40.418 44.255,40.418 C44.659,39.581 45.508,39.000 46.498,39.000 C47.879,39.000 48.998,40.121 48.998,41.503 C48.998,41.808 48.936,42.095 48.836,42.365 C48.836,42.365 49.273,42.551 49.273,42.551 z" fill="#F5AB55" />
<path id="Shape-122" d="M7.669,32.535 L14.434,31.560 L13.412,34.407 L7.669,32.535 z" fill="#DF933B" />
<path id="Shape-123" d="M3.554,33.724 L12.456,25.538 L9.455,21.190 L3.554,33.724 z" fill="#FFBC6F" />
<path id="Shape-124" d="M7.669,33.535 C7.669,33.535 22.441,56.870 41.179,45.954 C46.117,43.039 47.680,41.107 47.680,41.107 C47.680,41.107 52.096,42.295 43.668,48.052 C16.441,62.209 7.669,33.535 7.669,33.535 z" fill="#DF933B" />
</g>
</g>
</g>
</svg>
