<svg version="1.1" xmlns="http://www.w3.org/2000/svg" xmlns:xlink="http://www.w3.org/1999/xlink" width="20" height="20" viewBox="0 0 20 20">
<g id="icon-skype">
<path id="icon-skype" d="M18.954,11.431 C19.025,10.978 19.063,10.514 19.063,10.041 C19.063,5.121 15.075,1.134 10.156,1.134 C9.684,1.134 9.219,1.172 8.766,1.244 C7.945,0.736 6.977,0.442 5.939,0.442 C2.967,0.442 0.557,2.852 0.557,5.825 C0.557,6.862 0.851,7.830 1.358,8.652 C1.288,9.106 1.250,9.568 1.250,10.041 C1.250,14.961 5.237,18.947 10.155,18.947 C10.628,18.947 11.093,18.911 11.546,18.839 C12.367,19.346 13.335,19.640 14.372,19.640 C17.345,19.640 19.755,17.230 19.755,14.257 C19.755,13.220 19.461,12.252 18.954,11.431 z" fill="#39B8F3" />
<path id="Shape-211" d="M18.155,7.042 C16.756,7.442 23.988,20.540 5.157,17.041 C5.159,16.979 7.830,19.053 11.943,18.751 C13.644,20.141 16.822,19.207 17.822,18.041 C18.822,16.874 20.459,15.393 19.033,11.417 C18.923,8.791 18.305,7.267 18.155,7.042 z" fill="#33AFE8" />
<path id="Shape-211-copy" d="M2.520,15.041 C3.854,17.207 -3.565,-1.210 15.286,2.702 C13.537,1.415 10.788,0.890 8.733,1.199 C5.662,-0.445 3.237,0.419 1.904,1.752 C0.571,3.085 -0.042,4.742 0.750,7.956 C1.276,10.876 1.187,12.874 2.520,15.041 z" fill="#57C6F9" />
<path id="Ellipse-36" d="M14.385,14.092 C14.008,14.634 13.454,15.058 12.731,15.363 C12.006,15.668 11.150,15.820 10.161,15.820 C8.975,15.820 7.993,15.613 7.219,15.194 C6.669,14.894 6.223,14.492 5.879,13.990 C5.535,13.488 5.361,12.996 5.361,12.517 C5.361,12.234 5.469,11.987 5.679,11.787 C5.891,11.585 6.164,11.484 6.487,11.484 C6.751,11.484 6.978,11.563 7.162,11.721 C7.346,11.879 7.500,12.108 7.626,12.410 C7.776,12.761 7.940,13.053 8.115,13.287 C8.288,13.518 8.532,13.710 8.847,13.861 C9.160,14.013 9.575,14.088 10.095,14.088 C10.807,14.088 11.382,13.934 11.822,13.630 C12.265,13.324 12.477,12.951 12.477,12.501 C12.477,12.142 12.363,11.856 12.128,11.633 C11.891,11.408 11.584,11.236 11.204,11.117 C10.823,10.996 10.311,10.868 9.669,10.732 C8.807,10.544 8.086,10.325 7.503,10.074 C6.918,9.821 6.453,9.476 6.108,9.040 C5.762,8.601 5.590,8.054 5.590,7.406 C5.590,6.788 5.772,6.236 6.136,5.755 C6.500,5.273 7.027,4.904 7.714,4.647 C8.398,4.390 9.204,4.261 10.128,4.261 C10.866,4.261 11.505,4.347 12.045,4.516 C12.584,4.688 13.034,4.914 13.393,5.197 C13.750,5.480 14.013,5.778 14.179,6.092 C14.345,6.406 14.429,6.712 14.429,7.012 C14.429,7.290 14.321,7.542 14.111,7.764 C13.901,7.985 13.632,8.098 13.318,8.097 C13.035,8.097 12.813,8.032 12.659,7.893 C12.509,7.760 12.351,7.547 12.181,7.250 C11.965,6.836 11.708,6.513 11.408,6.283 C11.116,6.056 10.634,5.938 9.963,5.940 C9.343,5.940 8.847,6.067 8.472,6.315 C8.095,6.566 7.915,6.859 7.914,7.201 C7.915,7.416 7.976,7.597 8.101,7.751 C8.226,7.907 8.402,8.043 8.627,8.157 C8.853,8.272 9.082,8.362 9.313,8.427 C9.546,8.493 9.933,8.588 10.471,8.715 C11.145,8.860 11.757,9.023 12.307,9.199 C12.855,9.378 13.324,9.592 13.711,9.848 C14.100,10.103 14.405,10.427 14.623,10.820 C14.842,11.213 14.951,11.693 14.951,12.258 C14.952,12.938 14.762,13.550 14.385,14.092 z" fill="#FFFFFF" />
</g>
</svg>
