<svg version="1.1" xmlns="http://www.w3.org/2000/svg" xmlns:xlink="http://www.w3.org/1999/xlink" width="18" height="18" viewBox="0 0 18 18">
<path id="icon-skype-reg" d="M16.632,9.879 C16.726,9.456 16.776,9.018 16.776,8.568 C16.776,5.195 13.997,2.461 10.569,2.461 C10.207,2.461 9.853,2.492 9.508,2.550 C8.953,2.206 8.297,2.007 7.593,2.007 C5.605,2.007 3.993,3.593 3.993,5.548 C3.993,6.202 4.174,6.814 4.488,7.340 C4.406,7.737 4.363,8.147 4.363,8.568 C4.363,11.941 7.141,14.675 10.569,14.675 C10.957,14.675 11.337,14.640 11.706,14.573 C12.212,14.841 12.792,14.993 13.407,14.993 C15.395,14.993 17.007,13.407 17.007,11.451 C17.007,10.886 16.871,10.353 16.632,9.879 zM13.752,11.487 C13.465,11.886 13.041,12.203 12.491,12.428 C11.947,12.651 11.295,12.764 10.552,12.764 C9.660,12.764 8.913,12.609 8.330,12.305 C7.913,12.083 7.569,11.783 7.308,11.413 C7.044,11.038 6.910,10.667 6.910,10.309 C6.910,10.085 6.998,9.891 7.169,9.732 C7.339,9.575 7.557,9.495 7.817,9.495 C8.030,9.495 8.214,9.558 8.364,9.683 C8.507,9.802 8.629,9.978 8.728,10.206 C8.838,10.454 8.958,10.663 9.084,10.828 C9.206,10.986 9.381,11.120 9.605,11.224 C9.830,11.328 10.133,11.382 10.506,11.382 C11.019,11.382 11.440,11.274 11.757,11.061 C12.066,10.853 12.216,10.604 12.216,10.299 C12.216,10.058 12.137,9.869 11.976,9.720 C11.807,9.564 11.584,9.443 11.314,9.360 C11.032,9.274 10.649,9.181 10.175,9.083 C9.534,8.948 8.988,8.787 8.554,8.606 C8.552,8.605 8.550,8.605 8.549,8.604 C8.103,8.418 7.745,8.159 7.482,7.836 C7.216,7.508 7.081,7.096 7.081,6.612 C7.081,6.151 7.223,5.735 7.502,5.376 C7.780,5.020 8.185,4.743 8.707,4.553 C9.222,4.366 9.835,4.271 10.528,4.271 C11.082,4.271 11.570,4.334 11.976,4.458 C12.386,4.584 12.730,4.753 13.001,4.961 C13.274,5.171 13.477,5.396 13.605,5.629 C13.734,5.864 13.799,6.099 13.799,6.325 C13.799,6.544 13.713,6.742 13.544,6.915 C13.375,7.089 13.160,7.177 12.907,7.177 C12.677,7.177 12.497,7.122 12.372,7.013 C12.256,6.912 12.136,6.754 12.002,6.528 C11.847,6.238 11.660,6.010 11.445,5.850 C11.237,5.693 10.888,5.614 10.409,5.614 C9.964,5.614 9.602,5.702 9.333,5.875 C9.075,6.042 8.949,6.234 8.949,6.461 C8.949,6.600 8.989,6.716 9.072,6.816 C9.161,6.922 9.285,7.015 9.442,7.093 C9.606,7.174 9.774,7.238 9.942,7.283 C10.114,7.330 10.404,7.400 10.801,7.491 C11.219,7.579 11.608,7.676 11.963,7.780 C12.034,7.801 12.105,7.822 12.173,7.844 C12.586,7.974 12.943,8.135 13.235,8.321 C13.532,8.511 13.767,8.756 13.934,9.048 C14.102,9.341 14.187,9.703 14.187,10.124 C14.187,10.627 14.041,11.085 13.752,11.487 z" fill="#8F8F8F" />
</svg>
