<svg version="1.1" xmlns="http://www.w3.org/2000/svg" xmlns:xlink="http://www.w3.org/1999/xlink" width="375" height="224" viewBox="0 0 375 224">
<defs>
<filter id="Shape-33-fx" filterUnits="userSpaceOnUse">
<feFlood flood-color="#121212" flood-opacity="1.000"/>
<feComposite operator="in" in2="SourceAlpha" />
<feOffset dx="1" dy="1.73205080756888"/>
<feGaussianBlur stdDeviation="0.0" result="blur" />
<feComposite operator="out" in="blur" in2="SourceAlpha" result="maskedShadow"/>
<feComposite operator="over" in="maskedShadow" in2="SourceGraphic" result="dropShadow"/>
<feFlood flood-color="#FFFFFF" flood-opacity="0.500"/>
<feComposite operator="out" in2="SourceAlpha"/>
<feOffset dx="1" dy="1.73205080756888"/>
<feGaussianBlur stdDeviation="0.0" result="blur" />
<feComposite operator="in" in="blur" in2="SourceAlpha" result="maskedShadow"/>
<feBlend mode="normal" in="maskedShadow" in2="dropShadow" result="innerShadow"/>
</filter>
<filter id="Shape-33-copy-fx" filterUnits="userSpaceOnUse">
<feFlood flood-color="#121212" flood-opacity="1.000"/>
<feComposite operator="in" in2="SourceAlpha" />
<feOffset dx="1" dy="1.73205080756888"/>
<feGaussianBlur stdDeviation="0.0" result="blur" />
<feComposite operator="out" in="blur" in2="SourceAlpha" result="maskedShadow"/>
<feComposite operator="over" in="maskedShadow" in2="SourceGraphic" result="dropShadow"/>
<feFlood flood-color="#FFFFFF" flood-opacity="0.500"/>
<feComposite operator="out" in2="SourceAlpha"/>
<feOffset dx="1" dy="1.73205080756888"/>
<feGaussianBlur stdDeviation="0.0" result="blur" />
<feComposite operator="in" in="blur" in2="SourceAlpha" result="maskedShadow"/>
<feBlend mode="normal" in="maskedShadow" in2="dropShadow" result="innerShadow"/>
</filter>
</defs>
<g id="car">
<path id="shadow" d="M9.000,177.000 C-2.000,207.000 49.000,228.000 183.000,223.000 C197.000,223.000 207.000,222.000 224.000,218.000 C236.000,215.000 360.000,175.000 370.000,157.000 C374.000,145.000 344.000,134.000 340.000,128.000 C336.000,122.000 20.000,147.000 9.000,177.000 z" fill="#000000" opacity="0.102" />
<g id="wheels">
<path id="Shape-240" d="M372.571,119.280 L363.894,120.925 L339.895,97.231 L364.266,85.332 L373.609,102.795 L372.571,119.280 z" fill="#161715" />
<path id="Shape-233" d="M327.200,151.794 L334.082,156.208 C334.082,156.208 355.109,160.480 357.433,159.058 C376.318,147.391 371.340,99.008 360.658,99.186 C351.145,97.928 336.404,99.798 336.404,99.798 L327.200,151.794 z" fill="#303030" />
<path id="Shape-310" d="M326.566,146.239 L345.584,132.887 C345.584,132.887 339.933,148.745 352.238,159.003 C336.362,157.545 331.884,155.293 331.884,155.293 L326.566,146.239 z" fill="#262626" />
<path id="Ellipse-49" d="M357.058,112.171 C359.449,112.196 361.310,119.601 361.215,128.710 C361.119,137.820 359.104,145.184 356.713,145.159 C354.322,145.134 352.461,137.729 352.556,128.619 C352.651,119.510 354.667,112.146 357.058,112.171 z" fill="#3D3D3D" />
<path id="Shape-244" d="M369.098,120.111 C365.538,87.950 351.890,109.512 351.890,109.512 C351.890,109.512 358.078,97.422 363.237,100.949 C368.396,104.476 369.171,113.166 369.098,120.111 z" fill="#414141" />
<path id="Shape-237" d="M258.488,180.590 L247.232,180.472 L201.750,140.924 L212.304,125.407 L252.216,118.013 L263.883,161.546 L258.488,180.590 z" fill="#191A18" />
<path id="Shape-235" d="M174.209,207.486 C224.171,232.611 245.246,204.761 249.802,183.103 C253.457,164.909 247.625,129.107 208.759,133.184 C173.793,136.867 125.996,180.643 174.209,207.486 z" fill="#303030" />
<path id="Ellipse-48" d="M212.888,152.328 C223.409,152.438 231.827,163.022 231.692,175.967 C231.556,188.912 222.918,199.316 212.397,199.206 C201.877,199.095 193.458,188.511 193.594,175.566 C193.729,162.621 202.368,152.217 212.888,152.328 z" fill="#3D3D3D" />
<path id="Shape-245" d="M249.832,167.486 C242.088,121.390 203.491,140.074 203.491,140.074 C203.491,140.074 236.870,123.506 249.832,167.486 z" fill="#414141" />
<path id="Shape-246" d="M243.605,196.061 C223.800,226.674 197.551,211.204 197.551,211.204 C197.551,211.204 223.832,223.636 243.605,196.061 z" fill="#414141" />
<path id="Shape-258" d="M176.379,202.004 L182.047,203.227 C182.047,203.227 190.095,220.242 219.999,217.518 C176.975,220.800 176.379,202.004 176.379,202.004 z" fill="#222222" />
<path id="Shape-239" d="M245.546,176.113 C244.774,187.826 236.084,211.393 214.002,211.377 C191.920,211.362 180.451,190.187 180.451,190.187 C180.451,190.187 164.108,158.977 202.589,143.537 C236.501,130.220 246.138,160.926 245.546,176.113 zM213.459,202.690 C218.146,202.693 222.046,201.315 225.254,199.135 C223.683,193.490 219.163,188.457 216.296,184.568 C212.847,188.713 207.051,194.202 204.787,201.191 C207.390,202.117 210.282,202.687 213.459,202.690 zM184.980,173.888 C184.746,180.909 187.614,186.397 187.614,186.397 C187.614,186.397 190.462,191.637 196.030,196.174 C202.192,192.603 206.066,184.551 209.125,179.365 C203.273,176.966 194.415,171.733 184.980,173.888 zM211.100,148.600 C209.091,149.008 206.955,149.632 204.666,150.529 C197.184,153.525 192.399,157.294 189.417,161.255 C194.294,167.868 205.050,168.926 211.684,170.377 C212.058,164.739 213.849,156.136 211.100,148.600 zM216.522,172.073 C214.255,172.018 212.366,173.992 212.340,176.482 C212.314,178.973 214.161,180.974 216.429,180.954 C218.660,180.934 220.462,178.959 220.487,176.544 C220.512,174.129 218.752,172.128 216.522,172.073 zM221.938,148.751 C219.419,154.806 220.538,163.793 220.675,169.894 C225.087,168.790 231.548,168.037 236.177,164.393 C234.060,157.604 229.665,150.911 221.938,148.751 zM222.863,179.196 C224.607,183.258 226.787,189.141 231.588,192.760 C235.580,187.057 237.456,180.145 237.758,175.576 C237.775,175.124 237.774,174.647 237.768,174.162 C232.729,174.192 227.025,177.473 222.863,179.196 z" fill="#E8E8E8" />
<path id="Shape-247" d="M243.482,182.190 C241.082,143.790 218.836,142.985 205.832,144.149 C202.538,142.316 224.697,134.062 236.919,149.392 C244.327,156.891 246.182,174.856 243.482,182.190 z" fill="#D1D1D1" />
<path id="Shape-253" d="M192.428,203.205 C193.366,202.017 226.480,217.889 238.419,194.139 C237.920,195.638 237.882,202.894 223.969,208.391 C210.056,213.888 191.491,204.392 192.428,203.205 z" fill="#FFFFFF" />
<path id="Shape-254" d="M237.862,165.614 C240.454,166.220 239.852,168.529 237.807,170.822 C235.763,173.116 223.589,177.908 223.042,175.008 C222.754,173.477 229.275,172.571 233.629,170.302 C237.982,168.033 235.270,165.007 237.862,165.614 z" fill="#FFFFFF" />
<path id="Shape-255" d="M218.978,149.641 C219.129,152.236 216.340,162.982 217.769,162.797 C215.808,162.577 215.035,151.196 215.766,149.607 C216.496,148.018 218.827,147.045 218.978,149.641 z" fill="#FFFFFF" />
<path id="Shape-256" d="M219.506,181.916 C225.157,179.805 231.045,196.363 228.867,197.643 C227.773,198.285 226.616,192.270 223.838,188.422 C221.085,184.608 216.694,182.967 219.506,181.916 z" fill="#FFFFFF" />
<path id="Shape-257" d="M210.820,184.430 C210.820,184.430 203.716,201.285 201.989,200.833 C200.262,200.380 198.553,198.192 198.553,198.192 L210.820,184.430 z" fill="#FFFFFF" />
<path id="Ellipse-44" d="M216.899,182.757 C213.552,182.722 210.867,179.973 210.902,176.617 C210.937,173.260 213.679,170.568 217.027,170.603 C220.374,170.639 223.059,173.388 223.024,176.744 C222.989,180.100 220.247,182.792 216.899,182.757 zM216.522,172.073 C214.255,172.018 212.366,173.992 212.340,176.482 C212.314,178.973 214.161,180.974 216.429,180.954 C218.660,180.934 220.462,178.959 220.487,176.544 C220.512,174.129 218.752,172.128 216.522,172.073 z" fill="#C2C2C2" />
<path id="Shape-248" d="M220.717,148.937 C220.717,148.937 215.110,167.545 219.615,171.499 C224.120,175.453 236.139,164.727 236.139,164.727 C236.139,164.727 223.163,170.838 220.288,169.713 C219.788,169.088 220.717,148.937 220.717,148.937 z" fill="#D1D1D1" />
<path id="Shape-249" d="M212.059,148.846 C212.059,148.846 216.395,168.861 212.688,171.426 C208.981,173.992 198.862,168.676 198.862,168.676 L211.768,170.304 L212.059,148.846 z" fill="#D1D1D1" />
<path id="Shape-250" d="M197.076,173.866 C197.076,173.866 209.838,174.869 210.875,179.221 C211.912,183.573 196.839,196.437 196.839,196.437 C196.839,196.437 209.243,180.874 208.993,179.749 C207.868,177.999 197.076,173.866 197.076,173.866 z" fill="#D1D1D1" />
<path id="Shape-251" d="M216.899,182.757 C222.095,182.812 225.769,198.224 225.395,198.474 C225.019,198.724 217.630,185.412 216.380,184.162 C214.755,185.287 204.160,200.241 203.730,199.983 C203.105,199.608 211.704,182.702 216.899,182.757 z" fill="#D1D1D1" />
<path id="Shape-252" d="M220.427,176.717 C219.946,167.451 213.545,172.303 213.545,172.303 C213.545,172.303 219.907,169.483 220.427,176.717 z" fill="#D1D1D1" />
<path id="Shape-239-copy" d="M366.371,128.263 C365.892,136.152 363.171,152.456 357.576,153.692 C351.711,154.987 351.129,146.491 350.086,139.532 C349.286,126.358 351.026,113.042 356.352,106.726 C365.318,97.454 366.892,118.061 366.371,128.263 zM352.454,136.486 C352.579,137.983 352.686,139.431 352.830,140.768 C354.231,139.526 355.510,135.384 356.563,132.173 C355.449,130.695 354.067,128.079 352.388,127.999 C352.191,130.868 352.212,133.758 352.454,136.486 zM357.722,110.687 C357.400,110.942 357.068,111.237 356.717,111.606 C355.472,113.703 354.495,116.293 353.773,119.129 C354.992,120.193 356.783,122.137 358.313,125.337 C358.655,122.109 359.031,117.113 357.722,110.687 zM359.239,126.355 C358.657,126.382 358.118,127.807 358.047,129.538 C357.975,131.270 358.402,132.595 358.987,132.501 C359.560,132.409 360.071,130.987 360.139,129.322 C360.207,127.658 359.809,126.329 359.239,126.355 zM359.129,134.626 C358.103,138.770 355.815,144.421 354.748,146.956 C355.437,147.646 356.365,147.946 357.660,147.692 C358.387,147.550 359.048,147.060 359.652,146.343 C361.423,141.694 360.076,137.639 359.129,134.626 zM360.592,109.861 C362.578,114.554 362.206,121.081 361.321,125.268 C362.333,124.877 363.498,124.049 364.433,121.422 C364.098,116.130 363.021,110.712 360.592,109.861 zM361.756,131.698 C362.280,133.713 362.709,136.292 362.859,138.731 C363.711,135.299 364.226,131.562 364.434,128.832 C363.648,130.004 362.661,131.060 361.756,131.698 z" fill="#E8E8E8" />
<path id="Shape-259" d="M352.619,122.543 C353.921,122.339 354.989,123.653 356.019,128.656 C356.227,129.526 358.858,126.298 356.074,123.447 C354.572,122.129 353.722,120.601 352.619,122.543 z" fill="#FFFFFF" />
<path id="Shape-260" d="M359.665,111.330 C359.665,111.330 360.649,120.674 360.394,124.361 C363.014,122.218 359.665,111.330 359.665,111.330 z" fill="#FFFFFF" />
<path id="Shape-261" d="M362.071,129.588 C360.552,130.006 361.215,128.710 361.215,128.710 C361.215,128.710 363.855,124.614 364.714,125.274 C365.573,125.935 363.591,129.170 362.071,129.588 z" fill="#FFFFFF" />
<path id="Shape-262" d="M360.303,133.042 C360.303,133.042 362.846,138.278 362.819,140.882 C362.792,143.487 361.926,143.477 361.926,143.477 L360.303,133.042 z" fill="#FFFFFF" />
<path id="Shape-263" d="M357.697,133.883 C359.194,135.635 354.746,146.875 353.258,144.254 C351.353,140.110 356.336,139.729 357.697,133.883 z" fill="#FFFFFF" />
<path id="Shape-264" d="M361.069,142.600 C360.487,145.088 358.064,149.842 355.564,148.092 C353.064,146.342 352.492,134.696 352.492,134.696 C352.492,134.696 352.561,148.805 355.792,150.359 C359.023,151.912 361.684,145.862 361.069,142.600 z" fill="#D4D4D4" />
<path id="Shape-265" d="M353.531,118.211 C353.531,118.211 362.173,94.161 364.751,121.802 C364.432,119.194 364.223,105.995 360.585,106.130 C354.777,106.677 353.531,118.211 353.531,118.211 z" fill="#D4D4D4" />
<path id="Ellipse-45" d="M358.986,134.764 C357.791,134.752 356.846,132.410 356.876,129.533 C356.906,126.656 357.900,124.335 359.095,124.347 C360.291,124.360 361.236,126.702 361.205,129.579 C361.175,132.455 360.182,134.777 358.986,134.764 zM359.239,126.355 C358.657,126.382 358.118,127.807 358.047,129.538 C357.975,131.270 358.402,132.595 358.987,132.501 C359.560,132.409 360.071,130.987 360.139,129.322 C360.207,127.658 359.809,126.329 359.239,126.355 z" fill="#C2C2C2" />
</g>
<g id="car">
<path id="Shape-294" d="M116.657,80.122 C116.657,80.122 219.876,63.844 240.666,63.194 C253.672,61.595 312.077,66.116 325.439,71.900 C344.361,84.254 253.318,95.451 253.318,95.451 L116.657,80.122 z" fill="#403F3F" />
<path id="Shape-296" d="M176.474,73.806 C176.474,73.806 173.448,73.340 169.520,76.337 C165.592,79.335 165.100,84.973 165.100,84.973 C165.100,84.973 210.872,96.741 211.720,98.486 C212.568,100.232 214.882,85.931 212.768,81.133 C210.653,76.336 205.029,75.843 205.029,75.843 C205.029,75.843 206.200,46.770 191.457,48.785 C179.317,50.394 176.474,73.806 176.474,73.806 z" fill="#333232" />
<path id="Shape-296" d="M235.289,80.502 C235.289,80.502 232.263,80.036 228.335,83.034 C224.407,86.031 223.915,91.669 223.915,91.669 C223.915,91.669 269.687,103.437 270.535,105.183 C271.383,106.928 273.697,92.627 271.583,87.830 C269.468,83.032 263.844,82.539 263.844,82.539 C263.844,82.539 265.015,53.466 250.272,55.482 C238.132,57.090 235.289,80.502 235.289,80.502 z" fill="#333232" />
<g id="garlick">
<g id="body">
<path id="Shape-3" d="M252.905,23.940 C252.267,15.201 257.291,6.231 255.784,5.422 C254.277,4.612 246.196,14.313 245.852,20.375 C245.507,26.436 253.544,32.679 252.905,23.940 z" fill="#F2DAC3" />
<path id="Shape-2" d="M249.359,-0.001 C252.204,0.054 245.366,20.954 256.677,34.196 C267.989,47.438 274.822,44.005 282.979,54.248 C296.092,71.433 282.046,82.187 282.046,82.187 C282.046,82.187 280.665,104.511 254.818,101.643 C217.308,97.482 245.857,-0.068 249.359,-0.001 z" fill="#F7E1CB" />
<path id="Shape-21" d="M287.667,75.532 C287.667,75.532 285.241,78.260 283.980,78.120 C282.719,77.981 283.558,76.147 282.297,76.007 C281.037,75.867 280.921,76.925 281.272,77.606 C281.622,78.287 282.000,82.610 282.000,82.610 L286.245,78.800 L287.667,75.532 z" fill="#F6CCB2" />
<path id="Shape-1" d="M259.802,7.580 C261.447,8.464 251.592,15.553 252.705,39.692 C253.630,59.753 267.308,67.222 265.379,84.834 C264.267,94.983 260.231,111.449 235.960,108.756 C219.881,106.973 217.439,98.923 217.439,98.923 C217.439,98.923 190.880,102.834 194.139,73.078 C192.183,71.124 187.503,59.805 193.904,50.884 C200.304,41.963 214.794,40.948 226.237,30.767 C246.143,14.710 258.395,6.824 259.802,7.580 z" fill="#FCEAD8" />
<path id="Shape-16" d="M253.949,16.349 C255.397,16.724 247.895,34.730 252.719,50.891 C258.945,69.778 263.387,75.836 263.387,75.836 C263.387,75.836 265.880,70.547 266.031,82.765 C266.182,94.984 251.998,107.967 244.715,108.443 C225.059,111.186 217.718,98.598 217.718,98.598 C217.718,98.598 214.066,87.276 218.571,86.919 C223.077,86.563 221.144,92.556 225.277,93.657 C233.240,95.263 230.100,80.429 237.731,76.781 C245.362,73.132 251.763,79.042 254.563,76.784 C257.362,74.525 247.449,58.227 247.603,47.113 C246.517,33.720 252.688,16.209 253.949,16.349 z" fill="#F7E1CB" />
<path id="Shape-15" d="M265.635,84.434 C265.635,84.434 262.727,95.457 258.782,96.517 C256.798,97.154 258.268,95.390 256.143,95.368 C254.018,95.347 252.652,107.825 232.899,105.634 C230.610,105.166 217.066,100.666 215.957,87.486 C215.105,74.868 225.897,54.980 225.897,54.980 C225.897,54.980 228.450,51.089 228.065,50.725 C227.517,51.842 225.477,54.934 225.477,54.934 C225.477,54.934 212.747,74.071 213.903,88.756 C215.060,103.441 228.862,107.541 233.159,109.088 C245.932,112.859 255.264,105.332 256.874,104.226 C264.783,98.040 265.635,84.434 265.635,84.434 z" fill="#F6CCB2" />
<path id="Shape-14-copy" d="M252.472,35.665 C253.118,35.594 251.844,38.807 254.421,48.940 C256.998,59.072 259.459,60.558 258.868,60.778 C258.276,60.998 254.550,53.592 253.558,49.058 C252.565,44.524 251.826,35.737 252.472,35.665 z" fill="#E4A89B" />
<path id="Shape-8" d="M279.500,80.192 C277.705,70.362 264.489,55.087 262.424,56.463 C258.959,58.968 267.607,70.312 269.084,77.217 C270.561,84.123 265.242,88.993 269.973,92.407 C273.828,95.082 281.294,90.022 279.500,80.192 z" fill="#FCEAD8" />
<path id="Shape-9" d="M262.531,44.809 C264.419,42.129 274.861,48.746 279.488,53.112 C282.116,55.330 288.252,64.360 283.983,68.381 C279.715,72.402 278.131,59.246 275.216,56.374 C265.559,44.057 262.322,46.712 262.531,44.809 z" fill="#FCEAD8" />
<path id="Shape-18" d="M215.377,77.544 C209.036,98.576 191.922,88.904 193.586,82.007 C192.182,76.216 192.739,82.101 193.356,86.049 C201.445,101.064 216.296,99.787 214.230,86.125 C214.518,81.555 214.817,79.208 215.377,77.544 z" fill="#F7E1CB" />
<path id="Shape-18-copy" d="M197.563,65.109 C198.589,62.868 208.026,51.142 216.995,46.929 C214.490,47.150 200.382,58.144 197.353,65.086 C193.032,72.725 193.980,73.425 197.563,65.109 z" fill="#F6CCB2" />
<path id="Shape-4" d="M252.244,13.531 C251.605,12.445 246.473,16.542 243.673,18.800 C240.874,21.058 226.538,30.623 227.788,33.045 C228.676,34.158 231.056,30.870 231.500,31.427 C231.943,31.983 230.088,33.554 230.708,34.046 C231.327,34.537 233.911,31.694 234.604,32.278 C235.298,32.863 229.917,37.426 230.767,38.112 C231.618,38.799 235.558,34.330 236.177,34.821 C236.797,35.313 234.528,39.121 235.665,39.501 C236.802,39.881 238.007,35.024 238.838,35.117 C239.670,35.209 239.527,40.353 240.765,40.575 C242.918,40.898 242.450,35.179 243.716,35.150 C244.981,35.121 243.382,37.989 244.814,37.979 C246.744,38.024 245.498,36.874 248.110,25.322 C249.701,18.477 252.882,14.616 252.244,13.531 z" fill="#FDF3E9" />
<path id="Shape-17" d="M215.389,79.074 C213.731,78.676 214.560,92.468 210.943,94.422 C206.347,97.551 198.894,91.801 199.480,94.220 C201.259,99.341 212.045,99.895 212.045,99.895 C212.045,99.895 217.906,100.760 218.115,98.856 C211.948,94.961 217.047,79.472 215.389,79.074 z" fill="#F6CCB2" />
<path id="Ellipse-1" d="M238.633,108.625 C248.133,109.678 256.910,105.345 261.730,98.166 C257.332,106.648 247.766,111.992 237.328,110.834 C225.127,109.481 215.042,102.095 214.384,91.094 C216.623,100.819 227.332,107.371 238.633,108.625 z" fill="#E4A89B" />
<path id="Shape-5" d="M220.108,39.069 C218.457,37.302 203.650,44.444 198.721,48.621 C191.516,53.187 191.119,61.776 194.699,62.845 C197.032,63.407 201.051,54.472 206.445,49.834 C212.974,44.220 221.012,40.037 220.108,39.069 z" fill="#FDF3E9" />
<path id="Shape-19" d="M199.662,61.489 C199.662,61.489 196.677,65.439 194.109,65.582 C191.541,65.725 191.862,58.911 190.765,59.217 C189.668,59.524 192.130,71.999 193.788,72.396 C194.580,70.986 199.662,61.489 199.662,61.489 z" fill="#F6CCB2" />
<path id="Shape-20" d="M264.659,89.463 C264.659,89.463 262.005,98.159 267.001,97.215 C269.499,97.706 269.798,93.030 271.691,95.167 C274.425,97.396 279.625,90.695 279.323,91.518 C279.020,92.341 275.501,99.228 267.448,100.904 C261.985,102.225 258.600,102.063 258.600,102.063 L264.659,89.463 z" fill="#F6CCB2" />
<path id="Shape-6" d="M220.357,47.301 C218.441,45.376 201.900,58.526 197.590,68.751 C193.280,78.976 196.745,90.064 201.856,88.062 C206.967,86.060 206.982,76.215 208.423,68.882 C209.864,61.550 222.274,49.227 220.357,47.301 z" fill="#FDF3E9" />
<path id="Shape-7" d="M240.580,52.970 C237.428,52.620 238.796,54.699 236.942,57.062 C235.088,59.424 234.710,54.138 230.823,54.670 C226.936,55.202 210.222,97.125 230.256,100.631 C250.291,104.138 255.459,87.049 250.547,76.552 C245.635,66.055 243.733,53.320 240.580,52.970 z" fill="#FDF3E9" />
<path id="Shape-14" d="M262.493,68.459 C263.022,68.160 265.268,74.190 265.862,76.539 C267.104,81.386 266.363,84.445 265.627,87.931 C264.891,91.417 263.666,94.524 263.473,94.469 C263.281,94.414 263.960,92.306 264.705,87.899 C265.400,83.782 265.991,82.084 264.867,76.372 C264.065,72.300 262.260,68.647 262.493,68.459 z" fill="#E4A89B" />
<path id="Shape-10" d="M215.400,38.189 C215.400,38.189 194.291,47.407 192.022,55.504 C189.369,65.163 194.722,72.607 194.815,72.725 C192.357,77.696 187.253,61.182 191.857,53.130 C196.577,44.985 215.400,38.189 215.400,38.189 z" fill="#E4A89B" />
<path id="Shape-11" d="M201.597,59.349 C190.719,73.233 191.900,89.633 202.657,96.285 C210.400,100.355 218.183,97.258 218.512,99.114 C220.311,101.134 209.106,102.459 201.818,98.119 C194.530,93.778 189.946,84.172 192.949,74.230 C195.952,64.288 203.125,57.056 201.597,59.349 z" fill="#E4A89B" />
<path id="Shape-12" d="M276.081,68.681 C275.630,68.917 280.027,73.676 280.942,79.717 C281.765,85.149 280.018,91.496 276.174,95.022 C268.056,102.470 259.067,101.687 259.067,101.687 C259.067,101.687 259.145,101.624 258.110,102.651 C257.535,103.372 271.457,103.132 277.762,96.054 C281.340,92.038 283.213,87.147 282.258,79.345 C281.543,74.270 276.532,68.446 276.081,68.681 z" fill="#E4A89B" />
<path id="Shape-13" d="M253.049,28.451 C252.912,28.562 255.456,37.048 270.420,45.180 C270.918,45.419 271.439,45.651 271.726,45.789 C291.029,55.071 290.819,76.873 282.116,81.553 C280.833,83.551 281.452,83.727 282.327,83.503 C285.129,83.171 292.682,75.018 289.018,63.801 C283.275,49.014 273.626,46.188 270.208,44.382 C256.100,37.251 253.140,28.378 253.049,28.451 z" fill="#E4A89B" />
</g>
<g id="mouth">
<path id="Shape-22-copy" d="M246.772,84.957 C246.392,84.280 236.330,86.614 231.809,86.188 C227.288,85.761 222.669,84.052 221.407,85.485 C220.145,86.917 224.516,92.287 231.686,92.408 C238.856,92.530 247.512,86.275 246.772,84.957 z" fill="#F6CCB2" />
<path id="Shape-22-copy-2" d="M247.618,81.404 C247.238,80.727 237.176,83.061 232.654,82.634 C228.133,82.208 223.515,80.499 222.253,81.931 C220.991,83.364 225.362,88.734 232.532,88.855 C239.702,88.976 248.358,82.722 247.618,81.404 z" fill="#F7E1CB" />
<path id="Shape-22" d="M247.195,83.255 C246.815,82.578 236.753,84.912 232.232,84.485 C227.710,84.059 223.092,82.350 221.830,83.783 C220.568,85.215 224.939,90.585 232.109,90.706 C239.279,90.827 247.935,84.573 247.195,83.255 z" fill="#E4A89B" />
<path id="Shape-24" d="M222.501,83.724 C222.501,83.724 222.598,85.532 223.131,86.041 C230.111,88.912 244.775,86.195 245.673,86.070 C246.571,85.945 246.911,83.838 246.911,83.838 C246.911,83.838 247.044,83.072 246.377,82.655 C244.211,82.822 238.508,85.722 222.841,82.639 C222.341,83.305 222.501,83.724 222.501,83.724 z" fill="#FFFFFF" />
<path id="Shape-25" d="M245.209,85.960 C240.569,87.610 223.728,86.228 223.487,86.508 C223.246,86.789 223.457,86.542 223.590,86.994 C224.389,90.113 232.637,91.553 239.292,89.458 C241.375,88.791 244.874,86.640 245.209,85.960 z" fill="#FFFFFF" />
<path id="Shape-62" d="M238.000,84.000 L238.387,87.300 L240.874,86.676 L241.000,84.000 L238.000,84.000 z" fill="#FEDE76" />
<path id="Shape-63" d="M238.387,83.935 C238.387,83.935 237.982,86.716 240.252,86.676 C241.118,86.894 240.252,87.300 240.252,87.300 C240.252,87.300 236.625,87.456 237.143,85.429 C237.060,83.467 238.387,83.935 238.387,83.935 z" fill="#FCDD71" />
<path id="Shape-64" d="M237.765,84.806 C237.765,84.806 238.231,86.053 239.631,86.676 C241.030,87.300 238.076,86.988 237.765,86.676 C237.454,86.364 237.765,84.806 237.765,84.806 z" fill="#FFEDAE" />
</g>
<g id="glasses">
<path id="Shape-31" d="M262.571,63.806 C262.367,64.647 261.019,64.730 261.059,65.379 C261.099,66.028 260.708,72.657 258.488,76.696 C256.301,80.675 241.977,81.045 238.561,78.192 C235.224,75.403 232.891,67.555 232.891,67.555 C232.891,67.555 232.481,66.777 231.616,66.863 C231.035,66.976 230.596,67.529 230.596,67.529 C230.596,67.529 229.126,74.620 225.820,77.118 C222.581,79.566 209.400,78.720 207.739,74.955 C206.105,71.253 206.021,65.370 206.075,64.796 C206.129,64.222 205.071,64.128 204.939,63.384 C204.808,62.640 204.388,59.945 205.240,59.577 C212.235,57.396 229.413,62.227 231.765,62.736 C233.390,62.257 252.034,56.878 262.373,59.484 C263.446,59.901 262.775,62.963 262.571,63.806 z" fill="#1C1C1C" />
<path id="Shape-37" d="M228.270,64.435 C228.486,63.936 229.619,64.659 229.785,65.350 C229.952,66.042 229.406,68.074 229.015,67.956 C228.792,67.888 229.142,66.533 229.071,65.625 C229.017,64.944 228.177,64.649 228.270,64.435 z" fill="#262626" />
<path id="Shape-38" d="M236.014,63.595 C235.126,62.961 233.575,64.501 233.284,65.218 C232.993,65.935 234.233,69.177 234.991,69.047 C235.627,69.002 234.793,67.056 234.891,65.497 C234.974,64.163 236.423,63.887 236.014,63.595 z" fill="#262626" />
<path id="Shape-32" d="M255.703,62.692 C253.728,60.671 238.166,61.840 236.317,65.280 C234.126,69.303 238.136,75.382 240.170,77.072 C242.222,78.779 252.095,78.922 254.609,76.280 C257.145,73.613 257.718,64.754 255.703,62.692 z" fill="#393939" />
<path id="Shape-32-copy" d="M255.049,63.339 C253.577,61.819 241.965,62.711 240.583,65.302 C238.945,68.331 241.933,72.904 243.449,74.175 C244.979,75.458 252.345,75.559 254.223,73.568 C256.117,71.558 256.551,64.890 255.049,63.339 z" fill="#404040" />
<path id="Shape-32-copy-4" d="M254.369,63.838 C253.132,62.566 243.374,63.307 242.214,65.474 C240.839,68.007 243.351,71.834 244.626,72.898 C245.912,73.972 252.102,74.059 253.679,72.394 C255.270,70.714 255.632,65.136 254.369,63.838 z" fill="#474747" />
<path id="Shape-32-copy-5" d="M253.005,65.036 C252.536,64.434 248.553,64.336 247.960,65.213 C247.259,66.238 248.157,67.993 248.652,68.506 C249.151,69.025 252.416,69.411 253.164,68.768 C253.918,68.119 253.485,65.649 253.005,65.036 z" fill="#4F4F4F" />
<path id="Shape-32-copy-6" d="M252.925,65.152 C252.727,64.897 251.047,64.857 250.796,65.229 C250.500,65.664 250.879,66.407 251.087,66.625 C251.298,66.845 252.676,67.008 252.991,66.735 C253.310,66.460 253.128,65.412 252.925,65.152 z" fill="#5C5C5C" />
<path id="Shape-32" d="M210.474,62.675 C212.228,60.808 226.906,62.234 228.512,65.540 C229.760,68.394 226.933,75.372 224.062,76.338 C221.192,77.304 212.935,77.368 210.923,74.803 C208.932,72.265 208.752,64.507 210.474,62.675 z" fill="#393939" />
<path id="Shape-32-copy-2" d="M213.396,63.561 C214.767,62.097 226.231,63.209 227.484,65.801 C228.458,68.038 226.248,73.509 224.005,74.267 C221.763,75.025 215.314,75.078 213.743,73.068 C212.189,71.079 212.051,64.998 213.396,63.561 z" fill="#404040" />
<path id="Shape-32-copy-3" d="M215.351,64.209 C216.473,63.011 225.868,63.923 226.895,66.044 C227.693,67.874 225.883,72.350 224.045,72.970 C222.208,73.590 216.923,73.632 215.637,71.988 C214.363,70.360 214.248,65.384 215.351,64.209 z" fill="#474747" />
<path id="Shape-32-copy-7" d="M221.361,65.196 C221.848,64.654 225.894,65.044 226.332,65.997 C226.672,66.820 226.419,68.719 225.625,69.002 C224.832,69.285 222.018,69.437 221.467,68.699 C220.922,67.969 220.884,65.728 221.361,65.196 z" fill="#4F4F4F" />
<path id="Shape-32-copy-8" d="M223.962,65.646 C224.167,65.431 225.668,65.574 225.856,65.956 C226.002,66.286 226.109,67.069 225.775,67.180 C225.440,67.292 224.251,67.346 224.016,67.049 C223.784,66.755 223.762,65.858 223.962,65.646 z" fill="#5C5C5C" />
<path id="Shape-33" d="M261.297,61.904 C261.241,61.113 257.973,61.178 257.888,61.954 C257.803,62.729 261.352,62.695 261.297,61.904 z" fill="#A1A1A1" filter="url(#Shape-33-fx)" />
<path id="Shape-33-copy" d="M208.938,61.977 C209.019,61.362 206.505,60.893 206.318,61.474 C206.132,62.055 208.856,62.592 208.938,61.977 z" fill="#A1A1A1" filter="url(#Shape-33-copy-fx)" />
</g>
</g>
<g id="hand-like">
<path id="Shape-42" d="M286.479,69.931 C289.479,67.265 285.740,64.351 289.393,64.998 C294.197,65.848 301.409,65.361 309.048,58.543 C322.492,46.543 316.095,62.537 314.859,66.515 C313.624,70.492 291.366,83.412 281.366,81.078 C280.699,77.078 280.079,73.198 286.479,69.931 z" fill="#F7E1CB" />
<path id="Shape-60" d="M281.123,79.529 C281.123,79.529 286.307,82.341 305.307,73.141 C305.973,74.741 289.700,83.300 282.000,82.000 C280.133,81.867 281.123,79.529 281.123,79.529 z" fill="#E4A89B" />
<path id="Shape-43" d="M300.717,33.773 C305.518,32.522 307.155,37.374 307.942,40.596 C308.842,44.287 308.331,47.275 311.807,48.011 C316.672,49.699 318.602,44.871 323.662,50.335 C327.283,54.049 328.429,57.989 328.476,62.133 C328.524,66.277 327.157,75.687 319.863,77.064 C312.569,78.440 307.625,75.092 306.251,72.040 C304.877,68.987 305.306,66.608 305.436,63.573 C302.806,60.757 303.202,54.962 302.872,50.593 C302.635,47.448 302.838,47.034 301.240,44.750 C299.641,42.465 295.917,35.023 300.717,33.773 z" fill="#FCEAD8" />
<path id="Shape-55" d="M302.141,42.775 C303.679,42.216 303.076,45.591 305.168,46.693 C307.260,47.795 307.156,46.683 307.073,47.359 C306.990,48.036 304.779,51.103 305.779,53.353 C306.779,55.603 307.523,58.022 304.273,58.772 C301.023,59.522 304.068,49.628 302.917,47.916 C301.171,45.319 301.243,43.102 302.141,42.775 z" fill="#F7E1CB" />
<path id="Shape-54" d="M301.264,33.976 C299.859,35.162 300.708,37.141 300.708,37.141 C300.708,37.141 303.453,43.344 306.352,42.533 C307.524,42.098 307.121,38.250 305.772,35.562 C304.422,32.874 301.691,33.398 301.264,33.976 z" fill="#FDF3E9" />
<path id="Shape-53" d="M304.110,53.928 C305.390,59.309 307.112,63.049 307.112,63.049 C307.112,63.049 304.720,66.686 306.167,72.139 C301.308,65.998 302.830,48.547 304.110,53.928 z" fill="#F7E1CB" />
<path id="Shape-50" d="M319.396,69.187 C320.300,69.379 320.193,70.362 319.506,71.134 C318.038,72.439 315.407,71.856 315.407,71.856 C315.407,71.856 319.331,70.900 319.396,69.187 z" fill="#F6CCB2" />
<path id="Shape-47" d="M310.526,54.552 C310.526,54.552 310.613,56.093 311.864,56.673 C313.115,57.253 315.152,54.532 319.349,55.514 C316.056,54.725 312.717,58.822 312.717,58.822 L311.462,58.161 L310.526,54.552 z" fill="#F6CCB2" />
<path id="Shape-48" d="M311.884,61.312 L313.632,66.341 C313.632,66.341 317.020,61.670 321.665,61.975 C319.725,60.702 315.727,63.209 314.180,63.135 C312.633,63.060 311.884,61.312 311.884,61.312 z" fill="#F6CCB2" />
<path id="Shape-49" d="M314.233,69.829 C317.035,71.990 318.694,68.428 319.396,69.187 C319.538,69.058 319.800,69.845 319.680,69.903 C319.659,70.962 319.277,71.391 318.563,71.676 C315.707,72.182 313.122,71.724 314.233,69.829 z" fill="#F6CCB2" />
<path id="Shape-51" d="M315.139,66.796 C315.424,68.012 316.922,67.873 317.883,66.800 C319.688,63.535 320.976,64.427 320.767,63.581 C320.297,61.947 316.308,64.639 316.308,64.639 C316.308,64.639 314.855,65.579 315.139,66.796 z" fill="#FDF3E9" />
<path id="Shape-56" d="M305.259,69.016 C303.605,72.773 315.789,84.289 325.028,73.994 C315.646,81.773 304.775,73.358 305.259,69.016 z" fill="#E4A89B" />
<path id="Shape-57" d="M321.889,48.776 C321.889,48.776 332.776,56.051 327.609,67.986 C329.828,55.608 321.889,48.776 321.889,48.776 z" fill="#E4A89B" />
<path id="Shape-58" d="M298.937,34.943 C303.646,31.012 309.132,35.400 308.273,44.912 C307.447,31.467 300.750,33.619 298.937,34.943 z" fill="#E4A89B" />
<path id="Shape-59" d="M298.736,35.688 C296.790,37.874 299.944,43.006 300.636,43.394 C299.500,41.627 297.865,37.508 298.736,35.688 z" fill="#E4A89B" />
<path id="Shape-44-copy-2" d="M323.379,62.078 C318.921,60.785 313.045,64.460 313.128,67.680 C313.159,69.412 313.602,71.680 315.248,72.075 C316.895,72.469 319.669,71.523 319.445,69.724 C318.759,71.229 316.769,71.392 315.460,70.856 C314.150,70.320 314.116,68.507 314.116,67.513 C314.052,64.787 319.524,61.402 323.379,62.078 z" fill="#E4A89B" />
<path id="Shape-44" d="M318.936,47.736 C314.664,47.771 309.313,51.560 309.696,55.445 C310.079,59.330 312.007,59.271 312.007,59.271 C312.007,59.271 312.830,59.852 312.996,59.103 C313.303,59.860 311.140,58.996 310.685,55.277 C310.230,51.559 314.271,48.413 318.936,47.736 z" fill="#E4A89B" />
<path id="Shape-44-copy" d="M320.563,55.401 C315.405,54.636 311.224,58.133 311.554,61.421 C311.600,63.992 313.380,66.274 313.380,66.274 C313.380,66.274 314.203,66.856 314.368,66.106 C314.675,66.864 312.542,62.843 312.543,61.253 C312.335,58.862 314.561,55.499 320.563,55.401 z" fill="#E4A89B" />
<path id="Shape-45" d="M315.072,52.111 C315.578,49.391 320.196,50.419 320.175,48.629 C320.215,47.894 316.874,47.678 314.362,49.205 C312.201,50.283 311.441,51.742 311.273,53.048 C310.981,55.344 314.711,55.921 315.072,52.111 z" fill="#FDF3E9" />
<path id="Shape-45-copy" d="M316.014,60.116 C316.047,57.835 319.841,57.033 319.890,56.460 C319.939,55.887 317.421,55.868 315.777,56.938 C314.132,58.009 313.098,59.462 312.930,60.768 C313.038,62.960 315.944,61.748 316.014,60.116 z" fill="#FDF3E9" />
</g>
<path id="Shape-232" d="M2.283,169.212 C12.137,220.540 182.822,211.918 195.007,205.968 C201.227,202.932 195.654,130.615 225.139,126.585 C254.624,122.554 255.863,146.124 256.766,179.704 C259.290,186.676 345.438,146.777 345.438,146.777 C345.438,146.777 349.771,96.022 361.055,93.536 C372.338,91.050 369.973,119.252 372.571,119.280 C375.168,119.307 379.888,82.024 360.028,76.605 C353.640,74.863 339.673,70.825 326.673,71.825 C322.173,82.325 262.040,91.904 262.040,91.904 C262.040,91.904 279.735,57.279 268.524,52.820 C257.313,48.361 187.698,40.715 174.245,43.612 C173.603,43.750 172.906,43.956 172.159,44.224 C178.521,44.228 260.823,48.778 263.645,54.885 C266.468,60.993 253.377,91.128 249.899,92.538 C246.420,93.949 122.727,79.318 122.727,79.318 C122.727,79.318 49.074,83.752 37.699,94.919 C26.325,106.086 -7.571,117.884 2.283,169.212 z" fill="#3B3B3B" />
<path id="Shape-306" d="M265.867,54.778 C271.883,59.182 262.104,83.389 260.381,82.503 C258.658,81.616 267.494,64.779 265.867,54.778 z" fill="#5F5F5F" />
<path id="Shape-288" d="M334.918,76.341 C341.863,74.678 353.110,75.664 356.528,80.041 C359.946,84.418 266.097,115.555 259.224,110.273 C252.352,104.992 208.430,123.196 208.093,114.076 C207.755,104.956 252.429,97.613 256.736,99.828 C267.021,102.522 302.319,89.992 322.122,82.274 C328.924,79.623 333.142,76.767 334.918,76.341 z" fill="#4D4D4D" />
<path id="Shape-314" d="M342.000,79.000 C346.667,78.667 355.333,81.333 353.000,86.000 C350.667,90.667 286.333,111.333 281.000,110.000 C275.667,108.667 276.667,104.667 279.000,104.000 C294.667,102.333 337.333,79.333 342.000,79.000 z" fill="#5C5C5C" />
<path id="Shape-272" d="M28.668,130.420 C32.050,138.270 95.987,151.966 107.371,139.930 C118.754,127.895 184.933,93.995 247.293,92.915 C260.272,93.920 150.389,85.030 124.056,81.363 C97.723,77.696 25.287,122.571 28.668,130.420 z" fill="#424242" />
<path id="Shape-273" d="M12.514,114.612 C12.514,114.612 5.750,127.574 10.494,129.361 C19.978,133.368 32.350,109.622 32.350,109.622 L18.414,117.289 L12.514,114.612 z" fill="#333333" />
<path id="Shape-282" d="M2.424,139.037 C2.424,139.037 24.066,156.418 54.317,161.946 C84.568,167.473 184.638,176.340 196.364,159.099 C208.091,141.859 213.042,123.823 226.140,127.289 C200.589,124.976 200.495,195.000 195.829,205.000 C191.162,215.000 21.011,218.461 3.011,172.127 C-0.656,156.794 2.424,139.037 2.424,139.037 z" fill="#333333" />
<path id="Shape-289" d="M262.879,96.079 C262.879,96.079 256.678,146.711 261.222,167.596 C259.849,133.287 262.879,96.079 262.879,96.079 z" fill="#2E2E2E" />
<path id="Shape-290" d="M314.065,83.067 C343.472,86.416 331.621,143.159 331.621,143.159 C331.621,143.159 340.856,88.124 314.065,83.067 z" fill="#333232" />
<path id="Shape-293" d="M314.676,107.384 C318.705,108.584 328.560,104.636 328.593,101.453 C328.627,98.270 319.935,101.362 319.935,101.362 C319.935,101.362 310.647,106.184 314.676,107.384 z" fill="#4D4C4C" />
<path id="Shape-291" d="M325.130,101.416 C325.130,101.416 310.807,104.738 315.533,108.261 C320.259,111.783 332.522,98.455 325.130,101.416 z" fill="#575656" />
<path id="Shape-292" d="M316.587,104.052 C316.587,104.052 315.117,106.641 320.024,106.693 C324.930,106.745 326.139,101.548 326.139,101.548 L316.587,104.052 z" fill="#5E5D5D" />
<path id="Shape-283" d="M257.904,153.670 C258.091,152.206 258.815,121.845 231.399,121.267 C232.280,119.829 262.317,118.119 257.904,153.670 z" fill="#4A4949" />
<path id="Shape-284" d="M353.813,91.300 C339.850,101.571 340.543,118.074 338.793,119.792 C337.043,121.510 337.052,120.642 336.204,118.897 C335.357,117.152 341.077,94.638 353.813,91.300 z" fill="#363636" />
<path id="Shape-285" d="M359.017,90.486 C360.733,91.951 356.700,89.007 350.774,103.704 C348.674,111.206 348.062,116.706 345.756,116.393 C343.450,116.079 345.543,109.155 347.624,103.389 C349.705,97.623 357.300,89.021 359.017,90.486 z" fill="#575656" />
<path id="Shape-286" d="M234.844,123.040 C234.570,121.590 207.753,118.992 200.902,139.178 C199.435,141.478 203.439,144.993 206.089,140.101 C213.808,119.635 235.117,124.489 234.844,123.040 z" fill="#575656" />
<path id="Shape-274" d="M130.876,128.023 C126.980,127.982 109.982,138.656 115.055,150.430 C123.518,169.185 172.293,142.350 171.499,135.396 C169.877,124.961 142.917,135.964 142.917,135.964 C142.917,135.964 134.773,128.064 130.876,128.023 z" fill="#333333" />
<path id="Shape-275" d="M41.163,94.955 C40.264,98.129 40.811,101.029 45.429,101.078 C50.047,101.126 73.880,85.460 98.446,82.535 C82.578,81.789 42.062,91.781 41.163,94.955 z" fill="#454545" />
<path id="Shape-276" d="M44.339,96.859 C46.917,97.285 75.575,85.467 81.339,85.771 C82.052,83.201 45.871,89.695 43.610,94.212 C42.336,96.463 41.760,96.433 44.339,96.859 z" fill="#525252" />
<path id="Shape-277" d="M178.535,125.052 C181.506,124.726 182.546,119.606 203.454,107.671 C224.362,95.736 248.830,95.243 247.275,93.651 C223.541,86.022 156.150,112.661 156.150,112.661 C156.150,112.661 167.698,126.240 178.535,125.052 z" fill="#454545" />
<path id="Shape-278" d="M158.757,111.820 C158.757,111.820 147.870,117.783 162.157,117.934 C176.443,118.084 219.162,90.751 237.759,92.683 C219.184,88.581 158.757,111.820 158.757,111.820 z" fill="#595959" />
<path id="Shape-279" d="M32.150,128.721 C27.925,118.692 88.931,81.567 120.968,81.904 C132.796,82.028 148.132,85.504 162.498,86.770 C187.043,88.932 207.764,90.341 204.857,92.337 C201.949,94.332 139.200,104.958 117.195,111.383 C95.190,117.808 53.182,146.306 32.150,128.721 z" fill="#4D4D4D" />
<path id="Shape-281" d="M117.468,85.340 C96.245,85.985 30.974,116.987 38.229,127.048 C45.484,137.109 95.488,97.418 116.287,95.900 C137.086,94.382 164.562,94.951 166.768,91.068 C168.973,87.184 138.691,84.695 117.468,85.340 z" fill="#595959" />
<path id="Shape-241" d="M121.214,147.809 C104.051,132.869 159.938,102.216 177.557,114.990 C195.175,127.765 138.376,162.750 121.214,147.809 z" fill="#424242" />
<path id="Shape-303" d="M152.641,116.965 C152.641,116.965 169.156,111.062 175.208,111.994 C185.594,113.592 178.554,123.315 178.554,123.315 C178.554,123.315 160.230,136.580 155.039,136.091 C149.848,135.602 152.641,116.965 152.641,116.965 z" fill="#CFCFCC" />
<path id="Ellipse-46" d="M156.794,117.324 C160.945,118.466 163.181,123.515 161.788,128.601 C160.396,133.687 155.903,136.884 151.752,135.742 C147.601,134.600 145.365,129.551 146.758,124.465 C148.150,119.379 152.643,116.181 156.794,117.324 z" fill="#F7F7F7" />
<path id="Shape-302" d="M122.200,129.668 C116.034,139.588 120.273,148.314 132.408,147.140 C144.544,145.965 195.181,126.130 177.931,111.880 C171.181,107.130 135.392,110.272 122.200,129.668 z" fill="#FFEE5B" opacity="0.878" />
<path id="Shape-312" d="M168.000,115.000 C164.667,110.667 130.333,120.000 123.000,135.000 C120.000,140.667 134.000,144.333 138.000,135.000 C143.667,116.333 169.333,117.667 168.000,115.000 z" fill="#FFFFFF" opacity="0.349" />
<path id="Ellipse-47" d="M154.788,118.724 C157.418,118.752 159.528,120.912 159.500,123.549 C159.472,126.186 157.318,128.301 154.688,128.274 C152.058,128.246 149.948,126.086 149.976,123.449 C150.003,120.812 152.158,118.697 154.788,118.724 z" fill="#FFFFFF" opacity="0.502" />
<path id="Shape-242" d="M38.565,94.928 C34.705,91.414 3.284,114.960 13.146,124.179 C23.008,133.399 42.425,98.441 38.565,94.928 z" fill="#424242" />
<path id="Shape-303-copy" d="M28.567,102.554 L37.725,97.576 C37.725,97.576 37.762,97.428 36.414,102.189 C35.065,106.950 30.797,114.225 28.366,113.921 C25.069,113.608 28.567,102.554 28.567,102.554 z" fill="#CFCFCC" />
<path id="Ellipse-46-copy" d="M30.339,102.774 C32.975,103.505 32.664,106.722 31.779,109.981 C31.499,110.641 31.521,113.588 28.885,112.857 C27.105,113.003 24.810,110.627 25.695,107.368 C25.695,105.836 27.702,102.042 30.339,102.774 z" fill="#F7F7F7" />
<path id="Shape-242-copy" d="M37.592,95.323 C33.732,91.810 5.645,113.022 13.174,121.575 C23.035,130.795 39.952,103.837 37.592,95.323 z" fill="#FFEE5B" opacity="0.859" />
<path id="Ellipse-47-copy" d="M30.374,103.381 C31.569,103.394 32.528,104.376 32.516,105.575 C32.503,106.773 31.524,107.735 30.328,107.722 C29.133,107.709 28.174,106.728 28.186,105.529 C28.199,104.330 29.178,103.369 30.374,103.381 z" fill="#FFFFFF" opacity="0.502" />
<path id="Shape-313" d="M36.000,97.000 C33.333,94.667 22.000,105.000 21.000,109.000 C20.000,113.000 21.667,115.000 25.000,114.000 C28.333,113.000 38.667,99.333 36.000,97.000 z" fill="#FFFFFF" opacity="0.349" />
<path id="Shape-243" d="M260.272,92.920 C260.636,85.689 263.474,90.349 266.406,86.039 C271.716,75.097 298.476,83.193 298.388,91.585 C298.300,99.976 259.908,100.151 260.272,92.920 z" fill="#3B3B3B" />
<path id="Shape-300" d="M262.013,92.070 C266.568,91.250 265.900,92.979 268.912,94.747 C274.502,98.496 290.541,96.711 290.541,96.711 C290.541,96.711 279.567,100.097 265.529,96.910 C263.490,93.390 258.458,97.557 262.013,92.070 z" fill="#333333" />
<path id="Shape-299" d="M269.012,85.198 C269.608,83.468 285.275,75.819 294.943,89.812 C300.937,96.242 285.370,94.342 283.659,92.298 C275.113,81.500 268.417,86.928 269.012,85.198 z" fill="#424242" />
<path id="Shape-301" d="M278.555,83.562 C280.089,81.842 295.002,84.169 294.068,90.671 C293.175,93.266 290.577,93.239 288.873,90.616 C287.168,87.994 277.022,85.282 278.555,83.562 z" fill="#4F4F4F" />
<path id="00000000000" d="M119.254,80.149 C119.239,81.596 248.709,94.535 251.613,92.829 C254.518,91.123 266.356,63.175 264.992,55.637 C262.768,47.510 187.760,43.537 173.320,44.253 C158.901,42.944 119.269,78.702 119.254,80.149 z" fill="#D3ECF6" opacity="0.502" />
<path id="Shape-308" d="M261.111,95.533 C266.306,95.588 268.019,97.342 268.019,97.342 C268.019,97.342 289.051,101.181 298.361,94.189 C301.784,90.828 296.224,96.111 286.110,97.163 C275.996,98.214 269.749,97.089 268.032,95.624 C266.092,94.808 263.068,94.686 261.111,95.533 z" fill="#2B2B2B" />
<path id="Shape-309" d="M297.540,89.839 C297.540,89.839 293.600,80.247 275.985,80.930 C292.728,80.817 294.940,90.101 297.540,89.839 z" fill="#616060" />
<path id="Shape-305" d="M169.820,47.689 C157.670,50.166 138.913,63.426 141.921,65.628 C144.929,67.830 229.920,55.702 229.519,52.659 C229.118,49.616 181.969,45.213 169.820,47.689 z" fill="#F6FAFC" opacity="0.541" />
<path id="Shape-304" d="M197.385,144.351 C197.385,144.351 199.968,145.680 199.080,147.841 C196.856,153.461 186.046,152.045 186.074,149.441 C186.128,144.232 197.385,144.351 197.385,144.351 z" fill="#C2BCAB" />
<path id="Shape-304-copy" d="M197.852,144.070 C197.852,144.070 199.416,144.779 198.878,145.932 C197.532,148.929 190.990,148.174 191.007,146.785 C191.040,144.007 197.852,144.070 197.852,144.070 z" fill="#FFFFFF" opacity="0.502" />
<path id="Shape-266" d="M264.658,170.237 C265.488,173.718 328.973,147.906 331.593,145.763 C334.214,143.620 337.754,136.277 334.300,135.373 C330.846,134.468 333.193,141.533 328.599,143.442 C308.185,155.449 266.557,170.050 264.658,170.237 z" fill="#363636" />
<path id="Shape-268" d="M4.817,175.316 C6.531,177.071 42.967,212.182 190.742,199.846 C190.168,199.551 192.477,199.575 190.724,201.582 C171.572,211.220 30.457,207.710 4.817,175.316 z" fill="#424242" />
<path id="Shape-270" d="M19.573,171.999 C12.012,177.418 30.982,185.142 42.779,188.739 C89.433,199.069 92.109,191.573 92.115,190.994 C92.428,188.682 81.770,186.544 81.770,186.544 C81.770,186.544 27.135,166.580 19.573,171.999 z" fill="#424242" />
<path id="Shape-269" d="M17.928,164.157 C19.994,163.084 33.269,169.320 43.404,172.330 C56.258,176.146 80.015,177.221 84.570,178.856 C89.125,180.491 90.688,190.446 87.780,190.906 C52.166,192.919 19.573,178.447 17.672,175.473 C15.772,172.499 15.862,165.231 17.928,164.157 z" fill="#292828" />
<path id="Shape-271" d="M16.921,175.180 C15.255,173.180 17.061,163.869 19.637,165.922 C30.226,170.174 41.182,174.759 51.028,176.745 C68.710,180.313 82.774,179.362 84.431,180.495 C86.138,181.662 88.321,185.621 89.264,188.583 C89.552,197.411 28.921,186.180 16.921,175.180 z" fill="#2E2D2D" />
<path id="Shape-287" d="M23.473,130.366 C23.473,130.366 9.702,133.951 8.476,126.992 C6.785,123.068 4.150,134.740 6.065,138.864 C30.014,167.333 178.901,172.807 187.678,161.613 C139.263,161.032 112.704,165.404 108.593,144.524 C96.407,150.473 69.386,148.228 57.554,145.343 C25.005,137.408 23.473,130.366 23.473,130.366 z" fill="#404040" />
<path id="Shape-267" d="M192.583,189.447 C191.377,194.354 191.694,191.608 191.617,198.987 C185.442,209.775 27.417,208.546 3.970,173.571 C34.985,205.327 184.806,203.913 189.208,197.014 C190.967,194.428 190.710,189.138 192.583,189.447 z" fill="#3B3B3B" />
</g>
</g>
</svg>
