<svg version="1.1" xmlns="http://www.w3.org/2000/svg" xmlns:xlink="http://www.w3.org/1999/xlink" width="60" height="54" viewBox="0 0 60 54">
<g id="icon-money">
<g id="2">
<g id="Group-8">
<path id="Ellipse-14" d="M50.500,37.000 C51.881,37.000 53.000,38.119 53.000,39.500 C53.000,40.881 51.881,42.000 50.500,42.000 C49.119,42.000 48.000,40.881 48.000,39.500 C48.000,38.119 49.119,37.000 50.500,37.000 z" fill="#F8E05B" />
<path id="Ellipse-13" d="M50.500,42.000 C49.119,42.000 48.000,40.881 48.000,39.500 C48.000,38.119 49.119,37.000 50.500,37.000 C51.881,37.000 53.000,38.119 53.000,39.500 C53.000,40.881 51.881,42.000 50.500,42.000 zM50.500,38.000 C49.672,38.000 49.000,38.672 49.000,39.500 C49.000,40.328 49.672,41.000 50.500,41.000 C51.328,41.000 52.000,40.328 52.000,39.500 C52.000,38.672 51.328,38.000 50.500,38.000 z" fill="#F0CC04" />
</g>
<g id="Group-8-copy-2">
<path id="Ellipse-14" d="M56.500,46.000 C57.881,46.000 59.000,47.119 59.000,48.500 C59.000,49.881 57.881,51.000 56.500,51.000 C55.119,51.000 54.000,49.881 54.000,48.500 C54.000,47.119 55.119,46.000 56.500,46.000 z" fill="#F8E05B" />
<path id="Ellipse-13" d="M56.500,51.000 C55.119,51.000 54.000,49.881 54.000,48.500 C54.000,47.119 55.119,46.000 56.500,46.000 C57.881,46.000 59.000,47.119 59.000,48.500 C59.000,49.881 57.881,51.000 56.500,51.000 zM56.500,47.000 C55.672,47.000 55.000,47.672 55.000,48.500 C55.000,49.328 55.672,50.000 56.500,50.000 C57.328,50.000 58.000,49.328 58.000,48.500 C58.000,47.672 57.328,47.000 56.500,47.000 z" fill="#F0CC04" />
</g>
<g id="Group-8-copy-3">
<path id="Ellipse-14" d="M57.000,38.000 C58.105,38.000 59.000,38.895 59.000,40.000 C59.000,41.105 58.105,42.000 57.000,42.000 C55.895,42.000 55.000,41.105 55.000,40.000 C55.000,38.895 55.895,38.000 57.000,38.000 z" fill="#E5E5E5" />
<path id="Ellipse-13" d="M57.000,42.000 C55.895,42.000 55.000,41.105 55.000,40.000 C55.000,38.895 55.895,38.000 57.000,38.000 C58.105,38.000 59.000,38.895 59.000,40.000 C59.000,41.105 58.105,42.000 57.000,42.000 zM57.000,38.812 C56.344,38.812 55.812,39.344 55.812,40.000 C55.812,40.656 56.344,41.188 57.000,41.188 C57.656,41.188 58.188,40.656 58.188,40.000 C58.188,39.344 57.656,38.812 57.000,38.812 z" fill="#D7D7D7" />
</g>
<g id="Group-8-copy-4">
<path id="Ellipse-14" d="M51.000,44.000 C52.105,44.000 53.000,44.895 53.000,46.000 C53.000,47.105 52.105,48.000 51.000,48.000 C49.895,48.000 49.000,47.105 49.000,46.000 C49.000,44.895 49.895,44.000 51.000,44.000 z" fill="#E6E6E6" />
<path id="Ellipse-13" d="M51.000,48.000 C49.895,48.000 49.000,47.105 49.000,46.000 C49.000,44.895 49.895,44.000 51.000,44.000 C52.105,44.000 53.000,44.895 53.000,46.000 C53.000,47.105 52.105,48.000 51.000,48.000 zM51.000,44.812 C50.344,44.812 49.812,45.344 49.812,46.000 C49.812,46.656 50.344,47.188 51.000,47.188 C51.656,47.188 52.188,46.656 52.188,46.000 C52.188,45.344 51.656,44.812 51.000,44.812 z" fill="#D7D7D7" />
</g>
<g id="Group-8-copy">
<path id="Ellipse-14" d="M54.500,30.000 C55.881,30.000 57.000,31.119 57.000,32.500 C57.000,33.881 55.881,35.000 54.500,35.000 C53.119,35.000 52.000,33.881 52.000,32.500 C52.000,31.119 53.119,30.000 54.500,30.000 z" fill="#F8E05B" />
<path id="Ellipse-13" d="M54.500,35.000 C53.119,35.000 52.000,33.881 52.000,32.500 C52.000,31.119 53.119,30.000 54.500,30.000 C55.881,30.000 57.000,31.119 57.000,32.500 C57.000,33.881 55.881,35.000 54.500,35.000 zM54.500,31.000 C53.672,31.000 53.000,31.672 53.000,32.500 C53.000,33.328 53.672,34.000 54.500,34.000 C55.328,34.000 56.000,33.328 56.000,32.500 C56.000,31.672 55.328,31.000 54.500,31.000 z" fill="#F0CC04" />
</g>
<path id="Ellipse-12" d="M45.377,32.952 C42.904,32.334 47.088,28.527 42.758,24.819 C42.159,24.306 41.657,23.877 41.230,23.516 C35.993,30.617 25.991,43.848 22.876,45.647 C18.589,48.121 -0.105,25.513 0.318,22.003 C0.710,18.742 26.017,5.816 29.611,3.996 C32.293,1.500 36.153,0.390 39.953,1.409 C45.821,2.981 49.303,9.013 47.731,14.881 C47.140,17.086 45.919,18.954 44.314,20.343 C44.921,20.662 45.758,21.173 46.895,22.011 C49.204,26.125 54.364,22.864 54.745,25.385 C55.126,27.906 47.851,33.569 45.377,32.952 zM39.176,4.306 C36.584,3.612 33.952,4.280 32.025,5.863 C32.025,5.863 42.994,17.445 42.994,17.445 C43.840,16.525 44.487,15.396 44.833,14.104 C45.977,9.837 43.444,5.450 39.176,4.306 z" fill="#5896E3" />
<path id="Shape-110" d="M28.000,7.000 C30.333,5.000 39.000,13.333 40.000,19.000 C41.000,24.666 18.667,50.000 20.000,43.000 C32.000,20.667 25.667,9.000 28.000,7.000 z" fill="#508FDE" />
<path id="Shape-111" d="M4.000,23.000 C5.500,17.750 19.750,10.000 22.000,13.000 C24.250,16.000 19.750,38.750 18.000,40.000 C16.250,41.250 2.500,28.250 4.000,23.000 z" fill="#659FE7" />
<path id="Shape-112" d="M15.000,19.000 C10.500,17.750 5.500,21.250 6.000,25.000 C6.500,28.750 11.250,34.000 14.000,33.000 C15.354,32.508 14.708,29.409 15.196,26.242 C15.700,22.975 17.284,19.634 15.000,19.000 z" fill="#70A7EB" />
<path id="Shape-113" d="M47.000,25.000 C45.250,25.250 45.000,30.500 46.000,31.000 C47.000,31.500 50.750,28.250 51.000,27.000 C51.250,25.750 48.750,24.750 47.000,25.000 z" fill="#70A7EB" />
</g>
</g>
</svg>
