<svg version="1.1" xmlns="http://www.w3.org/2000/svg" xmlns:xlink="http://www.w3.org/1999/xlink" width="101" height="90" viewBox="0 0 101 90">
<defs>
<filter id="$100-copy-fx" filterUnits="userSpaceOnUse">
<feFlood flood-color="#000000" flood-opacity="0.100"/>
<feComposite operator="out" in2="SourceAlpha"/>
<feOffset dx="-2.12132034355965" dy="-2.12132034355965"/>
<feGaussianBlur stdDeviation="0.0" result="blur" />
<feComposite operator="in" in="blur" in2="SourceAlpha" result="maskedShadow"/>
<feBlend mode="normal" in="maskedShadow" in2="SourceGraphic" result="innerShadow"/>
</filter>
</defs>
<g id="icon-dollars">
<g id="Group-17">
<path id="Shape-220" d="M3.000,82.000 L52.000,82.000 L52.000,77.000 L3.000,77.000 L3.000,82.000 z" fill="#47A463" />
<path id="Shape-221" d="M52.000,82.000 L61.000,73.000 L61.000,68.000 L52.000,77.000 L52.000,82.000 z" fill="#3B9E59" />
<path id="Shape-220-copy" d="M3.000,77.000 L52.000,77.000 L61.000,68.000 L12.000,68.000 L3.000,77.000 z" fill="#4AB069" />
<path id="Ellipse-43" d="M29.000,70.000 C32.314,70.000 35.000,71.343 35.000,73.000 C35.000,74.657 32.314,76.000 29.000,76.000 C25.686,76.000 23.000,74.657 23.000,73.000 C23.000,71.343 25.686,70.000 29.000,70.000 z" fill="#5EB879" />
</g>
<g id="Group-17-copy">
<path id="Shape-220" d="M22.676,69.756 L70.007,82.438 L71.301,77.608 L23.971,64.926 L22.676,69.756 z" fill="#47A463" />
<path id="Shape-222" d="M24.000,67.000 L24.000,65.000 L35.000,63.000 L80.000,73.000 L71.000,82.000 L24.000,67.000 z" fill="#47A463" />
<path id="Shape-221" d="M70.007,82.438 L81.029,76.074 L82.323,71.244 L71.301,77.608 L70.007,82.438 z" fill="#3B9E59" />
<path id="Shape-220-copy" d="M23.971,64.926 L71.301,77.608 L82.323,71.244 L34.993,58.562 L23.971,64.926 z" fill="#54B070" />
<path id="Ellipse-42" d="M51.988,65.040 C54.985,65.534 57.196,67.259 56.927,68.894 C56.657,70.529 54.009,71.454 51.012,70.960 C48.015,70.466 45.804,68.741 46.073,67.106 C46.342,65.471 48.990,64.546 51.988,65.040 z" fill="#5EB879" />
</g>
<g id="Group-17-copy-2">
<path id="Shape-220" d="M42.012,58.950 L85.578,81.378 L87.867,76.932 L44.300,54.505 L42.012,58.950 z" fill="#4CA968" />
<path id="Shape-223" d="M53.849,54.217 L44.850,54.331 L43.888,57.343 L85.189,80.821 L98.099,73.656 L53.849,54.217 z" fill="#4CA968" />
<path id="Shape-221" d="M85.578,81.378 L97.699,77.495 L99.988,73.049 L87.867,76.932 L85.578,81.378 z" fill="#45A763" />
<path id="Shape-220-copy" d="M44.300,54.505 L87.867,76.932 L99.988,73.049 L56.422,50.622 L44.300,54.505 z" fill="#5FB879" />
<path id="Ellipse-41" d="M71.616,59.854 C74.563,60.858 76.519,62.943 75.985,64.512 C75.451,66.080 72.629,66.538 69.682,65.534 C66.734,64.530 64.778,62.445 65.312,60.877 C65.846,59.308 68.668,58.851 71.616,59.854 z" fill="#76C48D" />
</g>
<path id="$100-copy" d="M99.439,28.712 C98.799,30.632 97.911,32.240 96.775,33.536 C95.639,34.832 94.279,35.816 92.695,36.488 C91.111,37.160 89.391,37.496 87.535,37.496 C85.647,37.496 83.911,37.160 82.327,36.488 C80.743,35.816 79.383,34.832 78.247,33.536 C77.111,32.240 76.231,30.632 75.607,28.712 C74.983,26.792 74.671,24.600 74.671,22.136 C74.671,19.672 74.983,17.488 75.607,15.584 C76.231,13.680 77.111,12.080 78.247,10.784 C79.383,9.488 80.743,8.504 82.327,7.832 C83.911,7.160 85.647,6.824 87.535,6.824 C89.391,6.824 91.111,7.160 92.695,7.832 C94.279,8.504 95.639,9.488 96.775,10.784 C97.911,12.080 98.799,13.680 99.439,15.584 C100.079,17.488 100.399,19.672 100.399,22.136 C100.399,24.600 100.079,26.792 99.439,28.712 zM90.967,15.608 C90.151,14.072 88.991,13.304 87.487,13.304 C85.983,13.304 84.839,14.072 84.055,15.608 C83.271,17.144 82.879,19.320 82.879,22.136 C82.879,24.952 83.271,27.136 84.055,28.688 C84.839,30.240 85.983,31.016 87.487,31.016 C88.991,31.016 90.151,30.240 90.967,28.688 C91.783,27.136 92.191,24.952 92.191,22.136 C92.191,19.320 91.783,17.144 90.967,15.608 zM67.688,33.536 C66.552,34.832 65.192,35.816 63.608,36.488 C62.024,37.160 60.304,37.496 58.448,37.496 C56.560,37.496 54.824,37.160 53.240,36.488 C51.656,35.816 50.295,34.832 49.160,33.536 C48.024,32.240 47.144,30.632 46.520,28.712 C45.896,26.792 45.584,24.600 45.584,22.136 C45.584,19.672 45.896,17.488 46.520,15.584 C47.144,13.680 48.024,12.080 49.160,10.784 C50.295,9.488 51.656,8.504 53.240,7.832 C54.824,7.160 56.560,6.824 58.448,6.824 C60.304,6.824 62.024,7.160 63.608,7.832 C65.192,8.504 66.552,9.488 67.688,10.784 C68.823,12.080 69.712,13.680 70.352,15.584 C70.992,17.488 71.312,19.672 71.312,22.136 C71.312,24.600 70.992,26.792 70.352,28.712 C69.712,30.632 68.823,32.240 67.688,33.536 zM61.880,15.608 C61.064,14.072 59.904,13.304 58.400,13.304 C56.896,13.304 55.752,14.072 54.968,15.608 C54.183,17.144 53.792,19.320 53.792,22.136 C53.792,24.952 54.183,27.136 54.968,28.688 C55.752,30.240 56.896,31.016 58.400,31.016 C59.904,31.016 61.064,30.240 61.880,28.688 C62.696,27.136 63.104,24.952 63.104,22.136 C63.104,19.320 62.696,17.144 61.880,15.608 zM36.993,37.112 C36.288,37.112 35.656,37.064 35.096,36.968 C34.536,36.872 34.064,36.680 33.680,36.392 C33.297,36.104 33.000,35.712 32.793,35.216 C32.584,34.720 32.480,34.072 32.480,33.272 C32.480,33.272 32.480,15.320 32.480,15.320 C32.480,15.320 27.680,16.808 27.680,16.808 C27.200,16.488 26.721,16.040 26.240,15.464 C25.760,14.887 25.520,14.088 25.520,13.064 C25.520,11.144 26.688,9.800 29.024,9.032 C29.024,9.032 34.400,7.208 34.400,7.208 C34.400,7.208 36.176,7.208 36.176,7.208 C37.552,7.208 38.640,7.608 39.441,8.408 C40.240,9.208 40.640,10.296 40.640,11.671 C40.640,11.671 40.640,36.680 40.640,36.680 C40.288,36.743 39.768,36.831 39.080,36.944 C38.392,37.055 37.696,37.112 36.993,37.112 zM11.217,17.816 C11.217,17.816 13.761,18.632 13.761,18.632 C16.769,19.592 19.081,20.816 20.697,22.304 C22.313,23.792 23.121,25.816 23.121,28.375 C23.121,30.552 22.433,32.400 21.057,33.920 C19.681,35.440 17.665,36.472 15.009,37.016 C15.009,37.016 15.009,40.856 15.009,40.856 C14.721,40.919 14.273,41.000 13.665,41.096 C13.057,41.192 12.433,41.240 11.793,41.240 C10.545,41.240 9.569,41.024 8.865,40.592 C8.161,40.160 7.809,39.239 7.809,37.832 C7.809,37.832 7.809,37.352 7.809,37.352 C6.657,37.223 5.609,37.016 4.665,36.728 C3.721,36.440 2.905,36.072 2.217,35.624 C1.529,35.176 0.993,34.648 0.609,34.040 C0.225,33.432 0.033,32.743 0.033,31.976 C0.033,31.048 0.305,30.256 0.849,29.600 C1.393,28.944 1.985,28.440 2.625,28.087 C3.521,28.792 4.617,29.400 5.913,29.912 C7.209,30.424 8.625,30.680 10.161,30.680 C11.729,30.680 12.833,30.440 13.473,29.960 C14.113,29.480 14.433,28.920 14.433,28.280 C14.433,27.640 14.177,27.152 13.665,26.816 C13.153,26.480 12.433,26.152 11.505,25.832 C11.505,25.832 9.489,25.159 9.489,25.159 C8.081,24.680 6.801,24.192 5.649,23.696 C4.497,23.200 3.505,22.600 2.673,21.896 C1.841,21.192 1.193,20.352 0.729,19.376 C0.265,18.400 0.033,17.208 0.033,15.800 C0.033,13.624 0.705,11.792 2.049,10.304 C3.393,8.816 5.313,7.800 7.809,7.256 C7.809,7.256 7.809,3.368 7.809,3.368 C8.097,3.304 8.545,3.224 9.153,3.128 C9.761,3.032 10.385,2.984 11.025,2.984 C12.273,2.984 13.249,3.200 13.953,3.632 C14.657,4.064 15.009,4.984 15.009,6.392 C15.009,6.392 15.009,7.016 15.009,7.016 C16.993,7.272 18.585,7.784 19.785,8.552 C20.985,9.320 21.585,10.376 21.585,11.720 C21.585,12.552 21.393,13.264 21.009,13.856 C20.625,14.448 20.161,14.952 19.617,15.368 C18.913,14.920 17.969,14.528 16.785,14.192 C15.601,13.856 14.305,13.688 12.897,13.688 C11.457,13.688 10.401,13.888 9.729,14.288 C9.057,14.688 8.721,15.192 8.721,15.800 C8.721,16.280 8.929,16.672 9.345,16.976 C9.761,17.280 10.385,17.560 11.217,17.816 z" fill="#FFAE00" filter="url(#$100-copy-fx)" />
</g>
</svg>
