<svg version="1.1" xmlns="http://www.w3.org/2000/svg" xmlns:xlink="http://www.w3.org/1999/xlink" width="96" height="20" viewBox="0 0 96 20">
<path id="icon-epayments" d="M90.723,9.177 C90.838,9.272 90.991,9.366 91.180,9.459 C91.369,9.554 91.600,9.650 91.873,9.750 C92.324,9.927 92.707,10.101 93.022,10.272 C93.337,10.444 93.597,10.637 93.802,10.853 C94.007,11.068 94.156,11.314 94.251,11.591 C94.345,11.867 94.393,12.199 94.393,12.586 C94.393,13.415 94.101,14.043 93.519,14.468 C92.936,14.894 92.104,15.107 91.022,15.107 C90.298,15.107 89.715,15.043 89.274,14.916 C88.833,14.789 88.523,14.687 88.345,14.609 C88.345,14.609 88.676,12.934 88.676,12.934 C88.959,13.056 89.298,13.172 89.691,13.282 C90.085,13.393 90.534,13.448 91.038,13.448 C91.542,13.448 91.909,13.385 92.140,13.257 C92.371,13.130 92.487,12.912 92.487,12.602 C92.487,12.315 92.363,12.077 92.117,11.889 C91.870,11.701 91.463,11.497 90.896,11.276 C90.550,11.143 90.232,11.002 89.943,10.853 C89.654,10.703 89.405,10.529 89.195,10.330 C88.985,10.131 88.820,9.891 88.699,9.609 C88.578,9.327 88.518,8.981 88.518,8.572 C88.518,7.776 88.796,7.149 89.353,6.690 C89.909,6.231 90.665,6.002 91.621,6.002 C92.104,6.002 92.566,6.049 93.007,6.142 C93.448,6.237 93.778,6.328 93.999,6.416 C93.999,6.416 93.652,8.042 93.652,8.042 C93.442,7.942 93.175,7.851 92.849,7.768 C92.524,7.685 92.146,7.644 91.715,7.644 C91.327,7.644 91.012,7.713 90.770,7.851 C90.529,7.989 90.408,8.202 90.408,8.489 C90.408,8.633 90.432,8.760 90.479,8.871 C90.526,8.981 90.607,9.084 90.723,9.177 zM85.337,15.090 C84.749,15.090 84.258,15.007 83.864,14.841 C83.470,14.675 83.158,14.435 82.927,14.120 C82.696,13.805 82.533,13.423 82.439,12.976 C82.344,12.528 82.297,12.016 82.297,11.441 C82.297,11.441 82.297,3.928 82.297,3.928 L84.203,3.597 L84.203,6.217 L87.132,6.217 L87.132,7.892 L84.203,7.892 C84.203,7.892 84.203,11.425 84.203,11.425 C84.203,12.121 84.308,12.619 84.518,12.917 C84.728,13.216 85.085,13.365 85.589,13.365 C85.935,13.365 86.242,13.327 86.510,13.249 C86.778,13.172 86.990,13.100 87.148,13.033 C87.148,13.033 87.463,14.626 87.463,14.626 C87.242,14.725 86.953,14.827 86.597,14.933 C86.240,15.038 85.820,15.090 85.337,15.090 zM78.155,10.330 C78.155,9.866 78.126,9.471 78.068,9.144 C78.011,8.818 77.916,8.553 77.785,8.348 C77.654,8.144 77.475,7.995 77.250,7.901 C77.024,7.807 76.748,7.760 76.423,7.760 C76.181,7.760 75.929,7.776 75.667,7.809 C75.404,7.843 75.210,7.870 75.084,7.892 C75.084,7.892 75.084,14.891 75.084,14.891 L73.178,14.891 C73.178,14.891 73.178,6.499 73.178,6.499 C73.546,6.389 74.023,6.284 74.611,6.184 C75.199,6.085 75.850,6.035 76.564,6.035 C77.236,6.035 77.798,6.132 78.250,6.325 C78.701,6.519 79.061,6.789 79.328,7.138 C79.596,7.486 79.785,7.906 79.895,8.398 C80.006,8.890 80.061,9.429 80.061,10.015 C80.061,10.015 80.061,14.891 80.061,14.891 L78.155,14.891 C78.155,14.891 78.155,10.330 78.155,10.330 zM71.131,11.176 C71.131,11.176 65.697,11.176 65.697,11.176 C65.750,11.873 65.983,12.412 66.398,12.793 C66.813,13.175 67.414,13.365 68.201,13.365 C68.663,13.365 69.086,13.321 69.469,13.233 C69.852,13.144 70.154,13.050 70.375,12.951 C70.375,12.951 70.627,14.592 70.627,14.592 C70.522,14.648 70.377,14.706 70.194,14.767 C70.010,14.827 69.800,14.883 69.564,14.933 C69.327,14.982 69.073,15.024 68.800,15.057 C68.527,15.090 68.249,15.107 67.965,15.107 C67.241,15.107 66.611,14.993 66.075,14.767 C65.540,14.540 65.099,14.225 64.752,13.821 C64.406,13.418 64.148,12.942 63.981,12.395 C63.812,11.848 63.729,11.248 63.729,10.596 C63.729,9.833 63.836,9.164 64.051,8.589 C64.267,8.014 64.553,7.536 64.910,7.154 C65.267,6.773 65.676,6.485 66.138,6.292 C66.600,6.098 67.073,6.002 67.556,6.002 C68.690,6.002 69.574,6.372 70.209,7.113 C70.845,7.854 71.162,8.959 71.162,10.430 C71.162,10.541 71.160,10.665 71.154,10.803 C71.149,10.941 71.141,11.066 71.131,11.176 zM69.146,8.912 C69.073,8.664 68.965,8.448 68.824,8.265 C68.682,8.083 68.509,7.939 68.304,7.834 C68.099,7.729 67.855,7.677 67.572,7.677 C67.277,7.677 67.020,7.735 66.800,7.851 C66.579,7.967 66.393,8.119 66.241,8.307 C66.088,8.495 65.970,8.711 65.886,8.954 C65.802,9.197 65.745,9.446 65.713,9.700 C65.713,9.700 69.257,9.700 69.257,9.700 C69.257,9.424 69.220,9.161 69.146,8.912 zM59.949,10.330 C59.949,9.424 59.844,8.769 59.634,8.365 C59.424,7.961 59.020,7.760 58.421,7.760 C58.117,7.760 57.828,7.812 57.555,7.917 C57.282,8.022 57.077,8.124 56.941,8.224 C57.025,8.500 57.082,8.794 57.114,9.103 C57.145,9.413 57.161,9.744 57.161,10.098 C57.161,10.098 57.161,14.891 57.161,14.891 L55.255,14.891 C55.255,14.891 55.255,10.330 55.255,10.330 C55.255,9.424 55.148,8.769 54.933,8.365 C54.717,7.961 54.316,7.760 53.728,7.760 C53.518,7.760 53.287,7.776 53.035,7.809 C52.783,7.843 52.594,7.870 52.468,7.892 C52.468,7.892 52.468,14.891 52.468,14.891 L50.562,14.891 C50.562,14.891 50.562,6.499 50.562,6.499 C50.930,6.389 51.410,6.284 52.003,6.184 C52.596,6.085 53.224,6.035 53.885,6.035 C54.452,6.035 54.917,6.112 55.279,6.267 C55.641,6.422 55.943,6.626 56.185,6.881 C56.300,6.792 56.447,6.698 56.626,6.599 C56.804,6.499 57.004,6.408 57.224,6.325 C57.445,6.242 57.678,6.173 57.925,6.118 C58.172,6.062 58.421,6.035 58.673,6.035 C59.313,6.035 59.841,6.132 60.256,6.325 C60.671,6.519 60.996,6.789 61.233,7.138 C61.469,7.486 61.631,7.906 61.721,8.398 C61.810,8.890 61.855,9.429 61.855,10.015 C61.855,10.015 61.855,14.891 61.855,14.891 L59.949,14.891 C59.949,14.891 59.949,10.330 59.949,10.330 zM45.511,16.450 C45.291,16.804 45.044,17.097 44.770,17.329 C44.497,17.561 44.192,17.730 43.856,17.835 C43.520,17.940 43.131,17.993 42.689,17.993 C42.395,17.993 42.103,17.959 41.814,17.893 C41.525,17.827 41.307,17.755 41.160,17.677 C41.160,17.677 41.506,16.069 41.506,16.069 C41.886,16.223 42.260,16.301 42.630,16.301 C43.125,16.301 43.513,16.177 43.792,15.928 C44.072,15.679 44.317,15.295 44.528,14.775 C43.927,13.559 43.350,12.232 42.796,10.795 C42.242,9.357 41.749,7.832 41.317,6.217 C41.317,6.217 43.349,6.217 43.349,6.217 C43.454,6.681 43.583,7.185 43.736,7.726 C43.889,8.268 44.055,8.818 44.234,9.377 C44.414,9.935 44.603,10.491 44.803,11.043 C45.004,11.596 45.204,12.111 45.404,12.586 C45.739,11.602 46.052,10.554 46.345,9.443 C46.638,8.332 46.904,7.257 47.145,6.217 C47.145,6.217 49.113,6.217 49.113,6.217 C48.264,9.512 47.279,12.498 46.158,15.173 C45.948,15.671 45.732,16.096 45.511,16.450 zM36.923,15.073 C36.429,15.073 35.978,15.024 35.569,14.924 C35.159,14.825 34.810,14.665 34.521,14.443 C34.232,14.222 34.007,13.935 33.844,13.581 C33.681,13.227 33.600,12.791 33.600,12.271 C33.600,11.773 33.692,11.353 33.876,11.010 C34.059,10.668 34.309,10.388 34.624,10.173 C34.939,9.957 35.303,9.802 35.718,9.708 C36.133,9.615 36.566,9.567 37.017,9.567 C37.227,9.567 37.448,9.581 37.679,9.609 C37.910,9.636 38.157,9.683 38.419,9.750 C38.419,9.750 38.419,9.418 38.419,9.418 C38.419,9.186 38.393,8.965 38.340,8.755 C38.288,8.545 38.196,8.359 38.065,8.199 C37.933,8.039 37.760,7.915 37.545,7.826 C37.330,7.737 37.059,7.693 36.734,7.693 C36.293,7.693 35.889,7.726 35.521,7.793 C35.154,7.859 34.854,7.936 34.624,8.025 C34.624,8.025 34.387,6.400 34.387,6.400 C34.629,6.311 34.980,6.223 35.443,6.134 C35.904,6.046 36.398,6.002 36.923,6.002 C37.553,6.002 38.083,6.085 38.514,6.250 C38.944,6.416 39.288,6.648 39.545,6.947 C39.802,7.245 39.986,7.608 40.097,8.033 C40.207,8.459 40.262,8.926 40.262,9.435 C40.262,9.435 40.262,14.692 40.262,14.692 C39.968,14.758 39.524,14.839 38.931,14.933 C38.338,15.026 37.668,15.073 36.923,15.073 zM38.419,11.159 C38.314,11.126 38.162,11.093 37.962,11.060 C37.763,11.027 37.542,11.010 37.301,11.010 C37.091,11.010 36.878,11.027 36.663,11.060 C36.448,11.093 36.254,11.154 36.080,11.242 C35.907,11.331 35.768,11.455 35.663,11.616 C35.558,11.776 35.506,11.978 35.506,12.221 C35.506,12.697 35.647,13.025 35.931,13.208 C36.214,13.390 36.597,13.481 37.081,13.481 C37.668,13.481 38.115,13.448 38.419,13.382 C38.419,13.382 38.419,11.159 38.419,11.159 zM31.269,13.813 C30.964,14.211 30.584,14.521 30.127,14.742 C29.671,14.963 29.153,15.073 28.576,15.073 C28.187,15.073 27.830,15.024 27.505,14.924 C27.179,14.825 26.912,14.714 26.702,14.592 C26.702,14.592 26.702,17.959 26.702,17.959 L24.796,17.959 C24.796,17.959 24.796,6.499 24.796,6.499 C25.184,6.389 25.662,6.284 26.229,6.184 C26.796,6.085 27.395,6.035 28.025,6.035 C28.676,6.035 29.258,6.140 29.773,6.350 C30.287,6.560 30.726,6.861 31.088,7.254 C31.450,7.646 31.728,8.122 31.923,8.680 C32.117,9.238 32.214,9.866 32.214,10.562 C32.214,11.226 32.133,11.834 31.970,12.387 C31.807,12.940 31.573,13.415 31.269,13.813 zM29.686,8.506 C29.303,8.008 28.686,7.760 27.836,7.760 C27.657,7.760 27.471,7.768 27.277,7.784 C27.082,7.801 26.891,7.837 26.702,7.892 C26.702,7.892 26.702,12.851 26.702,12.851 C26.870,12.973 27.093,13.086 27.371,13.191 C27.649,13.296 27.946,13.349 28.261,13.349 C28.954,13.349 29.460,13.100 29.781,12.602 C30.101,12.105 30.261,11.436 30.261,10.596 C30.261,9.700 30.069,9.003 29.686,8.506 zM18.126,10.660 C18.126,10.660 17.908,10.660 17.908,10.660 C17.758,10.660 17.612,10.649 17.469,10.632 C17.469,10.632 17.469,10.656 17.469,10.656 L6.187,10.656 L6.187,11.313 L8.123,11.313 C8.123,11.313 8.123,11.540 8.123,11.540 C8.123,14.456 10.460,16.820 13.342,16.820 C15.185,16.820 16.802,15.850 17.731,14.390 C17.731,14.390 19.454,15.330 19.454,15.330 C18.191,17.409 15.930,18.800 13.342,18.800 C9.379,18.800 6.166,15.549 6.166,11.540 C6.166,11.540 6.166,10.656 6.166,10.656 L5.079,10.656 L5.079,11.980 L1.600,9.780 L1.600,9.560 L5.079,7.360 L5.079,8.687 L6.166,8.687 C6.166,8.687 6.166,8.460 6.166,8.460 C6.166,4.010 9.379,1.200 13.342,1.200 C17.112,1.200 20.196,4.143 20.488,7.880 C20.503,7.999 20.517,8.117 20.517,8.240 C20.517,8.265 20.511,8.288 20.510,8.313 C20.511,8.362 20.517,8.410 20.517,8.460 C20.517,8.460 20.517,8.680 20.517,8.680 C20.517,8.680 20.473,8.690 20.473,8.690 C20.264,9.811 19.294,10.660 18.126,10.660 zM13.342,3.180 C10.472,3.180 8.144,5.525 8.125,8.424 C8.125,8.424 8.125,8.031 8.125,8.031 L6.187,8.031 L6.187,8.687 C6.187,8.687 15.517,8.687 15.517,8.687 C15.517,8.685 15.516,8.682 15.516,8.680 C17.361,8.680 18.260,8.547 18.543,8.045 C18.371,5.323 16.500,3.180 13.342,3.180 z" fill="#707070" />
</svg>
