<svg xmlns="http://www.w3.org/2000/svg" xmlns:xlink="http://www.w3.org/1999/xlink" preserveAspectRatio="xMidYMid" width="22" height="17" viewBox="0 0 22 17">
  <path d="M20.500,10.000 C20.500,10.000 1.500,10.000 1.500,10.000 C0.672,10.000 -0.000,9.328 -0.000,8.500 C-0.000,7.671 0.672,7.000 1.500,7.000 C1.500,7.000 20.500,7.000 20.500,7.000 C21.328,7.000 22.000,7.671 22.000,8.500 C22.000,9.328 21.328,10.000 20.500,10.000 ZM20.500,3.000 C20.500,3.000 1.500,3.000 1.500,3.000 C0.672,3.000 -0.000,2.328 -0.000,1.500 C-0.000,0.671 0.672,-0.000 1.500,-0.000 C1.500,-0.000 20.500,-0.000 20.500,-0.000 C21.328,-0.000 22.000,0.671 22.000,1.500 C22.000,2.328 21.328,3.000 20.500,3.000 ZM1.500,14.000 C1.500,14.000 20.500,14.000 20.500,14.000 C21.328,14.000 22.000,14.671 22.000,15.500 C22.000,16.328 21.328,17.000 20.500,17.000 C20.500,17.000 1.500,17.000 1.500,17.000 C0.672,17.000 -0.000,16.328 -0.000,15.500 C-0.000,14.671 0.672,14.000 1.500,14.000 Z" id="path-1" class="cls-2" fill-rule="evenodd" fill="#31bc5c"/>
</svg>
