<svg version="1.1" xmlns="http://www.w3.org/2000/svg" xmlns:xlink="http://www.w3.org/1999/xlink" width="60" height="54" viewBox="0 0 60 54">
<g id="icon-timely">
<g id="3">
<path id="Ellipse-18-copy" d="M30.141,6.000 C41.920,6.000 51.469,15.479 51.469,27.172 C51.469,38.865 41.920,48.344 30.141,48.344 C18.361,48.344 8.812,38.865 8.812,27.172 C8.812,15.479 18.361,6.000 30.141,6.000 z" fill="#E8E8E8" />
<path id="Ellipse-18-copy-" d="M25.406,10.688 C31.947,10.688 37.250,15.955 37.250,22.453 C37.250,28.951 31.947,34.219 25.406,34.219 C18.865,34.219 13.562,28.951 13.562,22.453 C13.562,15.955 18.865,10.688 25.406,10.688 z" fill="#F2F2F2" />
<path id="Ellipse-18-copy-" d="M23.047,13.062 C26.973,13.062 30.156,16.217 30.156,20.109 C30.156,24.001 26.973,27.156 23.047,27.156 C19.120,27.156 15.938,24.001 15.938,20.109 C15.938,16.217 19.120,13.062 23.047,13.062 z" fill="#FAFAFA" />
<path id="Rectangle-3" d="M38.677,17.527 L32.751,27.711 L32.751,27.711 L31.566,29.748 L19.249,22.692 L20.434,20.655 L30.698,26.535 L36.624,16.351 L38.677,17.527 z" fill="#20731E" />
<path id="Ellipse-19" d="M30.156,23.625 C32.124,23.625 33.719,25.206 33.719,27.156 C33.719,29.107 32.124,30.687 30.156,30.687 C28.189,30.687 26.594,29.107 26.594,27.156 C26.594,25.206 28.189,23.625 30.156,23.625 z" fill="#268524" />
<path id="Ellipse-19-copy" d="M28.969,23.625 C30.280,23.625 31.344,24.681 31.344,25.984 C31.344,27.287 30.280,28.344 28.969,28.344 C27.657,28.344 26.594,27.287 26.594,25.984 C26.594,24.681 27.657,23.625 28.969,23.625 z" fill="#33A530" />
<path id="Ellipse-18" d="M30.141,50.688 C17.050,50.688 6.438,40.159 6.438,27.172 C6.438,14.185 17.050,3.656 30.141,3.656 C43.231,3.656 53.844,14.185 53.844,27.172 C53.844,40.159 43.231,50.688 30.141,50.688 zM30.156,8.344 C19.680,8.344 11.187,16.766 11.187,27.156 C11.187,37.546 19.680,45.969 30.156,45.969 C40.632,45.969 49.125,37.546 49.125,27.156 C49.125,16.766 40.632,8.344 30.156,8.344 z" fill="#333333" />
<path id="Shape-128" d="M6.444,27.165 C15.926,3.352 27.481,5.704 38.444,5.998 C34.083,1.574 18.870,5.146 15.370,8.646 C11.870,12.146 6.500,18.459 6.444,27.165 z" fill="#575757" />
<path id="Shape-128-copy" d="M53.604,27.165 C44.196,50.711 32.730,48.385 21.852,48.095 C26.470,51.949 38.474,49.920 44.724,45.420 C50.974,40.920 54.514,30.874 53.604,27.165 z" fill="#141414" />
</g>
</g>
</svg>
