<svg version="1.1" xmlns="http://www.w3.org/2000/svg" xmlns:xlink="http://www.w3.org/1999/xlink" width="20" height="20" viewBox="0 0 20 20">
<defs>
<filter id="a-fx" filterUnits="userSpaceOnUse">
<feFlood flood-color="#E19400" flood-opacity="1.000"/>
<feComposite operator="out" in2="SourceAlpha"/>
<feOffset dx="-0.70710678118655" dy="-0.70710678118655"/>
<feGaussianBlur stdDeviation="0.0" result="blur" />
<feComposite operator="in" in="blur" in2="SourceAlpha" result="maskedShadow"/>
<feBlend mode="normal" in="maskedShadow" in2="SourceGraphic" result="innerShadow"/>
</filter>
</defs>
<g id="icon-email">
<path id="a" d="M10.992,14.683 C11.420,14.548 11.777,14.391 12.063,14.211 C12.457,14.481 12.902,14.680 13.398,14.807 C13.894,14.934 14.346,14.998 14.754,14.998 C16.426,14.998 17.717,14.447 18.628,13.347 C19.539,12.246 19.994,10.693 19.994,8.686 C19.994,7.369 19.760,6.171 19.291,5.093 C18.822,4.014 18.166,3.101 17.323,2.352 C16.480,1.604 15.474,1.023 14.305,0.611 C13.136,0.200 11.852,-0.006 10.452,-0.006 C8.984,-0.006 7.614,0.234 6.343,0.713 C5.072,1.192 3.968,1.873 3.030,2.756 C2.092,3.640 1.355,4.722 0.818,6.002 C0.281,7.282 0.013,8.716 0.013,10.303 C0.013,12.041 0.291,13.523 0.849,14.751 C1.406,15.978 2.126,16.978 3.010,17.749 C3.893,18.520 4.875,19.086 5.956,19.445 C7.037,19.804 8.100,19.984 9.147,19.984 C9.759,19.984 10.268,19.939 10.676,19.849 C11.084,19.759 11.407,19.632 11.645,19.468 C11.882,19.303 12.049,19.100 12.144,18.861 C12.239,18.621 12.287,18.344 12.287,18.030 C12.287,17.820 12.249,17.596 12.175,17.356 C12.100,17.117 12.015,16.914 11.920,16.750 C11.621,16.795 11.278,16.847 10.890,16.907 C10.503,16.967 10.003,16.997 9.392,16.997 C8.508,16.997 7.696,16.843 6.955,16.536 C6.214,16.229 5.572,15.784 5.028,15.200 C4.485,14.616 4.060,13.912 3.754,13.089 C3.448,12.265 3.295,11.337 3.295,10.303 C3.295,9.240 3.469,8.256 3.815,7.350 C4.162,6.444 4.651,5.658 5.283,4.991 C5.915,4.325 6.673,3.805 7.557,3.430 C8.440,3.056 9.412,2.869 10.472,2.869 C11.383,2.869 12.222,3.011 12.990,3.295 C13.758,3.580 14.418,3.977 14.968,4.486 C15.519,4.995 15.950,5.605 16.263,6.317 C16.575,7.028 16.732,7.810 16.732,8.664 C16.732,9.682 16.555,10.509 16.202,11.146 C15.848,11.782 15.366,12.100 14.754,12.100 C14.686,12.100 14.598,12.093 14.489,12.078 C14.380,12.063 14.299,12.041 14.244,12.010 C14.244,12.010 14.673,7.967 14.673,7.967 C14.686,7.893 14.693,7.810 14.693,7.720 C14.693,7.631 14.693,7.563 14.693,7.518 C14.693,6.919 14.428,6.418 13.898,6.013 C13.463,5.669 12.953,5.407 12.369,5.227 C11.784,5.047 11.166,4.958 10.513,4.958 C9.806,4.958 9.144,5.078 8.525,5.317 C7.906,5.557 7.363,5.909 6.894,6.373 C6.425,6.837 6.055,7.410 5.783,8.091 C5.511,8.773 5.375,9.562 5.375,10.461 C5.375,11.179 5.480,11.816 5.691,12.370 C5.902,12.924 6.191,13.388 6.558,13.762 C6.925,14.137 7.359,14.418 7.862,14.605 C8.365,14.792 8.909,14.885 9.494,14.885 C10.065,14.885 10.564,14.818 10.992,14.683 zM11.125,11.674 C10.989,11.763 10.846,11.842 10.697,11.909 C10.547,11.977 10.350,12.010 10.105,12.010 C9.670,12.010 9.344,11.872 9.127,11.595 C8.909,11.318 8.800,10.932 8.800,10.438 C8.800,10.004 8.848,9.630 8.943,9.315 C9.038,9.001 9.164,8.742 9.320,8.540 C9.476,8.338 9.657,8.189 9.861,8.091 C10.065,7.994 10.275,7.945 10.493,7.945 C10.737,7.945 10.934,7.967 11.084,8.012 C11.233,8.057 11.349,8.110 11.431,8.170 C11.431,8.170 11.125,11.674 11.125,11.674 z" fill="#FFAE00" filter="url(#a-fx)" />
</g>
</svg>
