<svg version="1.1" xmlns="http://www.w3.org/2000/svg" xmlns:xlink="http://www.w3.org/1999/xlink" width="55" height="20" viewBox="0 0 55 20">
<path id="icon-paypal" d="M11.775,6.342 C11.587,5.969 11.290,5.661 10.923,5.430 C10.538,5.197 10.085,5.034 9.567,4.937 C9.039,4.843 8.431,4.800 7.725,4.793 C7.725,4.793 4.466,4.795 4.466,4.795 C4.128,4.800 3.796,5.062 3.717,5.386 C3.717,5.386 1.524,14.849 1.524,14.849 C1.445,15.170 1.657,15.438 1.996,15.438 C1.996,15.438 3.556,15.438 3.556,15.438 C3.895,15.438 4.230,15.176 4.305,14.849 C4.305,14.849 4.840,12.551 4.840,12.551 C4.912,12.231 5.246,11.964 5.588,11.964 C5.588,11.964 6.035,11.964 6.035,11.964 C7.943,11.961 9.420,11.575 10.481,10.802 C11.548,10.027 12.075,9.003 12.075,7.735 C12.074,7.180 11.982,6.714 11.775,6.342 zM8.410,9.433 C7.938,9.776 7.282,9.947 6.437,9.947 C6.437,9.947 6.056,9.947 6.056,9.947 C5.717,9.947 5.508,9.681 5.582,9.357 C5.582,9.357 6.052,7.348 6.052,7.348 C6.118,7.025 6.460,6.759 6.795,6.761 C6.795,6.761 7.306,6.757 7.306,6.757 C7.903,6.757 8.359,6.860 8.663,7.058 C8.964,7.254 9.116,7.566 9.114,7.979 C9.121,8.608 8.879,9.092 8.410,9.433 zM29.859,8.199 C29.859,8.199 23.643,18.618 23.643,18.618 C23.443,18.943 23.001,19.206 22.664,19.206 C22.664,19.206 21.048,19.208 21.048,19.208 C20.713,19.208 20.603,18.943 20.807,18.619 C20.807,18.619 22.189,16.232 22.189,16.232 C22.189,16.232 22.301,16.094 22.201,15.317 C21.989,13.908 20.928,7.922 20.928,7.922 C20.851,7.598 21.058,7.332 21.395,7.332 C21.395,7.332 22.792,7.329 22.792,7.329 C23.221,7.329 23.565,7.609 23.643,7.936 C23.643,7.936 24.338,12.088 24.338,12.088 C24.338,12.088 24.597,12.091 24.597,12.091 C24.815,11.710 27.049,7.910 27.049,7.910 C27.262,7.588 27.694,7.320 28.031,7.320 C28.031,7.320 29.532,7.324 29.901,7.320 C30.457,7.308 29.859,8.199 29.859,8.199 zM40.108,6.377 C39.913,6.002 39.621,5.699 39.249,5.462 C38.871,5.228 38.419,5.064 37.893,4.969 C37.376,4.878 36.759,4.828 36.058,4.827 C36.058,4.827 32.796,4.829 32.796,4.829 C32.455,4.835 32.129,5.096 32.051,5.417 C32.051,5.417 29.857,14.886 29.857,14.886 C29.777,15.207 29.996,15.472 30.327,15.472 C30.327,15.472 31.890,15.470 31.890,15.470 C32.222,15.472 32.562,15.207 32.639,14.886 C32.639,14.886 33.168,12.587 33.168,12.587 C33.245,12.266 33.580,11.997 33.918,12.000 C33.918,12.000 34.365,12.000 34.365,12.000 C36.275,12.000 37.755,11.611 38.822,10.839 C39.875,10.059 40.408,9.037 40.408,7.768 C40.403,7.213 40.306,6.746 40.108,6.377 zM36.743,9.473 C36.273,9.809 35.615,9.980 34.774,9.980 C34.774,9.980 34.386,9.980 34.386,9.980 C34.051,9.983 33.833,9.713 33.909,9.391 C33.909,9.391 34.381,7.385 34.381,7.385 C34.450,7.064 34.791,6.795 35.127,6.798 C35.127,6.798 35.634,6.795 35.634,6.795 C36.235,6.798 36.684,6.896 36.992,7.094 C37.296,7.293 37.441,7.603 37.446,8.016 C37.448,8.645 37.211,9.128 36.743,9.473 zM19.298,7.695 C18.709,7.366 17.780,7.201 16.509,7.201 C15.881,7.201 15.255,7.250 14.622,7.346 C14.154,7.417 14.109,7.431 13.821,7.493 C13.228,7.621 13.135,8.208 13.135,8.208 C13.135,8.208 12.944,8.986 12.944,8.986 C12.836,9.483 13.125,9.464 13.245,9.423 C13.504,9.345 13.649,9.267 14.178,9.150 C14.684,9.036 15.217,8.950 15.640,8.956 C16.264,8.956 16.741,9.021 17.059,9.154 C17.373,9.289 17.530,9.521 17.530,9.857 C17.530,9.857 17.503,10.075 17.503,10.075 C17.503,10.075 17.277,10.213 17.277,10.213 C16.392,10.268 15.752,10.349 14.976,10.461 C14.217,10.565 13.551,10.749 12.998,11.000 C12.403,11.259 11.962,11.607 11.655,12.050 C11.357,12.495 11.208,13.034 11.208,13.668 C11.208,14.263 11.424,14.754 11.843,15.135 C12.265,15.509 12.821,15.691 13.487,15.691 C13.909,15.689 14.235,15.656 14.467,15.601 C14.467,15.601 15.223,15.344 15.223,15.344 L15.863,14.990 L16.451,14.607 L16.459,14.617 L16.400,14.864 L16.397,14.873 C16.397,14.873 16.397,14.875 16.397,14.875 C16.333,15.177 16.517,15.426 16.814,15.453 C16.814,15.453 16.819,15.461 16.819,15.461 L16.847,15.461 L18.044,15.461 L18.268,15.461 C18.268,15.461 18.289,15.451 18.289,15.451 C18.600,15.416 18.893,15.168 18.960,14.873 C18.960,14.873 20.098,9.995 20.098,9.995 L20.157,9.597 C20.157,9.597 20.184,9.224 20.184,9.224 C20.190,8.535 19.888,8.022 19.298,7.695 zM16.783,13.181 C16.783,13.181 16.540,13.500 16.540,13.500 C16.540,13.500 15.926,13.815 15.926,13.815 C15.638,13.929 15.364,13.991 15.110,13.991 C14.726,13.991 14.425,13.936 14.221,13.821 C14.221,13.821 13.921,13.243 13.921,13.243 C13.921,12.927 13.993,12.680 14.149,12.488 C14.149,12.488 14.810,12.042 14.810,12.042 C15.093,11.947 15.439,11.867 15.839,11.812 C16.196,11.768 16.900,11.688 16.992,11.686 C16.992,11.686 17.100,11.874 17.100,11.874 C17.079,11.979 16.878,12.807 16.783,13.181 zM47.637,7.701 C47.045,7.372 46.116,7.207 44.849,7.207 C44.221,7.207 43.593,7.255 42.962,7.355 C42.494,7.423 42.447,7.438 42.159,7.499 C41.566,7.626 41.475,8.215 41.475,8.215 C41.475,8.215 41.284,8.992 41.284,8.992 C41.178,9.488 41.461,9.466 41.591,9.428 C41.850,9.351 41.991,9.276 42.516,9.154 C43.021,9.041 43.557,8.958 43.982,8.960 C44.603,8.960 45.080,9.027 45.398,9.160 C45.715,9.295 45.869,9.529 45.869,9.861 C45.869,9.861 45.846,10.079 45.846,10.079 C45.846,10.079 45.621,10.220 45.621,10.220 C44.728,10.273 44.088,10.353 43.319,10.465 C42.562,10.570 41.893,10.752 41.338,11.005 C40.746,11.265 40.299,11.613 39.995,12.056 C39.695,12.500 39.549,13.038 39.549,13.668 C39.549,14.268 39.763,14.758 40.186,15.137 C40.611,15.510 41.162,15.697 41.828,15.697 C42.248,15.692 42.574,15.665 42.807,15.605 C42.807,15.605 43.562,15.352 43.562,15.352 L44.205,14.999 L44.789,14.610 L44.800,14.622 L44.747,14.871 L44.740,14.875 C44.740,14.875 44.744,14.879 44.744,14.879 C44.674,15.182 44.858,15.432 45.159,15.459 C45.159,15.459 45.161,15.465 45.161,15.465 L45.189,15.465 C45.189,15.465 45.189,15.465 45.189,15.465 C45.385,15.465 46.064,15.465 46.388,15.465 C46.388,15.465 46.609,15.465 46.609,15.465 C46.609,15.465 46.631,15.457 46.631,15.457 C46.940,15.420 47.232,15.172 47.295,14.875 C47.295,14.875 48.437,10.001 48.437,10.001 L48.496,9.601 C48.496,9.601 48.529,9.227 48.529,9.227 C48.529,8.539 48.233,8.029 47.637,7.701 zM45.127,13.188 C45.127,13.188 44.875,13.509 44.875,13.509 C44.875,13.509 44.265,13.822 44.265,13.822 C43.977,13.936 43.702,13.997 43.453,13.997 C43.058,13.997 42.763,13.942 42.565,13.828 C42.565,13.828 42.261,13.251 42.261,13.251 C42.261,12.935 42.336,12.689 42.485,12.495 C42.636,12.310 42.867,12.161 43.153,12.050 C43.433,11.955 43.778,11.879 44.181,11.821 C44.535,11.776 45.237,11.695 45.328,11.694 C45.328,11.694 45.437,11.883 45.437,11.883 C45.422,11.987 45.220,12.812 45.127,13.188 zM53.489,5.493 C53.489,5.493 53.492,5.494 53.492,5.494 L51.404,14.875 C51.404,14.875 51.328,14.988 51.328,14.988 C51.206,15.251 50.941,15.466 50.656,15.466 C50.656,15.466 49.204,15.466 49.204,15.466 C49.204,15.466 49.181,15.434 49.181,15.434 C48.903,15.392 48.722,15.172 48.789,14.884 C48.789,14.884 48.787,14.875 48.787,14.875 L48.849,14.605 L50.803,5.804 L50.873,5.498 C50.873,5.498 50.951,5.379 50.951,5.379 C51.077,5.120 51.335,4.909 51.621,4.909 C51.621,4.909 53.019,4.909 53.019,4.909 C53.356,4.907 53.559,5.170 53.489,5.493 z" fill="#707070" />
</svg>
