<svg version="1.1" xmlns="http://www.w3.org/2000/svg" xmlns:xlink="http://www.w3.org/1999/xlink" width="60" height="54" viewBox="0 0 60 54">
<g id="icon-flower">
<g id="1">
<path id="Ellipse-17-copy" d="M39.000,26.196 C36.933,27.389 34.118,26.245 32.701,25.511 C32.701,25.511 33.000,30.000 33.000,30.000 L29.000,30.000 C29.000,30.000 29.294,25.586 29.294,25.586 C28.117,26.221 24.753,27.794 22.372,26.496 C19.441,24.898 14.512,21.967 15.023,16.663 C16.555,14.493 14.713,18.402 23.394,18.402 C27.215,18.402 28.896,19.748 29.583,21.254 C29.583,21.254 30.000,15.000 30.000,15.000 L32.000,15.000 C32.000,15.000 32.336,20.041 32.336,20.041 C33.185,18.795 34.847,17.804 38.000,17.804 C46.500,17.804 44.696,13.750 46.196,16.000 C46.696,21.500 41.870,24.539 39.000,26.196 z" fill="#29A537" />
<path id="Shape-116" d="M32.000,22.000 C32.400,19.600 31.667,17.333 37.000,18.000 C42.333,18.666 46.200,13.200 46.000,16.000 C45.800,18.800 40.200,23.400 38.000,24.000 C35.800,24.600 31.600,24.400 32.000,22.000 z" fill="#34B643" />
<path id="Shape-117" d="M15.000,16.000 C15.000,16.000 17.400,22.400 22.000,24.000 C26.600,25.600 30.000,22.000 30.000,22.000 C30.000,22.000 25.667,17.000 22.000,18.000 C18.333,19.000 15.000,16.000 15.000,16.000 z" fill="#34B643" />
<path id="Shape-114" d="M17.373,35.221 C17.373,48.564 18.311,54.000 30.500,54.000 C42.689,54.000 43.158,51.529 43.627,35.221 C24.874,35.221 27.687,33.244 17.373,35.221 z" fill="#C06642" />
<path id="Shape-115" d="M18.296,36.247 C18.296,40.390 38.685,42.461 41.555,40.981 C44.426,39.502 41.555,35.064 41.555,35.064 C41.555,35.064 18.296,32.105 18.296,36.247 z" fill="#B25834" />
<path id="Rectangle-2" d="M16.436,29.291 C18.780,27.314 43.158,27.808 44.564,29.291 C45.971,30.774 46.908,34.727 44.564,37.198 C42.220,39.669 17.842,37.692 16.436,37.198 C15.029,36.703 14.092,31.268 16.436,29.291 z" fill="#CC6D47" />
<path id="Shape-118" d="M17.296,31.513 C16.148,33.880 17.296,36.247 17.296,36.247 C17.540,36.346 21.636,37.867 23.509,34.398 C29.776,31.614 37.226,33.844 36.815,31.513 C36.241,28.259 18.444,29.146 17.296,31.513 z" fill="#D57853" />
<path id="Shape-119" d="M19.592,44.532 C19.592,54.237 32.681,52.580 34.518,51.633 C36.355,50.686 27.630,48.319 26.481,46.899 C25.333,45.479 19.592,34.827 19.592,44.532 z" fill="#CB714D" />
<path id="Ellipse-16" d="M31.000,1.000 C35.418,1.000 39.000,4.582 39.000,9.000 C39.000,13.418 35.418,17.000 31.000,17.000 C26.582,17.000 23.000,13.418 23.000,9.000 C23.000,4.582 26.582,1.000 31.000,1.000 z" fill="#FBDF45" />
<path id="Ellipse-16-copy" d="M29.000,2.000 C31.761,2.000 34.000,4.239 34.000,7.000 C34.000,9.761 31.761,12.000 29.000,12.000 C26.239,12.000 24.000,9.761 24.000,7.000 C24.000,4.239 26.239,2.000 29.000,2.000 z" fill="#FFE971" />
<path id="Ellipse-16-copy-" d="M28.000,3.000 C29.657,3.000 31.000,4.343 31.000,6.000 C31.000,7.657 29.657,9.000 28.000,9.000 C26.343,9.000 25.000,7.657 25.000,6.000 C25.000,4.343 26.343,3.000 28.000,3.000 z" fill="#FFEF94" />
<path id="Ellipse-15" d="M31.000,18.000 C26.029,18.000 22.000,13.971 22.000,9.000 C22.000,4.029 26.029,-0.000 31.000,-0.000 C35.971,-0.000 40.000,4.029 40.000,9.000 C40.000,13.971 35.971,18.000 31.000,18.000 zM31.000,2.000 C27.134,2.000 24.000,5.134 24.000,9.000 C24.000,12.866 27.134,16.000 31.000,16.000 C34.866,16.000 38.000,12.866 38.000,9.000 C38.000,5.134 34.866,2.000 31.000,2.000 z" fill="#F4C300" />
<path id="$" d="M30.978,9.960 C31.219,10.043 31.406,10.129 31.538,10.217 C31.671,10.304 31.738,10.432 31.738,10.600 C31.738,10.767 31.655,10.913 31.489,11.039 C31.323,11.164 31.036,11.227 30.630,11.227 C30.232,11.227 29.865,11.160 29.529,11.026 C29.193,10.892 28.908,10.733 28.676,10.549 C28.510,10.641 28.357,10.773 28.216,10.945 C28.075,11.116 28.004,11.323 28.004,11.566 C28.004,11.767 28.054,11.947 28.154,12.105 C28.253,12.264 28.392,12.402 28.571,12.520 C28.749,12.637 28.960,12.733 29.205,12.808 C29.450,12.883 29.722,12.938 30.020,12.971 C30.020,12.971 30.020,13.097 30.020,13.097 C30.020,13.465 30.111,13.705 30.294,13.818 C30.476,13.931 30.730,13.988 31.053,13.988 C31.219,13.988 31.381,13.975 31.538,13.950 C31.696,13.925 31.812,13.904 31.887,13.887 C31.887,13.887 31.887,12.883 31.887,12.883 C32.575,12.741 33.098,12.471 33.455,12.074 C33.812,11.677 33.990,11.194 33.990,10.625 C33.990,9.955 33.780,9.426 33.362,9.037 C32.942,8.648 32.343,8.328 31.563,8.077 C31.563,8.077 30.904,7.864 30.904,7.864 C30.688,7.797 30.526,7.724 30.418,7.644 C30.311,7.565 30.257,7.462 30.257,7.337 C30.257,7.178 30.344,7.046 30.518,6.941 C30.692,6.837 30.966,6.785 31.339,6.785 C31.704,6.785 32.040,6.829 32.347,6.916 C32.654,7.004 32.899,7.107 33.082,7.224 C33.223,7.115 33.343,6.983 33.442,6.829 C33.542,6.674 33.592,6.488 33.592,6.270 C33.592,5.919 33.436,5.643 33.125,5.442 C32.814,5.241 32.401,5.107 31.887,5.040 C31.887,5.040 31.887,4.877 31.887,4.877 C31.887,4.509 31.796,4.269 31.613,4.156 C31.430,4.043 31.178,3.986 30.854,3.986 C30.688,3.986 30.526,3.999 30.369,4.024 C30.211,4.049 30.095,4.070 30.020,4.087 C30.020,4.087 30.020,5.103 30.020,5.103 C29.373,5.245 28.875,5.511 28.527,5.900 C28.178,6.289 28.004,6.768 28.004,7.337 C28.004,7.705 28.064,8.017 28.185,8.272 C28.305,8.527 28.473,8.747 28.689,8.931 C28.904,9.115 29.162,9.272 29.460,9.401 C29.759,9.531 30.091,9.658 30.456,9.784 C30.456,9.784 30.978,9.960 30.978,9.960 z" fill="#DFB201" />
</g>
</g>
</svg>
