<svg version="1.1" xmlns="http://www.w3.org/2000/svg" xmlns:xlink="http://www.w3.org/1999/xlink" width="160" height="195" viewBox="0 0 160 195">
<defs>
<filter id="Ellipse-6-fx" filterUnits="userSpaceOnUse">
<feFlood flood-color="#303030" flood-opacity="1.000"/>
<feComposite operator="out" in2="SourceAlpha"/>
<feOffset dx="0" dy="-2"/>
<feGaussianBlur stdDeviation="0.0" result="blur" />
<feComposite operator="in" in="blur" in2="SourceAlpha" result="maskedShadow"/>
<feBlend mode="normal" in="maskedShadow" in2="SourceGraphic" result="innerShadow"/>
</filter>
</defs>
<g id="icon-radish">
<path id="shadow" d="M54.000,166.000 C78.853,166.000 99.000,169.582 99.000,174.000 C99.000,178.418 78.853,182.000 54.000,182.000 C29.147,182.000 9.000,178.418 9.000,174.000 C9.000,169.582 29.147,166.000 54.000,166.000 z" fill="#000000" opacity="0.051" />
<g id="radish">
<g id="green">
<path id="Shape-226" d="M57.481,59.212 C53.812,57.459 58.936,30.063 63.297,25.734 C67.848,21.216 62.151,16.212 65.457,12.992 C68.818,9.719 74.282,15.324 74.282,15.324 C74.282,15.324 75.657,11.902 77.735,10.048 C79.833,8.177 81.671,6.045 84.370,10.521 C87.009,14.898 89.179,10.470 92.066,11.939 C94.932,13.397 98.010,14.518 98.480,18.627 C98.940,22.650 92.823,22.967 92.823,22.967 C92.823,22.967 93.781,26.287 90.682,27.122 C87.596,27.952 88.295,24.615 86.062,24.217 C83.824,23.819 87.379,28.257 85.046,29.211 C82.724,30.162 78.613,27.740 78.613,27.740 C78.613,27.740 79.209,31.065 77.291,33.236 C75.395,35.383 71.196,30.517 68.669,32.100 C58.472,36.934 61.032,60.909 57.481,59.212 z" fill="#669C4D" />
<path id="Shape-78" d="M50.968,57.512 C55.490,64.139 49.447,32.440 43.820,27.778 C37.886,22.861 25.095,28.870 24.882,36.499 C24.687,43.491 40.518,20.832 50.968,57.512 z" fill="#669C4D" />
<path id="Shape-79" d="M26.780,31.708 C25.947,38.374 28.151,31.250 31.444,32.056 C40.071,28.288 50.149,39.317 43.728,28.361 C41.894,27.430 27.613,25.041 26.780,31.708 z" fill="#609149" />
<path id="Shape-224" d="M55.193,58.847 C49.045,56.675 57.944,27.933 64.343,22.457 C78.308,11.434 95.002,14.010 108.545,24.279 C121.404,34.029 117.590,55.071 115.783,58.757 C114.013,62.367 111.189,64.583 106.002,64.521 C100.814,64.460 99.259,61.123 99.197,58.286 C99.135,55.402 101.370,52.357 99.437,51.628 C97.497,50.896 95.494,54.525 92.922,52.113 C90.316,49.668 93.912,47.557 92.689,46.090 C91.456,44.611 88.466,47.489 84.824,45.115 C81.134,42.710 82.750,43.323 83.156,37.314 C83.574,31.106 75.637,20.782 68.892,26.439 C52.963,42.654 61.116,60.939 55.193,58.847 z" fill="#8BBD74" />
<path id="Shape-231" d="M104.483,64.476 C102.483,64.681 98.825,59.839 98.825,59.839 C98.825,59.839 98.955,53.196 100.104,51.558 C104.225,52.745 99.058,61.405 104.483,64.476 zM91.793,50.857 C90.959,49.024 93.052,44.266 93.052,44.266 C93.052,44.266 93.933,50.662 95.758,52.449 C97.565,54.218 92.626,52.691 91.793,50.857 zM85.167,45.193 C80.222,45.700 82.850,40.382 82.618,35.486 C82.428,31.472 79.004,27.741 79.004,27.741 C79.004,27.741 84.358,29.427 84.999,33.741 C85.626,37.958 81.831,42.709 85.167,45.193 z" fill="#7CAE64" />
<path id="Shape-228" d="M93.093,16.827 C93.093,16.827 84.123,13.616 83.025,19.804 C82.045,25.335 108.773,55.481 115.497,39.219 C119.946,24.919 93.093,16.827 93.093,16.827 z" fill="#93C37D" />
<path id="Shape-73" d="M51.038,66.954 C55.466,33.042 36.815,22.077 33.074,27.092 C29.527,31.849 23.900,20.075 23.286,26.951 C17.153,29.014 18.872,24.436 14.095,23.542 C9.295,22.644 -0.448,37.653 0.750,13.172 C2.445,-3.762 33.768,-0.396 47.432,16.175 C53.779,22.680 61.134,46.858 51.038,66.954 z" fill="#81AD6C" />
<path id="Shape-74" d="M58.811,57.202 C58.811,57.202 52.738,18.332 41.971,17.804 C30.920,17.261 16.395,17.920 14.795,9.320 C13.195,0.720 23.642,1.607 39.642,8.607 C55.642,15.607 58.811,57.202 58.811,57.202 z" fill="#88B573" />
<path id="Shape-76" d="M42.212,29.691 C33.832,24.998 33.605,28.691 33.605,28.691 C33.605,28.691 30.431,27.913 32.124,24.131 C33.852,20.272 43.480,24.845 43.480,24.845 C43.480,24.845 52.886,29.310 53.075,42.236 C53.250,54.313 48.332,36.761 42.212,29.691 zM24.457,24.120 L21.947,26.562 C21.947,26.562 21.468,25.839 22.440,23.113 C23.427,20.348 24.937,19.107 27.385,23.185 C29.782,27.180 24.457,24.120 24.457,24.120 zM6.165,21.540 C10.049,15.813 14.238,22.767 14.238,22.767 L7.621,25.373 C7.621,25.373 2.392,27.103 6.165,21.540 z" fill="#75A35F" />
<path id="Shape-227" d="M56.453,58.121 C60.118,65.428 53.900,60.771 53.900,60.771 C53.900,60.771 57.931,65.728 54.502,58.434 C50.924,50.824 56.491,35.897 55.719,34.845 C54.927,33.780 52.666,31.807 51.329,29.707 C50.643,28.644 50.184,27.544 50.043,26.461 C49.971,25.918 49.975,25.377 50.057,24.846 C50.098,24.580 50.159,24.317 50.242,24.058 C50.325,23.798 50.430,23.543 50.560,23.293 C52.658,19.312 54.442,23.827 55.865,22.596 C57.172,21.342 53.733,18.706 57.089,16.121 C60.404,13.474 60.416,18.318 62.270,16.521 C64.070,14.671 60.294,14.223 64.216,12.702 C68.181,11.178 69.462,9.410 72.454,11.041 C75.411,12.639 73.217,13.976 72.866,17.672 C72.468,21.332 70.139,19.698 69.252,20.826 C68.647,22.035 73.112,22.651 71.490,25.973 C70.527,29.382 67.435,27.337 66.436,29.501 C66.109,31.767 70.350,30.823 69.267,33.922 C69.248,34.021 69.226,34.116 69.203,34.209 C69.180,34.301 69.156,34.389 69.129,34.474 C69.075,34.645 69.013,34.802 68.943,34.946 C68.802,35.235 68.626,35.474 68.407,35.669 C67.973,36.060 67.349,36.274 66.591,36.392 C65.091,36.626 63.054,36.510 62.196,36.776 C58.372,36.974 52.629,50.497 56.453,58.121 z" fill="#9AD180" />
<path id="Shape-229" d="M72.696,18.375 C72.696,18.375 69.154,19.703 66.409,16.231 C63.615,12.696 71.461,10.538 73.131,10.538 C74.801,10.538 72.696,18.375 72.696,18.375 zM70.824,27.741 C69.356,21.285 64.247,25.699 63.570,23.634 C62.886,21.548 69.917,21.496 69.917,21.496 C69.917,21.496 73.466,25.059 70.824,27.741 zM66.161,29.762 C66.161,29.762 68.908,32.354 68.708,33.754 C68.508,35.154 64.423,33.741 63.532,32.754 C62.637,31.762 66.161,29.762 66.161,29.762 z" fill="#A7DD8D" />
<path id="Shape-230" d="M59.907,25.699 C58.428,28.320 57.964,30.686 57.887,32.344 C57.021,25.060 64.487,16.418 67.360,15.150 C70.440,13.791 61.266,19.438 59.907,25.699 zM57.887,32.344 C57.943,32.816 58.031,33.283 58.160,33.741 C58.439,35.596 57.777,34.679 57.887,32.344 zM58.903,16.063 C60.702,15.063 62.618,18.872 62.618,18.872 L60.805,20.496 C60.805,20.496 57.102,17.063 58.903,16.063 zM55.193,22.306 L56.282,27.741 L53.396,22.496 L55.193,22.306 z" fill="#89C36D" />
</g>
<g id="body">
<path id="Ellipse-3" d="M61.515,56.398 C80.892,59.046 94.804,74.159 94.804,94.456 C94.804,115.615 83.088,128.061 66.744,133.764 C64.576,134.520 54.953,135.814 56.040,141.919 C55.353,146.230 55.534,147.328 49.096,143.093 C47.647,139.502 50.309,137.036 41.256,134.522 C28.944,130.213 10.794,118.493 10.794,94.456 C10.794,73.186 26.142,57.873 46.898,56.085 C50.969,53.602 60.806,53.649 61.515,56.398 z" fill="#F53D5B" />
<path id="Shape-69" d="M94.177,93.856 C93.380,102.690 93.040,128.938 54.789,135.992 C30.829,132.801 28.264,125.493 29.685,122.120 C34.728,115.155 52.461,131.743 67.769,125.290 C94.634,113.626 84.773,96.221 94.177,93.856 z" fill="#ED3251" />
<path id="Shape-68" d="M13.000,104.512 C9.800,88.511 15.691,75.782 15.691,75.782 C15.691,75.782 3.914,113.131 44.108,128.214 C67.646,137.551 81.871,121.431 83.216,121.750 C88.648,123.905 67.629,133.397 67.629,133.397 L55.420,137.000 C55.420,137.000 35.215,135.796 28.415,127.396 C21.615,118.996 16.200,120.512 13.000,104.512 z" fill="#DE2F4C" />
<path id="Shape-225" d="M43.001,134.078 C43.001,134.078 51.219,139.327 65.130,133.970 C53.240,137.014 57.909,143.053 53.309,143.253 C48.709,143.453 46.693,136.683 46.693,136.683 L43.001,134.078 z" fill="#C33E54" />
<path id="Shape-70" d="M83.092,71.116 C95.040,84.079 90.842,102.874 81.801,101.578 C72.759,100.282 74.374,86.995 67.593,82.134 C60.812,77.273 46.604,81.486 46.281,71.765 C45.958,62.043 71.145,58.154 83.092,71.116 z" fill="#F94D69" />
<path id="Shape-71" d="M59.197,67.876 C62.749,62.691 72.436,64.635 79.863,70.468 C87.290,76.301 89.551,87.643 83.092,89.912 C76.634,92.180 77.280,81.810 72.113,77.597 C66.947,73.385 55.645,73.061 59.197,67.876 z" fill="#FF607A" />
<path id="Shape-82" d="M48.486,140.746 C49.486,137.146 47.965,142.600 52.452,142.600 C54.740,144.200 55.426,138.715 55.426,141.115 C55.426,143.515 60.014,145.162 59.214,148.762 C58.014,153.762 54.749,155.782 54.119,160.047 C51.371,163.557 60.550,166.845 54.350,164.845 C44.950,162.645 53.826,154.116 53.626,149.916 C53.426,145.716 47.486,144.346 48.486,140.746 z" fill="#F8B4BF" />
<path id="Shape-84" d="M31.796,62.135 C43.746,58.543 49.902,62.494 55.696,62.853 C61.490,63.212 62.214,58.903 65.111,58.543 C65.111,57.696 59.784,56.079 52.795,56.215 C42.016,56.425 31.516,58.548 31.796,62.135 z" fill="#ED3251" />
<path id="Shape-83" d="M47.005,56.758 C50.626,56.758 51.350,58.913 54.247,59.631 C57.144,60.349 57.868,56.758 60.765,56.758 C63.662,56.758 43.384,56.758 47.005,56.758 z" fill="#DE2F4C" />
<path id="Shape-85" d="M23.554,66.444 C23.554,66.444 1.017,89.787 21.657,116.722 C32.158,131.446 43.384,133.242 45.557,134.678 C47.729,136.115 47.453,136.424 47.453,136.424 C47.453,136.424 32.569,135.951 19.036,119.595 C-2.377,82.850 23.554,66.444 23.554,66.444 z" fill="#BA223B" />
<path id="Shape-86" d="M57.868,56.758 C57.868,56.758 82.492,59.980 90.459,80.809 C98.425,101.639 85.389,120.877 85.389,120.877 C85.389,120.877 102.852,100.736 92.252,77.936 C81.652,55.136 57.868,56.758 57.868,56.758 z" fill="#C92641" />
</g>
<g id="eye">
<path id="Shape-72" d="M48.225,107.413 C46.208,108.620 49.032,113.046 51.453,113.850 C53.874,114.655 58.313,108.218 55.488,109.023 C49.032,112.241 50.243,106.206 48.225,107.413 z" fill="#F26B6B" />
<path id="Shape-72-copy" d="M79.823,107.583 C81.841,108.744 79.017,113.003 76.596,113.778 C74.175,114.552 69.736,108.357 72.561,109.132 C79.017,112.229 77.806,106.421 79.823,107.583 z" fill="#F26B6B" />
<path id="Ellipse-4" d="M52.656,104.188 C54.658,104.188 56.281,105.810 56.281,107.813 C56.281,109.815 54.658,111.437 52.656,111.437 C50.654,111.437 49.031,109.815 49.031,107.813 C49.031,105.810 50.654,104.188 52.656,104.188 z" fill="#3D3D3D" />
<path id="Ellipse-4-copy-2" d="M53.063,105.000 C54.391,105.000 55.469,106.077 55.469,107.406 C55.469,108.735 54.391,109.813 53.063,109.813 C51.734,109.813 50.656,108.735 50.656,107.406 C50.656,106.077 51.734,105.000 53.063,105.000 z" fill="#505050" />
<path id="Ellipse-4-copy" d="M76.063,104.188 C78.065,104.188 79.687,105.810 79.687,107.813 C79.687,109.815 78.065,111.437 76.063,111.437 C74.060,111.437 72.438,109.815 72.438,107.813 C72.438,105.810 74.060,104.188 76.063,104.188 z" fill="#3D3D3D" />
<path id="Ellipse-4-copy-3" d="M76.469,105.000 C77.798,105.000 78.875,106.077 78.875,107.406 C78.875,108.735 77.798,109.813 76.469,109.813 C75.140,109.813 74.062,108.735 74.062,107.406 C74.062,106.077 75.140,105.000 76.469,105.000 z" fill="#505050" />
<path id="Ellipse-5" d="M53.875,105.812 C54.324,105.812 54.688,106.169 54.688,106.609 C54.688,107.049 54.324,107.406 53.875,107.406 C53.426,107.406 53.062,107.049 53.062,106.609 C53.062,106.169 53.426,105.812 53.875,105.812 z" fill="#777777" />
<path id="Ellipse-5-copy" d="M77.266,105.812 C77.706,105.812 78.063,106.169 78.063,106.609 C78.063,107.049 77.706,107.406 77.266,107.406 C76.826,107.406 76.469,107.049 76.469,106.609 C76.469,106.169 76.826,105.812 77.266,105.812 z" fill="#777777" />
</g>
<g id="glasses">
<path id="Ellipse-7" d="M50.656,96.344 C55.558,96.344 59.531,100.310 59.531,105.203 C59.531,110.096 55.558,114.063 50.656,114.063 C45.755,114.063 41.781,110.096 41.781,105.203 C41.781,100.310 45.755,96.344 50.656,96.344 z" fill="#FFFFFF" opacity="0.102" />
<path id="Ellipse-7-copy-3" d="M53.078,96.344 C55.762,96.344 57.938,98.505 57.938,101.172 C57.938,103.838 55.762,106.000 53.078,106.000 C50.394,106.000 48.219,103.838 48.219,101.172 C48.219,98.505 50.394,96.344 53.078,96.344 z" fill="#FFFFFF" opacity="0.239" />
<path id="Ellipse-7-copy" d="M74.875,96.344 C79.777,96.344 83.750,100.310 83.750,105.203 C83.750,110.096 79.777,114.063 74.875,114.063 C69.973,114.063 66.000,110.096 66.000,105.203 C66.000,100.310 69.973,96.344 74.875,96.344 z" fill="#FFFFFF" opacity="0.102" />
<path id="Ellipse-7-copy-2" d="M77.281,96.344 C79.956,96.344 82.125,98.505 82.125,101.172 C82.125,103.838 79.956,106.000 77.281,106.000 C74.606,106.000 72.437,103.838 72.437,101.172 C72.437,98.505 74.606,96.344 77.281,96.344 z" fill="#FFFFFF" opacity="0.239" />
<path id="Ellipse-6" d="M74.844,115.656 C69.601,115.656 65.268,111.820 64.483,106.813 C64.483,106.813 60.986,106.813 60.986,106.813 C60.202,111.820 55.876,115.656 50.641,115.656 C44.850,115.656 40.156,110.969 40.156,105.188 C40.156,99.406 44.850,94.719 50.641,94.719 C55.887,94.719 60.220,98.570 60.991,103.594 C60.991,103.594 64.478,103.594 64.478,103.594 C65.250,98.570 69.590,94.719 74.844,94.719 C80.643,94.719 85.344,99.406 85.344,105.188 C85.344,110.969 80.643,115.656 74.844,115.656 zM50.656,97.125 C46.203,97.125 42.594,100.735 42.594,105.188 C42.594,109.640 46.203,113.250 50.656,113.250 C55.109,113.250 58.719,109.640 58.719,105.188 C58.719,100.735 55.109,97.125 50.656,97.125 zM74.856,97.149 C70.399,97.149 66.786,100.751 66.786,105.195 C66.786,109.639 70.399,113.241 74.856,113.241 C79.312,113.241 82.925,109.639 82.925,105.195 C82.925,100.751 79.312,97.149 74.856,97.149 z" fill="#444444" filter="url(#Ellipse-6-fx)" />
</g>
<g id="mouth">
<path id="Shape-80" d="M58.607,115.959 C66.889,114.851 72.430,119.214 70.638,122.582 C68.845,125.949 63.885,121.743 60.508,121.323 C57.132,120.904 54.496,124.166 53.387,122.747 C52.279,121.327 50.325,117.067 58.607,115.959 z" fill="#BA223B" />
<path id="Shape-81" d="M66.786,118.678 C66.786,118.678 64.365,117.873 60.330,117.873 C60.122,117.873 59.947,117.883 59.752,117.887 C59.752,117.887 60.022,116.000 60.022,116.000 C64.266,115.879 69.000,117.000 69.000,117.000 L66.786,118.678 zM57.909,117.986 C55.644,118.207 54.681,118.678 54.681,118.678 L53.874,117.264 C53.874,117.264 55.147,116.514 57.909,116.167 C57.909,116.167 57.909,117.986 57.909,117.986 z" fill="#FFFFFF" />
</g>
</g>
<g id="money">
<path id="Ellipse-8-copy" d="M115.500,169.000 C120.194,169.000 124.000,170.343 124.000,172.000 C124.000,173.657 120.194,175.000 115.500,175.000 C110.806,175.000 107.000,173.657 107.000,172.000 C107.000,170.343 110.806,169.000 115.500,169.000 z" fill="#EBBB56" />
<path id="Ellipse-8" d="M115.500,167.000 C120.194,167.000 124.000,168.343 124.000,170.000 C124.000,171.657 120.194,173.000 115.500,173.000 C110.806,173.000 107.000,171.657 107.000,170.000 C107.000,168.343 110.806,167.000 115.500,167.000 z" fill="#FBCB65" />
<path id="Ellipse-8-copy-2" d="M130.500,176.000 C135.194,176.000 139.000,177.343 139.000,179.000 C139.000,180.657 135.194,182.000 130.500,182.000 C125.806,182.000 122.000,180.657 122.000,179.000 C122.000,177.343 125.806,176.000 130.500,176.000 z" fill="#EBBB56" />
<path id="Ellipse-8-copy-2" d="M130.500,174.000 C135.194,174.000 139.000,175.343 139.000,177.000 C139.000,178.657 135.194,180.000 130.500,180.000 C125.806,180.000 122.000,178.657 122.000,177.000 C122.000,175.343 125.806,174.000 130.500,174.000 z" fill="#FBCB65" />
<path id="Ellipse-8-copy-3" d="M153.000,175.500 C156.866,175.500 160.000,176.507 160.000,177.750 C160.000,178.993 156.866,180.000 153.000,180.000 C149.134,180.000 146.000,178.993 146.000,177.750 C146.000,176.507 149.134,175.500 153.000,175.500 z" fill="#D4D4D4" />
<path id="Ellipse-8-copy-3" d="M153.000,174.000 C156.866,174.000 160.000,175.007 160.000,176.250 C160.000,177.493 156.866,178.500 153.000,178.500 C149.134,178.500 146.000,177.493 146.000,176.250 C146.000,175.007 149.134,174.000 153.000,174.000 z" fill="#E4E4E4" />
</g>
</g>
</svg>
