<svg version="1.1" xmlns="http://www.w3.org/2000/svg" xmlns:xlink="http://www.w3.org/1999/xlink" width="18" height="18" viewBox="0 0 18 18">
<path id="icon-password-re" d="M13.000,15.000 C13.000,15.000 9.000,15.000 9.000,15.000 C7.343,15.000 6.000,13.657 6.000,12.000 C6.000,12.000 6.000,10.000 6.000,10.000 C6.000,8.696 6.837,7.597 8.000,7.184 C8.000,7.184 8.000,5.000 8.000,5.000 L10.000,5.000 L10.000,7.000 L12.000,7.000 L12.000,5.000 L14.000,5.000 C14.000,5.000 14.000,7.184 14.000,7.184 C15.163,7.597 16.000,8.696 16.000,10.000 C16.000,10.000 16.000,12.000 16.000,12.000 C16.000,13.657 14.657,15.000 13.000,15.000 zM11.000,4.000 C10.448,4.000 10.000,4.448 10.000,5.000 C9.448,5.000 8.727,5.000 8.000,5.000 C8.000,3.343 9.343,2.000 11.000,2.000 C12.657,2.000 14.000,3.343 14.000,5.000 C13.084,5.000 12.448,5.000 12.000,5.000 C12.000,4.448 11.552,4.000 11.000,4.000 z" fill="#8F8F8F" />
</svg>
