<svg version="1.1" xmlns="http://www.w3.org/2000/svg" xmlns:xlink="http://www.w3.org/1999/xlink" width="18" height="18" viewBox="0 0 18 18">
<path id="icon-login-reg" d="M6.000,15.000 C6.000,15.000 6.000,11.000 6.000,11.000 C6.000,9.343 7.343,8.000 9.000,8.000 C9.000,8.000 10.999,8.000 10.999,8.000 C9.343,7.999 8.000,6.657 8.000,5.000 C8.000,3.343 9.343,2.000 11.000,2.000 C12.657,2.000 14.000,3.343 14.000,5.000 C14.000,6.657 12.657,7.999 11.001,8.000 C11.001,8.000 13.000,8.000 13.000,8.000 C14.657,8.000 16.000,9.343 16.000,11.000 C16.000,11.000 16.000,15.000 16.000,15.000 C6.600,15.000 11.800,15.000 6.000,15.000 z" fill="#8F8F8F" />
</svg>
