<svg version="1.1" xmlns="http://www.w3.org/2000/svg" xmlns:xlink="http://www.w3.org/1999/xlink" width="101" height="20" viewBox="0 0 101 20">
<path id="icon-webmoney" d="M18.480,6.955 C16.076,6.955 14.841,8.760 14.841,11.254 C14.841,13.846 15.950,15.552 18.641,15.552 C19.793,15.552 20.756,15.225 21.477,14.795 C21.477,14.795 21.477,13.551 21.477,13.551 C20.595,14.089 19.793,14.404 18.929,14.404 C17.280,14.404 16.493,13.533 16.493,11.564 C16.493,11.564 21.717,11.564 21.717,11.564 C21.717,11.564 21.717,10.959 21.717,10.959 C21.719,8.282 20.485,6.955 18.480,6.955 zM16.525,10.465 C16.701,8.825 17.456,8.054 18.433,8.054 C19.299,8.054 20.117,8.742 20.196,10.465 C20.196,10.465 16.525,10.465 16.525,10.465 zM27.008,6.955 C26.142,6.955 25.325,7.299 24.842,7.562 C24.842,7.562 24.842,2.885 24.842,2.885 L23.175,3.295 C23.175,3.295 23.175,14.748 23.175,14.748 C24.138,15.274 25.451,15.552 26.303,15.552 C28.628,15.552 30.069,14.059 30.069,10.989 C30.069,8.365 28.996,6.955 27.008,6.955 zM26.303,14.404 C25.901,14.404 25.342,14.371 24.829,14.141 C24.829,14.141 24.829,8.775 24.829,8.775 C25.471,8.413 25.936,8.234 26.575,8.234 C27.648,8.234 28.388,8.906 28.388,10.989 C28.388,13.649 27.490,14.404 26.303,14.404 zM60.191,9.416 C60.191,9.416 60.191,15.355 60.191,15.355 L58.524,15.355 C58.524,15.355 58.524,9.790 58.524,9.790 C58.524,8.495 57.902,8.265 57.081,8.265 C56.439,8.265 55.622,8.560 55.125,8.856 C55.125,8.856 55.125,15.351 55.125,15.351 L53.460,15.351 C53.460,15.351 53.460,8.165 53.460,8.165 C54.180,7.724 55.703,6.953 57.546,6.953 C59.470,6.955 60.191,7.726 60.191,9.416 zM40.876,3.721 L42.863,3.721 L42.863,15.355 L41.132,15.355 L41.132,6.918 L40.989,6.918 L37.719,15.355 L36.694,15.355 L33.423,7.118 L33.280,7.118 L33.280,15.355 L31.839,15.355 L31.839,3.721 L33.776,3.721 L37.368,12.892 L37.449,12.892 L40.876,3.721 zM48.281,6.955 C46.165,6.955 44.626,8.383 44.626,11.254 C44.626,14.059 46.087,15.552 48.281,15.552 C50.478,15.552 51.937,14.059 51.937,11.254 C51.937,8.380 50.396,6.955 48.281,6.955 zM48.281,14.404 C47.143,14.404 46.309,13.503 46.309,11.254 C46.309,9.040 47.224,8.105 48.281,8.105 C49.372,8.105 50.253,9.040 50.253,11.254 C50.253,13.503 49.419,14.404 48.281,14.404 zM94.283,15.583 C94.283,15.583 96.148,17.701 96.148,17.701 C95.777,17.987 95.373,18.257 94.928,18.506 C93.580,19.270 92.017,19.709 90.360,19.709 C85.256,19.709 81.091,15.569 81.091,10.496 C81.091,5.422 85.256,1.283 90.360,1.283 C91.814,1.283 93.193,1.620 94.421,2.217 C94.613,2.309 94.806,2.409 94.997,2.519 C94.997,2.519 94.144,3.278 94.144,3.278 L92.863,1.961 L90.700,3.880 L89.419,2.485 L85.385,6.095 L87.969,8.927 L86.953,9.814 L89.498,12.649 L88.488,13.535 L92.126,17.559 L94.283,15.583 zM98.706,9.867 L99.698,10.963 L98.596,11.949 L97.604,10.853 L98.706,9.867 zM74.794,7.231 L76.509,7.231 C76.509,7.231 73.610,15.436 73.610,15.436 C72.808,17.703 71.830,18.883 69.990,18.883 C69.990,18.883 69.990,17.540 69.990,17.540 C71.080,17.540 71.751,16.655 72.137,15.441 C72.137,15.441 69.060,7.233 69.060,7.233 L70.823,7.233 L72.875,13.272 L72.971,13.272 L74.794,7.231 zM65.321,6.955 C62.915,6.955 61.682,8.760 61.682,11.254 C61.682,13.846 62.787,15.552 65.480,15.552 C66.633,15.552 67.592,15.225 68.315,14.795 C68.315,14.795 68.315,13.551 68.315,13.551 C67.435,14.089 66.633,14.404 65.768,14.404 C64.118,14.404 63.332,13.533 63.332,11.564 C63.332,11.564 68.555,11.564 68.555,11.564 C68.555,11.564 68.555,10.959 68.555,10.959 C68.559,8.282 67.324,6.955 65.321,6.955 zM63.362,10.465 C63.542,8.825 64.294,8.054 65.273,8.054 C66.136,8.054 66.957,8.742 67.036,10.465 C67.036,10.465 63.362,10.465 63.362,10.465 zM97.182,13.725 L98.670,15.369 L97.018,16.848 L95.529,15.205 L97.182,13.725 zM92.792,3.631 L94.280,5.275 L92.626,6.755 L91.138,5.111 L92.792,3.631 zM89.297,4.199 L91.282,6.390 L89.077,8.362 L87.093,6.171 L89.297,4.199 zM94.150,10.058 L92.662,8.415 L94.314,6.936 L95.804,8.578 L94.150,10.058 zM96.195,7.599 L97.296,6.613 L98.287,7.709 L97.188,8.694 L96.195,7.599 zM12.500,3.721 L14.376,3.721 L11.777,15.355 L10.044,15.355 L7.865,7.166 L7.751,7.166 L5.636,15.355 L3.903,15.355 L1.307,3.721 L3.103,3.721 L4.897,12.400 L5.011,12.400 L7.095,3.721 L8.521,3.721 L10.750,12.400 L10.863,12.400 L12.500,3.721 zM95.564,13.530 L94.075,11.887 L95.728,10.407 L97.218,12.049 L95.564,13.530 zM94.787,4.343 L95.890,3.358 L96.882,4.453 L95.779,5.439 L94.787,4.343 zM90.656,12.104 L88.672,9.912 L90.876,7.939 L92.861,10.129 L90.656,12.104 zM92.224,15.890 L90.240,13.699 L92.445,11.726 L94.426,13.917 L92.224,15.890 z" fill="#707070" />
</svg>
