<svg version="1.1" xmlns="http://www.w3.org/2000/svg" xmlns:xlink="http://www.w3.org/1999/xlink" width="19" height="19" viewBox="0 0 19 19">
<g id="icon-icq">
<path id="icon-icq" d="M18.628,10.428 C18.628,10.428 18.492,10.213 18.492,10.213 C18.274,9.892 18.056,9.570 17.728,9.356 C17.456,9.168 17.128,9.035 16.829,8.901 C17.674,8.499 18.252,7.936 18.525,7.213 C18.832,6.263 18.323,4.915 16.944,4.535 C16.534,4.455 16.082,4.455 15.674,4.481 C15.674,4.481 14.778,4.669 14.778,4.669 C14.778,4.669 15.082,4.000 15.082,4.000 C15.354,3.142 15.274,2.312 14.810,1.535 C14.810,1.535 14.729,1.402 14.729,1.402 C14.320,0.731 13.720,0.330 12.902,0.116 C12.057,-0.099 11.338,-0.019 10.575,0.383 C9.810,0.786 9.089,1.402 9.089,2.205 C9.089,2.205 9.089,2.258 9.089,2.258 L8.993,2.446 L8.849,2.258 C8.849,2.258 8.559,1.777 8.559,1.777 C8.122,1.107 7.569,0.705 6.887,0.517 C6.287,0.383 5.793,0.437 5.275,0.705 C4.703,1.053 4.372,1.590 4.236,2.339 C4.099,3.115 4.235,3.866 4.645,4.615 C4.645,4.615 4.834,4.884 4.834,4.884 C4.834,4.884 4.180,4.668 4.180,4.668 C3.362,4.481 2.599,4.588 1.835,4.990 C1.044,5.391 0.554,5.954 0.226,6.731 C-0.074,7.481 -0.046,8.203 0.335,8.874 C0.499,9.168 0.744,9.409 0.962,9.570 C1.290,9.892 1.699,10.079 2.189,10.159 C2.189,10.159 2.380,10.213 2.380,10.213 C2.380,10.213 1.972,10.562 1.972,10.562 C1.589,10.884 1.372,11.285 1.235,11.687 C1.099,12.168 1.154,12.651 1.426,13.107 C1.563,13.321 1.699,13.507 1.917,13.642 C2.135,13.829 2.408,13.963 2.734,13.990 C3.335,14.125 3.962,14.125 4.643,13.909 C4.643,13.909 4.152,14.713 4.152,14.713 C4.152,14.713 4.016,15.061 4.016,15.061 C3.743,15.917 3.825,16.667 4.234,17.444 C4.425,17.740 4.643,18.007 4.861,18.248 C5.188,18.543 5.596,18.731 6.088,18.865 C6.904,19.078 7.723,19.051 8.514,18.650 C9.278,18.248 9.767,17.605 10.014,16.802 C10.014,16.802 10.040,16.642 10.040,16.642 C10.558,17.203 11.049,17.578 11.595,17.713 C12.140,17.873 12.685,17.847 13.176,17.525 C13.639,17.256 13.966,16.802 14.130,16.239 C14.266,15.650 14.266,15.061 14.130,14.393 C14.402,14.579 14.675,14.713 15.002,14.793 C15.873,15.061 16.638,15.034 17.401,14.632 C18.137,14.231 18.628,13.587 18.873,12.757 C19.092,11.954 19.038,11.177 18.628,10.428 z" fill="#35B138" />
<path id="Shape-219" d="M16.000,13.000 C15.562,10.312 10.000,10.000 10.000,10.000 C10.000,10.000 17.187,9.125 18.000,10.000 C18.812,10.875 16.437,15.687 16.000,13.000 zM10.000,9.000 C10.000,9.000 16.875,6.500 17.000,5.000 C17.125,3.500 18.000,5.125 17.000,7.000 C16.000,8.875 10.000,9.000 10.000,9.000 zM11.484,6.936 C12.017,6.204 12.399,4.995 12.000,3.000 C11.125,-1.375 15.000,1.312 15.000,3.000 C15.000,4.079 12.959,5.819 11.484,6.936 zM10.000,8.000 C10.000,8.000 10.653,7.566 11.484,6.936 C10.849,7.809 10.000,8.000 10.000,8.000 zM6.000,2.000 C6.437,1.375 6.750,0.750 8.000,2.000 C9.250,3.250 9.563,5.750 9.000,6.000 C8.437,6.250 5.562,2.625 6.000,2.000 zM7.000,9.000 C6.750,9.625 1.937,7.812 2.000,7.000 C2.062,6.187 2.812,5.437 4.000,6.000 C5.187,6.562 7.250,8.375 7.000,9.000 zM8.000,12.000 C8.625,11.875 9.625,14.812 9.000,16.000 C8.375,17.187 7.375,16.937 7.000,16.000 C6.625,15.062 7.375,12.125 8.000,12.000 z" fill="#43C546" fill-opacity="0.588" />
<path id="Shape-212" d="M17.000,9.000 L9.000,9.000 L17.000,8.000 L17.000,9.000 zM14.000,15.000 L10.042,10.250 L11.000,16.000 L10.000,16.000 L10.000,10.200 L9.000,9.000 L15.000,14.000 L14.000,15.000 zM5.000,4.000 L9.000,9.000 L4.000,5.000 L5.000,4.000 zM16.000,5.000 L9.000,9.000 L15.000,4.000 L16.000,5.000 zM9.000,2.000 L10.000,2.000 L9.000,8.000 L9.000,2.000 z" fill="#1E9A21" />
<path id="Shape-213" d="M8.000,10.000 C8.000,10.000 4.750,10.000 3.000,10.000 C1.250,10.000 -0.375,14.250 4.000,14.000 C4.750,13.125 8.000,10.000 8.000,10.000 z" fill="#FF3D58" />
<path id="Ellipse-38" d="M8.050,10.884 C7.696,10.562 7.506,10.106 7.506,9.624 C7.506,9.142 7.696,8.741 8.050,8.365 C8.378,8.071 8.814,7.883 9.332,7.883 C9.823,7.883 10.286,8.071 10.587,8.365 C10.967,8.741 11.132,9.142 11.132,9.624 C11.132,10.106 10.967,10.562 10.587,10.884 C10.232,11.232 9.823,11.418 9.332,11.418 C8.814,11.419 8.378,11.233 8.050,10.884 z" fill="#FFCC00" />
</g>
</svg>
