<svg xmlns="http://www.w3.org/2000/svg" xmlns:xlink="http://www.w3.org/1999/xlink" preserveAspectRatio="xMidYMid" width="15" height="9" viewBox="0 0 15 9">
  <path d="M-0.000,-56.000 C-0.000,-56.000 235.000,-56.000 235.000,-56.000 C244.941,-56.000 253.000,-47.941 253.000,-38.000 C253.000,-38.000 253.000,-18.000 253.000,-18.000 C253.000,-8.059 244.941,-0.000 235.000,-0.000 C235.000,-0.000 12.000,-0.000 12.000,-0.000 C12.000,-0.000 11.500,9.000 5.000,9.000 C8.000,0.500 -0.000,-0.000 -0.000,-0.000 C-9.941,-0.000 -18.000,-8.059 -18.000,-18.000 C-18.000,-18.000 -18.000,-38.000 -18.000,-38.000 C-18.000,-47.941 -9.941,-56.000 -0.000,-56.000 Z" id="path-1" class="cls-2" fill-rule="evenodd" fill="#f5f5f5"/>
</svg>
