<svg version="1.1" xmlns="http://www.w3.org/2000/svg" xmlns:xlink="http://www.w3.org/1999/xlink" width="271" height="65" viewBox="0 0 271 65">
<path id="img-secret" d="M18.000,-0.000 C18.000,-0.000 253.000,-0.000 253.000,-0.000 C262.941,-0.000 271.000,8.059 271.000,18.000 C271.000,18.000 271.000,38.000 271.000,38.000 C271.000,47.941 262.941,56.000 253.000,56.000 C253.000,56.000 30.000,56.000 30.000,56.000 C30.000,56.000 29.500,65.000 23.000,65.000 C26.000,56.500 18.000,56.000 18.000,56.000 C8.059,56.000 -0.000,47.941 -0.000,38.000 C-0.000,38.000 -0.000,18.000 -0.000,18.000 C-0.000,8.059 8.059,-0.000 18.000,-0.000 z" fill="#F5F5F5" />
</svg>
