<svg version="1.1" xmlns="http://www.w3.org/2000/svg" xmlns:xlink="http://www.w3.org/1999/xlink" width="106" height="44" viewBox="0 0 106 44">
<g id="logo">
<path id="cash" d="M89.985,36.979 C89.969,37.101 89.916,37.241 89.827,37.399 C89.671,37.685 89.237,37.827 88.524,37.827 C87.745,37.827 87.289,37.632 87.155,37.241 C87.089,37.061 87.055,36.786 87.055,36.416 C87.055,36.416 87.055,33.197 87.055,33.197 L82.631,33.197 C82.631,33.197 82.631,36.432 82.631,36.432 C82.631,36.675 82.623,36.857 82.606,36.979 C82.589,37.101 82.536,37.241 82.447,37.399 C82.291,37.685 81.857,37.827 81.145,37.827 C80.366,37.827 79.910,37.632 79.776,37.241 C79.709,37.061 79.676,36.786 79.676,36.416 C79.676,36.416 79.676,27.614 79.676,27.614 C79.676,27.371 79.684,27.189 79.701,27.067 C79.718,26.946 79.770,26.806 79.860,26.647 C80.015,26.362 80.449,26.219 81.162,26.219 C81.941,26.219 82.403,26.415 82.548,26.806 C82.603,26.985 82.631,27.260 82.631,27.630 C82.631,27.630 82.631,30.865 82.631,30.865 L87.055,30.865 C87.055,30.865 87.055,27.614 87.055,27.614 C87.055,27.371 87.064,27.189 87.080,27.067 C87.097,26.946 87.150,26.806 87.239,26.647 C87.328,26.488 87.478,26.378 87.690,26.314 C87.901,26.250 88.168,26.219 88.491,26.219 C88.814,26.219 89.070,26.245 89.259,26.298 C89.448,26.351 89.593,26.415 89.693,26.488 C89.793,26.563 89.871,26.669 89.927,26.806 C89.982,26.985 90.010,27.260 90.010,27.630 C90.010,27.630 90.010,36.432 90.010,36.432 C90.010,36.675 90.002,36.857 89.985,36.979 zM77.022,37.161 C76.120,37.722 75.157,38.002 74.133,38.002 C73.610,38.002 73.115,37.941 72.647,37.819 C72.180,37.698 71.801,37.547 71.512,37.367 C70.922,37.029 70.510,36.701 70.277,36.384 C70.277,36.384 70.126,36.210 70.126,36.210 C69.837,35.871 69.692,35.567 69.692,35.298 C69.692,35.028 69.932,34.671 70.410,34.227 C70.688,33.974 70.983,33.847 71.295,33.847 C71.607,33.847 72.041,34.111 72.597,34.640 C72.753,34.820 72.975,34.991 73.265,35.155 C73.554,35.319 73.821,35.401 74.066,35.401 C75.102,35.401 75.619,34.999 75.619,34.196 C75.619,33.953 75.477,33.749 75.193,33.585 C74.910,33.421 74.556,33.302 74.133,33.228 C73.710,33.155 73.254,33.036 72.764,32.871 C72.274,32.708 71.818,32.515 71.395,32.293 C70.972,32.071 70.619,31.719 70.335,31.238 C70.051,30.757 69.909,30.178 69.909,29.501 C69.909,28.571 70.274,27.760 71.003,27.067 C71.732,26.375 72.725,26.029 73.983,26.029 C74.651,26.029 75.260,26.111 75.811,26.274 C76.362,26.438 76.743,26.605 76.955,26.774 C76.955,26.774 77.372,27.075 77.372,27.075 C77.717,27.382 77.890,27.641 77.890,27.852 C77.890,28.064 77.756,28.355 77.489,28.724 C77.111,29.253 76.721,29.517 76.320,29.517 C76.087,29.517 75.797,29.412 75.452,29.200 C75.419,29.179 75.355,29.126 75.260,29.042 C75.165,28.957 75.079,28.889 75.001,28.836 C74.768,28.698 74.470,28.630 74.108,28.630 C73.746,28.630 73.446,28.711 73.207,28.875 C72.967,29.039 72.848,29.266 72.848,29.557 C72.848,29.848 72.990,30.083 73.273,30.263 C73.557,30.443 73.910,30.564 74.334,30.627 C74.756,30.691 75.218,30.789 75.719,30.921 C76.220,31.053 76.682,31.214 77.105,31.405 C77.528,31.595 77.881,31.925 78.165,32.396 C78.449,32.866 78.591,33.445 78.591,34.132 C78.591,34.820 78.446,35.425 78.157,35.948 C77.867,36.471 77.489,36.876 77.022,37.161 zM67.664,38.002 C67.447,38.002 67.269,37.954 67.130,37.859 C66.990,37.764 66.890,37.663 66.829,37.558 C66.768,37.452 66.681,37.294 66.570,37.082 C66.570,37.082 65.702,35.369 65.702,35.369 L61.077,35.369 C61.077,35.369 60.209,37.082 60.209,37.082 C60.098,37.294 60.012,37.447 59.951,37.542 C59.889,37.637 59.789,37.735 59.650,37.835 C59.511,37.935 59.333,37.986 59.116,37.986 C58.899,37.986 58.601,37.896 58.223,37.716 C57.577,37.420 57.254,37.082 57.254,36.701 C57.254,36.522 57.349,36.252 57.538,35.893 C57.538,35.893 62.046,27.028 62.046,27.028 C62.168,26.784 62.355,26.589 62.605,26.441 C62.856,26.293 63.120,26.219 63.398,26.219 C63.999,26.219 64.444,26.494 64.734,27.043 C64.734,27.043 69.241,35.893 69.241,35.893 C69.431,36.252 69.525,36.522 69.525,36.701 C69.525,37.082 69.202,37.426 68.557,37.732 C68.179,37.912 67.881,38.002 67.664,38.002 zM63.381,30.849 L62.280,33.022 L64.500,33.022 L63.381,30.849 zM55.401,29.803 C55.201,29.803 54.917,29.687 54.550,29.454 C54.082,29.095 53.459,28.915 52.680,28.915 C51.956,28.915 51.244,29.153 50.543,29.629 C50.209,29.861 49.931,30.189 49.708,30.612 C49.485,31.035 49.374,31.513 49.374,32.047 C49.374,32.581 49.485,33.059 49.708,33.482 C49.931,33.905 50.214,34.238 50.560,34.481 C51.238,34.946 51.945,35.179 52.680,35.179 C53.025,35.179 53.350,35.137 53.657,35.052 C53.963,34.968 54.182,34.883 54.316,34.798 C54.316,34.798 54.616,34.592 54.616,34.592 C54.995,34.381 55.262,34.275 55.418,34.275 C55.763,34.275 56.136,34.571 56.536,35.163 C56.781,35.533 56.904,35.829 56.904,36.051 C56.904,36.273 56.829,36.458 56.678,36.606 C56.528,36.754 56.353,36.886 56.152,37.003 C55.952,37.119 55.760,37.230 55.576,37.336 C55.393,37.442 55.017,37.579 54.450,37.748 C53.882,37.917 53.334,38.002 52.805,38.002 C52.276,38.002 51.742,37.935 51.202,37.803 C50.662,37.671 50.106,37.449 49.533,37.137 C48.959,36.826 48.445,36.445 47.988,35.996 C47.532,35.546 47.156,34.970 46.862,34.267 C46.566,33.564 46.419,32.800 46.419,31.975 C46.419,31.151 46.564,30.403 46.853,29.731 C47.143,29.060 47.513,28.505 47.963,28.066 C48.414,27.628 48.929,27.260 49.508,26.964 C50.598,26.393 51.695,26.108 52.797,26.108 C53.320,26.108 53.851,26.185 54.391,26.338 C54.931,26.491 55.340,26.647 55.618,26.806 C55.618,26.806 56.019,27.028 56.019,27.028 C56.219,27.144 56.375,27.239 56.486,27.313 C56.776,27.535 56.920,27.786 56.920,28.066 C56.920,28.347 56.804,28.640 56.570,28.946 C56.136,29.517 55.746,29.803 55.401,29.803 z" fill="#444444" />
<path id="garlic" d="M105.457,13.947 C105.023,14.517 104.633,14.803 104.288,14.803 C104.088,14.803 103.804,14.687 103.437,14.454 C102.969,14.095 102.346,13.915 101.567,13.915 C100.843,13.915 100.131,14.153 99.430,14.629 C99.096,14.861 98.818,15.189 98.595,15.612 C98.372,16.035 98.261,16.513 98.261,17.047 C98.261,17.581 98.372,18.059 98.595,18.482 C98.818,18.905 99.101,19.238 99.447,19.481 C100.125,19.947 100.832,20.179 101.567,20.179 C101.912,20.179 102.237,20.137 102.544,20.052 C102.850,19.968 103.069,19.883 103.203,19.798 C103.203,19.798 103.503,19.592 103.503,19.592 C103.882,19.381 104.149,19.275 104.305,19.275 C104.650,19.275 105.023,19.571 105.423,20.163 C105.668,20.533 105.791,20.829 105.791,21.051 C105.791,21.273 105.716,21.458 105.565,21.606 C105.415,21.754 105.240,21.886 105.039,22.002 C104.839,22.119 104.647,22.230 104.463,22.336 C104.280,22.441 103.904,22.579 103.336,22.748 C102.769,22.917 102.221,23.002 101.692,23.002 C101.163,23.002 100.629,22.935 100.089,22.803 C99.549,22.671 98.993,22.449 98.420,22.137 C97.846,21.826 97.332,21.445 96.875,20.996 C96.419,20.546 96.043,19.970 95.749,19.267 C95.453,18.564 95.306,17.800 95.306,16.975 C95.306,16.151 95.451,15.403 95.740,14.732 C96.030,14.060 96.400,13.505 96.850,13.066 C97.301,12.628 97.816,12.260 98.395,11.964 C99.485,11.393 100.582,11.108 101.684,11.108 C102.207,11.108 102.738,11.185 103.278,11.338 C103.818,11.491 104.227,11.647 104.505,11.806 C104.505,11.806 104.906,12.027 104.906,12.027 C105.106,12.144 105.262,12.239 105.373,12.313 C105.663,12.535 105.807,12.786 105.807,13.066 C105.807,13.347 105.691,13.640 105.457,13.947 zM94.037,22.415 C93.881,22.700 93.447,22.843 92.735,22.843 C91.956,22.843 91.500,22.642 91.366,22.241 C91.299,22.071 91.266,21.802 91.266,21.432 C91.266,21.432 91.266,12.614 91.266,12.614 C91.266,12.371 91.274,12.189 91.291,12.067 C91.308,11.946 91.360,11.806 91.450,11.647 C91.605,11.362 92.040,11.219 92.752,11.219 C93.531,11.219 93.993,11.415 94.138,11.806 C94.193,11.986 94.221,12.260 94.221,12.630 C94.221,12.630 94.221,21.448 94.221,21.448 C94.221,21.701 94.213,21.886 94.196,22.002 C94.179,22.119 94.126,22.256 94.037,22.415 zM89.814,22.684 C89.602,22.790 89.313,22.843 88.946,22.843 C88.946,22.843 82.935,22.843 82.935,22.843 C82.156,22.843 81.700,22.642 81.566,22.241 C81.500,22.071 81.466,21.802 81.466,21.432 C81.466,21.432 81.466,12.614 81.466,12.614 C81.466,12.371 81.474,12.189 81.491,12.067 C81.508,11.946 81.561,11.806 81.650,11.647 C81.805,11.362 82.240,11.219 82.952,11.219 C83.731,11.219 84.193,11.415 84.338,11.806 C84.393,11.986 84.421,12.260 84.421,12.630 C84.421,12.630 84.421,20.496 84.421,20.496 C84.421,20.496 88.962,20.496 88.962,20.496 C89.329,20.496 89.597,20.536 89.764,20.615 C89.931,20.694 90.042,20.819 90.098,20.988 C90.153,21.157 90.181,21.382 90.181,21.662 C90.181,21.942 90.153,22.167 90.098,22.336 C90.042,22.505 89.947,22.621 89.814,22.684 zM80.548,21.701 C80.548,22.103 80.203,22.441 79.513,22.716 C79.156,22.864 78.870,22.938 78.653,22.938 C78.436,22.938 78.258,22.888 78.119,22.788 C77.979,22.687 77.877,22.584 77.810,22.478 C77.699,22.278 77.264,21.321 76.508,19.608 C76.508,19.608 75.990,19.640 75.990,19.640 L73.886,19.640 C73.886,19.640 73.886,21.432 73.886,21.432 C73.886,21.675 73.878,21.857 73.861,21.979 C73.845,22.100 73.792,22.241 73.703,22.399 C73.547,22.684 73.113,22.827 72.401,22.827 C71.621,22.827 71.165,22.632 71.032,22.241 C70.965,22.061 70.931,21.786 70.931,21.416 C70.931,21.416 70.931,12.614 70.931,12.614 C70.931,12.371 70.940,12.189 70.956,12.067 C70.973,11.946 71.026,11.806 71.115,11.647 C71.271,11.362 71.705,11.219 72.417,11.219 C72.417,11.219 76.023,11.219 76.023,11.219 C77.003,11.219 77.954,11.557 78.878,12.234 C79.323,12.562 79.691,13.006 79.980,13.566 C80.270,14.126 80.414,14.750 80.414,15.437 C80.414,16.632 79.997,17.615 79.162,18.387 C79.407,18.947 79.785,19.777 80.297,20.877 C80.464,21.257 80.548,21.532 80.548,21.701 zM76.992,14.383 C76.669,14.145 76.335,14.026 75.990,14.026 C75.990,14.026 73.886,14.026 73.886,14.026 L73.886,16.833 C73.886,16.833 76.023,16.833 76.023,16.833 C76.346,16.833 76.669,16.716 76.992,16.484 C77.314,16.251 77.476,15.902 77.476,15.437 C77.476,14.972 77.314,14.620 76.992,14.383 zM68.152,23.002 C67.935,23.002 67.756,22.954 67.617,22.859 C67.478,22.764 67.378,22.663 67.317,22.558 C67.256,22.452 67.169,22.293 67.058,22.082 C67.058,22.082 66.190,20.369 66.190,20.369 L61.565,20.369 C61.565,20.369 60.697,22.082 60.697,22.082 C60.586,22.293 60.500,22.446 60.438,22.542 C60.377,22.637 60.277,22.735 60.138,22.835 C59.999,22.935 59.821,22.986 59.604,22.986 C59.387,22.986 59.089,22.896 58.710,22.716 C58.065,22.420 57.742,22.082 57.742,21.701 C57.742,21.522 57.836,21.252 58.026,20.893 C58.026,20.893 62.534,12.027 62.534,12.027 C62.656,11.785 62.843,11.589 63.093,11.441 C63.343,11.293 63.608,11.219 63.886,11.219 C64.487,11.219 64.932,11.494 65.222,12.043 C65.222,12.043 69.729,20.893 69.729,20.893 C69.918,21.252 70.013,21.522 70.013,21.701 C70.013,22.082 69.690,22.426 69.045,22.732 C68.666,22.912 68.369,23.002 68.152,23.002 zM63.869,15.850 L62.767,18.022 L64.988,18.022 L63.869,15.850 zM52.149,23.002 C50.491,23.002 49.050,22.407 47.825,21.218 C46.601,20.028 45.989,18.593 45.989,16.912 C45.989,15.231 46.612,13.828 47.859,12.702 C49.105,11.576 50.574,11.013 52.266,11.013 C53.579,11.013 54.821,11.425 55.989,12.250 C56.290,12.461 56.440,12.696 56.440,12.955 C56.440,13.215 56.312,13.513 56.056,13.851 C55.622,14.412 55.227,14.692 54.871,14.692 C54.659,14.692 54.320,14.547 53.852,14.256 C53.385,13.965 52.828,13.820 52.183,13.820 C51.337,13.820 50.586,14.103 49.929,14.668 C49.272,15.234 48.944,15.974 48.944,16.888 C48.944,17.803 49.278,18.580 49.946,19.219 C50.613,19.859 51.370,20.179 52.216,20.179 C52.828,20.179 53.379,20.084 53.869,19.893 C53.869,19.893 53.869,18.165 53.869,18.165 C53.869,18.165 52.550,18.165 52.550,18.165 C52.205,18.165 51.960,18.123 51.816,18.038 C51.671,17.954 51.576,17.829 51.532,17.665 C51.487,17.501 51.465,17.280 51.465,16.999 C51.465,16.719 51.490,16.495 51.540,16.325 C51.590,16.156 51.682,16.040 51.816,15.976 C52.016,15.881 52.283,15.834 52.617,15.834 C52.617,15.834 55.555,15.834 55.555,15.834 C56.156,15.855 56.523,16.003 56.657,16.278 C56.768,16.479 56.824,16.775 56.824,17.166 C56.824,17.166 56.824,20.655 56.824,20.655 C56.824,20.993 56.668,21.316 56.357,21.622 C55.422,22.542 54.019,23.002 52.149,23.002 z" fill="#444444" />
<g id="garlick">
<g id="body">
<path id="Shape-3" d="M24.533,9.490 C24.284,6.026 26.243,2.470 25.656,2.149 C25.068,1.828 21.917,5.674 21.782,8.076 C21.648,10.479 24.782,12.954 24.533,9.490 z" fill="#F2D3B6" />
<path id="Shape-2" d="M23.150,-0.000 C24.260,0.021 21.593,8.306 26.004,13.555 C30.416,18.804 33.081,17.443 36.262,21.504 C41.376,28.316 35.898,32.579 35.898,32.579 C35.898,32.579 35.359,41.428 25.279,40.291 C10.650,38.642 21.784,-0.027 23.150,-0.000 z" fill="#F7E1CB" />
<path id="Shape-21" d="M38.090,29.941 C38.090,29.941 37.144,31.022 36.652,30.967 C36.160,30.911 36.488,30.184 35.996,30.129 C35.504,30.074 35.459,30.493 35.596,30.763 C35.733,31.033 35.880,32.746 35.880,32.746 L37.536,31.236 L38.090,29.941 z" fill="#F6CCB2" />
<path id="Shape-1" d="M27.223,3.005 C27.864,3.355 24.021,6.165 24.455,15.734 C24.816,23.686 30.150,26.647 29.398,33.628 C28.964,37.651 27.390,44.178 17.924,43.111 C11.654,42.404 10.701,39.213 10.701,39.213 C10.701,39.213 0.343,40.763 1.614,28.968 C0.852,28.193 -0.974,23.706 1.522,20.170 C4.019,16.634 9.670,16.232 14.132,12.196 C21.896,5.831 26.674,2.705 27.223,3.005 z" fill="#FCE8D4" />
<path id="Shape-16" d="M24.940,6.481 C25.505,6.629 22.579,13.767 24.460,20.173 C26.889,27.660 28.621,30.061 28.621,30.061 C28.621,30.061 29.593,27.965 29.652,32.808 C29.711,37.651 24.179,42.798 21.339,42.986 C13.673,44.074 10.810,39.084 10.810,39.084 C10.810,39.084 9.386,34.596 11.143,34.454 C12.900,34.313 12.146,36.689 13.758,37.125 C16.864,37.762 15.639,31.882 18.615,30.435 C21.591,28.989 24.088,31.332 25.179,30.437 C26.271,29.542 22.405,23.081 22.465,18.675 C22.042,13.367 24.448,6.425 24.940,6.481 z" fill="#F7E1CB" />
<path id="Shape-15" d="M29.498,33.469 C29.498,33.469 28.363,37.839 26.825,38.259 C26.051,38.511 26.624,37.812 25.796,37.804 C24.967,37.795 24.434,42.741 16.731,41.873 C15.838,41.687 10.556,39.904 10.123,34.679 C9.791,29.677 14.000,21.794 14.000,21.794 C14.000,21.794 14.996,20.251 14.845,20.107 C14.632,20.550 13.836,21.775 13.836,21.775 C13.836,21.775 8.871,29.362 9.322,35.183 C9.773,41.004 15.156,42.629 16.832,43.242 C21.814,44.737 25.453,41.753 26.081,41.315 C29.165,38.862 29.498,33.469 29.498,33.469 z" fill="#F6CCB2" />
<path id="Shape-14-copy" d="M24.364,14.138 C24.616,14.109 24.119,15.383 25.124,19.399 C26.129,23.416 27.089,24.005 26.858,24.092 C26.628,24.179 25.174,21.244 24.787,19.446 C24.400,17.649 24.112,14.166 24.364,14.138 z" fill="#E4A89B" />
<path id="Shape-8" d="M34.905,31.788 C34.205,27.891 29.051,21.836 28.245,22.382 C26.894,23.375 30.267,27.871 30.843,30.609 C31.419,33.346 29.345,35.276 31.189,36.630 C32.693,37.690 35.605,35.684 34.905,31.788 z" fill="#FCEAD8" />
<path id="Shape-9" d="M28.287,17.762 C29.023,16.700 33.096,19.323 34.900,21.053 C35.925,21.932 38.318,25.512 36.653,27.106 C34.989,28.700 34.371,23.485 33.234,22.346 C29.468,17.464 28.206,18.516 28.287,17.762 z" fill="#FCEAD8" />
<path id="Shape-18" d="M9.897,30.738 C7.424,39.075 0.749,35.241 1.398,32.507 C0.851,30.212 1.068,32.544 1.309,34.109 C4.464,40.061 10.255,39.555 9.450,34.140 C9.562,32.328 9.678,31.398 9.897,30.738 z" fill="#F7E1CB" />
<path id="Shape-18-copy" d="M2.950,25.809 C3.350,24.921 7.030,20.273 10.528,18.602 C9.551,18.690 4.049,23.048 2.868,25.800 C1.182,28.828 1.552,29.105 2.950,25.809 z" fill="#F6CCB2" />
<path id="Shape-4" d="M24.275,5.363 C24.026,4.933 22.024,6.557 20.932,7.452 C19.841,8.347 14.250,12.139 14.737,13.099 C15.083,13.540 16.012,12.237 16.185,12.457 C16.358,12.678 15.634,13.301 15.876,13.496 C16.118,13.690 17.125,12.563 17.396,12.795 C17.666,13.027 15.567,14.835 15.899,15.107 C16.231,15.380 17.768,13.608 18.009,13.803 C18.251,13.998 17.366,15.508 17.809,15.658 C18.253,15.809 18.723,13.883 19.047,13.920 C19.371,13.957 19.316,15.996 19.798,16.084 C20.638,16.212 20.455,13.945 20.949,13.933 C21.443,13.922 20.819,15.059 21.377,15.055 C22.130,15.072 21.644,14.617 22.663,10.038 C23.283,7.324 24.524,5.794 24.275,5.363 z" fill="#FDF3E9" />
<path id="Shape-17" d="M9.902,31.345 C9.255,31.187 9.578,36.654 8.168,37.428 C6.375,38.669 3.469,36.389 3.697,37.349 C4.391,39.378 8.598,39.598 8.598,39.598 C8.598,39.598 10.883,39.941 10.965,39.186 C8.560,37.642 10.548,31.502 9.902,31.345 z" fill="#F6CCB2" />
<path id="Ellipse-1" d="M18.967,43.058 C22.672,43.476 26.095,41.758 27.975,38.912 C26.260,42.275 22.529,44.393 18.458,43.934 C13.666,43.394 9.710,40.430 9.504,36.018 C10.334,39.921 14.526,42.558 18.967,43.058 z" fill="#E4A89B" />
<path id="Shape-5" d="M11.742,15.487 C11.098,14.786 5.324,17.618 3.401,19.273 C0.591,21.083 0.436,24.488 1.833,24.911 C2.742,25.134 4.310,21.593 6.414,19.754 C8.960,17.529 12.095,15.871 11.742,15.487 z" fill="#FDF3E9" />
<path id="Shape-19" d="M3.768,24.374 C3.768,24.374 2.604,25.940 1.602,25.996 C0.601,26.053 0.726,23.352 0.298,23.473 C-0.130,23.595 0.831,28.540 1.477,28.698 C1.786,28.139 3.768,24.374 3.768,24.374 z" fill="#F6CCB2" />
<path id="Shape-20" d="M29.117,35.463 C29.117,35.463 28.082,38.910 30.030,38.536 C31.005,38.730 31.121,36.877 31.860,37.724 C32.926,38.608 34.954,35.951 34.836,36.277 C34.718,36.603 33.345,39.334 30.204,39.998 C28.074,40.521 26.754,40.457 26.754,40.457 L29.117,35.463 z" fill="#F6CCB2" />
<path id="Shape-6" d="M11.839,18.750 C11.092,17.987 4.641,23.199 2.960,27.253 C1.279,31.306 2.631,35.701 4.624,34.907 C6.617,34.114 6.623,30.211 7.185,27.305 C7.747,24.398 12.587,19.513 11.839,18.750 z" fill="#FDF3E9" />
<path id="Shape-7" d="M19.726,20.997 C18.497,20.858 19.030,21.682 18.307,22.619 C17.584,23.555 17.437,21.460 15.921,21.671 C14.405,21.882 7.887,38.500 15.700,39.890 C23.513,41.280 25.529,34.506 23.613,30.345 C21.697,26.184 20.956,21.136 19.726,20.997 z" fill="#FCF0E3" />
<path id="Shape-14" d="M28.272,27.137 C28.478,27.018 29.355,29.408 29.586,30.340 C30.070,32.261 29.782,33.474 29.494,34.856 C29.207,36.237 28.730,37.469 28.654,37.447 C28.579,37.426 28.844,36.590 29.135,34.843 C29.406,33.211 29.636,32.538 29.198,30.273 C28.885,28.659 28.181,27.211 28.272,27.137 z" fill="#E4A89B" />
<path id="Shape-10" d="M9.906,15.138 C9.906,15.138 1.674,18.792 0.789,22.001 C-0.246,25.830 1.841,28.781 1.878,28.828 C0.919,30.798 -1.072,24.252 0.724,21.061 C2.565,17.832 9.906,15.138 9.906,15.138 z" fill="#E4A89B" />
<path id="Shape-11" d="M4.523,23.526 C0.280,29.029 0.741,35.530 4.936,38.167 C7.956,39.780 10.991,38.553 11.120,39.289 C11.821,40.089 7.451,40.614 4.609,38.894 C1.767,37.173 -0.021,33.365 1.150,29.424 C2.321,25.484 5.119,22.617 4.523,23.526 z" fill="#E4A89B" />
<path id="Shape-12" d="M33.571,27.225 C33.396,27.318 35.110,29.205 35.467,31.600 C35.788,33.753 35.107,36.268 33.608,37.666 C30.442,40.619 26.936,40.308 26.936,40.308 C26.936,40.308 26.966,40.283 26.563,40.690 C26.339,40.976 31.768,40.881 34.227,38.075 C35.623,36.483 36.353,34.545 35.981,31.452 C35.702,29.440 33.747,27.132 33.571,27.225 z" fill="#E4A89B" />
<path id="Shape-13" d="M24.589,11.278 C24.536,11.322 25.528,14.686 31.364,17.909 C31.558,18.004 31.761,18.096 31.873,18.151 C39.401,21.830 39.319,30.472 35.925,32.327 C35.425,33.119 35.666,33.189 36.008,33.100 C37.100,32.969 40.046,29.737 38.617,25.291 C36.377,19.429 32.614,18.309 31.281,17.593 C25.779,14.766 24.625,11.249 24.589,11.278 z" fill="#E4A89B" />
</g>
<g id="mouth">
<path id="Shape-22-copy" d="M22.141,33.677 C21.993,33.408 18.069,34.333 16.305,34.164 C14.542,33.995 12.741,33.318 12.249,33.886 C11.757,34.454 13.461,36.582 16.258,36.630 C19.054,36.678 22.430,34.199 22.141,33.677 z" fill="#F6CCB2" />
<path id="Shape-22-copy-2" d="M22.471,32.268 C22.323,32.000 18.398,32.925 16.635,32.756 C14.872,32.587 13.071,31.909 12.579,32.477 C12.086,33.045 13.791,35.174 16.587,35.222 C19.384,35.270 22.760,32.791 22.471,32.268 z" fill="#F7E1CB" />
<path id="Shape-22" d="M22.306,33.002 C22.158,32.734 18.234,33.659 16.470,33.490 C14.707,33.320 12.906,32.643 12.414,33.211 C11.922,33.779 13.626,35.908 16.422,35.956 C19.219,36.004 22.595,33.524 22.306,33.002 z" fill="#E4A89B" />
<path id="Shape-24" d="M12.675,33.188 C12.675,33.188 12.713,33.905 12.921,34.106 C15.643,35.244 21.362,34.167 21.712,34.118 C22.062,34.068 22.195,33.233 22.195,33.233 C22.195,33.233 22.247,32.929 21.987,32.764 C21.142,32.830 18.918,33.980 12.808,32.758 C12.613,33.022 12.675,33.188 12.675,33.188 z" fill="#FFFFFF" />
<path id="Shape-25" d="M21.532,34.074 C19.722,34.728 13.154,34.180 13.060,34.292 C12.966,34.403 13.048,34.305 13.100,34.484 C13.412,35.720 16.628,36.291 19.224,35.461 C20.036,35.197 21.401,34.344 21.532,34.074 z" fill="#FFFFFF" />
<path id="Shape-62" d="M18.720,33.297 L18.871,34.605 L19.841,34.358 L19.890,33.297 L18.720,33.297 z" fill="#FEDE76" />
<path id="Shape-63" d="M18.871,33.271 C18.871,33.271 18.713,34.374 19.598,34.358 C19.936,34.444 19.598,34.605 19.598,34.605 C19.598,34.605 18.184,34.667 18.386,33.864 C18.353,33.086 18.871,33.271 18.871,33.271 z" fill="#FCDD71" />
<path id="Shape-64" d="M18.628,33.617 C18.628,33.617 18.810,34.111 19.356,34.358 C19.902,34.605 18.750,34.482 18.628,34.358 C18.507,34.235 18.628,33.617 18.628,33.617 z" fill="#FFEDAE" />
</g>
<g id="glasses">
<path id="Shape-31" d="M28.302,25.292 C28.223,25.626 27.697,25.659 27.713,25.916 C27.729,26.173 27.576,28.801 26.710,30.402 C25.857,31.979 20.271,32.126 18.939,30.995 C17.637,29.889 16.728,26.778 16.728,26.778 C16.728,26.778 16.568,26.470 16.230,26.504 C16.003,26.549 15.832,26.768 15.832,26.768 C15.832,26.768 15.259,29.579 13.970,30.569 C12.706,31.540 7.566,31.204 6.918,29.712 C6.281,28.244 6.248,25.912 6.269,25.685 C6.290,25.457 5.878,25.420 5.826,25.125 C5.775,24.830 5.611,23.762 5.944,23.616 C8.672,22.752 15.371,24.667 16.289,24.868 C16.801,24.714 24.155,22.537 28.226,23.579 C28.644,23.744 28.382,24.958 28.302,25.292 z" fill="#1C1C1C" />
<path id="Shape-37" d="M14.925,25.542 C15.010,25.344 15.451,25.631 15.516,25.905 C15.581,26.179 15.368,26.984 15.216,26.937 C15.129,26.911 15.265,26.373 15.237,26.013 C15.217,25.743 14.889,25.627 14.925,25.542 z" fill="#262626" />
<path id="Shape-38" d="M17.945,25.209 C17.599,24.957 16.994,25.568 16.881,25.852 C16.767,26.136 17.251,27.421 17.547,27.370 C17.794,27.352 17.469,26.581 17.507,25.963 C17.540,25.434 18.105,25.324 17.945,25.209 z" fill="#262626" />
<path id="Shape-32" d="M25.624,24.851 C24.854,24.050 18.785,24.513 18.063,25.877 C17.209,27.471 18.773,29.881 19.566,30.551 C20.367,31.228 24.217,31.284 25.197,30.237 C26.187,29.180 26.410,25.668 25.624,24.851 z" fill="#393939" />
<path id="Shape-32-copy" d="M25.369,25.107 C24.795,24.505 20.266,24.858 19.727,25.885 C19.089,27.086 20.254,28.899 20.845,29.403 C21.442,29.911 24.315,29.951 25.047,29.162 C25.786,28.366 25.955,25.722 25.369,25.107 z" fill="#404040" />
<path id="Shape-32-copy-4" d="M25.104,25.305 C24.621,24.801 20.816,25.095 20.363,25.953 C19.827,26.958 20.807,28.475 21.304,28.896 C21.806,29.322 24.220,29.357 24.835,28.697 C25.455,28.031 25.596,25.819 25.104,25.305 z" fill="#474747" />
<path id="Shape-32-copy-5" d="M24.572,25.780 C24.389,25.542 22.836,25.503 22.604,25.850 C22.331,26.257 22.681,26.952 22.874,27.156 C23.069,27.361 24.342,27.514 24.634,27.259 C24.928,27.002 24.759,26.023 24.572,25.780 z" fill="#4F4F4F" />
<path id="Shape-32-copy-6" d="M24.541,25.826 C24.464,25.725 23.808,25.709 23.711,25.856 C23.595,26.029 23.743,26.324 23.824,26.410 C23.906,26.497 24.444,26.562 24.567,26.453 C24.691,26.344 24.620,25.929 24.541,25.826 z" fill="#5C5C5C" />
<path id="Shape-32" d="M7.985,24.844 C8.669,24.104 14.393,24.669 15.020,25.980 C15.506,27.111 14.404,29.877 13.284,30.260 C12.165,30.643 8.944,30.668 8.160,29.652 C7.384,28.645 7.313,25.571 7.985,24.844 z" fill="#393939" />
<path id="Shape-32-copy-2" d="M9.124,25.195 C9.659,24.615 14.130,25.056 14.619,26.083 C14.999,26.970 14.137,29.139 13.262,29.439 C12.387,29.740 9.872,29.761 9.260,28.964 C8.654,28.175 8.600,25.765 9.124,25.195 z" fill="#404040" />
<path id="Shape-32-copy-3" d="M9.887,25.452 C10.325,24.977 13.988,25.339 14.389,26.179 C14.700,26.905 13.994,28.679 13.278,28.925 C12.561,29.171 10.500,29.188 9.998,28.536 C9.501,27.890 9.457,25.918 9.887,25.452 z" fill="#474747" />
<path id="Shape-32-copy-7" d="M12.231,25.844 C12.420,25.629 13.999,25.783 14.169,26.161 C14.302,26.487 14.203,27.240 13.894,27.352 C13.585,27.464 12.487,27.525 12.272,27.232 C12.060,26.942 12.045,26.054 12.231,25.844 z" fill="#4F4F4F" />
<path id="Shape-32-copy-8" d="M13.245,26.022 C13.325,25.937 13.911,25.993 13.984,26.145 C14.041,26.276 14.083,26.586 13.952,26.630 C13.822,26.674 13.358,26.696 13.266,26.578 C13.176,26.461 13.167,26.106 13.245,26.022 z" fill="#5C5C5C" />
</g>
</g>
</g>
</svg>
