<?xml version="1.0" encoding="utf-8"?>
<!-- Generator: Adobe Illustrator 19.0.1, SVG Export Plug-In . SVG Version: 6.00 Build 0)  -->
<svg version="1.1" id="Layer_1" xmlns="http://www.w3.org/2000/svg" xmlns:xlink="http://www.w3.org/1999/xlink" x="0px" y="0px"
	 width="245.134px" height="152.906px" viewBox="0 0 245.134 152.906" enable-background="new 0 0 245.134 152.906"
	 xml:space="preserve">
<image display="none" overflow="visible" width="1298" height="354" xlink:href="2CD5AB5A.jpg"  transform="matrix(0.6142 0 0 0.6142 -32.1288 -45.3004)">
</image>
<g>
	<g>
		<g>
			<path fill="#A4DB2F" d="M61.029,33.607c0,0,14.392,21.842,13.309,37.837c0,0,2.191,3.034,5.402,0.832
				c3.211-2.202-0.665-35.019-2.679-40.583C75.048,26.129,58.91,30.138,61.029,33.607z"/>
			<circle fill="#A4DB2F" cx="63.749" cy="20.354" r="19.97"/>
			<g>
				<ellipse fill="#6F960F" cx="63.886" cy="20.354" rx="14.921" ry="15.79"/>
				<circle fill="#FFFFFF" cx="63.886" cy="19.486" r="14.921"/>
				<path fill="#D3F5FF" d="M73.851,8.381c1.524,2.34,2.413,5.131,2.413,8.132c0,8.241-6.681,14.921-14.921,14.921
					c-3.83,0-7.322-1.445-9.965-3.817c2.662,4.086,7.268,6.79,12.509,6.79c8.241,0,14.921-6.681,14.921-14.921
					C78.808,15.075,76.893,11.113,73.851,8.381z"/>
				<circle fill="#3D3D3D" cx="63.886" cy="22.534" r="3.049"/>
			</g>
			<path fill="#7EB111" d="M66.066,42.396l2.033-2.55l-3.168,0.403l0,0C65.297,40.926,65.677,41.644,66.066,42.396z"/>
			<path fill="#7EB111" d="M74.996,36.857h3.255c-0.161-0.898-0.321-1.723-0.476-2.45L74.996,36.857z"/>
			<path fill="#7EB111" d="M80.595,56.101l-4.198,1.525h4.304C80.701,57.626,80.605,56.235,80.595,56.101z"/>
		</g>
		<g>
			<path fill="#A4DB2F" d="M131.269,33.223c0,0-14.392,21.842-13.309,37.837c0,0-2.191,3.034-5.402,0.832
				c-3.211-2.202,0.665-35.019,2.679-40.583C117.25,25.746,133.388,29.754,131.269,33.223z"/>
			<circle fill="#A4DB2F" cx="128.548" cy="19.97" r="19.97"/>
			<g>
				<ellipse fill="#6F960F" cx="128.411" cy="19.97" rx="14.921" ry="15.79"/>
				<circle fill="#FFFFFF" cx="128.411" cy="19.102" r="14.921"/>
				<path fill="#D3F5FF" d="M118.447,7.997c-1.524,2.34-2.413,5.131-2.413,8.132c0,8.241,6.681,14.921,14.921,14.921
					c3.83,0,7.322-1.445,9.964-3.817c-2.662,4.086-7.268,6.79-12.509,6.79c-8.241,0-14.921-6.681-14.921-14.921
					C113.49,14.691,115.405,10.728,118.447,7.997z"/>
				<circle fill="#3D3D3D" cx="128.411" cy="22.15" r="3.049"/>
			</g>
			<path fill="#7EB111" d="M126.232,42.012l-2.033-2.55l3.168,0.403l0,0C127,40.541,126.62,41.26,126.232,42.012z"/>
			<path fill="#7EB111" d="M117.302,36.473h-3.255c0.161-0.899,0.321-1.723,0.476-2.45L117.302,36.473z"/>
			<path fill="#7EB111" d="M111.703,55.717l4.198,1.525h-4.304C111.597,57.242,111.693,55.851,111.703,55.717z"/>
		</g>
		<path fill="#A4DB2F" d="M126.728,152.906H72.303c-11.37,0-20.673-9.303-20.673-20.673l4.094-53.935
			c0-11.37,9.303-20.673,20.673-20.673l46.283-0.489c11.37,0,20.673,9.303,20.673,20.673l4.048,54.425
			C147.4,143.603,138.097,152.906,126.728,152.906z"/>
		<path fill="#7EB111" d="M143.353,77.809c0-5.159-1.92-9.888-5.074-13.52c0.584,1.907,0.902,3.927,0.902,6.019l4.048,54.425
			c0,11.37-9.303,20.672-20.673,20.672H68.13c-6.211,0-11.8-2.78-15.598-7.152c2.594,8.458,10.493,14.654,19.77,14.654h54.425
			c11.37,0,20.673-9.303,20.673-20.673L143.353,77.809z"/>
		<g>
			<ellipse fill="#7EB111" cx="98.85" cy="61.026" rx="7.601" ry="7.843"/>
			<path fill="#F9432B" d="M106.382,59.858c0.046-1.041,0.07-2.104,0.07-3.184c0-12.939-3.403-27.22-7.601-27.22
				c-4.198,0-7.601,14.28-7.601,27.22c0,1.08,0.024,2.143,0.07,3.184C92.093,69.85,106.062,69.884,106.382,59.858z"/>
			<path fill="#C11414" d="M104.937,41.267c-2.281,0.97-4.821,1.625-7.527,1.882c-1.711,0.161-3.387,0.154-5-0.006
				c-0.131,0.755-0.253,1.526-0.365,2.312c1.207,0.057,2.442,0.034,3.698-0.085c3.493-0.33,6.704-1.334,9.442-2.812
				C105.106,42.122,105.024,41.691,104.937,41.267z"/>
			<path fill="#C11414" d="M91.348,60.096c0.123,1.231,0.449,2.306,0.927,3.224c4.087,1.095,8.945,0.838,13.693-0.962
				c0.238-0.75,0.384-1.582,0.413-2.5c0-0.002,0-0.004,0-0.006C101.064,61.767,95.644,61.76,91.348,60.096z"/>
			<path fill="#C11414" d="M102.805,33.915c-2.497,0.971-5.289,1.564-8.251,1.667c-0.097,0.004-0.192,0.001-0.288,0.004
				c-0.208,0.609-0.407,1.254-0.598,1.928c0.924,0.067,1.867,0.089,2.824,0.055c2.543-0.088,4.96-0.539,7.175-1.278
				C103.395,35.434,103.107,34.639,102.805,33.915z"/>
			<path fill="#C11414" d="M94.208,54.21c4.339,0.878,8.565,0.609,12.181-0.558c-0.037-0.948-0.09-1.895-0.16-2.839
				c-3.875,1.542-8.589,1.996-13.445,1.014c-0.461-0.093-0.914-0.202-1.362-0.317c-0.042,0.645-0.077,1.291-0.103,1.938
				C92.251,53.75,93.214,54.009,94.208,54.21z"/>
			<path opacity="0.32" fill="#3D3D3D" enable-background="new    " d="M103.667,56.82c-1.534,7.342-6.841,7.481-10.968,7.215
				c3.698,5.537,13.416,4.169,13.683-4.177c0.046-1.041,0.07-2.104,0.07-3.184c0-8.095-1.332-16.715-3.358-22.035
				C103.848,41.294,104.738,51.695,103.667,56.82z"/>
		</g>
		<g>
			<ellipse fill="#6F960F" cx="99.547" cy="92.461" rx="17.236" ry="18.24"/>
			<circle fill="#FFFFFF" cx="99.547" cy="91.457" r="17.236"/>
			<path fill="#D3F5FF" d="M111.057,78.631c1.76,2.703,2.787,5.927,2.787,9.393c0,9.519-7.717,17.236-17.236,17.236
				c-4.424,0-8.458-1.669-11.51-4.409c3.075,4.72,8.396,7.843,14.449,7.843c9.519,0,17.236-7.717,17.236-17.236
				C116.783,86.363,114.571,81.786,111.057,78.631z"/>
			<circle id="eye" fill="#3D3D3D" cx="99.548" cy="94.979" r="3.521"/>
		</g>
		<g>
			<path fill="#6F960F" d="M126.082,110.171c0,0-5.122,5.094-8.378,5.461c-3.257,0.367-36.562,0.98-36.562,0.98l36.414,5.001
				l3.849-2.926L126.082,110.171z"/>
			<path fill="#9B1E27" d="M71.661,111.653c0,0,3.504,3.568,5.976,4.541c2.472,0.973,37.836,1.298,41.372,0
				c3.537-1.298,7.072-6.024,7.072-6.024s-3.083,18.188-5.108,22.08c-2.025,3.893-40.917,6.488-41.442,1.549
				C79.423,132.772,71.268,116.033,71.661,111.653z"/>
			<g>
				<polygon fill="#FFFFFF" points="80.132,116.51 82.958,123.755 84.061,120.564 114.388,120.564 115.146,122.979 117.006,116.51
									"/>
				<polygon fill="#D3F5FF" points="80.132,116.51 117.006,116.51 116.797,117.238 80.551,117.584 				"/>
				<polygon fill="#D3F5FF" points="82.958,123.755 83.97,119.069 85.531,120.564 84.061,120.564 				"/>
				<polygon fill="#D3F5FF" points="109.241,120.564 114.617,120.132 115.146,122.979 114.388,120.564 				"/>
			</g>
			<circle fill="#3D3D3D" cx="99.264" cy="126.836" r="4.68"/>
			<path fill="#B72B30" d="M99.966,126.522c-9.461,0-17.599,2.133-21.249,5.195c0.484,1.13,0.794,1.889,0.815,2.083
				c0.525,4.938,39.417,2.343,41.442-1.549c0.08-0.154,0.162-0.334,0.245-0.531C117.571,128.656,109.431,126.522,99.966,126.522z"/>
			<path fill="#7EB111" d="M124.924,111.569c-1.079,5.947-3.029,15.894-4.464,18.717c-1.844,3.629-33.349,6.189-41.039,3.142
				c0.066,0.181,0.105,0.307,0.111,0.372c0.525,4.938,39.417,2.343,41.442-1.549c2.025-3.893,5.108-22.08,5.108-22.08
				S125.644,110.756,124.924,111.569z"/>
		</g>
		<g>
			<path fill="#A4DB2F" d="M133.715,89.361c0,0,20.116-0.369,26.821-16.668c6.705-16.299,6.705-19.511,6.705-19.511l19.723,8.729
				c0,0-10.224,28.069-23.914,33.067c-13.69,4.998-30.662,5.278-30.662,5.278L133.715,89.361z"/>
			<g>
				<circle fill="#A4DB2F" cx="179.114" cy="57.626" r="21.372"/>
				<g>
					<circle fill="#6F960F" cx="178.747" cy="63.606" r="8.859"/>
					<circle fill="#6F960F" cx="168.16" cy="51.671" r="3.633"/>
					<circle fill="#6F960F" cx="181.628" cy="47.009" r="3.633"/>
					<circle fill="#6F960F" cx="193.572" cy="55.717" r="3.633"/>
					<circle fill="#6F960F" cx="191.758" cy="68.34" r="2.657"/>
				</g>
			</g>
		</g>
		<g>
			<path fill="#A4DB2F" d="M66.771,89.361c0,0-20.115-0.369-26.821-16.668c-6.705-16.299-6.705-19.511-6.705-19.511l-19.722,8.73
				c0,0,10.224,28.069,23.914,33.067c13.69,4.998,30.661,5.278,30.661,5.278L66.771,89.361z"/>
			<g>
				<circle fill="#A4DB2F" cx="21.372" cy="57.626" r="21.372"/>
				<g>
					<circle fill="#6F960F" cx="21.739" cy="63.606" r="8.859"/>
					<circle fill="#6F960F" cx="32.326" cy="51.671" r="3.633"/>
					<circle fill="#6F960F" cx="18.858" cy="47.009" r="3.633"/>
					<circle fill="#6F960F" cx="6.915" cy="55.717" r="3.633"/>
					<circle fill="#6F960F" cx="8.728" cy="68.34" r="2.657"/>
				</g>
			</g>
		</g>
		<path fill="#D2FC6B" d="M55.724,78.298l-0.389,5.127c1.258-0.496,2.962-1.531,4.086-3.676c1.969-3.76,0.608-10.51,5.509-15.776
			c4.901-5.265,6.715-5.786,6.716-5.786C62.548,60.348,55.724,68.562,55.724,78.298z"/>
	</g>
	<g>
		<path fill="#FFA900" d="M153.623,50.739c0,0,31.43-1.157,29.053,29.863l-8.352,9.197C174.324,89.8,142.533,80.646,153.623,50.739z
			"/>
		<path fill="#FFC552" d="M177.284,80.706c0,0-0.025-21.902-21.212-24.531c0,0-4.086,18.942,18.248,28.316L177.284,80.706z"/>
		<path fill="#FFA900" d="M242.76,49.864c0,0-31.433-1.088-28.989,29.925l8.371,9.181C222.144,88.971,253.914,79.748,242.76,49.864z
			"/>
		<path fill="#FFA900" d="M205.073,70.311h0.003c-5.202-3.35-0.008-7.557-0.008-7.557c-5.613,0.214-7.374,6.192-7.374,6.192
			c-1.565-3.792-8.009-3.993-8.009-3.993c4.473,1.969,3.167,5.882,3.167,5.882l0.003-0.001
			c-15.744,5.026-32.785,26.862-32.759,52.599c0.031,29.449,20.759,29.232,39.887,29.209c19.126-0.021,40.742,1.654,40.711-27.796
			c-0.019-19.163-12.712-37.793-22.578-47.182C214.213,73.953,209.799,71.397,205.073,70.311z"/>
		<path fill="#E8E8E8" d="M194.709,96.236c0.003,3.23-1.056,6.212-2.846,8.619c-2.573,2.397-6.026,3.865-9.821,3.868
			c-7.981,0.01-14.458-6.452-14.467-14.433c-0.004-3.217,1.047-6.195,2.826-8.6c2.577-2.407,6.035-3.882,9.842-3.887
			C188.224,81.795,194.7,88.256,194.709,96.236z"/>
		<path fill="#FFFFFF" d="M196.473,94.26c0.005,4.186-1.771,7.954-4.611,10.595c-2.573,2.397-6.026,3.865-9.821,3.868
			c-7.981,0.01-14.458-6.452-14.467-14.433c-0.004-3.217,1.047-6.195,2.826-8.6c2.628-3.555,6.848-5.862,11.61-5.867
			C189.991,79.817,196.465,86.28,196.473,94.26z"/>
		<path fill="#E8E8E8" d="M193.625,102.879c-2.624,3.543-6.839,5.84-11.588,5.845c-7.98,0.008-14.454-6.454-14.462-14.434
			c-0.005-4.175,1.76-7.936,4.587-10.576c-1.776,2.407-2.826,5.383-2.822,8.601c0.008,7.98,6.486,14.441,14.465,14.432
			C187.599,106.743,191.051,105.278,193.625,102.879z"/>
		<path fill="#441944" d="M213.829,134.617c-3.306,3.111-8.113,5.325-14.364,4.961c-4.706-0.276-8.402-2.424-11.063-5.262
			c-5.889-6.271-6.744-15.909-2.419-16.077c0,0,1.138-0.026,2.988-0.052c1.28-0.014,2.893-0.031,4.706-0.04
			c4.628-0.026,10.539,0.009,15.374,0.237c1.657,0.076,3.184,0.179,4.495,0.31c2.282,0.226,3.897,0.539,4.337,0.969
			C220.576,122.294,219.144,129.615,213.829,134.617z"/>
		<path fill="#FFFFFF" d="M193.676,118.147c-0.36,2.106-0.994,4.873-1.882,5.223c-0.975,0.385-2.152-2.948-2.824-5.183
			C190.25,118.172,191.864,118.156,193.676,118.147z"/>
		<path fill="#FFFFFF" d="M213.546,118.693c-0.681,2.198-1.748,5.007-2.651,4.656c-0.852-0.332-1.475-2.897-1.844-4.966
			C210.707,118.459,212.235,118.562,213.546,118.693z"/>
		<path fill="#FF6EB3" d="M213.829,134.617c-3.306,3.111-8.113,5.325-14.364,4.961c-4.706-0.276-8.402-2.424-11.063-5.262
			c2.594-1.565,7.205-2.608,12.459-2.614C206.477,131.697,211.355,132.876,213.829,134.617z"/>
		<circle fill="#201600" cx="183.789" cy="92.922" r="1.768"/>
		<path fill="#FFC552" d="M219.164,79.882c0,0-0.024-21.903,21.16-24.575c0,0,4.125,18.933-18.187,28.354L219.164,79.882z"/>
		<path fill="#FFFFFF" d="M235.297,94.22c0.004,4.185-1.768,7.953-4.608,10.595c-2.573,2.398-6.029,3.866-9.824,3.869
			c-7.98,0.006-14.457-6.453-14.465-14.434c-0.002-3.218,1.047-6.195,2.825-8.6c2.627-3.554,6.847-5.862,11.61-5.867
			C228.815,79.776,235.288,86.238,235.297,94.22z"/>
		<path fill="#E8E8E8" d="M232.45,102.838c-2.624,3.543-6.84,5.84-11.589,5.844c-7.98,0.009-14.454-6.452-14.462-14.432
			c-0.004-4.175,1.76-7.936,4.588-10.577c-1.776,2.407-2.828,5.384-2.825,8.601c0.009,7.98,6.486,14.442,14.467,14.433
			C226.424,106.702,229.878,105.236,232.45,102.838z"/>
		<circle fill="#201600" cx="223.913" cy="92.878" r="1.766"/>
	</g>
</g>
</svg>
