<?xml version="1.0" encoding="utf-8"?>
<!-- Generator: Adobe Illustrator 19.0.1, SVG Export Plug-In . SVG Version: 6.00 Build 0)  -->
<svg version="1.1" id="Layer_1" xmlns="http://www.w3.org/2000/svg" xmlns:xlink="http://www.w3.org/1999/xlink" x="0px" y="0px"
	 width="197.964px" height="163.425px" viewBox="0 0 197.964 163.425" enable-background="new 0 0 197.964 163.425"
	 xml:space="preserve">
<image display="none" overflow="visible" width="1298" height="354" xlink:href="E6E3FFA6.jpg"  transform="matrix(0.6142 0 0 0.6142 -548.4492 -45.6844)">
</image>
<g>
	<g>
		<g>
			<g>
				<path fill="#38CCE4" d="M149.146,28.77c0,0,10.689,2.854,17.32-2.845c6.631-5.699,1.105-14.718,12.157-16.744
					c11.052-2.026,18.419,0.032,16.393,1.879s-11.788,5.182-13.078,9.266s-2.042,11.323-3.684,15.237
					c-3.499,8.343-24.549,9.595-24.549,9.595L149.146,28.77z"/>
				<path fill="#10A0C1" d="M159.514,29.11c-0.489,0.093-0.975,0.166-1.456,0.222c0.424,1.402,1.027,3.243,1.886,5.655
					c1.898,5.326,4.441,7.397,5.962,8.19c0.709-0.186,1.419-0.39,2.121-0.611C163.779,40.889,160.935,33.702,159.514,29.11z"/>
				<path fill="#10A0C1" d="M174.492,35.552c1.247,0.335,2.375,0.57,3.402,0.738c0.134-0.237,0.257-0.478,0.361-0.727
					c0.126-0.301,0.246-0.627,0.362-0.964c-0.351-0.048-0.699-0.104-1.035-0.179c-3.388-0.753-10.371-4.733-11.114-8.495
					c-0.223,0.192-0.45,0.371-0.682,0.544C166.774,29.202,169.245,34.142,174.492,35.552z"/>
				<path fill="#10A0C1" d="M169.631,21.123c-0.041,0.119-0.087,0.238-0.131,0.356c2.241,1.197,6.787,2.95,11.839,1.101
					c0.093-0.401,0.189-0.788,0.287-1.158C179.677,21.895,174.928,22.704,169.631,21.123z"/>
				<path fill="#10A0C1" d="M184.482,17.227c-1.076-0.495-2.65-1.439-4.864-3.241c-2.155-1.754-3.521-2.949-4.387-3.751
					c-0.362,0.176-0.685,0.369-0.987,0.571c2.041,2.006,5.9,5.507,9.438,7.094C183.93,17.672,184.198,17.447,184.482,17.227z"/>
				<path fill="#10A0C1" d="M185.885,8.37c-0.398,0.014-0.806,0.033-1.224,0.059c0.091,0.274,0.188,0.564,0.293,0.888
					c0.515,1.585,2.822,3.985,3.993,5.132c0.333-0.178,0.664-0.352,0.991-0.522C187.793,12.4,186.525,9.958,185.885,8.37z"/>
				<path opacity="0.32" fill="#3D3D3D" enable-background="new    " d="M193.579,9.104c-1.004,0.992-2.521,2.107-4.773,2.989
					c-5.283,2.069-8.657,1.826-9.444,6.5s-3.996,15.642-12.067,18.51c-4.262,1.514-10.427,1.892-15.299,1.911l1.709,6.143
					c0,0,21.049-1.252,24.549-9.595c1.642-3.914,2.395-11.154,3.684-15.237c1.29-4.084,11.052-7.419,13.078-9.266
					C195.784,10.36,195.198,9.63,193.579,9.104z"/>
			</g>
			<g>
				<path fill="#38CCE4" d="M106.257,28.77c0,0-10.689,2.854-17.32-2.845S87.831,11.207,76.779,9.181S58.36,9.212,60.386,11.059
					c2.026,1.847,11.788,5.182,13.078,9.266s2.042,11.323,3.684,15.237c3.5,8.343,24.549,9.595,24.549,9.595L106.257,28.77z"/>
				<path fill="#10A0C1" d="M95.889,29.11c0.489,0.093,0.975,0.166,1.456,0.222c-0.424,1.402-1.027,3.243-1.886,5.655
					c-1.898,5.326-4.441,7.397-5.962,8.19c-0.709-0.186-1.418-0.39-2.121-0.611C91.624,40.889,94.468,33.702,95.889,29.11z"/>
				<path fill="#10A0C1" d="M80.911,35.552c-1.247,0.335-2.375,0.57-3.402,0.738c-0.135-0.237-0.257-0.478-0.361-0.727
					c-0.126-0.301-0.246-0.627-0.362-0.964c0.351-0.048,0.699-0.104,1.035-0.179c3.388-0.753,10.371-4.733,11.114-8.495
					c0.223,0.192,0.45,0.371,0.682,0.544C88.629,29.202,86.158,34.142,80.911,35.552z"/>
				<path fill="#10A0C1" d="M85.772,21.123c0.041,0.119,0.087,0.238,0.131,0.356c-2.241,1.197-6.787,2.95-11.839,1.101
					c-0.093-0.401-0.189-0.788-0.287-1.158C75.726,21.895,80.475,22.704,85.772,21.123z"/>
				<path fill="#10A0C1" d="M70.921,17.227c1.076-0.495,2.65-1.439,4.864-3.241c2.155-1.754,3.521-2.949,4.387-3.751
					c0.362,0.176,0.685,0.369,0.987,0.571c-2.041,2.006-5.9,5.507-9.438,7.094C71.473,17.672,71.205,17.447,70.921,17.227z"/>
				<path fill="#10A0C1" d="M69.518,8.37c0.398,0.014,0.806,0.033,1.224,0.059c-0.091,0.274-0.188,0.564-0.293,0.888
					c-0.515,1.585-2.822,3.985-3.993,5.132c-0.333-0.178-0.664-0.352-0.991-0.522C67.61,12.4,68.878,9.958,69.518,8.37z"/>
				<path opacity="0.32" fill="#3D3D3D" enable-background="new    " d="M61.824,9.104c1.004,0.992,2.521,2.107,4.773,2.989
					c5.283,2.069,8.657,1.826,9.444,6.5s3.996,15.642,12.067,18.51c4.262,1.514,10.427,1.892,15.299,1.911l-1.709,6.143
					c0,0-21.049-1.252-24.549-9.595c-1.642-3.914-2.395-11.154-3.684-15.237c-1.29-4.084-11.052-7.419-13.078-9.266
					C59.619,10.36,60.205,9.63,61.824,9.104z"/>
			</g>
			<g>
				<path fill="#AE2D95" d="M189.486,122.197c0.366-3.359,0.486-12.005-4.98-25.406c-7.173-17.584-25.43-28.618-25.43-28.618
					c-7.498-2.706,0.799,9.658,0.799,9.658c8.3,9.875,10.544,35.506,11.001,42.282c-2.536,2.16-4.139,5.28-4.139,8.762
					c0,6.517,5.583,11.8,12.471,11.8c6.887,0,12.471-5.283,12.471-11.8C191.678,126.395,190.866,124.097,189.486,122.197z"/>
				<path fill="#7F1576" d="M184.505,96.792c-0.641-1.57-1.372-3.085-2.168-4.547c0.056,0.211,3.757,14.141,4.232,18.071
					c0.478,3.96,0.982,13.859,0.982,13.859s1.229,3.017,0,7.26c-0.626,2.161-1.976,3.852-1.976,3.852l-3.509-2.909l-5.678,5.185
					l-0.798-6.128l-8.293,0.943c1.577,4.806,6.314,8.297,11.912,8.297c6.887,0,12.471-5.283,12.471-11.8
					c0-2.479-0.812-4.778-2.193-6.677C189.852,118.839,189.972,110.193,184.505,96.792z"/>
				<g>
					<g>
						<path fill="#38CCE4" d="M169.078,135.754l6.51-4.319c0,0,1.118,8.115,0.708,8.913s-5.392,5.983-13.562,8.812
							C162.734,149.16,168.547,140.262,169.078,135.754z"/>
						<path fill="#10A0C1" d="M175.588,131.435c0,0-2.292,6.977-3.388,9.239s-2.64,3.017-2.64,3.017l4.189-11.037L175.588,131.435z"
							/>
					</g>
					<g>
						<path fill="#38CCE4" d="M178.179,140.674l3.886-8.297c0,0,3.749,2.223,5.263,5.448c1.513,3.226-5.163,14.637-5.163,14.637
							L178.179,140.674z"/>
						<path fill="#10A0C1" d="M182.065,132.378c0,0,2.143,4.879,2.217,7.142c0.075,2.262,0,4.526,0,4.526l-2.956-10.09
							L182.065,132.378z"/>
					</g>
					<g>
						<path fill="#38CCE4" d="M188.243,137.004l0.598-7.666l2.801,0.424c0,0,7.142,6.718,6.245,15.485L188.243,137.004z"/>
						<path fill="#10A0C1" d="M188.841,129.337c0,0,2.765,1.555,3.662,3.041c0.897,1.485,2.541,4.596,2.541,4.596l-6.263-6.858
							L188.841,129.337z"/>
					</g>
				</g>
				<g>
					<ellipse fill="#6D1369" cx="180.514" cy="125.463" rx="6.055" ry="6.063"/>
					<ellipse fill="#FFFFFF" cx="180.514" cy="125.129" rx="6.055" ry="5.729"/>
					<path fill="#D3F5FF" d="M184.557,120.865c0.618,0.899,0.979,1.97,0.979,3.122c0,3.164-2.711,5.729-6.055,5.729
						c-1.554,0-2.971-0.555-4.043-1.466c1.08,1.569,2.949,2.607,5.076,2.607c3.344,0,6.055-2.565,6.055-5.729
						C186.569,123.435,185.792,121.914,184.557,120.865z"/>
					<ellipse fill="#3D3D3D" cx="180.514" cy="126.299" rx="1.237" ry="1.17"/>
				</g>
				<path fill="#7F1576" d="M170.876,120.113c0,0,1.681-1.17,3.583-1.453l-3.739-0.639L170.876,120.113z"/>
				<path fill="#7F1576" d="M161.492,80.065c0,0,1.598,2.249,2.854,5.76c0,0-0.594-5.986-1.427-7.754
					c-0.832-1.768-2.775-3.323-2.775-3.323L161.492,80.065z"/>
			</g>
			<g>
				<path fill="#AE2D95" d="M68.252,122.197c-0.366-3.359-0.487-12.005,4.98-25.406c7.173-17.584,25.43-28.618,25.43-28.618
					c7.498-2.706-0.799,9.658-0.799,9.658c-8.3,9.875-10.544,35.506-11.001,42.282c2.535,2.16,4.139,5.28,4.139,8.762
					c0,6.517-5.583,11.8-12.471,11.8c-6.887,0-12.471-5.283-12.471-11.8C66.059,126.395,66.871,124.097,68.252,122.197z"/>
				<path fill="#7F1576" d="M73.232,96.792c0.641-1.57,1.372-3.085,2.168-4.547c-0.056,0.211-3.757,14.141-4.232,18.071
					c-0.478,3.96-0.982,13.859-0.982,13.859s-1.229,3.017,0,7.26c0.626,2.161,1.976,3.852,1.976,3.852l3.509-2.909l5.678,5.185
					l0.798-6.128l8.293,0.943c-1.577,4.806-6.313,8.297-11.912,8.297c-6.887,0-12.471-5.283-12.471-11.8
					c0-2.479,0.812-4.778,2.193-6.677C67.885,118.839,67.765,110.193,73.232,96.792z"/>
				<g>
					<g>
						<path fill="#38CCE4" d="M88.659,135.754l-6.51-4.319c0,0-1.118,8.115-0.708,8.913c0.409,0.798,5.392,5.983,13.562,8.812
							C95.002,149.16,89.19,140.262,88.659,135.754z"/>
						<path fill="#10A0C1" d="M82.149,131.435c0,0,2.292,6.977,3.388,9.239c1.096,2.262,2.64,3.017,2.64,3.017l-4.189-11.037
							L82.149,131.435z"/>
					</g>
					<g>
						<path fill="#38CCE4" d="M79.558,140.674l-3.886-8.297c0,0-3.749,2.223-5.263,5.448c-1.513,3.226,5.163,14.637,5.163,14.637
							L79.558,140.674z"/>
						<path fill="#10A0C1" d="M75.672,132.378c0,0-2.143,4.879-2.217,7.142c-0.075,2.262,0,4.526,0,4.526l2.956-10.09
							L75.672,132.378z"/>
					</g>
					<g>
						<path fill="#38CCE4" d="M69.494,137.004l-0.598-7.666l-2.801,0.424c0,0-7.142,6.718-6.245,15.485L69.494,137.004z"/>
						<path fill="#10A0C1" d="M68.896,129.337c0,0-2.765,1.555-3.662,3.041c-0.897,1.485-2.541,4.596-2.541,4.596l6.263-6.858
							L68.896,129.337z"/>
					</g>
				</g>
				<g>
					<ellipse fill="#6D1369" cx="77.223" cy="125.463" rx="6.055" ry="6.063"/>
					<ellipse fill="#FFFFFF" cx="77.223" cy="125.129" rx="6.055" ry="5.729"/>
					<path fill="#D3F5FF" d="M73.18,120.865c-0.618,0.899-0.979,1.97-0.979,3.122c0,3.164,2.711,5.729,6.055,5.729
						c1.554,0,2.971-0.555,4.043-1.466c-1.08,1.569-2.949,2.607-5.076,2.607c-3.344,0-6.055-2.565-6.055-5.729
						C71.168,123.435,71.945,121.914,73.18,120.865z"/>
					<ellipse fill="#3D3D3D" cx="77.223" cy="126.299" rx="1.237" ry="1.17"/>
				</g>
				<path fill="#7F1576" d="M86.861,120.113c0,0-1.681-1.17-3.583-1.453l3.739-0.639L86.861,120.113z"/>
				<path fill="#7F1576" d="M96.245,80.065c0,0-1.598,2.249-2.853,5.76c0,0,0.595-5.986,1.427-7.754
					c0.832-1.768,2.775-3.323,2.775-3.323L96.245,80.065z"/>
			</g>
			<g>
				<path fill="#AE2D95" d="M162.236,86.874c0.02-2.488-0.257-4.914-0.783-7.253c-1.01-7.632-3.802-24.445-4.155-27.26
					C154.196,27.644,144.165,0,127.964,0S100.35,27.524,98.63,52.361c-0.168,2.431-1.65,18.741-2.38,28.253
					c-0.244,1.538-0.381,3.114-0.394,4.721c-0.003,0.301,0.01,0.599,0.016,0.899c-0.025,0.559-0.033,0.948-0.018,1.126
					c-1.133,2.515,4.144,38.116,15.893,59.443c6.499,11.796,13.3,2.687,13.152-5.02c0,0-0.409-8.703,8.611-7.495
					c8.982,1.202,8.914,10.421,9.522,13.93c0.368,2.121,4.14,6.082,9.772-0.848c6.069-7.469,9.337-44.983,9.307-58.017
					C162.18,88.533,162.23,87.709,162.236,86.874z"/>
				<path fill="#C152C1" d="M133.742,1.211C131.874,0.424,129.941,0,127.964,0c-13.379,0-24.307,19.47-27.832,40.618
					c14.379-28.711,16.131-30.732,23.505-36.693C126.649,1.489,130.275,0.904,133.742,1.211z"/>
				<path fill="#7F1576" d="M142.713,145.865c0.121,0.914,0.209,1.725,0.318,2.352c0.368,2.121,4.14,6.082,9.772-0.848
					c6.069-7.469,9.337-44.983,9.307-58.017c0.07-0.818,0.12-1.642,0.126-2.477c0.02-2.488-0.257-4.914-0.783-7.253
					c-1.01-7.632-3.802-24.445-4.155-27.26c0,0-1.065,47.269-1.359,61.632C155.573,131.831,148.75,141.386,142.713,145.865z"/>
				<path fill="#7F1576" d="M121.954,141.63c-0.648,3.347-3.495,7.285-9.399,6.52c6.241,9.683,12.485,1.02,12.343-6.368
					c0,0-0.162-3.527,2.047-5.779C126.945,136.003,122.781,137.355,121.954,141.63z"/>
			</g>
		</g>
		<g>
			<g>
				<path fill="#38CCE4" d="M105.495,79.534l1.157,12.002c0,1.509,0.781,2.743,1.735,2.743h43.225c0.954,0,1.735-1.235,1.735-2.743
					l1.157-12.002H105.495z"/>
				<path fill="#591059" d="M105.495,80.065l1.157,10.641c0,1.338,0.781,2.433,1.735,2.433h43.225c0.954,0,1.735-1.095,1.735-2.433
					l1.157-10.641H105.495z"/>
				<ellipse opacity="0.42" enable-background="new    " cx="130.331" cy="88.579" rx="10.15" ry="2.23"/>
				<polygon fill="#FFFFFF" points="108.006,80.065 111.326,88.579 112.622,84.829 148.256,84.829 149.146,87.667 151.333,80.065 
									"/>
				<polygon fill="#D3F5FF" points="108.006,80.065 151.333,80.065 151.087,80.921 108.498,81.328 				"/>
				<polygon fill="#D3F5FF" points="111.326,88.579 112.514,83.072 114.349,84.829 112.622,84.829 				"/>
				<polygon fill="#D3F5FF" points="142.208,84.829 148.525,84.322 149.146,87.667 148.256,84.829 				"/>
				<polygon fill="#FFFFFF" points="145.374,93.101 143.095,87.259 142.206,89.832 117.749,89.832 117.138,87.885 115.637,93.101 
									"/>
				<polygon fill="#D3F5FF" points="145.374,93.101 115.637,93.101 115.806,92.514 145.036,92.235 				"/>
				<polygon fill="#D3F5FF" points="143.095,87.259 142.279,91.038 141.02,89.832 142.206,89.832 				"/>
				<polygon fill="#D3F5FF" points="121.899,89.832 117.564,90.18 117.138,87.885 117.749,89.832 				"/>
			</g>
			<g>
				<ellipse fill="#6D1369" cx="129.998" cy="58.648" rx="12.663" ry="12.679"/>
				<ellipse fill="#FFFFFF" cx="129.998" cy="57.95" rx="12.663" ry="11.982"/>
				<path fill="#D3F5FF" d="M138.455,49.034c1.293,1.879,2.048,4.12,2.048,6.529c0,6.617-5.669,11.982-12.663,11.982
					c-3.25,0-6.214-1.16-8.456-3.065c2.259,3.281,6.168,5.452,10.615,5.452c6.993,0,12.663-5.364,12.663-11.982
					C142.661,54.409,141.037,51.227,138.455,49.034z"/>
				<ellipse fill="#3D3D3D" cx="129.998" cy="60.398" rx="2.587" ry="2.448"/>
			</g>
		</g>
	</g>
	<g>
		<g>
			<g>
				<path fill="#DD4A71" d="M10.114,108.7c-12.112,10.337-13.877,26.526-2.398,24.024c6.758-1.473,17.668-17.015,20.976-25.948
					C32,97.844,22.226,98.363,10.114,108.7z"/>
				<path fill="#C83458" d="M13.686,129.022c5.994-5.483,12.566-15.659,15.006-22.246c2.176-5.877-1.311-7.661-7.4-5.251
					c0,4.18-0.147,13.379-1.393,16.625C18.807,120.995,15.657,126.008,13.686,129.022z"/>
				<path fill="#DD4A71" d="M74.467,152.479c-11.362-2.754-27.829-2.926-39.638,0.606c-4.491,1.54-19.285,4.769-17.788-9.043
					c4.362-22.62,7.022-44.15,5.715-63.141c0-4.49,3.674-8.165,8.165-8.165l45.723-5.171c4.49,0,8.165,3.674,8.165,8.165
					c-1.574,20.044,1.866,43.665,6.532,68.313C93.382,157.242,79.584,153.814,74.467,152.479z"/>
				<path fill="#F26D96" d="M26.334,78.134c3.09-3.493,18.153-5.124,21.121-6.364c0.491-0.205,1.021-0.589,1.563-1.081
					l-18.097,2.047c-4.49,0-8.165,3.674-8.165,8.165c0.282,4.105,0.379,8.329,0.313,12.657
					C23.731,86.955,24.782,79.888,26.334,78.134z"/>
				<path fill="#C83458" d="M84.577,79.425c0,0-2.076,9.357-1.874,12.901c0.201,3.544,1.271,29.71,1.451,37.345
					c0.18,7.635,3.492,10.321-4.798,14.183c-8.29,3.862-43.558,9.081-49.092,7.492c-3.626-1.041-8.777,0.527-12.916-2.285
					c2.302,7.883,13.647,5.339,17.482,4.024c11.81-3.531,28.276-3.36,39.638-0.606c5.116,1.335,18.915,4.763,16.874-8.437
					C86.959,120.893,83.66,98.651,84.577,79.425L84.577,79.425z"/>
				<path fill="#DD4A71" d="M98.584,108.7c12.112,10.337,13.877,26.526,2.398,24.024c-6.758-1.473-17.668-17.015-20.976-25.948
					C76.699,97.844,86.473,98.363,98.584,108.7z"/>
				<path fill="#C83458" d="M107.941,122.264c-0.545,2.852-1.887,5.367-4.624,5.992c-4.761,1.088-14.37-6.049-14.378-6.056
					c4.054,5.341,8.59,9.771,12.044,10.523C107.897,134.231,110.004,128.956,107.941,122.264z"/>
			</g>
			<g>
				<ellipse fill="#C83458" cx="41.542" cy="93.514" rx="1.522" ry="2.046"/>
				<ellipse fill="#C83458" cx="60.247" cy="91.966" rx="1.522" ry="2.067"/>
				<circle fill="#3D3D3D" cx="41.542" cy="93.358" r="1.522"/>
				<circle fill="#3D3D3D" cx="60.247" cy="91.836" r="1.522"/>
			</g>
			<g>
				
					<ellipse transform="matrix(0.7164 -0.6976 0.6976 0.7164 -28.5453 74.8583)" fill="#C83458" cx="77.816" cy="72.545" rx="6.066" ry="6.474"/>
				<path fill="#CBDC1D" d="M82.941,76.514c0.605-0.534,1.208-1.093,1.806-1.675c7.17-6.982,13.061-16.764,10.567-19.326
					c-2.495-2.562-12.43,3.067-19.6,10.049c-0.599,0.583-1.173,1.171-1.723,1.761C68.915,73.187,77.196,81.729,82.941,76.514z"/>
				<path fill="#9FAC14" d="M92.385,65.602c-1.893-0.869-3.766-2.065-5.515-3.577c-1.106-0.956-2.097-1.984-2.967-3.054
					c-0.497,0.327-0.996,0.669-1.497,1.025c0.686,0.767,1.432,1.509,2.244,2.211c2.258,1.953,4.722,3.37,7.168,4.244
					C92.012,66.166,92.202,65.883,92.385,65.602z"/>
				<path fill="#9FAC14" d="M73.877,67.469c-0.608,0.74-1.011,1.518-1.236,2.306c1.822,3.084,4.85,5.91,8.669,7.837
					c0.557-0.259,1.105-0.619,1.631-1.097c0.001-0.001,0.002-0.002,0.003-0.003C78.724,74.299,75.508,70.988,73.877,67.469z"/>
				<path fill="#9FAC14" d="M95.192,60.334c-2.022-1-4.01-2.383-5.826-4.135c-0.059-0.057-0.115-0.116-0.174-0.174
					c-0.461,0.201-0.937,0.428-1.423,0.676c0.512,0.601,1.06,1.187,1.647,1.753c1.56,1.505,3.246,2.736,4.972,3.688
					C94.701,61.513,94.971,60.908,95.192,60.334z"/>
				<path fill="#9FAC14" d="M78.838,66.039c2.092,3.121,4.752,5.555,7.547,7.132c0.503-0.534,0.997-1.078,1.478-1.63
					c-3.157-1.533-6.209-4.164-8.55-7.657c-0.222-0.332-0.431-0.666-0.633-1.002c-0.382,0.322-0.761,0.65-1.135,0.982
					C77.93,64.597,78.358,65.323,78.838,66.039z"/>
				<path opacity="0.32" fill="#3D3D3D" enable-background="new    " d="M83.013,73.219c-4.98,3.026-8.21-0.138-10.515-2.799
					c-0.871,5.244,5.662,10.435,10.445,6.095c0.605-0.534,1.208-1.093,1.806-1.675c4.486-4.368,8.471-9.832,10.215-13.939
					C91.723,64.952,86.489,71.107,83.013,73.219z"/>
			</g>
			<g>
				<path fill="#C83458" d="M22.925,82.759c2.034,1.943,5.186,1.995,7.04,0.117s1.709-4.975-0.324-6.917
					c-2.034-1.943-5.186-1.995-7.04-0.117C20.746,77.72,20.891,80.817,22.925,82.759z"/>
				<path fill="#CBDC1D" d="M22.407,82.204c-0.509-0.446-1.019-0.912-1.526-1.396c-6.074-5.802-11.274-13.728-9.42-15.606
					s10.062,3.003,16.136,8.805c0.507,0.485,0.995,0.972,1.464,1.459C33.41,80.293,27.255,86.557,22.407,82.204z"/>
				<path fill="#9FAC14" d="M14.318,73.222c1.463-0.585,2.893-1.427,4.208-2.523c0.832-0.693,1.568-1.446,2.206-2.239
					c0.413,0.28,0.829,0.571,1.246,0.873c-0.506,0.566-1.063,1.108-1.673,1.616c-1.698,1.414-3.588,2.4-5.491,2.963
					C14.645,73.681,14.479,73.451,14.318,73.222z"/>
				<path fill="#9FAC14" d="M29.16,75.586c0.523,0.607,0.884,1.235,1.104,1.861c-1.291,2.319-3.558,4.376-6.501,5.694
					c-0.457-0.23-0.912-0.538-1.356-0.936c-0.001-0.001-0.002-0.002-0.003-0.002C25.653,80.682,28.043,78.254,29.16,75.586z"/>
				<path fill="#9FAC14" d="M11.809,68.972c1.559-0.682,3.071-1.664,4.427-2.943c0.044-0.042,0.085-0.085,0.129-0.127
					c0.378,0.18,0.769,0.38,1.169,0.597c-0.377,0.444-0.783,0.875-1.221,1.288c-1.165,1.098-2.444,1.977-3.77,2.636
					C12.261,69.916,12.015,69.431,11.809,68.972z"/>
				<path fill="#9FAC14" d="M25.134,74.227c-1.505,2.334-3.498,4.104-5.643,5.199c-0.429-0.442-0.85-0.89-1.262-1.344
					c2.436-1.042,4.731-2.947,6.415-5.559c0.16-0.248,0.309-0.499,0.453-0.751c0.321,0.27,0.64,0.545,0.955,0.823
					C25.783,73.145,25.479,73.692,25.134,74.227z"/>
				<path opacity="0.32" fill="#3D3D3D" enable-background="new    " d="M22.18,79.628c4.124,2.606,6.534,0.295,8.232-1.671
					c0.966,4.137-3.97,7.87-8.005,4.247c-0.509-0.446-1.019-0.912-1.526-1.396c-3.8-3.63-7.258-8.091-8.86-11.383
					C14.812,72.747,19.301,77.809,22.18,79.628z"/>
			</g>
			<g>
				<g>
					<path fill="#C83458" d="M66.188,151.795c-7.487-1.809-18.338-1.922-26.121,0.398c-2.96,1.012-12.708,3.133-11.722-5.941
						c2.874-14.86,4.628-29.004,3.766-41.48c0-2.95,2.421-5.364,5.381-5.364l30.131-3.397c2.959,0,5.381,2.414,5.381,5.364
						c-1.037,13.168,1.23,28.685,4.305,44.877C78.653,154.923,69.559,152.672,66.188,151.795z"/>
					<path fill="#B22B52" d="M66.93,152.544c-7.391-1.809-18.105-1.922-25.788,0.398c-2.922,1.012-12.546,3.133-11.573-5.941
						c2.838-14.86,4.568-29.004,3.718-41.48c0-2.95,2.39-5.364,5.312-5.364l29.747-3.397c2.922,0,5.312,2.414,5.312,5.364
						c-1.024,13.168,1.214,28.685,4.249,44.877C79.235,155.673,70.258,153.421,66.93,152.544z"/>
					<circle fill="#3D3D3D" cx="54.793" cy="135.716" r="9.679"/>
					<path opacity="0.32" fill="#3D3D3D" enable-background="new    " d="M41.142,152.942c7.683-2.32,18.396-2.207,25.788-0.398
						c3.329,0.877,12.306,3.129,10.978-5.543c-1.876-10.007-3.445-19.754-4.13-28.851c-0.599,5.128-0.101,11.9-2.236,12.76
						c-6.253,2.518-22.625,6.535-24.086,5.852c-1.535-0.719-9.734-2.701-11.975-1.565c-1.396,0.708-2.029-7.04-2.587-10.742
						c-0.668,7.231-1.843,14.79-3.324,22.547C28.595,156.075,38.22,153.954,41.142,152.942z"/>
					<polygon fill="#FFFFFF" points="38.599,100.157 41.542,105.806 43.063,104.101 63.002,103.524 65.248,106.906 67.892,96.812 
											"/>
					<path fill="#D3F5FF" d="M38.956,100.842c4.66-0.477,22.858-2.078,28.555-2.577l0.381-1.453l-29.293,3.345L38.956,100.842z"/>
					<polygon fill="#D3F5FF" points="42.083,105.199 43.063,102.707 44.751,104.052 43.063,104.101 					"/>
					<polygon fill="#D3F5FF" points="55.657,103.736 63.411,103.014 64.772,106.189 63.002,103.524 					"/>
					<path fill="#D3F5FF" d="M66.66,101.517c0.003-0.012,1.233-4.705,1.233-4.705l-1.366,0.156
						C66.527,96.968,66.656,101.529,66.66,101.517z"/>
				</g>
				<g>
					<path fill="#F1BB82" d="M76.435,138.771c0,0-4.961-4.526-12.037-4.526c-7.076,0-13.608,4.526-13.608,4.526
						s-9.526-4.899-15.785-2.263c-6.26,2.636-16.473,15.972-12.863,21.959c3.61,5.987,17.218,5.715,25.11,3.538
						c7.893-2.177,17.146-3.81,20.412-3.266c3.266,0.545,11.717-0.102,11.692-8.369C79.349,148.141,78.441,140.242,76.435,138.771z"
						/>
					<path fill="#E0914D" d="M79.356,150.37c-0.006-2.043-0.771-8.849-2.444-11.102c0.394,3.666,0.885,9.935-0.029,12.327
						c-1.327,3.47-10.022,0.15-12.411,0.432c-2.388,0.282-19.636,8.243-26.883,8.549c-4.678,0.198-11.056-1.186-15.842-2.958
						c0.108,0.295,0.232,0.581,0.393,0.848c3.61,5.987,17.218,5.715,25.111,3.538c7.893-2.177,17.146-3.81,20.412-3.266
						C70.929,159.283,79.38,158.637,79.356,150.37z"/>
					<path fill="#C6773C" d="M77.087,155.269c-2.086,2.466-6.124,2.347-7.654,2.245c-1.531-0.102-7.042-0.527-9.39,0.042
						c-1.953,0.474-13.931,4.219-17.906,5.466c1.843-0.247,3.586-0.596,5.114-1.018c7.893-2.177,17.146-3.81,20.412-3.266
						c3.266,0.545,11.717-0.102,11.692-8.369c-0.003-0.945-0.168-2.911-0.511-4.973C78.847,145.44,79.167,152.81,77.087,155.269z"/>
					<path fill="#E0914D" d="M48.133,137.616c-0.986,1.2-2.378,3.142-3.019,5.201c-1.049,3.368-0.993,7.144-0.993,7.144
						s0-2.245,1.735-5.001c1.735-2.756,4.933-6.19,4.933-6.19S49.748,138.236,48.133,137.616z"/>
					<path fill="#F9CFAA" d="M42.137,135.962c-2.416-0.376-4.969-0.365-7.133,0.545c-4.112,1.731-9.93,8.081-12.415,13.931
						c2.799-3.9,6.806-9.114,9.591-11.17C36.869,135.806,42.128,135.961,42.137,135.962z"/>
				</g>
			</g>
		</g>
	</g>
</g>
</svg>
