<svg version="1.1" xmlns="http://www.w3.org/2000/svg" xmlns:xlink="http://www.w3.org/1999/xlink" width="208" height="105" viewBox="0 0 208 105">
<g id="advantages_3">
<path id="Rounded-Rectangl" d="M16.375,40.000 C16.375,40.000 53.344,40.000 53.344,40.000 C57.486,40.000 60.844,43.358 60.844,47.500 C60.844,51.642 57.486,55.000 53.344,55.000 C53.344,55.000 16.375,55.000 16.375,55.000 C12.233,55.000 8.875,51.642 8.875,47.500 C8.875,43.358 12.233,40.000 16.375,40.000 z" fill="#C8D8EB" />
<path id="Rounded-Rectangl" d="M40.062,62.500 C40.062,66.642 43.420,70.000 47.563,70.000 C47.563,70.000 15.625,70.000 15.625,70.000 C15.624,70.000 15.622,70.000 15.621,70.000 C15.621,70.000 18.528,70.000 18.528,70.000 C22.627,70.000 25.950,66.642 25.950,62.500 C25.950,58.360 22.630,55.003 18.534,55.000 C18.534,55.000 47.563,55.000 47.563,55.000 C43.420,55.000 40.062,58.358 40.062,62.500 z" fill="#C8D8EB" />
<path id="Rounded-Rectangl" d="M8.219,70.000 C8.219,70.000 45.156,70.000 45.156,70.000 C49.298,70.000 52.656,73.358 52.656,77.500 C52.656,81.642 49.298,85.000 45.156,85.000 C45.156,85.000 8.219,85.000 8.219,85.000 C4.077,85.000 0.719,81.642 0.719,77.500 C0.719,73.358 4.077,70.000 8.219,70.000 z" fill="#C8D8EB" />
<path id="Rounded-Rectangl" d="M50.000,21.000 C50.000,21.000 60.000,21.000 60.000,21.000 C63.866,21.000 67.000,24.134 67.000,28.000 C67.000,31.866 63.866,35.000 60.000,35.000 C60.000,35.000 50.000,35.000 50.000,35.000 C46.134,35.000 43.000,31.866 43.000,28.000 C43.000,24.134 46.134,21.000 50.000,21.000 z" fill="#C8D8EB" />
<path id="Rounded-Rectangl" d="M163.000,67.000 C163.000,67.000 173.000,67.000 173.000,67.000 C176.866,67.000 180.000,70.134 180.000,74.000 C180.000,77.866 176.866,81.000 173.000,81.000 C173.000,81.000 163.000,81.000 163.000,81.000 C159.134,81.000 156.000,77.866 156.000,74.000 C156.000,70.134 159.134,67.000 163.000,67.000 z" fill="#C8D8EB" />
<path id="Rounded-Rectangl" d="M139.000,67.000 C139.000,67.000 143.000,67.000 143.000,67.000 C146.866,67.000 150.000,70.134 150.000,74.000 C150.000,77.866 146.866,81.000 143.000,81.000 C143.000,81.000 139.000,81.000 139.000,81.000 C135.134,81.000 132.000,77.866 132.000,74.000 C132.000,70.134 135.134,67.000 139.000,67.000 z" fill="#C8D8EB" />
<path id="Rounded-Rectangl" d="M151.854,18.000 C151.854,18.000 187.865,18.000 187.865,18.000 C191.823,18.000 195.031,21.209 195.031,25.167 C195.031,25.167 195.031,25.177 195.031,25.177 C195.031,29.135 191.823,32.344 187.865,32.344 C187.865,32.344 151.854,32.344 151.854,32.344 C147.896,32.344 144.688,29.135 144.688,25.177 C144.688,25.177 144.688,25.167 144.688,25.167 C144.688,21.209 147.896,18.000 151.854,18.000 z" fill="#C8D8EB" />
<path id="Rounded-Rectangl" d="M180.656,39.167 C180.656,39.167 180.656,39.833 180.656,39.833 C180.656,43.791 183.865,47.000 187.823,47.000 C187.823,47.000 163.177,47.000 163.177,47.000 C167.135,47.000 170.344,43.791 170.344,39.833 C170.344,39.833 170.344,39.167 170.344,39.167 C170.344,35.209 167.135,32.000 163.177,32.000 C163.177,32.000 187.823,32.000 187.823,32.000 C183.865,32.000 180.656,35.209 180.656,39.167 z" fill="#C8D8EB" />
<path id="Rounded-Rectangl" d="M164.104,46.656 C164.104,46.656 200.115,46.656 200.115,46.656 C204.073,46.656 207.281,49.865 207.281,53.823 C207.281,53.823 207.281,53.833 207.281,53.833 C207.281,57.791 204.073,61.000 200.115,61.000 C200.115,61.000 164.104,61.000 164.104,61.000 C160.146,61.000 156.938,57.791 156.938,53.833 C156.938,53.833 156.938,53.823 156.938,53.823 C156.938,49.865 160.146,46.656 164.104,46.656 z" fill="#C8D8EB" />
<path id="Shape-1" d="M143.670,87.148 C141.260,89.558 138.638,91.679 135.854,93.509 C135.854,93.509 140.335,102.467 140.335,102.467 C140.768,103.332 140.416,104.382 139.551,104.816 C139.301,104.940 139.033,104.999 138.771,104.999 C138.128,104.999 137.510,104.646 137.202,104.032 C137.202,104.032 132.849,95.326 132.849,95.326 C125.641,99.349 117.495,101.500 109.012,101.500 C100.530,101.500 92.384,99.349 85.177,95.324 C85.177,95.324 80.822,104.032 80.822,104.032 C80.514,104.646 79.897,105.000 79.254,105.000 C78.991,105.000 78.724,104.940 78.473,104.816 C77.608,104.382 77.257,103.332 77.689,102.467 C77.689,102.467 82.172,93.507 82.172,93.507 C79.387,91.679 76.767,89.558 74.357,87.148 C69.125,81.917 65.232,75.754 62.790,68.827 C62.468,67.915 62.946,66.916 63.858,66.594 C64.770,66.272 65.769,66.752 66.091,67.664 C68.358,74.091 71.973,79.816 76.832,84.674 C79.291,87.132 81.990,89.262 84.862,91.070 C85.006,91.099 85.153,91.115 85.290,91.184 C85.540,91.309 85.732,91.495 85.890,91.705 C92.821,95.807 100.747,98.000 109.012,98.000 C117.278,98.000 125.203,95.808 132.133,91.706 C132.291,91.497 132.483,91.309 132.735,91.183 C132.874,91.115 133.021,91.098 133.166,91.068 C136.038,89.261 138.736,87.132 141.195,84.673 C158.937,66.934 158.937,38.068 141.193,20.326 C132.597,11.734 121.169,7.000 109.012,7.000 C96.856,7.000 85.428,11.733 76.832,20.326 C71.976,25.182 68.363,30.903 66.095,37.333 C65.774,38.244 64.772,38.723 63.863,38.400 C62.951,38.078 62.471,37.078 62.794,36.167 C65.237,29.242 69.126,23.080 74.357,17.851 C83.199,9.010 94.827,3.976 107.262,3.541 C107.262,3.541 107.262,1.750 107.262,1.750 C107.262,0.784 108.046,-0.000 109.012,-0.000 C109.978,-0.000 110.763,0.784 110.763,1.750 C110.763,1.750 110.763,3.542 110.763,3.542 C123.197,3.976 134.825,9.011 143.668,17.851 C162.777,36.958 162.777,68.043 143.670,87.148 zM58.251,45.500 C58.251,45.500 54.750,45.500 54.750,45.500 C53.784,45.500 53.000,44.715 53.000,43.750 C53.000,42.784 53.784,42.000 54.750,42.000 C54.750,42.000 58.251,42.000 58.251,42.000 C59.217,42.000 60.001,42.784 60.001,43.750 C60.001,44.715 59.217,45.500 58.251,45.500 zM56.501,52.499 C56.501,51.533 57.285,50.750 58.251,50.750 C58.251,50.750 67.412,50.750 67.412,50.750 C67.412,50.750 63.752,44.651 63.752,44.651 C63.427,44.110 63.418,43.436 63.730,42.887 C64.039,42.339 64.622,42.000 65.253,42.000 C65.253,42.000 71.979,42.000 71.979,42.000 C73.763,35.702 77.120,29.939 81.783,25.277 C89.056,18.006 98.727,14.000 109.012,14.000 C119.297,14.000 128.968,18.006 136.241,25.277 C151.256,40.287 151.256,64.713 136.243,79.724 C128.970,86.994 119.299,91.000 109.014,91.000 C98.729,91.000 89.058,86.994 81.783,79.723 C78.627,76.567 76.068,72.938 74.179,68.937 C73.766,68.062 74.141,67.020 75.016,66.608 C75.890,66.197 76.933,66.570 77.346,67.443 C79.061,71.079 81.387,74.378 84.258,77.248 C90.871,83.858 99.663,87.499 109.014,87.499 C118.364,87.499 127.155,83.859 133.768,77.250 C147.415,63.601 147.414,41.397 133.766,27.751 C127.153,21.142 118.363,17.500 109.012,17.500 C99.661,17.500 90.871,21.142 84.258,27.751 C80.253,31.755 77.295,36.645 75.613,41.999 C75.613,41.999 81.006,41.999 81.006,41.999 C81.538,41.999 82.041,42.241 82.373,42.656 C82.373,42.656 82.667,43.023 82.667,43.023 C84.056,39.163 86.273,35.638 89.211,32.702 C94.499,27.413 101.532,24.499 109.013,24.499 C116.494,24.499 123.527,27.413 128.815,32.702 C139.735,43.618 139.735,61.382 128.815,72.299 C123.527,77.587 116.494,80.499 109.013,80.499 C101.531,80.499 94.498,77.585 89.211,72.297 C87.395,70.484 85.844,68.442 84.596,66.230 C84.124,65.388 84.422,64.321 85.263,63.846 C86.109,63.372 87.173,63.671 87.647,64.513 C88.738,66.448 90.096,68.235 91.685,69.822 C96.313,74.450 102.466,76.999 109.012,76.999 C115.559,76.999 121.711,74.451 126.339,69.824 C135.895,60.271 135.895,44.729 126.339,35.176 C121.711,30.549 115.559,27.999 109.012,27.999 C102.466,27.999 96.313,30.549 91.685,35.176 C88.585,38.273 86.403,42.118 85.309,46.327 C85.309,46.327 88.848,50.749 88.848,50.749 C88.848,50.749 91.598,50.749 91.598,50.749 C91.992,46.738 93.744,43.018 96.635,40.125 C103.460,33.303 114.565,33.303 121.389,40.125 C128.214,46.950 128.214,58.052 121.389,64.873 C117.978,68.286 113.495,69.990 109.012,69.990 C104.529,69.990 100.049,68.286 96.635,64.873 C95.221,63.459 94.071,61.837 93.219,60.052 C92.800,59.181 93.170,58.136 94.041,57.718 C94.909,57.303 95.958,57.670 96.376,58.542 C97.059,59.970 97.978,61.267 99.110,62.399 C104.570,67.857 113.455,67.857 118.914,62.399 C124.374,56.940 124.374,48.059 118.914,42.599 C113.455,37.143 104.572,37.145 99.110,42.599 C96.882,44.829 95.512,47.674 95.132,50.749 C95.132,50.749 102.261,50.749 102.261,50.749 C102.567,49.552 103.164,48.448 104.060,47.550 C105.384,46.229 107.143,45.499 109.012,45.499 C110.883,45.499 112.641,46.229 113.962,47.550 C116.693,50.278 116.695,54.722 113.964,57.450 C112.643,58.770 110.883,59.499 109.012,59.499 C108.046,59.499 107.262,58.717 107.262,57.749 C107.262,56.783 108.044,55.999 109.012,55.999 C109.949,55.999 110.829,55.636 111.489,54.974 C112.149,54.314 112.513,53.436 112.513,52.499 C112.513,51.565 112.149,50.687 111.487,50.025 C110.826,49.364 109.947,48.999 109.012,48.999 C108.077,48.999 107.199,49.364 106.537,50.025 C106.320,50.242 106.147,50.490 105.996,50.750 C105.996,50.750 109.012,50.750 109.012,50.750 C109.978,50.750 110.763,51.533 110.763,52.499 C110.763,53.466 109.978,54.249 109.012,54.249 C109.012,54.249 103.766,54.249 103.766,54.249 L103.763,54.249 L103.759,54.249 C103.759,54.249 93.495,54.249 93.495,54.249 C93.417,54.260 93.348,54.297 93.266,54.297 C93.266,54.297 93.261,54.297 93.261,54.297 C93.178,54.297 93.107,54.260 93.028,54.249 C93.028,54.249 88.850,54.249 88.850,54.249 C88.850,54.249 82.373,62.343 82.373,62.343 C82.041,62.758 81.538,62.999 81.006,62.999 C81.006,62.999 65.253,62.999 65.253,62.999 C64.623,62.999 64.040,62.660 63.730,62.112 C63.418,61.563 63.427,60.889 63.753,60.348 C63.753,60.348 67.413,54.249 67.413,54.249 C67.413,54.249 58.251,54.249 58.251,54.249 C57.285,54.249 56.501,53.466 56.501,52.499 zM79.256,54.249 C79.256,54.249 71.494,54.249 71.494,54.249 L68.344,59.500 L80.166,59.500 L85.765,52.499 L80.166,45.500 L68.344,45.500 L71.494,50.750 C71.494,50.750 79.256,50.750 79.256,50.750 C80.222,50.750 81.006,51.533 81.006,52.499 C81.006,53.466 80.222,54.249 79.256,54.249 zM54.750,59.500 C54.750,59.500 58.251,59.500 58.251,59.500 C59.217,59.500 60.001,60.283 60.001,61.249 C60.001,62.215 59.217,62.999 58.251,62.999 C58.251,62.999 54.750,62.999 54.750,62.999 C53.784,62.999 53.000,62.215 53.000,61.249 C53.000,60.283 53.784,59.500 54.750,59.500 z" fill="#47546A" />
</g>
</svg>
