<svg version="1.1" xmlns="http://www.w3.org/2000/svg" xmlns:xlink="http://www.w3.org/1999/xlink" width="208" height="105" viewBox="0 0 208 105">
<g id="advantages_2">
<path id="Rounded-Rectangl" d="M16.375,40.000 C16.375,40.000 53.344,40.000 53.344,40.000 C57.486,40.000 60.844,43.358 60.844,47.500 C60.844,51.642 57.486,55.000 53.344,55.000 C53.344,55.000 16.375,55.000 16.375,55.000 C12.233,55.000 8.875,51.642 8.875,47.500 C8.875,43.358 12.233,40.000 16.375,40.000 z" fill="#C8D8EB" />
<path id="Rounded-Rectangl" d="M40.062,62.500 C40.062,66.642 43.420,70.000 47.562,70.000 C47.562,70.000 15.625,70.000 15.625,70.000 C15.624,70.000 15.622,70.000 15.621,70.000 C15.621,70.000 18.528,70.000 18.528,70.000 C22.627,70.000 25.950,66.642 25.950,62.500 C25.950,58.360 22.630,55.003 18.534,55.000 C18.534,55.000 47.562,55.000 47.562,55.000 C43.420,55.000 40.062,58.358 40.062,62.500 z" fill="#C8D8EB" />
<path id="Rounded-Rectangl" d="M8.219,70.000 C8.219,70.000 45.156,70.000 45.156,70.000 C49.298,70.000 52.656,73.358 52.656,77.500 C52.656,81.642 49.298,85.000 45.156,85.000 C45.156,85.000 8.219,85.000 8.219,85.000 C4.077,85.000 0.719,81.642 0.719,77.500 C0.719,73.358 4.077,70.000 8.219,70.000 z" fill="#C8D8EB" />
<path id="Rounded-Rectangl" d="M50.000,21.000 C50.000,21.000 60.000,21.000 60.000,21.000 C63.866,21.000 67.000,24.134 67.000,28.000 C67.000,31.866 63.866,35.000 60.000,35.000 C60.000,35.000 50.000,35.000 50.000,35.000 C46.134,35.000 43.000,31.866 43.000,28.000 C43.000,24.134 46.134,21.000 50.000,21.000 z" fill="#C8D8EB" />
<path id="Rounded-Rectangl" d="M163.000,67.000 C163.000,67.000 173.000,67.000 173.000,67.000 C176.866,67.000 180.000,70.134 180.000,74.000 C180.000,77.866 176.866,81.000 173.000,81.000 C173.000,81.000 163.000,81.000 163.000,81.000 C159.134,81.000 156.000,77.866 156.000,74.000 C156.000,70.134 159.134,67.000 163.000,67.000 z" fill="#C8D8EB" />
<path id="Rounded-Rectangl" d="M139.000,67.000 C139.000,67.000 143.000,67.000 143.000,67.000 C146.866,67.000 150.000,70.134 150.000,74.000 C150.000,77.866 146.866,81.000 143.000,81.000 C143.000,81.000 139.000,81.000 139.000,81.000 C135.134,81.000 132.000,77.866 132.000,74.000 C132.000,70.134 135.134,67.000 139.000,67.000 z" fill="#C8D8EB" />
<path id="Rounded-Rectangl" d="M151.854,18.000 C151.854,18.000 187.865,18.000 187.865,18.000 C191.823,18.000 195.031,21.209 195.031,25.167 C195.031,25.167 195.031,25.177 195.031,25.177 C195.031,29.135 191.823,32.344 187.865,32.344 C187.865,32.344 151.854,32.344 151.854,32.344 C147.896,32.344 144.688,29.135 144.688,25.177 C144.688,25.177 144.688,25.167 144.688,25.167 C144.688,21.209 147.896,18.000 151.854,18.000 z" fill="#C8D8EB" />
<path id="Rounded-Rectangl" d="M180.656,39.167 C180.656,39.167 180.656,39.833 180.656,39.833 C180.656,43.791 183.865,47.000 187.823,47.000 C187.823,47.000 163.177,47.000 163.177,47.000 C167.135,47.000 170.344,43.791 170.344,39.833 C170.344,39.833 170.344,39.167 170.344,39.167 C170.344,35.209 167.135,32.000 163.177,32.000 C163.177,32.000 187.823,32.000 187.823,32.000 C183.865,32.000 180.656,35.209 180.656,39.167 z" fill="#C8D8EB" />
<path id="Rounded-Rectangl" d="M164.104,46.656 C164.104,46.656 200.115,46.656 200.115,46.656 C204.073,46.656 207.281,49.865 207.281,53.823 C207.281,53.823 207.281,53.833 207.281,53.833 C207.281,57.791 204.073,61.000 200.115,61.000 C200.115,61.000 164.104,61.000 164.104,61.000 C160.146,61.000 156.938,57.791 156.938,53.833 C156.938,53.833 156.938,53.823 156.938,53.823 C156.938,49.865 160.146,46.656 164.104,46.656 z" fill="#C8D8EB" />
<path id="Shape-1" d="M108.750,66.500 C108.750,66.500 115.750,66.500 115.750,66.500 C116.718,66.500 117.500,67.284 117.500,68.250 C117.500,69.218 116.718,70.000 115.750,70.000 C115.750,70.000 114.000,70.000 114.000,70.000 C114.000,70.967 113.218,71.750 112.250,71.750 C111.282,71.750 110.500,70.967 110.500,70.000 C110.500,70.000 108.750,70.000 108.750,70.000 C107.782,70.000 107.000,69.218 107.000,68.250 C107.000,67.284 107.782,66.500 108.750,66.500 zM96.500,70.000 C96.500,70.967 95.718,71.750 94.750,71.750 C93.782,71.750 93.000,70.967 93.000,70.000 C93.000,70.000 91.250,70.000 91.250,70.000 C90.282,70.000 89.500,69.218 89.500,68.250 C89.500,67.284 90.282,66.500 91.250,66.500 C91.250,66.500 98.250,66.500 98.250,66.500 C99.218,66.500 100.000,67.284 100.000,68.250 C100.000,69.218 99.218,70.000 98.250,70.000 C98.250,70.000 96.500,70.000 96.500,70.000 zM107.534,86.243 C108.232,85.590 109.331,85.608 109.998,86.295 C110.661,86.982 110.663,88.063 109.987,88.739 C109.756,88.969 107.607,91.000 103.500,91.000 C99.393,91.000 97.244,88.970 97.013,88.739 C96.328,88.054 96.328,86.947 97.013,86.263 C97.692,85.585 98.789,85.580 99.470,86.247 C99.561,86.329 100.880,87.500 103.500,87.500 C106.156,87.500 107.478,86.295 107.534,86.243 zM131.015,76.847 C129.738,80.167 125.519,90.877 122.456,95.471 C122.456,95.471 122.180,95.889 122.180,95.889 C119.933,99.298 116.172,105.000 103.500,105.000 C90.828,105.000 87.067,99.298 84.821,95.889 C84.821,95.889 84.545,95.471 84.545,95.471 C81.482,90.877 77.263,80.167 75.985,76.847 C73.700,76.278 72.001,74.208 72.001,71.750 C72.001,71.750 72.001,64.750 72.001,64.750 C72.001,61.855 74.356,59.500 77.251,59.500 C78.219,59.500 79.001,60.283 79.001,61.249 C79.015,61.794 79.172,62.418 79.730,62.756 C81.156,59.263 82.501,53.591 82.501,50.749 C82.501,49.783 83.283,48.999 84.250,48.999 C95.174,48.999 111.703,47.092 114.249,42.850 C114.655,42.175 115.465,41.852 116.216,42.064 C116.975,42.274 117.500,42.964 117.500,43.750 C117.500,49.953 123.923,56.448 123.988,56.512 C124.672,57.197 124.672,58.305 123.988,58.989 C123.303,59.671 122.196,59.671 121.513,58.989 C121.252,58.730 116.085,53.497 114.475,47.281 C107.375,51.713 91.417,52.386 85.900,52.484 C85.496,56.443 83.918,62.328 82.315,65.534 C82.019,66.127 81.413,66.500 80.750,66.500 C78.170,66.500 76.693,65.093 75.997,63.530 C75.689,63.845 75.500,64.276 75.500,64.750 C75.500,64.750 75.500,71.750 75.500,71.750 C75.500,72.716 76.284,73.500 77.250,73.500 C77.980,73.500 78.633,73.953 78.888,74.635 C78.941,74.775 84.108,88.507 87.456,93.530 C87.456,93.530 87.743,93.962 87.743,93.962 C89.840,97.144 92.713,101.500 103.500,101.500 C114.287,101.500 117.160,97.144 119.257,93.962 C119.257,93.962 119.544,93.530 119.544,93.530 C122.892,88.507 128.060,74.775 128.110,74.635 C128.368,73.953 129.020,73.499 129.750,73.499 C130.716,73.499 131.500,72.716 131.500,71.750 C131.500,71.750 131.500,64.750 131.500,64.750 C131.500,63.785 130.716,63.000 129.750,63.000 C128.782,63.000 128.000,62.218 128.000,61.250 C128.000,61.250 128.000,50.750 128.000,50.750 C127.998,50.136 127.809,35.602 115.451,33.507 C114.497,33.346 113.856,32.443 114.017,31.489 C114.178,30.535 115.083,29.888 116.035,30.056 C131.323,32.648 131.500,50.570 131.500,50.750 C131.500,50.750 131.500,59.801 131.500,59.801 C133.537,60.522 135.000,62.469 135.000,64.750 C135.000,64.750 135.000,71.750 135.000,71.750 C135.000,74.209 133.301,76.279 131.015,76.847 zM131.500,15.750 C131.500,15.750 124.500,15.750 124.500,15.750 C123.532,15.750 122.750,14.968 122.750,14.000 C122.750,13.034 123.532,12.249 124.500,12.250 C124.500,12.250 131.500,12.250 131.500,12.250 C132.468,12.250 133.250,13.034 133.250,14.000 C133.250,14.968 132.468,15.750 131.500,15.750 zM123.706,21.502 C123.706,21.502 130.172,24.180 130.172,24.180 C131.064,24.549 131.488,25.573 131.119,26.467 C130.841,27.139 130.188,27.547 129.502,27.547 C129.278,27.547 129.050,27.503 128.832,27.414 C128.832,27.414 122.365,24.734 122.365,24.734 C121.473,24.365 121.049,23.341 121.418,22.449 C121.788,21.554 122.815,21.134 123.706,21.502 zM130.170,3.822 C130.170,3.822 123.704,6.499 123.704,6.499 C123.485,6.590 123.258,6.634 123.034,6.634 C122.348,6.634 121.695,6.226 121.417,5.553 C121.047,4.660 121.471,3.636 122.363,3.267 C122.363,3.267 128.831,0.588 128.831,0.588 C129.719,0.220 130.748,0.642 131.117,1.535 C131.486,2.429 131.063,3.453 130.170,3.822 zM107.000,35.000 C107.968,35.000 108.750,35.784 108.750,36.750 C108.750,37.718 107.968,38.500 107.000,38.500 C107.000,38.500 100.000,38.500 100.000,38.500 C99.032,38.500 98.250,37.718 98.250,36.750 C98.250,35.784 99.032,35.000 100.000,35.000 C100.000,35.000 107.000,35.000 107.000,35.000 zM112.031,25.440 C112.031,25.440 110.409,30.304 110.409,30.304 C110.171,31.018 109.504,31.500 108.750,31.500 C108.750,31.500 98.250,31.500 98.250,31.500 C97.496,31.500 96.827,31.018 96.591,30.304 C96.591,30.304 94.969,25.440 94.969,25.440 C91.339,21.709 89.500,17.862 89.500,14.000 C89.500,6.280 95.781,-0.000 103.500,-0.000 C111.219,-0.000 117.500,6.280 117.500,14.000 C117.500,17.862 115.661,21.709 112.031,25.440 zM103.500,3.500 C97.709,3.500 93.000,8.211 93.000,14.000 C93.000,17.002 94.594,20.119 97.737,23.262 C97.928,23.455 98.073,23.689 98.159,23.947 C98.159,23.947 99.512,28.000 99.512,28.000 L101.750,28.000 C101.750,28.000 101.750,15.750 101.750,15.750 C101.750,14.784 102.532,14.000 103.500,14.000 C104.468,14.000 105.250,14.784 105.250,15.750 C105.250,15.750 105.250,28.000 105.250,28.000 L107.488,28.000 C107.488,28.000 108.841,23.947 108.841,23.947 C108.925,23.689 109.070,23.455 109.263,23.263 C112.406,20.120 114.000,17.003 114.000,14.000 C114.000,8.211 109.289,3.500 103.500,3.500 zM90.209,30.525 C75.668,36.990 75.500,54.078 75.500,54.250 C75.500,55.218 74.718,56.000 73.750,56.000 C72.782,56.000 72.000,55.217 72.000,54.250 C72.000,53.455 72.191,34.706 88.788,27.328 C89.673,26.932 90.704,27.333 91.098,28.217 C91.490,29.099 91.092,30.133 90.209,30.525 zM84.636,24.734 C84.636,24.734 78.168,27.413 78.168,27.413 C77.950,27.503 77.722,27.546 77.498,27.546 C76.814,27.546 76.161,27.139 75.883,26.467 C75.514,25.573 75.937,24.549 76.830,24.180 C76.830,24.180 83.296,21.502 83.296,21.502 C84.187,21.136 85.214,21.554 85.583,22.448 C85.952,23.341 85.527,24.365 84.636,24.734 zM83.965,6.634 C83.741,6.634 83.513,6.590 83.294,6.499 C83.294,6.499 76.828,3.822 76.828,3.822 C75.936,3.453 75.512,2.429 75.881,1.535 C76.251,0.642 77.280,0.220 78.167,0.588 C78.167,0.588 84.635,3.267 84.635,3.267 C85.526,3.636 85.951,4.660 85.582,5.552 C85.301,6.226 84.649,6.634 83.965,6.634 zM84.250,14.000 C84.250,14.968 83.468,15.750 82.500,15.750 C82.500,15.750 75.500,15.750 75.500,15.750 C74.532,15.750 73.750,14.968 73.750,14.000 C73.750,13.034 74.532,12.250 75.500,12.250 C75.500,12.250 82.500,12.250 82.500,12.250 C83.468,12.250 84.250,13.034 84.250,14.000 z" fill="#47546A" />
</g>
</svg>
