<svg version="1.1" xmlns="http://www.w3.org/2000/svg" xmlns:xlink="http://www.w3.org/1999/xlink" width="208" height="105" viewBox="0 0 208 105">
<g id="advantages_1">
<path id="Rounded-Rectangl" d="M16.375,40.000 C16.375,40.000 53.344,40.000 53.344,40.000 C57.486,40.000 60.844,43.358 60.844,47.500 C60.844,51.642 57.486,55.000 53.344,55.000 C53.344,55.000 16.375,55.000 16.375,55.000 C12.233,55.000 8.875,51.642 8.875,47.500 C8.875,43.358 12.233,40.000 16.375,40.000 z" fill="#C8D8EB" />
<path id="Rounded-Rectangl" d="M40.062,62.500 C40.062,66.642 43.420,70.000 47.563,70.000 C47.563,70.000 15.625,70.000 15.625,70.000 C15.624,70.000 15.622,70.000 15.621,70.000 C15.621,70.000 18.528,70.000 18.528,70.000 C22.627,70.000 25.950,66.642 25.950,62.500 C25.950,58.360 22.630,55.003 18.534,55.000 C18.534,55.000 47.563,55.000 47.563,55.000 C43.420,55.000 40.062,58.358 40.062,62.500 z" fill="#C8D8EB" />
<path id="Rounded-Rectangl" d="M8.219,70.000 C8.219,70.000 45.156,70.000 45.156,70.000 C49.298,70.000 52.656,73.358 52.656,77.500 C52.656,81.642 49.298,85.000 45.156,85.000 C45.156,85.000 8.219,85.000 8.219,85.000 C4.077,85.000 0.719,81.642 0.719,77.500 C0.719,73.358 4.077,70.000 8.219,70.000 z" fill="#C8D8EB" />
<path id="Rounded-Rectangl" d="M50.000,21.000 C50.000,21.000 60.000,21.000 60.000,21.000 C63.866,21.000 67.000,24.134 67.000,28.000 C67.000,31.866 63.866,35.000 60.000,35.000 C60.000,35.000 50.000,35.000 50.000,35.000 C46.134,35.000 43.000,31.866 43.000,28.000 C43.000,24.134 46.134,21.000 50.000,21.000 z" fill="#C8D8EB" />
<path id="Rounded-Rectangl" d="M163.000,67.000 C163.000,67.000 173.000,67.000 173.000,67.000 C176.866,67.000 180.000,70.134 180.000,74.000 C180.000,77.866 176.866,81.000 173.000,81.000 C173.000,81.000 163.000,81.000 163.000,81.000 C159.134,81.000 156.000,77.866 156.000,74.000 C156.000,70.134 159.134,67.000 163.000,67.000 z" fill="#C8D8EB" />
<path id="Rounded-Rectangl" d="M139.000,67.000 C139.000,67.000 143.000,67.000 143.000,67.000 C146.866,67.000 150.000,70.134 150.000,74.000 C150.000,77.866 146.866,81.000 143.000,81.000 C143.000,81.000 139.000,81.000 139.000,81.000 C135.134,81.000 132.000,77.866 132.000,74.000 C132.000,70.134 135.134,67.000 139.000,67.000 z" fill="#C8D8EB" />
<path id="Rounded-Rectangl" d="M151.854,18.000 C151.854,18.000 187.865,18.000 187.865,18.000 C191.823,18.000 195.031,21.209 195.031,25.167 C195.031,25.167 195.031,25.177 195.031,25.177 C195.031,29.135 191.823,32.344 187.865,32.344 C187.865,32.344 151.854,32.344 151.854,32.344 C147.896,32.344 144.688,29.135 144.688,25.177 C144.688,25.177 144.688,25.167 144.688,25.167 C144.688,21.209 147.896,18.000 151.854,18.000 z" fill="#C8D8EB" />
<path id="Rounded-Rectangl" d="M180.656,39.167 C180.656,39.167 180.656,39.833 180.656,39.833 C180.656,43.791 183.865,47.000 187.823,47.000 C187.823,47.000 163.177,47.000 163.177,47.000 C167.135,47.000 170.344,43.791 170.344,39.833 C170.344,39.833 170.344,39.167 170.344,39.167 C170.344,35.209 167.135,32.000 163.177,32.000 C163.177,32.000 187.823,32.000 187.823,32.000 C183.865,32.000 180.656,35.209 180.656,39.167 z" fill="#C8D8EB" />
<path id="Rounded-Rectangl" d="M164.104,46.656 C164.104,46.656 200.115,46.656 200.115,46.656 C204.073,46.656 207.281,49.865 207.281,53.823 C207.281,53.823 207.281,53.833 207.281,53.833 C207.281,57.791 204.073,61.000 200.115,61.000 C200.115,61.000 164.104,61.000 164.104,61.000 C160.146,61.000 156.938,57.791 156.938,53.833 C156.938,53.833 156.938,53.823 156.938,53.823 C156.938,49.865 160.146,46.656 164.104,46.656 z" fill="#C8D8EB" />
<path id="Shape-1" d="M151.250,49.000 C151.250,49.000 147.750,49.000 147.750,49.000 C147.750,49.000 147.750,52.500 147.750,52.500 C147.750,53.466 146.966,54.250 146.000,54.250 C145.034,54.250 144.250,53.466 144.250,52.500 C144.250,52.500 144.250,49.000 144.250,49.000 C144.250,49.000 140.750,49.000 140.750,49.000 C139.784,49.000 139.000,48.216 139.000,47.250 C139.000,46.284 139.784,45.500 140.750,45.500 C140.750,45.500 144.250,45.500 144.250,45.500 C144.250,45.500 144.250,42.000 144.250,42.000 C144.250,41.034 145.034,40.250 146.000,40.250 C146.966,40.250 147.750,41.034 147.750,42.000 C147.750,42.000 147.750,45.500 147.750,45.500 C147.750,45.500 151.250,45.500 151.250,45.500 C152.216,45.500 153.000,46.284 153.000,47.250 C153.000,48.216 152.216,49.000 151.250,49.000 zM134.175,38.447 C134.032,38.484 133.890,38.500 133.748,38.500 C132.964,38.500 132.252,37.969 132.052,37.175 C131.818,36.237 132.389,35.286 133.325,35.052 C139.413,33.529 142.500,29.979 142.500,24.499 C142.500,24.499 142.500,12.249 142.500,12.249 C142.500,11.285 141.714,10.500 140.750,10.500 C140.750,10.500 137.250,10.500 137.250,10.500 C136.284,10.500 135.500,9.716 135.500,8.750 C135.500,7.784 136.284,7.000 137.250,7.000 C137.250,7.000 140.750,7.000 140.750,7.000 C143.644,7.000 146.000,9.355 146.000,12.249 C146.000,12.249 146.000,24.500 146.000,24.500 C146.000,31.587 141.800,36.541 134.175,38.447 zM133.750,80.500 C133.750,80.500 135.500,80.500 135.500,80.500 C135.500,80.500 135.500,78.750 135.500,78.750 C135.500,77.784 136.284,77.000 137.250,77.000 C138.216,77.000 139.000,77.784 139.000,78.750 C139.000,78.750 139.000,80.500 139.000,80.500 C139.000,80.500 140.750,80.500 140.750,80.500 C141.716,80.500 142.500,81.284 142.500,82.250 C142.500,83.216 141.716,84.000 140.750,84.000 C140.750,84.000 139.000,84.000 139.000,84.000 C139.000,84.000 139.000,85.749 139.000,85.749 C139.000,86.715 138.216,87.499 137.250,87.499 C136.284,87.499 135.500,86.715 135.500,85.749 C135.500,85.749 135.500,83.999 135.500,83.999 C135.500,83.999 133.750,83.999 133.750,83.999 C132.784,83.999 132.000,83.216 132.000,82.249 C132.000,81.283 132.784,80.500 133.750,80.500 zM120.611,48.397 C115.667,53.815 111.000,58.933 111.000,71.749 C111.000,71.792 111.066,76.569 114.206,81.278 C114.741,82.083 114.524,83.170 113.721,83.706 C113.422,83.905 113.084,83.999 112.752,83.999 C112.186,83.999 111.632,83.727 111.294,83.221 C107.542,77.595 107.500,71.986 107.500,71.750 C107.500,57.576 112.851,51.710 118.024,46.039 C120.779,43.020 123.381,40.167 125.142,36.060 C125.213,35.909 128.500,28.878 128.500,8.750 C128.500,8.750 128.500,3.499 128.500,3.499 L72.500,3.499 C72.500,3.499 72.500,8.750 72.500,8.750 C72.500,28.878 75.786,35.909 75.820,35.978 C77.619,40.167 80.221,43.020 82.975,46.039 C88.148,51.710 93.500,57.576 93.500,71.750 C93.500,71.986 93.458,77.595 89.706,83.221 C89.169,84.024 88.082,84.241 87.279,83.706 C86.475,83.170 86.258,82.083 86.794,81.278 C89.963,76.525 90.000,71.797 90.000,71.750 C90.000,58.933 85.333,53.815 80.389,48.398 C77.561,45.295 74.635,42.089 72.642,37.439 C72.535,37.231 69.000,29.919 69.000,8.750 C69.000,8.750 69.000,1.750 69.000,1.750 C69.000,0.784 69.784,-0.000 70.750,-0.000 C70.750,-0.000 130.250,-0.000 130.250,-0.000 C131.216,-0.000 132.000,0.784 132.000,1.750 C132.000,1.750 132.000,8.749 132.000,8.749 C132.000,29.919 128.465,37.231 128.316,37.532 C126.365,42.089 123.439,45.294 120.611,48.397 zM67.252,38.500 C67.110,38.500 66.968,38.484 66.825,38.447 C59.200,36.541 55.000,31.587 55.000,24.500 C55.000,24.500 55.000,12.250 55.000,12.250 C55.000,9.355 57.355,7.000 60.250,7.000 C60.250,7.000 63.750,7.000 63.750,7.000 C64.716,7.000 65.500,7.784 65.500,8.750 C65.500,9.716 64.716,10.500 63.750,10.500 C63.750,10.500 60.250,10.500 60.250,10.500 C59.286,10.500 58.500,11.285 58.500,12.249 C58.500,12.249 58.500,24.500 58.500,24.500 C58.500,29.979 61.587,33.530 67.675,35.052 C68.611,35.287 69.182,36.237 68.947,37.175 C68.748,37.969 68.036,38.500 67.252,38.500 zM55.000,63.000 C55.000,63.000 56.750,63.000 56.750,63.000 C57.716,63.000 58.500,63.784 58.500,64.750 C58.500,65.716 57.716,66.499 56.750,66.499 C56.750,66.499 55.000,66.499 55.000,66.499 C55.000,66.499 55.000,68.250 55.000,68.250 C55.000,69.215 54.216,70.000 53.250,70.000 C52.284,70.000 51.500,69.215 51.500,68.250 C51.500,68.250 51.500,66.499 51.500,66.499 C51.500,66.499 49.750,66.499 49.750,66.499 C48.784,66.499 48.000,65.716 48.000,64.750 C48.000,63.784 48.784,63.000 49.750,63.000 C49.750,63.000 51.500,63.000 51.500,63.000 C51.500,63.000 51.500,61.250 51.500,61.250 C51.500,60.284 52.284,59.500 53.250,59.500 C54.216,59.500 55.000,60.284 55.000,61.250 C55.000,61.250 55.000,63.000 55.000,63.000 zM69.000,70.000 C69.000,69.034 69.784,68.250 70.750,68.250 C71.716,68.250 72.500,69.034 72.500,70.000 C73.466,70.000 74.250,70.784 74.250,71.750 C74.250,72.716 73.466,73.499 72.500,73.499 C72.500,74.466 71.716,75.249 70.750,75.249 C69.784,75.249 69.000,74.466 69.000,73.499 C68.034,73.499 67.250,72.716 67.250,71.750 C67.250,70.784 68.034,70.000 69.000,70.000 zM108.634,36.333 C108.081,36.800 107.297,36.883 106.661,36.534 C106.661,36.534 100.626,33.239 100.626,33.239 C100.626,33.239 94.312,36.550 94.312,36.550 C94.056,36.683 93.778,36.750 93.500,36.750 C93.076,36.750 92.658,36.597 92.331,36.302 C91.787,35.812 91.605,35.037 91.873,34.356 C91.873,34.356 94.240,28.378 94.240,28.378 C94.240,28.378 88.908,24.117 88.908,24.117 C88.327,23.653 88.103,22.873 88.348,22.171 C88.595,21.471 89.256,21.000 90.000,21.000 C90.000,21.000 96.231,21.000 96.231,21.000 C96.231,21.000 98.902,15.034 98.902,15.034 C99.183,14.406 99.806,14.002 100.496,14.000 C100.496,14.000 100.499,14.000 100.499,14.000 C101.187,14.000 101.810,14.401 102.094,15.027 C102.094,15.027 104.799,21.000 104.799,21.000 C104.799,21.000 111.000,21.000 111.000,21.000 C111.733,21.000 112.389,21.458 112.643,22.146 C112.895,22.836 112.692,23.609 112.132,24.085 C112.132,24.085 107.034,28.409 107.034,28.409 C107.034,28.409 109.150,34.419 109.150,34.419 C109.391,35.103 109.185,35.864 108.634,36.333 zM103.673,24.500 C102.985,24.500 102.360,24.099 102.078,23.473 C102.078,23.473 100.509,20.011 100.509,20.011 C100.509,20.011 98.963,23.466 98.963,23.466 C98.680,24.096 98.055,24.500 97.366,24.500 C97.366,24.500 97.366,24.500 97.366,24.500 L94.995,24.500 C94.995,24.500 97.436,26.451 97.436,26.451 C98.038,26.930 98.255,27.746 97.971,28.461 C97.971,28.461 96.862,31.260 96.862,31.260 C96.862,31.260 99.832,29.704 99.832,29.704 C100.085,29.571 100.365,29.504 100.643,29.504 C100.932,29.504 101.221,29.577 101.483,29.718 C101.483,29.718 104.334,31.276 104.334,31.276 C104.334,31.276 103.333,28.435 103.333,28.435 C103.092,27.749 103.300,26.988 103.853,26.519 C103.853,26.519 106.233,24.500 106.233,24.500 C106.233,24.500 103.673,24.500 103.673,24.500 zM79.334,88.825 C79.528,88.046 80.228,87.500 81.031,87.500 C81.031,87.500 119.750,87.500 119.750,87.500 C120.553,87.500 121.253,88.046 121.447,88.825 C121.447,88.825 124.947,102.824 124.947,102.824 C125.079,103.348 124.961,103.902 124.629,104.326 C124.298,104.751 123.789,105.000 123.250,105.000 C123.250,105.000 77.531,105.000 77.531,105.000 C76.992,105.000 76.483,104.751 76.152,104.326 C75.820,103.902 75.702,103.348 75.834,102.824 C75.834,102.824 79.334,88.825 79.334,88.825 zM121.008,101.500 L118.383,91.000 L82.398,91.000 L79.773,101.500 L121.008,101.500 zM91.750,94.500 C91.750,94.500 109.142,94.500 109.142,94.500 C110.107,94.500 110.891,95.284 110.891,96.250 C110.891,97.215 110.107,98.000 109.142,98.000 C109.142,98.000 91.750,98.000 91.750,98.000 C90.784,98.000 90.000,97.215 90.000,96.250 C90.000,95.284 90.784,94.500 91.750,94.500 z" fill="#47546A" />
</g>
</svg>
