<svg version="1.1" xmlns="http://www.w3.org/2000/svg" xmlns:xlink="http://www.w3.org/1999/xlink" width="28" height="34" viewBox="0 0 28 34">
<g id="arrow">
<path id="arrow" d="M0.666,21.600 C-0.222,20.712 -0.222,19.282 0.666,18.394 C1.110,17.950 1.686,17.728 2.269,17.728 C2.851,17.728 3.427,17.950 3.871,18.394 C3.871,18.394 11.738,26.263 11.738,26.263 C11.738,26.263 11.738,2.269 11.738,2.269 C11.738,1.020 12.751,-0.000 14.007,-0.000 C15.256,-0.000 16.275,1.013 16.275,2.269 C16.275,2.269 16.275,26.263 16.275,26.263 C16.275,26.263 24.129,18.394 24.129,18.394 C25.017,17.506 26.446,17.506 27.334,18.394 C28.222,19.282 28.222,20.712 27.334,21.600 C27.334,21.600 15.603,33.334 15.603,33.334 C15.179,33.757 14.603,34.000 14.000,34.000 C13.396,34.000 12.821,33.764 12.397,33.334 C12.397,33.334 0.666,21.600 0.666,21.600 z" fill="#92BFEA" />
</g>
</svg>
