<svg version="1.1" xmlns="http://www.w3.org/2000/svg" xmlns:xlink="http://www.w3.org/1999/xlink" width="98" height="117" viewBox="0 0 98 117">
<g id="avatar_2">
<path id="Shape-19" d="M89.913,59.233 C89.670,59.200 89.427,59.185 89.187,59.184 C87.954,21.808 65.983,16.687 51.342,16.687 C36.697,16.687 15.203,21.808 13.971,59.184 C13.731,59.185 13.489,59.200 13.245,59.233 C8.818,59.841 5.765,65.527 6.429,71.937 C7.091,78.344 11.221,83.046 15.649,82.439 C15.741,82.428 15.830,82.409 15.921,82.391 C18.393,94.261 22.538,102.074 24.753,104.901 C27.779,108.761 43.358,116.991 51.342,116.991 C59.323,116.991 75.379,108.761 78.405,104.901 C80.620,102.074 84.764,94.261 87.236,82.391 C87.328,82.408 87.418,82.428 87.510,82.439 C91.939,83.046 96.065,78.344 96.731,71.937 C97.394,65.527 94.341,59.841 89.913,59.233 z" fill="#FDDBAF" />
<path id="Shape-20" d="M91.424,25.476 C98.197,23.145 99.331,36.729 96.620,42.141 C92.614,50.143 91.700,63.563 89.903,73.580 C86.707,57.335 84.421,48.529 81.786,42.141 C80.462,38.932 79.856,36.296 79.721,34.104 C77.862,35.255 75.560,36.485 73.050,37.691 C73.025,37.703 73.001,37.714 72.977,37.726 C72.364,38.020 71.743,38.310 71.108,38.599 C71.082,38.610 71.056,38.622 71.031,38.634 C67.202,40.371 63.054,41.978 59.247,43.128 C59.105,43.171 58.962,43.215 58.821,43.257 C58.321,43.404 57.832,43.540 57.347,43.670 C57.160,43.720 56.974,43.769 56.789,43.816 C56.335,43.933 55.891,44.041 55.455,44.139 C55.255,44.184 55.062,44.224 54.866,44.265 C54.450,44.353 54.039,44.437 53.643,44.505 C53.452,44.539 53.273,44.562 53.086,44.591 C52.702,44.650 52.317,44.710 51.957,44.749 C51.816,44.764 51.692,44.766 51.555,44.778 C51.193,44.809 50.820,44.848 50.488,44.855 C50.491,44.853 50.497,44.850 50.500,44.848 C50.497,44.848 50.493,44.849 50.490,44.849 C52.989,43.259 59.565,40.792 62.637,35.846 C62.343,35.996 62.035,36.145 61.733,36.295 C61.731,36.298 61.729,36.300 61.727,36.303 C61.612,36.360 61.491,36.416 61.375,36.473 C61.058,36.630 60.737,36.785 60.412,36.941 C60.139,37.071 59.863,37.201 59.585,37.331 C59.277,37.475 58.966,37.619 58.652,37.762 C58.338,37.905 58.021,38.046 57.702,38.188 C57.415,38.314 57.128,38.441 56.838,38.566 C56.474,38.723 56.106,38.878 55.736,39.033 C55.482,39.139 55.228,39.245 54.970,39.349 C54.550,39.521 54.125,39.689 53.699,39.856 C53.484,39.940 53.270,40.024 53.054,40.106 C52.573,40.290 52.088,40.469 51.602,40.647 C51.432,40.708 51.263,40.771 51.092,40.832 C50.550,41.025 50.005,41.212 49.457,41.395 C49.335,41.436 49.214,41.477 49.092,41.518 C48.489,41.716 47.884,41.906 47.276,42.091 C47.205,42.113 47.134,42.135 47.062,42.157 C46.399,42.356 45.735,42.545 45.069,42.725 C45.049,42.730 45.029,42.736 45.009,42.742 C40.117,44.059 35.185,44.831 30.720,44.611 C30.725,44.609 30.729,44.607 30.734,44.605 C30.731,44.605 30.727,44.605 30.724,44.605 C37.071,41.813 40.717,38.239 45.065,35.041 C44.672,35.210 44.223,35.382 43.783,35.553 C43.773,35.561 43.764,35.570 43.754,35.578 C43.640,35.622 43.505,35.667 43.389,35.711 C43.146,35.803 42.885,35.896 42.629,35.988 C42.163,36.158 41.692,36.327 41.188,36.497 C41.008,36.558 40.818,36.618 40.634,36.678 C40.010,36.884 39.373,37.088 38.701,37.292 C38.653,37.307 38.603,37.321 38.555,37.335 C34.425,38.584 29.488,39.784 24.424,40.734 C19.865,49.216 18.483,61.455 16.095,73.580 C14.903,66.927 13.454,53.105 13.407,42.328 C13.405,42.328 13.402,42.328 13.399,42.328 C12.787,42.387 12.185,42.438 11.588,42.484 C11.440,42.495 11.295,42.505 11.148,42.515 C10.151,42.586 9.183,42.636 8.241,42.665 C8.025,42.672 7.806,42.681 7.594,42.685 C7.135,42.695 6.687,42.697 6.244,42.696 C5.932,42.695 5.629,42.687 5.325,42.680 C4.746,42.667 4.185,42.643 3.642,42.608 C3.261,42.583 2.884,42.556 2.522,42.520 C2.220,42.490 1.928,42.455 1.641,42.417 C1.251,42.365 0.879,42.302 0.517,42.235 C0.355,42.204 0.168,42.187 0.012,42.153 C0.020,42.151 0.029,42.150 0.038,42.149 C0.024,42.146 0.008,42.144 -0.006,42.141 C6.341,37.205 13.804,28.064 15.989,23.415 C24.568,6.345 42.559,-4.527 63.355,1.817 C71.132,4.171 80.392,9.554 84.356,16.346 C84.584,16.735 84.794,17.128 84.985,17.525 C85.043,17.646 85.105,17.766 85.160,17.888 C85.368,18.351 85.544,18.822 85.699,19.296 C85.734,19.403 85.773,19.510 85.805,19.617 C85.956,20.119 86.069,20.627 86.155,21.139 C86.171,21.235 86.188,21.330 86.201,21.426 C86.277,21.957 86.316,22.493 86.317,23.035 C86.317,23.070 86.325,23.103 86.325,23.138 C88.884,21.954 92.840,22.326 95.490,22.817 C93.967,22.817 92.356,24.443 91.424,25.476 z" fill="#4D2A18" />
<path id="Shape-22" d="M37.607,93.845 C43.028,98.423 43.188,102.459 53.038,102.459 C62.887,102.459 62.776,99.707 68.469,93.845 " fill="#E8BC9C" />
<path id="Shape-35" d="M42.393,63.786 C42.426,63.948 41.733,65.964 40.481,66.755 C37.659,68.530 32.552,69.088 30.438,63.786 C30.438,63.786 31.945,59.718 36.784,59.772 C41.622,59.829 41.855,61.109 42.393,63.786 z" fill="#EDEEEC" />
<path id="Shape-37" d="M33.338,63.598 C33.338,62.003 34.692,60.712 36.361,60.712 C38.028,60.712 39.381,62.003 39.381,63.598 C39.381,65.192 38.028,66.483 36.361,66.483 C34.692,66.483 33.338,65.192 33.338,63.598 z" fill="#257F10" />
<path id="Shape-38" d="M34.732,63.823 C34.732,62.842 35.563,62.048 36.590,62.048 C37.615,62.048 38.448,62.842 38.448,63.823 C38.448,64.803 37.615,65.596 36.590,65.596 C35.563,65.596 34.732,64.803 34.732,63.823 z" fill="#221F1F" />
<path id="Shape-38" d="M35.222,62.532 C35.222,62.088 35.601,61.728 36.069,61.728 C36.536,61.728 36.916,62.088 36.916,62.532 C36.916,62.976 36.536,63.335 36.069,63.335 C35.601,63.335 35.222,62.976 35.222,62.532 z" fill="#FFFFFF" />
<path id="Shape-38" d="M36.537,63.787 C36.537,63.343 36.916,62.984 37.384,62.984 C37.851,62.984 38.230,63.343 38.230,63.787 C38.230,64.231 37.851,64.590 37.384,64.590 C36.916,64.590 36.537,64.231 36.537,63.787 z" fill="#FFFFFF" />
<path id="Shape-36" d="M42.349,63.674 C42.349,63.674 38.476,60.944 30.365,63.674 C30.365,63.674 31.875,59.396 36.727,59.453 C41.576,59.513 41.861,60.829 42.349,63.674 z" fill="#D0926C" />
<path id="Shape-34" d="M28.996,54.828 C28.996,54.828 35.599,49.724 43.992,50.002 C43.992,50.002 43.992,53.204 43.992,53.204 C43.992,53.204 34.175,52.556 28.996,56.940 C28.996,56.940 28.996,54.828 28.996,54.828 z" fill="#4D2A18" />
<path id="Shape-35" d="M62.606,63.786 C62.574,63.948 63.267,65.964 64.519,66.755 C67.341,68.530 72.448,69.088 74.562,63.786 C74.562,63.786 73.055,59.718 68.216,59.772 C63.378,59.829 63.145,61.109 62.606,63.786 z" fill="#EDEEEC" />
<path id="Shape-37" d="M71.662,63.598 C71.662,62.003 70.308,60.712 68.639,60.712 C66.972,60.712 65.619,62.003 65.619,63.598 C65.619,65.192 66.972,66.483 68.639,66.483 C70.308,66.483 71.662,65.192 71.662,63.598 z" fill="#257F10" />
<path id="Shape-38" d="M70.268,63.823 C70.268,62.842 69.437,62.048 68.410,62.048 C67.385,62.048 66.552,62.842 66.552,63.823 C66.552,64.803 67.385,65.596 68.410,65.596 C69.437,65.596 70.268,64.803 70.268,63.823 z" fill="#221F1F" />
<path id="Shape-38" d="M69.778,62.532 C69.778,62.088 69.399,61.728 68.931,61.728 C68.463,61.728 68.084,62.088 68.084,62.532 C68.084,62.976 68.463,63.335 68.931,63.335 C69.399,63.335 69.778,62.976 69.778,62.532 z" fill="#FFFFFF" />
<path id="Shape-38" d="M68.463,63.787 C68.463,63.343 68.084,62.984 67.616,62.984 C67.149,62.984 66.770,63.343 66.770,63.787 C66.770,64.231 67.149,64.590 67.616,64.590 C68.084,64.590 68.463,64.231 68.463,63.787 z" fill="#FFFFFF" />
<path id="Shape-36" d="M62.651,63.674 C62.651,63.674 66.524,60.944 74.635,63.674 C74.635,63.674 73.124,59.396 68.273,59.453 C63.424,59.513 63.139,60.829 62.651,63.674 z" fill="#D0926C" />
<path id="Shape-34" d="M76.004,54.828 C76.004,54.828 69.401,49.724 61.008,50.002 C61.008,50.002 61.008,53.204 61.008,53.204 C61.008,53.204 70.825,52.556 76.004,56.940 C76.004,56.940 76.004,54.828 76.004,54.828 z" fill="#4D2A18" />
</g>
</svg>
