<svg version="1.1" xmlns="http://www.w3.org/2000/svg" xmlns:xlink="http://www.w3.org/1999/xlink" width="105" height="124" viewBox="0 0 105 124">
<g id="avatar_3">
<path id="Shape-21" d="M83.483,54.401 C82.464,23.535 64.300,19.304 52.194,19.304 C22.936,19.043 19.441,58.686 22.911,73.568 C24.954,83.372 28.381,89.824 30.212,92.159 C32.715,95.347 46.897,104.653 53.497,104.653 C60.097,104.653 72.068,95.347 74.570,92.159 C76.402,89.824 83.778,77.581 83.483,54.401 z" fill="#FDDBAF" />
<path id="Shape-35" d="M44.393,60.785 C44.426,60.948 43.733,62.964 42.481,63.755 C39.659,65.530 34.552,66.088 32.438,60.785 C32.438,60.785 33.945,56.718 38.784,56.772 C43.622,56.829 43.855,58.109 44.393,60.785 z" fill="#EDEEEC" />
<path id="Shape-37" d="M35.338,60.599 C35.338,59.003 36.692,57.712 38.361,57.712 C40.028,57.712 41.381,59.003 41.381,60.599 C41.381,62.192 40.028,63.483 38.361,63.483 C36.692,63.483 35.338,62.192 35.338,60.599 z" fill="#80452D" />
<path id="Shape-38" d="M36.732,60.823 C36.732,59.843 37.563,59.048 38.590,59.048 C39.615,59.048 40.448,59.843 40.448,60.823 C40.448,61.803 39.615,62.596 38.590,62.596 C37.563,62.596 36.732,61.803 36.732,60.823 z" fill="#221F1F" />
<path id="Shape-38" d="M37.222,59.532 C37.222,59.088 37.601,58.729 38.069,58.729 C38.536,58.729 38.916,59.088 38.916,59.532 C38.916,59.976 38.536,60.335 38.069,60.335 C37.601,60.335 37.222,59.976 37.222,59.532 z" fill="#FFFFFF" />
<path id="Shape-38" d="M38.537,60.787 C38.537,60.343 38.916,59.984 39.384,59.984 C39.851,59.984 40.230,60.343 40.230,60.787 C40.230,61.231 39.851,61.590 39.384,61.590 C38.916,61.590 38.537,61.231 38.537,60.787 z" fill="#FFFFFF" />
<path id="Shape-36" d="M44.349,60.674 C44.349,60.674 40.476,57.944 32.365,60.674 C32.365,60.674 33.875,56.396 38.727,56.453 C43.576,56.513 43.861,57.829 44.349,60.674 z" fill="#0A5206" />
<path id="Shape-34" d="M30.996,51.828 C30.996,51.828 37.599,46.724 45.992,47.002 C45.992,47.002 45.992,50.204 45.992,50.204 C45.992,50.204 36.175,49.556 30.996,53.940 C30.996,53.940 30.996,51.828 30.996,51.828 z" fill="#363636" />
<path id="Shape-35" d="M60.606,60.785 C60.574,60.948 61.267,62.964 62.519,63.755 C65.341,65.530 70.448,66.088 72.562,60.785 C72.562,60.785 71.055,56.718 66.216,56.772 C61.378,56.829 61.145,58.109 60.606,60.785 z" fill="#EDEEEC" />
<path id="Shape-37" d="M69.662,60.599 C69.662,59.003 68.308,57.712 66.639,57.712 C64.972,57.712 63.619,59.003 63.619,60.599 C63.619,62.192 64.972,63.483 66.639,63.483 C68.308,63.483 69.662,62.192 69.662,60.599 z" fill="#80452D" />
<path id="Shape-38" d="M68.268,60.823 C68.268,59.843 67.437,59.048 66.410,59.048 C65.385,59.048 64.552,59.843 64.552,60.823 C64.552,61.803 65.385,62.596 66.410,62.596 C67.437,62.596 68.268,61.803 68.268,60.823 z" fill="#221F1F" />
<path id="Shape-38" d="M67.777,59.532 C67.777,59.088 67.399,58.729 66.931,58.729 C66.463,58.729 66.084,59.088 66.084,59.532 C66.084,59.976 66.463,60.335 66.931,60.335 C67.399,60.335 67.777,59.976 67.777,59.532 z" fill="#FFFFFF" />
<path id="Shape-38" d="M66.463,60.787 C66.463,60.343 66.084,59.984 65.616,59.984 C65.149,59.984 64.770,60.343 64.770,60.787 C64.770,61.231 65.149,61.590 65.616,61.590 C66.084,61.590 66.463,61.231 66.463,60.787 z" fill="#FFFFFF" />
<path id="Shape-36" d="M60.651,60.674 C60.651,60.674 64.524,57.944 72.635,60.674 C72.635,60.674 71.125,56.396 66.273,56.453 C61.424,56.513 61.139,57.829 60.651,60.674 z" fill="#0A5206" />
<path id="Shape-34" d="M74.004,51.828 C74.004,51.828 67.401,46.724 59.008,47.002 C59.008,47.002 59.008,50.204 59.008,50.204 C59.008,50.204 68.825,49.556 74.004,53.940 C74.004,53.940 74.004,51.828 74.004,51.828 z" fill="#363636" />
<path id="Shape-22" d="M92.959,24.894 C76.781,-9.169 52.593,3.059 52.593,3.059 C52.593,3.059 28.404,-9.169 12.228,24.894 C-3.951,58.957 1.283,82.777 3.663,96.116 C6.042,109.455 19.365,120.175 32.686,122.318 C35.416,122.757 37.845,123.009 40.008,123.143 C41.008,120.544 44.181,111.506 45.529,98.187 C33.281,93.765 24.226,78.109 24.226,59.473 C24.226,58.588 24.254,57.714 24.294,56.843 C26.386,54.372 29.454,49.865 29.963,44.211 C31.335,48.592 29.963,51.567 29.963,51.567 C29.963,51.567 38.520,46.501 44.265,34.992 C46.030,41.857 60.073,45.585 60.073,45.585 C60.073,45.585 58.440,42.055 58.960,38.523 C62.292,52.908 72.872,53.629 72.872,53.629 C72.872,53.629 71.239,51.536 71.502,46.958 C73.788,54.543 79.469,55.524 79.469,55.524 C79.469,55.524 76.202,48.527 78.163,43.035 C78.569,43.918 78.944,44.901 79.290,45.943 C80.369,50.170 80.960,54.722 80.960,59.473 C80.960,78.110 71.906,93.765 59.657,98.187 C61.006,111.506 64.178,120.544 65.178,123.143 C67.343,123.009 69.772,122.757 72.500,122.318 C85.822,120.175 99.145,109.455 101.524,96.116 C103.904,82.777 109.137,58.957 92.959,24.894 z" fill="#363636" />
<path id="Shape-22" d="M52.593,88.625 C45.125,88.625 44.955,84.131 40.845,80.839 C45.366,80.908 49.716,75.592 52.593,78.886 C55.470,75.592 59.820,80.908 64.342,80.839 C60.232,84.131 60.060,88.625 52.593,88.625 z" fill="#EC8298" />
</g>
</svg>
