<svg version="1.1" xmlns="http://www.w3.org/2000/svg" xmlns:xlink="http://www.w3.org/1999/xlink" width="97" height="116" viewBox="0 0 97 116">
<g id="avatar_4">
<path id="Shape-23" d="M81.782,59.727 C81.553,59.695 81.323,59.681 81.095,59.679 C79.928,24.084 59.129,19.207 45.267,19.207 C31.403,19.207 11.057,24.084 9.890,59.679 C9.663,59.681 9.433,59.695 9.202,59.727 C5.012,60.307 7.885,72.283 11.479,81.827 C11.565,81.816 11.651,81.798 11.736,81.781 C14.076,93.087 33.065,114.866 45.738,115.680 C58.410,116.495 77.015,92.569 79.249,81.781 C79.335,81.798 79.420,81.816 79.507,81.827 C83.700,82.404 87.606,77.927 88.236,71.825 C88.864,65.721 85.975,60.307 81.782,59.727 z" fill="#F7DBC2" />
<path id="Shape-35" d="M37.487,68.317 C37.522,68.498 36.773,70.738 35.418,71.617 C32.366,73.589 26.842,74.209 24.555,68.317 C24.555,68.317 26.185,63.798 31.420,63.858 C36.652,63.921 36.904,65.343 37.487,68.317 z" fill="#EDEEEC" />
<path id="Shape-37" d="M27.692,68.109 C27.692,66.337 29.156,64.903 30.962,64.903 C32.765,64.903 34.229,66.337 34.229,68.109 C34.229,69.880 32.765,71.314 30.962,71.314 C29.156,71.314 27.692,69.880 27.692,68.109 z" fill="#5672FF" />
<path id="Shape-38" d="M29.199,68.358 C29.199,67.269 30.099,66.387 31.209,66.387 C32.318,66.387 33.219,67.269 33.219,68.358 C33.219,69.448 32.318,70.329 31.209,70.329 C30.099,70.329 29.199,69.448 29.199,68.358 z" fill="#221F1F" />
<path id="Shape-38" d="M29.730,66.924 C29.730,66.431 30.140,66.032 30.646,66.032 C31.152,66.032 31.562,66.431 31.562,66.924 C31.562,67.418 31.152,67.817 30.646,67.817 C30.140,67.817 29.730,67.418 29.730,66.924 z" fill="#FFFFFF" />
<path id="Shape-38" d="M31.152,68.319 C31.152,67.826 31.562,67.426 32.068,67.426 C32.574,67.426 32.984,67.826 32.984,68.319 C32.984,68.813 32.574,69.212 32.068,69.212 C31.562,69.212 31.152,68.813 31.152,68.319 z" fill="#FFFFFF" />
<path id="Shape-36" d="M37.439,68.193 C37.439,68.193 33.249,65.160 24.476,68.193 C24.476,68.193 26.110,63.440 31.357,63.504 C36.602,63.570 36.911,65.032 37.439,68.193 z" fill="#D0926C" />
<path id="Shape-34" d="M22.995,58.364 C22.995,58.364 30.138,52.694 39.216,53.002 C39.216,53.002 39.216,56.560 39.216,56.560 C39.216,56.560 28.597,55.840 22.995,60.711 C22.995,60.711 22.995,58.364 22.995,58.364 z" fill="#A85946" />
<path id="Shape-35" d="M56.513,68.317 C56.478,68.498 57.227,70.738 58.581,71.617 C61.634,73.589 67.158,74.209 69.445,68.317 C69.445,68.317 67.815,63.798 62.580,63.858 C57.348,63.921 57.096,65.343 56.513,68.317 z" fill="#EDEEEC" />
<path id="Shape-37" d="M66.308,68.109 C66.308,66.337 64.844,64.903 63.038,64.903 C61.235,64.903 59.771,66.337 59.771,68.109 C59.771,69.880 61.235,71.314 63.038,71.314 C64.844,71.314 66.308,69.880 66.308,68.109 z" fill="#5672FF" />
<path id="Shape-38" d="M64.800,68.358 C64.800,67.269 63.901,66.387 62.791,66.387 C61.681,66.387 60.781,67.269 60.781,68.358 C60.781,69.448 61.681,70.329 62.791,70.329 C63.901,70.329 64.800,69.448 64.800,68.358 z" fill="#221F1F" />
<path id="Shape-38" d="M64.270,66.924 C64.270,66.431 63.860,66.032 63.354,66.032 C62.848,66.032 62.438,66.431 62.438,66.924 C62.438,67.418 62.848,67.817 63.354,67.817 C63.860,67.817 64.270,67.418 64.270,66.924 z" fill="#FFFFFF" />
<path id="Shape-38" d="M62.848,68.319 C62.848,67.826 62.438,67.426 61.932,67.426 C61.426,67.426 61.016,67.826 61.016,68.319 C61.016,68.813 61.426,69.212 61.932,69.212 C62.438,69.212 62.848,68.813 62.848,68.319 z" fill="#FFFFFF" />
<path id="Shape-36" d="M56.561,68.193 C56.561,68.193 60.750,65.160 69.524,68.193 C69.524,68.193 67.890,63.440 62.643,63.504 C57.397,63.570 57.089,65.032 56.561,68.193 z" fill="#D0926C" />
<path id="Shape-34" d="M71.005,58.364 C71.005,58.364 63.862,52.694 54.784,53.002 C54.784,53.002 54.784,56.560 54.784,56.560 C54.784,56.560 65.403,55.840 71.005,60.711 C71.005,60.711 71.005,58.364 71.005,58.364 z" fill="#A85946" />
<path id="Shape-24" d="M75.225,11.914 C55.173,-1.802 21.073,-7.060 18.243,18.794 C-4.719,23.523 -4.561,65.535 11.244,77.595 C15.254,58.677 20.685,37.625 47.107,37.625 C86.262,37.625 59.054,75.388 80.993,92.177 C109.350,54.397 95.277,25.629 75.225,11.914 z" fill="#FF603B" />
<path id="Shape-22" d="M46.964,100.463 C39.497,100.463 39.327,95.968 35.217,92.677 C39.738,92.746 44.088,87.430 46.964,90.724 C49.842,87.430 54.192,92.746 58.714,92.677 C54.603,95.968 54.432,100.463 46.964,100.463 z" fill="#DDB28B" />
</g>
</svg>
