<svg version="1.1" xmlns="http://www.w3.org/2000/svg" xmlns:xlink="http://www.w3.org/1999/xlink" width="86" height="113" viewBox="0 0 86 113">
<g id="avatar_8">
<path id="Shape-17" d="M79.305,57.638 C79.075,57.606 78.844,57.592 78.617,57.590 C77.449,22.065 56.643,17.195 42.774,17.195 C28.907,17.195 8.552,22.065 7.386,57.590 C7.156,57.592 6.927,57.606 6.697,57.638 C2.505,58.217 -0.387,63.621 0.242,69.713 C0.869,75.805 4.781,80.272 8.973,79.696 C9.060,79.685 9.145,79.668 9.232,79.651 C11.572,90.934 15.497,98.361 17.595,101.048 C20.462,104.716 35.215,112.540 42.774,112.540 C50.335,112.540 65.540,104.716 68.407,101.048 C70.505,98.361 74.429,90.934 76.770,79.651 C76.856,79.667 76.941,79.685 77.028,79.696 C81.223,80.272 85.131,75.805 85.761,69.713 C86.389,63.621 83.499,58.217 79.305,57.638 z" fill="#F8E3CE" />
<path id="Shape-35" d="M33.393,65.786 C33.426,65.948 32.733,67.964 31.481,68.755 C28.659,70.530 23.552,71.088 21.437,65.786 C21.437,65.786 22.945,61.718 27.784,61.772 C32.622,61.829 32.855,63.109 33.393,65.786 z" fill="#EDEEEC" />
<path id="Shape-37" d="M24.338,65.598 C24.338,64.003 25.692,62.712 27.361,62.712 C29.028,62.712 30.381,64.003 30.381,65.598 C30.381,67.192 29.028,68.483 27.361,68.483 C25.692,68.483 24.338,67.192 24.338,65.598 z" fill="#206DC4" />
<path id="Shape-38" d="M25.732,65.823 C25.732,64.842 26.563,64.048 27.590,64.048 C28.615,64.048 29.448,64.842 29.448,65.823 C29.448,66.803 28.615,67.596 27.590,67.596 C26.563,67.596 25.732,66.803 25.732,65.823 z" fill="#221F1F" />
<path id="Shape-38" d="M26.222,64.532 C26.222,64.088 26.601,63.728 27.069,63.728 C27.536,63.728 27.916,64.088 27.916,64.532 C27.916,64.976 27.536,65.335 27.069,65.335 C26.601,65.335 26.222,64.976 26.222,64.532 z" fill="#FFFFFF" />
<path id="Shape-38" d="M27.537,65.787 C27.537,65.343 27.916,64.984 28.384,64.984 C28.851,64.984 29.230,65.343 29.230,65.787 C29.230,66.231 28.851,66.590 28.384,66.590 C27.916,66.590 27.537,66.231 27.537,65.787 z" fill="#FFFFFF" />
<path id="Shape-36" d="M33.349,65.674 C33.349,65.674 29.476,62.944 21.365,65.674 C21.365,65.674 22.875,61.396 27.726,61.453 C32.576,61.513 32.861,62.829 33.349,65.674 z" fill="#C0A993" />
<path id="Shape-34" d="M19.996,56.828 C19.996,56.828 26.599,51.724 34.992,52.002 C34.992,52.002 34.992,55.204 34.992,55.204 C34.992,55.204 25.175,54.556 19.996,58.940 C19.996,58.940 19.996,56.828 19.996,56.828 z" fill="#DEAB3F" />
<path id="Shape-35" d="M51.606,65.786 C51.574,65.948 52.267,67.964 53.519,68.755 C56.341,70.530 61.448,71.088 63.562,65.786 C63.562,65.786 62.055,61.718 57.216,61.772 C52.378,61.829 52.145,63.109 51.606,65.786 z" fill="#EDEEEC" />
<path id="Shape-37" d="M60.662,65.598 C60.662,64.003 59.308,62.712 57.639,62.712 C55.972,62.712 54.619,64.003 54.619,65.598 C54.619,67.192 55.972,68.483 57.639,68.483 C59.308,68.483 60.662,67.192 60.662,65.598 z" fill="#206DC4" />
<path id="Shape-38" d="M59.268,65.823 C59.268,64.842 58.437,64.048 57.410,64.048 C56.385,64.048 55.552,64.842 55.552,65.823 C55.552,66.803 56.385,67.596 57.410,67.596 C58.437,67.596 59.268,66.803 59.268,65.823 z" fill="#221F1F" />
<path id="Shape-38" d="M58.777,64.532 C58.777,64.088 58.399,63.728 57.931,63.728 C57.463,63.728 57.084,64.088 57.084,64.532 C57.084,64.976 57.463,65.335 57.931,65.335 C58.399,65.335 58.777,64.976 58.777,64.532 z" fill="#FFFFFF" />
<path id="Shape-38" d="M57.463,65.787 C57.463,65.343 57.084,64.984 56.616,64.984 C56.149,64.984 55.770,65.343 55.770,65.787 C55.770,66.231 56.149,66.590 56.616,66.590 C57.084,66.590 57.463,66.231 57.463,65.787 z" fill="#FFFFFF" />
<path id="Shape-36" d="M51.651,65.674 C51.651,65.674 55.524,62.944 63.635,65.674 C63.635,65.674 62.125,61.396 57.273,61.453 C52.424,61.513 52.139,62.829 51.651,65.674 z" fill="#C0A993" />
<path id="Shape-34" d="M65.004,56.828 C65.004,56.828 58.401,51.724 50.008,52.002 C50.008,52.002 50.008,55.204 50.008,55.204 C50.008,55.204 59.825,54.556 65.004,58.940 C65.004,58.940 65.004,56.828 65.004,56.828 z" fill="#DEAB3F" />
<path id="Shape-33" d="M28.315,54.157 C29.237,54.147 34.641,54.396 37.391,56.321 C37.740,56.563 38.370,56.428 38.870,56.430 C41.413,56.440 43.958,56.447 46.503,56.425 C47.059,56.420 47.713,56.469 48.153,56.212 C52.620,53.612 57.427,54.383 62.150,54.872 C65.242,55.193 68.277,56.004 71.356,56.459 C72.803,56.677 76.494,57.292 76.665,58.754 C76.821,60.113 73.399,60.977 72.096,61.418 C70.547,61.944 69.988,63.120 69.913,64.642 C69.835,66.158 69.801,67.685 69.607,69.185 C69.091,73.145 66.990,75.970 63.034,76.908 C60.784,77.444 58.337,77.681 56.050,77.419 C50.437,76.783 47.656,73.646 46.594,67.373 C46.402,66.247 46.313,65.104 46.083,63.990 C45.714,62.219 44.616,61.209 42.747,61.183 C40.876,61.158 39.754,62.168 39.349,63.912 C39.034,65.268 38.927,66.669 38.646,68.032 C36.983,76.080 32.493,78.079 25.004,77.299 C18.232,76.592 15.501,73.188 15.564,66.325 C15.587,63.938 15.297,61.958 12.608,61.006 C11.989,60.788 8.288,59.380 8.421,58.680 C8.568,57.893 12.524,56.862 13.286,56.685 C15.760,56.110 18.183,55.390 20.699,54.980 C23.198,54.575 27.393,54.167 28.315,54.157 zM28.043,56.889 C26.403,56.930 24.855,57.014 23.366,57.304 C19.233,58.111 17.341,60.358 17.207,64.513 C17.181,65.325 17.401,66.146 17.404,66.964 C17.438,73.623 25.270,77.272 31.068,74.280 C35.306,72.091 38.174,65.742 36.957,61.129 C36.426,59.105 35.067,57.816 33.035,57.413 C31.363,57.083 29.647,56.970 28.043,56.889 zM57.009,56.993 C57.009,56.993 57.009,56.993 57.009,56.993 C55.991,56.993 54.964,56.934 53.950,57.003 C50.388,57.244 48.130,59.014 47.919,62.159 C47.650,66.162 48.759,69.861 51.706,72.741 C53.817,74.808 56.524,75.537 59.454,75.132 C66.139,74.212 68.772,69.762 67.388,62.012 C67.004,59.851 65.500,58.355 63.409,57.793 C61.343,57.239 59.164,57.160 57.009,56.993 z" fill="#2046C4" />
<path id="Shape-22" d="M28.892,92.110 C33.001,95.401 35.072,97.475 42.540,97.475 C50.007,97.475 51.872,96.324 56.189,92.110 " fill="#ECD6C0" />
<path id="Shape-18" d="M58.895,0.653 C47.191,12.390 25.868,12.217 13.243,22.020 C0.618,31.823 0.948,49.836 7.717,62.914 C7.717,62.914 11.216,62.638 12.570,48.617 C14.551,28.094 29.294,42.128 43.309,42.261 C56.972,42.391 70.284,27.830 73.337,48.880 C75.090,60.965 77.821,59.911 77.821,59.911 C77.821,59.911 95.185,19.305 58.895,0.653 z" fill="#F9CA67" />
</g>
</svg>
