<svg version="1.1" xmlns="http://www.w3.org/2000/svg" xmlns:xlink="http://www.w3.org/1999/xlink" width="92" height="114" viewBox="0 0 92 114">
<g id="avatar_5">
<path id="Shape-28" d="M84.640,49.355 C84.395,49.320 84.149,49.306 83.905,49.303 C82.656,11.211 60.408,5.991 45.579,5.991 C30.749,5.991 8.984,11.211 7.736,49.304 C7.492,49.306 7.247,49.320 7.000,49.355 C2.518,49.975 -0.575,55.769 0.097,62.303 C0.769,68.832 4.951,73.624 9.436,73.006 C9.528,72.994 9.619,72.975 9.710,72.958 C12.214,85.057 16.411,95.018 18.654,97.899 C21.718,101.835 37.494,112.222 45.579,112.222 C53.662,112.222 69.923,99.835 72.986,95.899 C75.231,93.018 79.426,85.057 81.930,72.958 C82.022,72.974 82.113,72.994 82.206,73.006 C86.691,73.624 90.870,68.832 91.544,62.303 C92.216,55.769 89.126,49.975 84.640,49.355 z" fill="#FFE0BE" />
<path id="Shape-22" d="M34.134,92.001 C38.244,95.292 38.365,95.421 45.833,95.421 C53.300,95.421 53.215,96.215 57.532,92.001 " fill="#E4C5A3" />
<path id="Shape-26" d="M79.666,58.379 L77.474,53.955 C77.474,53.955 78.401,70.245 78.063,74.414 C77.726,78.581 77.006,89.968 70.137,97.212 C64.871,102.764 52.303,107.545 52.303,107.545 C52.303,107.545 50.532,107.716 47.834,107.716 C47.834,103.293 47.834,98.826 47.834,98.826 L45.304,98.848 L45.304,98.851 L42.824,98.830 C42.824,98.830 42.824,103.295 42.824,107.719 C40.125,107.719 38.354,107.548 38.354,107.548 C38.354,107.548 25.785,102.768 20.520,97.213 C13.650,89.970 12.931,78.584 12.594,74.415 C12.256,70.248 13.183,53.958 13.183,53.958 L10.991,58.382 C10.991,58.382 8.841,66.644 8.841,73.395 C8.841,81.604 14.027,95.512 17.484,99.765 C20.941,104.019 36.963,113.290 36.963,113.290 L45.354,113.401 L45.354,113.397 L53.694,113.287 C53.694,113.287 69.716,104.016 73.174,99.763 C76.630,95.508 81.815,81.602 81.815,73.392 C81.815,66.641 79.666,58.379 79.666,58.379 z" fill="#1D1D1D" />
<path id="Shape-35" d="M34.393,62.786 C34.426,62.948 33.733,64.964 32.481,65.755 C29.659,67.530 24.552,68.088 22.437,62.786 C22.437,62.786 23.945,58.718 28.784,58.772 C33.622,58.829 33.855,60.109 34.393,62.786 z" fill="#EDEEEC" />
<path id="Shape-37" d="M25.338,62.599 C25.338,61.003 26.692,59.712 28.361,59.712 C30.028,59.712 31.381,61.003 31.381,62.599 C31.381,64.192 30.028,65.483 28.361,65.483 C26.692,65.483 25.338,64.192 25.338,62.599 z" fill="#1D1D1D" />
<path id="Shape-38" d="M26.732,62.823 C26.732,61.843 27.563,61.048 28.590,61.048 C29.615,61.048 30.448,61.843 30.448,62.823 C30.448,63.803 29.615,64.596 28.590,64.596 C27.563,64.596 26.732,63.803 26.732,62.823 z" fill="#221F1F" />
<path id="Shape-38" d="M27.222,61.532 C27.222,61.088 27.601,60.729 28.069,60.729 C28.536,60.729 28.916,61.088 28.916,61.532 C28.916,61.976 28.536,62.335 28.069,62.335 C27.601,62.335 27.222,61.976 27.222,61.532 z" fill="#FFFFFF" />
<path id="Shape-38" d="M28.537,62.787 C28.537,62.343 28.916,61.984 29.384,61.984 C29.851,61.984 30.230,62.343 30.230,62.787 C30.230,63.231 29.851,63.590 29.384,63.590 C28.916,63.590 28.537,63.231 28.537,62.787 z" fill="#FFFFFF" />
<path id="Shape-36" d="M34.349,62.674 C34.349,62.674 30.476,59.944 22.365,62.674 C22.365,62.674 23.875,58.396 28.726,58.453 C33.576,58.513 33.861,59.829 34.349,62.674 z" fill="#846544" />
<path id="Shape-34" d="M20.996,53.828 C20.996,53.828 27.599,48.724 35.992,49.002 C35.992,49.002 35.992,52.204 35.992,52.204 C35.992,52.204 26.175,51.556 20.996,55.940 C20.996,55.940 20.996,53.828 20.996,53.828 z" fill="#1D1D1D" />
<path id="Shape-35" d="M56.606,62.786 C56.574,62.948 57.267,64.964 58.519,65.755 C61.341,67.530 66.448,68.088 68.562,62.786 C68.562,62.786 67.055,58.718 62.216,58.772 C57.378,58.829 57.145,60.109 56.606,62.786 z" fill="#EDEEEC" />
<path id="Shape-37" d="M65.662,62.599 C65.662,61.003 64.308,59.712 62.639,59.712 C60.972,59.712 59.619,61.003 59.619,62.599 C59.619,64.192 60.972,65.483 62.639,65.483 C64.308,65.483 65.662,64.192 65.662,62.599 z" fill="#1D1D1D" />
<path id="Shape-38" d="M64.268,62.823 C64.268,61.843 63.437,61.048 62.410,61.048 C61.385,61.048 60.552,61.843 60.552,62.823 C60.552,63.803 61.385,64.596 62.410,64.596 C63.437,64.596 64.268,63.803 64.268,62.823 z" fill="#221F1F" />
<path id="Shape-38" d="M63.777,61.532 C63.777,61.088 63.399,60.729 62.931,60.729 C62.463,60.729 62.084,61.088 62.084,61.532 C62.084,61.976 62.463,62.335 62.931,62.335 C63.399,62.335 63.777,61.976 63.777,61.532 z" fill="#FFFFFF" />
<path id="Shape-38" d="M62.463,62.787 C62.463,62.343 62.084,61.984 61.616,61.984 C61.149,61.984 60.770,62.343 60.770,62.787 C60.770,63.231 61.149,63.590 61.616,63.590 C62.084,63.590 62.463,63.231 62.463,62.787 z" fill="#FFFFFF" />
<path id="Shape-36" d="M56.651,62.674 C56.651,62.674 60.524,59.944 68.635,62.674 C68.635,62.674 67.124,58.396 62.273,58.453 C57.424,58.513 57.139,59.829 56.651,62.674 z" fill="#846544" />
<path id="Shape-34" d="M70.004,53.828 C70.004,53.828 63.401,48.724 55.008,49.002 C55.008,49.002 55.008,52.204 55.008,52.204 C55.008,52.204 64.825,51.556 70.004,55.940 C70.004,55.940 70.004,53.828 70.004,53.828 z" fill="#1D1D1D" />
<path id="Shape-27" d="M86.389,24.736 C79.466,3.845 72.523,5.342 51.172,2.006 C29.821,-1.329 15.432,-0.888 5.385,24.614 C-0.558,39.695 4.065,52.144 4.437,52.821 C5.116,52.537 5.888,52.341 6.764,52.275 C9.105,58.017 11.315,62.292 13.222,58.783 C15.128,55.274 27.280,48.755 39.480,42.577 C51.682,36.400 65.649,31.710 74.674,38.819 C79.335,42.491 75.116,55.274 77.021,58.783 C78.928,62.292 81.139,58.017 83.480,52.275 C84.401,52.343 85.702,52.662 86.405,52.970 C86.878,51.671 92.213,42.307 86.389,24.736 z" fill="#1D1D1D" />
</g>
</svg>
