<svg version="1.1" xmlns="http://www.w3.org/2000/svg" xmlns:xlink="http://www.w3.org/1999/xlink" width="96" height="124" viewBox="0 0 96 124">
<g id="avatar_6">
<path id="Shape-29" d="M84.069,68.881 C83.839,68.849 83.609,68.836 83.381,68.833 C82.213,33.306 61.407,28.438 47.540,28.438 C33.671,28.438 13.317,33.306 12.150,68.834 C11.922,68.836 11.693,68.849 11.462,68.881 C7.270,69.459 4.378,74.863 5.007,80.957 C5.635,87.047 9.545,91.516 13.740,90.939 C13.826,90.928 13.911,90.911 13.996,90.895 C16.338,102.179 20.263,109.604 22.360,112.291 C25.226,115.961 39.979,123.783 47.540,123.783 C55.099,123.783 70.305,115.961 73.170,112.291 C75.269,109.604 79.193,102.179 81.534,90.895 C81.620,90.910 81.705,90.928 81.793,90.939 C85.987,91.516 89.895,87.047 90.524,80.957 C91.153,74.863 88.264,69.459 84.069,68.881 z" fill="#F2CCA7" />
<path id="Shape-22" d="M35.606,102.380 C41.086,104.964 38.323,107.242 48.279,107.242 C58.236,107.242 55.199,105.688 60.954,102.380 " fill="#FFFFFF" />
<path id="Shape-30" d="M89.818,51.978 C89.864,52.321 89.890,52.676 89.890,53.030 C89.890,56.210 89.456,58.922 86.853,59.989 C87.903,61.962 88.418,64.395 88.074,66.624 C86.533,73.680 83.060,70.957 81.663,81.941 C80.632,71.020 75.360,66.412 76.120,62.322 C76.422,60.357 77.294,55.350 76.233,53.712 C74.488,54.611 73.004,54.979 71.606,54.938 C70.207,54.898 68.893,54.448 67.491,53.711 C65.529,52.681 64.101,49.805 64.387,47.192 C64.133,49.182 62.394,50.526 60.649,50.656 C59.287,50.758 57.922,50.122 57.259,48.477 C55.737,51.136 51.755,52.829 47.792,53.225 C47.791,53.225 47.790,53.224 47.790,53.224 C47.789,53.224 47.788,53.225 47.787,53.225 C47.786,53.225 47.786,53.225 47.786,53.225 C43.824,52.829 39.841,51.136 38.320,48.479 C37.655,50.122 36.290,50.758 34.928,50.656 C33.180,50.525 31.436,49.177 31.186,47.181 C31.485,49.797 30.050,52.680 28.085,53.711 C26.683,54.448 25.370,54.898 23.971,54.938 C22.573,54.979 21.089,54.611 19.344,53.712 C19.338,53.720 19.334,53.730 19.329,53.738 C18.311,55.386 21.165,58.953 21.466,60.909 C22.225,64.998 15.850,68.326 13.875,81.710 C12.434,70.691 9.041,73.680 7.499,66.624 C7.156,64.395 7.667,61.962 8.723,59.989 C6.119,58.922 5.685,56.210 5.685,53.030 C5.685,52.676 5.708,52.321 5.754,51.978 C0.967,48.013 -1.446,41.487 2.196,33.636 C3.261,30.951 4.289,30.549 6.980,28.875 C7.042,22.779 11.383,17.795 16.920,17.242 C17.387,-0.379 31.532,9.339 31.532,9.339 C31.532,9.339 32.439,1.130 40.418,0.155 C47.819,-0.752 48.259,7.442 48.259,7.442 C48.259,7.442 51.661,-0.627 63.796,1.172 C73.659,2.633 78.139,5.712 78.651,14.873 C84.190,15.425 87.114,20.410 87.178,26.505 C89.870,28.179 92.310,30.951 93.379,33.636 C97.022,41.487 94.605,48.013 89.818,51.978 z" fill="#FFE981" />
<path id="Shape-35" d="M37.393,76.786 C37.426,76.948 36.733,78.964 35.481,79.755 C32.659,81.530 27.552,82.088 25.437,76.786 C25.437,76.786 26.945,72.718 31.784,72.772 C36.622,72.829 36.855,74.109 37.393,76.786 z" fill="#EDEEEC" />
<path id="Shape-37" d="M28.338,76.599 C28.338,75.003 29.692,73.712 31.361,73.712 C33.028,73.712 34.381,75.003 34.381,76.599 C34.381,78.192 33.028,79.483 31.361,79.483 C29.692,79.483 28.338,78.192 28.338,76.599 z" fill="#80452D" />
<path id="Shape-38" d="M29.732,76.823 C29.732,75.843 30.563,75.048 31.590,75.048 C32.615,75.048 33.448,75.843 33.448,76.823 C33.448,77.803 32.615,78.596 31.590,78.596 C30.563,78.596 29.732,77.803 29.732,76.823 z" fill="#221F1F" />
<path id="Shape-38" d="M30.222,75.532 C30.222,75.088 30.601,74.729 31.069,74.729 C31.536,74.729 31.916,75.088 31.916,75.532 C31.916,75.976 31.536,76.335 31.069,76.335 C30.601,76.335 30.222,75.976 30.222,75.532 z" fill="#FFFFFF" />
<path id="Shape-38" d="M31.537,76.787 C31.537,76.343 31.916,75.984 32.384,75.984 C32.851,75.984 33.230,76.343 33.230,76.787 C33.230,77.231 32.851,77.590 32.384,77.590 C31.916,77.590 31.537,77.231 31.537,76.787 z" fill="#FFFFFF" />
<path id="Shape-36" d="M37.349,76.674 C37.349,76.674 33.476,73.944 25.365,76.674 C25.365,76.674 26.875,72.396 31.726,72.453 C36.576,72.513 36.861,73.829 37.349,76.674 z" fill="#D0926C" />
<path id="Shape-34" d="M23.996,67.828 C23.996,67.828 30.599,62.724 38.992,63.002 C38.992,63.002 38.992,66.204 38.992,66.204 C38.992,66.204 29.175,65.556 23.996,69.940 C23.996,69.940 23.996,67.828 23.996,67.828 z" fill="#946331" />
<path id="Shape-35" d="M59.606,76.786 C59.574,76.948 60.267,78.964 61.519,79.755 C64.341,81.530 69.448,82.088 71.562,76.786 C71.562,76.786 70.055,72.718 65.216,72.772 C60.378,72.829 60.145,74.109 59.606,76.786 z" fill="#EDEEEC" />
<path id="Shape-37" d="M68.662,76.599 C68.662,75.003 67.308,73.712 65.639,73.712 C63.972,73.712 62.619,75.003 62.619,76.599 C62.619,78.192 63.972,79.483 65.639,79.483 C67.308,79.483 68.662,78.192 68.662,76.599 z" fill="#80452D" />
<path id="Shape-38" d="M67.268,76.823 C67.268,75.843 66.437,75.048 65.410,75.048 C64.385,75.048 63.552,75.843 63.552,76.823 C63.552,77.803 64.385,78.596 65.410,78.596 C66.437,78.596 67.268,77.803 67.268,76.823 z" fill="#221F1F" />
<path id="Shape-38" d="M66.777,75.532 C66.777,75.088 66.399,74.729 65.931,74.729 C65.463,74.729 65.084,75.088 65.084,75.532 C65.084,75.976 65.463,76.335 65.931,76.335 C66.399,76.335 66.777,75.976 66.777,75.532 z" fill="#FFFFFF" />
<path id="Shape-38" d="M65.463,76.787 C65.463,76.343 65.084,75.984 64.616,75.984 C64.149,75.984 63.770,76.343 63.770,76.787 C63.770,77.231 64.149,77.590 64.616,77.590 C65.084,77.590 65.463,77.231 65.463,76.787 z" fill="#FFFFFF" />
<path id="Shape-36" d="M59.651,76.674 C59.651,76.674 63.524,73.944 71.635,76.674 C71.635,76.674 70.124,72.396 65.273,72.453 C60.424,72.513 60.139,73.829 59.651,76.674 z" fill="#D0926C" />
<path id="Shape-34" d="M73.004,67.828 C73.004,67.828 66.401,62.724 58.008,63.002 C58.008,63.002 58.008,66.204 58.008,66.204 C58.008,66.204 67.825,65.556 73.004,69.940 C73.004,69.940 73.004,67.828 73.004,67.828 z" fill="#946331" />
</g>
</svg>
