<svg version="1.1" xmlns="http://www.w3.org/2000/svg" xmlns:xlink="http://www.w3.org/1999/xlink" width="87" height="113" viewBox="0 0 87 113">
<g id="avatar_1">
<path id="Shape-17" d="M79.613,57.491 C79.383,57.458 79.152,57.444 78.925,57.442 C77.757,21.917 56.951,17.047 43.083,17.047 C29.215,17.047 8.861,21.917 7.693,57.442 C7.464,57.444 7.235,57.458 7.005,57.491 C2.813,58.069 -0.079,63.473 0.550,69.566 C1.177,75.657 5.089,80.125 9.281,79.548 C9.368,79.537 9.453,79.520 9.540,79.504 C11.880,90.786 15.805,98.213 17.903,100.901 C20.770,104.569 35.523,112.393 43.083,112.393 C50.643,112.393 65.848,104.569 68.715,100.901 C70.813,98.213 74.737,90.786 77.078,79.504 C77.164,79.519 77.250,79.537 77.336,79.548 C81.531,80.125 85.439,75.657 86.069,69.566 C86.697,63.473 83.807,58.069 79.613,57.491 z" fill="#F2CCA7" />
<path id="Shape-18" d="M59.203,0.506 C47.499,12.242 26.176,12.069 13.551,21.872 C0.926,31.675 1.256,49.689 8.025,62.767 C8.025,62.767 11.524,62.490 12.878,48.469 C14.859,27.946 29.603,41.980 43.617,42.114 C57.280,42.243 70.592,27.683 73.645,48.732 C75.398,60.818 78.130,59.763 78.130,59.763 C78.130,59.763 95.493,19.157 59.203,0.506 z" fill="#402C18" />
<path id="Shape-22" d="M32.124,90.016 C36.234,93.307 36.355,93.436 43.823,93.436 C51.290,93.436 51.206,94.230 55.522,90.016 " fill="#FFEEDD" />
<path id="Shape-35" d="M33.393,63.786 C33.426,63.948 32.733,65.964 31.481,66.755 C28.659,68.530 23.552,69.088 21.438,63.786 C21.438,63.786 22.945,59.718 27.784,59.772 C32.622,59.829 32.855,61.109 33.393,63.786 z" fill="#EDEEEC" />
<path id="Shape-37" d="M24.338,63.599 C24.338,62.003 25.692,60.712 27.361,60.712 C29.028,60.712 30.381,62.003 30.381,63.599 C30.381,65.192 29.028,66.483 27.361,66.483 C25.692,66.483 24.338,65.192 24.338,63.599 z" fill="#636363" />
<path id="Shape-38" d="M25.732,63.823 C25.732,62.842 26.563,62.048 27.590,62.048 C28.615,62.048 29.448,62.842 29.448,63.823 C29.448,64.803 28.615,65.596 27.590,65.596 C26.563,65.596 25.732,64.803 25.732,63.823 z" fill="#221F1F" />
<path id="Shape-38" d="M26.222,62.532 C26.222,62.088 26.601,61.729 27.069,61.729 C27.536,61.729 27.916,62.088 27.916,62.532 C27.916,62.976 27.536,63.335 27.069,63.335 C26.601,63.335 26.222,62.976 26.222,62.532 z" fill="#FFFFFF" />
<path id="Shape-38" d="M27.537,63.787 C27.537,63.343 27.916,62.984 28.384,62.984 C28.851,62.984 29.230,63.343 29.230,63.787 C29.230,64.231 28.851,64.590 28.384,64.590 C27.916,64.590 27.537,64.231 27.537,63.787 z" fill="#FFFFFF" />
<path id="Shape-36" d="M33.349,63.674 C33.349,63.674 29.476,60.944 21.365,63.674 C21.365,63.674 22.875,59.396 27.726,59.453 C32.576,59.513 32.861,60.829 33.349,63.674 z" fill="#CD9D6D" />
<path id="Shape-34" d="M19.996,54.828 C19.996,54.828 26.599,49.724 34.992,50.002 C34.992,50.002 34.992,53.204 34.992,53.204 C34.992,53.204 25.175,52.556 19.996,56.940 C19.996,56.940 19.996,54.828 19.996,54.828 z" fill="#402C18" />
<path id="Shape-35" d="M55.606,63.786 C55.574,63.948 56.267,65.964 57.519,66.755 C60.341,68.530 65.448,69.088 67.562,63.786 C67.562,63.786 66.055,59.718 61.216,59.772 C56.378,59.829 56.145,61.109 55.606,63.786 z" fill="#EDEEEC" />
<path id="Shape-37" d="M64.662,63.599 C64.662,62.003 63.308,60.712 61.639,60.712 C59.972,60.712 58.619,62.003 58.619,63.599 C58.619,65.192 59.972,66.483 61.639,66.483 C63.308,66.483 64.662,65.192 64.662,63.599 z" fill="#636363" />
<path id="Shape-38" d="M63.268,63.823 C63.268,62.842 62.437,62.048 61.410,62.048 C60.385,62.048 59.552,62.842 59.552,63.823 C59.552,64.803 60.385,65.596 61.410,65.596 C62.437,65.596 63.268,64.803 63.268,63.823 z" fill="#221F1F" />
<path id="Shape-38" d="M62.777,62.532 C62.777,62.088 62.399,61.729 61.931,61.729 C61.463,61.729 61.084,62.088 61.084,62.532 C61.084,62.976 61.463,63.335 61.931,63.335 C62.399,63.335 62.777,62.976 62.777,62.532 z" fill="#FFFFFF" />
<path id="Shape-38" d="M61.463,63.787 C61.463,63.343 61.084,62.984 60.616,62.984 C60.149,62.984 59.770,63.343 59.770,63.787 C59.770,64.231 60.149,64.590 60.616,64.590 C61.084,64.590 61.463,64.231 61.463,63.787 z" fill="#FFFFFF" />
<path id="Shape-36" d="M55.651,63.674 C55.651,63.674 59.524,60.944 67.635,63.674 C67.635,63.674 66.125,59.396 61.273,59.453 C56.424,59.513 56.139,60.829 55.651,63.674 z" fill="#CD9D6D" />
<path id="Shape-34" d="M69.004,54.828 C69.004,54.828 62.401,49.724 54.008,50.002 C54.008,50.002 54.008,53.204 54.008,53.204 C54.008,53.204 63.825,52.556 69.004,56.940 C69.004,56.940 69.004,54.828 69.004,54.828 z" fill="#402C18" />
</g>
</svg>
