<svg version="1.1" xmlns="http://www.w3.org/2000/svg" xmlns:xlink="http://www.w3.org/1999/xlink" width="102" height="135" viewBox="0 0 102 135">
<g id="avatar_7">
<path id="Shape-31" d="M95.752,76.416 C88.637,70.725 96.520,56.140 96.391,49.418 C96.261,42.693 93.545,39.202 90.182,35.711 C86.821,32.219 91.347,30.020 87.080,18.384 C82.810,6.747 70.781,7.332 67.289,7.332 C63.798,7.332 63.927,3.839 59.787,1.513 C56.564,-0.302 45.793,-0.302 42.567,1.513 C38.428,3.839 38.557,7.332 35.066,7.332 C31.574,7.332 19.544,6.747 15.277,18.384 C11.008,30.020 15.535,32.219 12.173,35.711 C8.811,39.202 6.094,42.693 5.964,49.418 C5.834,56.140 12.229,72.433 5.115,78.122 C-1.999,83.812 0.853,88.068 3.957,93.888 C7.061,99.706 -6.214,123.338 4.000,131.000 C14.724,139.048 32.910,128.162 37.491,123.781 C42.074,119.400 41.222,96.352 45.661,83.720 C46.417,82.589 56.991,81.833 57.369,82.589 C61.896,95.600 61.757,120.008 64.189,123.856 C66.621,127.706 96.119,141.080 99.754,131.277 C104.930,117.316 93.505,119.637 98.027,102.599 C99.718,96.227 102.865,82.105 95.752,76.416 zM77.682,66.157 C67.955,44.755 39.792,47.505 27.652,72.724 C23.477,63.885 20.338,53.624 29.216,35.414 C29.216,35.414 37.035,35.414 37.035,35.414 C37.035,35.414 36.421,35.294 38.012,28.756 C37.904,33.215 38.776,35.414 38.776,35.414 L43.889,35.414 C43.889,35.414 42.692,29.627 45.629,23.100 C45.085,29.518 45.738,35.917 45.738,35.917 C45.738,35.917 76.460,35.917 76.460,35.917 C79.184,44.758 79.640,56.089 77.682,66.157 z" fill="#7A4E33" />
<path id="Shape-21" d="M83.853,57.032 C82.767,24.164 63.422,19.658 50.529,19.658 C19.369,19.381 15.646,61.595 19.342,77.442 C21.518,87.882 25.168,94.753 27.118,97.239 C29.783,100.634 44.888,110.544 51.917,110.544 C58.946,110.544 71.696,100.634 74.360,97.239 C76.311,94.753 84.166,81.716 83.853,57.032 z" fill="#FDDBAF" />
<path id="Shape-31" d="M44.000,16.000 C38.567,5.827 0.124,61.621 15.653,50.465 C19.541,54.589 37.035,50.955 37.035,50.955 C37.035,50.955 36.421,50.835 38.012,44.297 C37.904,48.756 38.776,50.955 38.776,50.955 L43.889,50.955 C43.889,50.955 42.692,45.167 45.629,38.641 C45.085,45.058 45.738,51.458 45.738,51.458 C45.738,51.458 87.294,52.537 87.294,52.537 C90.018,61.378 71.958,6.932 70.000,17.000 " fill="#7A4E33" />
<path id="Shape-22" d="M51.018,97.556 C43.551,97.556 43.380,93.062 39.270,89.771 C43.792,89.839 48.141,84.523 51.018,87.817 C53.896,84.523 58.246,89.839 62.768,89.771 C58.657,93.062 58.486,97.556 51.018,97.556 z" fill="#FF3A1A" />
<path id="Shape-35" d="M41.393,63.785 C41.426,63.948 40.733,65.964 39.481,66.755 C36.659,68.530 31.552,69.088 29.438,63.785 C29.438,63.785 30.945,59.718 35.784,59.772 C40.622,59.829 40.855,61.109 41.393,63.785 z" fill="#FFFFFF" />
<path id="Shape-37" d="M32.338,63.599 C32.338,62.003 33.692,60.712 35.361,60.712 C37.028,60.712 38.381,62.003 38.381,63.599 C38.381,65.192 37.028,66.483 35.361,66.483 C33.692,66.483 32.338,65.192 32.338,63.599 z" fill="#099E10" />
<path id="Shape-38" d="M33.732,63.823 C33.732,62.843 34.563,62.048 35.590,62.048 C36.615,62.048 37.448,62.843 37.448,63.823 C37.448,64.803 36.615,65.596 35.590,65.596 C34.563,65.596 33.732,64.803 33.732,63.823 z" fill="#221F1F" />
<path id="Shape-38" d="M34.222,62.532 C34.222,62.088 34.601,61.729 35.069,61.729 C35.536,61.729 35.916,62.088 35.916,62.532 C35.916,62.976 35.536,63.335 35.069,63.335 C34.601,63.335 34.222,62.976 34.222,62.532 z" fill="#FFFFFF" />
<path id="Shape-38" d="M35.537,63.787 C35.537,63.343 35.916,62.984 36.384,62.984 C36.851,62.984 37.230,63.343 37.230,63.787 C37.230,64.231 36.851,64.590 36.384,64.590 C35.916,64.590 35.537,64.231 35.537,63.787 z" fill="#FFFFFF" />
<path id="Shape-36" d="M41.349,63.674 C41.349,63.674 37.476,60.944 29.365,63.674 C29.365,63.674 30.875,59.396 35.727,59.453 C40.576,59.513 40.861,60.829 41.349,63.674 z" fill="#BA9462" />
<path id="Shape-34" d="M27.996,54.828 C27.996,54.828 34.599,49.724 42.992,50.002 C42.992,50.002 42.992,53.204 42.992,53.204 C42.992,53.204 33.175,52.556 27.996,56.940 C27.996,56.940 27.996,54.828 27.996,54.828 z" fill="#7A4E33" />
<path id="Shape-35" d="M60.606,63.785 C60.574,63.948 61.267,65.964 62.519,66.755 C65.341,68.530 70.448,69.088 72.562,63.785 C72.562,63.785 71.055,59.718 66.216,59.772 C61.378,59.829 61.145,61.109 60.606,63.785 z" fill="#FFFFFF" />
<path id="Shape-37" d="M69.662,63.599 C69.662,62.003 68.308,60.712 66.639,60.712 C64.972,60.712 63.619,62.003 63.619,63.599 C63.619,65.192 64.972,66.483 66.639,66.483 C68.308,66.483 69.662,65.192 69.662,63.599 z" fill="#099E10" />
<path id="Shape-38" d="M68.268,63.823 C68.268,62.843 67.437,62.048 66.410,62.048 C65.385,62.048 64.552,62.843 64.552,63.823 C64.552,64.803 65.385,65.596 66.410,65.596 C67.437,65.596 68.268,64.803 68.268,63.823 z" fill="#221F1F" />
<path id="Shape-38" d="M67.777,62.532 C67.777,62.088 67.399,61.729 66.931,61.729 C66.463,61.729 66.084,62.088 66.084,62.532 C66.084,62.976 66.463,63.335 66.931,63.335 C67.399,63.335 67.777,62.976 67.777,62.532 z" fill="#FFFFFF" />
<path id="Shape-38" d="M66.463,63.787 C66.463,63.343 66.084,62.984 65.616,62.984 C65.149,62.984 64.770,63.343 64.770,63.787 C64.770,64.231 65.149,64.590 65.616,64.590 C66.084,64.590 66.463,64.231 66.463,63.787 z" fill="#FFFFFF" />
<path id="Shape-36" d="M60.651,63.674 C60.651,63.674 64.524,60.944 72.635,63.674 C72.635,63.674 71.124,59.396 66.273,59.453 C61.424,59.513 61.139,60.829 60.651,63.674 z" fill="#BA9462" />
<path id="Shape-34" d="M74.004,54.828 C74.004,54.828 67.401,49.724 59.008,50.002 C59.008,50.002 59.008,53.204 59.008,53.204 C59.008,53.204 68.825,52.556 74.004,56.940 C74.004,56.940 74.004,54.828 74.004,54.828 z" fill="#7A4E33" />
</g>
</svg>
