<svg version="1.1" xmlns="http://www.w3.org/2000/svg" xmlns:xlink="http://www.w3.org/1999/xlink" width="30" height="7" viewBox="0 0 30 7">
<g id="divider-circles">
<path id="circle" d="M26.531,7.000 C24.616,7.000 23.062,5.433 23.062,3.500 C23.062,1.567 24.616,0.000 26.531,0.000 C28.447,0.000 30.000,1.567 30.000,3.500 C30.000,5.433 28.447,7.000 26.531,7.000 zM15.000,7.000 C13.084,7.000 11.531,5.433 11.531,3.500 C11.531,1.567 13.084,0.000 15.000,0.000 C16.916,0.000 18.469,1.567 18.469,3.500 C18.469,5.433 16.916,7.000 15.000,7.000 zM3.469,7.000 C1.553,7.000 -0.000,5.433 -0.000,3.500 C-0.000,1.567 1.553,0.000 3.469,0.000 C5.384,0.000 6.938,1.567 6.938,3.500 C6.938,5.433 5.384,7.000 3.469,7.000 z" fill="#729DCD" />
</g>
</svg>
