<svg version="1.1" xmlns="http://www.w3.org/2000/svg" xmlns:xlink="http://www.w3.org/1999/xlink" width="109" height="7" viewBox="0 0 109 7">
<g id="hiw_arrow_6">
<path id="arrow" d="M108.957,3.250 L109.001,3.311 L108.836,3.418 L108.416,3.999 L108.178,3.844 L104.083,6.499 L103.499,5.689 L107.262,3.250 L103.499,0.811 L104.083,0.001 L108.178,2.656 L108.416,2.501 L108.836,3.082 L109.001,3.189 L108.957,3.250 z" fill="#8E8E8E" />
<path id="----------------" d="M101.617,3.930 L101.617,2.895 L103.876,2.895 L103.876,3.930 L101.617,3.930 zM97.209,2.895 L99.468,2.895 L99.468,3.930 L97.209,3.930 L97.209,2.895 zM92.811,2.895 L95.070,2.895 L95.070,3.930 L92.811,3.930 L92.811,2.895 zM88.412,2.895 L90.671,2.895 L90.671,3.930 L88.412,3.930 L88.412,2.895 zM84.012,2.895 L86.271,2.895 L86.271,3.930 L84.012,3.930 L84.012,2.895 zM79.600,2.895 L81.859,2.895 L81.859,3.930 L79.600,3.930 L79.600,2.895 zM75.210,2.895 L77.469,2.895 L77.469,3.930 L75.210,3.930 L75.210,2.895 zM70.811,2.895 L73.070,2.895 L73.070,3.930 L70.811,3.930 L70.811,2.895 zM66.002,2.895 L68.261,2.895 L68.261,3.930 L66.002,3.930 L66.002,2.895 zM61.611,2.895 L63.870,2.895 L63.870,3.930 L61.611,3.930 L61.611,2.895 zM57.204,2.895 L59.463,2.895 L59.463,3.930 L57.204,3.930 L57.204,2.895 zM52.799,2.895 L55.058,2.895 L55.058,3.930 L52.799,3.930 L52.799,2.895 zM48.397,2.895 L50.656,2.895 L50.656,3.930 L48.397,3.930 L48.397,2.895 zM44.003,2.895 L46.262,2.895 L46.262,3.930 L44.003,3.930 L44.003,2.895 zM39.602,2.895 L41.861,2.895 L41.861,3.930 L39.602,3.930 L39.602,2.895 zM35.197,2.895 L37.456,2.895 L37.456,3.930 L35.197,3.930 L35.197,2.895 zM30.807,2.895 L33.066,2.895 L33.066,3.930 L30.807,3.930 L30.807,2.895 zM26.401,2.895 L28.660,2.895 L28.660,3.930 L26.401,3.930 L26.401,2.895 zM21.999,2.895 L24.258,2.895 L24.258,3.930 L21.999,3.930 L21.999,2.895 zM17.604,2.895 L19.863,2.895 L19.863,3.930 L17.604,3.930 L17.604,2.895 zM13.202,2.895 L15.461,2.895 L15.461,3.930 L13.202,3.930 L13.202,2.895 zM8.798,2.895 L11.057,2.895 L11.057,3.930 L8.798,3.930 L8.798,2.895 zM4.394,2.895 L6.653,2.895 L6.653,3.930 L4.394,3.930 L4.394,2.895 zM-0.007,2.895 L2.252,2.895 L2.252,3.930 L-0.007,3.930 L-0.007,2.895 z" fill="#8E8E8E" />
</g>
</svg>
