<svg version="1.1" xmlns="http://www.w3.org/2000/svg" xmlns:xlink="http://www.w3.org/1999/xlink" width="120" height="6" viewBox="0 0 61 3">
<g id="hiw_arrow_1">
<path id="--" d="M60.550,2.562 L58.273,2.418 L58.338,1.385 L60.615,1.529 L60.550,2.562 zM53.815,2.166 L53.871,1.132 L56.149,1.257 L56.093,2.290 L53.815,2.166 zM49.364,1.951 L49.411,0.917 L51.691,1.022 L51.643,2.056 L49.364,1.951 zM44.910,1.774 L44.949,0.739 L47.229,0.825 L47.190,1.860 L44.910,1.774 zM40.444,1.633 L40.475,0.598 L42.755,0.665 L42.725,1.700 L40.444,1.633 zM35.977,1.529 L35.999,0.494 L38.280,0.543 L38.258,1.577 L35.977,1.529 zM31.523,1.462 L31.537,0.427 L33.818,0.457 L33.805,1.492 L31.523,1.462 zM27.063,1.429 L27.070,0.394 L29.352,0.409 L29.345,1.444 L27.063,1.429 zM22.586,0.406 L24.868,0.390 L24.875,1.425 L22.593,1.441 L22.586,0.406 zM18.133,0.443 L20.414,0.417 L20.426,1.452 L18.145,1.478 L18.133,0.443 zM13.654,0.522 L15.935,0.477 L15.956,1.512 L13.674,1.556 L13.654,0.522 zM9.186,0.636 L11.467,0.573 L11.496,1.608 L9.215,1.671 L9.186,0.636 zM4.718,0.788 L6.999,0.706 L7.036,1.741 L4.756,1.823 L4.718,0.788 zM0.252,0.978 L2.531,0.876 L2.577,1.910 L0.298,2.012 L0.252,0.978 z" fill="#8E8E8E" />
</g>
</svg>
