<svg version="1.1" xmlns="http://www.w3.org/2000/svg" xmlns:xlink="http://www.w3.org/1999/xlink" width="63" height="50" viewBox="0 0 63 50">
<g id="hiw_arrow_2">
<path id="----------------" d="M61.437,49.573 L60.347,47.568 L61.257,47.074 L62.347,49.079 L61.437,49.573 zM57.931,43.668 L58.801,43.107 L60.037,45.024 L59.168,45.585 L57.931,43.668 zM55.245,39.936 L56.075,39.317 L57.438,41.147 L56.608,41.765 L55.245,39.936 zM52.351,36.404 L53.142,35.737 L54.614,37.480 L53.823,38.148 L52.351,36.404 zM49.272,33.048 L50.025,32.339 L51.590,34.000 L50.836,34.709 L49.272,33.048 zM46.030,29.855 L46.747,29.109 L48.391,30.691 L47.674,31.437 L46.030,29.855 zM42.661,26.827 L43.345,26.050 L45.058,27.557 L44.374,28.334 L42.661,26.827 zM39.163,23.935 L39.815,23.131 L41.587,24.568 L40.936,25.372 L39.163,23.935 zM35.578,21.192 L36.199,20.364 L38.023,21.735 L37.402,22.562 L35.578,21.192 zM31.893,18.569 L32.487,17.721 L34.356,19.029 L33.763,19.877 L31.893,18.569 zM28.139,16.071 L28.706,15.205 L30.615,16.454 L30.048,17.321 L28.139,16.071 zM24.319,13.687 L24.861,12.806 L26.805,14.000 L26.263,14.882 L24.319,13.687 zM20.449,11.415 L20.967,10.519 L22.942,11.662 L22.424,12.558 L20.449,11.415 zM16.153,9.042 L16.647,8.132 L18.651,9.222 L18.157,10.131 L16.153,9.042 zM12.169,6.967 L12.642,6.047 L14.672,7.089 L14.199,8.010 L12.169,6.967 zM8.146,4.982 L8.599,4.051 L10.650,5.050 L10.197,5.981 L8.146,4.982 zM4.077,3.078 L4.511,2.138 L6.582,3.095 L6.148,4.035 L4.077,3.078 zM-0.014,1.259 L0.402,0.312 L2.491,1.229 L2.075,2.177 L-0.014,1.259 z" fill="#8E8E8E" />
</g>
</svg>
