<svg version="1.1" xmlns="http://www.w3.org/2000/svg" xmlns:xlink="http://www.w3.org/1999/xlink" width="70" height="55" viewBox="0 0 70 55">
<g id="hiw_arrow_5">
<path id="----------------" d="M69.221,54.246 L67.108,53.384 L67.499,52.426 L69.612,53.288 L69.221,54.246 zM62.956,51.626 L63.364,50.675 L65.461,51.574 L65.053,52.525 L62.956,51.626 zM58.845,49.796 L59.271,48.852 L61.351,49.790 L60.925,50.734 L58.845,49.796 zM54.768,47.884 L55.212,46.949 L57.273,47.928 L56.829,48.863 L54.768,47.884 zM50.718,45.882 L51.182,44.957 L53.222,45.979 L52.758,46.904 L50.718,45.882 zM46.720,43.796 L47.204,42.881 L49.220,43.948 L48.736,44.863 L46.720,43.796 zM42.768,41.615 L43.274,40.711 L45.265,41.826 L44.759,42.729 L42.768,41.615 zM38.863,39.329 L39.391,38.439 L41.353,39.604 L40.824,40.494 L38.863,39.329 zM35.015,36.937 L35.568,36.061 L37.497,37.280 L36.944,38.155 L35.015,36.937 zM31.227,34.426 L31.806,33.568 L33.698,34.843 L33.119,35.701 L31.227,34.426 zM27.527,31.802 L28.133,30.963 L29.983,32.298 L29.377,33.137 L27.527,31.802 zM23.898,29.037 L24.532,28.219 L26.335,29.618 L25.700,30.436 L23.898,29.037 zM20.380,26.143 L21.046,25.350 L22.793,26.817 L22.128,27.610 L20.380,26.143 zM16.966,23.090 L17.665,22.326 L19.349,23.866 L18.650,24.630 L16.966,23.090 zM13.690,19.883 L14.423,19.152 L16.034,20.768 L15.301,21.499 L13.690,19.883 zM10.292,16.187 L11.065,15.498 L12.582,17.202 L11.809,17.891 L10.292,16.187 zM7.364,12.602 L8.176,11.960 L9.592,13.749 L8.781,14.391 L7.364,12.602 zM4.656,8.829 L5.507,8.239 L6.806,10.115 L5.955,10.705 L4.656,8.829 zM2.207,4.861 L3.098,4.334 L4.259,6.297 L3.369,6.824 L2.207,4.861 zM0.054,0.685 L0.983,0.230 L1.986,2.280 L1.056,2.735 L0.054,0.685 z" fill="#8E8E8E" />
</g>
</svg>
