<svg version="1.1" xmlns="http://www.w3.org/2000/svg" xmlns:xlink="http://www.w3.org/1999/xlink" width="54" height="47" viewBox="0 0 54 47">
<g id="hiw_arrow_3">
<path id="----------------" d="M52.555,2.976 L51.632,2.507 L52.665,0.473 L53.588,0.942 L52.555,2.976 zM49.311,6.483 L50.499,4.535 L51.383,5.073 L50.195,7.021 L49.311,6.483 zM46.719,10.269 L48.040,8.409 L48.884,9.008 L47.563,10.868 L46.719,10.269 zM43.894,13.871 L45.329,12.098 L46.134,12.749 L44.698,14.523 L43.894,13.871 zM40.878,17.287 L42.411,15.597 L43.178,16.293 L41.644,17.982 L40.878,17.287 zM37.688,20.538 L39.306,18.929 L40.036,19.663 L38.418,21.272 L37.688,20.538 zM34.363,23.622 L36.053,22.089 L36.749,22.856 L35.059,24.389 L34.363,23.622 zM30.910,26.560 L32.662,25.099 L33.325,25.894 L31.573,27.355 L30.910,26.560 zM27.351,29.356 L29.158,27.963 L29.790,28.783 L27.983,30.176 L27.351,29.356 zM23.698,32.023 L25.552,30.694 L26.155,31.535 L24.301,32.864 L23.698,32.023 zM19.636,34.781 L21.535,33.517 L22.109,34.378 L20.210,35.643 L19.636,34.781 zM15.833,37.194 L17.768,35.985 L18.317,36.863 L16.382,38.072 L15.833,37.194 zM11.963,39.502 L13.931,38.346 L14.455,39.238 L12.488,40.394 L11.963,39.502 zM8.040,41.708 L10.035,40.602 L10.537,41.507 L8.541,42.613 L8.040,41.708 zM4.074,43.814 L6.095,42.755 L6.575,43.672 L4.554,44.731 L4.074,43.814 zM0.065,45.830 L2.109,44.816 L2.569,45.743 L0.525,46.757 L0.065,45.830 z" fill="#8E8E8E" />
</g>
</svg>
