<svg version="1.1" xmlns="http://www.w3.org/2000/svg" xmlns:xlink="http://www.w3.org/1999/xlink" width="80" height="4" viewBox="0 0 80 4">
<g id="hiw_arrow_4">
<path id="----------------" d="M76.790,1.487 L76.695,0.457 L78.967,0.247 L79.062,1.277 L76.790,1.487 zM72.245,0.838 L74.518,0.648 L74.605,1.679 L72.331,1.869 L72.245,0.838 zM67.787,1.180 L70.062,1.010 L70.139,2.042 L67.864,2.212 L67.787,1.180 zM63.343,1.483 L65.620,1.333 L65.688,2.366 L63.412,2.516 L63.343,1.483 zM58.884,1.750 L61.161,1.618 L61.221,2.652 L58.943,2.783 L58.884,1.750 zM54.430,1.977 L56.709,1.866 L56.760,2.899 L54.481,3.011 L54.430,1.977 zM49.975,2.168 L52.254,2.075 L52.296,3.109 L50.017,3.202 L49.975,2.168 zM45.505,2.322 L47.786,2.248 L47.819,3.283 L45.539,3.356 L45.505,2.322 zM41.046,2.439 L43.327,2.384 L43.352,3.418 L41.071,3.473 L41.046,2.439 zM36.588,2.518 L38.870,2.482 L38.886,3.517 L36.605,3.553 L36.588,2.518 zM32.132,2.562 L34.413,2.545 L34.421,3.579 L32.140,3.597 L32.132,2.562 zM27.645,3.597 L27.653,2.562 L29.934,2.578 L29.927,3.613 L27.645,3.597 zM23.194,3.575 L23.202,2.540 L25.484,2.560 L25.475,3.595 L23.194,3.575 zM18.731,3.510 L18.748,2.475 L21.029,2.513 L21.012,3.548 L18.731,3.510 zM13.853,3.397 L13.880,2.362 L16.160,2.421 L16.134,3.455 L13.853,3.397 zM9.391,3.255 L9.426,2.220 L11.706,2.298 L11.671,3.332 L9.391,3.255 zM4.918,3.075 L4.961,2.041 L7.241,2.137 L7.197,3.171 L4.918,3.075 zM0.447,2.858 L0.499,1.824 L2.778,1.940 L2.726,2.973 L0.447,2.858 z" fill="#8E8E8E" />
</g>
</svg>
