<svg version="1.1" xmlns="http://www.w3.org/2000/svg" xmlns:xlink="http://www.w3.org/1999/xlink" width="12" height="12" viewBox="0 0 12 12">
<g id="ic_calendar">
<path id="ic_calendar" d="M11.148,11.999 L0.854,11.999 L-0.004,11.999 L-0.004,1.419 L1.712,1.441 C1.712,1.441 1.712,1.864 1.712,1.864 C1.712,2.562 2.288,3.132 2.998,3.132 C3.709,3.132 4.285,2.562 4.285,1.864 C4.285,1.864 4.285,1.441 4.285,1.441 L7.718,1.441 C7.718,1.441 7.718,1.864 7.718,1.864 C7.718,2.562 8.293,3.132 9.004,3.132 C9.715,3.132 10.291,2.562 10.291,1.864 C10.291,1.864 10.291,1.441 10.291,1.441 L11.992,1.441 L12.004,11.996 L11.148,11.999 zM11.148,4.398 L0.854,4.398 L0.854,11.156 L11.148,11.156 L11.148,4.398 zM3.491,8.430 L2.141,8.430 L2.141,7.256 L3.491,7.256 L3.491,8.430 zM3.491,10.420 L2.141,10.420 L2.141,9.246 L3.491,9.246 L3.491,10.420 zM5.640,6.480 L4.288,6.480 L4.288,5.305 L5.640,5.305 L5.640,6.480 zM5.640,8.430 L4.288,8.430 L4.288,7.256 L5.640,7.256 L5.640,8.430 zM5.640,10.420 L4.288,10.420 L4.288,9.246 L5.640,9.246 L5.640,10.420 zM7.827,6.480 L6.474,6.480 L6.474,5.305 L7.827,5.305 L7.827,6.480 zM7.827,8.430 L6.474,8.430 L6.474,7.256 L7.827,7.256 L7.827,8.430 zM7.827,10.420 L6.474,10.420 L6.474,9.246 L7.827,9.246 L7.827,10.420 zM9.852,6.480 L8.501,6.480 L8.501,5.305 L9.852,5.305 L9.852,6.480 zM9.852,8.430 L8.501,8.430 L8.501,7.256 L9.852,7.256 L9.852,8.430 zM9.852,10.420 L8.501,10.420 L8.501,9.246 L9.852,9.246 L9.852,10.420 zM8.989,2.533 C8.523,2.533 8.145,2.163 8.145,1.703 C8.145,1.703 8.145,0.833 8.145,0.833 C8.145,0.373 8.523,0.001 8.989,0.001 C9.457,0.001 9.835,0.373 9.835,0.833 C9.835,0.833 9.835,1.703 9.835,1.703 C9.835,2.163 9.457,2.533 8.989,2.533 zM2.985,2.533 C2.519,2.533 2.141,2.163 2.141,1.703 C2.141,1.703 2.141,0.833 2.141,0.833 C2.141,0.373 2.519,0.001 2.985,0.001 C3.453,0.001 3.830,0.373 3.830,0.833 C3.830,0.833 3.830,1.703 3.830,1.703 C3.830,2.163 3.452,2.533 2.985,2.533 z" fill="#787878" />
</g>
</svg>
