<svg version="1.1" xmlns="http://www.w3.org/2000/svg" xmlns:xlink="http://www.w3.org/1999/xlink" width="13" height="13" viewBox="0 0 13 13">
<g id="ic_close">
<path id="ic_close" d="M12.037,0.962 C11.655,0.580 11.037,0.580 10.657,0.962 C10.657,0.962 6.495,5.124 6.495,5.124 C6.495,5.124 2.391,1.020 2.391,1.020 C2.012,0.641 1.399,0.641 1.021,1.020 C0.643,1.399 0.643,2.012 1.021,2.390 C1.021,2.390 5.125,6.494 5.125,6.494 C5.125,6.494 0.993,10.626 0.993,10.626 C0.611,11.007 0.611,11.625 0.993,12.006 C1.375,12.387 1.993,12.387 2.373,12.006 C2.373,12.006 6.505,7.874 6.505,7.874 C6.505,7.874 10.609,11.978 10.609,11.978 C10.988,12.357 11.601,12.357 11.979,11.978 C12.358,11.599 12.358,10.986 11.979,10.608 C11.979,10.608 7.875,6.504 7.875,6.504 C7.875,6.504 12.037,2.342 12.037,2.342 C12.419,1.962 12.419,1.343 12.037,0.962 z" fill="#FFFFFF" />
</g>
</svg>
