<svg version="1.1" xmlns="http://www.w3.org/2000/svg" xmlns:xlink="http://www.w3.org/1999/xlink" width="15" height="13" viewBox="0 0 15 13">
<g id="ic_crown">
<path id="ic_crown" d="M14.001,5.387 C13.987,5.387 13.975,5.386 13.961,5.386 C13.961,5.386 12.629,10.189 12.629,10.189 L7.501,10.189 L2.371,10.189 C2.371,10.189 1.039,5.386 1.039,5.386 C1.025,5.387 1.013,5.387 0.999,5.387 C0.448,5.387 -0.000,4.942 -0.000,4.392 C-0.000,3.843 0.448,3.397 1.001,3.397 C1.552,3.397 2.000,3.843 2.000,4.392 C2.000,4.499 1.981,4.602 1.951,4.698 C1.951,4.698 4.360,6.101 4.360,6.101 C4.360,6.101 6.949,1.825 6.949,1.825 C6.679,1.647 6.502,1.342 6.502,0.995 C6.502,0.446 6.949,-0.000 7.501,-0.000 C8.052,-0.000 8.500,0.446 8.500,0.995 C8.500,1.341 8.321,1.647 8.052,1.825 C8.052,1.825 10.642,6.101 10.642,6.101 C10.642,6.101 13.051,4.698 13.051,4.698 C13.019,4.602 13.002,4.499 13.002,4.392 C13.002,3.843 13.449,3.397 14.001,3.397 C14.552,3.397 15.000,3.843 15.000,4.392 C15.000,4.942 14.552,5.387 14.001,5.387 zM2.687,11.326 C2.687,11.326 12.313,11.326 12.313,11.326 C12.777,11.326 13.153,11.700 13.153,12.163 C13.153,12.624 12.777,13.000 12.313,13.000 C12.313,13.000 2.687,13.000 2.687,13.000 C2.223,13.000 1.847,12.626 1.847,12.163 C1.847,11.700 2.223,11.326 2.687,11.326 z" fill="#FFAA00" />
</g>
</svg>
