<svg version="1.1" xmlns="http://www.w3.org/2000/svg" xmlns:xlink="http://www.w3.org/1999/xlink" width="32" height="32" viewBox="0 0 32 32">
<g id="ic_facebook">
<path id="ic_facebook" d="M16.000,0.000 C7.164,0.000 -0.000,7.165 -0.000,16.000 C-0.000,24.836 7.164,31.999 16.000,31.999 C24.836,31.999 32.000,24.836 32.000,16.000 C32.000,7.165 24.836,0.000 16.000,0.000 zM20.235,15.933 C20.235,15.933 17.465,15.933 17.465,15.933 C17.465,20.360 17.465,25.814 17.465,25.814 L13.358,25.814 C13.358,25.814 13.358,20.416 13.358,15.933 C13.358,15.933 11.405,15.933 11.405,15.933 L11.405,12.444 L13.358,12.444 C13.358,12.444 13.358,10.184 13.358,10.184 C13.358,8.566 14.126,6.041 17.502,6.041 C17.502,6.041 20.543,6.052 20.543,6.052 L20.543,9.441 C20.543,9.441 18.694,9.441 18.335,9.441 C17.975,9.441 17.465,9.621 17.465,10.390 C17.465,10.390 17.465,12.444 17.465,12.444 L20.595,12.444 L20.235,15.933 z" fill="#678BBE" />
</g>
</svg>
