<svg version="1.1" xmlns="http://www.w3.org/2000/svg" xmlns:xlink="http://www.w3.org/1999/xlink" width="32" height="32" viewBox="0 0 32 32">
<g id="ic_google">
<path id="ic_google" d="M16.000,0.005 C7.167,0.005 0.007,7.167 0.007,15.999 C0.007,24.831 7.167,31.991 16.000,31.991 C24.832,31.991 31.993,24.831 31.993,15.999 C31.993,7.167 24.832,0.005 16.000,0.005 zM25.189,19.401 C24.736,20.961 23.881,22.413 22.682,23.514 C21.548,24.561 20.128,25.278 18.626,25.624 C16.965,26.002 15.208,26.013 13.558,25.570 C12.250,25.222 11.017,24.598 9.958,23.755 C8.837,22.863 7.912,21.726 7.267,20.447 C6.274,18.487 5.969,16.192 6.407,14.040 C6.581,13.177 6.871,12.337 7.268,11.550 C8.408,9.267 10.465,7.461 12.880,6.634 C15.023,5.892 17.424,5.909 19.553,6.693 C20.736,7.127 21.818,7.814 22.741,8.668 C22.433,9.003 22.097,9.316 21.779,9.642 C21.171,10.249 20.565,10.858 19.956,11.464 C19.353,10.888 18.618,10.451 17.820,10.209 C16.881,9.925 15.870,9.886 14.911,10.090 C13.791,10.330 12.752,10.915 11.953,11.734 C11.305,12.390 10.811,13.197 10.515,14.069 C10.088,15.308 10.091,16.687 10.513,17.927 C10.926,19.146 11.730,20.229 12.783,20.969 C13.442,21.434 14.198,21.764 14.989,21.922 C15.767,22.079 16.573,22.062 17.353,21.929 C18.128,21.794 18.880,21.508 19.534,21.068 C20.575,20.373 21.309,19.243 21.518,18.008 C19.719,18.007 17.919,18.008 16.119,18.008 C16.117,16.719 16.119,15.430 16.118,14.142 C19.226,14.141 22.333,14.140 25.441,14.142 C25.750,15.883 25.682,17.700 25.189,19.401 z" fill="#678BBE" />
</g>
</svg>
