<svg version="1.1" xmlns="http://www.w3.org/2000/svg" xmlns:xlink="http://www.w3.org/1999/xlink" width="73" height="73" viewBox="0 0 73 73">
<g id="ic_hiw_3">
<path id="ic_hiw_3" d="M71.390,25.672 C71.390,25.672 65.375,25.672 65.375,25.672 C64.710,25.672 64.172,25.132 64.172,24.468 C64.172,23.804 64.710,23.265 65.375,23.265 C65.375,23.265 71.390,23.265 71.390,23.265 C72.056,23.265 72.594,23.804 72.594,24.468 C72.594,25.132 72.056,25.672 71.390,25.672 zM69.698,13.665 C69.698,13.665 64.044,15.723 64.044,15.723 C63.909,15.774 63.770,15.796 63.634,15.796 C63.142,15.796 62.681,15.493 62.503,15.005 C62.276,14.381 62.597,13.690 63.223,13.462 C63.223,13.462 68.875,11.405 68.875,11.405 C69.498,11.176 70.190,11.500 70.416,12.123 C70.645,12.747 70.322,13.438 69.698,13.665 zM59.392,6.830 C59.167,7.020 58.892,7.112 58.621,7.112 C58.276,7.112 57.935,6.965 57.698,6.682 C57.271,6.173 57.337,5.415 57.846,4.987 C57.846,4.987 62.454,1.119 62.454,1.119 C62.965,0.692 63.724,0.761 64.148,1.268 C64.576,1.777 64.509,2.535 64.000,2.963 C64.000,2.963 59.392,6.830 59.392,6.830 zM44.922,17.249 C48.239,17.249 50.937,19.948 50.937,23.265 C50.937,26.583 48.239,29.281 44.922,29.281 C44.922,29.281 41.312,29.281 41.312,29.281 C41.312,29.281 41.312,46.125 41.312,46.125 C41.312,46.789 40.775,47.328 40.109,47.328 C39.444,47.328 38.906,46.789 38.906,46.125 C38.906,46.125 38.906,29.281 38.906,29.281 L34.093,29.281 C34.093,29.281 34.093,46.125 34.093,46.125 C34.093,46.789 33.554,47.328 32.890,47.328 C32.226,47.328 31.687,46.789 31.687,46.125 C31.687,46.125 31.687,29.281 31.687,29.281 C31.687,29.281 28.078,29.281 28.078,29.281 C24.761,29.281 22.062,26.582 22.062,23.265 C22.062,19.948 24.761,17.249 28.078,17.249 C31.395,17.249 34.094,19.948 34.094,23.265 C34.094,23.265 34.094,26.875 34.094,26.875 L38.906,26.875 C38.906,26.875 38.906,23.265 38.906,23.265 C38.906,19.948 41.605,17.249 44.922,17.249 zM41.312,26.875 C41.312,26.875 44.922,26.875 44.922,26.875 C46.912,26.875 48.531,25.255 48.531,23.265 C48.531,21.275 46.912,19.656 44.922,19.656 C42.932,19.656 41.312,21.275 41.312,23.265 C41.312,23.265 41.312,26.875 41.312,26.875 zM31.687,23.265 C31.687,21.275 30.068,19.656 28.078,19.656 C26.088,19.656 24.469,21.275 24.469,23.265 C24.469,25.255 26.088,26.875 28.078,26.875 C28.078,26.875 31.687,26.875 31.687,26.875 C31.687,26.875 31.687,23.265 31.687,23.265 zM48.027,48.307 C47.977,48.343 47.922,48.376 47.866,48.403 C47.817,48.431 46.523,49.153 46.198,51.181 C47.558,51.700 48.531,53.008 48.531,54.546 C48.531,55.471 48.182,56.314 47.610,56.953 C48.182,57.592 48.531,58.435 48.531,59.359 C48.531,60.283 48.182,61.127 47.610,61.765 C48.182,62.404 48.531,63.247 48.531,64.172 C48.531,66.195 46.947,67.781 44.922,67.781 C44.922,67.781 41.312,67.781 41.312,67.781 C41.312,67.781 41.312,68.984 41.312,68.984 C41.312,70.974 39.693,72.593 37.703,72.593 C37.703,72.593 35.297,72.593 35.297,72.593 C33.307,72.593 31.687,70.974 31.687,68.984 C31.687,68.984 31.687,66.578 31.687,66.578 C31.687,65.914 32.226,65.375 32.891,65.375 C32.891,65.375 44.922,65.375 44.922,65.375 C45.608,65.375 46.125,64.858 46.125,64.172 C46.125,63.509 45.586,62.969 44.922,62.969 C44.257,62.969 43.719,62.430 43.719,61.766 C43.719,61.102 44.257,60.563 44.922,60.563 C45.586,60.563 46.125,60.022 46.125,59.360 C46.125,58.697 45.586,58.156 44.922,58.156 C44.257,58.156 43.719,57.618 43.719,56.953 C43.719,56.289 44.257,55.750 44.922,55.750 C45.586,55.750 46.125,55.210 46.125,54.547 C46.125,53.884 45.586,53.344 44.922,53.344 C44.257,53.344 43.719,52.805 43.719,52.141 C43.719,48.249 46.129,46.631 46.682,46.312 C54.618,40.625 58.156,33.886 58.156,24.469 C58.156,12.528 48.441,2.813 36.500,2.813 C24.559,2.813 14.844,12.528 14.844,24.469 C14.844,33.886 18.382,40.625 26.318,46.312 C26.810,46.596 28.773,47.908 29.199,50.938 C29.199,50.938 40.109,50.938 40.109,50.938 C40.775,50.938 41.312,51.477 41.312,52.141 C41.312,52.805 40.775,53.344 40.109,53.344 C40.109,53.344 28.078,53.344 28.078,53.344 C27.415,53.344 26.875,53.884 26.875,54.547 C26.875,55.210 27.415,55.750 28.078,55.750 C28.078,55.750 40.109,55.750 40.109,55.750 C40.775,55.750 41.312,56.289 41.312,56.953 C41.312,57.618 40.775,58.156 40.109,58.156 C40.109,58.156 28.078,58.156 28.078,58.156 C27.415,58.156 26.875,58.697 26.875,59.360 C26.875,60.022 27.415,60.563 28.078,60.563 C28.078,60.563 40.109,60.563 40.109,60.563 C40.775,60.563 41.312,61.102 41.312,61.766 C41.312,62.430 40.775,62.969 40.109,62.969 C40.109,62.969 28.078,62.969 28.078,62.969 C27.415,62.969 26.875,63.509 26.875,64.172 C26.875,64.835 27.415,65.375 28.078,65.375 C28.742,65.375 29.281,65.914 29.281,66.578 C29.281,67.242 28.742,67.781 28.078,67.781 C26.088,67.781 24.469,66.162 24.469,64.172 C24.469,63.247 24.817,62.404 25.390,61.765 C24.818,61.127 24.469,60.283 24.469,59.359 C24.469,58.435 24.817,57.592 25.390,56.953 C24.818,56.314 24.469,55.471 24.469,54.547 C24.469,53.008 25.442,51.700 26.800,51.181 C26.476,49.153 25.181,48.430 25.118,48.396 C25.074,48.372 25.014,48.336 24.973,48.307 C16.420,42.198 12.437,34.623 12.437,24.468 C12.437,11.200 23.232,0.406 36.500,0.406 C49.768,0.406 60.562,11.200 60.562,24.468 C60.562,34.623 56.579,42.198 48.027,48.307 zM38.906,67.781 L34.094,67.781 C34.094,67.781 34.094,68.984 34.094,68.984 C34.094,69.647 34.634,70.187 35.297,70.187 C35.297,70.187 37.703,70.187 37.703,70.187 C38.367,70.187 38.906,69.647 38.906,68.984 C38.906,68.984 38.906,67.781 38.906,67.781 zM14.376,7.112 C14.102,7.112 13.828,7.021 13.602,6.830 C13.602,6.830 8.996,2.965 8.996,2.965 C8.487,2.538 8.421,1.780 8.849,1.270 C9.277,0.762 10.035,0.696 10.544,1.122 C10.544,1.122 15.149,4.987 15.149,4.987 C15.658,5.415 15.724,6.174 15.297,6.683 C15.060,6.966 14.719,7.112 14.376,7.112 zM10.494,15.006 C10.316,15.495 9.854,15.799 9.363,15.799 C9.226,15.799 9.088,15.775 8.952,15.725 C8.952,15.725 3.301,13.669 3.301,13.669 C2.676,13.442 2.355,12.751 2.581,12.127 C2.810,11.502 3.499,11.181 4.124,11.407 C4.124,11.407 9.775,13.464 9.775,13.464 C10.399,13.691 10.722,14.382 10.494,15.006 zM8.826,24.471 C8.826,25.135 8.286,25.674 7.622,25.674 C7.622,25.674 1.609,25.674 1.609,25.674 C0.945,25.674 0.406,25.135 0.406,24.471 C0.406,23.807 0.945,23.268 1.609,23.268 C1.609,23.268 7.622,23.268 7.622,23.268 C8.286,23.268 8.826,23.807 8.826,24.471 z" fill="#F64785" />
</g>
</svg>
