<svg version="1.1" xmlns="http://www.w3.org/2000/svg" xmlns:xlink="http://www.w3.org/1999/xlink" width="57" height="73" viewBox="0 0 57 73">
<g id="ic_hiw_7">
<path id="ic_hiw_7" d="M54.777,49.721 C54.777,49.721 42.648,61.426 42.648,61.426 C40.629,63.433 39.385,69.021 39.385,71.390 C39.385,72.054 38.843,72.593 38.175,72.593 C38.175,72.593 17.602,72.593 17.602,72.593 C17.188,72.593 16.803,72.383 16.581,72.036 C7.553,57.931 2.928,44.420 1.906,40.404 C0.674,35.552 0.660,12.224 0.660,11.234 C0.660,9.379 2.425,7.625 4.290,7.625 C7.372,7.625 7.911,9.224 8.346,10.508 C8.346,10.508 8.457,10.836 8.457,10.836 C8.679,11.462 8.347,12.149 7.716,12.368 C7.086,12.590 6.395,12.259 6.175,11.632 C6.175,11.632 6.051,11.274 6.051,11.274 C5.687,10.197 5.631,10.031 4.291,10.031 C3.747,10.031 3.081,10.694 3.081,11.234 C3.081,19.522 3.326,36.163 4.254,39.814 C5.234,43.673 9.646,56.555 18.269,70.187 C18.269,70.187 37.036,70.187 37.036,70.187 C37.324,67.327 38.513,62.133 40.950,59.711 C40.950,59.711 53.029,48.058 53.029,48.058 C53.157,47.906 54.805,45.931 53.264,44.399 C51.654,42.801 50.194,44.075 49.916,44.346 C48.117,46.488 41.691,50.937 38.175,50.937 C34.955,50.937 29.704,43.027 29.704,40.109 C29.704,36.880 37.657,31.687 39.385,31.687 C40.584,31.687 42.604,33.154 46.974,36.663 C47.594,37.160 48.154,37.610 48.600,37.957 C48.822,38.129 49.053,38.319 49.293,38.515 C51.171,40.060 51.890,40.352 52.496,39.813 C53.148,39.235 53.095,38.624 52.271,37.197 C49.763,32.825 41.104,25.722 39.384,25.672 C36.095,25.672 25.503,30.346 20.878,34.944 C20.188,35.630 20.025,37.207 20.023,37.706 C20.019,38.368 19.478,38.903 18.812,38.903 C18.812,38.903 18.809,38.903 18.809,38.903 C18.142,38.902 17.602,38.366 17.602,37.703 C17.602,37.406 17.646,34.754 19.167,33.243 C24.012,28.426 35.179,23.265 39.385,23.265 C42.684,23.265 52.040,31.936 54.315,35.903 C54.932,36.973 56.423,39.556 54.108,41.608 C54.021,41.685 53.934,41.756 53.847,41.822 C54.229,42.042 54.606,42.333 54.976,42.698 C57.522,45.230 55.960,48.400 54.777,49.721 zM47.750,40.369 C47.529,40.189 47.316,40.013 47.112,39.855 C46.656,39.502 46.085,39.042 45.453,38.534 C43.793,37.201 40.393,34.471 39.376,34.113 C37.778,34.571 32.124,38.767 32.124,40.109 C32.124,42.156 36.705,48.531 38.175,48.531 C40.637,48.531 46.425,44.750 48.138,42.716 C48.522,42.338 49.013,41.985 49.573,41.716 C48.880,41.299 48.257,40.787 47.750,40.369 zM25.993,24.900 C25.751,25.521 25.052,25.828 24.429,25.592 C23.804,25.353 23.493,24.656 23.733,24.037 C23.733,24.037 29.784,8.396 29.784,8.396 C30.242,6.834 29.989,5.122 29.077,3.911 C28.560,3.223 27.889,2.812 27.284,2.812 C26.416,2.812 26.042,3.230 25.944,3.363 C25.944,3.363 11.460,38.162 11.460,38.162 C11.267,38.627 10.816,38.906 10.341,38.906 C10.186,38.906 10.030,38.877 9.879,38.815 C9.261,38.561 8.968,37.857 9.223,37.243 C9.223,37.243 23.745,2.353 23.745,2.353 C24.149,1.569 25.291,0.406 27.284,0.406 C28.669,0.406 30.030,1.158 31.016,2.469 C32.382,4.286 32.779,6.790 32.074,9.167 C32.074,9.167 25.993,24.900 25.993,24.900 zM18.526,7.582 C17.878,7.756 17.216,7.379 17.040,6.738 C16.983,6.528 16.930,6.316 16.876,6.101 C16.460,4.411 16.253,4.015 15.182,4.015 C14.208,4.015 13.986,4.677 13.972,5.233 C13.971,5.291 13.965,5.366 13.954,5.424 C13.954,5.424 9.113,33.096 9.113,33.096 C9.011,33.682 8.501,34.093 7.922,34.093 C7.853,34.093 7.784,34.087 7.714,34.075 C7.056,33.962 6.614,33.339 6.729,32.684 C6.729,32.684 11.553,5.103 11.553,5.103 C11.604,3.657 12.587,1.609 15.182,1.609 C18.261,1.609 18.866,4.062 19.228,5.527 C19.275,5.721 19.323,5.916 19.375,6.105 C19.551,6.745 19.171,7.407 18.526,7.582 z" fill="#49B315" />
</g>
</svg>
