<svg version="1.1" xmlns="http://www.w3.org/2000/svg" xmlns:xlink="http://www.w3.org/1999/xlink" width="63" height="73" viewBox="0 0 63 73">
<g id="ic_hiw_5">
<path id="ic_hiw_5" d="M56.765,72.593 C56.765,72.593 6.234,72.593 6.234,72.593 C3.142,72.593 0.219,69.670 0.219,66.578 C0.219,66.578 0.219,11.234 0.219,11.234 C0.219,8.142 3.142,5.219 6.234,5.219 C6.234,5.219 13.453,5.219 13.453,5.219 C14.117,5.219 14.656,5.757 14.656,6.421 C14.656,7.086 14.117,7.625 13.453,7.625 C13.453,7.625 6.234,7.625 6.234,7.625 C4.480,7.625 2.625,9.480 2.625,11.234 C2.625,11.234 2.625,66.578 2.625,66.578 C2.625,68.332 4.480,70.187 6.234,70.187 C6.234,70.187 56.765,70.187 56.765,70.187 C58.520,70.187 60.375,68.332 60.375,66.578 C60.375,66.578 60.375,11.234 60.375,11.234 C60.375,9.480 58.520,7.625 56.765,7.625 C56.765,7.625 49.547,7.625 49.547,7.625 C48.883,7.625 48.344,7.085 48.344,6.421 C48.344,5.757 48.883,5.218 49.547,5.218 C49.547,5.218 56.765,5.218 56.765,5.218 C59.857,5.218 62.781,8.142 62.781,11.234 C62.781,11.234 62.781,66.578 62.781,66.578 C62.781,69.670 59.857,72.593 56.765,72.593 zM51.102,48.884 C51.573,48.413 52.333,48.413 52.803,48.884 C53.274,49.354 53.274,50.114 52.803,50.585 C52.803,50.585 51.248,52.140 51.248,52.140 C51.248,52.140 52.803,53.696 52.803,53.696 C53.274,54.166 53.274,54.927 52.803,55.397 C52.569,55.632 52.261,55.750 51.953,55.750 C51.645,55.750 51.337,55.632 51.102,55.397 C51.102,55.397 49.547,53.842 49.547,53.842 C49.547,53.842 47.991,55.397 47.991,55.397 C47.756,55.632 47.448,55.750 47.140,55.750 C46.832,55.750 46.524,55.632 46.290,55.397 C45.819,54.927 45.819,54.166 46.290,53.696 C46.290,53.696 47.845,52.140 47.845,52.140 C47.845,52.140 46.290,50.585 46.290,50.585 C45.819,50.114 45.819,49.354 46.290,48.883 C46.760,48.413 47.520,48.413 47.991,48.883 C47.991,48.883 49.547,50.439 49.547,50.439 C49.547,50.439 51.102,48.884 51.102,48.884 zM44.734,26.875 C44.426,26.875 44.118,26.757 43.884,26.522 C43.884,26.522 41.125,23.763 41.125,23.763 C41.125,23.763 41.125,30.484 41.125,30.484 C41.125,31.148 40.586,31.687 39.922,31.687 C39.258,31.687 38.719,31.148 38.719,30.484 C38.719,30.484 38.719,23.763 38.719,23.763 C38.719,23.763 35.960,26.522 35.960,26.522 C35.490,26.992 34.729,26.992 34.259,26.522 C33.788,26.052 33.788,25.291 34.259,24.821 C34.259,24.821 39.071,20.009 39.071,20.009 C39.182,19.898 39.315,19.810 39.462,19.749 C39.756,19.627 40.088,19.627 40.381,19.749 C40.528,19.810 40.662,19.898 40.773,20.009 C40.773,20.009 45.585,24.821 45.585,24.821 C46.055,25.291 46.055,26.052 45.585,26.522 C45.350,26.757 45.042,26.875 44.734,26.875 zM44.734,14.844 C44.734,14.844 18.266,14.844 18.266,14.844 C17.601,14.844 17.062,14.304 17.062,13.640 C17.062,13.640 17.062,6.421 17.062,6.421 C17.062,5.757 17.601,5.218 18.266,5.218 C18.266,5.218 24.693,5.218 24.693,5.218 C25.698,2.379 28.419,0.406 31.500,0.406 C34.581,0.406 37.301,2.379 38.307,5.219 C38.307,5.219 44.734,5.219 44.734,5.219 C45.398,5.219 45.937,5.757 45.937,6.421 C45.937,6.421 45.937,13.640 45.937,13.640 C45.937,14.304 45.398,14.844 44.734,14.844 zM43.531,7.625 C43.531,7.625 37.394,7.625 37.394,7.625 C36.822,7.625 36.329,7.222 36.215,6.661 C35.763,4.430 33.780,2.812 31.500,2.812 C29.221,2.812 27.239,4.430 26.785,6.661 C26.671,7.221 26.177,7.625 25.606,7.625 C25.606,7.625 19.469,7.625 19.469,7.625 L19.469,12.437 L43.531,12.437 L43.531,7.625 zM31.500,5.218 C32.827,5.218 33.906,6.298 33.906,7.625 C33.906,8.952 32.827,10.031 31.500,10.031 C30.173,10.031 29.094,8.952 29.094,7.625 C29.094,6.298 30.173,5.218 31.500,5.218 zM9.844,37.703 C9.844,35.713 11.463,34.094 13.453,34.094 C15.443,34.094 17.062,35.713 17.062,37.703 C17.062,39.693 15.443,41.312 13.453,41.312 C11.463,41.312 9.844,39.693 9.844,37.703 zM14.656,37.703 C14.656,37.040 14.116,36.500 13.453,36.500 C12.790,36.500 12.250,37.040 12.250,37.703 C12.250,38.366 12.790,38.906 13.453,38.906 C14.116,38.906 14.656,38.366 14.656,37.703 zM28.243,56.600 C28.243,56.600 16.212,44.569 16.212,44.569 C15.742,44.099 15.742,43.338 16.212,42.868 C16.682,42.398 17.442,42.398 17.913,42.868 C17.913,42.868 29.944,54.899 29.944,54.899 C30.415,55.369 30.415,56.130 29.944,56.600 C29.710,56.835 29.402,56.953 29.094,56.953 C28.786,56.953 28.478,56.835 28.243,56.600 zM20.672,38.906 C20.008,38.906 19.469,38.367 19.469,37.703 C19.469,37.039 20.008,36.500 20.672,36.500 C20.672,36.500 32.703,36.500 32.703,36.500 C33.367,36.500 33.906,37.039 33.906,37.703 C33.906,38.367 33.367,38.906 32.703,38.906 C32.703,38.906 20.672,38.906 20.672,38.906 zM39.922,34.094 C41.912,34.094 43.531,35.713 43.531,37.703 C43.531,39.693 41.912,41.312 39.922,41.312 C37.932,41.312 36.312,39.693 36.312,37.703 C36.312,35.713 37.932,34.094 39.922,34.094 zM39.922,38.906 C40.585,38.906 41.125,38.366 41.125,37.703 C41.125,37.040 40.585,36.500 39.922,36.500 C39.259,36.500 38.719,37.040 38.719,37.703 C38.719,38.366 39.259,38.906 39.922,38.906 zM32.703,65.375 C30.713,65.375 29.094,63.755 29.094,61.765 C29.094,59.775 30.713,58.156 32.703,58.156 C34.693,58.156 36.312,59.775 36.312,61.765 C36.312,63.755 34.693,65.375 32.703,65.375 zM32.703,60.562 C32.040,60.562 31.500,61.102 31.500,61.765 C31.500,62.428 32.040,62.968 32.703,62.968 C33.366,62.968 33.906,62.428 33.906,61.765 C33.906,61.102 33.366,60.562 32.703,60.562 zM19.821,22.415 C20.291,21.944 21.052,21.944 21.522,22.415 C21.993,22.885 21.993,23.645 21.522,24.116 C21.522,24.116 19.967,25.671 19.967,25.671 C19.967,25.671 21.523,27.227 21.523,27.227 C21.993,27.698 21.993,28.458 21.523,28.929 C21.288,29.163 20.980,29.281 20.672,29.281 C20.364,29.281 20.056,29.163 19.821,28.929 C19.821,28.929 18.266,27.373 18.266,27.373 C18.266,27.373 16.710,28.929 16.710,28.929 C16.475,29.163 16.167,29.281 15.859,29.281 C15.551,29.281 15.243,29.163 15.009,28.929 C14.538,28.458 14.538,27.698 15.009,27.227 C15.009,27.227 16.564,25.671 16.564,25.671 C16.564,25.671 15.009,24.116 15.009,24.116 C14.538,23.646 14.538,22.885 15.009,22.415 C15.479,21.944 16.239,21.944 16.710,22.415 C16.710,22.415 18.266,23.970 18.266,23.970 C18.266,23.970 19.821,22.415 19.821,22.415 z" fill="#2D98EA" />
</g>
</svg>
