<svg version="1.1" xmlns="http://www.w3.org/2000/svg" xmlns:xlink="http://www.w3.org/1999/xlink" width="73" height="73" viewBox="0 0 73 73">
<g id="ic_hiw_4">
<path id="ic_hiw_4" d="M67.781,72.593 C67.781,72.593 23.265,72.593 23.265,72.593 C22.601,72.593 22.062,72.054 22.062,71.390 C22.062,71.390 22.062,61.765 22.062,61.765 C22.062,61.101 22.601,60.562 23.265,60.562 C23.265,60.562 49.734,60.562 49.734,60.562 C50.398,60.562 50.937,61.101 50.937,61.765 C50.937,62.429 50.398,62.968 49.734,62.968 C49.734,62.968 24.469,62.968 24.469,62.968 L24.469,70.187 C24.469,70.187 67.781,70.187 67.781,70.187 C69.108,70.187 70.187,69.108 70.187,67.781 C70.187,67.781 70.187,62.968 70.187,62.968 C70.187,62.968 56.953,62.968 56.953,62.968 C56.289,62.968 55.750,62.429 55.750,61.765 C55.750,61.765 55.750,41.312 55.750,41.312 L46.125,41.312 L46.125,46.125 C46.125,46.125 49.734,46.125 49.734,46.125 C50.398,46.125 50.937,46.664 50.937,47.328 C50.937,47.992 50.398,48.531 49.734,48.531 C49.734,48.531 44.922,48.531 44.922,48.531 C44.258,48.531 43.719,47.992 43.719,47.328 C43.719,47.328 43.719,40.109 43.719,40.109 C43.719,39.445 44.258,38.906 44.922,38.906 C44.922,38.906 56.953,38.906 56.953,38.906 C57.617,38.906 58.156,39.445 58.156,40.109 C58.156,40.109 58.156,60.562 58.156,60.562 L70.187,60.562 L70.187,55.750 C70.187,55.750 64.171,55.750 64.171,55.750 C63.507,55.750 62.968,55.211 62.968,54.547 C62.968,53.882 63.507,53.343 64.171,53.343 C64.171,53.343 70.187,53.343 70.187,53.343 L70.187,19.656 L65.375,19.656 C65.375,19.656 65.375,25.671 65.375,25.671 C65.375,26.336 64.836,26.875 64.172,26.875 C63.508,26.875 62.969,26.336 62.969,25.671 C62.969,25.671 62.969,19.656 62.969,19.656 C62.969,19.656 59.359,19.656 59.359,19.656 C58.695,19.656 58.156,19.117 58.156,18.453 C58.156,18.453 58.156,8.828 58.156,8.828 C58.156,8.164 58.695,7.625 59.359,7.625 C59.359,7.625 64.172,7.625 64.172,7.625 C64.836,7.625 65.375,8.164 65.375,8.828 C65.375,9.492 64.836,10.031 64.172,10.031 C64.172,10.031 60.562,10.031 60.562,10.031 L60.562,17.249 L70.187,17.249 C70.187,17.249 70.187,5.218 70.187,5.218 C70.187,3.891 69.108,2.812 67.781,2.812 C67.781,2.812 52.140,2.812 52.140,2.812 C51.476,2.812 50.937,2.273 50.937,1.609 C50.937,0.945 51.476,0.406 52.140,0.406 C52.140,0.406 67.781,0.406 67.781,0.406 C70.435,0.406 72.594,2.564 72.594,5.218 C72.594,5.218 72.594,67.781 72.594,67.781 C72.594,70.435 70.435,72.593 67.781,72.593 zM50.937,18.453 C50.937,18.453 50.937,8.828 50.937,8.828 C50.937,8.164 51.476,7.625 52.140,7.625 C52.804,7.625 53.344,8.164 53.344,8.828 C53.344,8.828 53.344,18.453 53.344,18.453 C53.344,19.117 52.804,19.656 52.140,19.656 C51.476,19.656 50.937,19.117 50.937,18.453 zM37.703,38.906 C38.367,38.906 38.906,39.445 38.906,40.109 C38.906,40.109 38.906,53.343 38.906,53.343 C38.906,53.343 49.734,53.343 49.734,53.343 C50.398,53.343 50.937,53.882 50.937,54.547 C50.937,55.211 50.398,55.750 49.734,55.750 C49.734,55.750 37.703,55.750 37.703,55.750 C37.039,55.750 36.500,55.211 36.500,54.547 C36.500,54.547 36.500,40.109 36.500,40.109 C36.500,39.445 37.039,38.906 37.703,38.906 zM37.703,31.687 C37.703,31.687 64.172,31.687 64.172,31.687 C64.836,31.687 65.375,32.226 65.375,32.890 C65.375,32.890 65.375,47.328 65.375,47.328 C65.375,47.992 64.836,48.531 64.172,48.531 C63.508,48.531 62.969,47.992 62.969,47.328 C62.969,47.328 62.969,34.094 62.969,34.094 C62.969,34.094 37.703,34.094 37.703,34.094 C37.039,34.094 36.500,33.554 36.500,32.890 C36.500,32.226 37.039,31.687 37.703,31.687 zM58.156,25.671 C58.156,26.336 57.617,26.875 56.953,26.875 C56.953,26.875 23.266,26.875 23.266,26.875 C22.601,26.875 22.062,26.336 22.062,25.671 C22.062,25.671 22.062,8.828 22.062,8.828 C22.062,8.164 22.601,7.625 23.266,7.625 C23.266,7.625 37.703,7.625 37.703,7.625 C38.367,7.625 38.906,8.164 38.906,8.828 C38.906,8.828 38.906,18.453 38.906,18.453 C38.906,19.117 38.367,19.656 37.703,19.656 C37.703,19.656 30.484,19.656 30.484,19.656 C29.820,19.656 29.281,19.117 29.281,18.453 C29.281,18.453 29.281,16.047 29.281,16.047 C29.281,15.382 29.820,14.844 30.484,14.844 C31.148,14.844 31.687,15.382 31.687,16.047 C31.687,16.047 31.687,17.250 31.687,17.250 L36.500,17.250 L36.500,10.031 L24.469,10.031 L24.469,24.469 L43.719,24.469 L43.719,2.812 L10.031,2.812 L10.031,7.625 C10.031,7.625 16.047,7.625 16.047,7.625 C16.711,7.625 17.250,8.164 17.250,8.828 C17.250,8.828 17.250,18.453 17.250,18.453 C17.250,19.117 16.711,19.656 16.047,19.656 C15.383,19.656 14.844,19.117 14.844,18.453 C14.844,18.453 14.844,10.031 14.844,10.031 C14.844,10.031 8.828,10.031 8.828,10.031 C8.164,10.031 7.625,9.492 7.625,8.828 C7.625,8.828 7.625,2.812 7.625,2.812 C7.625,2.812 5.219,2.812 5.219,2.812 C3.892,2.812 2.812,3.892 2.812,5.218 C2.812,5.218 2.812,24.469 2.812,24.469 L7.625,24.469 C7.625,24.469 7.625,16.047 7.625,16.047 C7.625,15.383 8.164,14.844 8.828,14.844 C9.492,14.844 10.031,15.383 10.031,16.047 C10.031,16.047 10.031,24.469 10.031,24.469 C10.031,24.469 16.047,24.469 16.047,24.469 C16.711,24.469 17.250,25.008 17.250,25.672 C17.250,26.336 16.711,26.875 16.047,26.875 C16.047,26.875 2.812,26.875 2.812,26.875 L2.812,38.906 C2.812,38.906 16.047,38.906 16.047,38.906 C16.711,38.906 17.250,39.445 17.250,40.109 C17.250,40.773 16.711,41.312 16.047,41.312 C16.047,41.312 2.812,41.312 2.812,41.312 C2.812,41.312 2.812,67.781 2.812,67.781 C2.812,69.108 3.892,70.187 5.219,70.187 C5.219,70.187 14.844,70.187 14.844,70.187 L14.844,48.531 L10.031,48.531 C10.031,48.531 10.031,61.765 10.031,61.765 C10.031,62.429 9.492,62.968 8.828,62.968 C8.164,62.968 7.625,62.429 7.625,61.765 C7.625,61.765 7.625,47.328 7.625,47.328 C7.625,46.664 8.164,46.125 8.828,46.125 C8.828,46.125 16.047,46.125 16.047,46.125 L22.062,46.125 L22.062,34.094 C22.062,34.094 8.828,34.094 8.828,34.094 C8.164,34.094 7.625,33.554 7.625,32.890 C7.625,32.226 8.164,31.687 8.828,31.687 C8.828,31.687 23.266,31.687 23.266,31.687 C23.930,31.687 24.469,32.226 24.469,32.890 C24.469,32.890 24.469,47.328 24.469,47.328 C24.469,47.992 23.930,48.531 23.265,48.531 C23.265,48.531 17.250,48.531 17.250,48.531 C17.250,48.531 17.250,71.390 17.250,71.390 C17.250,72.054 16.711,72.593 16.047,72.593 C16.047,72.593 5.219,72.593 5.219,72.593 C2.565,72.593 0.406,70.435 0.406,67.781 C0.406,67.781 0.406,5.218 0.406,5.218 C0.406,2.564 2.565,0.406 5.219,0.406 C5.219,0.406 44.922,0.406 44.922,0.406 C45.586,0.406 46.125,0.945 46.125,1.609 C46.125,1.609 46.125,24.469 46.125,24.469 C46.125,24.469 56.953,24.469 56.953,24.469 C57.617,24.469 58.156,25.007 58.156,25.671 zM29.281,47.328 C29.281,47.328 29.281,32.890 29.281,32.890 C29.281,32.226 29.820,31.687 30.484,31.687 C31.148,31.687 31.687,32.226 31.687,32.890 C31.687,32.890 31.687,47.328 31.687,47.328 C31.687,47.992 31.148,48.531 30.484,48.531 C29.820,48.531 29.281,47.992 29.281,47.328 zM30.484,55.750 C30.484,55.750 23.265,55.750 23.265,55.750 C22.601,55.750 22.062,55.211 22.062,54.547 C22.062,53.882 22.601,53.343 23.265,53.343 C23.265,53.343 30.484,53.343 30.484,53.343 C31.148,53.343 31.687,53.882 31.687,54.547 C31.687,55.211 31.148,55.750 30.484,55.750 z" fill="#9F6CCE" />
</g>
</svg>
