<svg version="1.1" xmlns="http://www.w3.org/2000/svg" xmlns:xlink="http://www.w3.org/1999/xlink" width="73" height="73" viewBox="0 0 73 73">
<g id="ic_hiw_1">
<path id="ic_hiw_1" d="M34.093,48.531 C34.093,47.204 35.173,46.125 36.500,46.124 C37.828,46.124 38.906,47.204 38.906,48.531 C38.906,49.858 37.828,50.937 36.500,50.937 C35.173,50.937 34.093,49.858 34.093,48.531 zM39.841,11.502 C40.311,11.972 40.311,12.735 39.841,13.204 C39.841,13.204 36.437,16.606 36.437,16.606 C36.203,16.841 35.895,16.959 35.587,16.958 C35.279,16.958 34.971,16.841 34.736,16.606 C34.267,16.136 34.267,15.374 34.736,14.905 C34.736,14.905 38.140,11.502 38.140,11.502 C38.610,11.032 39.372,11.032 39.841,11.502 zM31.686,8.828 C31.686,8.828 31.686,13.640 31.686,13.640 C31.686,14.304 31.147,14.843 30.483,14.843 C29.819,14.843 29.280,14.304 29.280,13.640 C29.280,13.640 29.280,8.828 29.280,8.828 C29.280,8.164 29.819,7.625 30.483,7.625 C31.147,7.625 31.686,8.164 31.686,8.828 zM17.250,20.859 C17.250,20.195 17.789,19.656 18.453,19.656 C18.453,19.656 23.264,19.656 23.264,19.656 C23.928,19.656 24.467,20.195 24.467,20.859 C24.467,21.525 23.928,22.062 23.264,22.062 C23.264,22.062 18.453,22.062 18.453,22.062 C17.789,22.062 17.250,21.523 17.250,20.859 zM25.379,16.958 C25.071,16.958 24.763,16.841 24.529,16.606 C24.529,16.606 21.126,13.202 21.126,13.202 C20.656,12.733 20.656,11.970 21.126,11.501 C21.596,11.032 22.357,11.032 22.827,11.501 C22.827,11.501 26.230,14.905 26.230,14.905 C26.699,15.374 26.699,16.137 26.230,16.606 C25.995,16.841 25.687,16.958 25.379,16.958 zM26.230,26.815 C26.230,26.815 22.827,30.216 22.827,30.216 C22.592,30.452 22.285,30.568 21.977,30.568 C21.669,30.568 21.361,30.452 21.126,30.216 C20.656,29.747 20.656,28.984 21.126,28.515 C21.126,28.515 24.529,25.114 24.529,25.114 C24.998,24.644 25.760,24.644 26.230,25.114 C26.699,25.584 26.699,26.345 26.230,26.815 zM66.578,55.749 C66.578,55.749 6.422,55.749 6.422,55.749 C3.048,55.749 0.406,53.107 0.406,49.733 C0.406,49.733 0.406,42.515 0.406,42.515 C0.406,41.851 0.945,41.312 1.609,41.312 C1.609,41.312 64.951,41.312 64.951,41.312 C62.568,33.974 58.789,28.590 58.748,28.532 C58.558,28.211 58.289,28.025 57.970,27.937 C57.647,27.846 57.327,27.873 57.089,28.010 C56.841,28.153 56.649,28.413 56.565,28.724 C56.480,29.034 56.516,29.356 56.661,29.608 C56.661,29.608 56.661,29.609 56.661,29.609 C56.992,30.184 56.796,30.919 56.222,31.252 C55.646,31.586 54.911,31.388 54.576,30.812 C54.576,30.812 53.390,28.756 53.390,28.756 C53.127,28.302 52.704,27.978 52.198,27.842 C51.691,27.707 51.163,27.777 50.708,28.038 C50.254,28.301 49.929,28.724 49.793,29.230 C49.657,29.735 49.726,30.264 49.988,30.717 C49.988,30.717 49.989,30.720 49.989,30.720 C50.321,31.295 50.124,32.031 49.549,32.363 C48.970,32.695 48.237,32.498 47.904,31.923 C47.904,31.923 47.904,31.922 47.904,31.922 C47.904,31.922 47.113,30.552 47.113,30.552 C46.851,30.098 46.429,29.773 45.922,29.637 C45.415,29.501 44.887,29.572 44.433,29.833 C43.979,30.096 43.655,30.519 43.519,31.026 C43.383,31.532 43.452,32.061 43.715,32.515 C44.036,33.070 43.864,33.779 43.326,34.127 C42.788,34.477 42.071,34.340 41.695,33.818 C41.695,33.818 32.409,20.901 32.409,20.901 C31.171,19.212 30.384,19.666 30.050,19.859 C29.635,20.099 29.384,20.438 29.306,20.869 C29.223,21.328 29.337,21.860 29.631,22.367 C29.631,22.367 38.723,37.070 38.723,37.070 C39.073,37.636 38.896,38.377 38.332,38.727 C37.767,39.074 37.025,38.901 36.675,38.336 C36.675,38.336 27.565,23.601 27.565,23.601 C26.970,22.570 26.753,21.458 26.939,20.438 C27.144,19.313 27.822,18.367 28.847,17.776 C29.745,17.256 32.083,16.385 34.357,19.489 C34.357,19.489 41.549,29.493 41.549,29.493 C41.929,28.771 42.506,28.168 43.230,27.751 C44.241,27.167 45.420,27.012 46.546,27.314 C46.978,27.429 47.385,27.607 47.753,27.841 C48.129,27.054 48.733,26.400 49.507,25.954 C50.514,25.371 51.690,25.216 52.820,25.518 C53.634,25.735 54.351,26.173 54.906,26.778 C55.178,26.434 55.511,26.143 55.886,25.925 C56.675,25.471 57.667,25.356 58.610,25.617 C59.537,25.872 60.326,26.462 60.773,27.236 C60.898,27.403 65.300,33.663 67.734,42.185 C67.839,42.548 67.765,42.939 67.539,43.240 C67.311,43.542 66.956,43.718 66.578,43.718 C66.578,43.718 2.812,43.718 2.812,43.718 C2.812,43.718 2.812,49.734 2.812,49.734 C2.812,51.792 4.364,53.343 6.422,53.343 C6.422,53.343 66.578,53.343 66.578,53.343 C68.637,53.343 70.187,51.792 70.187,49.734 C70.187,49.734 70.187,6.422 70.187,6.422 C70.187,4.432 68.568,2.812 66.578,2.812 C66.578,2.812 6.422,2.812 6.422,2.812 C4.319,2.812 2.934,4.689 2.810,6.503 C2.810,6.503 2.812,37.703 2.812,37.703 C2.812,38.367 2.273,38.906 1.609,38.906 C0.945,38.906 0.406,38.367 0.406,37.703 C0.406,37.703 0.406,6.422 0.406,6.422 C0.636,3.013 3.277,0.406 6.422,0.406 C6.422,0.406 66.578,0.406 66.578,0.406 C69.895,0.406 72.594,3.105 72.594,6.421 C72.594,6.421 72.594,49.733 72.594,49.733 C72.594,53.107 69.951,55.749 66.578,55.749 zM25.672,65.375 C25.672,65.375 29.281,65.375 29.281,65.375 C29.281,65.375 29.281,59.359 29.281,59.359 C29.281,58.695 29.820,58.156 30.484,58.156 C31.148,58.156 31.687,58.695 31.687,59.359 C31.687,59.359 31.687,65.375 31.687,65.375 C31.687,65.375 37.703,65.375 37.703,65.375 C38.368,65.375 38.906,65.914 38.906,66.578 C38.906,67.242 38.368,67.781 37.703,67.781 C37.703,67.781 25.672,67.781 25.672,67.781 C24.321,67.781 22.911,68.881 22.333,70.187 C22.333,70.187 50.666,70.187 50.666,70.187 C50.089,68.881 48.679,67.781 47.328,67.781 C47.328,67.781 42.515,67.781 42.515,67.781 C41.850,67.781 41.312,67.242 41.312,66.578 C41.312,66.578 41.312,59.359 41.312,59.359 C41.312,58.695 41.850,58.156 42.515,58.156 C43.181,58.156 43.719,58.695 43.719,59.359 C43.719,59.359 43.719,65.375 43.719,65.375 C43.719,65.375 47.328,65.375 47.328,65.375 C50.420,65.375 53.344,68.298 53.343,71.391 C53.343,72.054 52.806,72.593 52.140,72.593 C52.140,72.593 20.859,72.593 20.859,72.593 C20.195,72.593 19.656,72.054 19.656,71.391 C19.656,68.298 22.580,65.375 25.672,65.375 z" fill="#FF9320" />
</g>
</svg>
