<svg version="1.1" xmlns="http://www.w3.org/2000/svg" xmlns:xlink="http://www.w3.org/1999/xlink" width="60" height="73" viewBox="0 0 60 73">
<g id="ic_hiw_6">
<path id="ic_hiw_6" d="M53.820,66.336 C52.432,68.025 51.148,69.693 50.003,71.295 C49.613,71.842 48.857,71.966 48.314,71.572 C47.772,71.179 47.649,70.417 48.039,69.871 C49.216,68.225 50.533,66.512 51.956,64.782 C56.494,59.260 58.197,53.423 56.512,49.168 C55.557,46.756 53.563,45.197 51.040,44.890 C46.452,44.330 40.996,47.826 36.447,54.241 C31.852,60.721 26.805,65.611 21.447,68.774 C16.141,71.907 11.829,72.594 9.071,72.594 C8.980,72.594 8.892,72.593 8.805,72.591 C5.576,72.539 2.980,71.499 1.863,69.811 C0.921,68.387 0.365,65.849 3.066,61.843 C3.924,60.570 4.886,59.478 5.553,58.776 C4.579,57.437 4.053,55.827 4.053,54.134 C4.053,52.029 4.867,50.049 6.345,48.561 C6.345,48.561 23.522,31.258 23.522,31.258 C23.474,30.806 23.447,30.348 23.447,29.886 C23.447,26.522 24.747,23.359 27.109,20.980 C31.985,16.069 39.918,16.069 44.793,20.980 C47.155,23.359 48.456,26.522 48.456,29.886 C48.456,33.251 47.155,36.413 44.793,38.792 C42.431,41.171 39.291,42.481 35.951,42.481 C35.493,42.481 35.038,42.455 34.589,42.406 C34.589,42.406 17.411,59.707 17.411,59.707 C15.933,61.196 13.968,62.017 11.878,62.017 C10.195,62.017 8.593,61.484 7.261,60.499 C5.412,62.455 2.462,66.320 3.877,68.458 C4.414,69.271 6.159,70.110 8.844,70.154 C11.940,70.207 22.933,69.103 34.477,52.824 C39.625,45.566 45.768,41.791 51.331,42.470 C54.760,42.887 57.468,45.000 58.761,48.265 C60.778,53.361 58.931,60.117 53.820,66.336 zM43.082,37.069 C44.987,35.150 46.036,32.599 46.036,29.886 C46.036,27.173 44.987,24.623 43.082,22.704 C41.116,20.724 38.534,19.734 35.951,19.734 C33.369,19.734 30.787,20.724 28.821,22.704 C27.969,23.561 27.290,24.546 26.798,25.614 C26.798,25.614 40.193,39.106 40.193,39.106 C41.253,38.610 42.231,37.926 43.082,37.069 zM35.951,40.044 C36.499,40.044 37.040,39.998 37.571,39.912 C37.571,39.912 25.998,28.255 25.998,28.255 C25.913,28.790 25.867,29.335 25.867,29.886 C25.867,32.600 26.916,35.150 28.821,37.069 C30.725,38.987 33.258,40.044 35.951,40.044 zM31.796,41.772 C30.053,41.155 28.455,40.148 27.109,38.792 C25.764,37.438 24.765,35.828 24.152,34.072 C24.152,34.072 8.912,49.423 8.912,49.423 L16.556,57.122 C16.556,57.122 31.796,41.772 31.796,41.772 zM8.056,57.984 C9.077,59.013 10.434,59.579 11.878,59.579 C12.910,59.579 13.896,59.289 14.748,58.749 C14.748,58.749 7.297,51.244 7.297,51.244 C6.761,52.102 6.473,53.096 6.473,54.134 C6.473,55.588 7.035,56.956 8.056,57.984 zM19.609,20.917 C18.998,21.152 18.369,21.263 17.751,21.263 C15.636,21.263 13.639,19.965 12.844,17.858 C11.816,15.136 13.179,12.079 15.882,11.044 C16.853,10.671 17.867,10.612 18.815,10.813 C18.815,10.813 15.940,3.197 15.940,3.197 L6.137,6.952 C6.137,6.952 10.581,18.724 10.581,18.724 C11.079,20.043 11.037,21.478 10.464,22.765 C9.890,24.052 8.853,25.038 7.544,25.539 C6.932,25.773 6.304,25.884 5.686,25.884 C3.571,25.884 1.574,24.586 0.779,22.479 C-0.249,19.757 1.114,16.700 3.816,15.665 C4.788,15.293 5.802,15.233 6.750,15.434 C6.750,15.434 3.445,6.679 3.445,6.679 C3.207,6.050 3.521,5.345 4.146,5.106 C4.146,5.106 16.211,0.485 16.211,0.485 C16.511,0.370 16.844,0.380 17.137,0.512 C17.429,0.645 17.658,0.889 17.772,1.191 C17.772,1.191 22.647,14.103 22.647,14.103 C23.145,15.422 23.103,16.857 22.529,18.144 C21.955,19.431 20.918,20.416 19.609,20.917 zM5.677,17.758 C5.344,17.758 5.006,17.817 4.676,17.943 C3.221,18.501 2.488,20.147 3.041,21.613 C3.594,23.079 5.228,23.818 6.684,23.260 C7.389,22.990 7.947,22.460 8.256,21.767 C8.565,21.074 8.587,20.301 8.319,19.591 C7.891,18.456 6.816,17.758 5.677,17.758 zM20.384,14.970 C19.956,13.835 18.881,13.136 17.742,13.136 C17.409,13.136 17.071,13.196 16.741,13.322 C15.286,13.880 14.552,15.526 15.106,16.991 C15.659,18.457 17.293,19.196 18.749,18.639 C19.454,18.369 20.012,17.839 20.321,17.146 C20.630,16.453 20.652,15.680 20.384,14.970 z" fill="#0DD9A2" />
</g>
</svg>
