<svg version="1.1" xmlns="http://www.w3.org/2000/svg" xmlns:xlink="http://www.w3.org/1999/xlink" width="73" height="58" viewBox="0 0 73 58">
<g id="ic_hiw_2">
<path id="ic_hiw_2" d="M71.390,12.128 C71.390,12.128 68.984,12.128 68.984,12.128 C67.871,12.128 66.231,11.205 62.921,9.284 C58.289,6.595 51.288,2.532 46.125,2.532 C39.231,2.532 35.965,6.107 33.891,9.220 C32.046,11.990 26.765,21.103 26.712,21.194 C26.746,21.703 28.966,22.998 30.484,22.998 C31.641,22.998 32.440,22.137 33.869,20.488 C34.387,19.889 34.973,19.211 35.649,18.535 C35.649,18.535 41.665,12.516 41.665,12.516 C43.024,11.155 43.325,10.959 44.922,10.959 C45.343,10.959 46.623,10.959 51.788,16.128 C51.788,16.128 63.859,29.411 63.859,29.411 C63.978,29.530 65.375,30.975 65.375,32.629 C65.375,32.629 65.375,43.463 65.375,43.463 C65.375,46.119 63.216,48.279 60.562,48.279 C59.661,48.279 58.827,48.016 58.105,47.582 C57.848,49.997 55.824,51.891 53.344,51.891 C52.442,51.891 51.609,51.627 50.887,51.194 C50.629,53.609 48.606,55.502 46.125,55.502 C44.937,55.502 43.798,55.066 42.915,54.274 C42.420,53.831 42.377,53.070 42.821,52.574 C43.265,52.080 44.025,52.038 44.521,52.482 C44.961,52.877 45.531,53.095 46.125,53.095 C47.452,53.095 48.531,52.015 48.531,50.687 C48.531,50.687 48.531,47.075 48.531,47.075 C48.531,47.075 48.531,37.444 48.531,37.444 C48.531,36.780 49.070,36.240 49.734,36.240 C50.398,36.240 50.937,36.780 50.937,37.444 C50.937,37.444 50.937,47.075 50.937,47.075 C50.937,48.403 52.017,49.483 53.344,49.483 C54.671,49.483 55.750,48.403 55.750,47.075 C55.750,47.075 55.750,43.463 55.750,43.463 C55.750,43.463 55.750,35.036 55.750,35.036 C55.750,34.566 55.240,33.827 54.896,33.476 C54.896,33.476 46.477,25.053 46.477,25.053 C46.007,24.583 46.007,23.821 46.477,23.351 C46.948,22.881 47.708,22.881 48.178,23.351 C48.178,23.351 56.600,31.778 56.600,31.778 C56.759,31.938 58.156,33.382 58.156,35.036 C58.156,35.036 58.156,43.463 58.156,43.463 C58.156,44.791 59.235,45.871 60.562,45.871 C61.889,45.871 62.969,44.791 62.969,43.463 C62.969,43.463 62.969,32.629 62.969,32.629 C62.969,32.158 62.458,31.419 62.114,31.068 C62.114,31.068 50.047,17.789 50.047,17.789 C48.132,15.875 45.591,13.651 44.830,13.367 C44.579,13.367 44.323,13.370 44.255,13.391 C44.142,13.443 43.766,13.819 43.366,14.218 C43.366,14.218 37.350,20.237 37.350,20.237 C36.737,20.853 36.203,21.468 35.688,22.064 C34.201,23.783 32.795,25.406 30.484,25.406 C28.824,25.406 25.841,24.326 24.755,22.566 C24.250,21.750 24.194,20.856 24.595,20.052 C24.849,19.609 30.003,10.716 31.889,7.885 C34.109,4.554 37.999,0.125 46.125,0.125 C51.937,0.125 58.984,4.215 64.129,7.201 C66.124,8.359 68.386,9.671 68.997,9.721 C68.997,9.721 71.390,9.721 71.390,9.721 C72.054,9.721 72.593,10.260 72.593,10.925 C72.593,11.589 72.054,12.128 71.390,12.128 zM30.484,4.940 C22.553,4.940 18.003,8.165 14.992,10.298 C13.465,11.382 12.360,12.163 11.234,12.163 C11.234,12.163 1.609,12.163 1.609,12.163 C0.945,12.163 0.406,11.625 0.406,10.959 C0.406,10.295 0.945,9.755 1.609,9.755 C1.609,9.755 11.234,9.755 11.234,9.755 C11.595,9.755 12.707,8.968 13.601,8.335 C16.663,6.164 21.788,2.532 30.484,2.532 C31.148,2.532 31.687,3.072 31.687,3.736 C31.687,4.402 31.148,4.940 30.484,4.940 zM1.609,38.613 C1.609,38.613 9.859,38.613 9.859,38.613 C9.859,38.613 18.393,30.075 18.393,30.075 C19.301,29.165 20.509,28.664 21.795,28.664 C23.081,28.664 24.289,29.165 25.198,30.075 C25.808,30.686 26.214,31.437 26.428,32.250 C26.428,32.250 29.452,29.224 29.452,29.224 C30.360,28.314 31.569,27.813 32.854,27.813 C34.140,27.813 35.348,28.314 36.258,29.224 C36.868,29.835 37.275,30.586 37.489,31.397 C37.489,31.397 39.660,29.224 39.660,29.224 C40.570,28.314 41.778,27.813 43.064,27.813 C44.349,27.813 45.558,28.314 46.467,29.224 C47.376,30.133 47.877,31.342 47.877,32.629 C47.877,33.914 47.376,35.124 46.467,36.033 C46.467,36.033 43.940,38.562 43.940,38.562 C44.735,38.772 45.492,39.168 46.114,39.792 C47.024,40.701 47.524,41.911 47.524,43.198 C47.524,44.483 47.024,45.693 46.114,46.602 C46.114,46.602 36.258,56.464 36.258,56.464 C35.348,57.374 34.140,57.875 32.854,57.875 C31.569,57.875 30.360,57.374 29.452,56.464 C28.762,55.774 28.311,54.911 28.132,53.972 C26.341,54.835 24.129,54.543 22.646,53.059 C21.956,52.369 21.505,51.505 21.326,50.567 C19.534,51.429 17.324,51.138 15.841,49.655 C15.149,48.964 14.723,48.075 14.558,47.141 C12.761,48.027 10.529,47.743 9.034,46.249 C7.673,44.887 7.331,42.765 8.010,41.021 C8.010,41.021 1.609,41.021 1.609,41.021 C0.945,41.021 0.406,40.481 0.406,39.817 C0.406,39.152 0.945,38.613 1.609,38.613 zM31.153,54.762 C31.608,55.217 32.212,55.467 32.854,55.467 C33.498,55.467 34.102,55.217 34.557,54.762 C34.557,54.762 44.413,44.900 44.413,44.900 C45.323,43.990 45.321,42.403 44.413,41.494 C43.476,40.556 41.953,40.556 41.014,41.491 C41.014,41.491 31.847,50.663 31.847,50.663 C31.847,50.663 31.153,51.357 31.153,51.357 C30.700,51.811 30.449,52.416 30.449,53.060 C30.449,53.703 30.700,54.307 31.153,54.762 zM24.347,51.357 C25.286,52.295 26.812,52.295 27.750,51.356 C27.750,51.356 34.380,44.723 34.380,44.723 C34.380,44.723 39.308,39.792 39.308,39.792 C39.309,39.791 39.310,39.789 39.312,39.789 C39.312,39.789 44.765,34.331 44.765,34.331 C45.674,33.422 45.674,31.836 44.765,30.927 C44.311,30.471 43.707,30.221 43.064,30.221 C42.420,30.221 41.817,30.471 41.363,30.927 C41.363,30.927 30.964,41.331 30.964,41.331 C30.964,41.331 24.345,47.954 24.345,47.954 C23.892,48.408 23.643,49.012 23.643,49.654 C23.643,50.298 23.893,50.902 24.347,51.357 zM17.542,47.953 C18.479,48.890 20.006,48.890 20.945,47.953 C20.945,47.953 22.644,46.252 22.644,46.252 C22.645,46.251 22.645,46.251 22.646,46.250 C22.646,46.250 29.263,39.628 29.263,39.628 C29.263,39.628 34.557,34.331 34.557,34.331 C35.465,33.422 35.465,31.836 34.557,30.927 C34.102,30.471 33.498,30.221 32.854,30.221 C32.212,30.221 31.608,30.471 31.153,30.927 C31.153,30.927 17.542,44.547 17.542,44.547 C17.087,45.002 16.837,45.607 16.837,46.250 C16.837,46.892 17.087,47.498 17.542,47.953 zM10.735,44.547 C11.673,45.485 13.200,45.485 14.139,44.547 C14.139,44.547 23.496,35.182 23.496,35.182 C24.405,34.273 24.405,32.688 23.496,31.778 C23.042,31.323 22.438,31.072 21.795,31.072 C21.153,31.072 20.549,31.323 20.094,31.778 C20.094,31.778 11.208,40.668 11.208,40.668 C11.208,40.668 10.735,41.141 10.735,41.141 C10.281,41.597 10.031,42.201 10.031,42.845 C10.031,43.488 10.281,44.092 10.735,44.547 zM68.984,38.613 C68.984,38.613 71.390,38.613 71.390,38.613 C72.055,38.613 72.594,39.153 72.594,39.817 C72.594,40.481 72.055,41.021 71.390,41.021 C71.390,41.021 68.984,41.021 68.984,41.021 C68.320,41.021 67.781,40.481 67.781,39.817 C67.781,39.153 68.320,38.613 68.984,38.613 z" fill="#F04848" />
</g>
</svg>
