<svg version="1.1" xmlns="http://www.w3.org/2000/svg" xmlns:xlink="http://www.w3.org/1999/xlink" width="32" height="32" viewBox="0 0 32 32">
<g id="ic_instagram">
<path id="ic_instagram" d="M15.994,31.993 C7.156,31.993 -0.010,24.832 -0.010,15.999 C-0.010,7.167 7.156,0.007 15.994,0.007 C24.831,0.007 31.997,7.167 31.997,15.999 C31.997,24.832 24.831,31.993 15.994,31.993 zM24.490,12.607 C24.490,11.147 24.008,9.890 23.097,8.973 C22.179,8.048 20.914,7.560 19.439,7.560 C19.439,7.560 12.266,7.560 12.266,7.560 C9.245,7.560 7.215,9.588 7.215,12.607 C7.215,12.607 7.215,19.737 7.215,19.737 C7.215,21.246 7.718,22.531 8.669,23.454 C9.593,24.350 10.850,24.824 12.305,24.824 C12.305,24.824 19.400,24.824 19.400,24.824 C20.883,24.824 22.151,24.351 23.066,23.457 C23.998,22.549 24.490,21.276 24.490,19.776 C24.490,19.776 24.490,12.607 24.490,12.607 zM19.400,23.235 C19.400,23.235 12.305,23.235 12.305,23.235 C11.272,23.235 10.398,22.916 9.777,22.314 C9.141,21.697 8.805,20.806 8.805,19.737 C8.805,19.737 8.805,12.607 8.805,12.607 C8.805,11.553 9.127,10.676 9.737,10.070 C10.343,9.467 11.218,9.149 12.266,9.149 C12.266,9.149 19.439,9.149 19.439,9.149 C20.481,9.149 21.356,9.475 21.969,10.092 C22.578,10.706 22.900,11.575 22.900,12.607 C22.900,12.607 22.900,19.776 22.900,19.776 C22.900,20.838 22.573,21.718 21.956,22.320 C21.343,22.919 20.459,23.235 19.400,23.235 zM15.853,11.701 C13.402,11.701 11.408,13.694 11.408,16.143 C11.408,18.592 13.402,20.585 15.853,20.585 C18.303,20.585 20.297,18.592 20.297,16.143 C20.297,13.694 18.303,11.701 15.853,11.701 zM20.464,10.585 C19.907,10.585 19.455,11.036 19.455,11.593 C19.455,12.150 19.907,12.602 20.464,12.602 C21.022,12.602 21.473,12.150 21.473,11.593 C21.473,11.036 21.022,10.585 20.464,10.585 zM15.853,18.995 C14.279,18.995 12.998,17.716 12.998,16.143 C12.998,14.570 14.279,13.290 15.853,13.290 C17.426,13.290 18.707,14.570 18.707,16.143 C18.707,17.716 17.426,18.995 15.853,18.995 z" fill="#678BBE" />
</g>
</svg>
