<svg version="1.1" xmlns="http://www.w3.org/2000/svg" xmlns:xlink="http://www.w3.org/1999/xlink" width="48" height="48" viewBox="0 0 48 48">
<g id="ic_link">
<path id="ic_link" d="M44.685,19.361 C44.685,19.361 34.188,29.863 34.188,29.863 C31.975,32.076 29.068,33.183 26.161,33.183 C23.254,33.183 20.347,32.076 18.134,29.863 C17.452,29.181 17.452,28.074 18.134,27.392 C18.816,26.710 19.921,26.710 20.603,27.392 C23.668,30.457 28.654,30.457 31.719,27.392 C31.719,27.392 42.215,16.889 42.215,16.889 C43.692,15.412 44.505,13.438 44.505,11.330 C44.505,9.222 43.692,7.248 42.215,5.770 C40.738,4.293 38.765,3.479 36.657,3.479 C34.551,3.479 32.577,4.293 31.101,5.770 C31.101,5.770 23.074,13.800 23.074,13.800 C22.392,14.482 21.286,14.482 20.604,13.800 C19.922,13.118 19.922,12.012 20.604,11.329 C20.604,11.329 28.631,3.299 28.631,3.299 C33.058,-1.127 40.260,-1.128 44.685,3.299 C46.822,5.437 47.999,8.288 47.999,11.330 C47.999,14.371 46.822,17.224 44.685,19.361 zM29.248,18.742 C29.930,19.424 29.930,20.530 29.248,21.213 C28.566,21.895 27.460,21.895 26.778,21.213 C25.302,19.736 23.328,18.922 21.222,18.922 C19.114,18.922 17.141,19.736 15.664,21.213 C15.664,21.213 5.784,31.097 5.784,31.097 C2.720,34.162 2.720,39.151 5.784,42.217 C7.261,43.694 9.235,44.508 11.341,44.508 C13.449,44.508 15.422,43.694 16.899,42.217 C16.899,42.217 23.691,35.422 23.691,35.422 C24.373,34.739 25.478,34.739 26.160,35.422 C26.842,36.104 26.842,37.210 26.160,37.892 C26.160,37.892 19.368,44.687 19.368,44.687 C17.232,46.825 14.380,48.003 11.341,48.003 C8.302,48.003 5.451,46.825 3.314,44.687 C1.177,42.550 0.000,39.698 0.000,36.658 C0.000,33.617 1.177,30.764 3.313,28.627 C3.313,28.627 13.193,18.742 13.193,18.742 C17.621,14.315 24.823,14.316 29.248,18.742 z" fill="#FFFFFF" />
</g>
</svg>
