<svg version="1.1" xmlns="http://www.w3.org/2000/svg" xmlns:xlink="http://www.w3.org/1999/xlink" width="32" height="32" viewBox="0 0 32 32">
<g id="ic_linkedin">
<path id="ic_linkedin" d="M16.000,31.999 C7.164,31.999 0.000,24.837 0.000,16.000 C0.000,7.163 7.164,-0.000 16.000,-0.000 C24.836,-0.000 32.000,7.163 32.000,16.000 C32.000,24.837 24.836,31.999 16.000,31.999 zM24.911,8.379 C24.911,7.668 24.321,7.091 23.592,7.091 C23.592,7.091 8.377,7.091 8.377,7.091 C7.647,7.091 7.057,7.668 7.057,8.379 C7.057,8.379 7.057,23.771 7.057,23.771 C7.057,24.483 7.647,25.059 8.377,25.059 C8.377,25.059 23.592,25.059 23.592,25.059 C24.321,25.059 24.911,24.483 24.911,23.771 C24.911,23.771 24.911,8.379 24.911,8.379 zM19.496,17.791 C19.496,16.701 19.107,15.956 18.130,15.956 C17.386,15.956 16.942,16.460 16.746,16.944 C16.675,17.118 16.658,17.357 16.658,17.601 C16.658,17.601 16.658,22.132 16.658,22.132 L13.962,22.132 C13.962,22.132 13.996,14.780 13.962,14.020 C13.962,14.020 16.658,14.020 16.658,14.020 C16.658,14.020 16.658,15.168 16.658,15.168 C16.653,15.177 16.646,15.187 16.640,15.195 C16.640,15.195 16.658,15.195 16.658,15.195 C16.658,15.195 16.658,15.168 16.658,15.168 C17.017,14.615 17.658,13.830 19.088,13.830 C20.863,13.830 22.193,14.988 22.193,17.481 C22.193,17.481 22.193,22.132 22.193,22.132 L19.496,22.132 C19.496,22.132 19.496,17.791 19.496,17.791 zM11.121,12.912 C11.121,12.912 11.103,12.912 11.103,12.912 C10.198,12.912 9.613,12.287 9.613,11.510 C9.613,10.714 10.217,10.108 11.139,10.108 C12.061,10.108 12.629,10.714 12.647,11.510 C12.647,12.287 12.061,12.912 11.121,12.912 zM12.470,22.132 L9.772,22.132 L9.772,14.020 L12.470,14.020 L12.470,22.132 z" fill="#678BBE" />
</g>
</svg>
