<svg version="1.1" xmlns="http://www.w3.org/2000/svg" xmlns:xlink="http://www.w3.org/1999/xlink" width="23" height="19" viewBox="0 0 23 19">
<g id="ic_menu">
<path id="ic_menu" d="M21.500,11.000 C21.500,11.000 1.500,11.000 1.500,11.000 C0.672,11.000 -0.000,10.328 -0.000,9.500 C-0.000,8.672 0.672,8.000 1.500,8.000 C1.500,8.000 21.500,8.000 21.500,8.000 C22.328,8.000 23.000,8.672 23.000,9.500 C23.000,10.328 22.328,11.000 21.500,11.000 zM21.500,3.000 C21.500,3.000 1.500,3.000 1.500,3.000 C0.672,3.000 -0.000,2.328 -0.000,1.500 C-0.000,0.672 0.672,-0.000 1.500,-0.000 C1.500,-0.000 21.500,-0.000 21.500,-0.000 C22.328,-0.000 23.000,0.672 23.000,1.500 C23.000,2.328 22.328,3.000 21.500,3.000 zM1.500,16.000 C1.500,16.000 21.500,16.000 21.500,16.000 C22.328,16.000 23.000,16.672 23.000,17.500 C23.000,18.328 22.328,19.000 21.500,19.000 C21.500,19.000 1.500,19.000 1.500,19.000 C0.672,19.000 -0.000,18.328 -0.000,17.500 C-0.000,16.672 0.672,16.000 1.500,16.000 z" fill="#787878" />
</g>
</svg>
