<svg version="1.1" xmlns="http://www.w3.org/2000/svg" xmlns:xlink="http://www.w3.org/1999/xlink" width="19" height="19" viewBox="0 0 19 19">
<g id="ic_menu_close">
<path id="ic_menu_close" d="M11.621,9.500 C11.621,9.500 17.632,15.510 17.632,15.510 C18.218,16.096 18.218,17.046 17.632,17.632 C17.046,18.217 16.096,18.217 15.510,17.632 C15.510,17.632 9.500,11.621 9.500,11.621 C9.500,11.621 3.490,17.632 3.490,17.632 C2.904,18.217 1.954,18.217 1.368,17.632 C0.782,17.046 0.782,16.096 1.368,15.510 C1.368,15.510 7.379,9.500 7.379,9.500 C7.379,9.500 1.368,3.490 1.368,3.490 C0.782,2.904 0.782,1.954 1.368,1.368 C1.954,0.782 2.904,0.782 3.490,1.368 C3.490,1.368 9.500,7.379 9.500,7.379 C9.500,7.379 15.510,1.368 15.510,1.368 C16.096,0.782 17.046,0.782 17.632,1.368 C18.218,1.954 18.218,2.904 17.632,3.490 C17.632,3.490 11.621,9.500 11.621,9.500 z" fill="#787878" />
</g>
</svg>
