<svg version="1.1" xmlns="http://www.w3.org/2000/svg" xmlns:xlink="http://www.w3.org/1999/xlink" width="14" height="14" viewBox="0 0 14 14">
<g id="ic_plus">
<path id="ic_plus_white" d="M11.667,9.344 C11.667,9.344 9.344,9.344 9.344,9.344 C9.344,9.344 9.344,11.667 9.344,11.667 C9.344,12.955 8.299,14.000 7.010,14.000 C7.010,14.000 6.990,14.000 6.990,14.000 C5.701,14.000 4.656,12.955 4.656,11.667 C4.656,11.667 4.656,9.344 4.656,9.344 C4.656,9.344 2.333,9.344 2.333,9.344 C1.045,9.344 -0.000,8.299 -0.000,7.010 C-0.000,7.010 -0.000,6.990 -0.000,6.990 C-0.000,5.701 1.045,4.656 2.333,4.656 C2.333,4.656 4.656,4.656 4.656,4.656 C4.656,4.656 4.656,2.333 4.656,2.333 C4.656,1.045 5.701,-0.000 6.990,-0.000 C6.990,-0.000 7.010,-0.000 7.010,-0.000 C8.299,-0.000 9.344,1.045 9.344,2.333 C9.344,2.333 9.344,4.656 9.344,4.656 C9.344,4.656 11.667,4.656 11.667,4.656 C12.955,4.656 14.000,5.701 14.000,6.990 C14.000,6.990 14.000,7.010 14.000,7.010 C14.000,8.299 12.955,9.344 11.667,9.344 z" fill="#FFFFFF" />
</g>
</svg>
