<svg version="1.1" xmlns="http://www.w3.org/2000/svg" xmlns:xlink="http://www.w3.org/1999/xlink" width="32" height="32" viewBox="0 0 32 32">
<g id="ic_pinterest">
<path id="ic_pinterest" d="M16.000,0.000 C7.165,0.000 0.001,7.163 0.001,16.000 C0.001,22.550 3.941,28.179 9.578,30.653 C9.533,29.536 9.570,28.195 9.856,26.979 C10.164,25.680 11.915,18.262 11.915,18.262 C11.915,18.262 11.403,17.240 11.403,15.730 C11.403,13.359 12.778,11.588 14.489,11.588 C15.944,11.588 16.647,12.681 16.647,13.990 C16.647,15.453 15.714,17.641 15.235,19.668 C14.834,21.365 16.085,22.750 17.760,22.750 C20.792,22.750 22.833,18.856 22.833,14.243 C22.833,10.737 20.471,8.112 16.176,8.112 C11.322,8.112 8.299,11.731 8.299,15.774 C8.299,17.168 8.710,18.151 9.354,18.912 C9.649,19.262 9.691,19.402 9.583,19.803 C9.507,20.098 9.331,20.807 9.258,21.088 C9.151,21.493 8.823,21.638 8.456,21.489 C6.221,20.576 5.180,18.127 5.180,15.376 C5.180,10.831 9.013,5.381 16.615,5.381 C22.723,5.381 26.743,9.802 26.743,14.546 C26.743,20.823 23.254,25.512 18.111,25.512 C16.383,25.512 14.758,24.578 14.202,23.517 C14.202,23.517 13.273,27.204 13.076,27.915 C12.737,29.150 12.073,30.382 11.466,31.343 C12.905,31.768 14.425,31.999 16.000,31.999 C24.835,31.999 31.999,24.836 31.999,16.000 C31.999,7.163 24.835,0.000 16.000,0.000 z" fill="#678BBE" />
</g>
</svg>
