<svg version="1.1" xmlns="http://www.w3.org/2000/svg" xmlns:xlink="http://www.w3.org/1999/xlink" width="32" height="32" viewBox="0 0 32 32">
<g id="ic_twitter">
<path id="ic_twitter" d="M16.001,0.000 C7.164,0.000 0.001,7.165 0.001,16.000 C0.001,24.836 7.164,31.999 16.001,31.999 C24.837,31.999 31.999,24.836 31.999,16.000 C31.999,7.165 24.837,0.000 16.001,0.000 zM24.061,12.774 C24.069,12.948 24.072,13.121 24.072,13.296 C24.072,18.625 20.016,24.768 12.600,24.768 C10.323,24.768 8.203,24.101 6.419,22.957 C6.734,22.994 7.055,23.013 7.380,23.013 C9.270,23.013 11.009,22.368 12.388,21.287 C10.624,21.254 9.135,20.088 8.622,18.487 C8.868,18.535 9.120,18.559 9.381,18.559 C9.749,18.559 10.105,18.510 10.443,18.418 C8.598,18.047 7.208,16.417 7.208,14.465 C7.208,14.447 7.208,14.430 7.209,14.413 C7.752,14.715 8.374,14.897 9.035,14.918 C7.953,14.194 7.241,12.961 7.241,11.562 C7.241,10.822 7.440,10.130 7.787,9.535 C9.776,11.974 12.747,13.579 16.098,13.747 C16.029,13.452 15.994,13.144 15.994,12.828 C15.994,10.601 17.799,8.796 20.026,8.796 C21.186,8.796 22.234,9.286 22.969,10.069 C23.888,9.889 24.751,9.553 25.530,9.091 C25.228,10.033 24.589,10.823 23.756,11.322 C24.573,11.224 25.350,11.007 26.073,10.687 C25.533,11.495 24.848,12.206 24.061,12.774 z" fill="#678BBE" />
</g>
</svg>
