<svg version="1.1" xmlns="http://www.w3.org/2000/svg" xmlns:xlink="http://www.w3.org/1999/xlink" width="32" height="32" viewBox="0 0 32 32">
<g id="ic_youtube">
<path id="ic_youtube" d="M16.000,31.999 C7.164,31.999 -0.000,24.837 -0.000,16.000 C-0.000,7.163 7.164,-0.000 16.000,-0.000 C24.836,-0.000 32.000,7.163 32.000,16.000 C32.000,24.837 24.836,31.999 16.000,31.999 zM13.063,5.956 L12.284,8.921 L12.205,8.921 L11.387,5.956 L10.119,5.956 L11.618,10.435 L11.618,13.375 L12.877,13.375 L12.877,10.298 L14.342,5.956 L13.063,5.956 zM17.678,9.186 C17.678,8.767 17.530,8.425 17.237,8.161 C16.940,7.897 16.561,7.764 16.098,7.764 C15.590,7.764 15.185,7.890 14.884,8.139 C14.583,8.393 14.433,8.731 14.433,9.153 C14.433,9.153 14.433,11.991 14.433,11.991 C14.433,12.455 14.580,12.826 14.873,13.102 C15.166,13.375 15.558,13.512 16.047,13.512 C16.555,13.512 16.954,13.379 17.245,13.114 C17.533,12.849 17.678,12.482 17.678,12.012 C17.678,12.012 17.678,9.186 17.678,9.186 zM21.777,7.902 L20.657,7.902 C20.657,7.902 20.657,12.055 20.657,12.055 C20.554,12.176 20.438,12.273 20.313,12.352 C20.187,12.428 20.083,12.468 20.001,12.468 C19.897,12.468 19.820,12.437 19.774,12.379 C19.727,12.322 19.702,12.229 19.702,12.099 C19.702,12.099 19.702,7.902 19.702,7.902 L18.586,7.902 C18.586,7.902 18.586,12.475 18.586,12.475 C18.586,12.804 18.651,13.048 18.781,13.209 C18.912,13.373 19.106,13.455 19.366,13.455 C19.576,13.455 19.792,13.396 20.015,13.280 C20.238,13.164 20.453,12.993 20.657,12.771 C20.657,12.771 20.657,13.375 20.657,13.375 L21.777,13.375 L21.777,7.902 zM26.032,18.689 C26.032,16.708 24.427,15.102 22.447,15.102 C22.447,15.102 9.987,15.102 9.987,15.102 C8.006,15.102 6.401,16.708 6.401,18.689 C6.401,18.689 6.401,21.572 6.401,21.572 C6.401,23.552 8.006,25.158 9.987,25.158 C9.987,25.158 22.447,25.158 22.447,25.158 C24.427,25.158 26.032,23.552 26.032,21.572 C26.032,21.572 26.032,18.689 26.032,18.689 zM21.436,23.238 C20.990,23.238 20.639,23.101 20.384,22.828 C20.130,22.557 20.001,22.181 20.001,21.701 C20.001,21.701 20.001,19.468 20.001,19.468 C20.001,19.040 20.142,18.687 20.423,18.417 C20.704,18.144 21.065,18.010 21.510,18.010 C21.965,18.010 22.315,18.135 22.558,18.386 C22.803,18.638 22.924,18.998 22.924,19.468 C22.924,19.468 22.924,20.737 22.924,20.737 L21.025,20.737 C21.025,20.737 21.025,21.672 21.025,21.672 C21.025,21.935 21.057,22.115 21.122,22.218 C21.188,22.318 21.300,22.368 21.459,22.368 C21.623,22.368 21.738,22.324 21.804,22.239 C21.868,22.155 21.903,21.965 21.903,21.672 C21.903,21.672 21.903,21.446 21.903,21.446 L22.924,21.446 C22.924,21.446 22.924,21.701 22.924,21.701 C22.924,22.211 22.801,22.595 22.550,22.854 C22.302,23.110 21.931,23.238 21.436,23.238 zM21.903,19.964 C21.903,19.964 21.903,19.462 21.903,19.462 C21.903,19.253 21.867,19.102 21.798,19.016 C21.731,18.923 21.619,18.879 21.468,18.879 C21.310,18.879 21.197,18.923 21.127,19.016 C21.058,19.102 21.025,19.253 21.025,19.462 C21.025,19.462 21.025,19.964 21.025,19.964 L21.903,19.964 zM18.572,23.166 C18.377,23.166 18.203,23.130 18.053,23.058 C17.900,22.986 17.758,22.874 17.628,22.721 C17.628,22.721 17.628,23.101 17.628,23.101 L16.624,23.101 L16.624,16.366 L17.628,16.366 C17.628,16.366 17.628,18.536 17.628,18.536 C17.762,18.386 17.905,18.269 18.053,18.190 C18.205,18.111 18.357,18.072 18.512,18.072 C18.826,18.072 19.067,18.179 19.232,18.391 C19.398,18.601 19.481,18.911 19.481,19.318 C19.481,19.318 19.481,22.076 19.481,22.076 C19.481,22.427 19.403,22.696 19.247,22.885 C19.093,23.073 18.865,23.166 18.572,23.166 zM18.457,19.372 C18.457,19.204 18.422,19.077 18.353,18.989 C18.280,18.904 18.177,18.861 18.043,18.861 C17.972,18.861 17.901,18.876 17.832,18.911 C17.764,18.942 17.695,18.993 17.628,19.063 C17.628,19.063 17.628,22.158 17.628,22.158 C17.707,22.238 17.787,22.299 17.863,22.333 C17.940,22.368 18.019,22.387 18.103,22.387 C18.225,22.387 18.313,22.352 18.371,22.281 C18.428,22.211 18.457,22.099 18.457,21.939 C18.457,21.939 18.457,19.372 18.457,19.372 zM14.884,22.557 C14.700,22.757 14.509,22.909 14.311,23.017 C14.113,23.124 13.921,23.175 13.734,23.175 C13.504,23.175 13.332,23.101 13.215,22.954 C13.099,22.803 13.041,22.585 13.041,22.288 C13.041,22.288 13.041,18.133 13.041,18.133 L14.034,18.133 C14.034,18.133 14.034,21.945 14.034,21.945 C14.034,22.062 14.055,22.147 14.095,22.199 C14.138,22.252 14.206,22.277 14.299,22.277 C14.371,22.277 14.464,22.243 14.576,22.173 C14.688,22.102 14.791,22.015 14.884,21.908 C14.884,21.908 14.884,18.133 14.884,18.133 L15.877,18.133 L15.877,23.101 L14.884,23.101 C14.884,23.101 14.884,22.557 14.884,22.557 zM11.447,23.101 L10.327,23.101 L10.327,17.346 L9.169,17.346 L9.169,16.366 L12.605,16.366 L12.605,17.346 L11.447,17.346 L11.447,23.101 zM16.044,12.564 C15.896,12.564 15.782,12.523 15.703,12.441 C15.623,12.360 15.584,12.244 15.584,12.095 C15.584,12.095 15.584,9.113 15.584,9.113 C15.584,8.993 15.626,8.895 15.711,8.823 C15.797,8.748 15.907,8.711 16.044,8.711 C16.192,8.711 16.311,8.748 16.402,8.823 C16.494,8.895 16.539,8.993 16.539,9.113 C16.539,9.113 16.539,12.095 16.539,12.095 C16.539,12.241 16.494,12.356 16.405,12.441 C16.316,12.523 16.195,12.564 16.044,12.564 z" fill="#678BBE" />
</g>
</svg>
