<?xml version="1.0" encoding="utf-8"?>
<!-- Generator: Adobe Illustrator 19.0.1, SVG Export Plug-In . SVG Version: 6.00 Build 0)  -->
<svg version="1.1" id="Layer_1" xmlns="http://www.w3.org/2000/svg" xmlns:xlink="http://www.w3.org/1999/xlink" x="0px" y="0px"
	 width="278px" height="141px" viewBox="0 0 612.195 311.081" enable-background="new 0 0 612.195 311.081"
	 xml:space="preserve">
<g>
	<g>
		<rect x="158.758" y="53.197" fill="#BCBEC0" width="299.104" height="18.591"/>
		<rect x="158.758" y="71.788" fill="#FFFFFF" width="299.104" height="182.166"/>
		<rect x="166.995" y="80.164" opacity="0.5" fill="#01BACC" width="47.375" height="8.655"/>
		<rect x="166.995" y="97.474" fill="#E6E7E8" width="181.759" height="97.028"/>
		<rect x="357.207" y="97.474" opacity="0.5" fill="#01BACC" width="90.855" height="69.697"/>
		<rect x="357.207" y="175.585" fill="#D1D3D4" width="38.47" height="23.473"/>
		<rect x="402.637" y="175.585" fill="#E6E7E8" width="34.037" height="2.974"/>
		<rect x="402.637" y="183.06" fill="#E6E7E8" width="24.469" height="2.841"/>
		<rect x="402.637" y="189.719" fill="#E6E7E8" width="19.913" height="2.733"/>
		<rect x="402.637" y="196.324" fill="#E6E7E8" width="25.38" height="2.734"/>
		<rect x="357.207" y="215.103" fill="#D1D3D4" width="38.47" height="23.472"/>
		<rect x="402.637" y="215.103" fill="#E6E7E8" width="34.037" height="2.973"/>
		<rect x="402.637" y="222.578" fill="#E6E7E8" width="24.469" height="2.841"/>
		<rect x="402.637" y="229.236" fill="#E6E7E8" width="19.913" height="2.734"/>
		<rect x="402.637" y="235.841" fill="#E6E7E8" width="25.38" height="2.734"/>
		<rect x="166.995" y="200.895" fill="#D1D3D4" width="136.205" height="6.363"/>
		<rect x="166.995" y="211.356" fill="#E6E7E8" width="61.041" height="6.719"/>
		<rect x="166.995" y="223.998" fill="#E6E7E8" width="181.759" height="19.929"/>
		<rect x="321.649" y="200.895" fill="#E6E7E8" width="27.105" height="11.828"/>
		<rect x="225.759" y="80.164" fill="#E6E7E8" width="159.438" height="8.655"/>
		<rect x="393.854" y="80.164" fill="#E6E7E8" width="33.252" height="8.655"/>
		<rect x="173.829" y="170.131" opacity="0.5" fill="#01BACC" width="164.903" height="17.19"/>
		<polygon fill="#FFFFFF" points="249.447,151.318 249.447,132.322 266.301,141.82 266.301,141.82 		"/>
	</g>
	<g>
		<g>
			<path fill="#BABABC" d="M432.757,166.053l-30.803-10.406c-0.337-0.119-0.712-0.029-0.961,0.224
				c-0.255,0.253-0.343,0.624-0.226,0.962l10.406,30.803c0.103,0.308,0.36,0.539,0.677,0.613c0.313,0.075,0.647-0.022,0.879-0.25
				l5.736-5.737l9.416,9.415c0.176,0.174,0.416,0.275,0.662,0.276c0.249,0,0.492-0.102,0.665-0.275l7.588-7.592
				c0.176-0.17,0.275-0.414,0.275-0.659c0-0.249-0.1-0.49-0.275-0.667l-9.416-9.414l5.739-5.739
				c0.229-0.229,0.325-0.566,0.249-0.877C433.296,166.414,433.065,166.157,432.757,166.053z"/>
			<g>
				<path fill="#9E9DA0" d="M434.281,186.367c-0.173,0.172-0.416,0.271-0.665,0.271c-0.246-0.001-0.486-0.1-0.662-0.271
					l-9.416-9.418l-5.736,5.737c-0.231,0.227-0.563,0.324-0.879,0.252c-0.314-0.075-0.574-0.308-0.677-0.615l-8.335-24.668
					l-5.953-2.01c-0.34-0.117-0.715-0.027-0.964,0.226c-0.255,0.253-0.343,0.624-0.226,0.962l10.409,30.803
					c0.1,0.308,0.357,0.539,0.674,0.612c0.316,0.075,0.65-0.021,0.879-0.249l5.736-5.737l9.416,9.415
					c0.179,0.173,0.416,0.275,0.665,0.276c0.246,0,0.489-0.102,0.662-0.276"/>
			</g>
		</g>
	</g>
	<g>
		<g>
			<g>
				<path fill="#F6A534" d="M495.379,56.222c3.615,15.848-6.299,31.632-22.157,35.253c-15.855,3.615-31.638-6.307-35.25-22.16
					c-3.618-15.85,6.299-31.635,22.151-35.249C475.976,30.445,491.764,40.367,495.379,56.222z"/>
			</g>
			<path fill="#FBBC36" d="M498.148,52.55c3.615,15.849-6.302,31.635-22.148,35.251c-15.858,3.619-31.643-6.301-35.259-22.152
				c-3.615-15.852,6.302-31.638,22.154-35.257C478.753,26.779,494.533,36.697,498.148,52.55z"/>
			<path fill="#FFD633" d="M491.984,53.959c2.842,12.444-4.948,24.834-17.399,27.675c-12.445,2.838-24.841-4.949-27.677-17.394
				c-2.842-12.444,4.948-24.839,17.394-27.68C476.752,33.721,489.142,41.508,491.984,53.959z"/>
			<path fill="#FFE632" d="M474.866,58.463c-1.11-0.728-2.508-1.14-4.201-1.392c-0.149-0.024-0.296-0.045-0.442-0.063
				c-0.996-0.13-1.79-0.287-2.402-0.476c-0.287-0.097-0.542-0.197-0.747-0.31c-0.627-0.355-0.899-0.715-1.087-1.445
				c-0.105-0.472-0.038-1.034,0.319-1.555c0.149-0.213,0.349-0.422,0.624-0.617c0.39-0.285,0.923-0.533,1.655-0.703
				c0.308-0.067,0.592-0.113,0.864-0.148c1.272-0.146,2.282,0.037,2.827,0.178c0.199,0.054,0.404,0.015,0.58-0.1
				c0.167-0.118,0.272-0.3,0.299-0.505l0.261-2.174c0.041-0.349-0.179-0.674-0.516-0.764c-1.002-0.275-2.435-0.394-4.236-0.082
				l-0.68-2.978c-0.164-0.715-0.873-1.162-1.585-0.997c-0.715,0.16-1.163,0.867-0.999,1.584l0.712,3.125
				c-1.248,0.54-2.27,1.298-2.997,2.228c-1.046,1.329-1.462,3.015-1.066,4.709c0.334,1.526,1.245,2.685,2.496,3.425
				c1.163,0.69,2.584,1.067,4.225,1.268c0.141,0.023,0.275,0.037,0.422,0.052c1.049,0.137,1.846,0.319,2.435,0.56
				c0.214,0.084,0.393,0.174,0.551,0.278c0.598,0.38,0.879,0.793,1.06,1.551c0.173,0.781,0.023,1.424-0.431,2.006
				c-0.067,0.086-0.158,0.18-0.246,0.264c-0.483,0.465-1.225,0.866-2.244,1.099c-0.073,0.016-0.146,0.026-0.214,0.037
				c-1.576,0.318-3.208,0.154-4.354-0.206c-0.205-0.068-0.431-0.034-0.612,0.086c-0.173,0.121-0.29,0.316-0.311,0.53l-0.185,2.218
				c-0.023,0.324,0.173,0.621,0.472,0.726c1.441,0.496,3.712,0.535,5.774,0.078l0.633,2.78c0.161,0.715,0.873,1.16,1.585,0.999
				c0.715-0.166,1.163-0.877,0.999-1.589l-0.7-3.051c1.23-0.59,2.183-1.364,2.848-2.266c1.06-1.437,1.362-3.178,0.978-4.83
				C476.89,60.448,476.082,59.248,474.866,58.463z"/>
		</g>
		<g opacity="0.4">
			<g>
				<path fill="#FFFFFF" d="M441.145,44.862c4.995-3.004,5.49-4.104,4.456-9.832c3.006,4.986,4.11,5.483,9.838,4.452
					c-4.989,3.004-5.484,4.105-4.456,9.837C447.983,44.335,446.884,43.833,441.145,44.862z"/>
				<path fill="none" stroke="#FFFFFF" stroke-width="0" stroke-linecap="round" stroke-linejoin="round" d="M441.145,44.862
					c4.995-3.004,5.49-4.104,4.456-9.832c3.006,4.986,4.11,5.483,9.838,4.452c-4.989,3.004-5.484,4.105-4.456,9.837
					C447.983,44.335,446.884,43.833,441.145,44.862z"/>
			</g>
			<g>
				<path fill="#FFFFFF" d="M461.553,60.183c4.72,0.14,5.537-0.395,7.348-4.754c-0.138,4.719,0.398,5.546,4.758,7.348
					c-4.717-0.141-5.537,0.397-7.345,4.762C466.449,62.818,465.913,61.994,461.553,60.183z"/>
				<path fill="none" stroke="#FFFFFF" stroke-width="0" stroke-linecap="round" stroke-linejoin="round" d="M461.553,60.183
					c4.72,0.14,5.537-0.395,7.348-4.754c-0.138,4.719,0.398,5.546,4.758,7.348c-4.717-0.141-5.537,0.397-7.345,4.762
					C466.449,62.818,465.913,61.994,461.553,60.183z"/>
			</g>
			<g>
				<path fill="#FFFFFF" d="M435.508,68.702c4.497-1.43,5.098-2.205,5.359-6.914c1.433,4.49,2.206,5.092,6.923,5.354
					c-4.497,1.432-5.092,2.208-5.355,6.92C441.001,69.563,440.225,68.96,435.508,68.702z"/>
				<path fill="none" stroke="#FFFFFF" stroke-width="0" stroke-linecap="round" stroke-linejoin="round" d="M435.508,68.702
					c4.497-1.43,5.098-2.205,5.359-6.914c1.433,4.49,2.206,5.092,6.923,5.354c-4.497,1.432-5.092,2.208-5.355,6.92
					C441.001,69.563,440.225,68.96,435.508,68.702z"/>
			</g>
			<g>
				<path fill="#FFFFFF" d="M472.282,37.322c4.714-0.218,5.499-0.812,6.976-5.298c0.214,4.711,0.809,5.494,5.297,6.972
					c-4.72,0.212-5.502,0.811-6.973,5.296C477.365,39.58,476.767,38.798,472.282,37.322z"/>
				<path fill="none" stroke="#FFFFFF" stroke-width="0" stroke-linecap="round" stroke-linejoin="round" d="M472.282,37.322
					c4.714-0.218,5.499-0.812,6.976-5.298c0.214,4.711,0.809,5.494,5.297,6.972c-4.72,0.212-5.502,0.811-6.973,5.296
					C477.365,39.58,476.767,38.798,472.282,37.322z"/>
			</g>
		</g>
	</g>
	<g>
		<g>
			<g>
				<path fill="#F6A534" d="M395.984,110.342c-3.633,10.472-15.07,16.021-25.553,12.383c-10.477-3.634-16.02-15.073-12.384-25.547
					c3.633-10.477,15.07-16.025,25.544-12.39C394.071,88.422,399.62,99.863,395.984,110.342z"/>
			</g>
			<path fill="#FBBC36" d="M398.911,109.216c-3.633,10.472-15.073,16.023-25.55,12.388c-10.474-3.634-16.022-15.073-12.387-25.547
				c3.633-10.478,15.07-16.025,25.547-12.392C396.997,87.303,402.543,98.74,398.911,109.216z"/>
			<path fill="#FFD633" d="M394.838,107.805c-2.854,8.222-11.836,12.576-20.065,9.722c-8.224-2.854-12.58-11.833-9.727-20.058
				c2.851-8.224,11.839-12.579,20.063-9.727C393.335,90.598,397.686,99.577,394.838,107.805z"/>
			<path fill="#FFE632" d="M383.307,104.224c-0.375-0.817-1.037-1.564-1.928-2.32c-0.079-0.07-0.152-0.135-0.232-0.196
				c-0.53-0.435-0.932-0.812-1.216-1.142c-0.138-0.163-0.243-0.312-0.322-0.45c-0.234-0.434-0.264-0.74-0.105-1.228
				c0.105-0.311,0.352-0.613,0.747-0.787c0.161-0.067,0.352-0.116,0.58-0.131c0.331-0.023,0.726,0.028,1.216,0.192
				c0.196,0.072,0.381,0.149,0.554,0.227c0.785,0.374,1.304,0.847,1.564,1.127c0.097,0.102,0.231,0.156,0.375,0.148
				c0.141-0.007,0.267-0.072,0.355-0.183l0.938-1.162c0.149-0.186,0.138-0.457-0.024-0.631c-0.48-0.519-1.266-1.105-2.42-1.575
				l0.682-1.969c0.164-0.472-0.088-0.987-0.557-1.148c-0.472-0.165-0.987,0.08-1.145,0.555l-0.721,2.064
				c-0.92-0.141-1.781-0.07-2.54,0.206c-1.087,0.389-1.934,1.216-2.317,2.338c-0.36,1.005-0.249,2.002,0.208,2.883
				c0.422,0.818,1.11,1.55,1.984,2.26c0.073,0.061,0.146,0.12,0.225,0.181c0.56,0.457,0.952,0.851,1.207,1.203
				c0.091,0.126,0.167,0.244,0.217,0.357c0.208,0.434,0.223,0.778,0.053,1.283c-0.179,0.513-0.498,0.832-0.973,1.003
				c-0.07,0.026-0.155,0.048-0.237,0.065c-0.448,0.093-1.023,0.056-1.696-0.176c-0.047-0.014-0.094-0.037-0.138-0.055
				c-1.028-0.387-1.91-1.072-2.443-1.691c-0.094-0.116-0.234-0.178-0.384-0.172c-0.143,0.008-0.281,0.078-0.372,0.194l-0.905,1.215
				c-0.132,0.178-0.126,0.422,0.006,0.592c0.659,0.807,1.954,1.647,3.316,2.128l-0.638,1.841c-0.164,0.469,0.088,0.984,0.554,1.148
				c0.475,0.164,0.99-0.088,1.154-0.558l0.697-2.017c0.926,0.104,1.755,0,2.467-0.284c1.131-0.448,1.934-1.346,2.309-2.439
				C383.761,106.104,383.723,105.119,383.307,104.224z"/>
		</g>
		<g opacity="0.4">
			<g>
				<path fill="#FFFFFF" d="M368.717,84.179c3.973,0.066,4.655-0.393,6.129-4.077c-0.064,3.969,0.393,4.655,4.081,6.127
					c-3.973-0.064-4.655,0.393-6.132,4.08C372.863,86.343,372.409,85.657,368.717,84.179z"/>
				<path fill="none" stroke="#FFFFFF" stroke-width="0" stroke-linecap="round" stroke-linejoin="round" d="M368.717,84.179
					c3.973,0.066,4.655-0.393,6.129-4.077c-0.064,3.969,0.393,4.655,4.081,6.127c-3.973-0.064-4.655,0.393-6.132,4.08
					C372.863,86.343,372.409,85.657,368.717,84.179z"/>
			</g>
			<g>
				<path fill="#FFFFFF" d="M374.987,100.412c2.678,1.784,3.346,1.772,5.965-0.096c-1.781,2.681-1.772,3.352,0.1,5.971
					c-2.681-1.787-3.346-1.771-5.968,0.101C376.868,103.704,376.856,103.033,374.987,100.412z"/>
				<path fill="none" stroke="#FFFFFF" stroke-width="0" stroke-linecap="round" stroke-linejoin="round" d="M374.987,100.412
					c2.678,1.784,3.346,1.772,5.965-0.096c-1.781,2.681-1.772,3.352,0.1,5.971c-2.681-1.787-3.346-1.771-5.968,0.101
					C376.868,103.704,376.856,103.033,374.987,100.412z"/>
			</g>
			<g>
				<path fill="#FFFFFF" d="M356.843,95.931c3.12,0.796,3.744,0.568,5.596-2.063c-0.791,3.114-0.563,3.743,2.071,5.599
					c-3.117-0.798-3.744-0.564-5.596,2.067C359.708,98.413,359.477,97.784,356.843,95.931z"/>
				<path fill="none" stroke="#FFFFFF" stroke-width="0" stroke-linecap="round" stroke-linejoin="round" d="M356.843,95.931
					c3.12,0.796,3.744,0.568,5.596-2.063c-0.791,3.114-0.563,3.743,2.071,5.599c-3.117-0.798-3.744-0.564-5.596,2.067
					C359.708,98.413,359.477,97.784,356.843,95.931z"/>
			</g>
			<g>
				<path fill="#FFFFFF" d="M389.451,91.066c2.804,1.575,3.475,1.515,5.947-0.547c-1.576,2.803-1.517,3.471,0.545,5.947
					c-2.807-1.582-3.475-1.519-5.944,0.544C391.575,94.208,391.51,93.539,389.451,91.066z"/>
				<path fill="none" stroke="#FFFFFF" stroke-width="0" stroke-linecap="round" stroke-linejoin="round" d="M389.451,91.066
					c2.804,1.575,3.475,1.515,5.947-0.547c-1.576,2.803-1.517,3.471,0.545,5.947c-2.807-1.582-3.475-1.519-5.944,0.544
					C391.575,94.208,391.51,93.539,389.451,91.066z"/>
			</g>
		</g>
	</g>
	<g>
		<g>
			<g>
				<path fill="#F6A534" d="M337.039,72.765c-2.268,6.539-9.41,10.003-15.955,7.732c-6.54-2.27-10.003-9.411-7.732-15.951
					c2.268-6.541,9.408-10.006,15.95-7.735C335.843,59.078,339.309,66.22,337.039,72.765z"/>
			</g>
			<path fill="#FBBC36" d="M338.864,72.062c-2.268,6.539-9.407,10.004-15.949,7.736c-6.543-2.27-10.006-9.413-7.738-15.953
				c2.271-6.541,9.414-10.006,15.956-7.736C337.671,58.381,341.134,65.52,338.864,72.062z"/>
			<path fill="#FFD633" d="M336.324,71.181c-1.781,5.134-7.392,7.852-12.527,6.07c-5.136-1.783-7.855-7.388-6.076-12.523
				c1.784-5.137,7.391-7.855,12.527-6.075C335.383,60.437,338.102,66.044,336.324,71.181z"/>
			<path fill="#FFE632" d="M329.122,68.946c-0.234-0.511-0.647-0.978-1.204-1.45c-0.047-0.043-0.097-0.084-0.144-0.122
				c-0.331-0.273-0.583-0.508-0.759-0.714c-0.085-0.1-0.152-0.193-0.202-0.28c-0.147-0.272-0.164-0.463-0.065-0.768
				c0.067-0.193,0.217-0.382,0.466-0.49c0.1-0.042,0.22-0.073,0.363-0.081c0.205-0.016,0.451,0.016,0.759,0.118
				c0.123,0.044,0.237,0.094,0.343,0.142c0.492,0.235,0.817,0.528,0.981,0.702c0.059,0.064,0.141,0.099,0.232,0.093
				c0.088-0.003,0.167-0.046,0.223-0.114l0.586-0.727c0.094-0.116,0.085-0.285-0.015-0.393c-0.299-0.325-0.791-0.691-1.515-0.985
				l0.428-1.23c0.102-0.294-0.053-0.617-0.346-0.717c-0.296-0.103-0.615,0.052-0.718,0.346l-0.448,1.292
				c-0.574-0.089-1.113-0.045-1.585,0.126c-0.68,0.244-1.21,0.759-1.45,1.459c-0.223,0.628-0.155,1.252,0.132,1.802
				c0.264,0.51,0.694,0.968,1.239,1.412c0.044,0.037,0.094,0.074,0.141,0.112c0.349,0.286,0.595,0.531,0.753,0.751
				c0.059,0.079,0.103,0.153,0.138,0.224c0.126,0.273,0.138,0.486,0.032,0.801c-0.114,0.321-0.314,0.519-0.609,0.627
				c-0.044,0.017-0.097,0.029-0.146,0.041c-0.281,0.058-0.639,0.035-1.061-0.111c-0.029-0.009-0.059-0.024-0.085-0.034
				c-0.642-0.241-1.192-0.669-1.526-1.056c-0.059-0.072-0.146-0.111-0.24-0.108c-0.091,0.006-0.176,0.049-0.232,0.12l-0.565,0.761
				c-0.085,0.11-0.082,0.263,0.006,0.369c0.407,0.503,1.219,1.028,2.066,1.329l-0.399,1.147c-0.1,0.294,0.056,0.616,0.349,0.718
				c0.296,0.101,0.618-0.055,0.721-0.349l0.434-1.259c0.577,0.065,1.096,0,1.541-0.178c0.706-0.278,1.21-0.84,1.441-1.523
				C329.407,70.119,329.383,69.505,329.122,68.946z"/>
		</g>
		<g opacity="0.4">
			<g>
				<path fill="#FFFFFF" d="M320.014,56.429c2.478,0.043,2.903-0.244,3.826-2.544c-0.041,2.478,0.249,2.906,2.546,3.825
					c-2.478-0.04-2.903,0.246-3.826,2.549C322.601,57.78,322.317,57.35,320.014,56.429z"/>
				<path fill="none" stroke="#FFFFFF" stroke-width="0" stroke-linecap="round" stroke-linejoin="round" d="M320.014,56.429
					c2.478,0.043,2.903-0.244,3.826-2.544c-0.041,2.478,0.249,2.906,2.546,3.825c-2.478-0.04-2.903,0.246-3.826,2.549
					C322.601,57.78,322.317,57.35,320.014,56.429z"/>
			</g>
			<g>
				<path fill="#FFFFFF" d="M323.928,66.565c1.673,1.114,2.089,1.106,3.727-0.06c-1.116,1.673-1.107,2.092,0.059,3.728
					c-1.673-1.116-2.089-1.107-3.724,0.063C325.103,68.62,325.094,68.201,323.928,66.565z"/>
				<path fill="none" stroke="#FFFFFF" stroke-width="0" stroke-linecap="round" stroke-linejoin="round" d="M323.928,66.565
					c1.673,1.114,2.089,1.106,3.727-0.06c-1.116,1.673-1.107,2.092,0.059,3.728c-1.673-1.116-2.089-1.107-3.724,0.063
					C325.103,68.62,325.094,68.201,323.928,66.565z"/>
			</g>
			<g>
				<path fill="#FFFFFF" d="M312.598,63.768c1.948,0.496,2.338,0.352,3.495-1.289c-0.495,1.944-0.352,2.337,1.293,3.497
					c-1.946-0.498-2.339-0.352-3.496,1.29C314.385,65.316,314.245,64.924,312.598,63.768z"/>
				<path fill="none" stroke="#FFFFFF" stroke-width="0" stroke-linecap="round" stroke-linejoin="round" d="M312.598,63.768
					c1.948,0.496,2.338,0.352,3.495-1.289c-0.495,1.944-0.352,2.337,1.293,3.497c-1.946-0.498-2.339-0.352-3.496,1.29
					C314.385,65.316,314.245,64.924,312.598,63.768z"/>
			</g>
			<g>
				<path fill="#FFFFFF" d="M332.96,60.729c1.752,0.984,2.168,0.946,3.712-0.341c-0.984,1.75-0.946,2.167,0.343,3.714
					c-1.755-0.989-2.171-0.949-3.712,0.34C334.285,62.69,334.244,62.273,332.96,60.729z"/>
				<path fill="none" stroke="#FFFFFF" stroke-width="0" stroke-linecap="round" stroke-linejoin="round" d="M332.96,60.729
					c1.752,0.984,2.168,0.946,3.712-0.341c-0.984,1.75-0.946,2.167,0.343,3.714c-1.755-0.989-2.171-0.949-3.712,0.34
					C334.285,62.69,334.244,62.273,332.96,60.729z"/>
			</g>
		</g>
	</g>
	<g>
		<g>
			<g>
				<path fill="#F6A534" d="M408.057,48.263c-2.271,6.538-9.413,10.002-15.955,7.731c-6.542-2.27-10.005-9.412-7.734-15.951
					c2.268-6.542,9.41-10.006,15.952-7.736C406.862,34.576,410.325,41.719,408.057,48.263z"/>
			</g>
			<path fill="#FBBC36" d="M409.882,47.559c-2.268,6.539-9.41,10.004-15.952,7.736c-6.539-2.27-10.008-9.412-7.737-15.954
				c2.27-6.54,9.41-10.006,15.955-7.735C408.69,33.877,412.153,41.018,409.882,47.559z"/>
			<path fill="#FFD633" d="M407.342,46.677c-1.784,5.134-7.392,7.852-12.527,6.071c-5.136-1.782-7.854-7.388-6.076-12.524
				c1.778-5.136,7.389-7.854,12.527-6.074C406.402,35.934,409.12,41.54,407.342,46.677z"/>
			<path fill="#FFE632" d="M400.141,44.443c-0.237-0.513-0.65-0.98-1.207-1.451c-0.044-0.042-0.094-0.084-0.141-0.122
				c-0.334-0.271-0.586-0.507-0.762-0.713c-0.082-0.1-0.149-0.194-0.199-0.28c-0.147-0.27-0.164-0.462-0.068-0.768
				c0.068-0.193,0.22-0.382,0.466-0.49c0.102-0.042,0.22-0.072,0.366-0.081c0.202-0.016,0.451,0.017,0.753,0.12
				c0.126,0.043,0.24,0.092,0.346,0.141c0.492,0.235,0.815,0.527,0.979,0.703c0.061,0.063,0.146,0.097,0.234,0.092
				c0.091-0.005,0.164-0.046,0.223-0.113l0.586-0.727c0.094-0.116,0.085-0.285-0.018-0.393c-0.299-0.325-0.785-0.691-1.509-0.984
				l0.425-1.23c0.105-0.294-0.05-0.616-0.346-0.716c-0.296-0.103-0.615,0.05-0.715,0.347l-0.448,1.29
				c-0.577-0.089-1.116-0.045-1.588,0.127c-0.677,0.243-1.207,0.759-1.45,1.459c-0.223,0.629-0.152,1.252,0.132,1.802
				c0.264,0.511,0.691,0.967,1.239,1.41c0.044,0.038,0.094,0.074,0.138,0.114c0.352,0.286,0.601,0.531,0.756,0.751
				c0.062,0.079,0.103,0.152,0.135,0.223c0.132,0.273,0.143,0.486,0.035,0.801c-0.114,0.322-0.314,0.521-0.607,0.627
				c-0.047,0.018-0.1,0.031-0.149,0.041c-0.281,0.059-0.639,0.036-1.061-0.11c-0.029-0.009-0.056-0.023-0.088-0.033
				c-0.636-0.243-1.192-0.67-1.521-1.057c-0.061-0.072-0.152-0.111-0.24-0.108c-0.091,0.004-0.179,0.049-0.231,0.121l-0.566,0.759
				c-0.085,0.112-0.082,0.264,0.003,0.37c0.41,0.504,1.219,1.029,2.068,1.329l-0.401,1.149c-0.1,0.292,0.056,0.615,0.352,0.716
				c0.296,0.102,0.615-0.053,0.718-0.348l0.436-1.258c0.574,0.064,1.096,0,1.541-0.18c0.703-0.278,1.204-0.839,1.441-1.522
				C400.422,45.616,400.402,45.001,400.141,44.443z"/>
		</g>
		<g opacity="0.4">
			<g>
				<path fill="#FFFFFF" d="M391.03,31.926c2.481,0.042,2.909-0.245,3.826-2.545c-0.041,2.479,0.246,2.907,2.549,3.825
					c-2.481-0.039-2.903,0.247-3.829,2.549C393.617,33.278,393.333,32.848,391.03,31.926z"/>
				<path fill="none" stroke="#FFFFFF" stroke-width="0" stroke-linecap="round" stroke-linejoin="round" d="M391.03,31.926
					c2.481,0.042,2.909-0.245,3.826-2.545c-0.041,2.479,0.246,2.907,2.549,3.825c-2.481-0.039-2.903,0.247-3.829,2.549
					C393.617,33.278,393.333,32.848,391.03,31.926z"/>
			</g>
			<g>
				<path fill="#FFFFFF" d="M394.947,42.062c1.667,1.115,2.089,1.107,3.724-0.06c-1.116,1.673-1.105,2.094,0.061,3.727
					c-1.673-1.115-2.089-1.104-3.727,0.063C396.119,44.118,396.113,43.698,394.947,42.062z"/>
				<path fill="none" stroke="#FFFFFF" stroke-width="0" stroke-linecap="round" stroke-linejoin="round" d="M394.947,42.062
					c1.667,1.115,2.089,1.107,3.724-0.06c-1.116,1.673-1.105,2.094,0.061,3.727c-1.673-1.115-2.089-1.104-3.727,0.063
					C396.119,44.118,396.113,43.698,394.947,42.062z"/>
			</g>
			<g>
				<path fill="#FFFFFF" d="M383.618,39.264c1.945,0.496,2.338,0.354,3.492-1.289c-0.492,1.945-0.349,2.336,1.295,3.495
					c-1.951-0.497-2.338-0.35-3.495,1.292C385.405,40.812,385.261,40.421,383.618,39.264z"/>
				<path fill="none" stroke="#FFFFFF" stroke-width="0" stroke-linecap="round" stroke-linejoin="round" d="M383.618,39.264
					c1.945,0.496,2.338,0.354,3.492-1.289c-0.492,1.945-0.349,2.336,1.295,3.495c-1.951-0.497-2.338-0.35-3.495,1.292
					C385.405,40.812,385.261,40.421,383.618,39.264z"/>
			</g>
			<g>
				<path fill="#FFFFFF" d="M403.973,36.225c1.755,0.986,2.171,0.946,3.718-0.34c-0.987,1.75-0.949,2.167,0.337,3.713
					c-1.752-0.988-2.171-0.949-3.712,0.34C405.3,38.187,405.262,37.77,403.973,36.225z"/>
				<path fill="none" stroke="#FFFFFF" stroke-width="0" stroke-linecap="round" stroke-linejoin="round" d="M403.973,36.225
					c1.755,0.986,2.171,0.946,3.718-0.34c-0.987,1.75-0.949,2.167,0.337,3.713c-1.752-0.988-2.171-0.949-3.712,0.34
					C405.3,38.187,405.262,37.77,403.973,36.225z"/>
			</g>
		</g>
	</g>
</g>
<g>
	<g>
		<g>
			<g>
				<g>
					<g>
						<path fill="#FBBC36" d="M517.364,295.806c11.306-0.054,20.467-3.861,20.44-8.493l0.029,6.003
							c0.024,4.633-9.126,8.438-20.446,8.493c-11.317,0.059-20.508-3.649-20.528-8.293l-0.032-5.997
							C496.85,292.153,506.043,295.865,517.364,295.806z"/>
						<path fill="#FFD633" d="M517.364,295.806c-11.32,0.059-20.514-3.653-20.537-8.287c-0.023-4.633,9.135-8.436,20.449-8.49
							c11.312-0.064,20.502,3.655,20.528,8.284C537.831,291.945,528.669,295.752,517.364,295.806z"/>
					</g>
					<g>
						<path fill="#FFDF33" d="M517.349,293.61c-8.361,0.041-15.149-2.697-15.164-6.116c-0.021-3.423,6.747-6.233,15.1-6.278
							c8.355-0.047,15.144,2.7,15.167,6.123C532.463,290.766,525.699,293.569,517.349,293.61z"/>
					</g>
				</g>
				<g>
					<g>
						<path fill="#FBBC36" d="M517.361,288.678c11.309-0.057,20.464-3.86,20.44-8.492l0.032,6c0.024,4.633-9.132,8.435-20.449,8.498
							c-11.317,0.053-20.505-3.658-20.525-8.291l-0.032-6.004C496.847,285.029,506.04,288.737,517.361,288.678z"/>
						<path fill="#FFD633" d="M517.361,288.678c-11.32,0.059-20.514-3.649-20.534-8.289c-0.023-4.629,9.126-8.438,20.443-8.495
							c11.314-0.057,20.508,3.661,20.531,8.292C537.825,284.818,528.669,288.621,517.361,288.678z"/>
					</g>
					<g>
						<path fill="#FFDF33" d="M517.343,286.484c-8.356,0.041-15.144-2.697-15.158-6.119c-0.021-3.423,6.738-6.233,15.094-6.277
							c8.355-0.038,15.149,2.704,15.164,6.123C532.46,283.632,525.699,286.444,517.343,286.484z"/>
					</g>
				</g>
				<g>
					<g>
						<path fill="#FBBC36" d="M517.361,281.694c11.309-0.059,20.47-3.86,20.443-8.496l0.032,6.003
							c0.021,4.636-9.132,8.438-20.452,8.493c-11.317,0.056-20.505-3.646-20.525-8.284l-0.032-6.004
							C496.847,278.039,506.04,281.749,517.361,281.694z"/>
						<path fill="#FFD633" d="M517.361,281.694c-11.32,0.056-20.514-3.655-20.534-8.288c-0.023-4.633,9.129-8.438,20.446-8.493
							c11.312-0.061,20.505,3.655,20.531,8.285C537.831,277.834,528.669,281.635,517.361,281.694z"/>
					</g>
					<g>
						<path fill="#FFDF33" d="M517.343,279.492c-8.356,0.047-15.144-2.691-15.158-6.114c-0.021-3.425,6.747-6.229,15.097-6.271
							c8.352-0.04,15.146,2.691,15.161,6.119C532.46,276.649,525.699,279.456,517.343,279.492z"/>
					</g>
				</g>
				<g>
					<g>
						<path fill="#FBBC36" d="M517.361,274.55c11.309-0.067,20.47-3.867,20.443-8.502l0.032,6.005
							c0.021,4.633-9.132,8.434-20.452,8.494c-11.317,0.054-20.505-3.652-20.525-8.288l-0.032-6.003
							C496.85,270.888,506.04,274.603,517.361,274.55z"/>
						<path fill="#FFD633" d="M517.361,274.55c-11.32,0.053-20.511-3.662-20.534-8.294c-0.021-4.633,9.129-8.433,20.446-8.49
							c11.312-0.059,20.508,3.65,20.531,8.282C537.831,270.683,528.669,274.482,517.361,274.55z"/>
					</g>
					<g>
						<path fill="#FFDF33" d="M517.343,272.348c-8.356,0.044-15.141-2.695-15.155-6.116c-0.023-3.425,6.744-6.23,15.094-6.271
							c8.358-0.046,15.146,2.692,15.17,6.116C532.463,269.5,525.699,272.31,517.343,272.348z"/>
					</g>
				</g>
				<g>
					<g>
						<path fill="#FBBC36" d="M517.361,267.3c11.309-0.057,20.47-3.86,20.443-8.49l0.032,5.999
							c0.021,4.632-9.129,8.435-20.452,8.489c-11.308,0.063-20.505-3.652-20.525-8.284l-0.032-6
							C496.85,263.642,506.043,267.356,517.361,267.3z"/>
						<path fill="#FFD633" d="M517.361,267.3c-11.317,0.056-20.511-3.658-20.534-8.287c-0.021-4.632,9.135-8.438,20.446-8.498
							c11.315-0.057,20.508,3.655,20.531,8.294C537.831,263.44,528.669,267.243,517.361,267.3z"/>
					</g>
					<g>
						<path fill="#FFDF33" d="M517.346,265.109c-8.358,0.037-15.146-2.701-15.161-6.127c-0.021-3.417,6.747-6.23,15.097-6.271
							c8.358-0.04,15.146,2.698,15.17,6.12C532.46,262.251,525.699,265.06,517.346,265.109z"/>
					</g>
				</g>
				<g>
					<g>
						<path fill="#FBBC36" d="M517.361,260.149c11.309-0.054,20.47-3.857,20.443-8.487l0.032,6.001
							c0.021,4.629-9.132,8.43-20.452,8.493c-11.314,0.054-20.505-3.65-20.525-8.287l-0.032-6.004
							C496.85,256.501,506.043,260.212,517.361,260.149z"/>
						<path fill="#FFD633" d="M517.361,260.149c-11.317,0.063-20.511-3.647-20.534-8.284c-0.021-4.632,9.135-8.438,20.446-8.493
							c11.312-0.057,20.505,3.656,20.531,8.29C537.831,256.292,528.669,260.095,517.361,260.149z"/>
					</g>
					<g>
						<path fill="#FFDF33" d="M517.343,257.96c-8.356,0.044-15.144-2.7-15.158-6.122c-0.021-3.422,6.747-6.231,15.097-6.27
							c8.358-0.047,15.146,2.694,15.17,6.113C532.46,255.107,525.699,257.919,517.343,257.96z"/>
					</g>
				</g>
				<g>
					<g>
						<path fill="#FBBC36" d="M517.361,252.905c11.309-0.05,20.47-3.855,20.443-8.493l0.032,6.004
							c0.021,4.635-9.135,8.438-20.452,8.49c-11.317,0.057-20.505-3.649-20.525-8.282l-0.032-6.003
							C496.847,249.256,506.04,252.965,517.361,252.905z"/>
						<path fill="#FFD633" d="M517.361,252.905c-11.32,0.06-20.514-3.649-20.534-8.284c-0.023-4.633,9.129-8.443,20.446-8.496
							c11.312-0.06,20.505,3.648,20.531,8.287C537.831,249.05,528.669,252.855,517.361,252.905z"/>
					</g>
					<g>
						<path fill="#FFDF33" d="M517.343,250.714c-8.356,0.045-15.144-2.7-15.158-6.12c-0.021-3.421,6.747-6.233,15.097-6.272
							c8.352-0.044,15.146,2.701,15.161,6.123C532.46,247.86,525.699,250.668,517.343,250.714z"/>
					</g>
				</g>
				<g>
					<g>
						<path fill="#FBBC36" d="M517.34,245.761c11.32-0.06,20.473-3.863,20.443-8.492l0.032,6.001
							c0.026,4.629-9.129,8.433-20.446,8.487c-11.312,0.064-20.502-3.648-20.531-8.29l-0.026-5.994
							C496.835,242.106,506.023,245.818,517.34,245.761z"/>
						<path fill="#FFD633" d="M517.34,245.761c-11.317,0.057-20.505-3.655-20.528-8.287c-0.026-4.633,9.126-8.436,20.443-8.497
							c11.32-0.059,20.511,3.661,20.528,8.292C537.813,241.898,528.661,245.701,517.34,245.761z"/>
					</g>
					<g>
						<path fill="#FFDF33" d="M517.332,243.567c-8.356,0.038-15.144-2.701-15.167-6.122c-0.015-3.422,6.744-6.23,15.106-6.275
							c8.352-0.041,15.146,2.7,15.158,6.126C532.452,240.718,525.687,243.521,517.332,243.567z"/>
					</g>
				</g>
				<g>
					<g>
						<path fill="#FBBC36" d="M517.326,238.516c11.317-0.06,20.473-3.852,20.449-8.495l0.029,6.004
							c0.026,4.632-9.135,8.435-20.443,8.489c-11.32,0.057-20.514-3.649-20.537-8.279l-0.026-6.007
							C496.818,234.861,506.008,238.569,517.326,238.516z"/>
						<path fill="#FFD633" d="M517.326,238.516c-11.318,0.053-20.508-3.655-20.528-8.288c-0.029-4.635,9.129-8.438,20.446-8.498
							c11.314-0.053,20.505,3.659,20.531,8.291C537.798,234.664,528.643,238.456,517.326,238.516z"/>
					</g>
					<g>
						<path fill="#FFDF33" d="M517.317,236.317c-8.361,0.047-15.149-2.698-15.167-6.12c-0.015-3.419,6.744-6.225,15.103-6.271
							c8.35-0.042,15.146,2.702,15.164,6.123C532.434,233.47,525.667,236.278,517.317,236.317z"/>
					</g>
				</g>
				<g opacity="0.7">
					<path opacity="0.2" fill="#FFFFFF" d="M504.491,236.799v63.276c1.611,0.524,3.425,0.946,5.391,1.255v-63.286
						C507.921,237.744,506.105,237.318,504.491,236.799z"/>
					<path opacity="0.3" fill="#FFFFFF" d="M496.797,230.303l0.026,6.001c0.003,0.18,0.041,0.363,0.067,0.544
						c-0.044,0.233-0.082,0.463-0.079,0.702l0.026,6.002c0.003,0.163,0.041,0.319,0.067,0.479c-0.041,0.22-0.082,0.438-0.079,0.668
						l0.032,5.999c0,0.169,0.032,0.322,0.059,0.48c-0.053,0.255-0.091,0.502-0.091,0.763l0.032,6c0,0.145,0.032,0.286,0.05,0.431
						c-0.044,0.233-0.082,0.473-0.082,0.71l0.032,6.007c0,0.16,0.035,0.315,0.062,0.478c-0.056,0.248-0.094,0.507-0.094,0.763
						l0.032,6.003c0,0.141,0.032,0.275,0.05,0.417c-0.044,0.24-0.085,0.479-0.082,0.728l0.032,6.003c0,0.119,0.029,0.23,0.041,0.35
						c-0.035,0.208-0.076,0.419-0.073,0.636l0.032,6c0,0.145,0.032,0.283,0.047,0.419c-0.041,0.233-0.082,0.469-0.079,0.708l0.032,6
						c0.012,2.635,2.988,4.969,7.632,6.482v-63.276C499.815,235.285,496.806,232.945,496.797,230.303z"/>
					<path opacity="0.1" fill="#FFFFFF" d="M509.881,238.044v63.286c1.439,0.227,2.959,0.384,4.538,0.472v-63.293
						C512.84,238.424,511.32,238.271,509.881,238.044z"/>
				</g>
			</g>
			<g>
				<g>
					<g>
						<path fill="#FBBC36" d="M435.614,294.765c11.314-0.05,20.467-3.86,20.446-8.493l0.029,6.004
							c0.023,4.632-9.132,8.439-20.443,8.493c-11.323,0.06-20.513-3.655-20.534-8.291l-0.035-5.994
							C415.106,291.113,424.299,294.826,435.614,294.765z"/>
						<path fill="#FFD633" d="M435.614,294.765c-11.315,0.062-20.508-3.652-20.537-8.281c-0.021-4.632,9.135-8.439,20.455-8.496
							c11.311-0.061,20.496,3.655,20.528,8.284C456.081,290.905,446.928,294.715,435.614,294.765z"/>
					</g>
					<g>
						<path fill="#FFDF33" d="M435.605,292.569c-8.361,0.048-15.152-2.689-15.167-6.111c-0.015-3.429,6.744-6.236,15.103-6.281
							c8.35-0.041,15.141,2.698,15.164,6.123C450.722,289.72,443.952,292.529,435.605,292.569z"/>
					</g>
				</g>
				<g>
					<g>
						<path fill="#FBBC36" d="M435.614,287.638c11.311-0.056,20.464-3.86,20.44-8.495l0.035,6.004
							c0.023,4.629-9.132,8.438-20.449,8.498c-11.317,0.051-20.508-3.659-20.528-8.29l-0.035-6.003
							C415.106,283.988,424.29,287.694,435.614,287.638z"/>
						<path fill="#FFD633" d="M435.614,287.638c-11.323,0.056-20.508-3.65-20.537-8.285c-0.021-4.636,9.132-8.442,20.449-8.497
							c11.317-0.054,20.502,3.659,20.528,8.288C456.078,283.778,446.925,287.582,435.614,287.638z"/>
					</g>
					<g>
						<path fill="#FFDF33" d="M435.599,285.445c-8.358,0.045-15.147-2.7-15.161-6.12c-0.015-3.423,6.744-6.234,15.1-6.272
							c8.352-0.047,15.144,2.698,15.164,6.12C450.716,282.592,443.952,285.403,435.599,285.445z"/>
					</g>
				</g>
				<g>
					<g>
						<path fill="#FBBC36" d="M435.614,280.649c11.311-0.051,20.467-3.854,20.446-8.49l0.029,5.997
							c0.023,4.644-9.132,8.445-20.449,8.497c-11.317,0.057-20.508-3.65-20.528-8.287l-0.035-6
							C415.106,276.999,424.29,280.709,435.614,280.649z"/>
						<path fill="#FFD633" d="M435.614,280.649c-11.323,0.06-20.508-3.65-20.537-8.282c-0.021-4.636,9.135-8.442,20.449-8.492
							c11.317-0.059,20.502,3.652,20.534,8.284C456.081,276.795,446.925,280.598,435.614,280.649z"/>
					</g>
					<g>
						<path fill="#FFDF33" d="M435.599,278.453c-8.355,0.046-15.147-2.694-15.161-6.116c-0.015-3.425,6.744-6.227,15.103-6.27
							c8.35-0.047,15.141,2.694,15.161,6.12C450.716,275.607,443.952,278.415,435.599,278.453z"/>
					</g>
				</g>
				<g>
					<g>
						<path fill="#FBBC36" d="M435.614,273.508c11.311-0.063,20.467-3.863,20.446-8.498l0.029,6.001
							c0.023,4.641-9.132,8.436-20.449,8.489c-11.317,0.057-20.508-3.65-20.528-8.284l-0.035-6.004
							C415.106,269.845,424.29,273.558,435.614,273.508z"/>
						<path fill="#FFD633" d="M435.614,273.508c-11.323,0.05-20.508-3.664-20.537-8.295c-0.021-4.626,9.135-8.436,20.449-8.489
							c11.317-0.056,20.514,3.652,20.534,8.287C456.081,269.646,446.925,273.445,435.614,273.508z"/>
					</g>
					<g>
						<path fill="#FFDF33" d="M435.599,271.311c-8.355,0.04-15.147-2.698-15.161-6.122c-0.015-3.42,6.744-6.226,15.103-6.271
							c8.35-0.044,15.141,2.701,15.164,6.123C450.722,268.459,443.952,271.268,435.599,271.311z"/>
					</g>
				</g>
				<g>
					<g>
						<path fill="#FBBC36" d="M435.614,266.259c11.314-0.062,20.467-3.861,20.446-8.493l0.029,6.004
							c0.023,4.629-9.132,8.435-20.449,8.493c-11.314,0.053-20.508-3.65-20.528-8.285l-0.035-6.009
							C415.106,262.603,424.299,266.316,435.614,266.259z"/>
						<path fill="#FFD633" d="M435.614,266.259c-11.315,0.057-20.508-3.656-20.537-8.29c-0.021-4.633,9.135-8.436,20.449-8.495
							c11.317-0.056,20.514,3.661,20.534,8.291C456.081,262.397,446.928,266.197,435.614,266.259z"/>
					</g>
					<g>
						<path fill="#FFDF33" d="M435.599,264.063c-8.355,0.047-15.147-2.7-15.161-6.123c-0.015-3.415,6.744-6.229,15.103-6.271
							c8.35-0.038,15.141,2.703,15.164,6.122C450.716,261.212,443.955,264.022,435.599,264.063z"/>
					</g>
				</g>
				<g>
					<g>
						<path fill="#FBBC36" d="M435.614,259.11c11.311-0.06,20.467-3.857,20.446-8.493l0.029,6.007
							c0.023,4.629-9.132,8.432-20.449,8.489c-11.317,0.058-20.508-3.65-20.528-8.282l-0.035-6.004
							C415.106,255.46,424.299,259.17,435.614,259.11z"/>
						<path fill="#FFD633" d="M435.614,259.11c-11.315,0.06-20.508-3.65-20.537-8.284c-0.021-4.632,9.135-8.439,20.449-8.498
							c11.317-0.053,20.502,3.662,20.534,8.288C456.081,255.253,446.925,259.05,435.614,259.11z"/>
					</g>
					<g>
						<path fill="#FFDF33" d="M435.599,256.917c-8.355,0.05-15.147-2.697-15.161-6.119c-0.015-3.419,6.744-6.23,15.103-6.272
							c8.35-0.045,15.141,2.703,15.164,6.12C450.716,254.065,443.952,256.879,435.599,256.917z"/>
					</g>
				</g>
				<g>
					<g>
						<path fill="#FBBC36" d="M435.614,251.865c11.311-0.053,20.467-3.858,20.446-8.487l0.029,5.997
							c0.023,4.639-9.132,8.433-20.449,8.493c-11.317,0.057-20.508-3.653-20.528-8.285l-0.035-6.004
							C415.106,248.218,424.29,251.928,435.614,251.865z"/>
						<path fill="#FFD633" d="M435.614,251.865c-11.323,0.063-20.508-3.648-20.537-8.287c-0.021-4.629,9.135-8.438,20.449-8.495
							c11.317-0.057,20.502,3.653,20.534,8.294C456.081,248.007,446.925,251.813,435.614,251.865z"/>
					</g>
					<g>
						<path fill="#FFDF33" d="M435.599,249.672c-8.355,0.041-15.147-2.698-15.161-6.116c-0.015-3.426,6.744-6.239,15.103-6.28
							c8.35-0.037,15.141,2.704,15.161,6.121C450.716,246.823,443.952,249.631,435.599,249.672z"/>
					</g>
				</g>
				<g>
					<g>
						<path fill="#FBBC36" d="M435.596,244.717c11.32-0.057,20.47-3.857,20.446-8.487l0.029,6c0.024,4.633-9.123,8.435-20.443,8.495
							c-11.314,0.056-20.505-3.656-20.531-8.296l-0.032-5.994C415.085,241.068,424.282,244.784,435.596,244.717z"/>
						<path fill="#FFD633" d="M435.596,244.717c-11.314,0.067-20.511-3.649-20.531-8.282c-0.023-4.639,9.135-8.436,20.449-8.499
							c11.314-0.054,20.505,3.661,20.528,8.294C456.066,240.86,446.916,244.66,435.596,244.717z"/>
					</g>
					<g>
						<path fill="#FFDF33" d="M435.584,242.524c-8.358,0.044-15.146-2.692-15.161-6.12c-0.015-3.42,6.738-6.23,15.097-6.274
							c8.355-0.041,15.152,2.701,15.161,6.122C450.705,239.675,443.943,242.487,435.584,242.524z"/>
					</g>
				</g>
				<g>
					<g>
						<path fill="#FBBC36" d="M435.584,237.475c11.317-0.056,20.464-3.861,20.44-8.495l0.035,6.004
							c0.021,4.633-9.135,8.438-20.446,8.493c-11.323,0.057-20.508-3.65-20.537-8.284l-0.029-6.007
							C415.071,233.827,424.267,237.53,435.584,237.475z"/>
						<path fill="#FFD633" d="M435.584,237.475c-11.317,0.056-20.514-3.647-20.537-8.288c-0.026-4.633,9.129-8.438,20.446-8.49
							c11.314-0.063,20.514,3.65,20.531,8.284C456.048,233.613,446.902,237.419,435.584,237.475z"/>
					</g>
					<g>
						<path fill="#FFDF33" d="M435.567,235.279c-8.359,0.041-15.144-2.697-15.158-6.119c-0.02-3.423,6.738-6.227,15.094-6.271
							c8.361-0.041,15.147,2.697,15.17,6.12C450.684,232.427,443.925,235.238,435.567,235.279z"/>
					</g>
				</g>
				<g opacity="0.7">
					<path opacity="0.2" fill="#FFFFFF" d="M422.744,235.758v63.277c1.608,0.526,3.431,0.951,5.393,1.255v-63.286
						C426.174,236.7,424.355,236.278,422.744,235.758z"/>
					<path opacity="0.3" fill="#FFFFFF" d="M415.047,229.263l0.029,6.003c0,0.179,0.041,0.36,0.07,0.544
						c-0.041,0.226-0.082,0.46-0.082,0.7l0.032,5.999c0,0.163,0.035,0.318,0.059,0.485c-0.038,0.223-0.079,0.435-0.079,0.664
						l0.035,5.997c0,0.17,0.035,0.324,0.059,0.486c-0.053,0.256-0.094,0.501-0.094,0.757l0.035,6.006
						c0,0.146,0.035,0.289,0.053,0.426c-0.047,0.239-0.088,0.475-0.088,0.715l0.035,6.007c0,0.157,0.038,0.309,0.065,0.472
						c-0.059,0.252-0.1,0.507-0.1,0.766l0.035,6.001c0,0.141,0.035,0.275,0.053,0.425c-0.047,0.236-0.088,0.479-0.088,0.722
						l0.035,6.001c0,0.123,0.035,0.236,0.044,0.35c-0.038,0.208-0.079,0.422-0.079,0.631l0.035,6.01
						c0,0.141,0.035,0.275,0.047,0.417c-0.041,0.23-0.082,0.467-0.082,0.702l0.035,6.004c0.015,2.635,2.991,4.964,7.632,6.48
						v-63.277C418.068,234.25,415.059,231.901,415.047,229.263z"/>
					<path opacity="0.1" fill="#FFFFFF" d="M428.137,237.004v63.286c1.441,0.225,2.959,0.384,4.538,0.47v-63.29
						C431.096,237.381,429.579,237.233,428.137,237.004z"/>
				</g>
			</g>
			<g>
				<g>
					<g>
						<path fill="#FBBC36" d="M476.383,296.287c11.309-0.053,20.467-3.864,20.444-8.493l0.032,6.001
							c0.021,4.632-9.135,8.44-20.446,8.493c-11.32,0.054-20.511-3.652-20.537-8.288l-0.026-6
							C455.872,292.63,465.066,296.342,476.383,296.287z"/>
						<path fill="#FFD633" d="M476.383,296.287c-11.317,0.056-20.511-3.656-20.534-8.287c-0.029-4.633,9.132-8.439,20.452-8.499
							c11.308-0.053,20.502,3.659,20.525,8.293C496.85,292.422,487.692,296.234,476.383,296.287z"/>
					</g>
					<g>
						<path fill="#FFDF33" d="M476.371,294.095c-8.361,0.039-15.146-2.698-15.164-6.125c-0.021-3.42,6.738-6.229,15.102-6.274
							c8.355-0.039,15.144,2.698,15.164,6.122C491.486,291.24,484.727,294.045,476.371,294.095z"/>
					</g>
				</g>
				<g>
					<g>
						<path fill="#FBBC36" d="M476.377,289.159c11.315-0.059,20.47-3.864,20.446-8.496l0.029,6.003
							c0.026,4.633-9.132,8.439-20.443,8.495c-11.32,0.057-20.511-3.652-20.534-8.287l-0.026-6.004
							C455.872,285.505,465.06,289.214,476.377,289.159z"/>
						<path fill="#FFD633" d="M476.377,289.159c-11.317,0.056-20.505-3.653-20.528-8.29c-0.029-4.632,9.129-8.441,20.446-8.496
							c11.314-0.057,20.505,3.661,20.528,8.29C496.847,285.294,487.692,289.1,476.377,289.159z"/>
					</g>
					<g>
						<path fill="#FFDF33" d="M476.369,286.964c-8.361,0.039-15.144-2.7-15.161-6.12c-0.021-3.422,6.735-6.227,15.097-6.273
							c8.355-0.048,15.149,2.694,15.167,6.119C491.486,284.114,484.727,286.92,476.369,286.964z"/>
					</g>
				</g>
				<g>
					<g>
						<path fill="#FBBC36" d="M476.38,282.17c11.312-0.054,20.47-3.86,20.446-8.495l0.035,6.006
							c0.018,4.636-9.138,8.435-20.452,8.492c-11.317,0.054-20.511-3.649-20.534-8.287l-0.026-6.003
							C455.872,278.521,465.06,282.227,476.38,282.17z"/>
						<path fill="#FFD633" d="M476.38,282.17c-11.32,0.057-20.508-3.649-20.531-8.287c-0.029-4.632,9.132-8.44,20.446-8.492
							c11.314-0.057,20.508,3.653,20.531,8.284C496.85,278.31,487.692,282.116,476.38,282.17z"/>
					</g>
					<g>
						<path fill="#FFDF33" d="M476.369,279.975c-8.358,0.044-15.144-2.694-15.161-6.117c-0.021-3.421,6.738-6.232,15.1-6.275
							c8.352-0.04,15.146,2.697,15.164,6.12C491.486,277.125,484.727,279.929,476.369,279.975z"/>
					</g>
				</g>
				<g>
					<g>
						<path fill="#FBBC36" d="M476.38,275.023c11.312-0.056,20.47-3.858,20.446-8.49l0.035,5.997
							c0.018,4.636-9.138,8.438-20.452,8.492c-11.317,0.058-20.508-3.649-20.534-8.285l-0.026-6.003
							C455.872,271.371,465.06,275.084,476.38,275.023z"/>
						<path fill="#FFD633" d="M476.38,275.023c-11.32,0.061-20.508-3.652-20.531-8.289c-0.021-4.629,9.132-8.435,20.446-8.489
							c11.314-0.06,20.511,3.652,20.531,8.288C496.85,271.164,487.692,274.967,476.38,275.023z"/>
					</g>
					<g>
						<path fill="#FFDF33" d="M476.369,272.827c-8.358,0.044-15.144-2.694-15.158-6.116c-0.023-3.426,6.735-6.23,15.097-6.278
							c8.358-0.038,15.146,2.7,15.167,6.121C491.486,269.981,484.727,272.786,476.369,272.827z"/>
					</g>
				</g>
				<g>
					<g>
						<path fill="#FBBC36" d="M476.38,267.778c11.312-0.06,20.47-3.861,20.446-8.49l0.035,6.001
							c0.018,4.626-9.138,8.432-20.452,8.49c-11.317,0.061-20.508-3.649-20.534-8.289l-0.026-5.999
							C455.872,264.123,465.066,267.833,476.38,267.778z"/>
						<path fill="#FFD633" d="M476.38,267.778c-11.314,0.056-20.508-3.655-20.531-8.287c-0.021-4.638,9.135-8.432,20.446-8.494
							c11.314-0.06,20.511,3.65,20.531,8.291C496.85,263.916,487.692,267.718,476.38,267.778z"/>
					</g>
					<g>
						<path fill="#FFDF33" d="M476.369,265.583c-8.358,0.045-15.144-2.7-15.161-6.12c-0.021-3.42,6.738-6.23,15.1-6.269
							c8.358-0.047,15.146,2.695,15.167,6.114C491.486,262.73,484.727,265.544,476.369,265.583z"/>
					</g>
				</g>
				<g>
					<g>
						<path fill="#FBBC36" d="M476.38,260.631c11.312-0.057,20.47-3.861,20.446-8.493l0.035,6.01
							c0.018,4.63-9.138,8.429-20.452,8.484c-11.317,0.06-20.508-3.648-20.534-8.284l-0.026-6.003
							C455.872,256.978,465.066,260.685,476.38,260.631z"/>
						<path fill="#FFD633" d="M476.38,260.631c-11.314,0.054-20.508-3.653-20.531-8.285c-0.021-4.633,9.132-8.441,20.446-8.498
							c11.314-0.057,20.508,3.658,20.531,8.29C496.85,256.77,487.692,260.574,476.38,260.631z"/>
					</g>
					<g>
						<path fill="#FFDF33" d="M476.369,258.439c-8.358,0.041-15.144-2.705-15.161-6.119c-0.021-3.423,6.738-6.23,15.1-6.275
							c8.358-0.041,15.146,2.698,15.167,6.122C491.486,255.586,484.727,258.398,476.369,258.439z"/>
					</g>
				</g>
				<g>
					<g>
						<path fill="#FBBC36" d="M476.38,253.386c11.312-0.054,20.47-3.857,20.446-8.492l0.035,6.003
							c0.018,4.632-9.141,8.432-20.452,8.49c-11.317,0.056-20.511-3.653-20.534-8.285l-0.026-6.003
							C455.872,249.74,465.06,253.446,476.38,253.386z"/>
						<path fill="#FFD633" d="M476.38,253.386c-11.32,0.06-20.508-3.646-20.531-8.287c-0.029-4.636,9.132-8.438,20.446-8.495
							c11.314-0.057,20.508,3.655,20.531,8.29C496.85,249.529,487.692,253.331,476.38,253.386z"/>
					</g>
					<g>
						<path fill="#FFDF33" d="M476.369,251.191c-8.358,0.038-15.144-2.695-15.161-6.122c-0.021-3.42,6.738-6.229,15.1-6.273
							c8.352-0.042,15.146,2.701,15.164,6.125C491.486,248.339,484.727,251.149,476.369,251.191z"/>
					</g>
				</g>
				<g>
					<g>
						<path fill="#FBBC36" d="M476.369,246.237c11.311-0.057,20.467-3.857,20.443-8.493l0.026,6.004
							c0.029,4.632-9.126,8.433-20.443,8.493c-11.318,0.06-20.508-3.656-20.531-8.291l-0.032-6.002
							C455.855,242.584,465.048,246.3,476.369,246.237z"/>
						<path fill="#FFD633" d="M476.369,246.237c-11.32,0.063-20.514-3.653-20.537-8.288c-0.024-4.633,9.138-8.436,20.449-8.492
							c11.315-0.057,20.505,3.658,20.531,8.287C496.835,242.38,487.68,246.18,476.369,246.237z"/>
					</g>
					<g>
						<path fill="#FFDF33" d="M476.351,244.046c-8.356,0.045-15.141-2.697-15.164-6.117c-0.015-3.425,6.741-6.236,15.105-6.277
							c8.353-0.044,15.138,2.698,15.161,6.123C491.474,241.191,484.709,244,476.351,244.046z"/>
					</g>
				</g>
				<g>
					<g>
						<path fill="#FBBC36" d="M476.351,238.991c11.312-0.051,20.467-3.852,20.446-8.493l0.029,6.007
							c0.023,4.636-9.135,8.439-20.446,8.49c-11.32,0.057-20.514-3.646-20.534-8.282l-0.032-6.007
							C455.837,235.342,465.031,239.052,476.351,238.991z"/>
						<path fill="#FFD633" d="M476.351,238.991c-11.32,0.062-20.514-3.649-20.537-8.285c-0.021-4.632,9.132-8.438,20.449-8.496
							c11.317-0.059,20.505,3.652,20.534,8.288C496.818,235.138,487.663,238.939,476.351,238.991z"/>
					</g>
					<g>
						<path fill="#FFDF33" d="M476.333,236.795c-8.35,0.047-15.146-2.692-15.158-6.114c-0.015-3.429,6.744-6.234,15.097-6.277
							c8.355-0.037,15.149,2.701,15.158,6.122C491.454,233.952,484.689,236.757,476.333,236.795z"/>
					</g>
				</g>
				<g opacity="0.7">
					<path opacity="0.2" fill="#FFFFFF" d="M463.51,237.277v63.278c1.614,0.527,3.434,0.949,5.394,1.254v-63.287
						C466.944,238.223,465.127,237.797,463.51,237.277z"/>
					<path opacity="0.3" fill="#FFFFFF" d="M455.814,230.777l0.032,6.004c0.003,0.183,0.038,0.363,0.073,0.54
						c-0.053,0.237-0.088,0.465-0.088,0.703l0.032,6.001c0,0.164,0.038,0.319,0.061,0.485c-0.041,0.22-0.079,0.441-0.076,0.664
						l0.026,6.001c0,0.157,0.044,0.318,0.064,0.479c-0.056,0.253-0.091,0.505-0.091,0.765l0.026,6c0,0.148,0.044,0.283,0.059,0.428
						c-0.05,0.233-0.085,0.478-0.085,0.715l0.026,6.003c0,0.161,0.044,0.314,0.064,0.475c-0.056,0.254-0.091,0.508-0.091,0.769
						l0.026,5.999c0,0.141,0.044,0.283,0.059,0.42c-0.053,0.249-0.088,0.485-0.085,0.725l0.026,6.005
						c0,0.119,0.035,0.233,0.047,0.353c-0.038,0.211-0.076,0.417-0.073,0.634l0.026,6.004c0,0.142,0.041,0.278,0.059,0.411
						c-0.053,0.233-0.088,0.472-0.085,0.706l0.026,6.004c0.015,2.635,2.994,4.966,7.635,6.483v-63.278
						C458.832,235.771,455.832,233.42,455.814,230.777z"/>
					<path opacity="0.1" fill="#FFFFFF" d="M468.904,238.522v63.287c1.442,0.231,2.962,0.382,4.535,0.473v-63.299
						C471.866,238.9,470.345,238.752,468.904,238.522z"/>
				</g>
			</g>
		</g>
		<g>
			<g>
				<g>
					<path fill="#FBBC36" d="M557.735,296.594c11.315-0.059,20.47-3.861,20.446-8.495l0.026,6.006
						c0.026,4.63-9.132,8.435-20.44,8.492c-11.317,0.057-20.514-3.65-20.537-8.294l-0.029-5.999
						C537.218,292.941,546.417,296.65,557.735,296.594z"/>
					<path fill="#FFD633" d="M557.735,296.594c-11.317,0.056-20.516-3.653-20.534-8.29c-0.023-4.635,9.132-8.432,20.449-8.492
						c11.314-0.057,20.505,3.661,20.531,8.287C578.205,292.733,569.049,296.535,557.735,296.594z"/>
				</g>
				<g>
					<path fill="#FFDF33" d="M557.726,294.4c-8.358,0.038-15.155-2.701-15.167-6.114c-0.02-3.429,6.747-6.233,15.1-6.278
						c8.356-0.05,15.144,2.692,15.164,6.12C572.84,291.555,566.079,294.356,557.726,294.4z"/>
				</g>
			</g>
			<g>
				<g>
					<path fill="#FBBC36" d="M557.732,289.462c11.314-0.051,20.473-3.855,20.446-8.489l0.029,6.001
						c0.026,4.635-9.132,8.433-20.449,8.496c-11.308,0.059-20.505-3.658-20.528-8.291l-0.029-6.006
						C537.218,285.813,546.414,289.525,557.732,289.462z"/>
					<path fill="#FFD633" d="M557.732,289.462c-11.318,0.063-20.514-3.649-20.531-8.288c-0.023-4.633,9.129-8.438,20.446-8.497
						c11.314-0.05,20.508,3.662,20.531,8.297C578.205,285.606,569.046,289.41,557.732,289.462z"/>
				</g>
				<g>
					<path fill="#FFDF33" d="M557.723,287.269c-8.361,0.044-15.152-2.697-15.164-6.114c-0.02-3.428,6.744-6.237,15.097-6.283
						c8.358-0.041,15.146,2.704,15.164,6.126C572.837,284.423,566.073,287.228,557.723,287.269z"/>
				</g>
			</g>
			<g>
				<g>
					<path fill="#FBBC36" d="M557.732,282.479c11.314-0.06,20.473-3.855,20.449-8.497l0.029,6.007
						c0.023,4.632-9.135,8.438-20.452,8.495c-11.308,0.056-20.505-3.652-20.528-8.293l-0.029-5.999
						C537.218,278.827,546.414,282.535,557.732,282.479z"/>
					<path fill="#FFD633" d="M557.732,282.479c-11.318,0.056-20.514-3.652-20.531-8.287c-0.023-4.635,9.129-8.438,20.446-8.493
						c11.314-0.057,20.508,3.652,20.534,8.282C578.205,278.623,569.046,282.419,557.732,282.479z"/>
				</g>
				<g>
					<path fill="#FFDF33" d="M557.723,280.285c-8.361,0.042-15.152-2.694-15.164-6.119c-0.02-3.425,6.744-6.234,15.1-6.272
						c8.356-0.042,15.144,2.694,15.161,6.12C572.837,277.434,566.073,280.241,557.723,280.285z"/>
				</g>
			</g>
			<g>
				<g>
					<path fill="#FBBC36" d="M557.732,275.332c11.314-0.057,20.473-3.866,20.449-8.499l0.029,6.004
						c0.023,4.639-9.135,8.438-20.452,8.493c-11.308,0.057-20.505-3.649-20.528-8.285l-0.029-6
						C537.218,271.677,546.414,275.389,557.732,275.332z"/>
					<path fill="#FFD633" d="M557.732,275.332c-11.318,0.057-20.514-3.655-20.531-8.287c-0.023-4.635,9.129-8.433,20.446-8.493
						c11.314-0.056,20.508,3.652,20.534,8.281C578.205,271.466,569.046,275.275,557.732,275.332z"/>
				</g>
				<g>
					<path fill="#FFDF33" d="M557.723,273.133c-8.355,0.047-15.149-2.695-15.164-6.113c-0.017-3.426,6.744-6.236,15.1-6.273
						c8.356-0.045,15.144,2.694,15.164,6.117C572.84,270.287,566.079,273.095,557.723,273.133z"/>
				</g>
			</g>
			<g>
				<g>
					<path fill="#FBBC36" d="M557.732,268.081c11.317-0.053,20.473-3.861,20.449-8.49l0.029,6c0.023,4.639-9.135,8.439-20.452,8.493
						c-11.306,0.06-20.505-3.646-20.528-8.282l-0.029-6.007C537.218,264.431,546.417,268.141,557.732,268.081z"/>
					<path fill="#FFD633" d="M557.732,268.081c-11.315,0.06-20.514-3.65-20.531-8.287c-0.023-4.629,9.132-8.432,20.446-8.487
						c11.317-0.059,20.508,3.646,20.534,8.284C578.205,264.22,569.049,268.028,557.732,268.081z"/>
				</g>
				<g>
					<path fill="#FFDF33" d="M557.723,265.896c-8.355,0.041-15.152-2.706-15.164-6.126c-0.017-3.416,6.744-6.23,15.1-6.273
						c8.356-0.038,15.144,2.7,15.164,6.122C572.837,263.04,566.079,265.856,557.723,265.896z"/>
				</g>
			</g>
			<g>
				<g>
					<path fill="#FBBC36" d="M557.732,260.94c11.314-0.06,20.473-3.858,20.449-8.495l0.029,6.007
						c0.023,4.629-9.135,8.427-20.452,8.487c-11.308,0.053-20.505-3.652-20.528-8.287l-0.029-6.001
						C537.218,257.289,546.417,261,557.732,260.94z"/>
					<path fill="#FFD633" d="M557.732,260.94c-11.315,0.06-20.514-3.65-20.531-8.288c-0.023-4.632,9.132-8.441,20.446-8.493
						c11.314-0.056,20.508,3.65,20.534,8.287C578.205,257.082,569.046,260.88,557.732,260.94z"/>
				</g>
				<g>
					<path fill="#FFDF33" d="M557.723,258.746c-8.355,0.045-15.152-2.7-15.164-6.12c-0.02-3.42,6.744-6.229,15.1-6.272
						c8.356-0.043,15.144,2.697,15.164,6.117C572.837,255.889,566.079,258.703,557.723,258.746z"/>
				</g>
			</g>
			<g>
				<g>
					<path fill="#FBBC36" d="M557.732,253.692c11.314-0.053,20.473-3.861,20.449-8.49l0.029,6.004
						c0.023,4.63-9.135,8.435-20.452,8.489c-11.308,0.056-20.505-3.652-20.528-8.281l-0.029-6.007
						C537.218,250.04,546.414,253.746,557.732,253.692z"/>
					<path fill="#FFD633" d="M557.732,253.692c-11.318,0.054-20.514-3.652-20.531-8.285c-0.023-4.641,9.129-8.435,20.446-8.493
						c11.314-0.06,20.508,3.652,20.534,8.288C578.205,249.831,569.046,253.639,557.732,253.692z"/>
				</g>
				<g>
					<path fill="#FFDF33" d="M557.723,251.499c-8.361,0.038-15.152-2.7-15.164-6.117c-0.02-3.422,6.744-6.227,15.1-6.273
						c8.356-0.045,15.144,2.697,15.161,6.12C572.837,248.647,566.073,251.458,557.723,251.499z"/>
				</g>
			</g>
			<g>
				<g>
					<path fill="#FBBC36" d="M557.714,246.548c11.323-0.057,20.47-3.866,20.449-8.493l0.029,6c0.023,4.635-9.126,8.439-20.446,8.496
						c-11.311,0.054-20.505-3.658-20.537-8.288l-0.023-6.001C537.207,242.897,546.403,246.6,557.714,246.548z"/>
					<path fill="#FFD633" d="M557.714,246.548c-11.312,0.053-20.508-3.65-20.528-8.287c-0.023-4.632,9.135-8.435,20.446-8.492
						c11.317-0.062,20.508,3.65,20.531,8.285C578.184,242.682,569.038,246.491,557.714,246.548z"/>
				</g>
				<g>
					<path fill="#FFDF33" d="M557.703,244.349c-8.355,0.044-15.144-2.697-15.161-6.119c-0.015-3.419,6.744-6.227,15.1-6.271
						c8.361-0.039,15.149,2.704,15.161,6.123C572.823,241.503,566.064,244.308,557.703,244.349z"/>
				</g>
			</g>
			<g>
				<g>
					<path fill="#FBBC36" d="M557.703,239.304c11.315-0.057,20.47-3.863,20.446-8.499l0.032,6.004
						c0.023,4.636-9.135,8.435-20.449,8.498c-11.318,0.053-20.514-3.655-20.534-8.288l-0.029-6.003
						C537.192,235.649,546.385,239.358,557.703,239.304z"/>
					<path fill="#FFD633" d="M557.703,239.304c-11.317,0.054-20.511-3.655-20.534-8.288c-0.029-4.63,9.135-8.439,20.449-8.493
						c11.315-0.057,20.505,3.65,20.531,8.282C578.172,235.441,569.017,239.247,557.703,239.304z"/>
				</g>
				<g>
					<path fill="#FFDF33" d="M557.691,237.104c-8.358,0.044-15.146-2.694-15.164-6.121c-0.018-3.421,6.741-6.224,15.1-6.271
						c8.356-0.037,15.144,2.707,15.164,6.123C572.811,234.252,566.043,237.063,557.691,237.104z"/>
				</g>
			</g>
			<g opacity="0.7">
				<path opacity="0.2" fill="#FFFFFF" d="M544.868,237.584v63.283c1.608,0.526,3.422,0.946,5.385,1.253v-63.292
					C548.298,238.528,546.476,238.107,544.868,237.584z"/>
				<path opacity="0.3" fill="#FFFFFF" d="M537.168,231.088l0.029,6.001c0.003,0.188,0.038,0.365,0.067,0.54
					c-0.047,0.236-0.082,0.466-0.079,0.7l0.023,6.003c0.006,0.167,0.044,0.327,0.064,0.483c-0.038,0.22-0.076,0.444-0.073,0.667
					l0.029,6.007c0,0.157,0.035,0.312,0.059,0.473c-0.053,0.252-0.088,0.507-0.088,0.757l0.029,6.006
					c0,0.148,0.035,0.287,0.05,0.425c-0.044,0.242-0.079,0.478-0.079,0.719l0.029,6.006c0,0.161,0.038,0.318,0.062,0.47
					c-0.056,0.262-0.091,0.508-0.091,0.767l0.029,6.004c0,0.139,0.035,0.28,0.05,0.419c-0.044,0.242-0.082,0.479-0.079,0.727
					l0.029,6.004c0,0.116,0.032,0.232,0.044,0.352c-0.038,0.205-0.076,0.416-0.073,0.634l0.029,6c0,0.142,0.035,0.28,0.05,0.419
					c-0.044,0.235-0.082,0.472-0.079,0.709l0.029,6c0.015,2.629,2.991,4.964,7.638,6.485v-63.283
					C540.186,236.071,537.183,233.735,537.168,231.088z"/>
				<path opacity="0.1" fill="#FFFFFF" d="M550.252,238.828v63.292c1.447,0.223,2.962,0.381,4.544,0.47v-63.295
					C553.214,239.212,551.7,239.055,550.252,238.828z"/>
			</g>
		</g>
		<g>
			<g>
				<g>
					<path fill="#FBBC36" d="M476.404,231.847c11.309-0.057,20.464-3.861,20.438-8.496l0.029,5.999
						c0.026,4.635-9.12,8.44-20.44,8.498c-11.317,0.057-20.508-3.655-20.534-8.294l-0.032-5.994
						C455.887,228.189,465.081,231.901,476.404,231.847z"/>
					<path fill="#FFD633" d="M476.404,231.847c-11.323,0.054-20.517-3.658-20.54-8.288c-0.021-4.635,9.132-8.439,20.452-8.496
						c11.314-0.059,20.502,3.659,20.525,8.288C496.868,227.985,487.712,231.79,476.404,231.847z"/>
				</g>
				<g>
					<path fill="#FFDF33" d="M476.389,229.651c-8.364,0.041-15.147-2.698-15.164-6.119c-0.018-3.431,6.741-6.233,15.102-6.277
						c8.358-0.045,15.144,2.7,15.158,6.12C491.506,226.8,484.742,229.61,476.389,229.651z"/>
				</g>
			</g>
			<g>
				<g>
					<path fill="#FBBC36" d="M476.398,224.714c11.314-0.053,20.467-3.855,20.44-8.492l0.032,6c0.026,4.632-9.129,8.438-20.443,8.498
						c-11.314,0.054-20.508-3.659-20.531-8.292l-0.032-5.997C455.887,221.067,465.078,224.774,476.398,224.714z"/>
					<path fill="#FFD633" d="M476.398,224.714c-11.32,0.06-20.511-3.648-20.534-8.284c-0.021-4.635,9.129-8.443,20.449-8.497
						c11.311-0.06,20.505,3.656,20.525,8.289C496.865,220.859,487.712,224.662,476.398,224.714z"/>
				</g>
				<g>
					<path fill="#FFDF33" d="M476.383,222.523c-8.358,0.042-15.141-2.706-15.155-6.125c-0.02-3.419,6.735-6.228,15.091-6.268
						c8.355-0.05,15.152,2.697,15.167,6.117C491.503,219.669,484.742,222.478,476.383,222.523z"/>
				</g>
			</g>
			<g>
				<g>
					<path fill="#FBBC36" d="M476.398,217.728c11.314-0.056,20.47-3.858,20.443-8.493l0.032,5.997
						c0.023,4.642-9.129,8.445-20.446,8.502c-11.314,0.054-20.508-3.653-20.531-8.292l-0.032-5.997
						C455.887,214.074,465.078,217.781,476.398,217.728z"/>
					<path fill="#FFD633" d="M476.398,217.728c-11.32,0.053-20.511-3.655-20.534-8.284c-0.021-4.639,9.129-8.438,20.449-8.495
						c11.311-0.06,20.505,3.65,20.528,8.285C496.868,213.87,487.712,217.673,476.398,217.728z"/>
				</g>
				<g>
					<path fill="#FFDF33" d="M476.383,215.536c-8.358,0.041-15.141-2.701-15.155-6.119c-0.02-3.428,6.738-6.23,15.094-6.274
						c8.353-0.044,15.149,2.694,15.164,6.117C491.503,212.685,484.742,215.492,476.383,215.536z"/>
				</g>
			</g>
			<g>
				<g>
					<path fill="#FBBC36" d="M476.398,210.58c11.314-0.057,20.47-3.86,20.443-8.493l0.032,6.001
						c0.023,4.638-9.129,8.436-20.446,8.496c-11.314,0.05-20.505-3.658-20.531-8.291l-0.029-5.998
						C455.887,206.922,465.078,210.633,476.398,210.58z"/>
					<path fill="#FFD633" d="M476.398,210.58c-11.32,0.053-20.511-3.658-20.531-8.285c-0.021-4.633,9.126-8.436,20.446-8.496
						c11.311-0.053,20.511,3.655,20.528,8.288C496.868,206.72,487.712,210.523,476.398,210.58z"/>
				</g>
				<g>
					<path fill="#FFDF33" d="M476.383,208.389c-8.358,0.042-15.141-2.7-15.155-6.125c-0.02-3.42,6.738-6.23,15.094-6.274
						c8.364-0.043,15.149,2.7,15.164,6.127C491.506,205.534,484.742,208.343,476.383,208.389z"/>
				</g>
			</g>
			<g>
				<g>
					<path fill="#FBBC36" d="M476.398,203.333c11.314-0.062,20.47-3.86,20.443-8.493l0.032,6.004
						c0.023,4.635-9.123,8.435-20.446,8.493c-11.314,0.053-20.505-3.649-20.531-8.284l-0.029-6.006
						C455.887,199.682,465.081,203.392,476.398,203.333z"/>
					<path fill="#FFD633" d="M476.398,203.333c-11.317,0.059-20.511-3.652-20.531-8.285c-0.021-4.636,9.129-8.439,20.446-8.492
						c11.317-0.059,20.511,3.652,20.528,8.284C496.868,199.474,487.712,203.272,476.398,203.333z"/>
				</g>
				<g>
					<path fill="#FFDF33" d="M476.389,201.142c-8.364,0.044-15.147-2.7-15.161-6.123c-0.02-3.422,6.738-6.23,15.094-6.272
						c8.364-0.041,15.149,2.704,15.164,6.123C491.503,198.289,484.742,201.097,476.389,201.142z"/>
				</g>
			</g>
			<g>
				<g>
					<path fill="#FBBC36" d="M476.398,196.186c11.314-0.056,20.47-3.857,20.443-8.489l0.032,6.005
						c0.023,4.626-9.129,8.433-20.446,8.493c-11.314,0.051-20.505-3.658-20.531-8.287l-0.029-6.006
						C455.887,192.535,465.081,196.247,476.398,196.186z"/>
					<path fill="#FFD633" d="M476.398,196.186c-11.317,0.06-20.511-3.652-20.531-8.284c-0.021-4.633,9.129-8.438,20.446-8.498
						c11.311-0.054,20.505,3.661,20.528,8.292C496.868,192.329,487.712,196.131,476.398,196.186z"/>
				</g>
				<g>
					<path fill="#FFDF33" d="M476.383,193.994c-8.358,0.045-15.141-2.697-15.155-6.116c-0.02-3.42,6.738-6.234,15.094-6.271
						c8.364-0.048,15.149,2.694,15.164,6.114C491.503,191.145,484.742,193.953,476.383,193.994z"/>
				</g>
			</g>
			<g>
				<g>
					<path fill="#FBBC36" d="M476.398,188.94c11.314-0.053,20.47-3.858,20.443-8.487l0.032,6.004
						c0.023,4.632-9.132,8.432-20.446,8.486c-11.314,0.057-20.508-3.65-20.531-8.279l-0.032-6.003
						C455.887,185.292,465.078,189.003,476.398,188.94z"/>
					<path fill="#FFD633" d="M476.398,188.94c-11.32,0.063-20.511-3.647-20.534-8.279c-0.021-4.636,9.129-8.448,20.449-8.502
						c11.311-0.057,20.505,3.659,20.528,8.294C496.868,185.081,487.712,188.887,476.398,188.94z"/>
				</g>
				<g>
					<path fill="#FFDF33" d="M476.383,186.746c-8.358,0.047-15.141-2.7-15.155-6.117c-0.02-3.422,6.738-6.233,15.094-6.277
						c8.353-0.037,15.149,2.707,15.164,6.13C491.503,183.898,484.742,186.706,476.383,186.746z"/>
				</g>
			</g>
			<g>
				<g>
					<path fill="#FBBC36" d="M476.383,181.796c11.32-0.06,20.467-3.861,20.444-8.493l0.032,6.003
						c0.024,4.632-9.132,8.433-20.449,8.493c-11.317,0.059-20.499-3.653-20.528-8.288l-0.032-6.001
						C455.872,178.143,465.069,181.854,476.383,181.796z"/>
					<path fill="#FFD633" d="M476.383,181.796c-11.314,0.059-20.511-3.653-20.534-8.287c-0.021-4.632,9.135-8.438,20.446-8.496
						c11.32-0.053,20.511,3.659,20.531,8.29C496.85,177.934,487.704,181.736,476.383,181.796z"/>
				</g>
				<g>
					<path fill="#FFDF33" d="M476.371,179.603c-8.358,0.038-15.143-2.698-15.164-6.119c-0.018-3.425,6.738-6.237,15.1-6.272
						c8.355-0.044,15.149,2.694,15.164,6.117C491.486,176.754,484.73,179.558,476.371,179.603z"/>
				</g>
			</g>
			<g>
				<g>
					<path fill="#FBBC36" d="M476.369,174.549c11.311-0.056,20.467-3.855,20.443-8.493l0.029,6.003
						c0.026,4.636-9.129,8.435-20.443,8.493c-11.32,0.06-20.511-3.648-20.534-8.284l-0.029-6.004
						C455.855,170.899,465.048,174.609,476.369,174.549z"/>
					<path fill="#FFD633" d="M476.369,174.549c-11.32,0.06-20.514-3.65-20.534-8.285c-0.026-4.633,9.129-8.436,20.446-8.492
						c11.317-0.06,20.511,3.652,20.531,8.284C496.835,170.694,487.68,174.494,476.369,174.549z"/>
				</g>
				<g>
					<path fill="#FFDF33" d="M476.351,172.353c-8.356,0.044-15.143-2.691-15.161-6.116c-0.018-3.426,6.744-6.231,15.106-6.277
						c8.35-0.038,15.135,2.704,15.161,6.126C491.474,169.501,484.707,172.315,476.351,172.353z"/>
				</g>
			</g>
			<g opacity="0.7">
				<path opacity="0.2" fill="#FFFFFF" d="M463.531,172.835v63.277c1.605,0.523,3.422,0.948,5.391,1.258v-63.289
					C466.958,173.774,465.148,173.358,463.531,172.835z"/>
				<path opacity="0.3" fill="#FFFFFF" d="M455.834,166.334l0.029,6.01c0,0.179,0.038,0.357,0.07,0.536
					c-0.047,0.234-0.085,0.463-0.085,0.706l0.032,6.003c0,0.157,0.041,0.318,0.062,0.48c-0.041,0.22-0.079,0.435-0.079,0.661
					l0.032,6.007c0,0.16,0.038,0.319,0.056,0.476c-0.05,0.252-0.088,0.501-0.085,0.76l0.029,6.007c0,0.139,0.038,0.277,0.053,0.422
					c-0.047,0.239-0.085,0.475-0.082,0.715l0.029,6.007c0,0.157,0.038,0.311,0.062,0.473c-0.056,0.252-0.094,0.507-0.091,0.765
					l0.029,6c0,0.146,0.038,0.287,0.053,0.423c-0.047,0.24-0.085,0.482-0.085,0.727l0.032,6c0,0.123,0.035,0.239,0.044,0.353
					c-0.038,0.208-0.076,0.419-0.076,0.636l0.032,6.004c0,0.136,0.038,0.277,0.047,0.419c-0.041,0.23-0.079,0.464-0.079,0.706
					l0.032,6c0.015,2.632,2.986,4.966,7.635,6.48v-63.277C458.852,171.322,455.849,168.981,455.834,166.334z"/>
				<path opacity="0.1" fill="#FFFFFF" d="M468.921,174.082v63.289c1.438,0.218,2.962,0.384,4.541,0.467v-63.292
					C471.883,174.458,470.36,174.309,468.921,174.082z"/>
			</g>
		</g>
		<g>
			<g>
				<g>
					<path fill="#FBBC36" d="M517.375,231.264c11.312-0.056,20.467-3.859,20.44-8.493l0.032,6c0.023,4.632-9.126,8.443-20.44,8.499
						c-11.317,0.048-20.514-3.659-20.537-8.292l-0.032-6.002C496.868,227.613,506.058,231.318,517.375,231.264z"/>
					<path fill="#FFD633" d="M517.375,231.264c-11.318,0.054-20.508-3.65-20.537-8.288c-0.021-4.629,9.135-8.435,20.455-8.498
						c11.309-0.057,20.505,3.659,20.522,8.293C537.842,227.405,528.687,231.208,517.375,231.264z"/>
				</g>
				<g>
					<path fill="#FFDF33" d="M517.364,229.068c-8.358,0.041-15.146-2.694-15.164-6.12c-0.015-3.425,6.744-6.228,15.108-6.27
						c8.35-0.047,15.138,2.691,15.152,6.12C532.478,226.216,525.713,229.025,517.364,229.068z"/>
				</g>
			</g>
			<g>
				<g>
					<path fill="#FBBC36" d="M517.37,224.134c11.314-0.06,20.473-3.858,20.446-8.495l0.026,6.004
						c0.029,4.63-9.126,8.439-20.438,8.501c-11.32,0.05-20.514-3.662-20.534-8.295l-0.032-6.003
						C496.865,220.484,506.055,224.193,517.37,224.134z"/>
					<path fill="#FFD633" d="M517.37,224.134c-11.315,0.059-20.505-3.65-20.531-8.288c-0.021-4.633,9.129-8.436,20.446-8.493
						c11.314-0.06,20.508,3.655,20.531,8.287C537.842,220.276,528.684,224.074,517.37,224.134z"/>
				</g>
				<g>
					<path fill="#FFDF33" d="M517.364,221.941c-8.361,0.044-15.146-2.701-15.164-6.12c-0.015-3.425,6.741-6.233,15.097-6.274
						c8.353-0.047,15.147,2.697,15.164,6.117C532.478,219.089,525.713,221.9,517.364,221.941z"/>
				</g>
			</g>
			<g>
				<g>
					<path fill="#FBBC36" d="M517.37,217.148c11.317-0.06,20.473-3.858,20.446-8.495l0.035,6.001
						c0.023,4.635-9.132,8.441-20.446,8.498c-11.32,0.056-20.514-3.652-20.534-8.291l-0.032-6.003
						C496.865,213.497,506.058,217.201,517.37,217.148z"/>
					<path fill="#FFD633" d="M517.37,217.148c-11.312,0.053-20.505-3.652-20.531-8.289c-0.021-4.633,9.135-8.433,20.446-8.487
						c11.314-0.063,20.514,3.65,20.531,8.282C537.842,213.29,528.687,217.088,517.37,217.148z"/>
				</g>
				<g>
					<path fill="#FFDF33" d="M517.364,214.957c-8.358,0.037-15.146-2.698-15.164-6.126c-0.015-3.423,6.741-6.223,15.097-6.271
						c8.353-0.044,15.147,2.697,15.164,6.123C532.478,212.106,525.713,214.904,517.364,214.957z"/>
				</g>
			</g>
			<g>
				<g>
					<path fill="#FBBC36" d="M517.37,210.001c11.317-0.059,20.473-3.863,20.446-8.496l0.035,6c0.023,4.636-9.132,8.432-20.446,8.498
						c-11.32,0.05-20.511-3.655-20.534-8.29l-0.032-6.004C496.868,206.35,506.058,210.06,517.37,210.001z"/>
					<path fill="#FFD633" d="M517.37,210.001c-11.312,0.059-20.502-3.652-20.531-8.292c-0.018-4.632,9.135-8.435,20.446-8.492
						c11.314-0.057,20.517,3.652,20.531,8.288C537.842,206.139,528.687,209.943,517.37,210.001z"/>
				</g>
				<g>
					<path fill="#FFDF33" d="M517.364,207.803c-8.358,0.045-15.146-2.695-15.161-6.114c-0.018-3.426,6.738-6.231,15.094-6.273
						c8.361-0.045,15.149,2.694,15.167,6.122C532.478,204.956,525.713,207.763,517.364,207.803z"/>
				</g>
			</g>
			<g>
				<g>
					<path fill="#FBBC36" d="M517.37,202.752c11.317-0.06,20.473-3.86,20.446-8.493l0.035,6.007
						c0.023,4.629-9.129,8.432-20.446,8.489c-11.314,0.059-20.511-3.652-20.534-8.281l-0.032-6.007
						C496.868,199.1,506.058,202.81,517.37,202.752z"/>
					<path fill="#FFD633" d="M517.37,202.752c-11.312,0.058-20.502-3.652-20.531-8.285c-0.018-4.632,9.135-8.435,20.446-8.496
						c11.317-0.059,20.517,3.655,20.531,8.288C537.842,198.892,528.687,202.692,517.37,202.752z"/>
				</g>
				<g>
					<path fill="#FFDF33" d="M517.364,200.562c-8.358,0.04-15.146-2.703-15.164-6.12c-0.015-3.422,6.741-6.231,15.097-6.272
						c8.361-0.045,15.147,2.7,15.164,6.117C532.478,197.707,525.716,200.518,517.364,200.562z"/>
				</g>
			</g>
			<g>
				<g>
					<path fill="#FBBC36" d="M517.37,195.605c11.317-0.053,20.473-3.857,20.446-8.49l0.035,6.003
						c0.023,4.632-9.132,8.436-20.446,8.493c-11.314,0.054-20.511-3.653-20.534-8.282l-0.032-6.003
						C496.868,191.954,506.058,195.662,517.37,195.605z"/>
					<path fill="#FFD633" d="M517.37,195.605c-11.312,0.057-20.502-3.65-20.531-8.279c-0.018-4.636,9.135-8.445,20.446-8.505
						c11.314-0.053,20.514,3.661,20.531,8.294C537.842,191.748,528.687,195.552,517.37,195.605z"/>
				</g>
				<g>
					<path fill="#FFDF33" d="M517.364,193.414c-8.358,0.042-15.146-2.701-15.164-6.12c-0.015-3.422,6.741-6.23,15.097-6.271
						c8.361-0.042,15.147,2.695,15.164,6.122C532.478,190.563,525.713,193.374,517.364,193.414z"/>
				</g>
			</g>
			<g>
				<g>
					<path fill="#FBBC36" d="M517.37,188.367c11.314-0.06,20.473-3.863,20.446-8.495l0.035,6.003
						c0.023,4.63-9.135,8.435-20.446,8.492c-11.32,0.051-20.514-3.655-20.534-8.288l-0.032-6.004
						C496.865,184.709,506.058,188.418,517.37,188.367z"/>
					<path fill="#FFD633" d="M517.37,188.367c-11.312,0.051-20.505-3.658-20.531-8.292c-0.021-4.635,9.135-8.441,20.446-8.493
						c11.314-0.056,20.514,3.655,20.531,8.291C537.842,184.504,528.684,188.307,517.37,188.367z"/>
				</g>
				<g>
					<path fill="#FFDF33" d="M517.364,186.167c-8.358,0.041-15.146-2.7-15.164-6.12c-0.015-3.422,6.741-6.227,15.097-6.272
						c8.353-0.044,15.147,2.701,15.164,6.12C532.478,183.312,525.713,186.127,517.364,186.167z"/>
				</g>
			</g>
			<g>
				<g>
					<path fill="#FBBC36" d="M517.364,181.214c11.306-0.056,20.467-3.859,20.44-8.49l0.029,6c0.024,4.636-9.126,8.438-20.446,8.49
						c-11.317,0.066-20.508-3.649-20.528-8.282l-0.035-6.004C496.85,177.561,506.043,181.276,517.364,181.214z"/>
					<path fill="#FFD633" d="M517.364,181.214c-11.32,0.061-20.514-3.654-20.54-8.287c-0.021-4.631,9.138-8.433,20.449-8.492
						c11.312-0.056,20.505,3.655,20.531,8.288C537.831,177.356,528.669,181.159,517.364,181.214z"/>
				</g>
				<g>
					<path fill="#FFDF33" d="M517.346,179.018c-8.358,0.044-15.143-2.694-15.161-6.116c-0.021-3.423,6.738-6.23,15.094-6.273
						c8.358-0.041,15.149,2.698,15.167,6.119C532.46,176.174,525.699,178.978,517.346,179.018z"/>
				</g>
			</g>
			<g>
				<g>
					<path fill="#FBBC36" d="M517.34,173.969c11.315-0.061,20.473-3.858,20.443-8.49l0.032,5.999
						c0.026,4.638-9.129,8.44-20.446,8.496c-11.315,0.056-20.508-3.649-20.534-8.288l-0.026-6.003
						C496.835,170.322,506.023,174.028,517.34,173.969z"/>
					<path fill="#FFD633" d="M517.34,173.969c-11.317,0.059-20.505-3.647-20.531-8.287c-0.023-4.63,9.129-8.436,20.446-8.495
						c11.32-0.059,20.511,3.655,20.528,8.291C537.813,170.111,528.655,173.908,517.34,173.969z"/>
				</g>
				<g>
					<path fill="#FFDF33" d="M517.332,171.769c-8.356,0.048-15.147-2.691-15.167-6.111c-0.015-3.426,6.75-6.236,15.106-6.278
						c8.35-0.038,15.143,2.701,15.158,6.126C532.446,168.926,525.684,171.735,517.332,171.769z"/>
				</g>
			</g>
			<g opacity="0.7">
				<path opacity="0.2" fill="#FFFFFF" d="M504.502,172.26v63.271c1.614,0.527,3.431,0.949,5.393,1.258v-63.29
					C507.933,173.202,506.125,172.781,504.502,172.26z"/>
				<path opacity="0.3" fill="#FFFFFF" d="M496.809,165.76l0.026,6.001c0.003,0.179,0.044,0.363,0.073,0.541
					c-0.047,0.23-0.085,0.464-0.085,0.7l0.035,6.001c0,0.163,0.035,0.318,0.062,0.478c-0.041,0.226-0.085,0.448-0.082,0.667
					l0.032,6.003c0,0.167,0.038,0.322,0.062,0.485c-0.053,0.249-0.094,0.498-0.094,0.76l0.032,6c0,0.145,0.038,0.286,0.056,0.428
					c-0.047,0.24-0.088,0.475-0.088,0.716l0.032,6.004c0,0.16,0.038,0.319,0.068,0.476c-0.059,0.249-0.1,0.505-0.1,0.765
					l0.032,5.999c0,0.145,0.038,0.281,0.056,0.428c-0.047,0.234-0.091,0.478-0.088,0.721l0.032,6.003
					c0,0.116,0.035,0.237,0.047,0.355c-0.038,0.208-0.082,0.419-0.079,0.628l0.032,6.004c0,0.145,0.035,0.277,0.053,0.419
					c-0.044,0.236-0.088,0.466-0.085,0.706l0.032,5.996c0.012,2.641,2.988,4.97,7.632,6.488V172.26
					C499.83,170.741,496.824,168.397,496.809,165.76z"/>
				<path opacity="0.1" fill="#FFFFFF" d="M509.896,173.499v63.29c1.441,0.227,2.959,0.381,4.541,0.469V173.96
					C512.855,173.877,511.337,173.725,509.896,173.499z"/>
			</g>
		</g>
	</g>
	<g opacity="0.5">
		<g>
			<path fill="#FFFFFF" d="M524.248,185.139c-4.031-1.866-4.942-1.711-8.118,1.395c1.866-4.031,1.705-4.943-1.397-8.121
				c4.034,1.868,4.939,1.712,8.121-1.392C520.988,181.05,521.146,181.958,524.248,185.139z"/>
			<path fill="none" stroke="#FFFFFF" stroke-width="0" stroke-linecap="round" stroke-linejoin="round" d="M524.248,185.139
				c-4.031-1.866-4.942-1.711-8.118,1.395c1.866-4.031,1.705-4.943-1.397-8.121c4.034,1.868,4.939,1.712,8.121-1.392
				C520.988,181.05,521.146,181.958,524.248,185.139z"/>
		</g>
		<g>
			<path fill="#FFFFFF" d="M518.266,153.741c-1.934-3.038-2.619-3.332-6.149-2.605c3.041-1.932,3.331-2.623,2.607-6.151
				c1.931,3.037,2.619,3.328,6.149,2.605C517.835,149.524,517.545,150.212,518.266,153.741z"/>
			<path fill="none" stroke="#FFFFFF" stroke-width="0" stroke-linecap="round" stroke-linejoin="round" d="M518.266,153.741
				c-1.934-3.038-2.619-3.332-6.149-2.605c3.041-1.932,3.331-2.623,2.607-6.151c1.931,3.037,2.619,3.328,6.149,2.605
				C517.835,149.524,517.545,150.212,518.266,153.741z"/>
		</g>
		<g>
			<path fill="#FFFFFF" d="M548.805,177.082c-2.833-2.227-3.58-2.271-6.668-0.419c2.232-2.829,2.276-3.577,0.422-6.665
				c2.833,2.227,3.574,2.272,6.665,0.418C546.997,173.248,546.951,173.994,548.805,177.082z"/>
			<path fill="none" stroke="#FFFFFF" stroke-width="0" stroke-linecap="round" stroke-linejoin="round" d="M548.805,177.082
				c-2.833-2.227-3.58-2.271-6.668-0.419c2.232-2.829,2.276-3.577,0.422-6.665c2.833,2.227,3.574,2.272,6.665,0.418
				C546.997,173.248,546.951,173.994,548.805,177.082z"/>
		</g>
		<g>
			<path fill="#FFFFFF" d="M491.79,168.787c-2.153-2.881-2.862-3.123-6.325-2.134c2.883-2.156,3.123-2.865,2.133-6.328
				c2.159,2.883,2.865,3.125,6.328,2.134C491.043,164.613,490.803,165.325,491.79,168.787z"/>
			<path fill="none" stroke="#FFFFFF" stroke-width="0" stroke-linecap="round" stroke-linejoin="round" d="M491.79,168.787
				c-2.153-2.881-2.862-3.123-6.325-2.134c2.883-2.156,3.123-2.865,2.133-6.328c2.159,2.883,2.865,3.125,6.328,2.134
				C491.043,164.613,490.803,165.325,491.79,168.787z"/>
		</g>
	</g>
	<g opacity="0.5">
		<g>
			<path fill="#FFFFFF" d="M561.699,251.033c-4.031-1.868-4.942-1.71-8.118,1.393c1.866-4.03,1.705-4.941-1.395-8.121
				c4.031,1.869,4.94,1.711,8.118-1.389C558.438,246.945,558.596,247.853,561.699,251.033z"/>
			<path fill="none" stroke="#FFFFFF" stroke-width="0" stroke-linecap="round" stroke-linejoin="round" d="M561.699,251.033
				c-4.031-1.868-4.942-1.71-8.118,1.393c1.866-4.03,1.705-4.941-1.395-8.121c4.031,1.869,4.94,1.711,8.118-1.389
				C558.438,246.945,558.596,247.853,561.699,251.033z"/>
		</g>
		<g>
			<path fill="#FFFFFF" d="M555.716,219.634c-1.931-3.038-2.619-3.33-6.146-2.605c3.038-1.932,3.331-2.623,2.607-6.151
				c1.931,3.037,2.616,3.328,6.149,2.605C555.286,215.417,554.995,216.107,555.716,219.634z"/>
			<path fill="none" stroke="#FFFFFF" stroke-width="0" stroke-linecap="round" stroke-linejoin="round" d="M555.716,219.634
				c-1.931-3.038-2.619-3.33-6.146-2.605c3.038-1.932,3.331-2.623,2.607-6.151c1.931,3.037,2.616,3.328,6.149,2.605
				C555.286,215.417,554.995,216.107,555.716,219.634z"/>
		</g>
		<g>
			<path fill="#FFFFFF" d="M586.255,242.978c-2.833-2.226-3.58-2.275-6.665-0.419c2.23-2.831,2.273-3.58,0.419-6.668
				c2.833,2.225,3.577,2.272,6.668,0.42C584.448,239.145,584.401,239.887,586.255,242.978z"/>
			<path fill="none" stroke="#FFFFFF" stroke-width="0" stroke-linecap="round" stroke-linejoin="round" d="M586.255,242.978
				c-2.833-2.226-3.58-2.275-6.665-0.419c2.23-2.831,2.273-3.58,0.419-6.668c2.833,2.225,3.577,2.272,6.668,0.42
				C584.448,239.145,584.401,239.887,586.255,242.978z"/>
		</g>
		<g>
			<path fill="#FFFFFF" d="M529.244,234.683c-2.156-2.884-2.865-3.124-6.328-2.136c2.883-2.156,3.126-2.865,2.133-6.33
				c2.159,2.886,2.868,3.126,6.331,2.134C528.494,230.509,528.256,231.217,529.244,234.683z"/>
			<path fill="none" stroke="#FFFFFF" stroke-width="0" stroke-linecap="round" stroke-linejoin="round" d="M529.244,234.683
				c-2.156-2.884-2.865-3.124-6.328-2.136c2.883-2.156,3.126-2.865,2.133-6.33c2.159,2.886,2.868,3.126,6.331,2.134
				C528.494,230.509,528.256,231.217,529.244,234.683z"/>
		</g>
	</g>
</g>
<g>
	<g>
		<rect x="182.745" y="234.478" fill="#F3BB8F" width="29.673" height="76.603"/>
		<rect x="182.745" y="254.936" fill="#F1B08A" width="7.289" height="56.145"/>
		<rect x="51.444" y="234.478" fill="#F3BB8F" width="29.673" height="76.603"/>
		<rect x="73.827" y="254.901" fill="#F1B08A" width="7.29" height="56.18"/>
		<path fill="#F3BB8F" d="M211.408,229.84l-6.072-15.088v-32.477c0,0-8.9-5.294-8.9,19.797c0,25.088,0,23.254,0,23.254
			L211.408,229.84z"/>
		<path fill="#F3BB8F" d="M213.004,238.062c0,13.323-12.554,31.362-22.97,24.122c-10.427-7.248-22.969-10.8-22.969-24.122
			c0-13.323,10.285-24.122,22.969-24.122C202.718,213.94,213.004,224.738,213.004,238.062z"/>
		<path fill="#F3BB8F" d="M52.455,229.84l6.072-15.088v-32.477c0,0,8.9-5.294,8.9,19.797c0,25.088,0,23.254,0,23.254L52.455,229.84z
			"/>
		<path fill="#F3BB8F" d="M50.858,238.062c0,13.323,12.554,31.362,22.969,24.122c10.428-7.248,22.97-10.8,22.97-24.122
			c0-13.323-10.283-24.122-22.97-24.122C61.144,213.94,50.858,224.738,50.858,238.062z"/>
		<g>
			<g>
				<g>
					<g>
						<path fill="#363B46" d="M72.874,165.247c-3.183,0-5.763,2.581-5.763,5.766v78.158c0,3.182,2.58,5.765,5.763,5.765h14.769
							v-89.689H72.874z"/>
						<rect x="87.643" y="165.247" fill="#01BACC" width="93.885" height="89.689"/>
						<path fill="#363B46" d="M191.014,254.936c3.18,0,5.763-2.584,5.763-5.765v-78.158c0-3.185-2.582-5.766-5.763-5.766h-9.486
							v89.689H191.014z"/>
					</g>
					<circle fill="#333842" cx="78.303" cy="210.094" r="4.011"/>
				</g>
				<path fill="#333842" d="M189.152,222.869c-0.924,0-1.676-0.747-1.676-1.673v-22.203c0-0.924,0.751-1.677,1.676-1.677l0,0
					c0.924,0,1.674,0.753,1.674,1.677v22.203C190.827,222.122,190.077,222.869,189.152,222.869L189.152,222.869z"/>
				<g>
					<path fill="#2B3039" d="M189.683,198.994v22.206c0,0.721-0.462,1.327-1.102,1.564c0.179,0.063,0.366,0.105,0.571,0.105
						c0.924,0,1.674-0.747,1.674-1.67v-22.206c0-0.924-0.75-1.674-1.674-1.674c-0.205,0-0.393,0.042-0.571,0.109
						C189.221,197.663,189.683,198.275,189.683,198.994z"/>
				</g>
				<g opacity="0.1">
					<path fill="#FFFFFF" d="M181.671,254.901v-89.656l-94.028,0.008v0.143C133.419,173.385,170.165,208.835,181.671,254.901z"/>
				</g>
			</g>
		</g>
		<path fill="#F3BB8F" d="M56.635,245.952l9.536-8.116l20.754-21.461c0,0,11.084,3.951-4.945,20.529
			c-16.033,16.578-6.86,21.699-6.86,21.699L56.635,245.952z"/>
		<path fill="#F3BB8F" d="M207.227,245.952l-9.538-8.116l-20.752-21.461c0,0-11.085,3.951,4.947,20.529
			c16.031,16.578,6.858,21.699,6.858,21.699L207.227,245.952z"/>
	</g>
	<g opacity="0.3">
		<path fill="#FFFFFF" d="M138.239,210.25l-10.166-5.727c-0.127-0.072-0.284-0.07-0.41,0.003c-0.126,0.073-0.204,0.21-0.204,0.356
			v11.456c0,0.147,0.078,0.283,0.204,0.357c0.126,0.073,0.283,0.074,0.41,0.003l10.166-5.729c0.127-0.072,0.209-0.21,0.209-0.359
			C138.448,210.461,138.366,210.324,138.239,210.25z"/>
		<g>
			<path fill="#FFFFFF" d="M145.422,210.609h-0.41c0,3.727-1.51,7.098-3.952,9.541c-2.445,2.443-5.814,3.952-9.54,3.952
				c-3.727,0-7.097-1.51-9.541-3.952c-2.442-2.443-3.952-5.813-3.952-9.541c0-3.727,1.51-7.097,3.952-9.54
				c2.443-2.441,5.814-3.951,9.541-3.951c3.726,0,7.096,1.51,9.54,3.951c2.442,2.443,3.952,5.813,3.952,9.54H145.422h0.413
				c0-7.906-6.409-14.316-14.316-14.316c-7.906,0-14.316,6.41-14.316,14.316c0,7.907,6.41,14.317,14.316,14.317
				c7.907-0.001,14.316-6.41,14.316-14.317H145.422z"/>
		</g>
	</g>
</g>
<g>
	<g>
		<rect x="536.167" y="108.771" fill="#C7CAC7" width="76.028" height="40.586"/>
		<rect x="540.362" y="139.162" fill="#DEDFDC" width="68.974" height="7.19"/>
		<polygon fill="#FFFFFF" points="570.655,131.293 570.655,123.347 577.707,127.32 577.707,127.32 		"/>
	</g>
	<g opacity="0.1">
		<path fill="#FFFFFF" d="M536.167,108.882v-0.111h76.028v40.586h-4.471C593.925,130.183,567.986,115.345,536.167,108.882z"/>
	</g>
</g>
<g>
	<g>
		<rect x="530.245" y="16.227" fill="#C7CAC7" width="61.257" height="32.701"/>
		<rect x="533.623" y="40.715" fill="#DEDFDC" width="55.576" height="5.793"/>
		<polygon fill="#FFFFFF" points="558.034,34.374 558.034,27.971 563.714,31.173 563.714,31.173 		"/>
	</g>
	<g opacity="0.1">
		<path fill="#FFFFFF" d="M530.254,16.317v-0.09h61.248v32.746h-3.601C576.784,33.503,555.886,21.532,530.254,16.317z"/>
	</g>
</g>
<g>
	<g>
		<rect x="192.993" fill="#C7CAC7" width="60.795" height="32.453"/>
		<rect x="196.346" y="24.302" fill="#DEDFDC" width="55.156" height="5.749"/>
		<polygon fill="#FFFFFF" points="220.572,18.009 220.572,11.656 226.208,14.832 226.208,14.832 		"/>
	</g>
	<g opacity="0.1">
		<path fill="#FFFFFF" d="M193.103,0.089V0h60.686v32.216h-3.568C239.205,16.997,218.5,5.219,193.103,0.089z"/>
	</g>
</g>
<g>
	<g>
		<rect y="71.185" fill="#C7CAC7" width="83.114" height="44.368"/>
		<rect x="4.583" y="104.41" fill="#DEDFDC" width="75.404" height="7.86"/>
		<polygon fill="#FFFFFF" points="37.704,95.807 37.704,87.12 45.41,91.463 45.41,91.463 		"/>
	</g>
	<g opacity="0.1">
		<path fill="#FFFFFF" d="M0.25,71.34v-0.122h82.863v44.355h-4.872C63.201,94.619,34.93,78.404,0.25,71.34z"/>
	</g>
</g>
</svg>
