<svg version="1.1" xmlns="http://www.w3.org/2000/svg" xmlns:xlink="http://www.w3.org/1999/xlink" width="147" height="46" viewBox="0 0 147 46">
<g id="logo_dark">
<path id="Ellipse-4" d="M27.000,-0.000 C39.703,-0.000 50.000,10.297 50.000,23.000 C50.000,35.703 39.703,46.000 27.000,46.000 C14.297,46.000 4.000,35.703 4.000,23.000 C4.000,10.297 14.297,-0.000 27.000,-0.000 z" fill="#EBF3FE" />
<path id="Shape-11" d="M0.957,15.224 C0.957,15.224 27.710,15.224 27.710,15.224 C27.586,14.765 26.935,14.470 26.560,14.331 C26.502,13.907 26.375,13.079 25.775,12.993 C25.296,12.924 24.966,13.384 24.758,13.777 C24.647,13.595 24.518,13.430 24.415,13.311 C24.579,12.913 24.889,12.130 24.408,11.774 C23.923,11.413 23.212,11.905 22.853,12.166 C22.853,12.166 22.813,12.151 22.813,12.151 C22.813,12.151 22.756,12.082 22.756,12.082 C22.920,11.685 23.230,10.903 22.750,10.546 C22.264,10.185 21.553,10.677 21.194,10.938 C21.194,10.938 21.070,10.890 21.070,10.890 C20.889,10.691 20.670,10.522 20.506,10.408 C20.561,9.984 20.655,9.152 20.097,8.923 C19.533,8.692 18.974,9.340 18.695,9.680 C18.477,9.651 18.158,9.615 17.860,9.647 C17.952,9.220 17.996,8.665 17.583,8.429 C17.056,8.128 16.413,8.700 16.089,9.001 C16.044,8.989 15.992,8.976 15.939,8.963 C15.939,8.963 15.886,8.866 15.886,8.866 C16.127,8.506 16.587,7.795 16.188,7.356 C15.784,6.913 14.987,7.265 14.582,7.454 C14.207,7.214 13.460,6.764 12.998,7.153 C12.707,7.398 12.742,7.793 12.859,8.150 C12.784,8.183 12.712,8.214 12.652,8.243 C12.277,8.003 11.530,7.553 11.068,7.941 C10.853,8.123 10.819,8.386 10.862,8.656 C10.639,8.641 10.419,8.654 10.256,8.666 C9.999,8.310 9.477,7.627 8.899,7.825 C8.315,8.024 8.361,8.876 8.402,9.313 C8.227,9.427 7.982,9.597 7.787,9.802 C7.509,9.490 7.132,9.193 6.726,9.332 C6.142,9.531 6.188,10.384 6.228,10.821 C6.035,10.946 5.754,11.140 5.552,11.375 C5.281,11.089 4.929,10.843 4.552,10.972 C3.968,11.171 4.014,12.024 4.055,12.460 C3.858,12.588 3.572,12.787 3.369,13.027 C3.099,12.746 2.751,12.506 2.379,12.634 C1.795,12.833 1.841,13.686 1.881,14.123 C1.552,14.335 0.964,14.749 0.957,15.224 z" fill="#FFEF98" />
<path id="Shape-12" d="M10.584,9.199 C10.287,9.199 10.046,9.430 10.046,9.715 C10.046,10.000 10.287,10.231 10.584,10.231 C10.881,10.231 11.122,10.000 11.122,9.715 C11.122,9.429 10.882,9.199 10.584,9.199 zM8.226,10.231 C7.929,10.231 7.688,10.462 7.688,10.747 C7.688,11.032 7.929,11.264 8.226,11.264 C8.523,11.264 8.764,11.032 8.764,10.747 C8.764,10.462 8.523,10.231 8.226,10.231 zM6.807,12.274 C6.510,12.274 6.268,12.506 6.268,12.791 C6.268,13.075 6.510,13.307 6.807,13.307 C7.103,13.307 7.345,13.075 7.345,12.791 C7.345,12.506 7.103,12.274 6.807,12.274 zM12.141,10.959 C11.844,10.959 11.603,11.190 11.603,11.475 C11.603,11.761 11.844,11.991 12.141,11.991 C12.438,11.991 12.679,11.760 12.679,11.475 C12.679,11.190 12.438,10.959 12.141,10.959 zM15.158,11.758 C14.861,11.758 14.620,11.989 14.620,12.274 C14.620,12.560 14.861,12.791 15.158,12.791 C15.455,12.791 15.696,12.559 15.696,12.274 C15.696,11.989 15.455,11.758 15.158,11.758 zM13.816,8.902 C13.519,8.902 13.278,9.133 13.278,9.418 C13.278,9.703 13.519,9.934 13.816,9.934 C14.113,9.934 14.354,9.703 14.354,9.418 C14.354,9.133 14.114,8.902 13.816,8.902 zM18.212,10.747 C17.915,10.747 17.674,10.979 17.674,11.264 C17.674,11.548 17.915,11.780 18.212,11.780 C18.509,11.780 18.750,11.548 18.750,11.264 C18.750,10.978 18.510,10.747 18.212,10.747 zM16.234,10.023 C15.937,10.023 15.696,10.254 15.696,10.539 C15.696,10.824 15.937,11.055 16.234,11.055 C16.531,11.055 16.772,10.824 16.772,10.539 C16.772,10.253 16.531,10.023 16.234,10.023 zM9.846,12.274 C9.549,12.274 9.308,12.506 9.308,12.791 C9.308,13.075 9.549,13.307 9.846,13.307 C10.143,13.307 10.384,13.075 10.384,12.791 C10.384,12.506 10.143,12.274 9.846,12.274 zM18.212,12.374 C17.915,12.374 17.674,12.605 17.674,12.890 C17.674,13.175 17.915,13.406 18.212,13.406 C18.509,13.406 18.750,13.175 18.750,12.890 C18.750,12.605 18.510,12.374 18.212,12.374 zM21.667,11.264 C21.369,11.264 21.129,11.495 21.129,11.780 C21.129,12.065 21.370,12.296 21.667,12.296 C21.964,12.296 22.205,12.065 22.205,11.780 C22.205,11.495 21.964,11.264 21.667,11.264 zM20.888,12.890 C20.591,12.890 20.350,13.122 20.350,13.406 C20.350,13.691 20.591,13.923 20.888,13.923 C21.184,13.923 21.426,13.691 21.426,13.406 C21.426,13.122 21.185,12.890 20.888,12.890 zM13.278,12.374 C12.981,12.374 12.740,12.605 12.740,12.890 C12.740,13.175 12.981,13.406 13.278,13.406 C13.575,13.406 13.816,13.175 13.816,12.890 C13.816,12.605 13.576,12.374 13.278,12.374 z" fill="#F2C448" />
<path id="Shape-10" d="M27.949,15.293 C28.096,14.492 27.641,13.829 26.929,13.829 C26.229,13.829 25.564,14.472 25.428,15.255 C25.428,15.255 25.421,15.255 25.421,15.255 C25.521,14.471 25.051,13.829 24.350,13.829 C23.649,13.829 23.006,14.472 22.896,15.255 C22.896,15.255 22.889,15.255 22.889,15.255 C22.963,14.471 22.471,13.829 21.770,13.829 C21.070,13.829 20.449,14.472 20.365,15.255 C20.365,15.255 20.358,15.255 20.358,15.255 C20.405,14.471 19.892,13.829 19.191,13.829 C18.490,13.829 17.891,14.472 17.833,15.255 C17.833,15.255 17.826,15.255 17.826,15.255 C17.848,14.471 17.312,13.829 16.611,13.829 C15.911,13.829 15.333,14.472 15.302,15.255 C15.302,15.255 15.297,15.255 15.297,15.255 C15.291,14.471 14.735,13.829 14.035,13.829 C13.334,13.829 12.778,14.472 12.773,15.255 C12.773,15.255 12.766,15.255 12.766,15.255 C12.734,14.471 12.156,13.829 11.456,13.829 C10.755,13.829 10.220,14.472 10.242,15.255 C10.242,15.255 10.235,15.255 10.235,15.255 C10.177,14.471 9.577,13.829 8.877,13.829 C8.176,13.829 7.663,14.472 7.711,15.255 C7.711,15.255 7.704,15.255 7.704,15.255 C7.620,14.471 6.998,13.829 6.298,13.829 C5.597,13.829 5.106,14.472 5.180,15.255 C5.180,15.255 5.173,15.255 5.173,15.255 C5.062,14.471 4.419,13.829 3.719,13.829 C3.018,13.829 2.548,14.472 2.649,15.255 C2.649,15.255 2.642,15.255 2.642,15.255 C2.505,14.471 1.840,13.829 1.140,13.829 C0.439,13.829 -0.009,14.472 0.117,15.255 C0.117,15.255 0.114,15.255 0.114,15.255 L4.325,38.000 L23.749,38.000 L27.918,15.403 C27.918,15.403 27.949,15.293 27.949,15.293 z" fill="#FFFFFF" />
<path id="Shape-9" d="M23.764,38.000 L21.992,38.000 L25.445,15.240 L25.444,15.255 C25.444,15.255 25.450,15.255 25.450,15.255 C25.587,14.471 26.253,13.829 26.955,13.829 C27.657,13.829 28.106,14.472 27.979,15.255 C27.979,15.255 27.982,15.255 27.982,15.255 L23.764,38.000 zM18.448,38.000 L20.366,15.240 L20.367,15.255 C20.367,15.255 20.373,15.255 20.373,15.255 C20.457,14.471 21.080,13.829 21.782,13.829 C22.484,13.829 22.976,14.472 22.902,15.255 C22.902,15.255 22.905,15.255 22.905,15.255 L20.221,38.000 L18.448,38.000 zM14.906,38.000 L15.290,15.240 L15.291,15.255 C15.291,15.255 15.297,15.255 15.297,15.255 C15.329,14.471 15.907,13.829 16.609,13.829 C17.311,13.829 17.847,14.472 17.826,15.255 C17.826,15.255 17.829,15.255 17.829,15.255 L16.679,38.000 L14.906,38.000 zM10.167,15.255 C10.167,15.255 10.170,15.255 10.170,15.255 C10.149,14.472 10.684,13.829 11.386,13.829 C12.088,13.829 12.666,14.471 12.698,15.255 C12.698,15.255 12.704,15.255 12.704,15.255 L12.705,15.240 L13.089,38.000 L11.317,38.000 L10.167,15.255 zM5.092,15.255 C5.092,15.255 5.096,15.255 5.096,15.255 C5.022,14.472 5.514,13.829 6.216,13.829 C6.917,13.829 7.540,14.471 7.624,15.255 C7.624,15.255 7.630,15.255 7.630,15.255 L7.631,15.240 L9.548,38.000 L7.776,38.000 L5.092,15.255 zM6.006,38.000 L4.234,38.000 L0.018,15.255 C0.018,15.255 0.021,15.255 0.021,15.255 C-0.106,14.472 0.343,13.829 1.045,13.829 C1.746,13.829 2.412,14.471 2.549,15.255 C2.549,15.255 2.555,15.255 2.555,15.255 L2.554,15.240 L6.006,38.000 z" fill="#F24667" />
<path id="Veedeem" d="M145.854,34.402 C145.477,34.653 145.037,34.779 144.534,34.779 C144.051,34.779 143.621,34.654 143.244,34.403 C142.867,34.152 142.678,33.882 142.678,33.593 C142.678,33.593 142.678,26.738 142.678,26.738 C142.678,25.929 142.446,25.288 141.982,24.815 C141.518,24.343 140.967,24.107 140.329,24.107 C139.710,24.107 139.174,24.343 138.720,24.815 C138.265,25.288 138.038,25.920 138.038,26.710 C138.038,26.710 138.038,33.622 138.038,33.622 C138.038,34.008 137.854,34.297 137.487,34.490 C137.120,34.683 136.675,34.779 136.153,34.779 C135.670,34.779 135.240,34.678 134.863,34.475 C134.486,34.273 134.297,33.988 134.297,33.622 C134.297,33.622 134.297,26.738 134.297,26.738 C134.297,25.967 134.060,25.341 133.587,24.859 C133.113,24.377 132.557,24.136 131.919,24.136 C131.300,24.136 130.769,24.367 130.324,24.830 C129.879,25.293 129.657,25.929 129.657,26.738 C129.657,26.738 129.657,33.593 129.657,33.593 C129.657,33.882 129.469,34.152 129.092,34.403 C128.715,34.654 128.275,34.779 127.772,34.779 C127.250,34.779 126.810,34.658 126.453,34.416 C126.095,34.175 125.916,33.899 125.916,33.590 C125.916,33.590 125.916,22.164 125.916,22.164 C125.916,21.816 126.085,21.536 126.424,21.323 C126.762,21.110 127.211,21.004 127.772,21.004 C128.236,21.004 128.628,21.111 128.947,21.326 C129.266,21.541 129.425,21.824 129.425,22.175 C129.425,22.175 129.425,23.053 129.425,23.053 C130.256,21.571 131.532,20.830 133.253,20.830 C134.065,20.830 134.795,21.098 135.443,21.634 C136.090,22.171 136.569,22.878 136.878,23.755 C137.361,22.800 137.995,22.073 138.778,21.576 C139.561,21.078 140.387,20.830 141.257,20.830 C142.649,20.830 143.857,21.362 144.882,22.425 C145.907,23.488 146.419,24.919 146.419,26.717 C146.419,26.717 146.419,33.590 146.419,33.590 C146.419,33.880 146.231,34.151 145.854,34.402 zM121.639,28.518 C121.339,28.671 121.063,28.767 120.812,28.805 C120.561,28.844 120.232,28.863 119.826,28.863 C119.826,28.863 113.939,28.863 113.939,28.863 C113.939,28.863 113.939,29.298 113.939,29.298 C113.939,30.129 114.248,30.801 114.867,31.313 C115.486,31.826 116.307,32.082 117.332,32.082 C118.067,32.082 118.792,31.898 119.507,31.531 C120.222,31.164 120.686,30.980 120.899,30.980 C121.305,30.980 121.643,31.168 121.914,31.545 C122.185,31.922 122.320,32.285 122.320,32.633 C122.320,33.174 121.832,33.711 120.856,34.242 C119.879,34.774 118.666,35.040 117.216,35.040 C115.147,35.040 113.461,34.494 112.156,33.401 C110.851,32.309 110.198,30.874 110.198,29.095 C110.198,29.095 110.198,26.630 110.198,26.630 C110.198,25.045 110.817,23.682 112.054,22.541 C113.291,21.400 114.790,20.830 116.549,20.830 C118.192,20.830 119.599,21.349 120.769,22.388 C121.938,23.427 122.523,24.733 122.523,26.307 C122.523,26.881 122.451,27.355 122.306,27.728 C122.161,28.101 121.938,28.365 121.639,28.518 zM118.275,24.383 C117.782,23.987 117.177,23.788 116.462,23.788 C115.785,23.788 115.196,23.982 114.693,24.370 C114.190,24.758 113.939,25.268 113.939,25.900 C113.939,25.900 113.939,26.659 113.939,26.659 C113.939,26.659 118.173,26.659 118.173,26.659 C118.482,26.659 118.700,26.609 118.826,26.510 C118.951,26.410 119.014,26.216 119.014,25.927 C119.014,25.296 118.768,24.781 118.275,24.383 zM106.443,28.518 C106.143,28.671 105.868,28.767 105.616,28.805 C105.365,28.844 105.036,28.863 104.630,28.863 C104.630,28.863 98.744,28.863 98.744,28.863 C98.744,28.863 98.744,29.298 98.744,29.298 C98.744,30.129 99.052,30.801 99.672,31.313 C100.290,31.826 101.112,32.082 102.136,32.082 C102.871,32.082 103.596,31.898 104.312,31.531 C105.027,31.164 105.490,30.980 105.703,30.980 C106.109,30.980 106.448,31.168 106.718,31.545 C106.989,31.922 107.124,32.285 107.124,32.633 C107.124,33.174 106.636,33.711 105.660,34.242 C104.683,34.774 103.470,35.040 102.021,35.040 C99.952,35.040 98.265,34.494 96.960,33.401 C95.655,32.309 95.002,30.874 95.002,29.095 C95.002,29.095 95.002,26.630 95.002,26.630 C95.002,25.045 95.621,23.682 96.858,22.541 C98.096,21.400 99.594,20.830 101.353,20.830 C102.996,20.830 104.403,21.349 105.573,22.388 C106.742,23.427 107.327,24.733 107.327,26.307 C107.327,26.881 107.255,27.355 107.110,27.728 C106.965,28.101 106.742,28.365 106.443,28.518 zM103.079,24.383 C102.586,23.987 101.981,23.788 101.266,23.788 C100.590,23.788 100.000,23.982 99.497,24.370 C98.994,24.758 98.744,25.268 98.744,25.900 C98.744,25.900 98.744,26.659 98.744,26.659 C98.744,26.659 102.977,26.659 102.977,26.659 C103.286,26.659 103.504,26.609 103.630,26.510 C103.755,26.410 103.819,26.216 103.819,25.927 C103.819,25.296 103.572,24.781 103.079,24.383 zM89.580,34.779 C89.135,34.779 88.743,34.652 88.405,34.398 C88.067,34.144 87.898,33.871 87.898,33.578 C87.898,33.578 87.898,32.729 87.898,32.729 C87.588,33.353 87.061,33.894 86.317,34.352 C85.573,34.810 84.756,35.040 83.867,35.040 C82.533,35.040 81.353,34.441 80.329,33.242 C79.304,32.043 78.792,30.661 78.792,29.095 C78.792,29.095 78.792,26.717 78.792,26.717 C78.792,25.112 79.299,23.730 80.314,22.570 C81.329,21.410 82.542,20.830 83.954,20.830 C84.804,20.830 85.553,21.044 86.201,21.474 C86.849,21.903 87.347,22.429 87.695,23.053 C87.695,23.053 87.695,14.159 87.695,14.159 C87.695,13.811 87.873,13.531 88.231,13.319 C88.589,13.106 89.038,13.000 89.580,13.000 C90.121,13.000 90.566,13.106 90.914,13.318 C91.262,13.531 91.436,13.811 91.436,14.158 C91.436,14.158 91.436,33.591 91.436,33.591 C91.436,33.900 91.257,34.176 90.899,34.417 C90.541,34.658 90.102,34.779 89.580,34.779 zM87.695,26.726 C87.695,25.959 87.429,25.335 86.897,24.855 C86.365,24.376 85.761,24.136 85.085,24.136 C84.389,24.136 83.789,24.400 83.287,24.927 C82.784,25.455 82.533,26.054 82.533,26.726 C82.533,26.726 82.533,29.086 82.533,29.086 C82.533,29.758 82.784,30.367 83.287,30.913 C83.789,31.460 84.379,31.734 85.056,31.734 C85.732,31.734 86.341,31.470 86.883,30.943 C87.424,30.415 87.695,29.969 87.695,29.604 C87.695,29.604 87.695,26.726 87.695,26.726 zM75.008,28.518 C74.707,28.671 74.432,28.767 74.181,28.805 C73.930,28.844 73.601,28.863 73.195,28.863 C73.195,28.863 67.308,28.863 67.308,28.863 C67.308,28.863 67.308,29.298 67.308,29.298 C67.308,30.129 67.617,30.801 68.236,31.313 C68.855,31.826 69.676,32.082 70.701,32.082 C71.436,32.082 72.160,31.898 72.876,31.531 C73.591,31.164 74.055,30.980 74.268,30.980 C74.674,30.980 75.012,31.168 75.283,31.545 C75.554,31.922 75.689,32.285 75.689,32.633 C75.689,33.174 75.200,33.711 74.225,34.242 C73.248,34.774 72.035,35.040 70.585,35.040 C68.516,35.040 66.829,34.494 65.525,33.401 C64.220,32.309 63.567,30.874 63.567,29.095 C63.567,29.095 63.567,26.630 63.567,26.630 C63.567,25.045 64.186,23.682 65.423,22.541 C66.660,21.400 68.158,20.830 69.918,20.830 C71.561,20.830 72.968,21.349 74.137,22.388 C75.307,23.427 75.892,24.733 75.892,26.307 C75.892,26.881 75.820,27.355 75.675,27.728 C75.530,28.101 75.307,28.365 75.008,28.518 zM71.644,24.383 C71.151,23.987 70.546,23.788 69.831,23.788 C69.154,23.788 68.565,23.982 68.062,24.370 C67.559,24.758 67.308,25.268 67.308,25.900 C67.308,25.900 67.308,26.659 67.308,26.659 C67.308,26.659 71.542,26.659 71.542,26.659 C71.851,26.659 72.068,26.609 72.194,26.510 C72.320,26.410 72.383,26.216 72.383,25.927 C72.383,25.296 72.136,24.781 71.644,24.383 zM59.812,28.518 C59.512,28.671 59.236,28.767 58.985,28.805 C58.734,28.844 58.405,28.863 57.999,28.863 C57.999,28.863 52.112,28.863 52.112,28.863 C52.112,28.863 52.112,29.298 52.112,29.298 C52.112,30.129 52.421,30.801 53.040,31.313 C53.659,31.826 54.480,32.082 55.505,32.082 C56.240,32.082 56.965,31.898 57.680,31.531 C58.395,31.164 58.859,30.980 59.072,30.980 C59.478,30.980 59.816,31.168 60.087,31.545 C60.358,31.922 60.493,32.285 60.493,32.633 C60.493,33.174 60.005,33.711 59.029,34.242 C58.052,34.774 56.839,35.040 55.389,35.040 C53.320,35.040 51.634,34.494 50.329,33.401 C49.024,32.309 48.371,30.874 48.371,29.095 C48.371,29.095 48.371,26.630 48.371,26.630 C48.371,25.045 48.990,23.682 50.227,22.541 C51.464,21.400 52.963,20.830 54.722,20.830 C56.365,20.830 57.772,21.349 58.942,22.388 C60.111,23.427 60.696,24.733 60.696,26.307 C60.696,26.881 60.624,27.355 60.479,27.728 C60.334,28.101 60.111,28.365 59.812,28.518 zM56.448,24.383 C55.955,23.987 55.350,23.788 54.635,23.788 C53.958,23.788 53.369,23.982 52.866,24.370 C52.363,24.758 52.112,25.268 52.112,25.900 C52.112,25.900 52.112,26.659 52.112,26.659 C52.112,26.659 56.346,26.659 56.346,26.659 C56.655,26.659 56.873,26.609 56.999,26.510 C57.124,26.410 57.187,26.216 57.187,25.927 C57.187,25.296 56.941,24.781 56.448,24.383 zM41.788,33.677 C41.672,34.083 41.382,34.397 40.918,34.619 C40.454,34.841 39.932,34.953 39.352,34.953 C38.018,34.953 37.206,34.528 36.916,33.677 C36.916,33.677 31.319,15.436 31.319,15.436 C31.280,15.281 31.261,15.185 31.261,15.146 C31.261,14.701 31.517,14.329 32.029,14.029 C32.541,13.730 33.078,13.580 33.639,13.580 C34.354,13.580 34.780,13.831 34.915,14.334 C34.915,14.334 39.352,30.052 39.352,30.052 C39.352,30.052 43.760,14.334 43.760,14.334 C43.895,13.831 44.320,13.580 45.036,13.580 C45.577,13.580 46.109,13.735 46.631,14.044 C47.153,14.353 47.414,14.721 47.414,15.146 C47.414,15.185 47.394,15.281 47.356,15.436 C47.356,15.436 41.788,33.677 41.788,33.677 z" fill="#4E6198" />
</g>
</svg>
