<?xml version="1.0" encoding="utf-8"?>
<!-- Generator: Adobe Illustrator 19.0.1, SVG Export Plug-In . SVG Version: 6.00 Build 0)  -->
<svg version="1.1" id="Objects" xmlns="http://www.w3.org/2000/svg" xmlns:xlink="http://www.w3.org/1999/xlink" x="0px" y="0px"
	 width="279.367px" height="213.066px" viewBox="0 0 279.367 213.066" enable-background="new 0 0 279.367 213.066"
	 xml:space="preserve">
<g>
	<g>
		<path fill="#A4DB2F" d="M85.041,46.829c0,0,20.054,30.436,18.546,52.724c0,0,3.053,4.228,7.528,1.16
			c4.474-3.068-0.927-48.797-3.733-56.55C104.575,36.41,82.088,41.995,85.041,46.829z"/>
		<circle fill="#A4DB2F" cx="88.831" cy="28.362" r="27.827"/>
		<g>
			<ellipse fill="#6F960F" cx="89.022" cy="28.362" rx="20.792" ry="22.003"/>
			<circle fill="#FFFFFF" cx="89.022" cy="27.152" r="20.792"/>
			<path fill="#D3F5FF" d="M102.907,11.678c2.124,3.26,3.362,7.15,3.362,11.331c0,11.483-9.309,20.792-20.792,20.792
				c-5.337,0-10.203-2.013-13.885-5.319c3.709,5.694,10.128,9.461,17.43,9.461c11.483,0,20.792-9.309,20.792-20.792
				C109.815,21.006,107.146,15.485,102.907,11.678z"/>
			<circle fill="#3D3D3D" cx="89.022" cy="31.4" r="4.248"/>
		</g>
		<path fill="#7EB111" d="M92.059,59.077l2.833-3.553l-4.414,0.561l0,0C90.988,57.028,91.518,58.028,92.059,59.077z"/>
		<path fill="#7EB111" d="M104.503,51.358h4.535c-0.224-1.252-0.447-2.401-0.663-3.414L104.503,51.358z"/>
		<path fill="#7EB111" d="M112.305,78.174l-5.849,2.125h5.998C112.453,80.298,112.318,78.361,112.305,78.174z"/>
	</g>
	<g>
		<path fill="#A4DB2F" d="M182.916,46.294c0,0-20.055,30.436-18.546,52.724c0,0-3.053,4.228-7.528,1.16
			c-4.474-3.068,0.927-48.797,3.733-56.55C163.382,35.875,185.869,41.46,182.916,46.294z"/>
		<circle fill="#A4DB2F" cx="179.125" cy="27.827" r="27.827"/>
		<g>
			<ellipse fill="#6F960F" cx="178.934" cy="27.827" rx="20.792" ry="22.003"/>
			<circle fill="#FFFFFF" cx="178.934" cy="26.617" r="20.792"/>
			<path fill="#D3F5FF" d="M165.049,11.143c-2.124,3.26-3.362,7.15-3.362,11.331c0,11.483,9.309,20.792,20.792,20.792
				c5.337,0,10.203-2.013,13.885-5.319c-3.709,5.694-10.128,9.461-17.43,9.461c-11.483,0-20.792-9.309-20.792-20.792
				C158.142,20.471,160.81,14.949,165.049,11.143z"/>
			<circle fill="#3D3D3D" cx="178.934" cy="30.865" r="4.248"/>
		</g>
		<path fill="#7EB111" d="M175.898,58.542l-2.833-3.553l4.414,0.561l0,0C176.968,56.492,176.438,57.493,175.898,58.542z"/>
		<path fill="#7EB111" d="M163.454,50.823h-4.535c0.224-1.253,0.447-2.401,0.663-3.414L163.454,50.823z"/>
		<path fill="#7EB111" d="M155.652,77.638l5.85,2.125h-5.998C155.504,79.763,155.638,77.826,155.652,77.638z"/>
	</g>
	<path fill="#A4DB2F" d="M176.588,213.066H100.75c-15.843,0-28.806-12.963-28.806-28.806l5.705-75.156
		c0-15.843,12.963-28.806,28.806-28.806l64.493-0.682c15.843,0,28.806,12.963,28.806,28.806l5.64,75.838
		C205.394,200.103,192.431,213.066,176.588,213.066z"/>
	<path fill="#7EB111" d="M199.754,108.422c0-7.189-2.675-13.779-7.07-18.84c0.814,2.657,1.257,5.472,1.257,8.387l5.64,75.838
		c0,15.843-12.963,28.806-28.806,28.806H94.936c-8.655,0-16.443-3.874-21.735-9.966c3.614,11.786,14.621,20.419,27.549,20.419
		h75.838c15.843,0,28.806-12.963,28.806-28.806L199.754,108.422z"/>
	<g>
		<ellipse fill="#7EB111" cx="137.742" cy="85.037" rx="10.592" ry="10.929"/>
		<path fill="#F9432B" d="M148.237,83.409c0.064-1.451,0.098-2.932,0.098-4.437c0-18.03-4.742-37.929-10.592-37.929
			c-5.85,0-10.592,19.899-10.592,37.929c0,1.505,0.034,2.986,0.098,4.437C128.326,97.332,147.791,97.379,148.237,83.409z"/>
		<path fill="#C11414" d="M146.224,57.504c-3.178,1.351-6.718,2.265-10.488,2.622c-2.384,0.225-4.719,0.214-6.967-0.009
			c-0.183,1.052-0.353,2.127-0.508,3.221c1.682,0.08,3.403,0.047,5.153-0.118c4.867-0.46,9.341-1.859,13.157-3.918
			C146.459,58.695,146.345,58.094,146.224,57.504z"/>
		<path fill="#C11414" d="M127.288,83.74c0.172,1.715,0.626,3.213,1.292,4.493c5.695,1.526,12.464,1.168,19.081-1.34
			c0.331-1.045,0.535-2.204,0.576-3.484c0-0.003,0-0.005,0-0.008C140.827,86.069,133.275,86.059,127.288,83.74z"/>
		<path fill="#C11414" d="M143.253,47.259c-3.48,1.353-7.37,2.18-11.497,2.323c-0.135,0.005-0.268,0.002-0.402,0.005
			c-0.29,0.848-0.567,1.747-0.833,2.687c1.288,0.094,2.601,0.124,3.935,0.077c3.544-0.123,6.912-0.751,9.998-1.781
			C144.075,49.376,143.674,48.267,143.253,47.259z"/>
		<path fill="#C11414" d="M131.274,75.539c6.046,1.223,11.935,0.849,16.974-0.777c-0.052-1.321-0.126-2.641-0.223-3.956
			c-5.4,2.148-11.968,2.781-18.735,1.413c-0.643-0.13-1.273-0.281-1.898-0.442c-0.059,0.899-0.107,1.799-0.144,2.7
			C128.547,74.898,129.888,75.259,131.274,75.539z"/>
		<path opacity="0.32" fill="#3D3D3D" d="M144.454,79.175c-2.138,10.231-9.533,10.425-15.284,10.054
			c5.153,7.715,18.695,5.809,19.066-5.821c0.064-1.451,0.098-2.932,0.098-4.437c0-11.28-1.856-23.291-4.679-30.704
			C144.707,57.541,145.947,72.034,144.454,79.175z"/>
	</g>
	<g>
		<ellipse fill="#6F960F" cx="138.713" cy="128.84" rx="24.017" ry="25.416"/>
		<circle fill="#FFFFFF" cx="138.713" cy="127.441" r="24.017"/>
		<path fill="#D3F5FF" d="M154.752,109.568c2.453,3.766,3.884,8.259,3.884,13.089c0,13.264-10.753,24.017-24.017,24.017
			c-6.165,0-11.786-2.325-16.039-6.144c4.285,6.577,11.699,10.929,20.134,10.929c13.264,0,24.017-10.753,24.017-24.017
			C162.731,120.342,159.649,113.965,154.752,109.568z"/>
		<circle fill="#3D3D3D" cx="138.714" cy="132.348" r="4.907"/>
	</g>
	<g>
		<path fill="#6F960F" d="M175.688,153.517c0,0-7.137,7.098-11.674,7.609c-4.538,0.511-50.947,1.366-50.947,1.366l50.741,6.968
			l5.363-4.077L175.688,153.517z"/>
		<path fill="#9B1E27" d="M99.855,155.583c0,0,4.883,4.972,8.327,6.328c3.445,1.356,52.722,1.808,57.65,0
			c4.928-1.808,9.855-8.394,9.855-8.394s-4.296,25.344-7.118,30.767c-2.822,5.424-57.015,9.04-57.747,2.158
			C110.672,185.011,99.308,161.685,99.855,155.583z"/>
		<g>
			<polygon fill="#FFFFFF" points="111.66,162.35 115.598,172.446 117.134,167.999 159.393,167.999 160.449,171.364 163.042,162.35 
							"/>
			<polygon fill="#D3F5FF" points="111.66,162.35 163.042,162.35 162.75,163.365 112.244,163.847 			"/>
			<polygon fill="#D3F5FF" points="115.598,172.446 117.007,165.916 119.183,167.999 117.134,167.999 			"/>
			<polygon fill="#D3F5FF" points="152.222,167.999 159.713,167.398 160.449,171.364 159.393,167.999 			"/>
		</g>
		<circle fill="#3D3D3D" cx="138.319" cy="176.739" r="6.521"/>
		<path fill="#B72B30" d="M139.297,176.301c-13.183,0-24.523,2.972-29.609,7.239c0.675,1.575,1.107,2.632,1.136,2.903
			c0.731,6.881,54.925,3.265,57.747-2.158c0.112-0.215,0.226-0.465,0.342-0.74C163.829,179.275,152.486,176.301,139.297,176.301z"/>
		<path fill="#7EB111" d="M174.075,155.465c-1.504,8.287-4.221,22.148-6.22,26.081c-2.57,5.057-46.47,8.624-57.186,4.378
			c0.092,0.252,0.146,0.428,0.155,0.518c0.731,6.881,54.925,3.265,57.747-2.158c2.822-5.424,7.118-30.767,7.118-30.767
			S175.078,154.332,174.075,155.465z"/>
	</g>
	<g>
		<path fill="#A4DB2F" d="M186.324,124.52c0,0,28.03-0.514,37.373-23.226c9.343-22.712,9.343-27.187,9.343-27.187l27.483,12.164
			c0,0-14.247,39.112-33.323,46.077c-19.076,6.965-42.726,7.354-42.726,7.354L186.324,124.52z"/>
		<g>
			<circle fill="#A4DB2F" cx="249.585" cy="80.298" r="29.781"/>
			<g>
				<circle fill="#6F960F" cx="249.074" cy="88.632" r="12.345"/>
				<circle fill="#6F960F" cx="234.322" cy="72.001" r="5.062"/>
				<circle fill="#6F960F" cx="253.089" cy="65.504" r="5.062"/>
				<circle fill="#6F960F" cx="269.732" cy="77.638" r="5.062"/>
				<circle fill="#6F960F" cx="267.205" cy="95.228" r="3.703"/>
			</g>
		</g>
	</g>
	<g>
		<path fill="#A4DB2F" d="M93.042,124.52c0,0-28.029-0.514-37.373-23.226c-9.343-22.712-9.343-27.187-9.343-27.187L18.844,86.272
			c0,0,14.247,39.112,33.323,46.077c19.076,6.965,42.725,7.354,42.725,7.354L93.042,124.52z"/>
		<g>
			<circle fill="#A4DB2F" cx="29.781" cy="80.298" r="29.781"/>
			<g>
				<circle fill="#6F960F" cx="30.292" cy="88.632" r="12.345"/>
				<circle fill="#6F960F" cx="45.045" cy="72.001" r="5.062"/>
				<circle fill="#6F960F" cx="26.278" cy="65.504" r="5.062"/>
				<circle fill="#6F960F" cx="9.635" cy="77.638" r="5.062"/>
				<circle fill="#6F960F" cx="12.162" cy="95.228" r="3.703"/>
			</g>
		</g>
	</g>
	<path fill="#D2FC6B" d="M77.649,109.104l-0.542,7.144c1.753-0.691,4.128-2.134,5.693-5.122c2.744-5.239,0.847-14.645,7.677-21.983
		c6.829-7.337,9.357-8.063,9.358-8.063C87.157,84.091,77.649,95.538,77.649,109.104z"/>
</g>
</svg>
