<?xml version="1.0" encoding="utf-8"?>
<!-- Generator: Adobe Illustrator 19.0.1, SVG Export Plug-In . SVG Version: 6.00 Build 0)  -->
<svg version="1.1" id="objects" xmlns="http://www.w3.org/2000/svg" xmlns:xlink="http://www.w3.org/1999/xlink" x="0px" y="0px"
	 width="149.32px" height="163.536px" viewBox="0 0 149.32 163.536" enable-background="new 0 0 149.32 163.536"
	 xml:space="preserve">
<g>
	<path fill="#FFA900" d="M3.736,1.399c0,0,50.001-1.841,46.22,47.509L36.669,63.54C36.669,63.54-13.907,48.978,3.736,1.399z"/>
	<path fill="#FFC552" d="M41.378,49.073c0,0-0.039-34.844-33.746-39.026c0,0-6.5,30.135,29.03,45.048L41.378,49.073z"/>
	<path fill="#FFA900" d="M145.543,0.007c0,0-50.007-1.731-46.118,47.608l13.318,14.606C112.744,62.221,163.288,47.549,145.543,0.007
		z"/>
	<path fill="#FFA900" d="M85.586,32.536l0.005,0c-8.276-5.329-0.012-12.023-0.012-12.023c-8.93,0.34-11.731,9.851-11.731,9.851
		c-2.489-6.033-12.742-6.352-12.742-6.352c7.116,3.133,5.038,9.358,5.038,9.358l0.005-0.001
		c-25.047,7.996-52.157,42.735-52.116,83.679c0.05,46.85,33.025,46.505,63.456,46.469c30.427-0.033,64.816,2.632,64.766-44.22
		c-0.031-30.486-20.224-60.124-35.919-75.061C100.127,38.33,93.105,34.264,85.586,32.536z"/>
	<path fill="#E8E8E8" d="M69.098,73.78c0.004,5.138-1.68,9.883-4.528,13.712c-4.094,3.813-9.587,6.149-15.624,6.153
		C36.249,93.661,25.945,83.38,25.931,70.684c-0.007-5.118,1.666-9.856,4.496-13.681c4.099-3.829,9.601-6.176,15.658-6.183
		C58.781,50.806,69.084,61.084,69.098,73.78z"/>
	<path fill="#FFFFFF" d="M71.905,70.636c0.008,6.659-2.817,12.654-7.335,16.856c-4.094,3.813-9.587,6.149-15.624,6.153
		C36.249,93.661,25.945,83.38,25.931,70.684c-0.007-5.118,1.666-9.856,4.496-13.681c4.181-5.656,10.894-9.325,18.47-9.333
		C61.593,47.658,71.893,57.94,71.905,70.636z"/>
	<path fill="#E8E8E8" d="M67.374,84.348c-4.175,5.636-10.88,9.291-18.435,9.299C36.243,93.659,25.945,83.38,25.931,70.684
		c-0.008-6.642,2.8-12.625,7.297-16.825c-2.826,3.829-4.496,8.564-4.49,13.683c0.012,12.696,10.318,22.974,23.012,22.96
		C57.787,90.495,63.279,88.164,67.374,84.348z"/>
	<path fill="#441944" d="M99.517,134.84c-5.26,4.95-12.907,8.472-22.851,7.892c-7.486-0.439-13.366-3.856-17.6-8.371
		c-9.369-9.977-10.729-25.31-3.849-25.577c0,0,1.811-0.041,4.753-0.083c2.036-0.022,4.603-0.049,7.486-0.064
		c7.363-0.041,16.766,0.014,24.459,0.377c2.636,0.121,5.066,0.284,7.151,0.493c3.63,0.359,6.2,0.857,6.899,1.541
		C110.251,115.235,107.972,126.882,99.517,134.84z"/>
	<path fill="#FFFFFF" d="M67.456,108.637c-0.573,3.35-1.581,7.752-2.994,8.309c-1.551,0.612-3.424-4.69-4.492-8.245
		C62.005,108.678,64.572,108.651,67.456,108.637z"/>
	<path fill="#FFFFFF" d="M99.066,109.506c-1.084,3.497-2.781,7.966-4.217,7.407c-1.356-0.528-2.347-4.609-2.934-7.9
		C94.55,109.134,96.981,109.298,99.066,109.506z"/>
	<path fill="#FF6EB3" d="M99.517,134.84c-5.26,4.95-12.907,8.472-22.851,7.892c-7.486-0.439-13.366-3.856-17.6-8.371
		c4.127-2.49,11.463-4.149,19.821-4.158C87.82,130.194,95.58,132.07,99.517,134.84z"/>
	<circle fill="#201600" cx="51.726" cy="68.507" r="2.812"/>
	<path fill="#FFC552" d="M108.004,47.762c0,0-0.038-34.845,33.664-39.096c0,0,6.563,30.12-28.934,45.108L108.004,47.762z"/>
	<path fill="#FFFFFF" d="M133.669,70.572c0.006,6.658-2.813,12.653-7.331,16.855c-4.094,3.815-9.591,6.15-15.629,6.155
		c-12.696,0.01-23-10.266-23.013-22.963c-0.003-5.12,1.665-9.856,4.495-13.681c4.18-5.654,10.893-9.325,18.471-9.333
		C123.357,47.593,133.655,57.874,133.669,70.572z"/>
	<path fill="#E8E8E8" d="M129.14,84.282c-4.175,5.637-10.881,9.29-18.436,9.297c-12.696,0.014-22.994-10.264-23.008-22.96
		c-0.007-6.642,2.8-12.625,7.299-16.827c-2.825,3.829-4.499,8.565-4.495,13.683c0.014,12.696,10.319,22.976,23.015,22.962
		C119.553,90.43,125.048,88.098,129.14,84.282z"/>
	<circle fill="#201600" cx="115.559" cy="68.438" r="2.81"/>
</g>
</svg>
