<?xml version="1.0" encoding="utf-8"?>
<!-- Generator: Adobe Illustrator 19.0.1, SVG Export Plug-In . SVG Version: 6.00 Build 0)  -->
<svg version="1.1" id="objects" xmlns="http://www.w3.org/2000/svg" xmlns:xlink="http://www.w3.org/1999/xlink" x="0px" y="0px"
	 width="250.227px" height="258.524px" viewBox="0 0 250.227 258.524" enable-background="new 0 0 250.227 258.524"
	 xml:space="preserve">
<g>
	<path fill="#441944" d="M74.07,30.119c0,0,13.145-24.551,30.725-21.461c17.582,3.09,1.337,47.733,1.337,47.733"/>
	<path fill="#441944" d="M100.647,52.063c0,0,28.868-18.264,40.856-6.068c11.992,12.194-18.219,47.013-18.219,47.013"/>
	<path fill="#441944" d="M117.093,87.388c0,0,30.971-7.437,37.884,6.934c6.915,14.369-30.221,36.012-30.221,36.012"/>
	<path fill="#441944" d="M125.065,127.147c0,0,26.96-6.472,32.981,6.037c6.018,12.51-26.309,31.35-26.309,31.35"/>
	<path fill="#441944" d="M132.236,163.305c0,0,21.988-9.836,29.128-0.116c7.139,9.72-17.457,30.977-17.457,30.977"/>
	<path fill="#585AA8" d="M227.599,160.475c-6.873,8.858-17.131,27.947-33.193,30.153c-48.628,6.674-59.427-36.222-61.76-58.92
		c-0.003-1.34-0.019-2.685-0.058-4.038c-1.432-51.166-27.08-92.849-59.184-99.318l0.008,0c-10.628-2.298-23.365,1.634-23.365,1.634
		l0.009-0.002C20.188,40.412-1.316,82.138,0.063,131.38c0.57,20.409,4.996,39.307,12.147,55.067l0,0
		c38.458,92.312,154.703,88.584,208.01,30.364C273.526,158.592,242.585,141.161,227.599,160.475z"/>
	<path fill="#FFFFFF" d="M106.965,86.197c0.12,4.261-1.581,8.148-4.402,10.914c-2.556,2.513-6.032,4.101-9.897,4.209
		c-8.125,0.227-14.898-6.173-15.126-14.299c-0.091-3.278,0.897-6.336,2.642-8.835c2.578-3.693,6.812-6.157,11.662-6.291
		C99.97,71.666,106.739,78.071,106.965,86.197z"/>
	<path fill="#E8E8E8" d="M104.304,95.05c-2.578,3.68-6.806,6.134-11.641,6.27c-8.125,0.227-14.895-6.174-15.123-14.3
		c-0.119-4.253,1.575-8.13,4.382-10.896c-1.744,2.499-2.732,5.559-2.641,8.836c0.229,8.124,7.002,14.526,15.126,14.299
		C98.273,99.15,101.75,97.563,104.304,95.05z"/>
	<path fill="#441944" d="M93.479,150.944c-6.164,6.126-15.252,10.608-27.231,10.234c-9.017-0.286-16.198-4.206-21.44-9.498
		c-11.588-11.696-25.136-38.331-20.393-38.464c0,0,5.899,4.863,21.622,7.534c2.376,0.404,4.986,0.762,7.828,1.041
		c8.006,0.791,17.907,0.991,30.009,0.055c1.102-0.085,2.216-0.181,3.353-0.285c0.771-0.07,2.546-0.394,4.82-0.84
		c7.061-1.391,18.874-3.938,19.689-3.578C115.365,118.755,103.391,141.1,93.479,150.944z"/>
	<path fill="#FFFFFF" d="M45.847,120.712c0.06,0.01,0.121,0.028,0.191,0.037c2.376,0.404,4.986,0.762,7.828,1.041
		c-0.609,3.802-1.622,8.13-3.128,8.77c-1.847,0.787-4.275-5.738-5.678-9.981c0.007,0,0.013,0,0.019,0L45.847,120.712z"/>
	<path fill="#FFFFFF" d="M92.048,120.721c-1.189,4.201-3.05,9.432-4.763,8.816c-1.411-0.51-2.588-4.174-3.41-7.691
		c1.102-0.085,2.216-0.181,3.353-0.285C87.999,121.491,89.773,121.166,92.048,120.721z"/>
	<path fill="#FF6EB3" d="M93.476,150.943c-6.165,6.126-15.253,10.607-27.23,10.233c-9.018-0.285-16.197-4.205-21.44-9.497
		c4.888-3.128,13.657-5.363,23.71-5.644C79.256,145.734,88.652,147.74,93.476,150.943z"/>
	<circle fill="#201600" cx="95.338" cy="85.144" r="5.243"/>
	<path fill="#FFFFFF" d="M53.149,87.703c0.118,4.262-1.583,8.148-4.404,10.915c-2.554,2.512-6.031,4.1-9.896,4.208
		c-8.125,0.227-14.899-6.174-15.126-14.3c-0.092-3.278,0.897-6.336,2.641-8.835c2.578-3.693,6.81-6.156,11.662-6.292
		C46.152,73.172,52.92,79.578,53.149,87.703z"/>
	<path fill="#E8E8E8" d="M50.486,96.557c-2.576,3.679-6.804,6.133-11.64,6.27c-8.127,0.226-14.896-6.174-15.123-14.3
		c-0.119-4.252,1.574-8.129,4.38-10.895c-1.745,2.499-2.731,5.558-2.639,8.835c0.226,8.126,6.999,14.527,15.127,14.3
		C44.455,100.658,47.931,99.07,50.486,96.557z"/>
	<path fill="#201600" d="M46.761,86.504c0.079,2.894-2.199,5.306-5.092,5.387c-2.895,0.081-5.308-2.2-5.39-5.093
		c-0.081-2.895,2.201-5.308,5.095-5.388C44.27,81.327,46.679,83.609,46.761,86.504z"/>
	<path fill="#441944" d="M78.382,29.656c0,0-9.725-35.954-26.028-28.686c-16.304,7.268-11.184,50.837,1.25,51.717
		C62.701,53.332,74.228,29.928,78.382,29.656z"/>
</g>
</svg>
