<?xml version="1.0" encoding="utf-8"?>
<!-- Generator: Adobe Illustrator 19.0.1, SVG Export Plug-In . SVG Version: 6.00 Build 0)  -->
<svg version="1.1" id="Objects" xmlns="http://www.w3.org/2000/svg" xmlns:xlink="http://www.w3.org/1999/xlink" x="0px" y="0px"
	 width="273.677px" height="273.283px" viewBox="0 0 273.677 273.283" enable-background="new 0 0 273.677 273.283"
	 xml:space="preserve">
<g>
	<g>
		<g>
			<path fill="#DD4A71" d="M25.465,135.499c-30.494,26.026-34.94,66.786-6.038,60.487c17.016-3.709,44.484-42.84,52.812-65.33
				C80.568,108.167,55.959,109.473,25.465,135.499z"/>
			<path fill="#C83458" d="M34.459,186.666c15.091-13.805,31.639-39.425,37.781-56.01c5.479-14.796-3.301-19.289-18.632-13.222
				c0,10.524-0.37,33.684-3.508,41.858C47.352,166.454,39.42,179.077,34.459,186.666z"/>
			<path fill="#DD4A71" d="M187.491,245.724c-28.606-6.934-70.066-7.366-99.799,1.525c-11.308,3.878-48.555,12.008-44.786-22.768
				c10.982-56.951,17.68-111.16,14.39-158.975c0-11.306,9.251-20.557,20.557-20.557l115.12-13.02
				c11.306,0,20.557,9.251,20.557,20.557c-3.962,50.466,4.698,109.938,16.446,171.995
				C235.115,257.716,200.373,249.086,187.491,245.724z"/>
			<path fill="#F26D96" d="M66.303,58.54c7.781-8.794,45.705-12.9,53.177-16.022c1.237-0.517,2.571-1.482,3.935-2.722l-45.563,5.153
				c-11.306,0-20.557,9.251-20.557,20.557c0.711,10.335,0.953,20.971,0.789,31.867C59.75,80.751,62.396,62.956,66.303,58.54z"/>
			<path fill="#C83458" d="M212.946,61.792c0,0-5.226,23.558-4.719,32.481c0.507,8.922,3.201,74.802,3.653,94.026
				c0.452,19.224,8.793,25.986-12.081,35.71c-20.873,9.724-109.668,22.864-123.601,18.863c-9.129-2.621-22.098,1.327-32.52-5.753
				c5.796,19.848,34.359,13.442,44.015,10.131c29.734-8.891,71.193-8.459,99.799-1.525c12.882,3.361,47.624,11.992,42.485-21.242
				c-11.034-58.284-19.341-114.286-17.029-162.69L212.946,61.792z"/>
			<path fill="#DD4A71" d="M248.212,135.499c30.494,26.026,34.94,66.786,6.038,60.487c-17.016-3.709-44.484-42.84-52.812-65.33
				C193.11,108.167,217.718,109.473,248.212,135.499z"/>
			<path fill="#C83458" d="M271.77,169.651c-1.371,7.18-4.75,13.512-11.643,15.087c-11.987,2.74-36.18-15.231-36.2-15.247
				c10.206,13.448,21.627,24.6,30.323,26.495C271.659,199.78,276.963,186.5,271.77,169.651z"/>
		</g>
		<g>
			<ellipse fill="#C83458" cx="104.592" cy="97.263" rx="3.831" ry="5.152"/>
			<ellipse fill="#C83458" cx="151.687" cy="93.366" rx="3.831" ry="5.203"/>
			<circle fill="#3D3D3D" cx="104.592" cy="96.871" r="3.831"/>
			<circle fill="#3D3D3D" cx="151.687" cy="93.04" r="3.831"/>
		</g>
		<g>
			
				<ellipse transform="matrix(0.6976 0.7164 -0.7164 0.6976 91.1063 -126.9241)" fill="#C83458" cx="195.93" cy="44.479" rx="16.3" ry="15.274"/>
			<path fill="#CBDC1D" d="M208.827,54.463c1.522-1.344,3.041-2.751,4.548-4.218c18.052-17.579,32.884-42.208,26.604-48.658
				c-6.281-6.45-31.295,7.723-49.348,25.301c-1.507,1.468-2.954,2.949-4.338,4.434C173.511,46.086,194.361,67.592,208.827,54.463z"
				/>
			<path fill="#9FAC14" d="M232.603,26.988c-4.765-2.187-9.481-5.198-13.886-9.007c-2.785-2.408-5.28-4.994-7.471-7.69
				c-1.251,0.824-2.508,1.685-3.77,2.58c1.726,1.932,3.606,3.799,5.65,5.566c5.686,4.917,11.89,8.486,18.048,10.686
				C231.664,28.408,232.142,27.695,232.603,26.988z"/>
			<path fill="#9FAC14" d="M186.005,31.688c-1.532,1.863-2.545,3.823-3.111,5.805c4.587,7.766,12.212,14.88,21.827,19.731
				c1.402-0.653,2.781-1.559,4.106-2.762c0.003-0.002,0.006-0.005,0.008-0.008C198.209,48.886,190.111,40.55,186.005,31.688z"/>
			<path fill="#9FAC14" d="M239.671,13.724c-5.091-2.518-10.095-6.001-14.669-10.411c-0.149-0.144-0.289-0.293-0.437-0.438
				c-1.16,0.507-2.358,1.078-3.584,1.701c1.289,1.512,2.669,2.989,4.147,4.414c3.928,3.788,8.173,6.888,12.518,9.286
				C238.434,16.693,239.114,15.17,239.671,13.724z"/>
			<path fill="#9FAC14" d="M198.495,28.088c5.267,7.858,11.964,13.986,19.001,17.956c1.267-1.345,2.51-2.714,3.721-4.103
				c-7.949-3.859-15.634-10.484-21.528-19.278c-0.56-0.835-1.086-1.677-1.595-2.523c-0.963,0.811-1.916,1.636-2.858,2.473
				C196.209,24.457,197.288,26.287,198.495,28.088z"/>
			<path opacity="0.32" fill="#3D3D3D" d="M209.006,46.165c-12.538,7.618-20.672-0.347-26.475-7.048
				c-2.192,13.204,14.255,26.274,26.297,15.345c1.522-1.344,3.041-2.751,4.548-4.218c11.294-10.998,21.327-24.755,25.718-35.094
				C230.937,25.351,217.758,40.848,209.006,46.165z"/>
		</g>
		<g>
			<path fill="#C83458" d="M57.719,70.186c5.12,4.891,13.056,5.022,17.725,0.294c4.669-4.728,4.304-12.525-0.815-17.416
				c-5.12-4.891-13.056-5.022-17.725-0.294C52.234,57.499,52.599,65.296,57.719,70.186z"/>
			<path fill="#CBDC1D" d="M56.416,68.789c-1.282-1.124-2.565-2.297-3.842-3.516C37.281,50.664,24.188,30.709,28.857,25.981
				c4.669-4.728,25.333,7.562,40.627,22.17c1.277,1.22,2.506,2.447,3.686,3.674C84.118,63.978,68.622,79.747,56.416,68.789z"/>
			<path fill="#9FAC14" d="M36.05,46.174c3.683-1.474,7.284-3.594,10.596-6.352c2.094-1.744,3.948-3.64,5.553-5.638
				c1.039,0.705,2.086,1.438,3.137,2.199c-1.275,1.424-2.676,2.789-4.213,4.069c-4.275,3.561-9.033,6.043-13.825,7.459
				C36.872,47.329,36.454,46.749,36.05,46.174z"/>
			<path fill="#9FAC14" d="M73.418,52.126c1.317,1.529,2.226,3.109,2.779,4.685c-3.251,5.839-8.958,11.019-16.367,14.335
				c-1.15-0.579-2.296-1.354-3.414-2.357c-0.002-0.002-0.005-0.004-0.007-0.006C64.587,64.955,70.606,58.843,73.418,52.126z"/>
			<path fill="#9FAC14" d="M29.731,35.472c3.925-1.717,7.731-4.19,11.147-7.41c0.112-0.105,0.215-0.215,0.325-0.321
				c0.951,0.453,1.935,0.957,2.944,1.503c-0.949,1.118-1.972,2.203-3.075,3.243c-2.933,2.765-6.154,4.978-9.491,6.637
				C30.871,37.851,30.25,36.629,29.731,35.472z"/>
			<path fill="#9FAC14" d="M63.281,48.703c-3.789,5.877-8.807,10.333-14.208,13.089c-1.079-1.112-2.14-2.242-3.177-3.385
				c6.133-2.624,11.912-7.42,16.152-13.997c0.403-0.625,0.778-1.257,1.14-1.892c0.809,0.68,1.611,1.371,2.405,2.071
				C64.914,45.98,64.149,47.356,63.281,48.703z"/>
			<path opacity="0.32" fill="#3D3D3D" d="M55.844,62.302c10.384,6.561,16.451,0.742,20.727-4.206
				c2.431,10.416-9.995,19.815-20.155,10.693c-1.282-1.124-2.565-2.297-3.842-3.516C43.006,56.133,34.3,44.901,30.266,36.614
				C37.293,44.977,48.596,57.722,55.844,62.302z"/>
		</g>
		<g>
			<g>
				<path fill="#C83458" d="M166.646,244.002c-18.851-4.555-46.172-4.839-65.766,1.002c-7.452,2.548-31.997,7.889-29.513-14.957
					c7.237-37.414,11.651-73.026,9.483-104.438c0-7.428,6.096-13.505,13.547-13.505l75.862-8.553
					c7.451,0,13.547,6.077,13.547,13.505c-2.611,33.153,3.096,72.223,10.838,112.991
					C198.029,251.879,175.134,246.21,166.646,244.002z"/>
				<path fill="#B22B52" d="M168.513,245.888c-18.61-4.555-45.583-4.839-64.928,1.002c-7.357,2.548-31.589,7.889-29.137-14.957
					c7.145-37.414,11.502-73.026,9.362-104.438c0-7.428,6.018-13.505,13.374-13.505l74.895-8.553
					c7.356,0,13.374,6.077,13.374,13.505c-2.577,33.153,3.056,72.223,10.699,112.991
					C199.496,253.766,176.893,248.096,168.513,245.888z"/>
				<circle fill="#3D3D3D" cx="137.956" cy="203.519" r="24.37"/>
				<path opacity="0.32" fill="#3D3D3D" d="M103.585,246.89c19.344-5.841,46.317-5.557,64.928-1.002
					c8.381,2.208,30.983,7.878,27.64-13.955c-4.723-25.195-8.673-49.737-10.398-72.64c-1.508,12.911-0.255,29.962-5.63,32.126
					c-15.743,6.339-56.964,16.454-60.644,14.733c-3.866-1.809-24.508-6.801-30.15-3.94c-3.515,1.783-5.109-17.724-6.513-27.047
					c-1.683,18.207-4.64,37.238-8.37,56.769C71.996,254.779,96.228,249.437,103.585,246.89z"/>
				<polygon fill="#FFFFFF" points="97.184,113.99 104.592,128.212 108.423,123.919 158.625,122.467 164.279,130.982 
					170.937,105.567 				"/>
				<path fill="#D3F5FF" d="M98.082,115.715c11.734-1.201,57.552-5.231,71.896-6.489l0.959-3.659l-73.753,8.423L98.082,115.715z"/>
				<polygon fill="#D3F5FF" points="105.955,126.685 108.423,120.411 112.672,123.796 108.423,123.919 				"/>
				<polygon fill="#D3F5FF" points="140.132,123.002 159.653,121.182 163.08,129.176 158.625,122.467 				"/>
				<path fill="#D3F5FF" d="M167.833,117.414c0.008-0.031,3.104-11.847,3.104-11.847l-3.439,0.393
					C167.498,105.96,167.825,117.445,167.833,117.414z"/>
			</g>
			<g>
				<path fill="#F1BB82" d="M192.445,211.21c0,0-12.491-11.396-30.307-11.396s-34.262,11.396-34.262,11.396
					s-23.983-12.334-39.744-5.698c-15.76,6.636-41.475,40.213-32.387,55.288c9.089,15.075,43.351,14.39,63.222,8.908
					c19.872-5.482,43.17-9.593,51.393-8.223c8.223,1.371,29.501-0.257,29.439-21.071
					C199.782,234.803,197.495,214.915,192.445,211.21z"/>
				<path fill="#E0914D" d="M199.799,240.414c-0.015-5.144-1.941-22.28-6.153-27.952c0.991,9.231,2.229,25.014-0.074,31.036
					c-3.34,8.737-25.234,0.377-31.247,1.088c-6.013,0.711-49.44,20.754-67.685,21.525c-11.779,0.498-27.836-2.986-39.886-7.447
					c0.271,0.742,0.584,1.464,0.989,2.136c9.089,15.075,43.351,14.39,63.223,8.908c19.872-5.482,43.17-9.593,51.393-8.223
					C178.583,262.855,199.861,261.228,199.799,240.414z"/>
				<path fill="#C6773C" d="M194.087,252.748c-5.253,6.209-15.418,5.91-19.272,5.653c-3.854-0.257-17.73-1.328-23.641,0.107
					c-4.916,1.194-35.074,10.623-45.082,13.761c4.639-0.622,9.029-1.5,12.876-2.562c19.872-5.482,43.17-9.593,51.393-8.223
					c8.223,1.371,29.501-0.257,29.439-21.071c-0.007-2.38-0.424-7.328-1.286-12.52C198.517,228.002,199.324,246.557,194.087,252.748
					z"/>
				<path fill="#E0914D" d="M121.188,208.304c-2.483,3.022-5.988,7.91-7.602,13.094c-2.64,8.48-2.499,17.988-2.499,17.988
					s0-5.653,4.368-12.591c4.368-6.938,12.42-15.585,12.42-15.585S125.254,209.865,121.188,208.304z"/>
				<path fill="#F9CFAA" d="M106.09,204.138c-6.082-0.946-12.511-0.92-17.959,1.373c-10.353,4.359-25.001,20.345-31.258,35.074
					c7.047-9.82,17.137-22.948,24.148-28.124C92.827,203.746,106.067,204.137,106.09,204.138z"/>
			</g>
		</g>
	</g>
</g>
</svg>
