<?xml version="1.0" encoding="utf-8"?>
<!-- Generator: Adobe Illustrator 19.0.1, SVG Export Plug-In . SVG Version: 6.00 Build 0)  -->
<svg version="1.1" id="Objects" xmlns="http://www.w3.org/2000/svg" xmlns:xlink="http://www.w3.org/1999/xlink" x="0px" y="0px"
	 width="212.071px" height="233.956px" viewBox="0 0 212.071 233.956" enable-background="new 0 0 212.071 233.956"
	 xml:space="preserve">
<g>
	<g>
		<g>
			<path fill="#38CCE4" d="M137.154,44.151c0,0,16.404,4.38,26.58-4.366c10.176-8.746,1.696-22.587,18.656-25.696
				c16.96-3.109,28.266,0.049,25.157,2.883c-3.109,2.834-18.09,7.953-20.069,14.219c-1.979,6.266-3.133,17.376-5.653,23.383
				c-5.37,12.803-37.673,14.724-37.673,14.724L137.154,44.151z"/>
			<path fill="#10A0C1" d="M153.064,44.672c-0.75,0.143-1.496,0.254-2.234,0.34c0.651,2.151,1.576,4.976,2.895,8.678
				c2.913,8.173,6.815,11.351,9.15,12.569c1.088-0.286,2.177-0.598,3.255-0.938C159.609,62.749,155.245,51.719,153.064,44.672z"/>
			<path fill="#10A0C1" d="M176.05,54.558c1.914,0.514,3.644,0.874,5.22,1.132c0.206-0.363,0.394-0.734,0.554-1.116
				c0.194-0.462,0.377-0.962,0.555-1.48c-0.539-0.073-1.073-0.159-1.589-0.274c-5.199-1.156-15.916-7.264-17.056-13.036
				c-0.342,0.294-0.691,0.57-1.046,0.835C164.206,44.813,167.997,52.395,176.05,54.558z"/>
			<path fill="#10A0C1" d="M168.59,32.416c-0.063,0.183-0.133,0.365-0.201,0.547c3.439,1.837,10.415,4.527,18.168,1.69
				c0.143-0.616,0.29-1.209,0.44-1.777C184.007,33.601,176.718,34.841,168.59,32.416z"/>
			<path fill="#10A0C1" d="M191.38,26.436c-1.651-0.759-4.066-2.208-7.464-4.974c-3.307-2.692-5.403-4.525-6.733-5.756
				c-0.555,0.27-1.051,0.566-1.515,0.876c3.132,3.079,9.054,8.451,14.483,10.887C190.533,27.119,190.944,26.775,191.38,26.436z"/>
			<path fill="#10A0C1" d="M193.534,12.844c-0.611,0.021-1.237,0.051-1.878,0.091c0.14,0.42,0.288,0.866,0.45,1.363
				c0.791,2.432,4.331,6.116,6.127,7.876c0.511-0.273,1.019-0.54,1.521-0.801C196.462,19.029,194.515,15.282,193.534,12.844z"/>
			<path opacity="0.32" fill="#3D3D3D" d="M205.341,13.971c-1.541,1.522-3.868,3.234-7.324,4.587
				c-8.107,3.175-13.285,2.802-14.493,9.975c-1.208,7.173-6.132,24.005-18.518,28.405c-6.54,2.324-16.001,2.903-23.478,2.933
				l2.623,9.427c0,0,32.302-1.922,37.673-14.724c2.52-6.007,3.675-17.117,5.653-23.383c1.979-6.267,16.96-11.385,20.069-14.219
				C208.725,15.898,207.826,14.779,205.341,13.971z"/>
		</g>
		<g>
			<path fill="#38CCE4" d="M71.335,44.151c0,0-16.404,4.38-26.58-4.366c-10.176-8.746-1.696-22.587-18.656-25.696
				C9.139,10.98-2.167,14.137,0.942,16.972c3.109,2.834,18.09,7.953,20.069,14.219c1.979,6.266,3.133,17.376,5.653,23.383
				c5.371,12.803,37.673,14.724,37.673,14.724L71.335,44.151z"/>
			<path fill="#10A0C1" d="M55.425,44.672c0.75,0.143,1.496,0.254,2.234,0.34c-0.651,2.151-1.576,4.976-2.895,8.678
				c-2.913,8.173-6.815,11.351-9.15,12.569c-1.088-0.286-2.176-0.598-3.255-0.938C48.88,62.749,53.244,51.719,55.425,44.672z"/>
			<path fill="#10A0C1" d="M32.439,54.558c-1.914,0.514-3.644,0.874-5.22,1.132c-0.207-0.363-0.394-0.734-0.554-1.116
				c-0.194-0.462-0.377-0.962-0.556-1.48c0.539-0.073,1.073-0.159,1.589-0.274c5.199-1.156,15.916-7.264,17.056-13.036
				c0.342,0.294,0.691,0.57,1.046,0.835C44.283,44.813,40.492,52.395,32.439,54.558z"/>
			<path fill="#10A0C1" d="M39.899,32.416c0.063,0.183,0.133,0.365,0.201,0.547c-3.439,1.837-10.415,4.527-18.168,1.69
				c-0.143-0.616-0.29-1.209-0.44-1.777C24.482,33.601,31.771,34.841,39.899,32.416z"/>
			<path fill="#10A0C1" d="M17.109,26.436c1.651-0.759,4.066-2.208,7.464-4.974c3.307-2.692,5.403-4.525,6.733-5.756
				c0.555,0.27,1.051,0.566,1.515,0.876c-3.132,3.079-9.054,8.451-14.483,10.887C17.955,27.119,17.545,26.775,17.109,26.436z"/>
			<path fill="#10A0C1" d="M14.955,12.844c0.611,0.021,1.237,0.051,1.878,0.091c-0.14,0.42-0.288,0.866-0.45,1.363
				c-0.791,2.432-4.331,6.116-6.127,7.876c-0.511-0.273-1.019-0.54-1.521-0.801C12.027,19.029,13.974,15.282,14.955,12.844z"/>
			<path opacity="0.32" fill="#3D3D3D" d="M3.148,13.971c1.541,1.522,3.868,3.234,7.324,4.587
				c8.107,3.175,13.285,2.802,14.493,9.975c1.208,7.173,6.132,24.005,18.518,28.405c6.54,2.324,16.001,2.903,23.478,2.933
				l-2.623,9.427c0,0-32.302-1.922-37.673-14.724c-2.52-6.007-3.675-17.117-5.653-23.383c-1.979-6.267-16.96-11.385-20.069-14.219
				C-0.236,15.898,0.663,14.779,3.148,13.971z"/>
		</g>
		<g>
			<path fill="#AE2D95" d="M199.059,187.525c0.562-5.154,0.746-18.423-7.642-38.988c-11.007-26.984-39.025-43.918-39.025-43.918
				c-11.506-4.152,1.226,14.821,1.226,14.821c12.737,15.154,16.181,54.488,16.882,64.886c-3.891,3.314-6.351,8.102-6.351,13.446
				c0,10.001,8.568,18.108,19.138,18.108c10.569,0,19.138-8.107,19.138-18.108C202.424,193.967,201.178,190.44,199.059,187.525z"/>
			<path fill="#7F1576" d="M191.416,148.538c-0.983-2.409-2.106-4.734-3.327-6.978c0.086,0.324,5.765,21.701,6.494,27.732
				c0.734,6.077,1.507,21.268,1.507,21.268s1.886,4.63,0,11.141c-0.961,3.316-3.033,5.911-3.033,5.911l-5.385-4.464l-8.714,7.957
				l-1.225-9.404l-12.726,1.447c2.42,7.376,9.689,12.732,18.28,12.732c10.569,0,19.138-8.107,19.138-18.108
				c0-3.805-1.246-7.332-3.365-10.247C199.621,182.372,199.805,169.103,191.416,148.538z"/>
			<g>
				<g>
					<path fill="#38CCE4" d="M167.742,208.329l9.99-6.628c0,0,1.715,12.454,1.087,13.678c-0.628,1.224-8.274,9.182-20.812,13.523
						C158.006,228.902,166.926,215.247,167.742,208.329z"/>
					<path fill="#10A0C1" d="M177.732,201.701c0,0-3.517,10.707-5.199,14.179c-1.682,3.472-4.051,4.63-4.051,4.63l6.429-16.937
						L177.732,201.701z"/>
				</g>
				<g>
					<path fill="#38CCE4" d="M181.708,215.88l5.964-12.732c0,0,5.754,3.411,8.076,8.361c2.322,4.95-7.923,22.462-7.923,22.462
						L181.708,215.88z"/>
					<path fill="#10A0C1" d="M187.671,203.148c0,0,3.288,7.487,3.402,10.96c0.115,3.472,0,6.945,0,6.945l-4.536-15.484
						L187.671,203.148z"/>
				</g>
				<g>
					<path fill="#38CCE4" d="M197.152,210.247l0.917-11.765l4.298,0.651c0,0,10.96,10.309,9.583,23.764L197.152,210.247z"/>
					<path fill="#10A0C1" d="M198.069,198.482c0,0,4.243,2.387,5.62,4.666c1.376,2.279,3.899,7.053,3.899,7.053l-9.612-10.524
						L198.069,198.482z"/>
				</g>
			</g>
			<g>
				<ellipse fill="#6D1369" cx="185.291" cy="192.536" rx="9.292" ry="9.304"/>
				<ellipse fill="#FFFFFF" cx="185.291" cy="192.024" rx="9.292" ry="8.792"/>
				<path fill="#D3F5FF" d="M191.496,185.481c0.949,1.379,1.503,3.023,1.503,4.791c0,4.856-4.16,8.792-9.292,8.792
					c-2.385,0-4.56-0.851-6.205-2.249c1.658,2.408,4.526,4.001,7.79,4.001c5.132,0,9.292-3.936,9.292-8.792
					C194.583,189.425,193.391,187.09,191.496,185.481z"/>
				<ellipse fill="#3D3D3D" cx="185.291" cy="193.82" rx="1.898" ry="1.796"/>
			</g>
			<path fill="#7F1576" d="M170.5,184.326c0,0,2.58-1.796,5.499-2.23l-5.738-0.981L170.5,184.326z"/>
			<path fill="#7F1576" d="M156.1,122.869c0,0,2.452,3.452,4.379,8.839c0,0-0.912-9.186-2.19-11.899
				c-1.277-2.713-4.259-5.1-4.259-5.1L156.1,122.869z"/>
		</g>
		<g>
			<path fill="#AE2D95" d="M13.012,187.525c-0.562-5.154-0.747-18.423,7.642-38.988c11.007-26.984,39.025-43.918,39.025-43.918
				c11.506-4.152-1.226,14.821-1.226,14.821c-12.737,15.154-16.181,54.488-16.882,64.886c3.891,3.314,6.351,8.102,6.351,13.446
				c0,10.001-8.568,18.108-19.138,18.108c-10.569,0-19.138-8.107-19.138-18.108C9.647,193.967,10.893,190.44,13.012,187.525z"/>
			<path fill="#7F1576" d="M20.655,148.538c0.983-2.409,2.106-4.734,3.327-6.978c-0.086,0.324-5.766,21.701-6.494,27.732
				c-0.734,6.077-1.507,21.268-1.507,21.268s-1.886,4.63,0,11.141c0.961,3.316,3.033,5.911,3.033,5.911l5.385-4.464l8.714,7.957
				l1.225-9.404l12.726,1.447c-2.42,7.376-9.688,12.732-18.28,12.732c-10.569,0-19.138-8.107-19.138-18.108
				c0-3.805,1.246-7.332,3.365-10.247C12.45,182.372,12.266,169.103,20.655,148.538z"/>
			<g>
				<g>
					<path fill="#38CCE4" d="M44.329,208.329l-9.99-6.628c0,0-1.715,12.454-1.087,13.678c0.628,1.224,8.274,9.182,20.812,13.523
						C54.064,228.902,45.145,215.247,44.329,208.329z"/>
					<path fill="#10A0C1" d="M34.339,201.701c0,0,3.517,10.707,5.199,14.179c1.682,3.472,4.051,4.63,4.051,4.63l-6.429-16.937
						L34.339,201.701z"/>
				</g>
				<g>
					<path fill="#38CCE4" d="M30.363,215.88L24.4,203.148c0,0-5.754,3.411-8.076,8.361c-2.322,4.95,7.923,22.462,7.923,22.462
						L30.363,215.88z"/>
					<path fill="#10A0C1" d="M24.4,203.148c0,0-3.288,7.487-3.402,10.96c-0.115,3.472,0,6.945,0,6.945l4.536-15.484L24.4,203.148z"
						/>
				</g>
				<g>
					<path fill="#38CCE4" d="M14.919,210.247l-0.918-11.765l-4.298,0.651c0,0-10.96,10.309-9.583,23.764L14.919,210.247z"/>
					<path fill="#10A0C1" d="M14.001,198.482c0,0-4.243,2.387-5.619,4.666c-1.376,2.279-3.899,7.053-3.899,7.053l9.612-10.524
						L14.001,198.482z"/>
				</g>
			</g>
			<g>
				<ellipse fill="#6D1369" cx="26.78" cy="192.536" rx="9.292" ry="9.304"/>
				<ellipse fill="#FFFFFF" cx="26.78" cy="192.024" rx="9.292" ry="8.792"/>
				<path fill="#D3F5FF" d="M20.575,185.481c-0.949,1.379-1.503,3.023-1.503,4.791c0,4.856,4.16,8.792,9.292,8.792
					c2.385,0,4.56-0.851,6.205-2.249c-1.658,2.408-4.526,4.001-7.79,4.001c-5.132,0-9.292-3.936-9.292-8.792
					C17.488,189.425,18.68,187.09,20.575,185.481z"/>
				<ellipse fill="#3D3D3D" cx="26.78" cy="193.82" rx="1.899" ry="1.796"/>
			</g>
			<path fill="#7F1576" d="M41.571,184.326c0,0-2.58-1.796-5.499-2.23l5.738-0.981L41.571,184.326z"/>
			<path fill="#7F1576" d="M55.971,122.869c0,0-2.452,3.452-4.379,8.839c0,0,0.913-9.186,2.19-11.899
				c1.277-2.713,4.259-5.1,4.259-5.1L55.971,122.869z"/>
		</g>
		<g>
			<path fill="#AE2D95" d="M157.242,133.318c0.031-3.818-0.395-7.541-1.202-11.131c-1.55-11.712-5.834-37.514-6.376-41.833
				C144.903,42.423,129.509,0,104.647,0C79.785,0,62.271,42.238,59.631,80.353c-0.258,3.731-2.532,28.76-3.653,43.358
				c-0.375,2.361-0.585,4.779-0.605,7.245c-0.004,0.462,0.015,0.919,0.025,1.379c-0.039,0.858-0.05,1.455-0.027,1.728
				c-1.739,3.859,6.36,58.493,24.39,91.221c9.973,18.102,20.411,4.123,20.183-7.704c0,0-0.627-13.355,13.214-11.502
				c13.784,1.845,13.679,15.992,14.613,21.377c0.565,3.255,6.354,9.333,14.996-1.302c9.314-11.462,14.328-69.031,14.282-89.034
				C157.155,135.864,157.232,134.599,157.242,133.318z"/>
			<path fill="#C152C1" d="M113.514,1.858C110.647,0.651,107.682,0,104.647,0C84.115,0,67.345,29.879,61.935,62.333
				c22.066-44.06,24.755-47.161,36.071-56.309C102.63,2.285,108.194,1.388,113.514,1.858z"/>
			<path fill="#7F1576" d="M127.282,223.845c0.186,1.402,0.321,2.647,0.488,3.61c0.565,3.255,6.354,9.333,14.996-1.302
				c9.314-11.462,14.328-69.031,14.282-89.034c0.108-1.255,0.184-2.52,0.194-3.801c0.031-3.818-0.395-7.541-1.202-11.131
				c-1.55-11.712-5.834-37.514-6.376-41.833c0,0-1.634,72.539-2.086,94.581C147.016,202.309,136.545,216.972,127.282,223.845z"/>
			<path fill="#7F1576" d="M95.425,217.347c-0.994,5.137-5.363,11.18-14.424,10.006c9.578,14.859,19.159,1.565,18.941-9.773
				c0,0-0.248-5.413,3.142-8.868C103.084,208.712,96.694,210.787,95.425,217.347z"/>
		</g>
	</g>
	<g>
		<g>
			<path fill="#38CCE4" d="M70.166,122.053l1.775,18.419c0,2.316,1.198,4.21,2.662,4.21h66.333c1.464,0,2.662-1.895,2.662-4.21
				l1.775-18.419H70.166z"/>
			<path fill="#591059" d="M70.166,122.869l1.775,16.33c0,2.053,1.198,3.733,2.662,3.733h66.333c1.464,0,2.662-1.68,2.662-3.733
				l1.775-16.33H70.166z"/>
			<ellipse opacity="0.42" cx="108.279" cy="135.934" rx="15.577" ry="3.422"/>
			<polygon fill="#FFFFFF" points="74.019,122.869 79.114,135.934 81.103,130.179 135.787,130.179 137.154,134.534 140.51,122.869 
							"/>
			<polygon fill="#D3F5FF" points="74.019,122.869 140.51,122.869 140.132,124.182 74.775,124.807 			"/>
			<polygon fill="#D3F5FF" points="79.114,135.934 80.937,127.483 83.754,130.179 81.103,130.179 			"/>
			<polygon fill="#D3F5FF" points="126.507,130.179 136.201,129.402 137.154,134.534 135.787,130.179 			"/>
			<polygon fill="#FFFFFF" points="131.365,142.874 127.867,133.908 126.503,137.857 88.972,137.857 88.033,134.869 85.73,142.874 
							"/>
			<polygon fill="#D3F5FF" points="131.365,142.874 85.73,142.874 85.989,141.973 130.846,141.545 			"/>
			<polygon fill="#D3F5FF" points="127.867,133.908 126.616,139.708 124.683,137.857 126.503,137.857 			"/>
			<polygon fill="#D3F5FF" points="95.34,137.857 88.687,138.391 88.033,134.869 88.972,137.857 			"/>
		</g>
		<g>
			<ellipse fill="#6D1369" cx="107.769" cy="90.002" rx="19.433" ry="19.458"/>
			<ellipse fill="#FFFFFF" cx="107.769" cy="88.931" rx="19.433" ry="18.387"/>
			<path fill="#D3F5FF" d="M120.747,75.248c1.985,2.883,3.143,6.323,3.143,10.02c0,10.155-8.7,18.387-19.433,18.387
				c-4.988,0-9.536-1.78-12.977-4.703c3.467,5.035,9.466,8.367,16.29,8.367c10.732,0,19.433-8.232,19.433-18.387
				C127.202,83.496,124.709,78.614,120.747,75.248z"/>
			<ellipse fill="#3D3D3D" cx="107.769" cy="92.688" rx="3.97" ry="3.757"/>
		</g>
	</g>
</g>
</svg>
