<svg version="1.1" xmlns="http://www.w3.org/2000/svg" xmlns:xlink="http://www.w3.org/1999/xlink" width="176" height="42" viewBox="0 0 176 42">
<g id="most_popular">
<path id="ic_crown" d="M40.001,5.387 C39.987,5.387 39.975,5.386 39.961,5.386 C39.961,5.386 38.629,10.189 38.629,10.189 L33.501,10.189 L28.371,10.189 C28.371,10.189 27.039,5.386 27.039,5.386 C27.025,5.387 27.013,5.387 26.999,5.387 C26.448,5.387 26.000,4.942 26.000,4.392 C26.000,3.843 26.448,3.397 27.001,3.397 C27.552,3.397 28.000,3.843 28.000,4.392 C28.000,4.499 27.981,4.602 27.951,4.698 C27.951,4.698 30.360,6.101 30.360,6.101 C30.360,6.101 32.949,1.825 32.949,1.825 C32.679,1.647 32.502,1.342 32.502,0.995 C32.502,0.446 32.949,-0.000 33.501,-0.000 C34.052,-0.000 34.500,0.446 34.500,0.995 C34.500,1.341 34.321,1.647 34.052,1.825 C34.052,1.825 36.642,6.101 36.642,6.101 C36.642,6.101 39.051,4.698 39.051,4.698 C39.019,4.602 39.002,4.499 39.002,4.392 C39.002,3.843 39.449,3.397 40.001,3.397 C40.552,3.397 41.000,3.843 41.000,4.392 C41.000,4.942 40.552,5.387 40.001,5.387 zM28.687,11.326 C28.687,11.326 38.313,11.326 38.313,11.326 C38.777,11.326 39.153,11.700 39.153,12.163 C39.153,12.624 38.777,13.000 38.313,13.000 C38.313,13.000 28.687,13.000 28.687,13.000 C28.223,13.000 27.847,12.626 27.847,12.163 C27.847,11.700 28.223,11.326 28.687,11.326 z" fill="#FFAA00" />
<path id="bg-header" d="M5.000,42.000 C5.000,42.000 -0.000,16.000 -0.000,16.000 C-0.000,12.686 2.686,10.000 6.000,10.000 C6.000,10.000 170.000,10.000 170.000,10.000 C173.314,10.000 176.000,12.686 176.000,16.000 C176.000,16.000 171.000,42.000 171.000,42.000 L5.000,42.000 z" fill="#62C830" />
</g>
</svg>
