<svg version="1.1" xmlns="http://www.w3.org/2000/svg" xmlns:xlink="http://www.w3.org/1999/xlink" width="768" height="408" viewBox="0 0 768 408">
<g id="shapes-tablet">
<path id="Rounded-Rectangl" d="M46.500,87.000 C46.500,87.000 75.500,87.000 75.500,87.000 C83.508,87.000 90.000,93.492 90.000,101.500 C90.000,109.508 83.508,116.000 75.500,116.000 C75.500,116.000 46.500,116.000 46.500,116.000 C38.492,116.000 32.000,109.508 32.000,101.500 C32.000,93.492 38.492,87.000 46.500,87.000 z" fill="#FFFFFF" opacity="0.102" />
<path id="Rounded-Rectangl" d="M620.500,321.000 C620.500,321.000 808.500,321.000 808.500,321.000 C816.508,321.000 823.000,327.492 823.000,335.500 C823.000,343.508 816.508,350.000 808.500,350.000 C808.500,350.000 620.500,350.000 620.500,350.000 C612.492,350.000 606.000,343.508 606.000,335.500 C606.000,327.492 612.492,321.000 620.500,321.000 z" fill="#FFFFFF" opacity="0.102" />
<path id="Rounded-Rectangl" d="M580.500,379.000 C580.500,379.000 768.500,379.000 768.500,379.000 C776.508,379.000 783.000,385.492 783.000,393.500 C783.000,401.508 776.508,408.000 768.500,408.000 C768.500,408.000 580.500,408.000 580.500,408.000 C572.492,408.000 566.000,401.508 566.000,393.500 C566.000,385.492 572.492,379.000 580.500,379.000 z" fill="#FFFFFF" opacity="0.102" />
<path id="Rounded-Rectangl" d="M724.000,364.500 C724.000,372.508 730.492,379.000 738.500,379.000 C738.500,379.000 667.500,379.000 667.500,379.000 C675.508,379.000 682.000,372.508 682.000,364.500 C682.000,356.492 675.508,350.000 667.500,350.000 C667.500,350.000 738.500,350.000 738.500,350.000 C730.492,350.000 724.000,356.492 724.000,364.500 z" fill="#FFFFFF" opacity="0.102" />
<path id="Rounded-Rectangl" d="M-229.500,87.000 C-229.500,87.000 -1.500,87.000 -1.500,87.000 C6.508,87.000 13.000,93.492 13.000,101.500 C13.000,109.508 6.508,116.000 -1.500,116.000 C-1.500,116.000 -229.500,116.000 -229.500,116.000 C-237.508,116.000 -244.000,109.508 -244.000,101.500 C-244.000,93.492 -237.508,87.000 -229.500,87.000 z" fill="#FFFFFF" opacity="0.102" />
<path id="Rounded-Rectangl" d="M-179.500,145.000 C-179.500,145.000 -21.500,145.000 -21.500,145.000 C-13.492,145.000 -7.000,151.492 -7.000,159.500 C-7.000,167.508 -13.492,174.000 -21.500,174.000 C-21.500,174.000 -179.500,174.000 -179.500,174.000 C-187.508,174.000 -194.000,167.508 -194.000,159.500 C-194.000,151.492 -187.508,145.000 -179.500,145.000 z" fill="#FFFFFF" opacity="0.102" />
<path id="Rounded-Rectangl" d="M-46.000,130.500 C-46.000,138.508 -39.508,145.000 -31.500,145.000 C-31.500,145.000 -122.500,145.000 -122.500,145.000 C-114.492,145.000 -108.000,138.508 -108.000,130.500 C-108.000,122.492 -114.492,116.000 -122.500,116.000 C-122.500,116.000 -31.500,116.000 -31.500,116.000 C-39.508,116.000 -46.000,122.492 -46.000,130.500 z" fill="#FFFFFF" opacity="0.102" />
<path id="Ellipse-8" d="M137.000,28.000 C141.971,28.000 146.000,32.029 146.000,37.000 C146.000,41.971 141.971,46.000 137.000,46.000 C132.029,46.000 128.000,41.971 128.000,37.000 C128.000,32.029 132.029,28.000 137.000,28.000 z" fill="#FFFFFF" opacity="0.200" />
<path id="Ellipse-8" d="M83.000,272.000 C87.971,272.000 92.000,276.029 92.000,281.000 C92.000,285.971 87.971,290.000 83.000,290.000 C78.029,290.000 74.000,285.971 74.000,281.000 C74.000,276.029 78.029,272.000 83.000,272.000 z" fill="#FFFFFF" opacity="0.200" />
<path id="Ellipse-8" d="M623.000,30.000 C627.971,30.000 632.000,34.029 632.000,39.000 C632.000,43.971 627.971,48.000 623.000,48.000 C618.029,48.000 614.000,43.971 614.000,39.000 C614.000,34.029 618.029,30.000 623.000,30.000 z" fill="#FFFFFF" opacity="0.200" />
<path id="Ellipse-8" d="M672.000,262.000 C676.971,262.000 681.000,266.029 681.000,271.000 C681.000,275.971 676.971,280.000 672.000,280.000 C667.029,280.000 663.000,275.971 663.000,271.000 C663.000,266.029 667.029,262.000 672.000,262.000 z" fill="#FFFFFF" opacity="0.200" />
<path id="Ellipse-8" d="M661.500,60.000 C664.538,60.000 667.000,62.462 667.000,65.500 C667.000,68.538 664.538,71.000 661.500,71.000 C658.462,71.000 656.000,68.538 656.000,65.500 C656.000,62.462 658.462,60.000 661.500,60.000 z" fill="#FFFFFF" opacity="0.200" />
<path id="Ellipse-8" d="M50.500,261.000 C53.538,261.000 56.000,263.462 56.000,266.500 C56.000,269.538 53.538,272.000 50.500,272.000 C47.462,272.000 45.000,269.538 45.000,266.500 C45.000,263.462 47.462,261.000 50.500,261.000 z" fill="#FFFFFF" opacity="0.200" />
<path id="Ellipse-8" d="M154.500,386.000 C157.538,386.000 160.000,388.462 160.000,391.500 C160.000,394.538 157.538,397.000 154.500,397.000 C151.462,397.000 149.000,394.538 149.000,391.500 C149.000,388.462 151.462,386.000 154.500,386.000 z" fill="#FFFFFF" opacity="0.200" />
<path id="Ellipse-8" d="M702.500,272.000 C703.881,272.000 705.000,273.119 705.000,274.500 C705.000,275.881 703.881,277.000 702.500,277.000 C701.119,277.000 700.000,275.881 700.000,274.500 C700.000,273.119 701.119,272.000 702.500,272.000 z" fill="#FFFFFF" opacity="0.200" />
<path id="Ellipse-8" d="M666.500,242.000 C667.881,242.000 669.000,243.119 669.000,244.500 C669.000,245.881 667.881,247.000 666.500,247.000 C665.119,247.000 664.000,245.881 664.000,244.500 C664.000,243.119 665.119,242.000 666.500,242.000 z" fill="#FFFFFF" opacity="0.200" />
<path id="Ellipse-8" d="M622.500,71.000 C623.881,71.000 625.000,72.119 625.000,73.500 C625.000,74.881 623.881,76.000 622.500,76.000 C621.119,76.000 620.000,74.881 620.000,73.500 C620.000,72.119 621.119,71.000 622.500,71.000 z" fill="#FFFFFF" opacity="0.200" />
<path id="Ellipse-8" d="M89.500,28.000 C90.881,28.000 92.000,29.119 92.000,30.500 C92.000,31.881 90.881,33.000 89.500,33.000 C88.119,33.000 87.000,31.881 87.000,30.500 C87.000,29.119 88.119,28.000 89.500,28.000 z" fill="#FFFFFF" opacity="0.200" />
<path id="Ellipse-8" d="M113.500,56.000 C114.881,56.000 116.000,57.119 116.000,58.500 C116.000,59.881 114.881,61.000 113.500,61.000 C112.119,61.000 111.000,59.881 111.000,58.500 C111.000,57.119 112.119,56.000 113.500,56.000 z" fill="#FFFFFF" opacity="0.200" />
<path id="Ellipse-8" d="M142.500,368.000 C143.881,368.000 145.000,369.119 145.000,370.500 C145.000,371.881 143.881,373.000 142.500,373.000 C141.119,373.000 140.000,371.881 140.000,370.500 C140.000,369.119 141.119,368.000 142.500,368.000 z" fill="#FFFFFF" opacity="0.200" />
<path id="Ellipse-8" d="M56.500,300.000 C57.881,300.000 59.000,301.119 59.000,302.500 C59.000,303.881 57.881,305.000 56.500,305.000 C55.119,305.000 54.000,303.881 54.000,302.500 C54.000,301.119 55.119,300.000 56.500,300.000 z" fill="#FFFFFF" opacity="0.200" />
<path id="Ellipse-8" d="M645.500,266.000 C646.881,266.000 648.000,267.119 648.000,268.500 C648.000,269.881 646.881,271.000 645.500,271.000 C644.119,271.000 643.000,269.881 643.000,268.500 C643.000,267.119 644.119,266.000 645.500,266.000 z" fill="#FFFFFF" opacity="0.200" />
<path id="Polygon-1" d="M101.000,14.000 L113.600,12.600 L115.000,-0.000 L116.400,12.600 L129.000,14.000 L116.400,15.400 L115.000,28.000 L113.600,15.400 L101.000,14.000 z" fill="#FFFFFF" opacity="0.200" />
<path id="Polygon-1" d="M158.000,374.000 L170.600,372.600 L172.000,360.000 L173.400,372.600 L186.000,374.000 L173.400,375.400 L172.000,388.000 L170.600,375.400 L158.000,374.000 z" fill="#FFFFFF" opacity="0.200" />
<path id="Polygon-1" d="M682.000,247.000 L694.600,245.600 L696.000,233.000 L697.400,245.600 L710.000,247.000 L697.400,248.400 L696.000,261.000 L694.600,248.400 L682.000,247.000 z" fill="#FFFFFF" opacity="0.200" />
<path id="Polygon-1" d="M650.000,30.000 L662.600,28.600 L664.000,16.000 L665.400,28.600 L678.000,30.000 L665.400,31.400 L664.000,44.000 L662.600,31.400 L650.000,30.000 z" fill="#FFFFFF" opacity="0.200" />
</g>
</svg>
