<svg version="1.1" xmlns="http://www.w3.org/2000/svg" xmlns:xlink="http://www.w3.org/1999/xlink" width="1470" height="412" viewBox="0 0 1470 412">
<g id="shapes-lead">
<path id="Rounded-Rectangl" d="M290.500,91.000 C290.500,91.000 319.500,91.000 319.500,91.000 C327.508,91.000 334.000,97.492 334.000,105.500 C334.000,113.508 327.508,120.000 319.500,120.000 C319.500,120.000 290.500,120.000 290.500,120.000 C282.492,120.000 276.000,113.508 276.000,105.500 C276.000,97.492 282.492,91.000 290.500,91.000 z" fill="#FFFFFF" opacity="0.102" />
<path id="Rounded-Rectangl" d="M1267.500,325.000 C1267.500,325.000 1455.500,325.000 1455.500,325.000 C1463.508,325.000 1470.000,331.492 1470.000,339.500 C1470.000,347.508 1463.508,354.000 1455.500,354.000 C1455.500,354.000 1267.500,354.000 1267.500,354.000 C1259.492,354.000 1253.000,347.508 1253.000,339.500 C1253.000,331.492 1259.492,325.000 1267.500,325.000 z" fill="#FFFFFF" opacity="0.102" />
<path id="Rounded-Rectangl" d="M1227.500,383.000 C1227.500,383.000 1415.500,383.000 1415.500,383.000 C1423.508,383.000 1430.000,389.492 1430.000,397.500 C1430.000,405.508 1423.508,412.000 1415.500,412.000 C1415.500,412.000 1227.500,412.000 1227.500,412.000 C1219.492,412.000 1213.000,405.508 1213.000,397.500 C1213.000,389.492 1219.492,383.000 1227.500,383.000 z" fill="#FFFFFF" opacity="0.102" />
<path id="Rounded-Rectangl" d="M1371.000,368.500 C1371.000,376.508 1377.492,383.000 1385.500,383.000 C1385.500,383.000 1314.500,383.000 1314.500,383.000 C1322.508,383.000 1329.000,376.508 1329.000,368.500 C1329.000,360.492 1322.508,354.000 1314.500,354.000 C1314.500,354.000 1385.500,354.000 1385.500,354.000 C1377.492,354.000 1371.000,360.492 1371.000,368.500 z" fill="#FFFFFF" opacity="0.102" />
<path id="Rounded-Rectangl" d="M14.500,91.000 C14.500,91.000 242.500,91.000 242.500,91.000 C250.508,91.000 257.000,97.492 257.000,105.500 C257.000,113.508 250.508,120.000 242.500,120.000 C242.500,120.000 14.500,120.000 14.500,120.000 C6.492,120.000 -0.000,113.508 -0.000,105.500 C-0.000,97.492 6.492,91.000 14.500,91.000 z" fill="#FFFFFF" opacity="0.102" />
<path id="Rounded-Rectangl" d="M64.500,149.000 C64.500,149.000 222.500,149.000 222.500,149.000 C230.508,149.000 237.000,155.492 237.000,163.500 C237.000,171.508 230.508,178.000 222.500,178.000 C222.500,178.000 64.500,178.000 64.500,178.000 C56.492,178.000 50.000,171.508 50.000,163.500 C50.000,155.492 56.492,149.000 64.500,149.000 z" fill="#FFFFFF" opacity="0.102" />
<path id="Rounded-Rectangl" d="M198.000,134.500 C198.000,142.508 204.492,149.000 212.500,149.000 C212.500,149.000 121.500,149.000 121.500,149.000 C129.508,149.000 136.000,142.508 136.000,134.500 C136.000,126.492 129.508,120.000 121.500,120.000 C121.500,120.000 212.500,120.000 212.500,120.000 C204.492,120.000 198.000,126.492 198.000,134.500 z" fill="#FFFFFF" opacity="0.102" />
<path id="Ellipse-8" d="M381.000,32.000 C385.971,32.000 390.000,36.029 390.000,41.000 C390.000,45.971 385.971,50.000 381.000,50.000 C376.029,50.000 372.000,45.971 372.000,41.000 C372.000,36.029 376.029,32.000 381.000,32.000 z" fill="#FFFFFF" opacity="0.200" />
<path id="Ellipse-8" d="M447.000,276.000 C451.971,276.000 456.000,280.029 456.000,285.000 C456.000,289.971 451.971,294.000 447.000,294.000 C442.029,294.000 438.000,289.971 438.000,285.000 C438.000,280.029 442.029,276.000 447.000,276.000 z" fill="#FFFFFF" opacity="0.200" />
<path id="Ellipse-8" d="M1087.000,14.000 C1091.971,14.000 1096.000,18.029 1096.000,23.000 C1096.000,27.971 1091.971,32.000 1087.000,32.000 C1082.029,32.000 1078.000,27.971 1078.000,23.000 C1078.000,18.029 1082.029,14.000 1087.000,14.000 z" fill="#FFFFFF" opacity="0.200" />
<path id="Ellipse-8" d="M1036.000,266.000 C1040.971,266.000 1045.000,270.029 1045.000,275.000 C1045.000,279.971 1040.971,284.000 1036.000,284.000 C1031.029,284.000 1027.000,279.971 1027.000,275.000 C1027.000,270.029 1031.029,266.000 1036.000,266.000 z" fill="#FFFFFF" opacity="0.200" />
<path id="Ellipse-8" d="M1125.500,44.000 C1128.538,44.000 1131.000,46.462 1131.000,49.500 C1131.000,52.538 1128.538,55.000 1125.500,55.000 C1122.462,55.000 1120.000,52.538 1120.000,49.500 C1120.000,46.462 1122.462,44.000 1125.500,44.000 z" fill="#FFFFFF" opacity="0.200" />
<path id="Ellipse-8" d="M414.500,265.000 C417.538,265.000 420.000,267.462 420.000,270.500 C420.000,273.538 417.538,276.000 414.500,276.000 C411.462,276.000 409.000,273.538 409.000,270.500 C409.000,267.462 411.462,265.000 414.500,265.000 z" fill="#FFFFFF" opacity="0.200" />
<path id="Ellipse-8" d="M96.500,295.000 C99.538,295.000 102.000,297.462 102.000,300.500 C102.000,303.538 99.538,306.000 96.500,306.000 C93.462,306.000 91.000,303.538 91.000,300.500 C91.000,297.462 93.462,295.000 96.500,295.000 z" fill="#FFFFFF" opacity="0.200" />
<path id="Ellipse-8" d="M1299.500,226.000 C1302.538,226.000 1305.000,228.462 1305.000,231.500 C1305.000,234.538 1302.538,237.000 1299.500,237.000 C1296.462,237.000 1294.000,234.538 1294.000,231.500 C1294.000,228.462 1296.462,226.000 1299.500,226.000 z" fill="#FFFFFF" opacity="0.200" />
<path id="Ellipse-8" d="M1376.500,172.000 C1379.538,172.000 1382.000,174.462 1382.000,177.500 C1382.000,180.538 1379.538,183.000 1376.500,183.000 C1373.462,183.000 1371.000,180.538 1371.000,177.500 C1371.000,174.462 1373.462,172.000 1376.500,172.000 z" fill="#FFFFFF" opacity="0.200" />
<path id="Ellipse-8" d="M1363.500,163.000 C1364.881,163.000 1366.000,164.119 1366.000,165.500 C1366.000,166.881 1364.881,168.000 1363.500,168.000 C1362.119,168.000 1361.000,166.881 1361.000,165.500 C1361.000,164.119 1362.119,163.000 1363.500,163.000 z" fill="#FFFFFF" opacity="0.200" />
<path id="Ellipse-8" d="M1277.500,200.000 C1278.881,200.000 1280.000,201.119 1280.000,202.500 C1280.000,203.881 1278.881,205.000 1277.500,205.000 C1276.119,205.000 1275.000,203.881 1275.000,202.500 C1275.000,201.119 1276.119,200.000 1277.500,200.000 z" fill="#FFFFFF" opacity="0.200" />
<path id="Ellipse-8" d="M1305.500,205.000 C1306.881,205.000 1308.000,206.119 1308.000,207.500 C1308.000,208.881 1306.881,210.000 1305.500,210.000 C1304.119,210.000 1303.000,208.881 1303.000,207.500 C1303.000,206.119 1304.119,205.000 1305.500,205.000 z" fill="#FFFFFF" opacity="0.200" />
<path id="Ellipse-8" d="M1008.500,293.000 C1009.881,293.000 1011.000,294.119 1011.000,295.500 C1011.000,296.881 1009.881,298.000 1008.500,298.000 C1007.119,298.000 1006.000,296.881 1006.000,295.500 C1006.000,294.119 1007.119,293.000 1008.500,293.000 z" fill="#FFFFFF" opacity="0.200" />
<path id="Ellipse-8" d="M1086.500,55.000 C1087.881,55.000 1089.000,56.119 1089.000,57.500 C1089.000,58.881 1087.881,60.000 1086.500,60.000 C1085.119,60.000 1084.000,58.881 1084.000,57.500 C1084.000,56.119 1085.119,55.000 1086.500,55.000 z" fill="#FFFFFF" opacity="0.200" />
<path id="Ellipse-8" d="M333.500,32.000 C334.881,32.000 336.000,33.119 336.000,34.500 C336.000,35.881 334.881,37.000 333.500,37.000 C332.119,37.000 331.000,35.881 331.000,34.500 C331.000,33.119 332.119,32.000 333.500,32.000 z" fill="#FFFFFF" opacity="0.200" />
<path id="Ellipse-8" d="M357.500,60.000 C358.881,60.000 360.000,61.119 360.000,62.500 C360.000,63.881 358.881,65.000 357.500,65.000 C356.119,65.000 355.000,63.881 355.000,62.500 C355.000,61.119 356.119,60.000 357.500,60.000 z" fill="#FFFFFF" opacity="0.200" />
<path id="Ellipse-8" d="M160.500,229.000 C161.881,229.000 163.000,230.119 163.000,231.500 C163.000,232.881 161.881,234.000 160.500,234.000 C159.119,234.000 158.000,232.881 158.000,231.500 C158.000,230.119 159.119,229.000 160.500,229.000 z" fill="#FFFFFF" opacity="0.200" />
<path id="Ellipse-8" d="M420.500,304.000 C421.881,304.000 423.000,305.119 423.000,306.500 C423.000,307.881 421.881,309.000 420.500,309.000 C419.119,309.000 418.000,307.881 418.000,306.500 C418.000,305.119 419.119,304.000 420.500,304.000 z" fill="#FFFFFF" opacity="0.200" />
<path id="Ellipse-8" d="M1009.500,270.000 C1010.881,270.000 1012.000,271.119 1012.000,272.500 C1012.000,273.881 1010.881,275.000 1009.500,275.000 C1008.119,275.000 1007.000,273.881 1007.000,272.500 C1007.000,271.119 1008.119,270.000 1009.500,270.000 z" fill="#FFFFFF" opacity="0.200" />
<path id="Polygon-1" d="M345.000,18.000 L357.600,16.600 L359.000,4.000 L360.400,16.600 L373.000,18.000 L360.400,19.400 L359.000,32.000 L357.600,19.400 L345.000,18.000 z" fill="#FFFFFF" opacity="0.200" />
<path id="Polygon-1" d="M123.000,240.000 L135.600,238.600 L137.000,226.000 L138.400,238.600 L151.000,240.000 L138.400,241.400 L137.000,254.000 L135.600,241.400 L123.000,240.000 z" fill="#FFFFFF" opacity="0.200" />
<path id="Polygon-1" d="M1307.000,177.000 L1319.600,175.600 L1321.000,163.000 L1322.400,175.600 L1335.000,177.000 L1322.400,178.400 L1321.000,191.000 L1319.600,178.400 L1307.000,177.000 z" fill="#FFFFFF" opacity="0.200" />
<path id="Polygon-1" d="M1114.000,14.000 L1126.600,12.600 L1128.000,-0.000 L1129.400,12.600 L1142.000,14.000 L1129.400,15.400 L1128.000,28.000 L1126.600,15.400 L1114.000,14.000 z" fill="#FFFFFF" opacity="0.200" />
</g>
</svg>
