<svg version="1.1" xmlns="http://www.w3.org/2000/svg" xmlns:xlink="http://www.w3.org/1999/xlink" width="1470" height="114" viewBox="0 0 1470 114">
<g id="shapes-pagetitle">
<path id="Rounded-Rectangl" d="M290.500,21.000 C290.500,21.000 319.500,21.000 319.500,21.000 C327.508,21.000 334.000,27.492 334.000,35.500 C334.000,43.508 327.508,50.000 319.500,50.000 C319.500,50.000 290.500,50.000 290.500,50.000 C282.492,50.000 276.000,43.508 276.000,35.500 C276.000,27.492 282.492,21.000 290.500,21.000 z" fill="#FFFFFF" opacity="0.102" />
<path id="Rounded-Rectangl" d="M1267.500,27.000 C1267.500,27.000 1455.500,27.000 1455.500,27.000 C1463.508,27.000 1470.000,33.492 1470.000,41.500 C1470.000,49.508 1463.508,56.000 1455.500,56.000 C1455.500,56.000 1267.500,56.000 1267.500,56.000 C1259.492,56.000 1253.000,49.508 1253.000,41.500 C1253.000,33.492 1259.492,27.000 1267.500,27.000 z" fill="#FFFFFF" opacity="0.102" />
<path id="Rounded-Rectangl" d="M1227.500,85.000 C1227.500,85.000 1415.500,85.000 1415.500,85.000 C1423.508,85.000 1430.000,91.492 1430.000,99.500 C1430.000,107.508 1423.508,114.000 1415.500,114.000 C1415.500,114.000 1227.500,114.000 1227.500,114.000 C1219.492,114.000 1213.000,107.508 1213.000,99.500 C1213.000,91.492 1219.492,85.000 1227.500,85.000 z" fill="#FFFFFF" opacity="0.102" />
<path id="Rounded-Rectangl" d="M1371.000,70.500 C1371.000,78.508 1377.492,85.000 1385.500,85.000 C1385.500,85.000 1314.500,85.000 1314.500,85.000 C1322.508,85.000 1329.000,78.508 1329.000,70.500 C1329.000,62.492 1322.508,56.000 1314.500,56.000 C1314.500,56.000 1385.500,56.000 1385.500,56.000 C1377.492,56.000 1371.000,62.492 1371.000,70.500 z" fill="#FFFFFF" opacity="0.102" />
<path id="Rounded-Rectangl" d="M14.500,21.000 C14.500,21.000 242.500,21.000 242.500,21.000 C250.508,21.000 257.000,27.492 257.000,35.500 C257.000,43.508 250.508,50.000 242.500,50.000 C242.500,50.000 14.500,50.000 14.500,50.000 C6.492,50.000 -0.000,43.508 -0.000,35.500 C-0.000,27.492 6.492,21.000 14.500,21.000 z" fill="#FFFFFF" opacity="0.102" />
<path id="Rounded-Rectangl" d="M64.500,79.000 C64.500,79.000 222.500,79.000 222.500,79.000 C230.508,79.000 237.000,85.492 237.000,93.500 C237.000,101.508 230.508,108.000 222.500,108.000 C222.500,108.000 64.500,108.000 64.500,108.000 C56.492,108.000 50.000,101.508 50.000,93.500 C50.000,85.492 56.492,79.000 64.500,79.000 z" fill="#FFFFFF" opacity="0.102" />
<path id="Rounded-Rectangl" d="M198.000,64.500 C198.000,72.508 204.492,79.000 212.500,79.000 C212.500,79.000 121.500,79.000 121.500,79.000 C129.508,79.000 136.000,72.508 136.000,64.500 C136.000,56.492 129.508,50.000 121.500,50.000 C121.500,50.000 212.500,50.000 212.500,50.000 C204.492,50.000 198.000,56.492 198.000,64.500 z" fill="#FFFFFF" opacity="0.102" />
<path id="Ellipse-8" d="M381.000,32.000 C385.971,32.000 390.000,36.029 390.000,41.000 C390.000,45.971 385.971,50.000 381.000,50.000 C376.029,50.000 372.000,45.971 372.000,41.000 C372.000,36.029 376.029,32.000 381.000,32.000 z" fill="#FFFFFF" opacity="0.200" />
<path id="Ellipse-8" d="M1087.000,14.000 C1091.971,14.000 1096.000,18.029 1096.000,23.000 C1096.000,27.971 1091.971,32.000 1087.000,32.000 C1082.029,32.000 1078.000,27.971 1078.000,23.000 C1078.000,18.029 1082.029,14.000 1087.000,14.000 z" fill="#FFFFFF" opacity="0.200" />
<path id="Ellipse-8" d="M1125.500,44.000 C1128.538,44.000 1131.000,46.462 1131.000,49.500 C1131.000,52.538 1128.538,55.000 1125.500,55.000 C1122.462,55.000 1120.000,52.538 1120.000,49.500 C1120.000,46.462 1122.462,44.000 1125.500,44.000 z" fill="#FFFFFF" opacity="0.200" />
<path id="Ellipse-8" d="M1086.500,55.000 C1087.881,55.000 1089.000,56.119 1089.000,57.500 C1089.000,58.881 1087.881,60.000 1086.500,60.000 C1085.119,60.000 1084.000,58.881 1084.000,57.500 C1084.000,56.119 1085.119,55.000 1086.500,55.000 z" fill="#FFFFFF" opacity="0.200" />
<path id="Ellipse-8" d="M352.500,42.000 C353.881,42.000 355.000,43.119 355.000,44.500 C355.000,45.881 353.881,47.000 352.500,47.000 C351.119,47.000 350.000,45.881 350.000,44.500 C350.000,43.119 351.119,42.000 352.500,42.000 z" fill="#FFFFFF" opacity="0.200" />
<path id="Ellipse-8" d="M357.500,60.000 C358.881,60.000 360.000,61.119 360.000,62.500 C360.000,63.881 358.881,65.000 357.500,65.000 C356.119,65.000 355.000,63.881 355.000,62.500 C355.000,61.119 356.119,60.000 357.500,60.000 z" fill="#FFFFFF" opacity="0.200" />
<path id="Polygon-1" d="M345.000,18.000 L357.600,16.600 L359.000,4.000 L360.400,16.600 L373.000,18.000 L360.400,19.400 L359.000,32.000 L357.600,19.400 L345.000,18.000 z" fill="#FFFFFF" opacity="0.200" />
<path id="Polygon-1" d="M1114.000,14.000 L1126.600,12.600 L1128.000,-0.000 L1129.400,12.600 L1142.000,14.000 L1129.400,15.400 L1128.000,28.000 L1126.600,15.400 L1114.000,14.000 z" fill="#FFFFFF" opacity="0.200" />
</g>
</svg>
