<svg version="1.1" xmlns="http://www.w3.org/2000/svg" xmlns:xlink="http://www.w3.org/1999/xlink" width="160" height="194" viewBox="0 0 160 194">
<g id="shapes-mobile">
<path id="Rounded-Rectangl" d="M30.422,46.000 C30.422,46.000 37.234,46.000 37.234,46.000 C39.167,46.000 40.734,47.567 40.734,49.500 C40.734,51.433 39.167,53.000 37.234,53.000 C37.234,53.000 30.422,53.000 30.422,53.000 C28.489,53.000 26.922,51.433 26.922,49.500 C26.922,47.567 28.489,46.000 30.422,46.000 z" fill="#FFFFFF" opacity="0.102" />
<path id="Rounded-Rectangl" d="M131.578,168.000 C131.578,168.000 186.672,168.000 186.672,168.000 C189.019,168.000 190.922,169.903 190.922,172.250 C190.922,174.597 189.019,176.500 186.672,176.500 C186.672,176.500 131.578,176.500 131.578,176.500 C129.231,176.500 127.328,174.597 127.328,172.250 C127.328,169.903 129.231,168.000 131.578,168.000 z" fill="#FFFFFF" opacity="0.102" />
<path id="Rounded-Rectangl" d="M119.844,185.000 C119.844,185.000 174.953,185.000 174.953,185.000 C177.300,185.000 179.203,186.903 179.203,189.250 C179.203,191.597 177.300,193.500 174.953,193.500 C174.953,193.500 119.844,193.500 119.844,193.500 C117.497,193.500 115.594,191.597 115.594,189.250 C115.594,186.903 117.497,185.000 119.844,185.000 z" fill="#FFFFFF" opacity="0.102" />
<path id="Rounded-Rectangl" d="M161.906,180.750 C161.906,183.097 163.809,185.000 166.156,185.000 C166.156,185.000 145.344,185.000 145.344,185.000 C147.691,185.000 149.594,183.097 149.594,180.750 C149.594,178.403 147.691,176.500 145.344,176.500 C145.344,176.500 166.156,176.500 166.156,176.500 C163.809,176.500 161.906,178.403 161.906,180.750 z" fill="#FFFFFF" opacity="0.102" />
<path id="Rounded-Rectangl" d="M-35.234,46.000 C-35.234,46.000 18.906,46.000 18.906,46.000 C20.839,46.000 22.406,47.567 22.406,49.500 C22.406,51.433 20.839,53.000 18.906,53.000 C18.906,53.000 -35.234,53.000 -35.234,53.000 C-37.167,53.000 -38.734,51.433 -38.734,49.500 C-38.734,47.567 -37.167,46.000 -35.234,46.000 z" fill="#FFFFFF" opacity="0.102" />
<path id="Rounded-Rectangl" d="M-23.328,60.000 C-23.328,60.000 14.156,60.000 14.156,60.000 C16.089,60.000 17.656,61.567 17.656,63.500 C17.656,65.433 16.089,67.000 14.156,67.000 C14.156,67.000 -23.328,67.000 -23.328,67.000 C-25.261,67.000 -26.828,65.433 -26.828,63.500 C-26.828,61.567 -25.261,60.000 -23.328,60.000 z" fill="#FFFFFF" opacity="0.102" />
<path id="Rounded-Rectangl" d="M8.375,56.496 C8.375,56.496 8.375,56.504 8.375,56.504 C8.375,58.435 9.940,60.000 11.871,60.000 C11.871,60.000 -9.871,60.000 -9.871,60.000 C-7.940,60.000 -6.375,58.435 -6.375,56.504 C-6.375,56.504 -6.375,56.496 -6.375,56.496 C-6.375,54.565 -7.940,53.000 -9.871,53.000 C-9.871,53.000 11.871,53.000 11.871,53.000 C9.940,53.000 8.375,54.565 8.375,56.496 z" fill="#FFFFFF" opacity="0.102" />
<path id="Ellipse-8" d="M13.609,9.484 C15.292,9.484 16.656,10.849 16.656,12.531 C16.656,14.214 15.292,15.578 13.609,15.578 C11.927,15.578 10.562,14.214 10.562,12.531 C10.562,10.849 11.927,9.484 13.609,9.484 z" fill="#FFFFFF" opacity="0.200" />
<path id="Ellipse-8" d="M-4.648,92.156 C-2.970,92.156 -1.609,93.520 -1.609,95.203 C-1.609,96.886 -2.970,98.250 -4.648,98.250 C-6.327,98.250 -7.687,96.886 -7.687,95.203 C-7.687,93.520 -6.327,92.156 -4.648,92.156 z" fill="#FFFFFF" opacity="0.200" />
<path id="Ellipse-8" d="M140.938,10.156 C142.620,10.156 143.984,11.524 143.984,13.211 C143.984,14.898 142.620,16.266 140.938,16.266 C139.255,16.266 137.891,14.898 137.891,13.211 C137.891,11.524 139.255,10.156 140.938,10.156 z" fill="#FFFFFF" opacity="0.200" />
<path id="Ellipse-8" d="M160.508,117.266 C162.186,117.266 163.547,118.630 163.547,120.313 C163.547,121.995 162.186,123.359 160.508,123.359 C158.829,123.359 157.469,121.995 157.469,120.313 C157.469,118.630 158.829,117.266 160.508,117.266 z" fill="#FFFFFF" opacity="0.200" />
<path id="Ellipse-8" d="M152.953,20.328 C153.980,20.328 154.812,21.161 154.812,22.188 C154.812,23.214 153.980,24.047 152.953,24.047 C151.926,24.047 151.094,23.214 151.094,22.188 C151.094,21.161 151.926,20.328 152.953,20.328 z" fill="#FFFFFF" opacity="0.200" />
<path id="Ellipse-8" d="M-15.641,88.422 C-14.614,88.422 -13.781,89.258 -13.781,90.289 C-13.781,91.320 -14.614,92.156 -15.641,92.156 C-16.668,92.156 -17.500,91.320 -17.500,90.289 C-17.500,89.258 -16.668,88.422 -15.641,88.422 z" fill="#FFFFFF" opacity="0.200" />
<path id="Ellipse-8" d="M19.531,130.766 C20.558,130.766 21.391,131.602 21.391,132.633 C21.391,133.664 20.558,134.500 19.531,134.500 C18.504,134.500 17.672,133.664 17.672,132.633 C17.672,131.602 18.504,130.766 19.531,130.766 z" fill="#FFFFFF" opacity="0.200" />
<path id="Ellipse-8" d="M283.609,75.219 C284.636,75.219 285.469,76.051 285.469,77.078 C285.469,78.105 284.636,78.937 283.609,78.937 C282.582,78.937 281.750,78.105 281.750,77.078 C281.750,76.051 282.582,75.219 283.609,75.219 z" fill="#FFFFFF" opacity="0.200" />
<path id="Ellipse-8" d="M309.641,56.922 C310.668,56.922 311.500,57.754 311.500,58.781 C311.500,59.808 310.668,60.641 309.641,60.641 C308.614,60.641 307.781,59.808 307.781,58.781 C307.781,57.754 308.614,56.922 309.641,56.922 z" fill="#FFFFFF" opacity="0.200" />
<path id="Ellipse-8" d="M305.250,53.875 C305.716,53.875 306.094,54.253 306.094,54.719 C306.094,55.185 305.716,55.563 305.250,55.563 C304.784,55.563 304.406,55.185 304.406,54.719 C304.406,54.253 304.784,53.875 305.250,53.875 z" fill="#FFFFFF" opacity="0.200" />
<path id="Ellipse-8" d="M276.164,66.406 C276.634,66.406 277.016,66.784 277.016,67.250 C277.016,67.716 276.634,68.094 276.164,68.094 C275.694,68.094 275.312,67.716 275.312,67.250 C275.312,66.784 275.694,66.406 276.164,66.406 z" fill="#FFFFFF" opacity="0.200" />
<path id="Ellipse-8" d="M149.820,120.156 C150.291,120.156 150.672,120.534 150.672,121.000 C150.672,121.466 150.291,121.844 149.820,121.844 C149.350,121.844 148.969,121.466 148.969,121.000 C148.969,120.534 149.350,120.156 149.820,120.156 z" fill="#FFFFFF" opacity="0.200" />
<path id="Ellipse-8" d="M192.648,81.984 C193.119,81.984 193.500,82.366 193.500,82.836 C193.500,83.306 193.119,83.688 192.648,83.688 C192.178,83.688 191.797,83.306 191.797,82.836 C191.797,82.366 192.178,81.984 192.648,81.984 z" fill="#FFFFFF" opacity="0.200" />
<path id="Ellipse-8" d="M143.766,21.547 C144.232,21.547 144.609,21.928 144.609,22.398 C144.609,22.869 144.232,23.250 143.766,23.250 C143.300,23.250 142.922,22.869 142.922,22.398 C142.922,21.928 143.300,21.547 143.766,21.547 z" fill="#FFFFFF" opacity="0.200" />
<path id="Ellipse-8" d="M-2.453,9.484 C-1.987,9.484 -1.609,9.866 -1.609,10.336 C-1.609,10.806 -1.987,11.188 -2.453,11.188 C-2.919,11.188 -3.297,10.806 -3.297,10.336 C-3.297,9.866 -2.919,9.484 -2.453,9.484 z" fill="#FFFFFF" opacity="0.200" />
<path id="Ellipse-8" d="M5.656,18.969 C6.122,18.969 6.500,19.350 6.500,19.820 C6.500,20.291 6.122,20.672 5.656,20.672 C5.190,20.672 4.812,20.291 4.812,19.820 C4.812,19.350 5.190,18.969 5.656,18.969 z" fill="#FFFFFF" opacity="0.200" />
<path id="Ellipse-8" d="M15.469,124.672 C15.935,124.672 16.313,125.053 16.313,125.523 C16.313,125.994 15.935,126.375 15.469,126.375 C15.003,126.375 14.625,125.994 14.625,125.523 C14.625,125.053 15.003,124.672 15.469,124.672 z" fill="#FFFFFF" opacity="0.200" />
<path id="Ellipse-8" d="M-13.609,101.641 C-13.143,101.641 -12.766,102.018 -12.766,102.484 C-12.766,102.950 -13.143,103.328 -13.609,103.328 C-14.075,103.328 -14.453,102.950 -14.453,102.484 C-14.453,102.018 -14.075,101.641 -13.609,101.641 z" fill="#FFFFFF" opacity="0.200" />
<path id="Ellipse-8" d="M185.547,90.125 C186.013,90.125 186.391,90.503 186.391,90.969 C186.391,91.435 186.013,91.813 185.547,91.813 C185.081,91.813 184.703,91.435 184.703,90.969 C184.703,90.503 185.081,90.125 185.547,90.125 z" fill="#FFFFFF" opacity="0.200" />
<path id="Polygon-1" d="M1.435,4.743 L5.696,4.269 L6.169,-0.000 L6.642,4.269 L10.903,4.743 L6.642,5.217 L6.169,9.486 L5.696,5.217 L1.435,4.743 z" fill="#FFFFFF" opacity="0.200" />
<path id="Polygon-1" d="M20.709,126.708 L24.969,126.233 L25.442,121.965 L25.916,126.233 L30.176,126.708 L25.916,127.182 L25.442,131.451 L24.969,127.182 L20.709,126.708 z" fill="#FFFFFF" opacity="0.200" />
<path id="Polygon-1" d="M150.388,111.181 L154.649,110.707 L155.122,106.438 L155.596,110.707 L159.856,111.181 L155.596,111.656 L155.122,115.924 L154.649,111.656 L150.388,111.181 z" fill="#FFFFFF" opacity="0.200" />
<path id="Polygon-1" d="M150.068,10.164 L154.329,9.689 L154.802,5.421 L155.276,9.689 L159.536,10.164 L155.276,10.638 L154.802,14.907 L154.329,10.638 L150.068,10.164 z" fill="#FFFFFF" opacity="0.200" />
</g>
</svg>
