<svg version="1.1" xmlns="http://www.w3.org/2000/svg" xmlns:xlink="http://www.w3.org/1999/xlink" width="32" height="32" viewBox="0 0 32 32">
<path id="academiclevel" d="M30.870,32.000 C30.870,32.000 23.644,32.000 23.644,32.000 C23.021,32.000 22.514,31.485 22.514,30.852 C22.514,30.852 22.514,1.148 22.514,1.148 C22.514,0.515 23.021,-0.000 23.644,-0.000 C23.644,-0.000 30.870,-0.000 30.870,-0.000 C31.493,-0.000 32.000,0.515 32.000,1.148 C32.000,1.148 32.000,30.852 32.000,30.852 C32.000,31.485 31.493,32.000 30.870,32.000 zM31.442,20.330 C31.442,20.330 29.176,20.330 29.176,20.330 C29.022,20.330 28.897,20.203 28.897,20.047 C28.897,19.890 29.022,19.763 29.176,19.763 C29.176,19.763 31.442,19.763 31.442,19.763 C31.442,19.763 31.442,1.148 31.442,1.148 C31.442,0.827 31.186,0.566 30.870,0.566 C30.870,0.566 23.644,0.566 23.644,0.566 C23.328,0.566 23.071,0.827 23.071,1.148 C23.071,1.148 23.071,11.770 23.071,11.770 C23.071,11.770 28.214,11.770 28.214,11.770 C28.368,11.770 28.493,11.896 28.493,12.053 C28.493,12.209 28.368,12.336 28.214,12.336 C28.214,12.336 23.071,12.336 23.071,12.336 L23.071,26.780 C23.071,26.780 29.744,26.780 29.744,26.780 C29.898,26.780 30.023,26.907 30.023,27.063 C30.023,27.220 29.898,27.346 29.744,27.346 C29.744,27.346 23.071,27.346 23.071,27.346 C23.071,27.346 23.071,30.852 23.071,30.852 C23.071,31.173 23.328,31.434 23.644,31.434 C23.644,31.434 30.870,31.434 30.870,31.434 C31.186,31.434 31.443,31.173 31.442,30.852 C31.442,30.852 31.442,20.330 31.442,20.330 zM19.613,32.000 C19.613,32.000 12.387,32.000 12.387,32.000 C11.764,32.000 11.257,31.485 11.257,30.852 C11.257,30.852 11.257,7.455 11.257,7.455 C11.257,6.822 11.764,6.307 12.387,6.307 C12.387,6.307 19.613,6.307 19.613,6.307 C20.236,6.307 20.743,6.822 20.743,7.455 C20.743,7.455 20.743,30.852 20.743,30.852 C20.743,31.485 20.236,32.000 19.613,32.000 zM20.186,22.950 C20.186,22.950 17.855,22.950 17.855,22.950 C17.701,22.950 17.576,22.823 17.576,22.667 C17.576,22.510 17.701,22.384 17.855,22.384 C17.855,22.384 20.186,22.384 20.186,22.384 L20.186,19.175 C20.186,19.175 14.096,19.175 14.096,19.175 C13.942,19.175 13.817,19.048 13.817,18.892 C13.817,18.736 13.942,18.609 14.096,18.609 C14.096,18.609 20.186,18.609 20.186,18.609 C20.186,18.609 20.186,7.455 20.186,7.455 C20.186,7.135 19.929,6.873 19.613,6.873 C19.613,6.873 12.387,6.873 12.387,6.873 C12.071,6.873 11.814,7.135 11.814,7.455 C11.814,7.455 11.814,27.136 11.814,27.136 C11.814,27.136 15.320,27.136 15.320,27.136 C15.474,27.136 15.598,27.262 15.598,27.419 C15.598,27.575 15.474,27.702 15.320,27.702 C15.320,27.702 11.814,27.702 11.814,27.702 C11.814,27.702 11.814,30.852 11.814,30.852 C11.814,31.173 12.071,31.434 12.387,31.434 C12.387,31.434 19.613,31.434 19.613,31.434 C19.929,31.434 20.186,31.173 20.186,30.852 C20.186,30.852 20.186,22.950 20.186,22.950 zM8.356,32.000 C8.356,32.000 1.130,32.000 1.130,32.000 C0.507,32.000 -0.000,31.485 -0.000,30.852 C-0.000,30.852 -0.000,13.763 -0.000,13.763 C-0.000,13.130 0.507,12.615 1.130,12.615 C1.130,12.615 8.356,12.615 8.356,12.615 C8.979,12.615 9.486,13.130 9.486,13.763 C9.486,13.763 9.486,30.852 9.486,30.852 C9.486,31.485 8.979,32.000 8.356,32.000 zM8.929,29.922 C8.929,29.922 2.993,29.922 2.993,29.922 C2.839,29.922 2.714,29.795 2.714,29.639 C2.714,29.483 2.839,29.356 2.993,29.356 C2.993,29.356 8.929,29.356 8.929,29.356 L8.929,26.636 C8.929,26.636 7.320,26.636 7.320,26.636 C7.167,26.636 7.042,26.509 7.042,26.353 C7.042,26.196 7.167,26.070 7.320,26.070 C7.320,26.070 8.929,26.070 8.929,26.070 C8.929,26.070 8.929,13.763 8.929,13.763 C8.929,13.442 8.672,13.181 8.356,13.181 C8.356,13.181 1.130,13.181 1.130,13.181 C0.814,13.181 0.557,13.442 0.557,13.763 C0.557,13.763 0.557,23.938 0.557,23.938 C0.557,23.938 5.397,23.938 5.397,23.938 C5.551,23.938 5.676,24.065 5.676,24.221 C5.676,24.378 5.551,24.504 5.397,24.504 C5.397,24.504 0.557,24.504 0.557,24.504 C0.557,24.504 0.557,30.852 0.557,30.852 C0.557,31.173 0.814,31.434 1.130,31.434 C1.130,31.434 8.356,31.434 8.356,31.434 C8.672,31.434 8.929,31.173 8.929,30.852 C8.929,30.852 8.929,29.922 8.929,29.922 z" fill="#FFFFFF" />
</svg>
