<svg version="1.1" xmlns="http://www.w3.org/2000/svg" xmlns:xlink="http://www.w3.org/1999/xlink" width="78" height="62" viewBox="0 0 78 62">
<path id="iconarrow" d="M77.906,30.521 C77.919,30.552 77.916,30.587 77.926,30.619 C77.964,30.735 77.999,30.853 77.999,30.981 C77.999,31.311 77.863,31.610 77.644,31.825 C77.644,31.825 47.684,61.649 47.684,61.649 C47.452,61.883 47.146,61.999 46.840,61.999 C46.534,61.999 46.228,61.883 45.994,61.652 C45.528,61.188 45.528,60.434 45.994,59.970 C45.994,59.970 73.918,32.171 73.918,32.171 C73.918,32.171 1.195,32.171 1.195,32.171 C0.535,32.171 -0.000,31.637 -0.000,30.981 C-0.000,30.324 0.535,29.791 1.195,29.791 C1.195,29.791 73.922,29.791 73.922,29.791 C73.922,29.791 45.994,1.997 45.994,1.997 C45.528,1.533 45.528,0.779 45.994,0.315 C46.460,-0.149 47.218,-0.149 47.684,0.315 C47.684,0.315 77.648,30.136 77.648,30.136 C77.705,30.192 77.734,30.264 77.778,30.329 C77.821,30.393 77.876,30.449 77.906,30.521 z" fill="#ff4141" />
</svg>
