<svg version="1.1" xmlns="http://www.w3.org/2000/svg" xmlns:xlink="http://www.w3.org/1999/xlink" width="33" height="42" viewBox="0 0 33 42">
<path id="icomwriter" d="M-0.000,42.000 L-0.000,-0.001 L22.759,-0.001 L33.000,10.209 L33.000,42.000 L-0.000,42.000 zM23.170,2.390 L23.170,9.799 L30.603,9.799 L23.170,2.390 zM31.595,11.200 L21.766,11.200 L21.766,1.399 L1.404,1.399 L1.404,40.600 L31.595,40.600 L31.595,11.200 zM7.723,9.799 C7.723,9.799 14.744,9.799 14.744,9.799 C15.132,9.799 15.447,10.112 15.447,10.500 C15.447,10.887 15.132,11.200 14.744,11.200 C14.744,11.200 7.723,11.200 7.723,11.200 C7.336,11.200 7.021,10.887 7.021,10.500 C7.021,10.112 7.336,9.799 7.723,9.799 zM7.723,15.400 C7.723,15.400 25.276,15.400 25.276,15.400 C25.664,15.400 25.979,15.712 25.979,16.099 C25.979,16.487 25.664,16.799 25.276,16.799 C25.276,16.799 7.723,16.799 7.723,16.799 C7.336,16.799 7.021,16.487 7.021,16.099 C7.021,15.712 7.336,15.400 7.723,15.400 zM7.723,20.999 C7.723,20.999 25.276,20.999 25.276,20.999 C25.664,20.999 25.979,21.312 25.979,21.700 C25.979,22.087 25.664,22.399 25.276,22.399 C25.276,22.399 7.723,22.399 7.723,22.399 C7.336,22.399 7.021,22.087 7.021,21.700 C7.021,21.312 7.336,20.999 7.723,20.999 zM7.723,26.599 C7.723,26.599 25.276,26.599 25.276,26.599 C25.664,26.599 25.979,26.912 25.979,27.300 C25.979,27.687 25.664,28.000 25.276,28.000 C25.276,28.000 7.723,28.000 7.723,28.000 C7.336,28.000 7.021,27.687 7.021,27.300 C7.021,26.912 7.336,26.599 7.723,26.599 zM7.723,32.200 C7.723,32.200 25.276,32.200 25.276,32.200 C25.664,32.200 25.979,32.512 25.979,32.899 C25.979,33.286 25.664,33.600 25.276,33.600 C25.276,33.600 7.723,33.600 7.723,33.600 C7.336,33.600 7.021,33.286 7.021,32.899 C7.021,32.512 7.336,32.200 7.723,32.200 z" fill="#F3A43D" />
</svg>
