<svg version="1.1" xmlns="http://www.w3.org/2000/svg" xmlns:xlink="http://www.w3.org/1999/xlink" width="61" height="61" viewBox="0 0 61 61">
<path id="icondelivery" d="M30.500,60.999 C13.682,60.999 -0.000,47.317 -0.000,30.500 C-0.000,13.681 13.682,-0.001 30.500,-0.001 C47.318,-0.001 61.000,13.681 61.000,30.500 C61.000,47.317 47.318,60.999 30.500,60.999 zM30.500,2.032 C14.804,2.032 2.033,14.804 2.033,30.500 C2.033,46.196 14.804,58.966 30.500,58.966 C46.196,58.966 58.967,46.196 58.967,30.500 C58.967,14.804 46.196,2.032 30.500,2.032 zM52.867,31.393 C52.867,31.393 51.850,31.393 51.850,31.393 C51.288,31.393 50.833,30.939 50.833,30.376 C50.833,29.814 51.288,29.359 51.850,29.359 C51.850,29.359 52.867,29.359 52.867,29.359 C53.427,29.359 53.883,29.814 53.883,30.376 C53.883,30.939 53.427,31.393 52.867,31.393 zM46.315,47.209 C46.055,47.209 45.795,47.108 45.596,46.910 C45.596,46.910 44.878,46.192 44.878,46.192 C44.480,45.794 44.480,45.151 44.878,44.755 C45.275,44.357 45.918,44.357 46.315,44.755 C46.315,44.755 47.034,45.473 47.034,45.473 C47.431,45.870 47.431,46.513 47.034,46.910 C46.835,47.108 46.575,47.209 46.315,47.209 zM46.315,15.998 C46.117,16.196 45.857,16.296 45.596,16.296 C45.336,16.296 45.076,16.196 44.878,15.998 C44.480,15.600 44.480,14.958 44.878,14.560 C44.878,14.560 45.596,13.842 45.596,13.842 C45.994,13.445 46.636,13.444 47.034,13.842 C47.431,14.239 47.431,14.882 47.034,15.279 C47.034,15.279 46.315,15.998 46.315,15.998 zM30.500,34.443 C28.611,34.443 27.032,33.142 26.578,31.393 C26.578,31.393 19.317,31.393 19.317,31.393 C18.755,31.393 18.300,30.939 18.300,30.376 C18.300,29.814 18.755,29.359 19.317,29.359 C19.317,29.359 26.578,29.359 26.578,29.359 C26.948,27.937 28.061,26.824 29.483,26.454 C29.483,26.454 29.483,16.144 29.483,16.144 C29.483,15.581 29.938,15.126 30.500,15.126 C31.061,15.126 31.517,15.581 31.517,16.144 C31.517,16.144 31.517,26.454 31.517,26.454 C33.265,26.909 34.567,28.486 34.567,30.376 C34.567,32.619 32.743,34.443 30.500,34.443 zM30.500,28.343 C29.378,28.343 28.467,29.255 28.467,30.376 C28.467,31.497 29.378,32.409 30.500,32.409 C31.622,32.409 32.533,31.497 32.533,30.376 C32.533,29.255 31.622,28.343 30.500,28.343 zM30.500,10.043 C29.938,10.043 29.483,9.589 29.483,9.027 C29.483,9.027 29.483,8.009 29.483,8.009 C29.483,7.448 29.938,6.993 30.500,6.993 C31.061,6.993 31.517,7.448 31.517,8.009 C31.517,8.009 31.517,9.027 31.517,9.027 C31.517,9.589 31.061,10.043 30.500,10.043 zM15.403,46.910 C15.205,47.108 14.945,47.209 14.685,47.209 C14.424,47.209 14.164,47.108 13.966,46.910 C13.568,46.513 13.568,45.870 13.966,45.473 C13.966,45.473 14.685,44.755 14.685,44.755 C15.081,44.358 15.725,44.357 16.122,44.755 C16.519,45.151 16.519,45.794 16.122,46.192 C16.122,46.192 15.403,46.910 15.403,46.910 zM15.403,16.296 C15.143,16.296 14.883,16.196 14.685,15.998 C14.685,15.998 13.966,15.279 13.966,15.279 C13.568,14.882 13.568,14.239 13.966,13.842 C14.364,13.444 15.006,13.444 15.403,13.842 C15.403,13.842 16.122,14.560 16.122,14.560 C16.519,14.958 16.519,15.600 16.122,15.998 C15.924,16.196 15.664,16.296 15.403,16.296 zM30.500,50.709 C31.061,50.709 31.517,51.164 31.517,51.727 C31.517,51.727 31.517,52.744 31.517,52.744 C31.517,53.305 31.061,53.760 30.500,53.760 C29.938,53.760 29.483,53.305 29.483,52.744 C29.483,52.744 29.483,51.727 29.483,51.727 C29.483,51.164 29.938,50.709 30.500,50.709 zM9.150,31.393 C9.150,31.393 8.133,31.393 8.133,31.393 C7.572,31.393 7.117,30.939 7.117,30.376 C7.117,29.814 7.572,29.359 8.133,29.359 C8.133,29.359 9.150,29.359 9.150,29.359 C9.711,29.359 10.167,29.814 10.167,30.376 C10.167,30.939 9.711,31.393 9.150,31.393 z" fill="#42B574" />
</svg>
