<svg version="1.1" xmlns="http://www.w3.org/2000/svg" xmlns:xlink="http://www.w3.org/1999/xlink" width="28" height="21" viewBox="0 0 28 21">
<path id="icondelivery-1" d="M27.762,9.926 C26.921,8.781 26.080,8.781 24.025,9.879 C24.025,9.879 23.370,10.290 23.370,10.290 C23.370,10.290 23.370,1.909 23.370,1.909 C23.370,1.417 23.186,0.967 22.885,0.629 C22.865,0.591 22.840,0.555 22.810,0.525 C22.680,0.408 22.540,0.310 22.391,0.230 C22.391,0.230 22.390,0.230 22.390,0.230 C22.375,0.222 22.360,0.214 22.343,0.206 C22.115,0.087 21.861,0.015 21.591,0.002 C21.561,0.000 21.531,-0.001 21.502,-0.001 C21.502,-0.001 6.553,-0.001 6.553,-0.001 C6.524,-0.001 6.494,0.000 6.464,0.002 C5.477,0.049 4.684,0.888 4.684,1.909 C4.684,1.909 4.684,8.798 4.684,8.798 C4.141,9.056 3.655,9.347 3.283,9.590 C3.283,9.590 3.283,8.590 3.283,8.590 L0.013,8.590 L0.013,21.000 L3.283,21.000 L3.283,19.568 C3.283,19.568 9.356,19.568 9.356,19.568 C10.290,19.568 11.272,19.472 12.205,19.425 C12.205,19.425 18.279,18.470 18.279,18.470 C18.512,18.470 18.746,18.422 18.932,18.374 C19.493,18.279 20.007,17.993 20.475,17.563 C20.475,17.563 27.529,11.836 27.529,11.836 C28.089,11.359 28.182,10.500 27.762,9.926 zM20.533,12.077 C20.533,12.077 19.960,12.409 19.960,12.409 C19.407,12.739 18.172,12.836 17.018,12.838 C17.251,12.409 17.158,11.884 16.737,11.263 C15.990,10.165 14.729,9.498 13.374,9.498 C13.374,9.498 13.326,9.498 13.326,9.498 C13.326,9.498 11.552,9.498 11.552,9.498 C10.571,9.498 9.636,9.210 8.889,8.638 C8.460,8.310 7.970,8.156 7.456,8.123 C7.374,8.117 7.292,8.113 7.207,8.113 C6.740,8.113 6.226,8.209 5.619,8.400 C5.619,8.400 5.619,1.909 5.619,1.909 C5.619,1.797 5.639,1.689 5.674,1.589 C5.674,1.589 12.813,8.113 12.813,8.113 C13.186,8.448 13.607,8.590 14.027,8.590 C14.448,8.590 14.869,8.448 15.242,8.161 C15.242,8.161 22.381,1.589 22.381,1.589 C22.416,1.688 22.436,1.796 22.436,1.909 C22.436,1.909 22.436,10.879 22.436,10.879 L20.533,12.077 zM21.455,0.954 C21.468,0.954 21.485,0.954 21.502,0.954 C21.546,0.954 21.589,0.958 21.631,0.964 C21.631,0.964 14.635,7.398 14.635,7.398 C14.308,7.684 13.794,7.684 13.467,7.398 C13.467,7.398 6.424,0.964 6.424,0.964 C6.467,0.958 6.509,0.954 6.553,0.954 C6.553,0.954 21.455,0.954 21.455,0.954 zM2.349,20.045 L0.947,20.045 L0.947,9.545 L2.349,9.545 L2.349,10.261 L2.349,19.568 L2.349,20.045 zM26.968,11.168 C26.968,11.168 19.867,16.800 19.867,16.800 C19.867,16.800 19.820,16.847 19.820,16.847 C19.540,17.181 19.167,17.372 18.746,17.420 C18.559,17.467 18.419,17.467 18.232,17.467 C18.232,17.467 12.065,18.422 12.065,18.422 C11.178,18.565 10.244,18.614 9.356,18.614 C9.356,18.614 3.283,18.614 3.283,18.614 C3.283,18.614 3.283,10.738 3.283,10.738 C3.736,10.410 4.432,9.967 5.188,9.622 C5.240,9.618 5.291,9.609 5.339,9.593 C6.272,9.163 7.535,8.829 8.328,9.450 C9.216,10.118 10.337,10.500 11.552,10.500 C11.552,10.500 13.374,10.500 13.374,10.500 C14.448,10.500 15.382,10.976 15.990,11.884 C16.218,12.164 16.267,12.443 16.226,12.545 C16.225,12.547 16.224,12.550 16.223,12.552 C16.180,12.626 16.097,12.685 15.984,12.735 C15.981,12.735 15.980,12.737 15.977,12.738 C15.964,12.744 15.948,12.749 15.933,12.755 C15.920,12.759 15.907,12.765 15.894,12.769 C15.889,12.771 15.885,12.773 15.880,12.773 C15.805,12.799 15.719,12.822 15.622,12.842 C15.621,12.842 15.621,12.842 15.621,12.843 C15.589,12.849 15.556,12.855 15.523,12.861 C15.517,12.862 15.511,12.863 15.505,12.864 C15.475,12.869 15.445,12.874 15.413,12.878 C15.407,12.879 15.400,12.881 15.392,12.882 C15.238,12.904 15.063,12.921 14.869,12.934 C14.717,12.934 14.569,12.934 14.448,12.934 C14.432,12.934 14.416,12.934 14.401,12.934 C14.401,12.934 9.917,12.934 9.917,12.934 C8.468,12.934 7.580,13.650 7.580,14.843 C7.580,15.129 7.768,15.320 8.048,15.320 C8.328,15.320 8.515,15.129 8.515,14.843 C8.515,14.604 8.515,13.888 9.916,13.888 C9.916,13.888 14.354,13.888 14.354,13.888 C14.383,13.888 14.415,13.888 14.448,13.888 C14.557,13.888 14.693,13.888 14.869,13.888 C14.898,13.888 14.930,13.888 14.962,13.888 C15.009,13.888 15.102,13.888 15.195,13.888 C17.391,13.935 19.447,13.888 20.521,13.315 C20.521,13.315 24.538,10.786 24.538,10.786 C26.501,9.784 26.687,10.022 27.061,10.595 C27.154,10.738 27.154,11.025 26.968,11.168 z" fill="#FFFFFF" />
</svg>
