<svg version="1.1" xmlns="http://www.w3.org/2000/svg" xmlns:xlink="http://www.w3.org/1999/xlink" width="19" height="24" viewBox="0 0 19 24">
<path id="icon-topic" d="M-0.000,24.000 L-0.000,-0.000 L13.104,-0.000 L19.000,5.834 L19.000,24.000 L-0.000,24.000 zM13.340,1.366 L13.340,5.600 L17.620,5.600 L13.340,1.366 zM18.191,6.400 L12.532,6.400 L12.532,0.800 L0.808,0.800 L0.808,23.200 L18.191,23.200 L18.191,6.400 zM4.328,8.117 C4.328,8.117 4.881,8.664 4.881,8.664 C4.881,8.664 6.620,7.288 6.620,7.288 C6.794,7.150 7.049,7.177 7.188,7.350 C7.327,7.522 7.299,7.774 7.125,7.912 C7.125,7.912 5.103,9.512 5.103,9.512 C5.029,9.571 4.940,9.600 4.851,9.600 C4.747,9.600 4.644,9.560 4.565,9.483 C4.565,9.483 3.757,8.683 3.757,8.683 C3.599,8.526 3.599,8.274 3.757,8.117 C3.915,7.961 4.170,7.961 4.328,8.117 zM4.328,12.517 C4.328,12.517 4.881,13.064 4.881,13.064 C4.881,13.064 6.620,11.688 6.620,11.688 C6.794,11.550 7.049,11.577 7.188,11.750 C7.327,11.922 7.299,12.174 7.125,12.312 C7.125,12.312 5.103,13.912 5.103,13.912 C5.029,13.971 4.940,14.000 4.851,14.000 C4.747,14.000 4.644,13.960 4.565,13.883 C4.565,13.883 3.757,13.083 3.757,13.083 C3.599,12.926 3.599,12.674 3.757,12.517 C3.915,12.361 4.170,12.361 4.328,12.517 zM4.328,16.917 C4.328,16.917 4.881,17.464 4.881,17.464 C4.881,17.464 6.620,16.088 6.620,16.088 C6.794,15.950 7.049,15.977 7.188,16.150 C7.327,16.322 7.299,16.574 7.125,16.712 C7.125,16.712 5.103,18.312 5.103,18.312 C5.029,18.371 4.940,18.400 4.851,18.400 C4.747,18.400 4.644,18.360 4.565,18.283 C4.565,18.283 3.757,17.483 3.757,17.483 C3.599,17.326 3.599,17.074 3.757,16.917 C3.915,16.761 4.170,16.761 4.328,16.917 zM8.085,8.400 C8.085,8.400 14.553,8.400 14.553,8.400 C14.776,8.400 14.957,8.579 14.957,8.800 C14.957,9.021 14.776,9.200 14.553,9.200 C14.553,9.200 8.085,9.200 8.085,9.200 C7.862,9.200 7.681,9.021 7.681,8.800 C7.681,8.579 7.862,8.400 8.085,8.400 zM8.085,12.800 C8.085,12.800 14.553,12.800 14.553,12.800 C14.776,12.800 14.957,12.979 14.957,13.200 C14.957,13.421 14.776,13.600 14.553,13.600 C14.553,13.600 8.085,13.600 8.085,13.600 C7.862,13.600 7.681,13.421 7.681,13.200 C7.681,12.979 7.862,12.800 8.085,12.800 zM8.085,17.200 C8.085,17.200 14.553,17.200 14.553,17.200 C14.776,17.200 14.957,17.379 14.957,17.600 C14.957,17.821 14.776,18.000 14.553,18.000 C14.553,18.000 8.085,18.000 8.085,18.000 C7.862,18.000 7.681,17.821 7.681,17.600 C7.681,17.379 7.862,17.200 8.085,17.200 z" fill="#FFFFFF" />
</svg>
