<svg version="1.1" xmlns="http://www.w3.org/2000/svg" xmlns:xlink="http://www.w3.org/1999/xlink" width="68" height="67" viewBox="0 0 68 67">
<path id="iconconfidential" d="M67.690,55.645 C67.690,55.645 63.521,59.889 63.521,59.889 C63.521,59.889 64.397,65.771 64.397,65.771 C64.456,66.165 64.291,66.559 63.968,66.794 C63.782,66.929 63.561,66.998 63.339,66.998 C63.177,66.998 63.013,66.961 62.863,66.886 C62.863,66.886 57.536,64.235 57.536,64.235 C57.536,64.235 52.209,66.886 52.209,66.886 C51.853,67.063 51.426,67.028 51.104,66.794 C50.781,66.560 50.615,66.165 50.674,65.772 C50.674,65.772 51.551,59.889 51.551,59.889 C51.551,59.889 47.382,55.645 47.382,55.645 C47.103,55.361 47.005,54.945 47.128,54.566 C47.251,54.187 47.575,53.908 47.968,53.842 C47.968,53.842 53.837,52.857 53.837,52.857 C53.837,52.857 56.588,47.584 56.588,47.584 C56.772,47.230 57.138,47.008 57.536,47.008 C57.935,47.008 58.300,47.230 58.485,47.584 C58.485,47.584 61.235,52.857 61.235,52.857 C61.235,52.857 67.104,53.842 67.104,53.842 C67.497,53.908 67.821,54.187 67.944,54.566 C68.067,54.945 67.970,55.361 67.690,55.645 zM60.356,54.877 C60.025,54.822 59.739,54.615 59.584,54.317 C59.584,54.317 57.537,50.390 57.537,50.390 C57.537,50.390 55.489,54.317 55.489,54.317 C55.334,54.615 55.048,54.822 54.717,54.877 C54.717,54.877 50.347,55.611 50.347,55.611 C50.347,55.611 53.451,58.771 53.451,58.771 C53.686,59.010 53.796,59.346 53.746,59.678 C53.746,59.678 53.093,64.057 53.093,64.057 C53.093,64.057 57.059,62.084 57.059,62.084 C57.209,62.008 57.372,61.972 57.536,61.972 C57.699,61.972 57.863,62.008 58.013,62.084 C58.013,62.084 61.980,64.057 61.980,64.057 C61.980,64.057 61.327,59.678 61.327,59.678 C61.277,59.346 61.387,59.010 61.621,58.771 C61.621,58.771 64.725,55.611 64.725,55.611 C64.725,55.611 60.356,54.877 60.356,54.877 zM51.669,42.556 C51.669,42.556 25.840,42.556 25.840,42.556 C25.249,42.556 24.770,42.078 24.770,41.488 C24.770,40.896 25.249,40.418 25.840,40.418 C25.840,40.418 50.564,40.418 50.564,40.418 C50.012,32.029 43.007,25.373 34.475,25.373 C25.944,25.373 18.939,32.029 18.387,40.418 C18.387,40.418 21.561,40.418 21.561,40.418 C22.152,40.418 22.631,40.896 22.631,41.488 C22.631,42.078 22.152,42.556 21.561,42.556 C21.561,42.556 17.282,42.556 17.282,42.556 C16.691,42.556 16.212,42.078 16.212,41.488 C16.212,31.423 24.405,23.234 34.475,23.234 C44.547,23.234 52.740,31.423 52.740,41.488 C52.740,42.078 52.260,42.556 51.669,42.556 zM34.475,21.095 C28.655,21.095 23.919,16.364 23.919,10.546 C23.919,4.728 28.655,-0.004 34.475,-0.004 C40.296,-0.004 45.032,4.728 45.032,10.546 C45.032,16.364 40.296,21.095 34.475,21.095 zM34.475,2.134 C29.835,2.134 26.059,5.908 26.059,10.546 C26.059,15.184 29.835,18.958 34.475,18.958 C39.116,18.958 42.892,15.184 42.892,10.546 C42.892,5.908 39.116,2.134 34.475,2.134 zM34.475,15.393 C33.073,15.393 31.739,14.784 30.815,13.722 C30.428,13.277 30.475,12.602 30.921,12.214 C31.366,11.826 32.042,11.873 32.430,12.319 C32.947,12.915 33.693,13.256 34.475,13.256 C35.258,13.256 36.004,12.915 36.521,12.319 C36.909,11.873 37.585,11.826 38.030,12.214 C38.476,12.602 38.523,13.277 38.136,13.722 C37.212,14.785 35.878,15.393 34.475,15.393 zM20.983,53.842 C21.376,53.908 21.700,54.187 21.823,54.566 C21.947,54.945 21.848,55.360 21.568,55.645 C21.568,55.645 17.400,59.889 17.400,59.889 C17.400,59.889 18.277,65.771 18.277,65.771 C18.336,66.165 18.170,66.559 17.847,66.794 C17.661,66.929 17.441,66.998 17.219,66.998 C17.056,66.998 16.893,66.961 16.742,66.886 C16.742,66.886 11.415,64.235 11.415,64.235 C11.415,64.235 6.088,66.886 6.088,66.886 C5.731,67.063 5.305,67.028 4.982,66.794 C4.659,66.560 4.494,66.165 4.553,65.772 C4.553,65.772 5.429,59.889 5.429,59.889 C5.429,59.889 1.261,55.645 1.261,55.645 C0.981,55.361 0.884,54.945 1.007,54.566 C1.130,54.187 1.454,53.908 1.848,53.842 C1.848,53.842 7.716,52.857 7.716,52.857 C7.716,52.857 10.466,47.584 10.466,47.584 C10.651,47.230 11.016,47.008 11.415,47.008 C11.813,47.008 12.179,47.230 12.363,47.584 C12.363,47.584 15.114,52.857 15.114,52.857 L20.983,53.842 C20.983,53.842 20.983,53.842 20.983,53.842 zM14.234,54.877 C13.903,54.822 13.618,54.615 13.463,54.317 C13.463,54.317 11.415,50.390 11.415,50.390 C11.415,50.390 9.367,54.317 9.367,54.317 C9.212,54.615 8.926,54.822 8.595,54.877 C8.595,54.877 4.226,55.611 4.226,55.611 C4.226,55.611 7.330,58.771 7.330,58.771 C7.565,59.010 7.674,59.346 7.625,59.678 C7.625,59.678 6.971,64.057 6.971,64.057 C6.971,64.057 10.939,62.084 10.939,62.084 C11.238,61.934 11.591,61.934 11.892,62.084 C11.892,62.084 15.858,64.057 15.858,64.057 C15.858,64.057 15.205,59.678 15.205,59.678 C15.156,59.346 15.265,59.010 15.500,58.771 C15.500,58.771 18.604,55.611 18.604,55.611 C18.604,55.611 14.234,54.877 14.234,54.877 zM24.908,53.842 C24.908,53.842 30.777,52.857 30.777,52.857 C30.777,52.857 33.526,47.584 33.526,47.584 C33.711,47.230 34.076,47.008 34.475,47.008 C34.875,47.008 35.240,47.230 35.425,47.584 C35.425,47.584 38.175,52.857 38.175,52.857 L44.043,53.842 C44.043,53.842 44.043,53.842 44.043,53.842 C44.437,53.908 44.761,54.187 44.884,54.566 C45.007,54.945 44.909,55.360 44.630,55.645 C44.630,55.645 40.460,59.889 40.460,59.889 C40.460,59.889 41.337,65.771 41.337,65.771 C41.396,66.165 41.230,66.559 40.908,66.794 C40.722,66.929 40.501,66.998 40.279,66.998 C40.117,66.998 39.953,66.961 39.802,66.886 C39.802,66.886 34.475,64.235 34.475,64.235 C34.475,64.235 29.149,66.886 29.149,66.886 C28.791,67.063 28.365,67.028 28.043,66.794 C27.721,66.560 27.555,66.165 27.614,65.772 C27.614,65.772 28.491,59.889 28.491,59.889 C28.491,59.889 24.321,55.645 24.321,55.645 C24.042,55.361 23.944,54.945 24.068,54.566 C24.190,54.187 24.514,53.908 24.908,53.842 zM30.391,58.771 C30.626,59.010 30.735,59.346 30.685,59.678 C30.685,59.678 30.033,64.057 30.033,64.057 C30.033,64.057 33.999,62.084 33.999,62.084 C34.149,62.008 34.312,61.972 34.475,61.972 C34.639,61.972 34.802,62.008 34.952,62.084 C34.952,62.084 38.918,64.057 38.918,64.057 C38.918,64.057 38.266,59.678 38.266,59.678 C38.216,59.346 38.325,59.010 38.561,58.771 C38.561,58.771 38.561,58.771 38.561,58.771 L41.665,55.611 C41.665,55.611 37.296,54.877 37.296,54.877 C36.965,54.822 36.679,54.615 36.523,54.317 C36.523,54.317 34.475,50.390 34.475,50.390 C34.475,50.390 32.427,54.317 32.427,54.317 C32.272,54.615 31.987,54.822 31.656,54.877 C31.656,54.877 27.286,55.611 27.286,55.611 C27.286,55.611 30.391,58.771 30.391,58.771 z" fill="#F3A43D" />
</svg>
