<svg version="1.1" xmlns="http://www.w3.org/2000/svg" xmlns:xlink="http://www.w3.org/1999/xlink" width="59" height="65" viewBox="0 0 59 65">
<path id="iconrevision" d="M57.964,40.105 C57.964,40.105 1.035,40.105 1.035,40.105 C0.464,40.105 -0.000,39.641 -0.000,39.068 C-0.000,39.068 -0.000,22.473 -0.000,22.473 C-0.000,21.901 0.464,21.435 1.035,21.435 C1.035,21.435 57.964,21.435 57.964,21.435 C58.536,21.435 59.000,21.901 59.000,22.473 C59.000,22.473 59.000,39.068 59.000,39.068 C59.000,39.641 58.536,40.105 57.964,40.105 zM56.930,23.510 L2.070,23.510 L2.070,38.031 L56.930,38.031 L56.930,23.510 zM5.176,25.584 C5.176,25.584 13.456,25.584 13.456,25.584 C14.028,25.584 14.492,26.049 14.492,26.622 C14.492,26.622 14.492,34.920 14.492,34.920 C14.492,35.492 14.028,35.957 13.456,35.957 C13.456,35.957 5.176,35.957 5.176,35.957 C4.604,35.957 4.140,35.492 4.140,34.920 C4.140,34.920 4.140,26.622 4.140,26.622 C4.140,26.049 4.604,25.584 5.176,25.584 zM6.210,33.883 L12.421,33.883 L12.421,27.659 L6.210,27.659 L6.210,33.883 zM17.596,26.968 C17.596,26.968 53.824,26.968 53.824,26.968 C54.396,26.968 54.860,27.431 54.860,28.004 C54.860,28.577 54.396,29.042 53.824,29.042 C53.824,29.042 17.596,29.042 17.596,29.042 C17.024,29.042 16.562,28.577 16.562,28.004 C16.562,27.431 17.024,26.968 17.596,26.968 zM17.596,32.500 C17.596,32.500 35.710,32.500 35.710,32.500 C36.282,32.500 36.746,32.964 36.746,33.536 C36.746,34.109 36.282,34.574 35.710,34.574 C35.710,34.574 17.596,34.574 17.596,34.574 C17.024,34.574 16.562,34.109 16.562,33.536 C16.562,32.964 17.024,32.500 17.596,32.500 zM57.964,18.670 C57.964,18.670 1.035,18.670 1.035,18.670 C0.464,18.670 -0.000,18.205 -0.000,17.633 C-0.000,17.633 -0.000,1.036 -0.000,1.036 C-0.000,0.464 0.464,-0.001 1.035,-0.001 C1.035,-0.001 57.964,-0.001 57.964,-0.001 C58.536,-0.001 59.000,0.464 59.000,1.036 C59.000,1.036 59.000,17.633 59.000,17.633 C59.000,18.205 58.536,18.670 57.964,18.670 zM40.368,2.074 L2.070,2.074 L2.070,16.595 L40.368,16.595 L40.368,2.074 zM56.930,2.074 L42.438,2.074 L42.438,16.595 L56.930,16.595 L56.930,2.074 zM45.747,5.390 C46.546,4.589 47.608,4.148 48.737,4.148 C49.866,4.148 50.928,4.589 51.727,5.390 C52.525,6.190 52.965,7.254 52.965,8.385 C52.965,9.163 52.757,9.908 52.368,10.558 C52.368,10.558 54.557,12.749 54.557,12.749 C54.960,13.155 54.960,13.812 54.557,14.217 C54.354,14.420 54.090,14.521 53.824,14.521 C53.560,14.521 53.294,14.420 53.093,14.217 C53.093,14.217 50.905,12.024 50.905,12.024 C50.257,12.415 49.512,12.623 48.737,12.623 C47.608,12.623 46.546,12.182 45.747,11.381 C45.747,11.381 45.747,11.381 45.747,11.381 C44.098,9.729 44.098,7.042 45.747,5.390 zM47.211,9.915 C47.618,10.323 48.160,10.548 48.737,10.548 C49.314,10.548 49.855,10.323 50.263,9.915 C50.671,9.506 50.895,8.963 50.895,8.385 C50.895,7.808 50.671,7.265 50.263,6.856 C49.855,6.448 49.314,6.223 48.737,6.223 C48.160,6.223 47.619,6.448 47.211,6.856 C46.370,7.700 46.370,9.071 47.211,9.915 zM5.176,42.180 C5.176,42.180 13.456,42.180 13.456,42.180 C14.028,42.180 14.492,42.644 14.492,43.218 C14.492,43.218 14.492,51.515 14.492,51.515 C14.492,52.088 14.028,52.553 13.456,52.553 C13.456,52.553 5.176,52.553 5.176,52.553 C4.604,52.553 4.140,52.088 4.140,51.515 C4.140,51.515 4.140,43.218 4.140,43.218 C4.140,42.644 4.604,42.180 5.176,42.180 zM6.210,50.478 L12.421,50.478 L12.421,44.254 L6.210,44.254 L6.210,50.478 zM5.176,54.627 C5.176,54.627 13.456,54.627 13.456,54.627 C14.028,54.627 14.492,55.091 14.492,55.665 C14.492,55.665 14.492,63.962 14.492,63.962 C14.492,64.535 14.028,65.000 13.456,65.000 C13.456,65.000 5.176,65.000 5.176,65.000 C4.604,65.000 4.140,64.535 4.140,63.962 C4.140,63.962 4.140,55.665 4.140,55.665 C4.140,55.091 4.604,54.627 5.176,54.627 zM6.210,62.925 L12.421,62.925 L12.421,56.702 L6.210,56.702 L6.210,62.925 zM17.596,43.564 C17.596,43.564 53.824,43.564 53.824,43.564 C54.396,43.564 54.860,44.028 54.860,44.601 C54.860,45.173 54.396,45.638 53.824,45.638 C53.824,45.638 17.596,45.638 17.596,45.638 C17.024,45.638 16.562,45.173 16.562,44.601 C16.562,44.028 17.024,43.564 17.596,43.564 zM17.596,49.095 C17.596,49.095 35.710,49.095 35.710,49.095 C36.282,49.095 36.746,49.560 36.746,50.133 C36.746,50.705 36.282,51.170 35.710,51.170 C35.710,51.170 17.596,51.170 17.596,51.170 C17.024,51.170 16.562,50.705 16.562,50.133 C16.562,49.560 17.024,49.095 17.596,49.095 zM17.596,56.010 C17.596,56.010 53.824,56.010 53.824,56.010 C54.396,56.010 54.860,56.474 54.860,57.047 C54.860,57.620 54.396,58.084 53.824,58.084 C53.824,58.084 17.596,58.084 17.596,58.084 C17.024,58.084 16.562,57.620 16.562,57.047 C16.562,56.474 17.024,56.010 17.596,56.010 zM17.596,61.542 C17.596,61.542 35.710,61.542 35.710,61.542 C36.282,61.542 36.746,62.006 36.746,62.579 C36.746,63.152 36.282,63.616 35.710,63.616 C35.710,63.616 17.596,63.616 17.596,63.616 C17.024,63.616 16.562,63.152 16.562,62.579 C16.562,62.006 17.024,61.542 17.596,61.542 z" fill="#F3A43D" />
</svg>
