<svg version="1.1" xmlns="http://www.w3.org/2000/svg" xmlns:xlink="http://www.w3.org/1999/xlink" width="26" height="32" viewBox="0 0 26 32">
<path id="icon-type" d="M24.167,24.534 C24.656,24.534 25.116,24.723 25.463,25.065 C25.809,25.408 26.000,25.863 26.000,26.347 C26.000,26.347 26.000,28.973 26.000,28.973 C26.000,30.642 24.627,32.000 22.940,32.000 C22.940,32.000 3.059,32.000 3.059,32.000 C1.372,32.000 -0.000,30.642 -0.000,28.973 C-0.000,28.973 -0.000,3.027 -0.000,3.027 C-0.000,1.358 1.372,-0.000 3.059,-0.000 C3.059,-0.000 22.940,-0.000 22.940,-0.000 C24.627,-0.000 26.000,1.358 26.000,3.027 C26.000,3.027 26.000,5.652 26.000,5.652 C26.000,6.136 25.809,6.592 25.463,6.934 C25.116,7.277 24.656,7.466 24.167,7.466 C24.167,7.466 21.094,7.466 21.094,7.466 L21.094,24.534 C21.094,24.534 24.167,24.534 24.167,24.534 zM4.906,3.027 C4.906,2.539 4.714,2.080 4.365,1.734 C4.016,1.390 3.552,1.200 3.059,1.200 C2.041,1.200 1.213,2.019 1.213,3.027 C1.213,3.027 1.213,28.973 1.213,28.973 C1.213,29.980 2.041,30.800 3.059,30.800 C3.552,30.800 4.016,30.610 4.366,30.265 C4.714,29.920 4.906,29.461 4.906,28.973 C4.906,28.973 4.906,28.973 4.906,28.973 L4.906,28.867 C4.906,28.867 3.059,28.867 3.059,28.867 C2.724,28.867 2.453,28.598 2.453,28.267 C2.453,28.267 2.453,26.347 2.453,26.347 C2.453,25.863 2.644,25.408 2.990,25.065 C3.336,24.723 3.796,24.534 4.286,24.534 C4.286,24.534 19.881,24.534 19.881,24.534 L19.881,7.466 C19.881,7.466 4.286,7.466 4.286,7.466 C3.797,7.466 3.336,7.277 2.990,6.934 C2.644,6.592 2.453,6.136 2.453,5.652 C2.453,5.652 2.453,3.733 2.453,3.733 C2.453,3.401 2.724,3.133 3.059,3.133 C3.059,3.133 4.906,3.133 4.906,3.133 C4.906,3.133 4.906,3.027 4.906,3.027 zM4.906,27.667 C4.906,27.667 4.906,26.348 4.906,26.348 C4.906,26.009 4.628,25.734 4.286,25.734 C4.120,25.734 3.965,25.798 3.847,25.914 C3.730,26.030 3.666,26.184 3.666,26.348 C3.666,26.348 3.666,27.667 3.666,27.667 L4.906,27.667 L4.906,27.667 zM4.906,4.333 L3.666,4.333 C3.666,4.333 3.666,5.652 3.666,5.652 C3.666,5.816 3.730,5.970 3.847,6.086 C3.965,6.202 4.120,6.266 4.286,6.266 C4.628,6.266 4.906,5.991 4.906,5.652 C4.906,5.652 4.906,4.333 4.906,4.333 zM24.167,6.266 C24.332,6.266 24.488,6.202 24.605,6.086 C24.722,5.970 24.787,5.816 24.787,5.652 C24.787,5.652 24.787,3.027 24.787,3.027 C24.787,2.019 23.958,1.200 22.940,1.200 C22.940,1.200 5.499,1.200 5.499,1.200 C5.901,1.724 6.119,2.359 6.119,3.027 C6.119,3.027 6.119,5.652 6.119,5.652 C6.119,5.868 6.080,6.074 6.011,6.266 C6.011,6.266 24.167,6.266 24.167,6.266 zM6.011,25.734 C6.080,25.926 6.119,26.132 6.119,26.348 C6.119,26.348 6.119,28.973 6.119,28.973 C6.119,29.641 5.901,30.276 5.499,30.800 C5.499,30.800 22.940,30.800 22.940,30.800 C23.958,30.800 24.787,29.980 24.787,28.973 C24.787,28.973 24.787,26.348 24.787,26.348 C24.787,26.184 24.722,26.030 24.605,25.914 C24.488,25.798 24.332,25.734 24.167,25.734 C24.167,25.734 6.011,25.734 6.011,25.734 zM3.773,9.619 C3.773,9.619 17.321,9.619 17.321,9.619 C17.655,9.619 17.927,9.888 17.927,10.219 C17.927,10.551 17.655,10.819 17.321,10.819 C17.321,10.819 3.773,10.819 3.773,10.819 C3.438,10.819 3.166,10.551 3.166,10.219 C3.166,9.888 3.438,9.619 3.773,9.619 zM3.773,12.061 C3.773,12.061 17.321,12.061 17.321,12.061 C17.655,12.061 17.927,12.330 17.927,12.661 C17.927,12.992 17.655,13.261 17.321,13.261 C17.321,13.261 3.773,13.261 3.773,13.261 C3.438,13.261 3.166,12.992 3.166,12.661 C3.166,12.330 3.438,12.061 3.773,12.061 zM3.773,14.503 C3.773,14.503 17.321,14.503 17.321,14.503 C17.655,14.503 17.927,14.771 17.927,15.103 C17.927,15.434 17.655,15.703 17.321,15.703 C17.321,15.703 3.773,15.703 3.773,15.703 C3.438,15.703 3.166,15.434 3.166,15.103 C3.166,14.771 3.438,14.503 3.773,14.503 zM3.773,16.944 C3.773,16.944 12.950,16.944 12.950,16.944 C13.285,16.944 13.556,17.213 13.556,17.544 C13.556,17.876 13.285,18.144 12.950,18.144 C12.950,18.144 3.773,18.144 3.773,18.144 C3.438,18.144 3.166,17.876 3.166,17.544 C3.166,17.213 3.438,16.944 3.773,16.944 zM15.972,18.509 C17.487,18.509 18.720,19.728 18.720,21.227 C18.720,22.726 17.487,23.945 15.972,23.945 C14.457,23.945 13.225,22.726 13.225,21.227 C13.225,19.728 14.458,18.509 15.972,18.509 zM15.972,22.745 C16.818,22.745 17.507,22.064 17.507,21.227 C17.507,20.390 16.818,19.709 15.972,19.709 C15.126,19.709 14.438,20.390 14.438,21.227 C14.438,22.064 15.126,22.745 15.972,22.745 z" fill="#FFFFFF" />
</svg>
