<svg version="1.1" xmlns="http://www.w3.org/2000/svg" xmlns:xlink="http://www.w3.org/1999/xlink" width="32" height="32" viewBox="0 0 32 32">
<path id="icon-customers" d="M29.737,23.003 C28.792,22.058 27.212,21.234 24.720,19.987 C23.464,19.360 21.374,18.315 20.867,17.837 C22.989,15.228 24.221,12.282 24.221,9.703 C24.221,7.953 24.221,5.775 23.242,3.833 C22.359,2.083 20.386,-0.001 16.000,-0.001 C11.614,-0.001 9.641,2.083 8.759,3.832 C7.778,5.775 7.778,7.953 7.778,9.702 C7.778,12.283 9.009,15.228 11.132,17.836 C10.624,18.316 8.534,19.361 7.278,19.987 C4.788,21.233 3.207,22.058 2.262,23.002 C0.170,25.096 0.011,28.609 0.001,29.292 C-0.010,30.005 0.265,30.695 0.767,31.204 C1.267,31.712 1.953,31.999 2.666,31.999 C2.666,31.999 29.332,31.999 29.332,31.999 C30.047,31.999 30.731,31.712 31.232,31.204 C31.733,30.695 32.010,30.005 31.999,29.291 C31.988,28.609 31.829,25.096 29.737,23.003 zM29.808,29.800 C29.681,29.929 29.512,30.000 29.332,30.000 C29.332,30.000 2.666,30.000 2.666,30.000 C2.489,30.000 2.317,29.927 2.192,29.800 C2.068,29.674 1.998,29.501 2.000,29.323 C2.006,28.988 2.098,25.997 3.676,24.418 C4.405,23.689 5.930,22.899 8.173,21.777 C10.567,20.581 11.894,19.868 12.506,19.290 C12.506,19.290 13.855,18.013 13.855,18.013 C13.855,18.013 12.683,16.574 12.683,16.574 C10.837,14.306 9.778,11.802 9.778,9.703 C9.778,8.085 9.778,6.251 10.544,4.734 C11.460,2.919 13.295,1.999 16.000,1.999 C18.704,1.999 20.540,2.919 21.456,4.733 C22.222,6.251 22.222,8.085 22.222,9.703 C22.222,11.800 21.163,14.305 19.315,16.574 C19.315,16.574 18.143,18.014 18.143,18.014 C18.143,18.014 19.493,19.290 19.493,19.290 C20.104,19.867 21.431,20.580 23.825,21.777 C26.068,22.898 27.593,23.689 28.322,24.418 C29.607,25.702 29.981,28.106 29.998,29.323 C30.001,29.501 29.932,29.674 29.808,29.800 z" fill="#FFFFFF" />
</svg>
