<svg version="1.1" xmlns="http://www.w3.org/2000/svg" xmlns:xlink="http://www.w3.org/1999/xlink" width="25" height="24" viewBox="0 0 25 24">
<path id="icondiscipline" d="M24.657,19.792 C24.657,19.792 12.669,23.979 12.669,23.979 C12.669,23.979 12.664,23.979 12.664,23.979 C12.659,23.979 12.654,23.984 12.643,23.984 C12.633,23.984 12.628,23.990 12.618,23.990 C12.613,23.990 12.602,23.995 12.597,23.995 C12.587,23.995 12.577,24.000 12.567,24.000 C12.556,24.000 12.551,24.000 12.546,24.000 C12.531,24.000 12.515,24.000 12.500,24.000 C12.485,24.000 12.469,24.000 12.454,24.000 C12.444,24.000 12.439,24.000 12.433,24.000 C12.423,24.000 12.413,23.995 12.403,23.995 C12.398,23.995 12.387,23.990 12.382,23.990 C12.372,23.990 12.367,23.984 12.357,23.984 C12.351,23.984 12.341,23.979 12.336,23.979 C12.336,23.979 12.331,23.979 12.331,23.979 C12.331,23.979 0.343,19.792 0.343,19.792 C0.138,19.720 -0.000,19.531 -0.000,19.310 C-0.000,19.310 -0.000,0.542 -0.000,0.542 C-0.000,0.373 0.082,0.219 0.215,0.122 C0.353,0.024 0.523,-0.001 0.681,0.056 C0.681,0.056 12.500,4.181 12.500,4.181 C12.500,4.181 24.319,0.056 24.319,0.056 C24.477,-0.001 24.652,0.024 24.785,0.122 C24.918,0.219 25.000,0.373 25.000,0.542 C25.000,0.542 25.000,19.310 25.000,19.310 C25.000,19.525 24.862,19.720 24.657,19.792 zM11.988,5.086 L1.025,1.258 L1.025,18.947 L11.988,22.776 L11.988,5.086 zM23.975,1.258 L16.137,3.997 C16.137,3.997 16.137,10.436 16.137,10.436 C16.137,10.717 15.907,10.947 15.625,10.947 C15.343,10.947 15.113,10.717 15.113,10.436 C15.113,10.436 15.113,4.355 15.113,4.355 L13.012,5.086 L13.012,22.776 L23.975,18.947 L23.975,1.258 zM3.304,9.995 C3.304,9.995 10.061,12.575 10.061,12.575 C10.328,12.677 10.456,12.974 10.359,13.236 C10.282,13.440 10.092,13.568 9.882,13.568 C9.821,13.568 9.759,13.557 9.698,13.532 C9.698,13.532 2.941,10.952 2.941,10.952 C2.674,10.850 2.546,10.553 2.643,10.292 C2.746,10.026 3.043,9.899 3.304,9.995 zM3.309,14.142 C3.309,14.142 10.067,16.761 10.067,16.761 C10.328,16.864 10.461,17.161 10.359,17.421 C10.282,17.626 10.087,17.749 9.882,17.749 C9.821,17.749 9.759,17.739 9.698,17.714 C9.698,17.714 2.941,15.094 2.941,15.094 C2.679,14.991 2.546,14.693 2.649,14.433 C2.751,14.173 3.048,14.039 3.309,14.142 zM9.882,9.422 C9.821,9.422 9.759,9.412 9.698,9.386 C9.698,9.386 2.941,6.765 2.941,6.765 C2.679,6.663 2.546,6.367 2.649,6.106 C2.751,5.844 3.048,5.712 3.309,5.814 C3.309,5.814 10.067,8.434 10.067,8.434 C10.328,8.537 10.461,8.833 10.359,9.095 C10.282,9.294 10.087,9.422 9.882,9.422 z" fill="#FFFFFF" />
</svg>
