<svg version="1.1" xmlns="http://www.w3.org/2000/svg" xmlns:xlink="http://www.w3.org/1999/xlink" width="32" height="29" viewBox="0 0 32 29">
<path id="iconchat" d="M28.837,17.415 C28.837,17.415 28.267,17.415 28.267,17.415 C28.267,17.415 28.267,22.681 28.267,22.681 C28.267,22.899 28.131,23.094 27.925,23.172 C27.863,23.196 27.798,23.208 27.733,23.208 C27.586,23.208 27.441,23.147 27.339,23.036 C27.339,23.036 24.533,19.989 24.533,19.989 C24.533,19.989 24.533,20.048 24.533,20.048 C24.533,21.770 23.115,23.170 21.371,23.170 C21.371,23.170 12.503,23.206 12.503,23.206 C12.503,23.206 7.328,28.828 7.328,28.828 C7.225,28.939 7.080,29.000 6.933,29.000 C6.869,29.000 6.804,28.988 6.741,28.965 C6.535,28.886 6.400,28.691 6.400,28.473 C6.400,28.473 6.400,23.207 6.400,23.207 C6.400,23.207 3.162,23.207 3.162,23.207 C1.419,23.207 -0.000,21.807 -0.000,20.085 C-0.000,20.085 -0.000,8.952 -0.000,8.952 C-0.000,7.230 1.419,5.830 3.162,5.830 C3.162,5.830 7.467,5.821 7.467,5.821 C7.467,5.821 7.467,3.123 7.467,3.123 C7.467,1.401 8.885,-0.000 10.629,-0.000 C10.629,-0.000 28.838,0.037 28.838,0.037 C30.582,0.037 32.000,1.438 32.000,3.159 C32.000,3.159 32.000,14.293 32.000,14.293 C32.000,16.015 30.581,17.415 28.837,17.415 zM8.001,6.872 C8.000,6.872 8.000,6.872 8.000,6.872 C8.000,6.872 3.164,6.882 3.164,6.882 C2.007,6.882 1.067,7.811 1.067,8.952 C1.067,8.952 1.067,20.085 1.067,20.085 C1.067,21.225 2.007,22.154 3.162,22.154 C3.162,22.154 6.933,22.154 6.933,22.154 C7.228,22.154 7.467,22.390 7.467,22.680 C7.467,22.680 7.467,27.111 7.467,27.111 C7.467,27.111 11.872,22.326 11.872,22.326 C11.972,22.217 12.115,22.154 12.264,22.154 C12.264,22.154 21.368,22.117 21.368,22.117 C22.526,22.117 23.467,21.189 23.467,20.048 C23.467,20.048 23.467,18.625 23.467,18.625 C23.467,18.625 23.467,8.915 23.467,8.915 C23.467,7.773 22.526,6.845 21.371,6.845 C21.371,6.845 8.001,6.872 8.001,6.872 zM30.934,3.159 C30.934,2.018 29.993,1.089 28.838,1.089 C28.837,1.089 28.837,1.089 28.837,1.089 C28.837,1.089 10.628,1.052 10.628,1.052 C9.473,1.052 8.533,1.981 8.533,3.122 C8.533,3.122 8.533,5.818 8.533,5.818 C8.533,5.818 21.369,5.792 21.369,5.792 C23.115,5.792 24.533,7.193 24.533,8.915 C24.533,8.915 24.533,18.422 24.533,18.422 L27.200,21.318 C27.200,21.318 27.200,16.888 27.200,16.888 C27.200,16.597 27.438,16.361 27.733,16.361 C27.733,16.361 28.837,16.361 28.837,16.361 C29.993,16.361 30.933,15.433 30.933,14.292 C30.933,14.292 30.934,14.292 30.934,14.292 C30.934,14.292 30.934,3.159 30.934,3.159 zM19.200,18.431 C19.200,18.431 5.333,18.431 5.333,18.431 C5.038,18.431 4.800,18.195 4.800,17.904 C4.800,17.613 5.038,17.377 5.333,17.377 C5.333,17.377 19.200,17.377 19.200,17.377 C19.495,17.377 19.733,17.613 19.733,17.904 C19.733,18.195 19.495,18.431 19.200,18.431 zM19.200,15.271 C19.200,15.271 5.333,15.271 5.333,15.271 C5.038,15.271 4.800,15.035 4.800,14.744 C4.800,14.454 5.038,14.218 5.333,14.218 C5.333,14.218 19.200,14.218 19.200,14.218 C19.495,14.218 19.733,14.454 19.733,14.744 C19.733,15.035 19.495,15.271 19.200,15.271 zM12.267,12.111 C12.267,12.111 5.333,12.111 5.333,12.111 C5.038,12.111 4.800,11.876 4.800,11.585 C4.800,11.294 5.038,11.058 5.333,11.058 C5.333,11.058 12.267,11.058 12.267,11.058 C12.561,11.058 12.800,11.294 12.800,11.585 C12.800,11.876 12.561,12.111 12.267,12.111 z" fill="#FFFFFF" />
</svg>
