<svg version="1.1" xmlns="http://www.w3.org/2000/svg" xmlns:xlink="http://www.w3.org/1999/xlink" width="24" height="24" viewBox="0 0 24 24">
<path id="iconsubject" d="M23.916,18.757 C23.833,18.502 23.553,18.360 23.298,18.448 C23.298,18.448 22.836,18.599 22.836,18.599 L22.836,15.590 C22.836,15.590 23.607,15.335 23.607,15.335 C23.749,15.286 23.862,15.178 23.916,15.030 C23.965,14.889 23.951,14.731 23.867,14.603 C23.867,14.603 14.663,0.269 14.663,0.269 C14.540,0.083 14.310,-0.001 14.094,0.067 C14.094,0.067 0.333,4.663 0.333,4.663 C0.132,4.732 -0.000,4.919 -0.000,5.130 C-0.000,5.130 -0.000,9.725 -0.000,9.725 C-0.000,9.822 0.028,9.915 0.083,9.994 C0.083,9.994 9.237,23.779 9.237,23.779 C9.330,23.916 9.482,24.000 9.645,24.000 C9.699,24.000 9.748,23.990 9.801,23.975 C9.801,23.975 23.607,19.380 23.607,19.380 C23.862,19.291 24.000,19.017 23.916,18.757 C23.916,18.757 23.916,18.757 23.916,18.757 zM9.203,21.957 L0.979,9.577 L0.979,6.656 C0.979,6.656 9.164,19.547 9.164,19.547 C9.169,19.572 9.173,19.596 9.183,19.622 C9.188,19.640 9.198,19.654 9.203,19.674 C9.203,19.674 9.203,21.957 9.203,21.957 L9.203,21.957 zM21.855,18.929 L10.184,22.812 L10.184,21.825 L21.855,17.840 L21.855,18.929 zM21.855,16.803 L10.184,20.788 L10.184,19.807 L21.855,15.924 L21.855,16.803 zM22.695,14.603 L9.889,18.865 L1.324,5.369 L14.039,1.124 L22.695,14.603 L22.695,14.603 z" fill="#FFFFFF" />
</svg>
