<svg version="1.1" xmlns="http://www.w3.org/2000/svg" xmlns:xlink="http://www.w3.org/1999/xlink" width="33" height="22" viewBox="0 0 33 22">
<path id="iconmail" d="M32.999,2.787 C32.999,2.070 32.721,1.422 32.277,0.928 C32.270,0.918 32.268,0.907 32.260,0.897 C32.253,0.888 32.242,0.885 32.234,0.877 C31.730,0.340 31.018,-0.000 30.226,-0.000 C30.226,-0.000 2.773,-0.000 2.773,-0.000 C1.981,-0.000 1.270,0.340 0.764,0.877 C0.757,0.885 0.746,0.888 0.738,0.897 C0.730,0.907 0.729,0.919 0.721,0.929 C0.278,1.423 -0.000,2.070 -0.000,2.787 C-0.000,2.787 -0.000,19.213 -0.000,19.213 C-0.000,19.946 0.290,20.610 0.753,21.108 C0.762,21.119 0.765,21.132 0.775,21.142 C0.778,21.145 0.782,21.146 0.786,21.149 C1.291,21.672 1.993,22.000 2.773,22.000 C2.773,22.000 30.226,22.000 30.226,22.000 C31.007,22.000 31.710,21.672 32.214,21.149 C32.217,21.146 32.221,21.145 32.225,21.142 C32.234,21.132 32.237,21.120 32.246,21.110 C32.710,20.611 33.000,19.947 33.000,19.213 C33.000,19.213 33.000,2.787 33.000,2.787 C33.000,2.787 32.999,2.787 32.999,2.787 zM22.198,10.132 C22.198,10.132 31.708,2.113 31.708,2.113 C31.801,2.319 31.857,2.546 31.857,2.787 C31.857,2.787 31.857,19.213 31.857,19.213 C31.857,19.430 31.812,19.637 31.735,19.827 C31.735,19.827 22.198,10.132 22.198,10.132 zM30.226,1.149 C30.466,1.149 30.692,1.204 30.897,1.298 C30.897,1.298 16.500,13.437 16.500,13.437 C16.500,13.437 2.103,1.298 2.103,1.298 C2.308,1.204 2.534,1.149 2.773,1.149 C2.773,1.149 30.226,1.149 30.226,1.149 zM1.264,19.827 C1.187,19.637 1.143,19.430 1.143,19.212 C1.143,19.212 1.143,2.787 1.143,2.787 C1.143,2.546 1.198,2.319 1.292,2.113 C1.292,2.113 10.801,10.132 10.801,10.132 C10.801,10.132 1.264,19.827 1.264,19.827 zM2.773,20.850 C2.509,20.850 2.263,20.781 2.043,20.669 C2.043,20.669 11.680,10.872 11.680,10.872 C11.680,10.872 16.133,14.627 16.133,14.627 C16.239,14.716 16.369,14.761 16.500,14.761 C16.630,14.761 16.761,14.716 16.867,14.627 C16.867,14.627 21.320,10.872 21.320,10.872 C21.320,10.872 30.957,20.669 30.957,20.669 C30.736,20.781 30.490,20.850 30.226,20.850 C30.226,20.850 2.773,20.850 2.773,20.850 C2.773,20.850 2.773,20.850 2.773,20.850 z" fill="#FFFFFF" />
</svg>
