<svg version="1.1" xmlns="http://www.w3.org/2000/svg" xmlns:xlink="http://www.w3.org/1999/xlink" width="41" height="42" viewBox="0 0 41 42">
<path id="iconprogress" d="M29.370,15.532 C29.659,15.331 30.057,15.361 30.310,15.605 C30.563,15.848 30.594,16.232 30.386,16.509 C30.386,16.509 23.581,25.570 23.581,25.570 C23.133,26.163 22.443,26.535 21.687,26.592 C21.618,26.597 21.551,26.599 21.483,26.599 C20.800,26.599 20.142,26.340 19.655,25.869 C19.119,25.353 18.845,24.640 18.903,23.911 C18.962,23.182 19.348,22.518 19.961,22.088 C19.961,22.088 29.370,15.532 29.370,15.532 zM20.681,24.878 C20.917,25.106 21.242,25.218 21.573,25.196 C21.905,25.171 22.208,25.008 22.404,24.748 C22.404,24.748 26.555,19.222 26.555,19.222 C26.555,19.222 20.816,23.221 20.816,23.221 C20.548,23.408 20.378,23.700 20.353,24.021 C20.326,24.339 20.447,24.653 20.681,24.878 zM37.917,9.735 L36.890,8.745 C36.890,8.745 35.328,10.248 35.328,10.248 C36.315,11.272 37.184,12.401 37.919,13.615 C37.929,13.628 37.943,13.636 37.951,13.649 C37.959,13.664 37.959,13.679 37.967,13.694 C39.626,16.466 40.580,19.677 40.580,23.099 C40.580,26.523 39.626,29.733 37.966,32.505 C37.958,32.519 37.959,32.535 37.950,32.550 C37.938,32.571 37.921,32.585 37.907,32.604 C36.193,35.429 33.739,37.789 30.804,39.437 C30.790,39.446 30.783,39.459 30.768,39.468 C30.746,39.480 30.722,39.485 30.699,39.495 C27.863,41.065 24.586,41.972 21.092,41.996 C21.087,41.996 21.081,41.999 21.076,41.999 C21.071,41.999 21.068,41.997 21.063,41.997 C21.027,41.997 20.993,41.999 20.957,41.999 C19.487,41.999 18.005,41.837 16.554,41.515 C16.163,41.429 15.919,41.053 16.009,40.676 C16.098,40.300 16.489,40.060 16.880,40.151 C18.026,40.404 19.190,40.544 20.350,40.583 C20.350,40.583 20.350,39.199 20.350,39.199 C20.350,38.812 20.676,38.500 21.077,38.500 C21.479,38.500 21.804,38.812 21.804,39.199 C21.804,39.199 21.804,40.577 21.804,40.577 C24.538,40.456 27.113,39.749 29.403,38.585 C29.403,38.585 28.686,37.391 28.686,37.391 C28.485,37.056 28.604,36.627 28.953,36.434 C29.298,36.241 29.744,36.354 29.945,36.690 C29.945,36.690 30.660,37.883 30.660,37.883 C32.934,36.494 34.866,34.632 36.308,32.443 C36.308,32.443 35.071,31.754 35.071,31.754 C34.723,31.561 34.604,31.133 34.804,30.798 C35.005,30.462 35.450,30.348 35.797,30.542 C35.797,30.542 37.038,31.232 37.038,31.232 C38.262,28.994 38.998,26.473 39.108,23.799 C39.108,23.799 37.673,23.799 37.673,23.799 C37.271,23.799 36.946,23.486 36.946,23.099 C36.946,22.712 37.271,22.399 37.673,22.399 C37.673,22.399 39.108,22.399 39.108,22.399 C38.998,19.724 38.262,17.203 37.038,14.965 C37.038,14.965 35.797,15.656 35.797,15.656 C35.683,15.719 35.558,15.749 35.434,15.749 C35.183,15.749 34.939,15.624 34.804,15.400 C34.603,15.064 34.722,14.637 35.068,14.443 C35.068,14.443 36.307,13.755 36.307,13.755 C34.864,11.564 32.932,9.704 30.658,8.315 C30.658,8.315 29.943,9.507 29.943,9.507 C29.810,9.732 29.565,9.857 29.314,9.857 C29.190,9.857 29.065,9.827 28.951,9.763 C28.604,9.569 28.485,9.142 28.685,8.807 C28.685,8.807 29.402,7.612 29.402,7.612 C27.112,6.449 24.536,5.742 21.802,5.620 C21.802,5.620 21.802,6.999 21.802,6.999 C21.802,7.387 21.478,7.699 21.076,7.699 C20.674,7.699 20.349,7.387 20.349,6.999 C20.349,6.999 20.349,5.616 20.349,5.616 C20.136,5.626 19.916,5.638 19.678,5.656 C19.678,5.656 18.897,5.713 18.897,5.713 C18.221,5.788 17.546,5.900 16.877,6.048 C16.487,6.135 16.096,5.898 16.007,5.522 C15.917,5.145 16.161,4.769 16.552,4.683 C17.327,4.513 18.111,4.389 18.895,4.309 C18.895,4.309 18.895,3.499 18.895,3.499 C18.895,3.499 17.805,3.499 17.805,3.499 C16.803,3.499 15.988,2.715 15.988,1.750 C15.988,0.784 16.803,-0.000 17.805,-0.000 C17.805,-0.000 24.346,-0.000 24.346,-0.000 C25.348,-0.000 26.164,0.784 26.164,1.750 C26.164,2.715 25.349,3.499 24.347,3.499 C24.347,3.499 23.257,3.499 23.257,3.499 C23.257,3.499 23.257,4.333 23.257,4.333 C25.949,4.638 28.475,5.469 30.723,6.716 C30.738,6.724 30.754,6.723 30.769,6.731 C30.784,6.740 30.791,6.753 30.806,6.762 C32.067,7.469 33.238,8.308 34.300,9.258 C34.300,9.258 35.862,7.756 35.862,7.756 L34.834,6.765 L37.917,3.796 L41.000,6.765 L37.917,9.735 zM24.346,2.100 C24.546,2.100 24.710,1.942 24.710,1.750 C24.710,1.556 24.546,1.399 24.346,1.399 C24.346,1.399 17.805,1.399 17.805,1.399 C17.605,1.399 17.442,1.556 17.442,1.750 C17.442,1.942 17.605,2.100 17.805,2.100 C17.805,2.100 20.349,2.100 20.349,2.100 C20.349,2.100 20.349,4.214 20.349,4.214 C20.436,4.211 20.516,4.211 20.600,4.210 C20.719,4.208 20.838,4.200 20.957,4.200 C20.975,4.200 20.994,4.201 21.012,4.201 C21.032,4.201 21.055,4.200 21.076,4.200 C21.308,4.200 21.549,4.204 21.802,4.214 C21.802,4.214 21.802,2.100 21.802,2.100 C21.802,2.100 24.346,2.100 24.346,2.100 zM37.916,5.775 L36.888,6.765 L37.916,7.756 L38.944,6.765 L37.916,5.775 zM14.535,35.699 C14.535,35.699 9.448,35.699 9.448,35.699 C9.046,35.699 8.721,35.386 8.721,34.999 C8.721,34.612 9.046,34.300 9.448,34.300 C9.448,34.300 14.535,34.300 14.535,34.300 C14.937,34.300 15.261,34.612 15.261,34.999 C15.261,35.386 14.937,35.699 14.535,35.699 zM14.535,30.799 C14.535,30.799 5.087,30.799 5.087,30.799 C4.686,30.799 4.360,30.487 4.360,30.100 C4.360,29.713 4.686,29.399 5.087,29.399 C5.087,29.399 14.535,29.399 14.535,29.399 C14.937,29.399 15.261,29.713 15.261,30.100 C15.261,30.487 14.937,30.799 14.535,30.799 zM14.535,25.900 C14.535,25.900 0.726,25.900 0.726,25.900 C0.324,25.900 -0.000,25.587 -0.000,25.200 C-0.000,24.812 0.324,24.499 0.726,24.499 C0.726,24.499 14.535,24.499 14.535,24.499 C14.937,24.499 15.261,24.812 15.261,25.200 C15.261,25.587 14.937,25.900 14.535,25.900 zM14.535,21.000 C14.535,21.000 3.634,21.000 3.634,21.000 C3.231,21.000 2.907,20.687 2.907,20.299 C2.907,19.912 3.231,19.600 3.634,19.600 C3.634,19.600 14.535,19.600 14.535,19.600 C14.937,19.600 15.261,19.912 15.261,20.299 C15.261,20.687 14.937,21.000 14.535,21.000 zM14.535,16.099 C14.535,16.099 7.267,16.099 7.267,16.099 C6.865,16.099 6.541,15.787 6.541,15.400 C6.541,15.012 6.865,14.699 7.267,14.699 C7.267,14.699 14.535,14.699 14.535,14.699 C14.937,14.699 15.261,15.012 15.261,15.400 C15.261,15.787 14.937,16.099 14.535,16.099 zM14.535,11.200 C14.535,11.200 10.901,11.200 10.901,11.200 C10.499,11.200 10.175,10.887 10.175,10.500 C10.175,10.112 10.499,9.799 10.901,9.799 C10.901,9.799 14.535,9.799 14.535,9.799 C14.937,9.799 15.261,10.112 15.261,10.500 C15.261,10.887 14.937,11.200 14.535,11.200 z" fill="#67C4EF" />
</svg>
