<svg version="1.1" xmlns="http://www.w3.org/2000/svg" xmlns:xlink="http://www.w3.org/1999/xlink" width="19" height="18" viewBox="0 0 20 20">
<path id="iconstar" d="M19.991,7.610 C19.949,7.474 19.836,7.375 19.701,7.354 C19.701,7.354 13.218,6.366 13.218,6.366 C13.218,6.366 10.319,0.204 10.319,0.204 C10.259,0.075 10.135,-0.006 9.999,-0.006 C9.862,-0.006 9.737,0.075 9.677,0.204 C9.677,0.204 6.777,6.366 6.777,6.366 C6.777,6.366 0.294,7.354 0.294,7.354 C0.159,7.375 0.047,7.474 0.005,7.611 C-0.037,7.746 -0.002,7.896 0.096,7.996 C0.096,7.996 4.787,12.792 4.787,12.792 C4.787,12.792 3.679,19.566 3.679,19.566 C3.657,19.707 3.711,19.850 3.821,19.934 C3.932,20.018 4.079,20.030 4.198,19.962 C4.198,19.962 9.999,16.765 9.999,16.765 C9.999,16.765 15.797,19.962 15.797,19.962 C15.850,19.992 15.906,20.006 15.963,20.006 C16.038,20.006 16.112,19.981 16.174,19.934 C16.285,19.850 16.340,19.707 16.316,19.566 C16.316,19.566 15.209,12.793 15.209,12.793 C15.209,12.793 19.901,7.996 19.901,7.996 C19.999,7.896 20.033,7.746 19.991,7.610 z" fill="#FCC32A" />
</svg>
