<svg version="1.1" xmlns="http://www.w3.org/2000/svg" xmlns:xlink="http://www.w3.org/1999/xlink" width="42" height="42" viewBox="0 0 42 42">
<path id="iconcompleted" d="M21.000,42.000 C9.421,42.000 -0.000,32.580 -0.000,20.999 C-0.000,9.419 9.421,-0.001 21.000,-0.001 C32.579,-0.001 42.000,9.419 42.000,20.999 C42.000,32.580 32.579,42.000 21.000,42.000 zM21.000,1.615 C10.311,1.615 1.616,10.311 1.616,20.999 C1.616,31.688 10.311,40.384 21.000,40.384 C31.688,40.384 40.384,31.688 40.384,20.999 C40.384,10.311 31.688,1.615 21.000,1.615 zM19.181,27.997 C19.022,28.177 18.799,28.269 18.577,28.269 C18.399,28.269 18.221,28.210 18.072,28.092 C18.072,28.092 9.995,21.630 9.995,21.630 C9.647,21.352 9.590,20.843 9.869,20.495 C10.147,20.148 10.657,20.090 11.004,20.369 C11.004,20.369 18.482,26.351 18.482,26.351 C18.482,26.351 30.895,12.386 30.895,12.386 C31.193,12.052 31.703,12.022 32.037,12.319 C32.371,12.615 32.400,13.126 32.104,13.459 C32.104,13.459 19.181,27.997 19.181,27.997 z" fill="#42B574" />
</svg>
