<svg version="1.1" xmlns="http://www.w3.org/2000/svg" xmlns:xlink="http://www.w3.org/1999/xlink" width="68" height="68" viewBox="0 0 68 68">
<path id="iconiconiriginal" d="M65.419,57.526 C65.419,57.526 62.575,57.526 62.575,57.526 C61.974,57.526 61.489,57.041 61.489,56.442 C61.489,55.842 61.974,55.357 62.575,55.357 C62.575,55.357 65.419,55.357 65.419,55.357 C65.641,55.357 65.830,55.168 65.830,54.946 C65.830,54.946 65.830,7.316 65.830,7.316 C65.830,7.093 65.641,6.904 65.419,6.904 C65.419,6.904 55.464,6.904 55.464,6.904 C55.464,6.904 55.464,12.057 55.464,12.057 C55.464,12.656 54.979,13.143 54.380,13.143 C53.780,13.143 53.295,12.656 53.295,12.057 C53.295,12.057 53.295,2.170 53.295,2.170 L14.705,2.170 C14.705,2.170 14.705,5.818 14.705,5.821 C14.705,5.821 14.705,46.527 14.705,46.527 L18.322,46.527 C18.322,46.527 18.322,37.659 18.322,37.659 C18.322,37.059 18.808,36.574 19.407,36.574 C19.407,36.574 36.581,36.574 36.581,36.574 C37.180,36.574 37.665,37.059 37.665,37.659 C37.665,37.659 37.665,46.527 37.665,46.527 C37.665,46.527 46.185,46.527 46.185,46.527 C46.784,46.527 47.270,47.013 47.270,47.612 C47.270,48.211 46.784,48.697 46.185,48.697 C46.185,48.697 5.574,48.697 5.574,48.697 C4.974,48.697 4.488,48.211 4.488,47.612 C4.488,47.013 4.974,46.527 5.574,46.527 C5.574,46.527 12.535,46.527 12.535,46.527 L12.535,6.904 C12.535,6.904 2.581,6.904 2.581,6.904 C2.359,6.904 2.171,7.093 2.171,7.316 C2.171,7.316 2.171,54.946 2.171,54.946 C2.171,55.168 2.359,55.356 2.581,55.356 C2.581,55.356 46.185,55.356 46.185,55.356 C46.784,55.356 47.269,55.842 47.269,56.442 C47.269,57.041 46.784,57.526 46.185,57.526 C46.185,57.526 41.719,57.526 41.719,57.526 L41.719,65.829 C41.719,65.829 47.149,65.829 47.149,65.829 C47.749,65.829 48.235,66.314 48.235,66.914 C48.235,67.514 47.749,67.999 47.149,67.999 C47.149,67.999 16.046,67.999 16.046,67.999 C15.446,67.999 14.961,67.514 14.961,66.914 C14.961,66.314 15.446,65.829 16.046,65.829 C16.046,65.829 26.281,65.829 26.281,65.829 L26.281,57.526 C26.281,57.526 2.581,57.526 2.581,57.526 C1.158,57.526 -0.000,56.368 -0.000,54.946 C-0.000,54.946 -0.000,7.316 -0.000,7.316 C-0.000,5.892 1.158,4.735 2.581,4.735 C2.581,4.735 12.535,4.735 12.535,4.735 C12.535,4.735 12.535,1.084 12.535,1.084 C12.535,0.485 13.021,-0.000 13.620,-0.000 C13.620,-0.000 54.380,-0.000 54.380,-0.000 C54.979,-0.000 55.464,0.485 55.464,1.084 C55.464,1.084 55.464,4.735 55.464,4.735 C55.464,4.735 65.419,4.735 65.419,4.735 C66.842,4.735 68.000,5.892 68.000,7.316 C68.000,7.316 68.000,54.946 68.000,54.946 C68.000,56.368 66.842,57.526 65.419,57.526 zM20.492,46.527 L35.495,46.527 L35.495,38.744 L20.492,38.744 L20.492,46.527 zM28.451,65.829 L39.549,65.829 L39.549,57.526 L28.451,57.526 L28.451,65.829 zM40.921,23.553 C40.921,23.553 46.394,23.553 46.394,23.553 C46.993,23.553 47.479,24.038 47.479,24.638 C47.479,25.237 46.993,25.723 46.394,25.723 C46.394,25.723 40.921,25.723 40.921,25.723 C40.322,25.723 39.836,25.237 39.836,24.638 C39.836,24.038 40.322,23.553 40.921,23.553 zM40.921,32.234 C40.921,32.234 46.185,32.234 46.185,32.234 C46.784,32.234 47.270,32.719 47.270,33.318 C47.270,33.918 46.784,34.404 46.185,34.404 C46.185,34.404 40.921,34.404 40.921,34.404 C40.322,34.404 39.836,33.918 39.836,33.318 C39.836,32.719 40.322,32.234 40.921,32.234 zM40.921,27.893 C40.921,27.893 46.185,27.893 46.185,27.893 C46.784,27.893 47.270,28.379 47.270,28.978 C47.270,29.577 46.784,30.063 46.185,30.063 C46.185,30.063 40.921,30.063 40.921,30.063 C40.322,30.063 39.836,29.577 39.836,28.978 C39.836,28.379 40.322,27.893 40.921,27.893 zM19.407,23.553 C19.407,23.553 36.581,23.553 36.581,23.553 C37.180,23.553 37.665,24.038 37.665,24.638 C37.665,25.237 37.180,25.723 36.581,25.723 C36.581,25.723 19.407,25.723 19.407,25.723 C18.808,25.723 18.322,25.237 18.322,24.638 C18.322,24.038 18.808,23.553 19.407,23.553 zM19.407,32.234 C19.407,32.234 36.581,32.234 36.581,32.234 C37.180,32.234 37.665,32.719 37.665,33.318 C37.665,33.918 37.180,34.404 36.581,34.404 C36.581,34.404 19.407,34.404 19.407,34.404 C18.808,34.404 18.322,33.918 18.322,33.318 C18.322,32.719 18.808,32.234 19.407,32.234 zM19.407,27.893 C19.407,27.893 36.581,27.893 36.581,27.893 C37.180,27.893 37.665,28.379 37.665,28.978 C37.665,29.577 37.180,30.063 36.581,30.063 C36.581,30.063 19.407,30.063 19.407,30.063 C18.808,30.063 18.322,29.577 18.322,28.978 C18.322,28.379 18.808,27.893 19.407,27.893 zM19.407,15.595 C18.808,15.595 18.322,15.109 18.322,14.510 C18.322,14.510 18.322,6.872 18.322,6.872 C18.322,6.272 18.808,5.787 19.407,5.787 C19.407,5.787 48.592,5.787 48.592,5.787 C49.193,5.787 49.678,6.272 49.678,6.872 C49.678,6.872 49.678,14.510 49.678,14.510 C49.678,15.109 49.193,15.595 48.592,15.595 C48.592,15.595 19.407,15.595 19.407,15.595 zM47.507,7.956 L20.492,7.956 L20.492,13.426 L47.507,13.426 L47.507,7.956 zM18.322,18.850 C18.322,18.251 18.808,17.765 19.407,17.765 C19.407,17.765 48.592,17.765 48.592,17.765 C49.191,17.765 49.678,18.251 49.678,18.850 C49.678,19.449 49.193,19.936 48.592,19.936 C48.592,19.936 19.407,19.936 19.407,19.936 C18.808,19.936 18.322,19.449 18.322,18.850 zM49.454,25.834 C49.456,25.818 49.458,25.803 49.461,25.788 C49.466,25.765 49.471,25.743 49.477,25.722 C49.480,25.710 49.483,25.697 49.486,25.685 C49.492,25.664 49.501,25.642 49.508,25.620 C49.512,25.611 49.514,25.602 49.519,25.593 C49.519,25.593 49.524,25.577 49.526,25.574 C49.526,25.574 53.372,15.993 53.372,15.993 C53.538,15.582 53.937,15.312 54.380,15.312 C54.823,15.312 55.221,15.582 55.387,15.993 C55.387,15.993 59.233,25.573 59.233,25.573 C59.233,25.575 59.234,25.577 59.235,25.579 C59.235,25.579 59.241,25.593 59.241,25.593 C59.244,25.602 59.247,25.610 59.250,25.618 C59.258,25.641 59.266,25.663 59.273,25.687 C59.277,25.697 59.279,25.708 59.282,25.720 C59.288,25.743 59.294,25.765 59.298,25.788 C59.301,25.803 59.303,25.818 59.305,25.834 C59.305,25.834 59.305,25.834 59.305,25.834 C59.309,25.853 59.312,25.871 59.314,25.890 C59.317,25.927 59.319,25.961 59.319,25.997 C59.319,25.997 59.319,63.060 59.319,63.060 C59.319,65.784 57.103,67.999 54.380,67.999 C51.656,67.999 49.440,65.783 49.440,63.060 C49.440,63.060 49.440,25.997 49.440,25.997 C49.440,25.961 49.442,25.927 49.445,25.890 C49.447,25.871 49.451,25.853 49.454,25.834 zM54.380,19.310 L52.130,24.912 L56.629,24.912 L54.380,19.310 zM57.149,27.083 L51.611,27.083 L51.611,58.070 L57.149,58.070 L57.149,27.083 zM51.610,63.060 C51.610,64.587 52.853,65.829 54.380,65.829 C55.906,65.829 57.149,64.587 57.149,63.060 C57.149,63.060 57.149,60.241 57.149,60.241 L51.610,60.241 C51.610,60.241 51.610,63.060 51.610,63.060 z" fill="#67C4EF" />
</svg>
