<svg version="1.1" xmlns="http://www.w3.org/2000/svg" xmlns:xlink="http://www.w3.org/1999/xlink" width="29" height="32" viewBox="0 0 29 32">
<path id="iconpages" d="M28.478,32.000 C28.478,32.000 27.783,32.000 27.783,32.000 C27.495,32.000 27.262,31.771 27.262,31.489 C27.262,31.207 27.495,30.979 27.783,30.979 C27.783,30.979 27.957,30.979 27.957,30.979 L27.957,3.064 C27.957,3.064 27.783,3.064 27.783,3.064 C27.495,3.064 27.262,2.835 27.262,2.553 C27.262,2.271 27.495,2.042 27.783,2.042 C27.783,2.042 28.478,2.042 28.478,2.042 C28.766,2.042 29.000,2.271 29.000,2.553 C29.000,2.553 29.000,31.489 29.000,31.489 C29.000,31.771 28.766,32.000 28.478,32.000 zM25.698,32.000 C25.698,32.000 19.612,32.000 19.612,32.000 C19.324,32.000 19.091,31.771 19.091,31.489 C19.091,31.207 19.324,30.979 19.612,30.979 C19.612,30.979 25.177,30.979 25.177,30.979 L25.177,3.064 C25.177,3.064 25.003,3.064 25.003,3.064 C24.715,3.064 24.482,2.835 24.482,2.553 C24.482,2.271 24.715,2.042 25.003,2.042 C25.003,2.042 25.698,2.042 25.698,2.042 C25.986,2.042 26.220,2.271 26.220,2.553 C26.220,2.553 26.220,31.489 26.220,31.489 C26.220,31.771 25.986,32.000 25.698,32.000 zM17.486,31.810 C17.390,31.926 17.244,32.000 17.076,32.000 C17.076,32.000 0.521,32.000 0.521,32.000 C0.233,32.000 -0.000,31.771 -0.000,31.489 C-0.000,31.489 -0.000,2.553 -0.000,2.553 C-0.000,2.271 0.233,2.042 0.521,2.042 C0.521,2.042 2.191,2.042 2.191,2.042 C2.567,0.852 3.709,-0.000 5.014,-0.000 C6.341,-0.000 7.465,0.861 7.837,2.042 C7.837,2.042 22.918,2.042 22.918,2.042 C23.206,2.042 23.439,2.271 23.439,2.553 C23.439,2.553 23.439,25.766 23.439,25.770 C23.439,25.931 23.364,26.074 23.245,26.168 C23.245,26.168 17.486,31.810 17.486,31.810 zM17.601,30.252 L21.655,26.281 L17.601,26.281 L17.601,30.252 zM5.014,1.021 C4.284,1.021 3.632,1.433 3.312,2.042 C3.312,2.042 6.716,2.042 6.716,2.042 C6.399,1.437 5.755,1.021 5.014,1.021 zM22.397,3.064 L7.968,3.064 C7.968,3.064 7.968,6.638 7.968,6.638 C7.968,7.671 7.111,8.511 6.057,8.511 C5.003,8.511 4.145,7.671 4.145,6.638 C4.145,6.638 4.145,4.596 4.145,4.596 C4.145,4.314 4.379,4.085 4.667,4.085 C4.955,4.085 5.188,4.314 5.188,4.596 C5.188,4.596 5.188,6.638 5.188,6.638 C5.188,7.108 5.578,7.489 6.057,7.489 C6.536,7.489 6.925,7.108 6.925,6.638 C6.925,6.638 6.925,3.064 6.925,3.064 L1.042,3.064 L1.042,30.979 L16.559,30.979 C16.559,30.979 16.559,25.770 16.559,25.770 C16.559,25.488 16.792,25.260 17.080,25.260 C17.080,25.260 22.397,25.260 22.397,25.260 L22.397,3.064 zM4.170,23.013 C4.170,22.731 4.403,22.502 4.691,22.502 C4.691,22.502 18.748,22.502 18.748,22.502 C19.036,22.502 19.269,22.731 19.269,23.013 C19.269,23.295 19.036,23.523 18.748,23.523 C18.748,23.523 4.691,23.523 4.691,23.523 C4.403,23.523 4.170,23.295 4.170,23.013 zM18.748,20.459 C18.748,20.459 4.691,20.459 4.691,20.459 C4.403,20.459 4.170,20.231 4.170,19.949 C4.170,19.667 4.403,19.438 4.691,19.438 C4.691,19.438 18.748,19.438 18.748,19.438 C19.036,19.438 19.269,19.667 19.269,19.949 C19.269,20.231 19.036,20.459 18.748,20.459 zM18.748,17.396 C18.748,17.396 4.691,17.396 4.691,17.396 C4.403,17.396 4.170,17.167 4.170,16.885 C4.170,16.603 4.403,16.374 4.691,16.374 C4.691,16.374 18.748,16.374 18.748,16.374 C19.036,16.374 19.269,16.603 19.269,16.885 C19.269,17.167 19.036,17.396 18.748,17.396 zM18.748,14.332 C18.748,14.332 4.691,14.332 4.691,14.332 C4.403,14.332 4.170,14.103 4.170,13.821 C4.170,13.539 4.403,13.311 4.691,13.311 C4.691,13.311 18.748,13.311 18.748,13.311 C19.036,13.311 19.269,13.539 19.269,13.821 C19.269,14.103 19.036,14.332 18.748,14.332 zM18.748,11.268 C18.748,11.268 4.691,11.268 4.691,11.268 C4.403,11.268 4.170,11.039 4.170,10.757 C4.170,10.475 4.403,10.247 4.691,10.247 C4.691,10.247 18.748,10.247 18.748,10.247 C19.036,10.247 19.269,10.475 19.269,10.757 C19.269,11.039 19.036,11.268 18.748,11.268 z" fill="#FFFFFF" />
</svg>
