<svg version="1.1" xmlns="http://www.w3.org/2000/svg" xmlns:xlink="http://www.w3.org/1999/xlink" width="49" height="59" viewBox="0 0 49 59">
<path id="iconquality" d="M39.881,33.153 C40.361,32.954 40.912,33.182 41.110,33.661 C41.110,33.661 48.919,52.520 48.919,52.520 C48.919,52.520 48.919,52.520 48.919,52.520 C49.058,52.853 48.993,53.238 48.751,53.508 C48.510,53.777 48.136,53.884 47.788,53.783 C47.788,53.783 40.191,51.582 40.191,51.582 C40.191,51.582 36.376,58.512 36.376,58.512 C36.209,58.814 35.893,59.000 35.551,59.000 C35.534,59.000 35.517,58.998 35.499,58.997 C35.138,58.978 34.820,58.752 34.681,58.419 C34.681,58.419 26.170,37.865 26.170,37.865 C25.619,37.914 25.062,37.940 24.498,37.940 C19.037,37.940 14.110,35.620 10.646,31.914 C10.646,31.914 2.564,51.430 2.564,51.430 C2.564,51.430 9.003,49.564 9.003,49.564 C9.426,49.442 9.878,49.627 10.090,50.014 C10.090,50.014 13.324,55.888 13.324,55.888 C13.324,55.888 19.871,40.079 19.871,40.079 C20.070,39.599 20.621,39.370 21.101,39.569 C21.581,39.768 21.809,40.319 21.610,40.800 C21.610,40.800 14.314,58.419 14.314,58.419 C14.175,58.752 13.857,58.978 13.496,58.997 C13.478,58.998 13.462,59.000 13.444,59.000 C13.102,59.000 12.786,58.814 12.620,58.512 C12.620,58.512 8.805,51.582 8.805,51.582 C8.805,51.582 1.207,53.783 1.207,53.783 C0.860,53.884 0.485,53.777 0.243,53.508 C0.002,53.238 -0.063,52.853 0.075,52.520 C0.075,52.520 9.284,30.284 9.284,30.284 C6.927,27.123 5.532,23.206 5.532,18.970 C5.532,8.509 14.039,-0.000 24.498,-0.000 C34.956,-0.000 43.464,8.509 43.464,18.970 C43.464,28.200 36.839,35.909 28.096,37.596 C28.096,37.596 35.671,55.888 35.671,55.888 C35.671,55.888 38.905,50.014 38.905,50.014 C39.117,49.627 39.568,49.442 39.992,49.564 C39.992,49.564 46.431,51.430 46.431,51.430 C46.431,51.430 39.372,34.383 39.372,34.383 C39.172,33.902 39.400,33.352 39.881,33.153 zM41.581,18.970 C41.581,9.548 33.918,1.883 24.498,1.883 C15.077,1.883 7.414,9.548 7.414,18.970 C7.414,18.970 7.414,18.970 7.414,18.970 C7.414,28.391 15.077,36.057 24.498,36.057 C33.918,36.057 41.581,28.391 41.581,18.970 zM13.622,15.435 C13.730,15.102 14.014,14.855 14.361,14.797 C14.361,14.797 20.695,13.735 20.695,13.735 C20.695,13.735 23.663,8.038 23.663,8.038 C23.825,7.726 24.146,7.531 24.498,7.531 C24.849,7.531 25.171,7.726 25.332,8.038 C25.332,8.038 28.300,13.735 28.300,13.735 C28.300,13.735 34.634,14.797 34.634,14.797 C34.980,14.855 35.265,15.102 35.374,15.435 C35.482,15.769 35.396,16.135 35.150,16.386 C35.150,16.386 30.651,20.969 30.651,20.969 C30.651,20.969 31.597,27.323 31.597,27.323 C31.648,27.670 31.503,28.017 31.220,28.224 C31.056,28.342 30.862,28.403 30.666,28.403 C30.523,28.403 30.379,28.371 30.246,28.305 C30.246,28.305 24.498,25.440 24.498,25.440 C24.498,25.440 18.748,28.305 18.748,28.305 C18.435,28.461 18.059,28.429 17.776,28.224 C17.492,28.017 17.346,27.670 17.398,27.323 C17.398,27.323 18.344,20.969 18.344,20.969 C18.344,20.969 13.845,16.386 13.845,16.386 C13.599,16.135 13.513,15.769 13.622,15.435 zM20.016,19.985 C20.223,20.195 20.319,20.491 20.275,20.783 C20.275,20.783 19.526,25.814 19.526,25.814 C19.526,25.814 24.078,23.546 24.078,23.546 C24.210,23.480 24.353,23.447 24.498,23.447 C24.642,23.447 24.785,23.480 24.917,23.546 C24.917,23.546 29.469,25.814 29.469,25.814 C29.469,25.814 28.720,20.783 28.720,20.783 C28.677,20.491 28.772,20.196 28.979,19.985 C28.979,19.985 32.541,16.355 32.541,16.355 C32.541,16.355 27.527,15.514 27.527,15.514 C27.236,15.465 26.984,15.282 26.847,15.021 C26.847,15.021 24.498,10.510 24.498,10.510 C24.498,10.510 22.148,15.021 22.148,15.021 C22.011,15.282 21.760,15.465 21.468,15.514 C21.468,15.514 16.454,16.355 16.454,16.355 C16.454,16.355 20.016,19.985 20.016,19.985 zM9.296,18.970 C9.296,10.586 16.116,3.765 24.498,3.765 C32.091,3.765 38.569,9.440 39.566,16.963 C39.634,17.478 39.272,17.952 38.757,18.020 C38.242,18.089 37.768,17.726 37.699,17.210 C36.827,10.619 31.151,5.648 24.498,5.648 C17.154,5.648 11.179,11.624 11.179,18.970 C11.179,26.315 17.154,32.291 24.498,32.291 C31.151,32.291 36.827,27.320 37.699,20.729 C37.768,20.213 38.241,19.850 38.757,19.919 C39.272,19.988 39.634,20.460 39.566,20.976 C38.569,28.500 32.091,34.174 24.498,34.174 C16.116,34.174 9.296,27.353 9.296,18.970 z" fill="#FF4141" />
</svg>
