<svg version="1.1" xmlns="http://www.w3.org/2000/svg" xmlns:xlink="http://www.w3.org/1999/xlink" width="32" height="32" viewBox="0 0 32 32">
<path id="icon-urgency" d="M16.000,32.000 C7.178,32.000 -0.000,24.822 -0.000,16.000 C-0.000,7.177 7.178,-0.000 16.000,-0.000 C24.822,-0.000 32.000,7.177 32.000,16.000 C32.000,24.822 24.822,32.000 16.000,32.000 zM16.000,1.157 C7.816,1.157 1.157,7.816 1.157,16.000 C1.157,24.184 7.816,30.843 16.000,30.843 C24.184,30.843 30.843,24.184 30.843,16.000 C30.843,7.816 24.184,1.157 16.000,1.157 zM16.000,29.225 C8.708,29.225 2.775,23.292 2.775,16.000 C2.775,8.708 8.708,2.775 16.000,2.775 C23.292,2.775 29.224,8.708 29.224,16.000 C29.224,23.292 23.292,29.225 16.000,29.225 zM16.000,3.933 C9.346,3.933 3.932,9.346 3.932,16.000 C3.932,22.654 9.346,28.067 16.000,28.067 C22.654,28.067 28.067,22.654 28.067,16.000 C28.067,9.346 22.654,3.933 16.000,3.933 zM26.981,16.579 C26.981,16.579 25.798,16.579 25.798,16.579 C25.479,16.579 25.220,16.319 25.220,16.000 C25.220,15.680 25.479,15.421 25.798,15.421 C25.798,15.421 26.981,15.421 26.981,15.421 C27.301,15.421 27.560,15.680 27.560,16.000 C27.560,16.319 27.301,16.579 26.981,16.579 zM25.800,11.010 C25.800,11.010 24.775,11.602 24.775,11.602 C24.684,11.654 24.584,11.679 24.486,11.679 C24.286,11.679 24.092,11.576 23.985,11.390 C23.825,11.113 23.920,10.759 24.196,10.600 C24.196,10.600 25.221,10.008 25.221,10.008 C25.498,9.848 25.851,9.943 26.011,10.220 C26.171,10.497 26.076,10.850 25.800,11.010 zM24.775,20.398 C24.775,20.398 25.800,20.990 25.800,20.990 C26.076,21.149 26.171,21.503 26.011,21.780 C25.904,21.966 25.710,22.069 25.510,22.069 C25.412,22.069 25.312,22.044 25.221,21.992 C25.221,21.992 24.196,21.400 24.196,21.400 C23.920,21.240 23.825,20.887 23.985,20.610 C24.144,20.333 24.498,20.238 24.775,20.398 zM17.624,15.194 C17.746,15.437 17.814,15.710 17.814,16.000 C17.814,16.289 17.746,16.563 17.624,16.806 C17.624,16.806 17.725,16.907 17.725,16.907 C17.951,17.133 17.951,17.499 17.725,17.725 C17.612,17.838 17.464,17.895 17.315,17.895 C17.167,17.895 17.019,17.838 16.906,17.725 C16.906,17.725 16.806,17.625 16.806,17.625 C16.563,17.746 16.289,17.814 16.000,17.814 C15.710,17.814 15.437,17.746 15.194,17.625 C15.194,17.625 15.093,17.725 15.093,17.725 C14.980,17.838 14.832,17.895 14.684,17.895 C14.536,17.895 14.388,17.838 14.275,17.725 C14.049,17.499 14.049,17.133 14.275,16.907 C14.275,16.907 14.375,16.806 14.375,16.806 C14.254,16.563 14.186,16.289 14.186,16.000 C14.186,15.710 14.254,15.436 14.375,15.193 C14.375,15.193 11.703,12.521 11.703,12.521 C11.477,12.295 11.477,11.928 11.703,11.702 C11.929,11.476 12.295,11.476 12.521,11.702 C12.521,11.702 15.194,14.375 15.194,14.375 C15.437,14.254 15.711,14.185 16.000,14.185 C16.290,14.185 16.563,14.254 16.807,14.375 C16.807,14.375 21.624,9.558 21.624,9.558 C21.850,9.332 22.216,9.332 22.442,9.558 C22.668,9.784 22.668,10.150 22.442,10.376 C22.442,10.376 17.624,15.194 17.624,15.194 zM16.000,15.343 C15.638,15.343 15.343,15.638 15.343,16.000 C15.343,16.362 15.638,16.657 16.000,16.657 C16.362,16.657 16.657,16.362 16.657,16.000 C16.657,15.638 16.362,15.343 16.000,15.343 zM21.400,7.803 C21.293,7.989 21.099,8.093 20.899,8.093 C20.800,8.093 20.701,8.068 20.610,8.015 C20.333,7.855 20.238,7.502 20.398,7.225 C20.398,7.225 20.990,6.200 20.990,6.200 C21.149,5.924 21.503,5.829 21.780,5.988 C22.057,6.148 22.152,6.502 21.992,6.779 C21.992,6.779 21.400,7.803 21.400,7.803 zM16.000,6.780 C15.680,6.780 15.421,6.521 15.421,6.201 C15.421,6.201 15.421,5.018 15.421,5.018 C15.421,4.699 15.680,4.440 16.000,4.440 C16.319,4.440 16.579,4.699 16.579,5.018 C16.579,5.018 16.579,6.201 16.579,6.201 C16.579,6.521 16.319,6.780 16.000,6.780 zM11.390,8.015 C11.299,8.068 11.199,8.093 11.101,8.093 C10.901,8.093 10.707,7.989 10.599,7.803 C10.599,7.803 10.008,6.779 10.008,6.779 C9.848,6.502 9.943,6.148 10.220,5.988 C10.496,5.829 10.850,5.923 11.010,6.200 C11.010,6.200 11.602,7.225 11.602,7.225 C11.761,7.502 11.667,7.855 11.390,8.015 zM7.804,21.400 C7.804,21.400 6.779,21.992 6.779,21.992 C6.688,22.044 6.588,22.069 6.490,22.069 C6.290,22.069 6.096,21.966 5.989,21.780 C5.829,21.503 5.924,21.149 6.200,20.990 C6.200,20.990 7.225,20.398 7.225,20.398 C7.502,20.238 7.855,20.333 8.015,20.610 C8.175,20.887 8.080,21.240 7.804,21.400 zM7.514,11.679 C7.415,11.679 7.316,11.654 7.225,11.602 C7.225,11.602 6.200,11.010 6.200,11.010 C5.924,10.850 5.829,10.497 5.989,10.220 C6.148,9.943 6.502,9.848 6.779,10.008 C6.779,10.008 7.804,10.600 7.804,10.600 C8.080,10.759 8.175,11.113 8.015,11.390 C7.908,11.576 7.714,11.679 7.514,11.679 zM6.780,16.000 C6.780,16.319 6.521,16.579 6.201,16.579 C6.201,16.579 5.018,16.579 5.018,16.579 C4.699,16.579 4.440,16.319 4.440,16.000 C4.440,15.680 4.699,15.421 5.018,15.421 C5.018,15.421 6.201,15.421 6.201,15.421 C6.521,15.421 6.780,15.680 6.780,16.000 zM10.599,24.196 C10.759,23.920 11.113,23.825 11.390,23.985 C11.667,24.144 11.762,24.498 11.602,24.775 C11.602,24.775 11.010,25.800 11.010,25.800 C10.903,25.985 10.708,26.089 10.508,26.089 C10.410,26.089 10.311,26.064 10.220,26.011 C9.943,25.852 9.848,25.498 10.008,25.221 C10.008,25.221 10.599,24.196 10.599,24.196 zM16.000,25.220 C16.319,25.220 16.579,25.479 16.579,25.798 C16.579,25.798 16.579,26.981 16.579,26.981 C16.579,27.301 16.319,27.560 16.000,27.560 C15.680,27.560 15.421,27.301 15.421,26.981 C15.421,26.981 15.421,25.798 15.421,25.798 C15.421,25.479 15.680,25.220 16.000,25.220 zM20.610,23.985 C20.887,23.825 21.240,23.920 21.400,24.196 C21.400,24.196 21.992,25.221 21.992,25.221 C22.152,25.498 22.057,25.852 21.780,26.011 C21.689,26.064 21.589,26.089 21.491,26.089 C21.291,26.089 21.097,25.985 20.990,25.800 C20.990,25.800 20.398,24.775 20.398,24.775 C20.238,24.498 20.333,24.144 20.610,23.985 z" fill="#FFFFFF" />
</svg>
