<svg version="1.1" xmlns="http://www.w3.org/2000/svg" xmlns:xlink="http://www.w3.org/1999/xlink" width="13" height="13" viewBox="0 0 13 13">
<path id="iconclose" d="M5.871,6.521 C5.871,6.521 0.146,12.300 0.146,12.300 C-0.012,12.461 -0.012,12.720 0.146,12.881 C0.226,12.961 0.330,13.001 0.434,13.001 C0.539,13.001 0.642,12.961 0.722,12.881 C0.722,12.881 6.489,7.058 6.489,7.058 C6.489,7.058 12.255,12.881 12.255,12.881 C12.335,12.961 12.439,13.001 12.544,13.001 C12.647,13.001 12.752,12.961 12.831,12.881 C12.991,12.720 12.991,12.461 12.831,12.300 C12.831,12.300 7.108,6.521 7.108,6.521 C7.108,6.521 12.835,0.738 12.835,0.738 C12.995,0.577 12.995,0.317 12.835,0.156 C12.676,-0.004 12.419,-0.004 12.259,0.156 C12.259,0.156 6.489,5.982 6.489,5.982 C6.489,5.982 0.718,0.156 0.718,0.156 C0.559,-0.004 0.301,-0.004 0.142,0.156 C-0.016,0.317 -0.016,0.577 0.142,0.738 C0.142,0.738 5.871,6.521 5.871,6.521 z" fill="#000000" />
</svg>
