<svg version="1.1" xmlns="http://www.w3.org/2000/svg" xmlns:xlink="http://www.w3.org/1999/xlink" width="32" height="22" viewBox="0 0 32 22">
<defs>
<filter id="iconcap-fx" filterUnits="userSpaceOnUse">
<feFlood flood-color="#42B574" flood-opacity="1.000"/>
<feComposite operator="in" in2="SourceGraphic"/>
<feBlend mode="normal" in2="SourceGraphic" result="colorOverlay"/>
</filter>
</defs>
<path id="iconcap" d="M0.999,5.288 C0.999,5.288 13.887,0.773 13.887,0.773 C15.249,0.295 16.750,0.295 18.113,0.773 C18.113,0.773 31.000,5.288 31.000,5.288 C31.607,5.500 32.000,6.062 32.000,6.718 C32.000,7.374 31.607,7.935 31.000,8.148 C31.000,8.148 25.033,10.238 25.033,10.238 C25.033,10.238 25.033,14.790 25.033,14.790 C25.033,15.620 24.094,16.250 22.162,16.715 C20.510,17.112 18.322,17.330 16.000,17.330 C13.678,17.330 11.489,17.112 9.838,16.715 C9.018,16.517 8.377,16.290 7.911,16.031 C7.911,16.031 7.911,16.959 7.911,16.959 C8.495,17.161 8.918,17.727 8.918,18.392 C8.918,18.392 8.918,20.965 8.918,20.965 C8.918,21.231 8.706,21.447 8.446,21.447 C8.446,21.447 6.431,21.447 6.431,21.447 C6.170,21.447 5.959,21.231 5.959,20.965 C5.959,20.965 5.959,18.392 5.959,18.392 C5.959,17.727 6.381,17.161 6.966,16.959 C6.966,16.959 6.966,10.238 6.966,10.238 C6.966,10.238 0.999,8.148 0.999,8.148 C0.392,7.935 -0.000,7.373 -0.000,6.718 C-0.000,6.062 0.392,5.500 0.999,5.288 zM10.054,15.775 C11.637,16.156 13.748,16.365 16.000,16.365 C18.251,16.365 20.363,16.156 21.945,15.775 C23.708,15.352 24.089,14.883 24.089,14.790 C24.089,14.790 24.089,13.972 24.089,13.972 C23.622,14.232 22.982,14.459 22.162,14.656 C20.510,15.053 18.322,15.272 16.000,15.272 C13.678,15.272 11.489,15.053 9.838,14.656 C9.018,14.459 8.377,14.232 7.911,13.972 C7.911,13.972 7.911,14.790 7.911,14.790 C7.911,14.883 8.292,15.352 10.054,15.775 zM6.903,20.482 L7.974,20.482 C7.974,20.482 7.974,18.392 7.974,18.392 C7.974,18.090 7.734,17.845 7.438,17.845 C7.143,17.845 6.903,18.090 6.903,18.392 C6.903,18.392 6.903,20.482 6.903,20.482 zM7.911,12.731 C7.911,12.824 8.292,13.293 10.054,13.717 C11.637,14.098 13.748,14.307 16.000,14.307 C18.251,14.307 20.363,14.098 21.945,13.717 C23.708,13.293 24.089,12.825 24.089,12.731 C24.089,12.731 24.089,10.569 24.089,10.569 C24.089,10.569 18.113,12.662 18.113,12.662 C17.432,12.901 16.716,13.020 16.000,13.020 C15.284,13.020 14.568,12.901 13.887,12.662 C13.887,12.662 7.911,10.569 7.911,10.569 C7.911,10.569 7.911,12.731 7.911,12.731 zM1.306,7.235 C1.306,7.235 6.966,9.218 6.966,9.218 C6.987,9.206 7.010,9.195 7.034,9.187 C7.034,9.187 13.572,6.896 13.572,6.896 C13.534,6.788 13.513,6.674 13.513,6.555 C13.513,5.694 14.582,5.044 16.000,5.044 C17.417,5.044 18.486,5.694 18.486,6.555 C18.486,7.418 17.417,8.067 16.000,8.067 C15.309,8.067 14.701,7.913 14.259,7.654 C14.223,7.681 14.183,7.702 14.138,7.718 C14.138,7.718 8.412,9.724 8.412,9.724 C8.412,9.724 14.193,11.750 14.193,11.750 C15.358,12.158 16.641,12.158 17.807,11.750 C17.807,11.750 30.694,7.235 30.694,7.235 C31.029,7.117 31.055,6.809 31.055,6.718 C31.055,6.626 31.029,6.318 30.694,6.200 C30.694,6.200 17.807,1.685 17.807,1.685 C17.224,1.481 16.612,1.379 16.000,1.379 C15.388,1.379 14.775,1.481 14.193,1.685 C14.193,1.685 1.306,6.200 1.306,6.200 C0.970,6.318 0.944,6.626 0.944,6.718 C0.944,6.809 0.970,7.117 1.306,7.235 zM14.457,6.555 C14.457,6.696 14.988,7.102 16.000,7.102 C17.012,7.102 17.542,6.696 17.542,6.555 C17.542,6.415 17.012,6.009 16.000,6.009 C14.988,6.009 14.457,6.415 14.457,6.555 z" fill="#FFFFFF" filter="url(#iconcap-fx)" />
</svg>
