<?xml version="1.0" encoding="utf-8"?>
<!-- Generator: Adobe Illustrator 19.0.1, SVG Export Plug-In . SVG Version: 6.00 Build 0)  -->
<svg version="1.1" id="Object" xmlns="http://www.w3.org/2000/svg" xmlns:xlink="http://www.w3.org/1999/xlink" x="0px" y="0px"
	 viewBox="0 0 776.6 320.9" style="enable-background:new 0 0 776.6 320.9;" xml:space="preserve">
<style type="text/css">
	.st0{fill:none;stroke:#EAC194;stroke-width:18;stroke-linecap:round;stroke-miterlimit:10;}
	.st1{fill:#EAC194;}
	.st2{fill:#758DA0;}
	.st3{fill:#516375;}
	.st4{opacity:0.5;}
	.st5{fill:#FFFFFF;}
	.st6{opacity:4.000000e-002;}
	.st7{fill:#D63318;}
	.st8{fill:#EA5334;}
	.st9{opacity:0.15;}
	.st10{opacity:0.2;}
	.st11{fill:none;stroke:#EAC194;stroke-width:14;stroke-linecap:round;stroke-miterlimit:10;}
	.st12{opacity:0.13;}
	.st13{fill:#ED9429;}
	.st14{fill:#F9BD38;}
	.st15{opacity:0.55;}
	.st16{font-family:'AbrilFatface-Regular';}
	.st17{font-size:26.5644px;}
	.st18{fill:#A09575;}
	.st19{fill:#187AD6;}
	.st20{fill:#3485EA;}
	.st21{fill:#EAD694;}
	.st22{fill:#7775A0;}
	.st23{fill:#D67118;}
	.st24{fill:#EA8E34;}
</style>
<line id="XMLID_3_" class="st0" x1="249.4" y1="135" x2="234.3" y2="113.2"/>
<line id="XMLID_80_" class="st0" x1="530.4" y1="135" x2="545.4" y2="113.2"/>
<path id="XMLID_334_" class="st1" d="M470.9,320.9l15.2-87.7l22.1-51l44.5,17c0,0-30.1,19.4-38.5,32.4l-4,89.3"/>
<polyline id="XMLID_333_" class="st2" points="511.1,320.9 519.1,247.6 479.9,247.6 470.9,320.9 "/>
<polyline id="XMLID_332_" class="st3" points="511.7,320.9 518.3,264.2 476.3,264.2 468.6,320.9 "/>
<polygon id="XMLID_331_" class="st4" points="514.6,231.1 485.1,239.1 484,245.6 "/>
<path id="XMLID_270_" class="st1" d="M303.6,320.9l-15.2-87.7l-22.1-51l-44.5,17c0,0,30.1,19.4,38.5,32.4l4,89.3"/>
<polyline id="XMLID_265_" class="st2" points="263.4,320.9 255.4,247.6 294.6,247.6 303.6,320.9 "/>
<polyline id="XMLID_271_" class="st3" points="262.8,320.9 256.2,264.2 298.2,264.2 305.9,320.9 "/>
<polygon id="XMLID_277_" class="st4" points="259.9,231.1 289.4,239.1 290.5,245.6 "/>
<g id="XMLID_264_">
	<g id="XMLID_242_">
		<polygon id="XMLID_252_" class="st5" points="264.1,217 385.5,250 385.5,40.7 264.1,2.6 		"/>
		<polygon id="XMLID_251_" class="st6" points="261.6,218.6 383,251.6 381,39.5 264.1,5 		"/>
		<polygon id="XMLID_250_" class="st5" points="259.6,219.9 381,252.9 381.5,39.5 259.6,5.5 		"/>
		<polygon id="XMLID_249_" class="st6" points="257.2,220.4 378.5,253.4 376.5,41.2 259.6,7.1 		"/>
		<polygon id="XMLID_248_" class="st5" points="255.4,222.1 376.7,255.1 376.7,40.7 255.4,7.7 		"/>
		<polygon id="XMLID_247_" class="st6" points="252.9,222.3 374.3,255.3 372.3,43.1 255.4,9 		"/>
		<polygon id="XMLID_246_" class="st5" points="251.9,224.4 373.2,257.4 373.2,43 251.9,10 		"/>
		<polygon id="XMLID_245_" class="st6" points="249.4,225.3 370.8,258.3 367.6,46 251.8,12 		"/>
		<path id="XMLID_244_" class="st5" d="M270.5,0.2c0,0,68,7.8,115,40.6l-115-36.2V0.2z"/>
		<polygon id="XMLID_243_" class="st6" points="270.5,2.2 362.4,32.2 270.5,4.5 		"/>
	</g>
	<g id="XMLID_240_">
		<polygon id="XMLID_234_" class="st5" points="510.7,216.9 389.3,249.9 389.3,40.6 510.7,2.5 		"/>
		<polygon id="XMLID_235_" class="st6" points="513.2,218.5 391.8,251.5 393.8,39.3 510.7,4.8 		"/>
		<polygon id="XMLID_233_" class="st5" points="515.2,219.7 393.8,252.7 393.4,39.3 515.2,5.3 		"/>
		<polygon id="XMLID_236_" class="st6" points="517.6,220.2 396.2,253.2 398.2,41.1 515.2,7 		"/>
		<polygon id="XMLID_231_" class="st5" points="519.4,222 398,255 398,40.6 519.4,7.6 		"/>
		<polygon id="XMLID_237_" class="st6" points="521.8,222.1 400.5,255.1 402.5,43 519.4,8.9 		"/>
		<polygon id="XMLID_230_" class="st5" points="522.9,224.2 401.5,257.2 401.5,42.8 522.9,9.8 		"/>
		<polygon id="XMLID_238_" class="st6" points="525.4,225.1 404,258.1 407.2,45.8 523,11.9 		"/>
		<path id="XMLID_224_" class="st5" d="M504.3,0c0,0-68,7.8-115,40.6l115-36.2V0z"/>
		<polygon id="XMLID_239_" class="st6" points="504.3,2 412.4,32.1 504.3,4.4 		"/>
	</g>
	<path id="XMLID_225_" class="st7" d="M387.4,51.1c-8.3,0-15.7-2.1-19.8-5.2v212.7c0,6.2,8.9,11.3,19.8,11.3
		c10.9,0,19.8-5,19.8-11.3V45.8C403.1,49,395.7,51.1,387.4,51.1z"/>
	<path id="XMLID_226_" class="st8" d="M367.6,105.5v16.1c5.1,2.8,12.1,4.6,19.8,4.6s14.7-1.8,19.8-4.6v-16.1
		c-5.1,2.8-12.1,4.6-19.8,4.6S372.7,108.3,367.6,105.5z"/>
	<path id="XMLID_227_" class="st8" d="M367.6,88v9.1c5.1,2.8,12.1,4.6,19.8,4.6s14.7-1.8,19.8-4.6V88c-5.1,2.8-12.1,4.6-19.8,4.6
		S372.7,90.8,367.6,88z"/>
	<path id="XMLID_293_" class="st9" d="M367.6,105.5v16.1c5.1,2.8,12.1,4.6,19.8,4.6s14.7-1.8,19.8-4.6v-16.1
		c-5.1,2.8-12.1,4.6-19.8,4.6S372.7,108.3,367.6,105.5z"/>
	<path id="XMLID_292_" class="st9" d="M367.6,88v9.1c5.1,2.8,12.1,4.6,19.8,4.6s14.7-1.8,19.8-4.6V88c-5.1,2.8-12.1,4.6-19.8,4.6
		S372.7,90.8,367.6,88z"/>
	<path id="XMLID_222_" class="st8" d="M528.6,223.6c0,2.2-1.4,4-3.5,4.6l-117.9,32V45.8l115.3-31.4c1.4-0.4,3-0.1,4.2,0.8
		c1.2,0.9,1.9,2.3,1.9,3.8V223.6z"/>
	<path id="XMLID_241_" class="st8" d="M246.2,223.7c0,2.2,1.4,4,3.5,4.6l117.9,32V46L252.2,14.6c-1.4-0.4-3-0.1-4.2,0.8
		c-1.2,0.9-1.9,2.3-1.9,3.8V223.7z"/>
	<polygon id="XMLID_232_" class="st7" points="504.2,72.4 429.2,92.8 429.2,106.2 504.2,85.8 	"/>
	<polygon id="XMLID_229_" class="st7" points="495.2,98.5 438.2,114 438.2,124.2 495.2,108.7 	"/>
	<polygon id="XMLID_257_" class="st5" points="389.9,51 384.7,51 384.7,40.2 387.4,41.6 389.9,40.2 	"/>
</g>
<g id="XMLID_272_">
	<path id="XMLID_285_" class="st10" d="M268.9,175.4c4.1-0.8,7.2-4.5,7.2-8.8c0-5-4-9-9-9h-0.9c2.9-1.5,4.9-4.5,4.9-8c0-5-4-9-9-9
		h-33.3c-5,0-9,4-9,9c0,3.9,2.5,7.3,6.1,8.5c-3.5,1.2-6.1,4.6-6.1,8.5s2.5,7.3,6.1,8.5c-3.5,1.2-6.1,4.6-6.1,8.5
		c0,4,2.6,7.4,6.2,8.6c-2.5,1.1-4.2,3.5-4.2,6.4l1.8,1.8l34.4,5.3c3.9,0,7-3.1,7-7c0-2.6-1.4-4.8-3.4-6h3.4c5,0,9-4,9-9
		C274.2,179.9,272,176.8,268.9,175.4z"/>
	<line id="XMLID_266_" class="st0" x1="224.9" y1="144.6" x2="258.2" y2="144.6"/>
	<line id="XMLID_267_" class="st0" x1="224.9" y1="161.6" x2="263.2" y2="161.6"/>
	<line id="XMLID_268_" class="st0" x1="261.2" y1="178.6" x2="224.9" y2="178.6"/>
	<line id="XMLID_269_" class="st11" x1="224.9" y1="193.6" x2="254.2" y2="193.6"/>
</g>
<g id="XMLID_279_">
	<path id="XMLID_284_" class="st10" d="M505.6,175.4c-4.1-0.8-7.2-4.5-7.2-8.8c0-5,4-9,9-9h0.9c-2.9-1.5-4.9-4.5-4.9-8c0-5,4-9,9-9
		h33.3c5,0,9,4,9,9c0,3.9-2.5,7.3-6.1,8.5c3.5,1.2,6.1,4.6,6.1,8.5s-2.5,7.3-6.1,8.5c3.5,1.2,6.1,4.6,6.1,8.5c0,4-2.6,7.4-6.2,8.6
		c2.5,1.1,4.2,3.5,4.2,6.4l-1.8,1.8l-34.4,5.3c-3.9,0-7-3.1-7-7c0-2.6,1.4-4.8,3.4-6h-3.4c-5,0-9-4-9-9
		C500.3,179.9,502.5,176.8,505.6,175.4z"/>
	<line id="XMLID_283_" class="st0" x1="549.6" y1="144.6" x2="516.3" y2="144.6"/>
	<line id="XMLID_282_" class="st0" x1="549.6" y1="161.6" x2="511.3" y2="161.6"/>
	<line id="XMLID_281_" class="st0" x1="513.3" y1="178.6" x2="549.6" y2="178.6"/>
	<line id="XMLID_280_" class="st11" x1="549.6" y1="193.6" x2="520.3" y2="193.6"/>
</g>
<path id="XMLID_301_" class="st12" d="M367.6,46c0,0,9.1,2.1,19.8,2.1c11.5,0,19.8-2.2,19.8-2.2s-6.5,5.2-19.8,5.2
	C381.6,51.1,374.8,50.5,367.6,46z"/>
<polygon id="XMLID_306_" class="st4" points="463.4,120.7 446.8,115.1 430.2,130.7 428,40.2 461.2,31.2 "/>
<polygon id="XMLID_302_" class="st13" points="461.2,118.6 444.6,112.9 428,128.6 428,40.2 461.2,31.2 "/>
<polygon id="XMLID_303_" class="st14" points="428,40.2 417.9,35.2 450,26.4 461.2,31.2 "/>
<text id="XMLID_304_" transform="matrix(0 -1.0164 0.9564 -0.2922 453.1064 102.7201)" class="st15 st16 st17">2016</text>
<g id="XMLID_367_">
	<path id="XMLID_407_" class="st1" d="M20.8,211.1c-1.8,0-3.5-0.8-4.6-2.4l-9.3-13.5c-1.8-2.5-1.1-6,1.4-7.8c2.5-1.8,6-1.1,7.8,1.4
		l9.3,13.5c1.8,2.5,1.1,6-1.4,7.8C23,210.8,21.9,211.1,20.8,211.1z"/>
</g>
<g id="XMLID_366_">
	<path id="XMLID_406_" class="st1" d="M195.1,211.1c-1.1,0-2.2-0.3-3.2-1c-2.5-1.8-3.2-5.2-1.4-7.8l9.3-13.5
		c1.8-2.5,5.2-3.2,7.8-1.4c2.5,1.8,3.2,5.2,1.4,7.8l-9.3,13.5C198.6,210.3,196.9,211.1,195.1,211.1z"/>
</g>
<path id="XMLID_432_" class="st1" d="M158.2,320.9l9.5-54.4l13.7-31.6l27.6,10.5c0,0-18.7,12-23.9,20.1l-2.5,55.4"/>
<polyline id="XMLID_431_" class="st18" points="183.2,320.9 188.1,275.4 163.8,275.4 158.2,320.9 "/>
<g id="XMLID_362_" class="st4">
	<polygon id="XMLID_404_" points="185.3,265.2 167,270.2 166.4,274.2 	"/>
</g>
<path id="XMLID_429_" class="st1" d="M54.4,320.9l-9.5-54.4l-13.7-31.6L3.6,245.4c0,0,18.7,12,23.9,20.1l2.5,55.4"/>
<polyline id="XMLID_428_" class="st18" points="29.4,320.9 24.5,275.4 48.8,275.4 54.4,320.9 "/>
<g id="XMLID_357_" class="st4">
	<polygon id="XMLID_403_" points="27.3,265.2 45.6,270.2 46.3,274.2 	"/>
</g>
<g id="XMLID_355_">
	<polygon id="XMLID_426_" class="st5" points="29.9,256.5 105.2,276.9 105.2,147.1 29.9,123.4 	"/>
</g>
<g id="XMLID_354_" class="st6">
	<polygon id="XMLID_402_" points="28.4,257.5 103.7,277.9 102.4,146.3 29.9,124.9 	"/>
</g>
<g id="XMLID_353_">
	<polygon id="XMLID_425_" class="st5" points="27.1,258.2 102.4,278.7 102.7,146.3 27.1,125.2 	"/>
</g>
<g id="XMLID_351_" class="st6">
	<polygon id="XMLID_401_" points="25.6,258.5 100.9,279 99.7,147.4 27.1,126.2 	"/>
</g>
<g id="XMLID_350_">
	<polygon id="XMLID_424_" class="st5" points="24.5,259.6 99.8,280.1 99.8,147.1 24.5,126.6 	"/>
</g>
<g id="XMLID_349_" class="st6">
	<polygon id="XMLID_400_" points="23,259.7 98.3,280.2 97,148.6 24.5,127.4 	"/>
</g>
<polyline id="XMLID_423_" class="st5" points="97.6,281.5 97.6,148.5 22.3,128 22.3,261 97.6,281.5 "/>
<polyline id="XMLID_399_" points="96.1,282.1 94.1,150.3 22.3,129.2 20.8,261.6 96.1,282.1 "/>
<g id="XMLID_346_">
	<path id="XMLID_422_" class="st5" d="M33.8,121.9c0,0,42.2,4.8,71.4,25.2l-71.4-22.5V121.9z"/>
</g>
<g id="XMLID_345_" class="st6">
	<polygon id="XMLID_398_" points="33.8,123.1 90.9,141.8 33.8,124.6 	"/>
</g>
<g id="XMLID_343_">
	<polygon id="XMLID_421_" class="st5" points="182.9,256.4 107.6,276.8 107.6,147 182.9,123.3 	"/>
</g>
<g id="XMLID_341_" class="st6">
	<polygon id="XMLID_397_" points="184.4,257.4 109.1,277.8 110.4,146.2 182.9,124.8 	"/>
</g>
<g id="XMLID_340_">
	<polygon id="XMLID_420_" class="st5" points="185.7,258.1 110.4,278.6 110.1,146.2 185.7,125.1 	"/>
</g>
<g id="XMLID_339_" class="st6">
	<polygon id="XMLID_395_" points="187.2,258.4 111.9,278.9 113.1,147.3 185.7,126.1 	"/>
</g>
<g id="XMLID_338_">
	<polygon id="XMLID_419_" class="st5" points="188.3,259.5 113,280 113,147 188.3,126.5 	"/>
</g>
<g id="XMLID_337_" class="st6">
	<polygon id="XMLID_394_" points="189.8,259.6 114.5,280.1 115.8,148.5 188.3,127.3 	"/>
</g>
<polyline id="XMLID_418_" class="st5" points="115.2,281.4 115.2,148.4 190.5,127.9 190.5,260.9 115.2,281.4 "/>
<polyline id="XMLID_393_" points="116.7,282 118.7,150.2 190.5,129.2 192,261.5 116.7,282 "/>
<g id="XMLID_329_">
	<path id="XMLID_417_" class="st5" d="M179,121.8c0,0-42.2,4.8-71.4,25.2l71.4-22.5V121.8z"/>
</g>
<g id="XMLID_328_" class="st6">
	<polygon id="XMLID_391_" points="179,123 121.9,141.7 179,124.5 	"/>
</g>
<path id="XMLID_416_" class="st19" d="M118.7,282.2v-132c-2.6,2-7.1,3.3-12.3,3.3c-5.2,0-9.7-1.3-12.3-3.3v132"/>
<g id="XMLID_325_">
	<path id="XMLID_415_" class="st20" d="M94.1,187.2v10c3.2,1.8,7.5,2.8,12.3,2.8c4.8,0,9.1-1.1,12.3-2.8v-10
		c-3.2,1.8-7.5,2.9-12.3,2.9S97.3,189,94.1,187.2z"/>
</g>
<g id="XMLID_324_">
	<path id="XMLID_414_" class="st20" d="M94.1,176.4v5.7c3.2,1.8,7.5,2.8,12.3,2.8c4.8,0,9.1-1.1,12.3-2.8v-5.7
		c-3.2,1.8-7.5,2.9-12.3,2.9S97.3,178.1,94.1,176.4z"/>
</g>
<g id="XMLID_323_" class="st9">
	<path id="XMLID_390_" d="M94.1,187.2v10c3.2,1.8,7.5,2.8,12.3,2.8c4.8,0,9.1-1.1,12.3-2.8v-10c-3.2,1.8-7.5,2.9-12.3,2.9
		S97.3,189,94.1,187.2z"/>
</g>
<g id="XMLID_322_" class="st9">
	<path id="XMLID_389_" d="M94.1,176.4v5.7c3.2,1.8,7.5,2.8,12.3,2.8c4.8,0,9.1-1.1,12.3-2.8v-5.7c-3.2,1.8-7.5,2.9-12.3,2.9
		S97.3,178.1,94.1,176.4z"/>
</g>
<path id="XMLID_413_" class="st20" d="M118.7,283.3v-133l71.6-19.5c0.9-0.2,1.8-0.1,2.6,0.5c0.7,0.6,1.2,1.4,1.2,2.4v126.9
	c0,1.3-0.9,2.5-2.2,2.9L118.7,283.3"/>
<path id="XMLID_412_" class="st20" d="M94.1,283.4v-133l-71.6-19.5c-0.9-0.2-1.8-0.1-2.6,0.5c-0.7,0.6-1.2,1.4-1.2,2.4v126.9
	c0,1.3,0.9,2.5,2.2,2.9L94.1,283.4"/>
<g id="XMLID_315_">
	<polygon id="XMLID_411_" class="st19" points="178.9,166.7 132.4,179.4 132.4,187.7 178.9,175.1 	"/>
</g>
<g id="XMLID_314_">
	<polygon id="XMLID_410_" class="st19" points="173.3,182.9 138,192.5 138,198.8 173.3,189.2 	"/>
</g>
<g id="XMLID_313_">
	<polygon id="XMLID_409_" class="st5" points="107.9,153.4 104.7,153.4 104.7,146.7 106.4,147.6 107.9,146.7 	"/>
</g>
<g id="XMLID_296_">
	<g id="XMLID_311_" class="st4">
		<path id="XMLID_384_" class="st10" d="M32.9,230.6c2.6-0.5,4.5-2.8,4.5-5.5c0-3.1-2.5-5.6-5.6-5.6h-0.6c1.8-0.9,3-2.8,3-5
			c0-3.1-2.5-5.6-5.6-5.6H8.1c-3.1,0-5.6,2.5-5.6,5.6c0,2.4,1.6,4.5,3.8,5.3c-2.2,0.8-3.8,2.8-3.8,5.3c0,2.4,1.6,4.5,3.8,5.3
			c-2.2,0.8-3.8,2.8-3.8,5.3c0,2.5,1.6,4.6,3.9,5.3c-1.5,0.7-2.6,2.2-2.6,4l1.1,1.1l21.4,3.3c2.4,0,4.3-1.9,4.3-4.3
			c0-1.6-0.8-3-2.1-3.7h2.1c3.1,0,5.6-2.5,5.6-5.6C36.2,233.4,34.8,231.5,32.9,230.6z"/>
	</g>
	<g id="XMLID_300_">
		<path id="XMLID_388_" class="st1" d="M26.2,217.1H5.6c-3.1,0-5.6-2.5-5.6-5.6s2.5-5.6,5.6-5.6h20.6c3.1,0,5.6,2.5,5.6,5.6
			S29.3,217.1,26.2,217.1z"/>
	</g>
	<g id="XMLID_299_">
		<path id="XMLID_387_" class="st1" d="M29.3,227.6H5.6c-3.1,0-5.6-2.5-5.6-5.6c0-3.1,2.5-5.6,5.6-5.6h23.8c3.1,0,5.6,2.5,5.6,5.6
			C34.9,225.1,32.4,227.6,29.3,227.6z"/>
	</g>
	<g id="XMLID_298_">
		<path id="XMLID_386_" class="st1" d="M28.1,238.2H5.6c-3.1,0-5.6-2.5-5.6-5.6c0-3.1,2.5-5.6,5.6-5.6h22.5c3.1,0,5.6,2.5,5.6,5.6
			C33.7,235.7,31.2,238.2,28.1,238.2z"/>
	</g>
	<g id="XMLID_297_">
		<path id="XMLID_385_" class="st1" d="M23.8,246.2H5.6c-2.4,0-4.3-1.9-4.3-4.3s1.9-4.3,4.3-4.3h18.2c2.4,0,4.3,1.9,4.3,4.3
			S26.1,246.2,23.8,246.2z"/>
	</g>
</g>
<g id="XMLID_286_">
	<g id="XMLID_295_" class="st4">
		<path id="XMLID_379_" class="st10" d="M179.7,230.6c-2.6-0.5-4.5-2.8-4.5-5.5c0-3.1,2.5-5.6,5.6-5.6h0.6c-1.8-0.9-3-2.8-3-5
			c0-3.1,2.5-5.6,5.6-5.6h20.6c3.1,0,5.6,2.5,5.6,5.6c0,2.4-1.6,4.5-3.8,5.3c2.2,0.8,3.8,2.8,3.8,5.3c0,2.4-1.6,4.5-3.8,5.3
			c2.2,0.8,3.8,2.8,3.8,5.3c0,2.5-1.6,4.6-3.9,5.3c1.5,0.7,2.6,2.2,2.6,4l-1.1,1.1l-21.4,3.3c-2.4,0-4.3-1.9-4.3-4.3
			c0-1.6,0.8-3,2.1-3.7H182c-3.1,0-5.6-2.5-5.6-5.6C176.5,233.4,177.8,231.5,179.7,230.6z"/>
	</g>
	<g id="XMLID_291_">
		<path id="XMLID_383_" class="st1" d="M207,217.1h-20.6c-3.1,0-5.6-2.5-5.6-5.6s2.5-5.6,5.6-5.6H207c3.1,0,5.6,2.5,5.6,5.6
			S210.1,217.1,207,217.1z"/>
	</g>
	<g id="XMLID_290_">
		<path id="XMLID_382_" class="st1" d="M207,227.6h-23.8c-3.1,0-5.6-2.5-5.6-5.6c0-3.1,2.5-5.6,5.6-5.6H207c3.1,0,5.6,2.5,5.6,5.6
			C212.6,225.1,210.1,227.6,207,227.6z"/>
	</g>
	<g id="XMLID_289_">
		<path id="XMLID_381_" class="st1" d="M207,238.2h-22.5c-3.1,0-5.6-2.5-5.6-5.6c0-3.1,2.5-5.6,5.6-5.6H207c3.1,0,5.6,2.5,5.6,5.6
			C212.6,235.7,210.1,238.2,207,238.2z"/>
	</g>
	<g id="XMLID_287_">
		<path id="XMLID_380_" class="st1" d="M207,246.2h-18.2c-2.4,0-4.3-1.9-4.3-4.3s1.9-4.3,4.3-4.3H207c2.4,0,4.3,1.9,4.3,4.3
			S209.4,246.2,207,246.2z"/>
	</g>
</g>
<g id="XMLID_274_" class="st12">
	<path id="XMLID_378_" d="M94.1,150.3c0,0,5.6,1.3,12.3,1.3c7.1,0,12.3-1.4,12.3-1.4s-4,3.3-12.3,3.3
		C102.8,153.5,98.6,153.1,94.1,150.3z"/>
</g>
<g id="XMLID_563_">
	<path id="XMLID_564_" class="st21" d="M584.8,211.1c-1.8,0-3.5-0.8-4.6-2.4l-9.3-13.5c-1.8-2.5-1.1-6,1.4-7.8
		c2.5-1.8,6-1.1,7.8,1.4l9.3,13.5c1.8,2.5,1.1,6-1.4,7.8C587,210.8,585.9,211.1,584.8,211.1z"/>
</g>
<g id="XMLID_561_">
	<path id="XMLID_562_" class="st21" d="M759.1,211.1c-1.1,0-2.2-0.3-3.2-1c-2.5-1.8-3.2-5.2-1.4-7.8l9.3-13.5
		c1.8-2.5,5.2-3.2,7.8-1.4c2.5,1.8,3.2,5.2,1.4,7.8l-9.3,13.5C762.6,210.3,760.9,211.1,759.1,211.1z"/>
</g>
<path id="XMLID_560_" class="st21" d="M722.2,320.9l9.5-54.4l13.7-31.6l27.6,10.5c0,0-18.7,12-23.9,20.1l-2.5,55.4"/>
<polyline id="XMLID_558_" class="st22" points="747.2,320.9 752.2,275.4 727.8,275.4 722.2,320.9 "/>
<g id="XMLID_553_" class="st4">
	<polygon id="XMLID_554_" points="749.3,265.2 731,270.2 730.4,274.2 	"/>
</g>
<path id="XMLID_551_" class="st21" d="M618.4,320.9l-9.5-54.4l-13.7-31.6l-27.6,10.5c0,0,18.7,12,23.9,20.1l2.5,55.4"/>
<polyline id="XMLID_549_" class="st22" points="593.4,320.9 588.5,275.4 612.8,275.4 618.4,320.9 "/>
<g id="XMLID_544_" class="st4">
	<polygon id="XMLID_545_" points="591.3,265.2 609.6,270.2 610.3,274.2 	"/>
</g>
<g id="XMLID_541_">
	<polygon id="XMLID_542_" class="st5" points="593.9,256.5 669.2,276.9 669.2,147.1 593.9,123.4 	"/>
</g>
<g id="XMLID_539_" class="st6">
	<polygon id="XMLID_540_" points="592.4,257.5 667.7,277.9 666.4,146.3 593.9,124.9 	"/>
</g>
<g id="XMLID_537_">
	<polygon id="XMLID_538_" class="st5" points="591.1,258.2 666.4,278.7 666.7,146.3 591.1,125.2 	"/>
</g>
<g id="XMLID_535_" class="st6">
	<polygon id="XMLID_536_" points="589.6,258.5 664.9,279 663.7,147.4 591.1,126.2 	"/>
</g>
<g id="XMLID_533_">
	<polygon id="XMLID_534_" class="st5" points="588.5,259.6 663.8,280.1 663.8,147.1 588.5,126.6 	"/>
</g>
<g id="XMLID_531_" class="st6">
	<polygon id="XMLID_532_" points="587,259.7 662.3,280.2 661,148.6 588.5,127.4 	"/>
</g>
<polyline id="XMLID_530_" class="st5" points="661.6,281.5 661.6,148.5 586.3,128 586.3,261 661.6,281.5 "/>
<polyline id="XMLID_528_" points="660.1,282.1 658.1,150.3 586.3,129.2 584.8,261.6 660.1,282.1 "/>
<g id="XMLID_525_">
	<path id="XMLID_526_" class="st5" d="M597.9,121.9c0,0,42.2,4.8,71.4,25.2l-71.4-22.5V121.9z"/>
</g>
<g id="XMLID_523_" class="st6">
	<polygon id="XMLID_524_" points="597.9,123.1 654.9,141.8 597.9,124.6 	"/>
</g>
<g id="XMLID_520_">
	<polygon id="XMLID_521_" class="st5" points="746.9,256.4 671.6,276.8 671.6,147 746.9,123.3 	"/>
</g>
<g id="XMLID_518_" class="st6">
	<polygon id="XMLID_519_" points="748.4,257.4 673.1,277.8 674.4,146.2 746.9,124.8 	"/>
</g>
<g id="XMLID_516_">
	<polygon id="XMLID_517_" class="st5" points="749.7,258.1 674.4,278.6 674.1,146.2 749.7,125.1 	"/>
</g>
<g id="XMLID_514_" class="st6">
	<polygon id="XMLID_515_" points="751.2,258.4 675.9,278.9 677.1,147.3 749.7,126.1 	"/>
</g>
<g id="XMLID_512_">
	<polygon id="XMLID_513_" class="st5" points="752.3,259.5 677,280 677,147 752.3,126.5 	"/>
</g>
<g id="XMLID_510_" class="st6">
	<polygon id="XMLID_511_" points="753.8,259.6 678.5,280.1 679.8,148.5 752.3,127.3 	"/>
</g>
<polyline id="XMLID_509_" class="st5" points="679.2,281.4 679.2,148.4 754.5,127.9 754.5,260.9 679.2,281.4 "/>
<polyline id="XMLID_507_" points="680.7,282 682.7,150.2 754.5,129.2 756,261.5 680.7,282 "/>
<g id="XMLID_504_">
	<path id="XMLID_505_" class="st5" d="M743,121.8c0,0-42.2,4.8-71.4,25.2l71.4-22.5V121.8z"/>
</g>
<g id="XMLID_502_" class="st6">
	<polygon id="XMLID_503_" points="743,123 685.9,141.7 743,124.5 	"/>
</g>
<path id="XMLID_500_" class="st23" d="M682.7,282.2v-132c-2.6,2-7.1,3.3-12.3,3.3s-9.7-1.3-12.3-3.3v132"/>
<g id="XMLID_497_">
	<path id="XMLID_498_" class="st24" d="M658.1,187.2v10c3.2,1.8,7.5,2.8,12.3,2.8c4.8,0,9.1-1.1,12.3-2.8v-10
		c-3.2,1.8-7.5,2.9-12.3,2.9S661.3,189,658.1,187.2z"/>
</g>
<g id="XMLID_495_">
	<path id="XMLID_496_" class="st24" d="M658.1,176.4v5.7c3.2,1.8,7.5,2.8,12.3,2.8c4.8,0,9.1-1.1,12.3-2.8v-5.7
		c-3.2,1.8-7.5,2.9-12.3,2.9S661.3,178.1,658.1,176.4z"/>
</g>
<g id="XMLID_493_" class="st9">
	<path id="XMLID_494_" d="M658.1,187.2v10c3.2,1.8,7.5,2.8,12.3,2.8c4.8,0,9.1-1.1,12.3-2.8v-10c-3.2,1.8-7.5,2.9-12.3,2.9
		S661.3,189,658.1,187.2z"/>
</g>
<g id="XMLID_491_" class="st9">
	<path id="XMLID_492_" d="M658.1,176.4v5.7c3.2,1.8,7.5,2.8,12.3,2.8c4.8,0,9.1-1.1,12.3-2.8v-5.7c-3.2,1.8-7.5,2.9-12.3,2.9
		S661.3,178.1,658.1,176.4z"/>
</g>
<path id="XMLID_488_" class="st24" d="M682.7,283.3v-133l71.6-19.5c0.9-0.2,1.8-0.1,2.6,0.5c0.7,0.6,1.2,1.4,1.2,2.4v126.9
	c0,1.3-0.9,2.5-2.2,2.9L682.7,283.3"/>
<path id="XMLID_484_" class="st24" d="M658.1,283.4v-133l-71.6-19.5c-0.9-0.2-1.8-0.1-2.6,0.5c-0.7,0.6-1.2,1.4-1.2,2.4v126.9
	c0,1.3,0.9,2.5,2.2,2.9L658.1,283.4"/>
<g id="XMLID_481_">
	<polygon id="XMLID_482_" class="st23" points="742.9,166.7 696.4,179.4 696.4,187.7 742.9,175.1 	"/>
</g>
<g id="XMLID_479_">
	<polygon id="XMLID_480_" class="st23" points="737.3,182.9 702,192.5 702,198.8 737.3,189.2 	"/>
</g>
<g id="XMLID_477_">
	<polygon id="XMLID_478_" class="st5" points="671.9,153.4 668.7,153.4 668.7,146.7 670.4,147.6 671.9,146.7 	"/>
</g>
<g id="XMLID_465_">
	<g id="XMLID_474_" class="st4">
		<path id="XMLID_475_" class="st10" d="M596.9,230.6c2.6-0.5,4.5-2.8,4.5-5.5c0-3.1-2.5-5.6-5.6-5.6h-0.6c1.8-0.9,3-2.8,3-5
			c0-3.1-2.5-5.6-5.6-5.6h-20.6c-3.1,0-5.6,2.5-5.6,5.6c0,2.4,1.6,4.5,3.8,5.3c-2.2,0.8-3.8,2.8-3.8,5.3c0,2.4,1.6,4.5,3.8,5.3
			c-2.2,0.8-3.8,2.8-3.8,5.3c0,2.5,1.6,4.6,3.9,5.3c-1.5,0.7-2.6,2.2-2.6,4l1.1,1.1l21.4,3.3c2.4,0,4.3-1.9,4.3-4.3
			c0-1.6-0.8-3-2.1-3.7h2.1c3.1,0,5.6-2.5,5.6-5.6C600.2,233.4,598.8,231.5,596.9,230.6z"/>
	</g>
	<g id="XMLID_472_">
		<path id="XMLID_473_" class="st21" d="M590.2,217.1h-20.6c-3.1,0-5.6-2.5-5.6-5.6s2.5-5.6,5.6-5.6h20.6c3.1,0,5.6,2.5,5.6,5.6
			S593.3,217.1,590.2,217.1z"/>
	</g>
	<g id="XMLID_470_">
		<path id="XMLID_471_" class="st21" d="M593.3,227.6h-23.8c-3.1,0-5.6-2.5-5.6-5.6c0-3.1,2.5-5.6,5.6-5.6h23.8
			c3.1,0,5.6,2.5,5.6,5.6C598.9,225.1,596.4,227.6,593.3,227.6z"/>
	</g>
	<g id="XMLID_468_">
		<path id="XMLID_469_" class="st21" d="M592.1,238.2h-22.5c-3.1,0-5.6-2.5-5.6-5.6c0-3.1,2.5-5.6,5.6-5.6h22.5
			c3.1,0,5.6,2.5,5.6,5.6C597.7,235.7,595.2,238.2,592.1,238.2z"/>
	</g>
	<g id="XMLID_466_">
		<path id="XMLID_467_" class="st21" d="M587.8,246.2h-18.2c-2.4,0-4.3-1.9-4.3-4.3s1.9-4.3,4.3-4.3h18.2c2.4,0,4.3,1.9,4.3,4.3
			S590.2,246.2,587.8,246.2z"/>
	</g>
</g>
<g id="XMLID_454_">
	<g id="XMLID_463_" class="st4">
		<path id="XMLID_464_" class="st10" d="M743.7,230.6c-2.6-0.5-4.5-2.8-4.5-5.5c0-3.1,2.5-5.6,5.6-5.6h0.6c-1.8-0.9-3-2.8-3-5
			c0-3.1,2.5-5.6,5.6-5.6h20.6c3.1,0,5.6,2.5,5.6,5.6c0,2.4-1.6,4.5-3.8,5.3c2.2,0.8,3.8,2.8,3.8,5.3c0,2.4-1.6,4.5-3.8,5.3
			c2.2,0.8,3.8,2.8,3.8,5.3c0,2.5-1.6,4.6-3.9,5.3c1.5,0.7,2.6,2.2,2.6,4l-1.1,1.1l-21.4,3.3c-2.4,0-4.3-1.9-4.3-4.3
			c0-1.6,0.8-3,2.1-3.7h-2.1c-3.1,0-5.6-2.5-5.6-5.6C740.5,233.4,741.8,231.5,743.7,230.6z"/>
	</g>
	<g id="XMLID_461_">
		<path id="XMLID_462_" class="st21" d="M771,217.1h-20.6c-3.1,0-5.6-2.5-5.6-5.6s2.5-5.6,5.6-5.6H771c3.1,0,5.6,2.5,5.6,5.6
			S774.1,217.1,771,217.1z"/>
	</g>
	<g id="XMLID_459_">
		<path id="XMLID_460_" class="st21" d="M771,227.6h-23.8c-3.1,0-5.6-2.5-5.6-5.6c0-3.1,2.5-5.6,5.6-5.6H771c3.1,0,5.6,2.5,5.6,5.6
			C776.6,225.1,774.1,227.6,771,227.6z"/>
	</g>
	<g id="XMLID_457_">
		<path id="XMLID_458_" class="st21" d="M771,238.2h-22.5c-3.1,0-5.6-2.5-5.6-5.6c0-3.1,2.5-5.6,5.6-5.6H771c3.1,0,5.6,2.5,5.6,5.6
			C776.6,235.7,774.1,238.2,771,238.2z"/>
	</g>
	<g id="XMLID_455_">
		<path id="XMLID_456_" class="st21" d="M771,246.2h-18.2c-2.4,0-4.3-1.9-4.3-4.3s1.9-4.3,4.3-4.3H771c2.4,0,4.3,1.9,4.3,4.3
			S773.4,246.2,771,246.2z"/>
	</g>
</g>
<g id="XMLID_452_" class="st12">
	<path id="XMLID_453_" d="M658.1,150.3c0,0,5.6,1.3,12.3,1.3c7.1,0,12.3-1.4,12.3-1.4s-4,3.3-12.3,3.3
		C666.8,153.5,662.6,153.1,658.1,150.3z"/>
</g>
</svg>
