<?xml version="1.0" encoding="utf-8"?>
<!-- Generator: Adobe Illustrator 19.0.1, SVG Export Plug-In . SVG Version: 6.00 Build 0)  -->
<svg version="1.1" id="objects" xmlns="http://www.w3.org/2000/svg" xmlns:xlink="http://www.w3.org/1999/xlink" x="0px" y="0px"
	 viewBox="0 0 800 800" style="enable-background:new 0 0 800 800;" xml:space="preserve">
<style type="text/css">
	.st0{fill-rule:evenodd;clip-rule:evenodd;fill:#B3E1C7;}
	.st1{fill-rule:evenodd;clip-rule:evenodd;fill:#929497;}
	.st2{fill-rule:evenodd;clip-rule:evenodd;fill:#43525A;}
	.st3{fill-rule:evenodd;clip-rule:evenodd;fill:#404041;}
	.st4{fill-rule:evenodd;clip-rule:evenodd;fill:#D4EBF3;}
	.st5{fill-rule:evenodd;clip-rule:evenodd;fill:#EAF0F1;}
	.st6{fill-rule:evenodd;clip-rule:evenodd;fill:#806A50;}
	.st7{fill-rule:evenodd;clip-rule:evenodd;fill:#626262;}
	.st8{fill-rule:evenodd;clip-rule:evenodd;fill:#808285;}
	.st9{fill-rule:evenodd;clip-rule:evenodd;fill:#494848;}
	.st10{fill-rule:evenodd;clip-rule:evenodd;fill:#E9BDAC;}
	.st11{fill-rule:evenodd;clip-rule:evenodd;fill:#D9B19F;}
	.st12{fill-rule:evenodd;clip-rule:evenodd;fill:#6D6E70;}
	.st13{fill-rule:evenodd;clip-rule:evenodd;fill:#58595B;}
	.st14{fill-rule:evenodd;clip-rule:evenodd;fill:#3D3E3E;}
	.st15{fill-rule:evenodd;clip-rule:evenodd;fill:#5B5D60;}
	.st16{fill-rule:evenodd;clip-rule:evenodd;fill:#444444;}
	.st17{fill-rule:evenodd;clip-rule:evenodd;fill:#3B3C3F;}
	.st18{fill-rule:evenodd;clip-rule:evenodd;fill:#4D4D50;}
	.st19{fill-rule:evenodd;clip-rule:evenodd;fill:#616264;}
	.st20{fill-rule:evenodd;clip-rule:evenodd;fill:#535456;}
	.st21{fill-rule:evenodd;clip-rule:evenodd;fill:#41969E;}
	.st22{fill-rule:evenodd;clip-rule:evenodd;fill:#D1D3D4;}
	.st23{fill-rule:evenodd;clip-rule:evenodd;fill:#438F98;}
	.st24{fill-rule:evenodd;clip-rule:evenodd;fill:#2E7F84;}
	.st25{fill-rule:evenodd;clip-rule:evenodd;fill:#E6E7E8;}
	.st26{fill-rule:evenodd;clip-rule:evenodd;fill:#FBD2C0;}
	.st27{fill-rule:evenodd;clip-rule:evenodd;fill:#6F5A43;}
	.st28{fill-rule:evenodd;clip-rule:evenodd;fill:#E2B7A5;}
	.st29{fill-rule:evenodd;clip-rule:evenodd;fill:#CCA493;}
	.st30{fill-rule:evenodd;clip-rule:evenodd;fill:#EDC3B1;}
	.st31{fill-rule:evenodd;clip-rule:evenodd;fill:#E4BEAE;}
	.st32{fill-rule:evenodd;clip-rule:evenodd;fill:#877158;}
	.st33{fill-rule:evenodd;clip-rule:evenodd;fill:#705A41;}
	.st34{fill-rule:evenodd;clip-rule:evenodd;fill:#E5A78B;}
	.st35{fill-rule:evenodd;clip-rule:evenodd;fill:#EEC7B7;}
	.st36{fill-rule:evenodd;clip-rule:evenodd;fill:#C1C2C2;}
	.st37{fill-rule:evenodd;clip-rule:evenodd;fill:#EFCAB9;}
	.st38{fill-rule:evenodd;clip-rule:evenodd;fill:#455159;}
	.st39{fill-rule:evenodd;clip-rule:evenodd;fill:#5A666E;}
	.st40{fill-rule:evenodd;clip-rule:evenodd;fill:#333F48;}
	.st41{fill-rule:evenodd;clip-rule:evenodd;fill:#3F4C55;}
	.st42{fill-rule:evenodd;clip-rule:evenodd;fill:#647882;}
	.st43{fill-rule:evenodd;clip-rule:evenodd;fill:#424242;}
	.st44{fill-rule:evenodd;clip-rule:evenodd;fill:#373737;}
	.st45{fill-rule:evenodd;clip-rule:evenodd;fill:#808184;}
	.st46{fill-rule:evenodd;clip-rule:evenodd;fill:#575759;}
	.st47{fill-rule:evenodd;clip-rule:evenodd;fill:#D0D2D3;}
	.st48{fill-rule:evenodd;clip-rule:evenodd;fill:#839CA9;}
	.st49{fill-rule:evenodd;clip-rule:evenodd;fill:#9AD2AD;}
	.st50{fill-rule:evenodd;clip-rule:evenodd;fill:#FFF584;}
	.st51{fill-rule:evenodd;clip-rule:evenodd;fill:#CBE6D2;}
	.st52{fill-rule:evenodd;clip-rule:evenodd;fill:#C6C3E1;}
	.st53{fill-rule:evenodd;clip-rule:evenodd;fill:#FFFBD4;}
	.st54{fill-rule:evenodd;clip-rule:evenodd;fill:#A8A690;}
	.st55{fill-rule:evenodd;clip-rule:evenodd;fill:#F48120;}
</style>
<rect class="st0" width="800" height="800"/>
<g id="geek">
	<polygon class="st1" points="388.8,294.5 386.9,298.6 411.3,319.3 415.7,319.3 410.4,314.7 407.7,314.4 389.5,299 390.5,295.9 	"/>
	<path class="st2" d="M387.3,291.3L387.3,291.3c-1.3,1.5-1.1,3.9,0.4,5.2l48.3,41.4c1.5,1.3,3.9,1.1,5.2-0.4l0,0
		c1.3-1.5,1.1-3.9-0.4-5.2l-48.3-41.4C391,289.6,388.6,289.7,387.3,291.3z"/>
	<path class="st3" d="M352.5,250.7c0.7,0.2,7.9,3.4,7.9,3.4l-4.1,3.7l-5.4-5.5L352.5,250.7z"/>
	<g>
		<path class="st3" d="M348.8,269.8c-4.1,10.7-4.7,20.4-1.3,21.8c3.4,1.3,9.5-6.3,13.7-17c4.1-10.7,4.7-20.4,1.3-21.8
			C359.1,251.5,353,259.1,348.8,269.8L348.8,269.8z M363,260.1c-0.3,4.6-1.7,9.6-3.4,13.9c-1.7,4.3-4,9-6.8,12.6
			c-0.6,0.8-3.4,4-4.7,3.5c-1.3-0.5-1.2-4.7-1.1-5.7c0.3-4.6,1.7-9.6,3.4-13.9c1.7-4.3,4-9,6.8-12.6c0.6-0.8,3.4-4,4.7-3.5
			C363.1,254.9,363.1,259.1,363,260.1z"/>
		<path class="st4" d="M350.4,270.4c1.7-4.3,4-9,6.8-12.6c0.6-0.8,3.4-4,4.7-3.5c1.3,0.5,1.2,4.7,1.1,5.7c-0.3,4.6-1.7,9.6-3.4,13.9
			c-1.7,4.3-4,9-6.8,12.6c-0.6,0.8-3.4,4-4.7,3.5c-1.3-0.5-1.2-4.7-1.1-5.7C347.3,279.7,348.7,274.7,350.4,270.4z"/>
		<path class="st5" d="M352.9,264.6c1.2-2.4,2.7-4.8,4.3-6.8l0.1-0.2l1.5,18.4c-1.3,3-2.8,6-4.7,8.7
			C353.8,279.5,353.3,271.5,352.9,264.6z"/>
	</g>
	<path class="st6" d="M581.9,582.6c0.3,3.7,1.2,8.5,2.3,13.6c2.1,9.7,8.7,19.6,11.2,22.5c2.1,2.4,4.7,4.2,7.7,5.5
		c15.5-6.7,111.2-87,109.4-93.6c-0.8-3.2-3.4-5-5.4-7.4c-15.9-18.6-45.8,15.2-74.3,23.6c-2.7,0.1-22.4-4.5-29.3-3.3L581.9,582.6z"/>
	<path class="st3" d="M332.3,589.6c39.7-30.7,60.5-52.4,108.1-84.1c13.1-8.7,24.4-10.7,36.4,0.7l102.6,97.3l45.2-59.7
		c-58-31.6-137.1-126.7-178.2-96.8l-116.6,97.5L332.3,589.6z"/>
	<path class="st7" d="M366.2,530.3l-0.1,0.1l-0.1,0.1l-0.1,0.1l-0.1,0.1l-0.1,0.1l-0.1,0.1l-0.1,0.1l-0.1,0.1l-0.1,0.1l-0.1,0.1
		l-0.1,0.1l-0.1,0.1l-0.1,0.1l-0.1,0.1l0,0l0,0l0,0l0,0l0,0l0,0l0,0l0,0l-0.7-0.8h0l0,0l0,0l0,0l0,0l0,0l0,0l0.1,0l0.1-0.1l0.1-0.1
		l0.1-0.1l0.1-0.1l0.1-0.1l0.1-0.1l0.1-0.1l0.1-0.1l0.1-0.1l0.1-0.1l0.1-0.1l0.1-0.1l0.1-0.1l0.1-0.1L366.2,530.3L366.2,530.3z
		 M596.1,567.5L596.1,567.5l-0.3-0.3l-0.2-0.2l-0.2-0.2l-0.2-0.2l-0.3-0.2l-0.3-0.2l-0.1-0.1l0.7-0.8l0.1,0.1l0.3,0.2l0.2,0.2
		l0.2,0.2l0.2,0.2l0.2,0.2l0.2,0.2l0.1,0.1L596.1,567.5L596.1,567.5z M591.2,563.3L591.2,563.3l-0.4-0.4l-0.4-0.3l-0.4-0.3l-0.4-0.3
		l0,0l0.7-0.8l0,0l0.4,0.3l0.4,0.3l0.4,0.3l0.4,0.3l0.1,0.1L591.2,563.3L591.2,563.3z M586.3,559.1l-0.1-0.1l-0.5-0.4l-0.5-0.4
		l-0.5-0.4l-0.1-0.1l0.7-0.8l0.1,0.1l0.5,0.4l0.5,0.4l0.5,0.4l0.1,0.1L586.3,559.1L586.3,559.1z M581.4,554.9l-0.2-0.1l-0.5-0.5
		l-0.5-0.5l-0.4-0.3l0.7-0.8l0.4,0.3l0.5,0.5l0.5,0.5l0.2,0.1L581.4,554.9L581.4,554.9z M576.4,550.7l-0.3-0.2l-0.6-0.5l-0.6-0.5
		l-0.2-0.1l0.7-0.8l0.2,0.1l0.6,0.5l0.6,0.5l0.3,0.2L576.4,550.7L576.4,550.7z M571.5,546.5l-0.2-0.2l-0.6-0.5l-0.6-0.5l-0.1-0.1
		l0.7-0.8l0.1,0.1l0.6,0.5l0.6,0.5l0.2,0.2L571.5,546.5L571.5,546.5z M566.6,542.3l-0.5-0.4l-0.7-0.6l-0.5-0.4l0.7-0.8l0.5,0.4
		l0.7,0.6l0.5,0.4L566.6,542.3L566.6,542.3z M561.6,538.1l-0.4-0.3l-0.7-0.6l-0.6-0.5l0.7-0.8l0.6,0.5l0.7,0.6l0.4,0.3L561.6,538.1
		L561.6,538.1z M556.7,534l-0.4-0.3l-0.7-0.6l-0.5-0.4l0.7-0.8l0.5,0.4l0.7,0.6l0.4,0.3L556.7,534L556.7,534z M551.7,529.8l-0.6-0.5
		l-0.7-0.6l-0.3-0.3l0.7-0.8l0.3,0.3l0.7,0.6l0.6,0.5L551.7,529.8L551.7,529.8z M546.7,525.7l-0.2-0.1l-0.8-0.6l-0.7-0.6l0.7-0.8
		l0.7,0.6l0.8,0.6l0.2,0.1L546.7,525.7L546.7,525.7z M541.7,521.6l-0.6-0.5l-0.8-0.6l-0.3-0.3l0.7-0.8l0.3,0.3l0.8,0.6l0.6,0.5
		L541.7,521.6L541.7,521.6z M536.7,517.5l-0.2-0.2l-0.8-0.6l-0.6-0.5l0.7-0.8l0.6,0.5l0.8,0.6l0.2,0.2L536.7,517.5L536.7,517.5z
		 M531.7,513.4l-0.7-0.6l-0.8-0.6L530,512l0.7-0.8l0.1,0.1l0.8,0.6l0.7,0.6L531.7,513.4L531.7,513.4z M526.7,509.3l-0.5-0.4
		l-0.8-0.6l-0.4-0.4l0.7-0.8l0.4,0.4l0.8,0.6l0.4,0.4L526.7,509.3L526.7,509.3z M521.7,505.2l-0.2-0.1l-0.8-0.6l-0.7-0.6l0.7-0.8
		l0.7,0.6l0.8,0.6l0.2,0.1L521.7,505.2L521.7,505.2z M516.6,501.2l-0.6-0.5l-0.8-0.6l-0.3-0.2l0.7-0.8l0.3,0.2l0.8,0.6l0.6,0.5
		L516.6,501.2L516.6,501.2z M511.5,497.2l-0.2-0.2l-0.8-0.6l-0.7-0.6l0.7-0.8l0.7,0.6l0.8,0.6l0.2,0.2L511.5,497.2L511.5,497.2z
		 M506.4,493.2l-0.5-0.4l-0.8-0.6l-0.5-0.4l0.7-0.9l0.5,0.4l0.8,0.6l0.5,0.4L506.4,493.2L506.4,493.2z M501.3,489.2l-0.6-0.5
		l-0.7-0.6l-0.3-0.3l0.7-0.9l0.3,0.3l0.7,0.6l0.6,0.5L501.3,489.2L501.3,489.2z M496.2,485.3l-0.6-0.5l-0.7-0.5l-0.4-0.3l0.6-0.9
		l0.4,0.3l0.7,0.5l0.6,0.5L496.2,485.3L496.2,485.3z M491,481.4l-0.4-0.3l-0.7-0.5l-0.6-0.5l0.6-0.9l0.6,0.5l0.7,0.5l0.4,0.3
		L491,481.4L491,481.4z M485.8,477.6l-0.6-0.4l-0.7-0.5l-0.5-0.3l0.6-0.9l0.5,0.3l0.7,0.5l0.6,0.4L485.8,477.6L485.8,477.6z
		 M480.5,473.9l-0.5-0.3l-0.6-0.4l-0.6-0.4l-0.1-0.1l0.6-0.9l0.1,0.1l0.6,0.4l0.6,0.4l0.5,0.3L480.5,473.9L480.5,473.9z
		 M475.2,470.2l-0.5-0.3l-0.6-0.4l-0.6-0.4l-0.2-0.1l0.6-0.9l0.2,0.1l0.6,0.4l0.6,0.4l0.5,0.3L475.2,470.2L475.2,470.2z
		 M469.8,466.7l-0.4-0.2l-0.5-0.3l-0.5-0.3l-0.5-0.3l0,0l0.5-0.9l0,0l0.5,0.3l0.5,0.3l0.5,0.3l0.4,0.2L469.8,466.7L469.8,466.7z
		 M464.2,463.5l-0.2-0.1l-0.4-0.2l-0.4-0.2l-0.4-0.2l-0.4-0.2l-0.1-0.1l0.5-1l0.1,0.1l0.4,0.2l0.4,0.2l0.4,0.2l0.4,0.2l0.2,0.1
		L464.2,463.5L464.2,463.5z M458.4,461.1l-0.3-0.1l-0.2,0l-0.2,0l-0.2,0l-0.2,0l-0.2,0l-0.2,0l-0.2,0l-0.1,0l-0.2,0l0,0l-0.2-1l0,0
		l0.2,0l0.2,0l0.2,0l0.2,0l0.2,0l0.2,0l0.2,0l0.3,0l0.3,0l0.3,0.1L458.4,461.1L458.4,461.1z M452.6,462.5L452.6,462.5l-0.3,0.1
		l-0.3,0.1l-0.3,0.1l-0.3,0.2l-0.3,0.2l-0.3,0.2l-0.2,0.1l-0.5-0.9l0.2-0.1l0.3-0.2l0.3-0.2l0.3-0.2l0.3-0.2l0.3-0.1l0.3-0.1l0,0
		L452.6,462.5L452.6,462.5z M447,465.7L447,465.7l-0.4,0.2l-0.4,0.2l-0.4,0.2l-0.4,0.2l-0.4,0.2l-0.6-0.9l0.4-0.2l0.4-0.2l0.4-0.2
		l0.4-0.2l0.4-0.2l0,0L447,465.7L447,465.7z M441.6,469.3l-0.3,0.2l-0.4,0.3l-0.4,0.3l-0.4,0.3l-0.3,0.2l-0.6-0.9l0.3-0.2l0.4-0.3
		l0.4-0.3l0.4-0.3l0.3-0.2L441.6,469.3L441.6,469.3z M436.3,473L436.3,473l-0.5,0.4l-0.4,0.3L435,474l-0.4,0.3l-0.6-0.9l0.4-0.3
		l0.4-0.3l0.4-0.3l0.4-0.3l0.1,0L436.3,473L436.3,473z M431.1,476.8l-0.3,0.2l-0.5,0.3l-0.5,0.4l-0.5,0.4l0,0l-0.7-0.9l0,0l0.5-0.4
		l0.5-0.4l0.5-0.4l0.3-0.2L431.1,476.8L431.1,476.8z M426,480.7l-0.3,0.3l-0.5,0.4l-0.5,0.4l-0.4,0.3l-0.7-0.9l0.4-0.3l0.5-0.4
		l0.5-0.4l0.3-0.3L426,480.7L426,480.7z M420.9,484.7l-0.1,0.1l-0.5,0.4l-0.5,0.4l-0.5,0.4l-0.1,0.1l-0.7-0.8l0.1-0.1l0.5-0.4
		l0.5-0.4l0.5-0.4l0.1-0.1L420.9,484.7L420.9,484.7z M415.8,488.7L415.8,488.7l-0.5,0.4l-0.5,0.4l-0.5,0.4l-0.2,0.1l-0.7-0.8
		l0.2-0.1l0.5-0.4l0.5-0.4l0.5-0.4l0,0L415.8,488.7L415.8,488.7z M410.8,492.8l-0.5,0.4l-0.5,0.4l-0.5,0.4l-0.2,0.1l-0.7-0.8
		l0.2-0.1l0.5-0.4l0.5-0.4l0.5-0.4L410.8,492.8L410.8,492.8z M405.8,496.9l-0.5,0.4l-0.5,0.4l-0.5,0.4l-0.2,0.2l-0.7-0.8l0.2-0.2
		l0.5-0.4l0.5-0.4l0.5-0.4L405.8,496.9L405.8,496.9z M400.8,501l-0.4,0.3l-0.5,0.4l-0.5,0.4l-0.3,0.2l-0.7-0.8l0.3-0.2l0.5-0.4
		l0.5-0.4l0.4-0.3L400.8,501L400.8,501z M395.8,505.1l-0.3,0.2l-0.5,0.4l-0.5,0.4l-0.4,0.4l-0.7-0.8l0.4-0.4l0.5-0.4l0.5-0.4
		l0.3-0.2L395.8,505.1L395.8,505.1z M390.8,509.3l-0.4,0.3L390,510l-0.4,0.4l-0.3,0.3l-0.7-0.8l0.3-0.3l0.4-0.4l0.5-0.4l0.4-0.3
		L390.8,509.3L390.8,509.3z M385.9,513.4l-0.3,0.2l-0.4,0.4l-0.4,0.4l-0.4,0.4l-0.1,0.1l-0.7-0.8l0.1-0.1l0.4-0.4l0.4-0.4l0.4-0.4
		l0.3-0.3L385.9,513.4L385.9,513.4z M380.9,517.6l-0.3,0.2l-0.4,0.3l-0.4,0.3l-0.4,0.3l-0.2,0.2l-0.7-0.8l0.2-0.2l0.4-0.3l0.4-0.3
		l0.4-0.3l0.3-0.2L380.9,517.6L380.9,517.6z M376,521.8L376,521.8l-0.4,0.4l-0.3,0.3l-0.3,0.3l-0.3,0.3l-0.2,0.2l-0.7-0.8l0.2-0.2
		l0.3-0.3l0.3-0.3l0.3-0.3l0.3-0.3l0.1-0.1L376,521.8L376,521.8z M371.1,526.1l-0.3,0.2l-0.3,0.2l-0.3,0.2L370,527l-0.2,0.2
		l-0.2,0.2l0,0l-0.7-0.8l0,0l0.2-0.2l0.2-0.2l0.3-0.2l0.3-0.2l0.3-0.2l0.3-0.2l0.1-0.1L371.1,526.1L371.1,526.1z"/>
	<path class="st6" d="M424.6,575.6c-2.1,3-4.4,7-6.8,11.3c-4.7,8.7-6.1,20.5-6.1,24.3c0,3.2,0.8,6.2,2.3,9.2c16.2,5,141,6.2,144,0
		c1.5-2.9,0.7-6,0.7-9.2c0-24.5-44.7-18.3-71.8-30.3c-1.8-1.5-11.1-14-17.5-19.5C454.1,566.3,436.4,571.9,424.6,575.6z"/>
	<path class="st8" d="M411.4,606.7c-0.6,3-0.3,13.5,1.9,13.9c16.2,5,141,6.3,144.6,0.5c1.2-1.9,3.7-7.2,2.1-10
		c-0.4-0.6-1.3-0.6-1.5-0.6c-54.3,8.3-91.8,1.2-146.4-5.1C411.5,605.3,411.5,606.1,411.4,606.7z"/>
	<path class="st9" d="M253,585.8c2.2,2.5,23.3,46.6,53.6,38.2c72.2-20.1,117-156.3,117-156.2L417.8,587l79.6-7.8
		c0,0-28.5-151.2-35.8-158.6c-8.9-8.9-27.1-12.8-27.1-12.8c-12.2-2.3-63.1,62.3-89.2,86.8C310.7,527.2,271.3,567.6,253,585.8z"/>
	<path class="st7" d="M274.3,573L274.3,573l-0.1-0.1l0-0.1l0-0.1l0-0.1l0-0.1l0-0.1l0-0.1l0-0.1l0-0.1l0-0.1l0-0.1l0-0.1l0-0.1
		l0-0.1l0,0l0-0.1l0,0l0,0l0,0l0,0l0,0l0,0l0,0l0,0l0,0l0,0l0.7-0.4l0,0l0,0l0,0l0,0l0,0l0,0l0,0l0,0l0,0l0,0l0,0l0,0l0,0.1l0,0.1
		l0,0.1l0,0.1l0,0.1l0,0.1l0,0.1l0,0.1l0,0.1l0,0.1l0,0.1l0,0.1l0,0.1l0,0.1l0,0L274.3,573L274.3,573z M457,580.5l0-0.2l0-0.3l0-0.3
		l0-0.3l0-0.3l0-0.2l0.8-0.1l0,0.2l0,0.3l0,0.3l0,0.3l0,0.3l0,0.2L457,580.5L457,580.5z M456.6,575.7l0-0.3l0-0.4l0-0.4l0-0.5v0
		l0.8-0.1l0,0l0,0.4l0,0.4l0,0.4l0,0.3L456.6,575.7L456.6,575.7z M456.2,570.8l0-0.2l0-0.5l0-0.5l0-0.4l0.8-0.1l0,0.4l0,0.5l0,0.5
		l0,0.2L456.2,570.8L456.2,570.8z M455.8,566l0-0.4l0-0.6l0-0.6l0.8-0.1l0,0.6l0,0.6l0,0.4L455.8,566L455.8,566z M455.4,561.1
		l-0.1-0.6l-0.1-0.7l0-0.3l0.8-0.1l0,0.3l0.1,0.7l0.1,0.6L455.4,561.1L455.4,561.1z M455,556.3l0-0.6l-0.1-0.7l0-0.3l0.8-0.1l0,0.3
		l0.1,0.7l0,0.6L455,556.3L455,556.3z M454.6,551.5l0-0.1l-0.1-0.7l-0.1-0.8l0.8-0.1l0.1,0.8l0.1,0.7l0,0.1L454.6,551.5L454.6,551.5
		z M454.2,546.6l-0.1-0.6l-0.1-0.8l0-0.2l0.8-0.1l0,0.2l0.1,0.8l0.1,0.6L454.2,546.6L454.2,546.6z M453.8,541.8l-0.1-0.6l-0.1-0.8
		l0-0.2l0.8-0.1l0,0.2l0.1,0.8l0.1,0.6L453.8,541.8L453.8,541.8z M453.4,537l-0.1-0.7l-0.1-0.8l0-0.1l0.8-0.1l0,0.1l0.1,0.8l0.1,0.7
		L453.4,537L453.4,537z M452.9,532.1L452.9,532.1l-0.1-0.9l-0.1-0.7l0.8-0.1l0.1,0.7l0.1,0.9l0,0.1L452.9,532.1L452.9,532.1z
		 M452.5,527.3l0-0.4l-0.1-0.9l0-0.3l0.8-0.1l0,0.3l0.1,0.9l0,0.4L452.5,527.3L452.5,527.3z M452,522.5l-0.1-0.9l-0.1-0.7l0.8-0.1
		l0.1,0.7l0.1,0.9L452,522.5L452,522.5z M451.6,517.6l0-0.5l-0.1-0.9l0-0.3l0.8-0.1l0,0.3l0.1,0.9l0,0.5L451.6,517.6L451.6,517.6z
		 M451.1,512.8l0-0.1l-0.1-0.9l-0.1-0.6l0.8-0.1l0.1,0.6l0.1,0.9l0,0.1L451.1,512.8L451.1,512.8z M450.6,508l-0.1-0.7l-0.1-0.9
		l0-0.1l0.8-0.1l0,0.1l0.1,0.9l0.1,0.7L450.6,508L450.6,508z M450.1,503.1l0-0.3l-0.1-0.9l0-0.4l0.8-0.1l0,0.4l0.1,0.9l0,0.3
		L450.1,503.1L450.1,503.1z M449.6,498.3l-0.1-0.9l-0.1-0.7l0.8-0.1l0.1,0.7l0.1,0.9L449.6,498.3L449.6,498.3z M449.1,493.5L449,493
		l-0.1-0.9l0-0.2l0.8-0.1l0,0.2l0.1,0.9l0.1,0.5L449.1,493.5L449.1,493.5z M448.6,488.7L448.6,488.7l-0.1-0.9l-0.1-0.7l0.8-0.1
		l0.1,0.7l0.1,0.9l0,0.1L448.6,488.7L448.6,488.7z M448,483.8l0-0.4l-0.1-0.9l0-0.3l0.8-0.1l0,0.3l0.1,0.9l0.1,0.4L448,483.8
		L448,483.8z M447.4,479l-0.1-0.7l-0.1-0.8l0,0l0.8-0.1l0,0l0.1,0.8l0.1,0.7L447.4,479L447.4,479z M446.8,474.2L446.8,474.2
		l-0.1-0.9l-0.1-0.7l0.8-0.1l0.1,0.7l0.1,0.8l0,0.1L446.8,474.2L446.8,474.2z M446.2,469.4L446.2,469.4l-0.1-0.9l-0.1-0.7l0.8-0.1
		l0.1,0.7l0.1,0.8l0,0.1L446.2,469.4L446.2,469.4z M445.6,464.6l-0.1-0.7l-0.1-0.8l0-0.1l0.8-0.1l0,0.1l0.1,0.8l0.1,0.7L445.6,464.6
		L445.6,464.6z M444.9,459.8l0-0.3l-0.1-0.7l-0.1-0.5l0.8-0.1l0.1,0.5l0.1,0.7l0,0.3L444.9,459.8L444.9,459.8z M444.2,455l-0.1-0.4
		l-0.1-0.7l-0.1-0.5l0.8-0.1l0.1,0.5l0.1,0.7l0.1,0.4L444.2,455L444.2,455z M443.4,450.2l0-0.2l-0.1-0.6l-0.1-0.6l0-0.2l0.8-0.1
		l0,0.2l0.1,0.6l0.1,0.6l0,0.2L443.4,450.2L443.4,450.2z M442.5,445.4l0-0.1l-0.1-0.6l-0.1-0.5l-0.1-0.4l0.8-0.2l0.1,0.4l0.1,0.5
		l0.1,0.6l0,0.1L442.5,445.4L442.5,445.4z M441.5,440.7L441.5,440.7l-0.1-0.5l-0.1-0.5l-0.1-0.4l0-0.2l0.8-0.2l0,0.2l0.1,0.5
		l0.1,0.5l0.1,0.5l0,0L441.5,440.7L441.5,440.7z M440.3,436l-0.1-0.3l-0.1-0.3l-0.1-0.3l-0.1-0.3l-0.1-0.2l0.8-0.3l0.1,0.3l0.1,0.3
		l0.1,0.3l0.1,0.3l0.1,0.3L440.3,436L440.3,436z M438.6,431.7L438.6,431.7l-0.2-0.2l-0.1-0.1l-0.1-0.1l-0.1-0.1l-0.1-0.1L438,431
		l-0.1,0l-0.1,0l-0.1,0l-0.2,0l0,0l0.1-0.8l0.1,0l0.3,0.1l0.1,0l0.1,0.1l0.1,0.1l0.1,0.1l0.1,0.1l0.1,0.1l0.1,0.1l0.1,0.1l0.1,0.2
		l0.1,0.1L438.6,431.7L438.6,431.7z M434.6,431.2L434.6,431.2l-0.4,0.1l-0.3,0.1l-0.3,0.1l-0.3,0.1l-0.1,0.1l-0.4-0.7l0.2-0.1
		l0.3-0.2l0.3-0.1l0.3-0.1l0.3-0.1l0.1,0L434.6,431.2L434.6,431.2z M430.4,433.5l-0.2,0.1l-0.4,0.3l-0.4,0.3l-0.4,0.3l-0.5-0.6
		l0.4-0.3l0.4-0.3l0.4-0.3l0.2-0.1L430.4,433.5L430.4,433.5z M426.6,436.4l-0.3,0.3l-0.4,0.4l-0.4,0.4l-0.1,0.1l-0.5-0.6l0.1-0.1
		l0.4-0.4l0.4-0.4l0.3-0.3L426.6,436.4L426.6,436.4z M423.1,439.7l-0.2,0.2l-0.4,0.4l-0.5,0.5l-0.1,0.1l-0.6-0.6l0.1-0.1l0.5-0.5
		l0.5-0.4l0.2-0.2L423.1,439.7L423.1,439.7z M419.7,443.2L419.7,443.2l-0.5,0.5l-0.5,0.5l-0.1,0.1l-0.6-0.5l0.1-0.1l0.5-0.5l0.5-0.5
		l0,0L419.7,443.2L419.7,443.2z M416.4,446.7l-0.1,0.2l-0.5,0.6l-0.4,0.5l-0.6-0.5l0.4-0.5l0.5-0.6l0.1-0.2L416.4,446.7L416.4,446.7
		z M413.3,450.4l-0.5,0.6l-0.5,0.6l0,0l-0.6-0.5l0,0l0.5-0.6l0.5-0.6L413.3,450.4L413.3,450.4z M410.2,454.1L410.2,454.1l-0.6,0.7
		l-0.5,0.6l-0.6-0.5l0.5-0.6l0.5-0.7l0,0L410.2,454.1L410.2,454.1z M407.1,457.9l-0.2,0.3l-0.6,0.7l-0.3,0.3l-0.6-0.5l0.3-0.3
		l0.6-0.7l0.2-0.3L407.1,457.9L407.1,457.9z M404.1,461.7l-0.5,0.7l-0.5,0.6l-0.6-0.5l0.5-0.6l0.5-0.7L404.1,461.7L404.1,461.7z
		 M401.1,465.5l-0.4,0.5l-0.6,0.7l0,0l-0.6-0.5l0,0l0.6-0.7l0.4-0.5L401.1,465.5L401.1,465.5z M398.2,469.4l-0.3,0.4l-0.6,0.8
		l-0.1,0.1l-0.6-0.5l0.1-0.1l0.6-0.8l0.3-0.4L398.2,469.4L398.2,469.4z M395.3,473.2l-0.3,0.5l-0.6,0.8l0,0l-0.7-0.5l0,0l0.6-0.8
		l0.3-0.5L395.3,473.2L395.3,473.2z M392.4,477.1l-0.4,0.6l-0.5,0.7l-0.7-0.5l0.5-0.7l0.4-0.6L392.4,477.1L392.4,477.1z M389.5,481
		l-0.6,0.8l-0.4,0.5l-0.7-0.5l0.4-0.5l0.6-0.8L389.5,481L389.5,481z M386.6,485l-0.1,0.2l-0.6,0.8l-0.2,0.3l-0.7-0.5l0.2-0.3
		l0.6-0.8l0.1-0.2L386.6,485L386.6,485z M383.8,488.9l-0.3,0.5l-0.6,0.9l-0.7-0.5l0.6-0.9l0.3-0.5L383.8,488.9L383.8,488.9z
		 M381,492.8l-0.6,0.8l-0.4,0.5l-0.7-0.5l0.4-0.5l0.6-0.8L381,492.8L381,492.8z M378.2,496.8l-0.2,0.3l-0.6,0.9l-0.1,0.1l-0.7-0.5
		l0.1-0.1l0.6-0.9l0.2-0.3L378.2,496.8L378.2,496.8z M375.3,500.8l-0.5,0.7l-0.4,0.6l-0.7-0.5l0.4-0.6l0.5-0.7L375.3,500.8
		L375.3,500.8z M372.5,504.7l-0.2,0.2l-0.6,0.9l-0.1,0.2l-0.7-0.5l0.1-0.2l0.6-0.9l0.2-0.2L372.5,504.7L372.5,504.7z M369.7,508.7
		l-0.5,0.7l-0.5,0.7l-0.7-0.5l0.5-0.7l0.5-0.7L369.7,508.7L369.7,508.7z M366.9,512.7l-0.1,0.2l-0.6,0.9L366,514l-0.7-0.5l0.2-0.3
		l0.6-0.9l0.1-0.2L366.9,512.7L366.9,512.7z M364.2,516.6l-0.4,0.6l-0.5,0.7l-0.7-0.5l0.5-0.7l0.4-0.6L364.2,516.6L364.2,516.6z
		 M361.4,520.6L361.4,520.6l-0.7,1l-0.3,0.4l-0.7-0.5l0.3-0.4l0.6-0.9l0.1-0.1L361.4,520.6L361.4,520.6z M358.6,524.6l-0.3,0.4
		l-0.6,0.9l0,0l-0.7-0.5l0,0l0.6-0.9l0.3-0.4L358.6,524.6L358.6,524.6z M355.8,528.5l-0.5,0.7l-0.4,0.6l-0.7-0.5l0.4-0.6l0.5-0.7
		L355.8,528.5L355.8,528.5z M353,532.5l-0.1,0.2l-0.6,0.8l-0.2,0.3l-0.7-0.5l0.2-0.3l0.6-0.8l0.1-0.2L353,532.5L353,532.5z
		 M350.2,536.5l-0.3,0.4l-0.6,0.8l-0.1,0.1l-0.7-0.5l0.1-0.1l0.6-0.8l0.3-0.4L350.2,536.5L350.2,536.5z M347.4,540.4l-0.3,0.5
		l-0.6,0.8l0,0l-0.7-0.5l0,0l0.6-0.8l0.3-0.5L347.4,540.4L347.4,540.4z M344.5,544.4l-0.4,0.5l-0.6,0.8l-0.7-0.5l0.6-0.8l0.4-0.5
		L344.5,544.4L344.5,544.4z M341.7,548.3l-0.3,0.5l-0.6,0.8l0,0.1l-0.7-0.5l0-0.1l0.6-0.8l0.4-0.5L341.7,548.3L341.7,548.3z
		 M338.8,552.2l-0.2,0.3l-0.5,0.7l-0.2,0.2l-0.7-0.5l0.2-0.2l0.5-0.7l0.2-0.3L338.8,552.2L338.8,552.2z M336,556.1L336,556.1
		l-0.6,0.8l-0.4,0.5l-0.7-0.5l0.4-0.5l0.5-0.7l0-0.1L336,556.1L336,556.1z M333.1,560l-0.3,0.4l-0.5,0.7l-0.2,0.3l-0.6-0.5l0.2-0.3
		l0.5-0.7l0.3-0.4L333.1,560L333.1,560z M330.1,563.9l-0.4,0.5l-0.5,0.6l-0.1,0.2l-0.6-0.5l0.1-0.2l0.5-0.6l0.4-0.5L330.1,563.9
		L330.1,563.9z M327.1,567.7l-0.3,0.4l-0.5,0.6l-0.3,0.3l-0.6-0.5l0.3-0.3l0.5-0.6l0.3-0.4L327.1,567.7L327.1,567.7z M324.1,571.5
		L324.1,571.5l-0.5,0.6l-0.4,0.5l-0.1,0.1l-0.6-0.5l0.1-0.1l0.4-0.5l0.4-0.5l0,0L324.1,571.5L324.1,571.5z M321,575.3l-0.4,0.5
		l-0.4,0.5l-0.3,0.3l-0.6-0.5l0.3-0.3l0.4-0.5l0.4-0.5L321,575.3L321,575.3z M317.8,578.9l-0.4,0.4l-0.4,0.4l-0.3,0.4l-0.6-0.6
		l0.3-0.4l0.4-0.4l0.4-0.4L317.8,578.9L317.8,578.9z M314.4,582.4l-0.3,0.3l-0.3,0.3l-0.3,0.3l-0.3,0.2l-0.5-0.6l0.2-0.2l0.3-0.3
		l0.3-0.3l0.3-0.3L314.4,582.4L314.4,582.4z M310.6,585.6L310.6,585.6l-0.3,0.2l-0.2,0.2l-0.2,0.2l-0.2,0.2l-0.2,0.2l-0.1,0.1
		l-0.4-0.7l0.1-0.1l0.2-0.2l0.2-0.2l0.2-0.2l0.2-0.2l0.2-0.2l0,0L310.6,585.6L310.6,585.6z M306.4,588.1l-0.2,0.1l-0.2,0.1l-0.2,0.1
		l-0.2,0.1l-0.2,0.1l-0.2,0.1l-0.2,0.1l-0.3-0.8l0.1-0.1l0.2-0.1l0.2-0.1l0.2-0.1l0.2-0.1l0.2-0.1l0.2-0.1L306.4,588.1L306.4,588.1z
		 M301.8,589.8l-0.1,0l-0.2,0l-0.2,0l-0.2,0l-0.2,0l-0.2,0l-0.2,0l-0.1,0l-0.1-0.8l0.1,0l0.2,0l0.2,0l0.2,0l0.2,0l0.2,0l0.2,0l0.1,0
		L301.8,589.8L301.8,589.8z M296.8,590.2L296.8,590.2l-0.2,0l-0.2,0l-0.2,0l-0.2,0l-0.2,0l-0.2,0l-0.2,0l-0.2,0l0.1-0.8l0.2,0l0.2,0
		l0.2,0l0.2,0l0.2,0l0.2,0l0.2,0l0.2,0l0,0L296.8,590.2L296.8,590.2z M292,589.3l-0.1,0l-0.2-0.1l-0.2-0.1l-0.2-0.1l-0.2-0.1
		l-0.2-0.1l-0.2-0.1l-0.2-0.1l-0.1,0l0.3-0.7l0.1,0l0.2,0.1l0.2,0.1l0.2,0.1l0.2,0.1l0.2,0.1l0.2,0.1l0.2,0.1l0.1,0L292,589.3
		L292,589.3z M287.5,587.2l-0.1-0.1l-0.2-0.1l-0.2-0.1l-0.2-0.1l-0.2-0.1l-0.2-0.1l-0.2-0.1l-0.2-0.1l-0.1-0.1l0.5-0.7l0.1,0.1
		l0.2,0.1l0.2,0.1l0.2,0.1l0.2,0.1l0.2,0.1l0.2,0.1l0.2,0.1l0.1,0.1L287.5,587.2L287.5,587.2z M283.5,584.3L283.5,584.3l-0.2-0.2
		l-0.1-0.1l-0.1-0.1l-0.1-0.1l-0.1-0.1l-0.1-0.1l-0.1-0.1l-0.1-0.1l0,0l0.6-0.6l0,0l0.1,0.1l0.1,0.1l0.1,0.1l0.1,0.1l0.1,0.1
		l0.1,0.1l0.1,0.1l0.1,0.1l0.1,0.1L283.5,584.3L283.5,584.3z M280,580.9L280,580.9l-0.1-0.2l-0.1-0.1l-0.1-0.1l-0.1-0.1l-0.1-0.1
		l-0.1-0.1l-0.1-0.1l-0.1-0.1l-0.1-0.1l0,0l0.6-0.5l0,0l0.1,0.1l0.1,0.1l0.1,0.1l0.1,0.1l0.1,0.1l0.1,0.1l0.1,0.1l0.1,0.1l0.1,0.1
		l0,0L280,580.9L280,580.9z M276.9,577l-0.1-0.1l-0.1-0.1l-0.1-0.1l-0.1-0.1l-0.1-0.1l-0.1-0.1l-0.1-0.1l-0.1-0.1l-0.1-0.1l-0.1-0.1
		l0,0l0.7-0.5l0,0l0.1,0.1l0.1,0.1l0.1,0.1l0.1,0.1l0.1,0.1l0.1,0.1l0.1,0.1l0.1,0.1l0.1,0.1l0.1,0.1l0.1,0.1L276.9,577L276.9,577z"
		/>
	<path class="st10" d="M328.5,420.1l-9.9-7.6c-1.1-8.9,11.1-31.9,14.1-32.8c6,5.7,9.4,14.7,18,17.1c15.8,4.4,92.9-57.4,92.9-57.4
		c0.1-0.1,0.3-0.2,0.5-0.3c3.3,11.5,1.7,27.3,1.7,27.3C403.1,398.2,367.7,450.1,328.5,420.1z"/>
	<path class="st11" d="M328.5,420.1l-9.9-7.6c-0.1-1-0.1-2.3,0.1-3.6l1.1-1.4c41.7,37,82-11.6,100.8-25.7c0,0,0.5,2,1.1,4.7
		C389.2,415.3,360.1,444.3,328.5,420.1z"/>
	<path class="st12" d="M216.5,432.9c-17.5-18.8-26.5-29.1-57.6-24.6c-8.5,1.2-26.9,21.4-44.1,49.7c-4.9,8.1-8.1,19.3-12.9,27.9
		c-21.9,38.9-41.2,79.4-42,86.8c-3.2,29.1,23.3,46.6,33.7,51.8c10.4,5.2,33,6.6,58.3,5.1C190,627.3,204.8,486.4,216.5,432.9z"/>
	<path class="st3" d="M155.5,416.6c0,0-23.1,18.4-14.2,23.6c9.4,5.5,29.6,13.5,39,14.2c5.9,0.4,7.6-26.5,1.7-30.4
		C176.2,420.1,155.5,416.6,155.5,416.6z"/>
	<path class="st13" d="M97.6,455.8c2.2,0.9,0,16.8-14.1,43.4c-14.1,26.5-21.2,37.5-21.2,37.5l12.9-1.8c11.6-24.3,28.4-49,29.9-77.4
		L97.6,455.8z"/>
	<path class="st14" d="M191.4,591.4c13,8.9,48.5-37.2,54.4-49.2l-7.9-7c0,0-10.5,18.1-23.7,30.6c-13.3,12.5-21,13.2-21,13.2
		L191.4,591.4z"/>
	<path class="st14" d="M211.9,558.9c-12.3,10,21.8,57,31.7,66.1l9-5.6c0,0-14.4-15.2-22.6-31.5c-8.2-16.3-6.6-23.9-6.6-23.9
		L211.9,558.9z"/>
	<path class="st15" d="M143.2,630c88.4-4,69.6-25.2,85.8-86.9c6.2-23.6-1.2-64-7-88.8l-26.7-18.3C185.2,533.5,202.5,550.5,143.2,630
		z"/>
	<polygon class="st16" points="199.8,556.8 175.5,613.6 161.5,607.7 189.3,550.4 	"/>
	<path class="st14" d="M177.5,577.9c-14,7.4,10.2,60.2,18.1,71.1l9.9-3.7c0,0-11.1-17.7-16-35.3c-4.9-17.6-1.8-24.7-1.8-24.7
		L177.5,577.9z"/>
	<path class="st17" d="M197.7,456.1c22.3,45.8-14.7,93.5-14.2,94.9c2.8,8.1,8.3,14.2,16.1,14.9c7.8,0.7,21.5-20,28.5-41.4
		c7-21.4-1.9-49.6-7.3-58C215.3,458.2,197.7,456.1,197.7,456.1z"/>
	<path class="st18" d="M203.3,565c7.9-4.3,18.8-22.1,24.8-40.5c7-21.4-1.9-49.6-7.3-58c-3.2-4.9-10.7-7.7-16.3-9.1
		c20.3,45.2-15.6,91.6-15.1,92.9C191.8,557.7,196.6,563.4,203.3,565z"/>
	<path class="st14" d="M140.6,434c-17.9,5.2-33.6,42.9-38.7,52c0,0-1-0.7-1.2-0.8C98.5,484.3,109.2,423.4,140.6,434z"/>
	<path class="st19" d="M193.2,459.5c0,0-37.1-24-60.6-23.7c-23.4,0.3-30.8,50.2-30.8,50.2s-25.5-12.9,7.4-57.6
		c32.8-44.7,60-44.7,84.6-31.1c24.6,13.6,33.7,29.8,33.7,29.8L193.2,459.5z"/>
	<path class="st20" d="M193.2,459.5c0,0-37.1-24-60.6-23.7c-23.4,0.3-30.8,50.2-30.8,50.2s-3.9-2-6.7-7.1c-0.3-26.2,23-60.8,55-51.8
		c9.1,2.6,34.1,13.2,54.1,22.1L193.2,459.5z"/>
	<path class="st21" d="M272.4,321.2c7.7,7.8,15.9,15.6,24.2,23.2l47.6,43.7l-21.5,32.2c-12.3-9.3-23.7-16.3-35.5-26.7
		c1.2,15.7,7.3,49.1,14.2,74.8c6.9,25.8,43.8,26.3,43.8,26.3c-8.7,12.3-78.2,118.6-97.1,97.7c-41.9-46.4-82.8-178.5-71.4-241.7
		c5.7-31.8,27.2-48.4,48.7-50.2C242.4,299,258.8,307.5,272.4,321.2z"/>
	<path class="st22" d="M205.4,403.3l-30.1-13c0,0-14.7-0.3-20,11.4c-5.3,11.7,12.9,69.9,21.4,83.2c8.4,13.3-7.3,49,5.4,71.4
		c12.7,22.4,18.6,38.3,20.8,42.8c2.3,4.5,15.3-2.7,15.3-2.7l7.2-37.4L205.4,403.3z"/>
	<path class="st23" d="M285.7,572.9c-15.8,16.8-30.3,27.3-37.5,19.4c-41.9-46.4-82.8-178.5-71.4-241.7c4.7-25.9,19.7-41.7,36.7-47.6
		c-3.5,3.1-7.7,7-10.5,9.8c-5.5,5.5-18.6,32-18.6,38.4c0,6.3,1.7,11.8,1.7,11.8l9,20.6c0,0,19.3,37.6,20.3,37.1
		c1-0.6,25.1,38.5,32.9,51.5c7.8,12.9,3.9,16.8,0,32.4c-3.9,15.5,6.5,25.2,24.6,28.5c18.1,3.2,25.9,7,18.7,14.2
		C287.6,551,286,562.3,285.7,572.9z"/>
	<path class="st24" d="M327.3,413.3l-4.6,6.9c-12.3-9.3-23.7-16.3-35.5-26.7c0,0-4.9-23.7-5.7-29.4c-0.8-5.7-3-13.9-3-13.9
		s8.4,22.7,11.1,29.7C291.9,385.8,318.6,406.6,327.3,413.3z"/>
	<path class="st25" d="M219.8,302.7c1.5-1.4,4.1-1.1,5.4-1c5,0.6,8.5,3.3,13,5.4c7.8,8.6,20.8,23.7,20.8,23.7s4.3,24.6,3.9,26.1
		c-0.4,1.5-2.3,2.5-7-1.3C245.2,347,215.3,308.2,219.8,302.7z"/>
	<path class="st26" d="M349.2,191.4c15,27,21.7,43.1,16.3,56.2c-1.2,2.8-10.6,6.5-10.5,9.4c0.2,16.7,20.6,26.9,18.4,30.1
		c-2.2,3.2-9.8,3.8-16.3,3.9c-1.1,5.5-3.9,11.7-3.3,17.7c0.3,2.8-9,1.4-9,1.4c2,6.5-2.1,7.2-6.7,7.6c-3.6,0.3,0.3,9.4-9.9,13.1
		c-10.3,3.7-27-2.3-43.1-7.3c-16.2-5-19.1-8-19.1-8c-10.3,17.6-4.4,39-5.9,38c-15.2-10.3-38.7-44.9-36.9-48.5
		c0,0,11.5-28.2,9.4-32.6c-20.5-41.5-6.2-79.7,23.2-97.3C285.5,157.3,331,158.6,349.2,191.4z"/>
	<path class="st27" d="M366.4,248.2c-0.6,2.7-7.1,4.7-7.5,4.7C356.5,249.3,367.2,244.2,366.4,248.2z"/>
	<path class="st28" d="M344.7,252.7l-3.8-3.5l-6-3.4l-6.1-0.3l-5,5.6l6.8,16c2.4,5.7-3.3,16.1,1.5,22.1c2.7,3.4,2.8,1.8,4.1-2.6
		c0.4-1.2,2-18,2-18L344.7,252.7z"/>
	<path class="st29" d="M330.1,255.9c0.8,0.2,11.1,0.2,11.1,0.2c-0.8,2.3-1.9,4.4-3.6,5.9C334,259.3,330.1,255.9,330.1,255.9z"/>
	<path class="st30" d="M335.6,323.1L335.6,323.1l0,0.1l0,0l0,0.1l0,0.1l0,0l0,0.1l0,0.1l0,0l-0.1,0.2v0c0,0.1-0.1,0.3-0.1,0.4l0,0
		c-0.9,2.4-2.7,5-7.1,6.6c-10.3,3.7-27-2.3-43.1-7.3c-4-1.2-16.7-5.1-19.1-8l0,0c-7.2,12.4-6.2,30.5-5.7,37.5
		c-4.6-20.2,1.9-33.8,3.9-39.4c-1.8-2.2-8-9.6-9.7-11.9c0.6,5.2,1.3,10.8,0.9,10.4c-0.6-0.8-12.5-12.2-14.3-16
		c-1.8-3.7-3.2-7.7-3.2-7.7l-1.6,20.5c0,0-7-11-8-17.8c-1-6.8-0.8-9.5,1.6-11.6c1.5-1.3,6.5-3.8,10.6-5.2c-0.6-1.8-1.2-3.6-1.7-5.4
		l4,4.7c1.3-0.3,2.4-0.3,2.9,0c0.9,0.6,2.4,4,3.8,7.8l1.4,1.6l3.9-11.5c0.7-0.2,1.5,0.1,6.9-1.1c-19.9,28,46.3,69.3,69.9,56.2
		c0.7-1.4,1.9-3.7,1.9-6.3c0-4-3.5-6.4-3.5-6.4s5.4,2.8,7,3.4c0.3,0.1,0.6,0.2,0.9,0.3c-1.7,0.2-1.6,2.5-2.3,5.2l0,0L335.6,323.1z"
		/>
	<path class="st30" d="M271.4,318.7c-4.4-2-5.5-3-5.5-3l0,0c-1.5-1.5-2.9-3.1-4.3-4.7c-0.7-0.8-1.3-1.6-2-2.4
		c0.4-2.6,0.6-4.4,0.6-4.4L271.4,318.7z"/>
	<path class="st31" d="M373.5,286.3c0,0.3,0,0.5-0.1,0.8c-2.2,3.2-7,4.1-13.5,4.2c0,0-6.3-0.5-7.3-2c-1-1.6,3.2-1.4,3.9-1.3
		C357.3,288.2,373.4,286.4,373.5,286.3z"/>
	<path class="st31" d="M344.8,310.1c0,0,1.2,2.9,0.1,4.9c-9.2,1.7-13.8-4.7-15.3-6.4C329.4,308.4,335.1,310.6,344.8,310.1z"/>
	<path class="st27" d="M324,251.3c14.1-6.7,22.5,5.5,26.2,3.6c6.7-3.5-16-18.1-26.2-7.2c-0.5,0.5-1.1,1.5-1.2,2.4
		C322.5,251.2,322.8,251.9,324,251.3z"/>
	<path class="st6" d="M267.6,239.8c5.8,13,3.4,18.1,6.8,23.2c0.1,0.1,6,2.2,6.2-1.2c0.9-13-2.3-50.1,5.8-57
		c40.8,43.4,77.3,35.9,105.3,32.3c0.6-0.1-14.6-1.8-25.2-8.4c45.2,3.3,50.8-25.5,49.7-25.5c-61.6,1.7-65.6-54.7-114.5-53.1
		c-20.8,0.7-32.4,8.9-32.4,8.9c-54.4-15.2-61.2,83.8-47.1,123.9c3.8,11,8.6,18.5,10.4,20.3c-0.9-3-2-18.8-2-20.1
		c0-1.3,2.2,6.5,6.9,11.9c4.7,5.4,9.8,9.8,12.1,10.3c-1.7-1.1-4.9-15.1-6.1-19.2c-1.2-4.1-2.1-10-2.1-10s-0.5-0.8,4.3,5.6
		c4.8,6.4,9.7,10.3,11.8,10.6c-1.7-1.1-2.7-24.7-2.7-24.7s-8.1-0.1-11.8-14.9c-3.7-14.9,1-23.1,4.4-25.1
		C257.4,221.7,263.7,231.2,267.6,239.8z"/>
	<path class="st32" d="M269.2,159c-33.3-9.3-48.7,24.1-52.5,60.7c0.7-5.4,9.8-21,9.8-21s-1.6,3.2-2.1,20.2
		c-0.5,16.9,1.1,45.9,1.8,49.8c0.6,3.9,1.6-40.1,6.2-52.8c4.5-12.6,13.9-26.9,13.9-26.9s-1.6,9.4-1.6,19.7c0,5.1,1.5,12.5,3,18.7
		c1-0.5,1.9-1,2.9-1.2c0.5-10.4,3-25,12.1-35.8c6.8-8,12.4-12.9,16.7-15.9c20.6,14.2,56.2,37.5,117.5,34
		c-40.4-8.7-73.2-16.9-108.9-38.3L269.2,159z"/>
	<path class="st33" d="M228.9,298.1c-4.8-9.9-3.8-20.6-1.2-24.2l2.9,9.3c0,1.3,0.9,17,1.8,20C231.7,302.5,230.4,300.7,228.9,298.1
		L228.9,298.1z M237,262.1c4.8,10.7,10.2,17.4,16.8,27c-2.2-7-2.9-16-3.4-23.3c2.4,1.8,4.4,1.8,4.4,1.8s0.9,23.6,2.7,24.7
		c-2.1-0.3-7-4.2-11.8-10.6c-4.8-6.4-4.3-5.6-4.3-5.6s0.9,5.9,2.1,10c1.2,4.1,4.3,18.1,6.1,19.2c-1-0.2-2.7-1.3-4.6-2.9
		C233.3,283.4,233.5,269.9,237,262.1z"/>
	<path class="st32" d="M372.4,191.5c-24.6-16-37-42.5-70.7-41.4c-20.8,0.7-32.4,8.9-32.4,8.9s11.9-1.9,33.5,0.8
		c21.6,2.7,26,10.2,50.4,23.5C359.8,187,366.4,189.6,372.4,191.5z"/>
	<path class="st33" d="M280.6,261.9c0.9-13-2.3-50.1,5.8-57c40.8,43.4,77.3,35.9,105.3,32.3c-53.7-0.6-65.3-14.3-106-47.6
		C273.1,199.8,278.9,245.9,280.6,261.9z"/>
	<path class="st33" d="M366.5,228.7c45.2,3.3,50.8-25.5,49.7-25.5c-19.6,29-50.2,18.6-66,17.3C352.9,222.6,364.3,227.5,366.5,228.7z
		"/>
	<path class="st3" d="M267.6,239.8c2-0.8,53.1,7.1,69.7,26l5.8-9.1L263.3,230L267.6,239.8z"/>
	<path class="st26" d="M269.7,251.7c0.3-1.1,1.3-12.3-2.3-20c-3.6-7.7-11.8-11.3-18.6-8.1c-6.8,3.2-10.2,12.2-9.9,22.1
		c0.3,9.8,6.1,19.9,10.6,23.8c4.6,3.9,14.3,2.5,16.5-3.1C268.3,260.7,269.7,251.7,269.7,251.7z"/>
	<path class="st34" d="M262.5,237.5c-0.8-2.4-4.4-10-10.3-7.2c-6,2.8-8.1,7.8-6.6,17.4c1.6,9.6,4.1,16.9,8.4,16.4
		c4.3-0.5,8.3-5.7,6-9.3c-2.3-3.5-4.8-3.8-2-7.3c2.9-3.5,4.5-0.9,4.7-3.6C263,241.1,262.5,237.5,262.5,237.5z"/>
	<g>
		<path class="st3" d="M335.1,269.6c-4.1,10.7-4.7,20.4-1.3,21.8c3.4,1.3,9.5-6.3,13.7-17c4.1-10.7,4.7-20.4,1.3-21.8
			C345.3,251.3,339.2,258.9,335.1,269.6L335.1,269.6z M349.3,259.9c-0.3,4.6-1.7,9.6-3.4,13.9c-1.7,4.3-4,9-6.8,12.6
			c-0.6,0.8-3.4,4-4.7,3.5c-1.3-0.5-1.2-4.7-1.1-5.7c0.3-4.6,1.7-9.6,3.4-13.9c1.7-4.3,4-9,6.8-12.6c0.6-0.8,3.4-4,4.7-3.5
			C349.4,254.6,349.3,258.9,349.3,259.9z"/>
		<path class="st4" d="M336.6,270.2c1.7-4.3,4-9,6.8-12.6c0.6-0.8,3.4-4,4.7-3.5c1.3,0.5,1.2,4.7,1.1,5.7c-0.3,4.6-1.7,9.6-3.4,13.9
			c-1.7,4.3-4,9-6.8,12.6c-0.6,0.8-3.4,4-4.7,3.5c-1.3-0.5-1.2-4.7-1.1-5.7C333.5,279.5,335,274.5,336.6,270.2z"/>
		<path class="st5" d="M339.2,264.4c1.2-2.4,2.7-4.8,4.3-6.8l0.1-0.2l1.5,18.4c-1.3,3-2.8,6-4.7,8.7
			C340,279.2,339.5,271.3,339.2,264.4z"/>
	</g>
	<path class="st3" d="M350.5,258.3c2.2-1.4,5.1-2.3,5.5-0.2l2-2.5c0,0,0.1-0.9-1.6-1.5c-1.7-0.6-6.5,0.8-6.5,0.8L350.5,258.3z"/>
	<path class="st26" d="M258.3,465l-21.7-29.2c0.3-8.9,16.7-28.9,19.9-29.4c5,6.6,32.5,39.8,32.5,39.8c7.3,5.8,93.7-45.5,93.7-45.5
		c0.1-0.1,0.3-0.2,0.5-0.2c1.4,11.9-0.8,34-0.8,34C335,458.8,292.1,501,258.3,465z"/>
	<path class="st35" d="M258.3,465l-21.7-29.2c0.1-2.5,1.4-5.7,3.3-9.2c19.7,33.9,28.8,55.7,73.8,37.8c12.6-5,60-31.5,60-31.5
		s3.8-0.5,8.8-1.2c-0.1,1.7-0.2,2.7-0.2,2.7C335,458.8,292.1,501,258.3,465z"/>
	<path class="st24" d="M236.1,353.6c4.5,13.8,9.1,21.6,29.7,51.3c-14.5,0.9-30.7,40.1-32.5,40.1c-10.8-0.6-44-71.9-48.6-85.7
		c20.4,46.6,47.8,80.1,47.8,80.1c5.2-16.9,14.7-27.9,29.4-37.4C243.9,375.9,240.3,368.6,236.1,353.6z"/>
	<path class="st12" d="M488.8,349.9c1.5-2,43.3-62.9,43.3-62.9L499,257.5l-1.7,0.2l-25.9,84.4L488.8,349.9z"/>
	<path class="st36" d="M487.1,350.1c1.5-2,43.3-62.9,43.3-62.9l-33.2-29.6l-27.7,84.6L487.1,350.1z"/>
	<path class="st37" d="M370.8,410.4c0.3-0.9-3.1-4.6-3.1-4.6s3.9-9.2,15.7-17.9c11.8-8.8,41.5-19.7,41.5-19.7
		C432.4,379.2,379.1,405.7,370.8,410.4z"/>
	<polygon class="st36" points="443.7,295.9 430.2,294.6 392.5,402.1 406.2,408.6 	"/>
	<path class="st25" d="M530.7,289.3c-34.6-6.3-79.1-0.7-100.5,5.3c0,0,4.2,0.7,5.2,4.2l95-7.5L530.7,289.3z"/>
	<path class="st25" d="M530.9,288.9l-1,0.3l-0.3,0c-7.5-5.6-30-20.9-33.9-28.1l1.6-3.3l32.3,28.6l1.6,1.4L530.9,288.9z"/>
	<polygon class="st38" points="529.8,286.7 529.5,290.5 528.6,290.6 530.8,292.9 532.1,292.8 532.2,287.1 	"/>
	<polygon class="st39" points="435.4,298.8 529.5,290.5 532.1,292.8 475.9,414 390.7,438.4 388.1,436.2 	"/>
	<polygon class="st40" points="414.8,431.5 390.7,438.4 388.1,436.2 435.4,298.8 438,301.1 448,313.7 	"/>
	<polygon class="st41" points="438,301.1 532.1,292.8 478.5,416.3 390.7,438.4 	"/>
	<path class="st2" d="M455.9,299.5l76.2-6.7l-48.4,111.4c-18.3-15-30.7-44.1-30.7-77.5C453,317.3,454,308.1,455.9,299.5z"/>
	<path class="st26" d="M433.6,382.4c2.2,7.3-11.6,9.5-15.1,10.3c-11.6,2.9-16.2,5-16,5.8c0.2,0.9,19.1-4,30.4-5.6
		c11-1.6,12.4,5.1,6,7.6c-3.9,1.5-9.4,3.5-16.7,5.1c-8.7,1.9-19.8,3.6-19.6,4.8c0.2,1.4,24.3-1.7,31.8-2.4c6.3-0.6,6.8,5.4,1.2,7.2
		c-8.8,2.9-32.6,5-32.3,6.2c0.3,1.4,20.2-0.5,21.7-0.8c4.7-0.9,7.6,3.4,1.6,6.1c-4.6,2-14.6,3.1-21.7,5
		c-21.9,5.9-34.4,12.4-44.1-9.7l7.7-17.6C373.2,393.6,431.4,375.3,433.6,382.4z"/>
	<path class="st13" d="M347.9,419.4c0,0,14.6,27.3,15.1,27.5c0.5,0.2,10.9-5.8,11.5-6.4c0.6-0.6-13.8-28.1-13.8-28.1L347.9,419.4z"
		/>
	<polygon class="st39" points="529.8,286.7 497.3,257.7 499,257.5 532.2,287.1 530.9,286.9 	"/>
	<path class="st8" d="M592.2,615.3c1.5,2.6,8.5,10.4,10.5,9.3c15.5-6.7,111.3-86.9,110.2-93.7c-0.4-2.2-1.9-7.9-4.9-8.9
		c-0.7-0.2-1.4,0.4-1.6,0.5c-35.9,41.7-68.9,60.6-114.5,91.3C591.4,614.1,591.9,614.8,592.2,615.3z"/>
	<path class="st42" d="M359.3,435c-6.3,0-11.4-4.8-11.4-10.6c0-5.8,5.1-10.6,11.4-10.6c6.3,0,11.4,4.8,11.4,10.6
		C370.7,430.3,365.6,435,359.3,435z"/>
	<path class="st19" d="M359.3,432.1c-4.6,0-8.3-3.5-8.3-7.7c0-4.2,3.7-7.7,8.3-7.7c4.6,0,8.3,3.5,8.3,7.7
		C367.6,428.7,363.9,432.1,359.3,432.1z"/>
	<path class="st13" d="M359.3,416.7c-2.6,0-4.8,1.1-6.4,2.8c4.4,2.6,9.5,5.6,13.8,8.2c0.5-1,0.8-2.1,0.8-3.3
		C367.6,420.2,363.9,416.7,359.3,416.7z"/>
	<path class="st43" d="M415.7,567.8c0.8-0.2,82.2-7,82.2-7l1.9,21.4l-84.6,10.5L415.7,567.8z"/>
	<path class="st44" d="M559.1,591.3c0.8-0.2,58.9-60.4,58.9-60.4l19.5,9.9l-58,65.9L559.1,591.3z"/>
	<path class="st7" d="M111,499.8c-3.9,0-32.1,56.5-34.9,72.4c-2.8,15.9-0.7,24.4,7.4,31.2c8.1,6.8,41.6,19.9,56,7.2
		c14.4-12.6,27.8-83.4,28.7-86.4C177.7,492.2,117,488,111,499.8z"/>
	<path class="st45" d="M180.2,570.5l11.4,5.2c1.3,0.6,1.9,2.1,1.3,3.4l-4.1,9c-0.6,1.3-2.1,1.9-3.4,1.3l-11.4-5.2
		c-1.3-0.6-1.9-2.1-1.3-3.4l4.1-9C177.4,570.5,178.9,569.9,180.2,570.5z"/>
	<path class="st46" d="M106.3,496.5c-5.8,6.2-10.9,19.8-12,26.5c-1,6.8,8.1,13,19.7,20.4c11.7,7.4,39.4,17.4,47.1,11.8
		c7.6-5.6,17-35.1,13.1-44.8c-3-7.5-46.7-25.2-57.3-21.7C109.2,491.3,106.3,496.5,106.3,496.5z"/>
	<path class="st12" d="M128.8,542.1c-4,0-7.3-3.1-7.3-7c0-3.8,3.3-7,7.3-7c4,0,7.3,3.1,7.3,7C136.1,539,132.8,542.1,128.8,542.1z"/>
	<path class="st47" d="M295.7,656.1c1.1,0.5,19.2,9.9,19.2,9.9l-13.1,2.6l-1.5-0.8L250.7,641c-1.8-1-3-5.5-1.1-4.7L295.7,656.1z"/>
	<path class="st25" d="M347.4,650.4c0.8,0.1,8.9,1.2,8.9,1.2s0.3,4.8-3.5,5.7c-3.7,0.9-43.7,9.9-49,11.2c-5.3,1.3-5.2-5.5-5.2-5.5
		L347.4,650.4z"/>
	<path class="st13" d="M249.3,636.4c3.8,0.8,49.3,26.5,49.3,26.5l57.7-11.4l-61.1-23.2L249.3,636.4z"/>
	<path class="st45" d="M257.4,637.5L295,631l52.4,19.9l-48.4,9.5c-7.9-4.5-15.8-8.9-23.8-13.2c-5.3-2.9-10.6-5.8-16-8.7
		C258.6,638.1,258,637.8,257.4,637.5z"/>
	<g>
		<path class="st48" d="M292.8,632.8c-1.2,0.3-2.5,0.5-3.7,0.8c-0.6,0.1-0.7,0.4-0.2,0.6c1.1,0.4,2.2,0.9,3.4,1.3
			c0.6,0.2,1.5,0.3,2.2,0.2c1.3-0.3,2.6-0.5,3.9-0.8c0.6-0.1,0.7-0.4,0.1-0.6c-1.2-0.4-2.4-0.9-3.5-1.3
			C294.4,632.7,293.4,632.7,292.8,632.8z"/>
		<path class="st25" d="M285.3,634.4c-1.2,0.3-2.4,0.5-3.7,0.8c-0.6,0.1-0.7,0.4-0.2,0.6c1,0.4,2.1,0.9,3.1,1.4
			c0.5,0.2,1.5,0.3,2.1,0.2c1.3-0.3,2.5-0.5,3.8-0.8c0.6-0.1,0.7-0.4,0.2-0.6c-1.1-0.5-2.2-0.9-3.3-1.3
			C286.8,634.3,285.9,634.3,285.3,634.4z"/>
		<path class="st49" d="M277.7,636c-1.2,0.3-2.4,0.5-3.6,0.8c-0.6,0.1-0.7,0.4-0.3,0.6c1,0.5,1.9,0.9,2.9,1.4c0.5,0.2,1.4,0.3,2,0.2
			c1.3-0.3,2.5-0.5,3.8-0.8c0.6-0.1,0.7-0.4,0.2-0.7c-1.1-0.5-2.1-0.9-3.1-1.4C279.2,635.9,278.3,635.9,277.7,636z"/>
		<path class="st50" d="M270.3,637.6c-1.2,0.3-2.4,0.5-3.6,0.8c-0.6,0.1-0.7,0.4-0.3,0.6c0.9,0.5,1.8,1,2.7,1.4
			c0.5,0.2,1.3,0.3,2,0.2c1.3-0.3,2.5-0.5,3.8-0.8c0.6-0.1,0.7-0.4,0.3-0.7c-1-0.5-2-0.9-2.9-1.4
			C271.7,637.5,270.9,637.4,270.3,637.6z"/>
		<path class="st25" d="M300.2,635.6c-1.3,0.3-2.6,0.5-3.9,0.8c-0.6,0.1-0.7,0.4-0.1,0.7c1.2,0.5,2.5,1,3.7,1.5
			c0.6,0.2,1.7,0.3,2.4,0.2c1.4-0.3,2.7-0.6,4.1-0.8c0.7-0.1,0.7-0.5,0-0.7c-1.3-0.5-2.6-1-3.9-1.4
			C301.9,635.5,300.9,635.4,300.2,635.6z"/>
		<path class="st51" d="M292.2,637.3c-1.3,0.3-2.6,0.5-3.9,0.8c-0.6,0.1-0.7,0.4-0.2,0.7c1.1,0.5,2.3,1,3.5,1.5
			c0.6,0.2,1.6,0.3,2.3,0.2c1.3-0.3,2.7-0.6,4.1-0.8c0.7-0.1,0.7-0.5,0.1-0.7c-1.3-0.5-2.5-1-3.7-1.5
			C293.9,637.2,292.9,637.1,292.2,637.3z"/>
		<path class="st48" d="M284.3,638.9c-1.3,0.3-2.6,0.5-3.9,0.8c-0.6,0.1-0.7,0.4-0.2,0.7c1.1,0.5,2.2,1,3.3,1.6
			c0.5,0.3,1.5,0.4,2.2,0.2c1.3-0.3,2.7-0.6,4-0.8c0.7-0.1,0.7-0.5,0.2-0.7c-1.2-0.5-2.3-1-3.5-1.5
			C285.9,638.9,284.9,638.8,284.3,638.9z"/>
		<path class="st26" d="M276.4,640.6c-1.3,0.3-2.5,0.5-3.8,0.8c-0.6,0.1-0.8,0.4-0.3,0.7c1,0.5,2,1.1,3.1,1.6
			c0.5,0.3,1.5,0.4,2.1,0.2c1.3-0.3,2.7-0.6,4-0.8c0.7-0.1,0.8-0.5,0.2-0.7c-1.1-0.5-2.2-1-3.2-1.6C278,640.5,277,640.4,276.4,640.6
			z"/>
		<path class="st47" d="M308.5,638.7c-1.4,0.3-2.8,0.6-4.2,0.9c-0.7,0.1-0.7,0.5-0.1,0.7c1.4,0.5,2.8,1.1,4.2,1.7
			c0.7,0.3,1.9,0.4,2.6,0.2c1.5-0.3,2.9-0.6,4.4-0.9c0.7-0.1,0.7-0.5,0-0.8c-1.5-0.6-3-1.1-4.4-1.6
			C310.3,638.6,309.2,638.5,308.5,638.7z"/>
		<path class="st25" d="M300,640.4c-1.4,0.3-2.7,0.6-4.1,0.9c-0.7,0.1-0.7,0.5-0.1,0.7c1.3,0.6,2.6,1.1,3.9,1.7
			c0.7,0.3,1.8,0.4,2.5,0.3c1.4-0.3,2.9-0.6,4.3-0.9c0.7-0.1,0.7-0.5,0-0.8c-1.4-0.6-2.8-1.1-4.1-1.7
			C301.8,640.4,300.7,640.3,300,640.4z"/>
		<path class="st52" d="M291.6,642.2c-1.4,0.3-2.7,0.6-4.1,0.8c-0.7,0.1-0.8,0.5-0.2,0.7c1.2,0.6,2.4,1.2,3.7,1.7
			c0.6,0.3,1.7,0.4,2.4,0.3c1.4-0.3,2.9-0.6,4.3-0.9c0.7-0.1,0.8-0.5,0.1-0.8c-1.3-0.6-2.6-1.2-3.9-1.7
			C293.3,642.1,292.2,642,291.6,642.2z"/>
		<path class="st53" d="M283.2,643.9c-1.4,0.3-2.7,0.6-4,0.8c-0.7,0.1-0.8,0.5-0.3,0.8c1.1,0.6,2.3,1.2,3.4,1.8
			c0.6,0.3,1.6,0.4,2.3,0.3c1.4-0.3,2.8-0.6,4.2-0.9c0.7-0.1,0.8-0.5,0.2-0.8c-1.2-0.6-2.4-1.2-3.6-1.8
			C284.9,643.9,283.9,643.8,283.2,643.9z"/>
		<path class="st54" d="M317.8,642.2c-1.5,0.3-3,0.6-4.4,0.9c-0.7,0.1-0.7,0.5,0,0.8c1.5,0.6,3.1,1.2,4.7,1.9
			c0.8,0.3,2.1,0.4,2.8,0.3c1.6-0.3,3.1-0.6,4.7-0.9c0.8-0.2,0.7-0.5-0.1-0.8c-1.7-0.6-3.3-1.2-5-1.8
			C319.7,642.1,318.5,642,317.8,642.2z"/>
		<path class="st48" d="M308.7,644c-1.5,0.3-2.9,0.6-4.4,0.9c-0.7,0.1-0.8,0.5-0.1,0.8c1.4,0.6,2.9,1.3,4.4,1.9
			c0.7,0.3,2,0.5,2.7,0.3c1.5-0.3,3.1-0.6,4.6-0.9c0.8-0.2,0.8-0.5,0-0.9c-1.6-0.6-3.1-1.3-4.7-1.9C310.6,644,309.4,643.9,308.7,644
			z"/>
		<path class="st25" d="M299.7,645.8c-1.4,0.3-2.9,0.6-4.3,0.9c-0.7,0.1-0.8,0.5-0.1,0.8c1.4,0.6,2.7,1.3,4.1,2
			c0.7,0.3,1.9,0.5,2.6,0.3c1.5-0.3,3-0.6,4.6-0.9c0.8-0.2,0.8-0.5,0-0.9c-1.5-0.7-2.9-1.3-4.4-1.9
			C301.6,645.8,300.4,645.7,299.7,645.8z"/>
		<path class="st55" d="M290.8,647.7c-1.4,0.3-2.9,0.6-4.3,0.9c-0.7,0.1-0.8,0.5-0.2,0.8c1.3,0.7,2.5,1.3,3.9,2
			c0.6,0.3,1.8,0.5,2.5,0.3c1.5-0.3,3-0.6,4.5-0.9c0.7-0.2,0.8-0.5,0.1-0.9c-1.4-0.7-2.7-1.3-4.1-2
			C292.6,647.6,291.5,647.5,290.8,647.7z"/>
		<path class="st48" d="M328.2,646.1c-1.6,0.3-3.2,0.6-4.7,1c-0.8,0.2-0.7,0.6,0.1,0.9c1.7,0.7,3.5,1.4,5.4,2.1
			c0.9,0.4,2.3,0.5,3.1,0.3c1.7-0.3,3.3-0.7,5-1c0.8-0.2,0.7-0.6-0.2-0.9c-1.9-0.7-3.8-1.4-5.6-2.1
			C330.4,646.1,329,645.9,328.2,646.1z"/>
		<path class="st53" d="M318.5,648c-1.6,0.3-3.1,0.6-4.7,0.9c-0.8,0.2-0.8,0.6,0,0.9c1.6,0.7,3.3,1.4,5,2.2c0.8,0.4,2.2,0.5,3,0.4
			c1.6-0.3,3.3-0.7,5-1c0.8-0.2,0.8-0.6-0.1-0.9c-1.8-0.7-3.6-1.4-5.3-2.1C320.6,648,319.3,647.9,318.5,648z"/>
		<path class="st25" d="M308.9,650c-1.6,0.3-3.1,0.6-4.7,0.9c-0.8,0.2-0.8,0.6-0.1,0.9c1.5,0.7,3.1,1.5,4.7,2.2
			c0.8,0.4,2.1,0.5,2.9,0.4c1.6-0.3,3.3-0.6,4.9-1c0.8-0.2,0.8-0.6,0-1c-1.7-0.7-3.3-1.5-5-2.2C311,650,309.7,649.8,308.9,650z"/>
		<path class="st25" d="M299.4,651.9c-1.5,0.3-3.1,0.6-4.6,0.9c-0.8,0.2-0.8,0.6-0.2,0.9c1.4,0.7,2.9,1.5,4.4,2.3
			c0.7,0.4,2,0.6,2.8,0.4c1.6-0.3,3.2-0.6,4.9-1c0.8-0.2,0.8-0.6,0.1-1c-1.6-0.8-3.1-1.5-4.6-2.2
			C301.4,651.9,300.2,651.7,299.4,651.9z"/>
	</g>
</g>
</svg>
