<?xml version="1.0" encoding="utf-8"?>
<!-- Generator: Adobe Illustrator 19.0.1, SVG Export Plug-In . SVG Version: 6.00 Build 0)  -->
<svg version="1.1" id="Object" xmlns="http://www.w3.org/2000/svg" xmlns:xlink="http://www.w3.org/1999/xlink" x="0px" y="0px"
	 viewBox="0 0 212.6 199.1" style="enable-background:new 0 0 212.6 199.1;" xml:space="preserve">
<style type="text/css">
	.st0{fill:#EAC194;}
	.st1{fill:#A09575;}
	.st2{opacity:0.5;}
	.st3{fill:#FFFFFF;}
	.st4{opacity:4.000000e-002;}
	.st5{fill:#187AD6;}
	.st6{fill:#3485EA;}
	.st7{opacity:0.15;}
	.st8{opacity:0.2;}
	.st9{opacity:0.13;}
</style>
<g id="XMLID_367_">
	<path id="XMLID_407_" class="st0" d="M20.8,89.4c-1.8,0-3.5-0.8-4.6-2.4L6.8,73.4c-1.8-2.5-1.1-6,1.4-7.8c2.5-1.8,6-1.1,7.8,1.4
		l9.3,13.5c1.8,2.5,1.1,6-1.4,7.8C23,89,21.9,89.4,20.8,89.4z"/>
</g>
<g id="XMLID_366_">
	<path id="XMLID_406_" class="st0" d="M195.1,89.4c-1.1,0-2.2-0.3-3.2-1c-2.5-1.8-3.2-5.2-1.4-7.8l9.3-13.5c1.8-2.5,5.2-3.2,7.8-1.4
		c2.5,1.8,3.2,5.2,1.4,7.8l-9.3,13.5C198.6,88.5,196.9,89.4,195.1,89.4z"/>
</g>
<path id="XMLID_432_" class="st0" d="M158.2,199.1l9.5-54.4l13.7-31.6l27.6,10.5c0,0-18.7,12-23.9,20.1l-2.5,55.4"/>
<polyline id="XMLID_431_" class="st1" points="183.2,199.1 188.1,153.6 163.8,153.6 158.2,199.1 "/>
<g id="XMLID_362_" class="st2">
	<polygon id="XMLID_404_" points="185.3,143.4 167,148.4 166.4,152.4 	"/>
</g>
<path id="XMLID_429_" class="st0" d="M54.4,199.1l-9.5-54.4l-13.7-31.6L3.6,123.6c0,0,18.7,12,23.9,20.1l2.5,55.4"/>
<polyline id="XMLID_428_" class="st1" points="29.4,199.1 24.5,153.6 48.8,153.6 54.4,199.1 "/>
<g id="XMLID_357_" class="st2">
	<polygon id="XMLID_403_" points="27.3,143.4 45.6,148.4 46.3,152.4 	"/>
</g>
<g id="XMLID_355_">
	<polygon id="XMLID_426_" class="st3" points="29.9,134.7 105.2,155.2 105.2,25.3 29.9,1.6 	"/>
</g>
<g id="XMLID_354_" class="st4">
	<polygon id="XMLID_402_" points="28.4,135.7 103.7,156.1 102.4,24.5 29.9,3.1 	"/>
</g>
<g id="XMLID_353_">
	<polygon id="XMLID_425_" class="st3" points="27.1,136.4 102.4,156.9 102.7,24.5 27.1,3.4 	"/>
</g>
<g id="XMLID_351_" class="st4">
	<polygon id="XMLID_401_" points="25.6,136.8 100.9,157.2 99.7,25.6 27.1,4.4 	"/>
</g>
<g id="XMLID_350_">
	<polygon id="XMLID_424_" class="st3" points="24.5,137.8 99.8,158.3 99.8,25.3 24.5,4.8 	"/>
</g>
<g id="XMLID_349_" class="st4">
	<polygon id="XMLID_400_" points="23,137.9 98.3,158.4 97,26.8 24.5,5.6 	"/>
</g>
<polyline id="XMLID_423_" class="st3" points="97.6,159.7 97.6,26.7 22.3,6.2 22.3,139.2 97.6,159.7 "/>
<polyline id="XMLID_399_" points="96.1,160.3 94.1,28.5 22.3,7.5 20.8,139.8 96.1,160.3 "/>
<g id="XMLID_346_">
	<path id="XMLID_422_" class="st3" d="M33.8,0.1c0,0,42.2,4.8,71.4,25.2L33.8,2.8V0.1z"/>
</g>
<g id="XMLID_345_" class="st4">
	<polygon id="XMLID_398_" points="33.8,1.3 90.9,20 33.8,2.8 	"/>
</g>
<g id="XMLID_343_">
	<polygon id="XMLID_421_" class="st3" points="182.9,134.6 107.6,155.1 107.6,25.2 182.9,1.5 	"/>
</g>
<g id="XMLID_341_" class="st4">
	<polygon id="XMLID_397_" points="184.4,135.6 109.1,156 110.4,24.4 182.9,3 	"/>
</g>
<g id="XMLID_340_">
	<polygon id="XMLID_420_" class="st3" points="185.7,136.3 110.4,156.8 110.1,24.4 185.7,3.3 	"/>
</g>
<g id="XMLID_339_" class="st4">
	<polygon id="XMLID_395_" points="187.2,136.7 111.9,157.1 113.1,25.5 185.7,4.3 	"/>
</g>
<g id="XMLID_338_">
	<polygon id="XMLID_419_" class="st3" points="188.3,137.7 113,158.2 113,25.2 188.3,4.7 	"/>
</g>
<g id="XMLID_337_" class="st4">
	<polygon id="XMLID_394_" points="189.8,137.8 114.5,158.3 115.8,26.7 188.3,5.5 	"/>
</g>
<polyline id="XMLID_418_" class="st3" points="115.2,159.6 115.2,26.6 190.5,6.1 190.5,139.1 115.2,159.6 "/>
<polyline id="XMLID_393_" points="116.7,160.2 118.7,28.4 190.5,7.4 192,139.7 116.7,160.2 "/>
<g id="XMLID_329_">
	<path id="XMLID_417_" class="st3" d="M179,0c0,0-42.2,4.8-71.4,25.2L179,2.7V0z"/>
</g>
<g id="XMLID_328_" class="st4">
	<polygon id="XMLID_391_" points="179,1.2 121.9,19.9 179,2.7 	"/>
</g>
<path id="XMLID_416_" class="st5" d="M118.7,160.4v-132c-2.6,2-7.1,3.3-12.3,3.3c-5.2,0-9.7-1.3-12.3-3.3v132"/>
<g id="XMLID_325_">
	<path id="XMLID_415_" class="st6" d="M94.1,65.4v10c3.2,1.8,7.5,2.8,12.3,2.8c4.8,0,9.1-1.1,12.3-2.8v-10
		c-3.2,1.8-7.5,2.9-12.3,2.9S97.3,67.2,94.1,65.4z"/>
</g>
<g id="XMLID_324_">
	<path id="XMLID_414_" class="st6" d="M94.1,54.6v5.7c3.2,1.8,7.5,2.8,12.3,2.8c4.8,0,9.1-1.1,12.3-2.8v-5.7
		c-3.2,1.8-7.5,2.9-12.3,2.9S97.3,56.3,94.1,54.6z"/>
</g>
<g id="XMLID_323_" class="st7">
	<path id="XMLID_390_" d="M94.1,65.4v10c3.2,1.8,7.5,2.8,12.3,2.8c4.8,0,9.1-1.1,12.3-2.8v-10c-3.2,1.8-7.5,2.9-12.3,2.9
		S97.3,67.2,94.1,65.4z"/>
</g>
<g id="XMLID_322_" class="st7">
	<path id="XMLID_389_" d="M94.1,54.6v5.7c3.2,1.8,7.5,2.8,12.3,2.8c4.8,0,9.1-1.1,12.3-2.8v-5.7c-3.2,1.8-7.5,2.9-12.3,2.9
		S97.3,56.3,94.1,54.6z"/>
</g>
<path id="XMLID_413_" class="st6" d="M118.7,161.5v-133L190.3,9c0.9-0.2,1.8-0.1,2.6,0.5c0.7,0.6,1.2,1.4,1.2,2.4v126.9
	c0,1.3-0.9,2.5-2.2,2.9L118.7,161.5"/>
<path id="XMLID_412_" class="st6" d="M94.1,161.6v-133L22.5,9.1C21.6,8.8,20.7,9,20,9.6c-0.7,0.6-1.2,1.4-1.2,2.4v126.9
	c0,1.3,0.9,2.5,2.2,2.9L94.1,161.6"/>
<g id="XMLID_315_">
	<polygon id="XMLID_411_" class="st5" points="178.9,44.9 132.4,57.6 132.4,65.9 178.9,53.3 	"/>
</g>
<g id="XMLID_314_">
	<polygon id="XMLID_410_" class="st5" points="173.3,61.1 138,70.7 138,77.1 173.3,67.4 	"/>
</g>
<g id="XMLID_313_">
	<polygon id="XMLID_409_" class="st3" points="107.9,31.7 104.7,31.7 104.7,24.9 106.4,25.8 107.9,24.9 	"/>
</g>
<g id="XMLID_296_">
	<g id="XMLID_311_" class="st2">
		<path id="XMLID_384_" class="st8" d="M32.9,108.8c2.6-0.5,4.5-2.8,4.5-5.5c0-3.1-2.5-5.6-5.6-5.6h-0.6c1.8-0.9,3-2.8,3-5
			c0-3.1-2.5-5.6-5.6-5.6H8.1c-3.1,0-5.6,2.5-5.6,5.6c0,2.4,1.6,4.5,3.8,5.3c-2.2,0.8-3.8,2.8-3.8,5.3c0,2.4,1.6,4.5,3.8,5.3
			c-2.2,0.8-3.8,2.8-3.8,5.3c0,2.5,1.6,4.6,3.9,5.3c-1.5,0.7-2.6,2.2-2.6,4l1.1,1.1l21.4,3.3c2.4,0,4.3-1.9,4.3-4.3
			c0-1.6-0.8-3-2.1-3.7h2.1c3.1,0,5.6-2.5,5.6-5.6C36.2,111.6,34.8,109.7,32.9,108.8z"/>
	</g>
	<g id="XMLID_300_">
		<path id="XMLID_388_" class="st0" d="M26.2,95.3H5.6c-3.1,0-5.6-2.5-5.6-5.6s2.5-5.6,5.6-5.6h20.6c3.1,0,5.6,2.5,5.6,5.6
			S29.3,95.3,26.2,95.3z"/>
	</g>
	<g id="XMLID_299_">
		<path id="XMLID_387_" class="st0" d="M29.3,105.8H5.6c-3.1,0-5.6-2.5-5.6-5.6c0-3.1,2.5-5.6,5.6-5.6h23.8c3.1,0,5.6,2.5,5.6,5.6
			C34.9,103.3,32.4,105.8,29.3,105.8z"/>
	</g>
	<g id="XMLID_298_">
		<path id="XMLID_386_" class="st0" d="M28.1,116.4H5.6c-3.1,0-5.6-2.5-5.6-5.6s2.5-5.6,5.6-5.6h22.5c3.1,0,5.6,2.5,5.6,5.6
			S31.2,116.4,28.1,116.4z"/>
	</g>
	<g id="XMLID_297_">
		<path id="XMLID_385_" class="st0" d="M23.8,124.4H5.6c-2.4,0-4.3-1.9-4.3-4.3c0-2.4,1.9-4.3,4.3-4.3h18.2c2.4,0,4.3,1.9,4.3,4.3
			C28.1,122.5,26.1,124.4,23.8,124.4z"/>
	</g>
</g>
<g id="XMLID_286_">
	<g id="XMLID_295_" class="st2">
		<path id="XMLID_379_" class="st8" d="M179.7,108.8c-2.6-0.5-4.5-2.8-4.5-5.5c0-3.1,2.5-5.6,5.6-5.6h0.6c-1.8-0.9-3-2.8-3-5
			c0-3.1,2.5-5.6,5.6-5.6h20.6c3.1,0,5.6,2.5,5.6,5.6c0,2.4-1.6,4.5-3.8,5.3c2.2,0.8,3.8,2.8,3.8,5.3c0,2.4-1.6,4.5-3.8,5.3
			c2.2,0.8,3.8,2.8,3.8,5.3c0,2.5-1.6,4.6-3.9,5.3c1.5,0.7,2.6,2.2,2.6,4l-1.1,1.1l-21.4,3.3c-2.4,0-4.3-1.9-4.3-4.3
			c0-1.6,0.8-3,2.1-3.7H182c-3.1,0-5.6-2.5-5.6-5.6C176.5,111.6,177.8,109.7,179.7,108.8z"/>
	</g>
	<g id="XMLID_291_">
		<path id="XMLID_383_" class="st0" d="M207,95.3h-20.6c-3.1,0-5.6-2.5-5.6-5.6s2.5-5.6,5.6-5.6H207c3.1,0,5.6,2.5,5.6,5.6
			S210.1,95.3,207,95.3z"/>
	</g>
	<g id="XMLID_290_">
		<path id="XMLID_382_" class="st0" d="M207,105.8h-23.8c-3.1,0-5.6-2.5-5.6-5.6c0-3.1,2.5-5.6,5.6-5.6H207c3.1,0,5.6,2.5,5.6,5.6
			C212.6,103.3,210.1,105.8,207,105.8z"/>
	</g>
	<g id="XMLID_289_">
		<path id="XMLID_381_" class="st0" d="M207,116.4h-22.5c-3.1,0-5.6-2.5-5.6-5.6s2.5-5.6,5.6-5.6H207c3.1,0,5.6,2.5,5.6,5.6
			S210.1,116.4,207,116.4z"/>
	</g>
	<g id="XMLID_287_">
		<path id="XMLID_380_" class="st0" d="M207,124.4h-18.2c-2.4,0-4.3-1.9-4.3-4.3c0-2.4,1.9-4.3,4.3-4.3H207c2.4,0,4.3,1.9,4.3,4.3
			C211.4,122.5,209.4,124.4,207,124.4z"/>
	</g>
</g>
<g id="XMLID_274_" class="st9">
	<path id="XMLID_378_" d="M94.1,28.5c0,0,5.6,1.3,12.3,1.3c7.1,0,12.3-1.4,12.3-1.4s-4,3.3-12.3,3.3C102.8,31.7,98.6,31.3,94.1,28.5
		z"/>
</g>
</svg>
