<?xml version="1.0" encoding="utf-8"?>
<!-- Generator: Adobe Illustrator 19.0.1, SVG Export Plug-In . SVG Version: 6.00 Build 0)  -->
<svg version="1.1" id="Layer_1" width="25" height="20" xmlns="http://www.w3.org/2000/svg" xmlns:xlink="http://www.w3.org/1999/xlink" x="0px" y="0px"
	 viewBox="-285 410.9 25 20" style="enable-background:new -285 410.9 25 20;" xml:space="preserve">
<style type="text/css">
	.st0{fill:#42B574;}
</style>
<path id="menu-fill_1_" class="st0" d="M-262,422.9h-21c-1.1,0-2-0.9-2-2c0-1.1,0.9-2,2-2h21c1.1,0,2,0.9,2,2
	C-260,422-260.9,422.9-262,422.9z M-262,414.9h-21c-1.1,0-2-0.9-2-2c0-1.1,0.9-2,2-2h21c1.1,0,2,0.9,2,2
	C-260,414-260.9,414.9-262,414.9z M-283,426.9h21c1.1,0,2,0.9,2,2c0,1.1-0.9,2-2,2h-21c-1.1,0-2-0.9-2-2
	C-285,427.8-284.1,426.9-283,426.9z"/>
</svg>
