<svg version="1.1" xmlns="http://www.w3.org/2000/svg" xmlns:xlink="http://www.w3.org/1999/xlink" width="32" height="42" viewBox="0 0 32 42">
<path id="orderform" d="M-0.000,42.000 L-0.000,-0.001 L22.069,-0.001 L32.000,10.209 L32.000,42.000 L-0.000,42.000 zM22.468,2.389 L22.468,9.800 L29.675,9.800 L22.468,2.389 zM30.638,11.199 L21.106,11.199 L21.106,1.400 L1.362,1.400 L1.362,40.599 L30.638,40.599 L30.638,11.199 zM7.123,14.838 C7.123,14.838 8.623,14.077 8.623,14.077 C7.965,13.642 7.489,12.986 7.205,12.122 C6.740,11.830 6.446,11.312 6.446,10.734 C6.446,10.734 6.446,10.266 6.446,10.266 C6.446,9.800 6.643,9.362 6.976,9.055 C7.041,8.626 7.149,8.223 7.296,7.852 C7.366,7.679 7.424,7.550 7.471,7.444 C7.503,7.375 7.542,7.288 7.548,7.263 C7.550,7.241 7.546,7.156 7.489,6.862 C7.445,6.634 7.416,6.424 7.395,6.243 C7.356,5.887 7.545,5.555 7.868,5.418 C8.191,5.283 8.553,5.381 8.769,5.663 C8.821,5.731 8.927,5.841 9.133,5.984 C9.577,6.291 10.095,6.322 10.452,6.291 C10.552,6.283 10.655,6.278 10.759,6.278 C13.411,6.278 14.287,7.716 14.530,9.044 C14.871,9.350 15.071,9.792 15.071,10.265 C15.071,10.265 15.071,10.733 15.071,10.733 C15.071,11.311 14.778,11.830 14.312,12.121 C14.027,12.989 13.549,13.646 12.886,14.082 C12.886,14.082 14.329,14.840 14.329,14.840 C14.763,15.063 15.104,15.434 15.316,15.912 C15.316,15.912 15.551,16.439 15.551,16.439 C15.551,16.439 15.092,16.773 15.092,16.773 C13.816,17.707 12.318,18.199 10.759,18.199 C9.194,18.199 7.691,17.704 6.411,16.764 C6.411,16.764 5.964,16.436 5.964,16.436 C5.964,16.436 6.182,15.917 6.182,15.917 C6.380,15.445 6.706,15.072 7.123,14.838 zM13.647,16.053 C13.647,16.053 12.002,15.190 12.002,15.190 C11.656,15.008 11.441,14.647 11.441,14.248 C11.441,14.248 11.441,13.248 11.441,13.248 C11.441,13.248 11.852,13.064 11.852,13.064 C12.472,12.792 12.877,12.259 13.090,11.440 C13.090,11.440 13.188,11.068 13.188,11.068 C13.188,11.068 13.547,10.952 13.547,10.952 C13.625,10.927 13.710,10.848 13.710,10.734 C13.710,10.734 13.710,10.266 13.710,10.266 C13.710,10.166 13.645,10.096 13.585,10.063 C13.585,10.063 13.267,9.892 13.267,9.892 C13.267,9.892 13.225,9.526 13.225,9.526 C13.121,8.612 12.747,7.679 10.760,7.679 C10.692,7.679 10.626,7.682 10.561,7.688 C9.962,7.735 9.397,7.651 8.900,7.437 C8.877,7.631 8.813,7.803 8.707,8.036 C8.666,8.126 8.616,8.236 8.557,8.383 C8.423,8.721 8.333,9.103 8.291,9.519 C8.291,9.519 8.254,9.889 8.254,9.889 C8.254,9.889 7.935,10.064 7.935,10.064 C7.874,10.097 7.809,10.167 7.809,10.266 C7.809,10.266 7.809,10.734 7.809,10.734 C7.809,10.848 7.894,10.927 7.972,10.952 C7.972,10.952 8.331,11.068 8.331,11.068 C8.331,11.068 8.429,11.440 8.429,11.440 C8.642,12.259 9.046,12.791 9.667,13.064 C9.667,13.064 10.079,13.248 10.079,13.248 C10.079,13.248 10.079,14.244 10.079,14.244 C10.079,14.649 9.858,15.012 9.505,15.192 C9.505,15.192 7.841,16.034 7.841,16.034 C9.619,17.033 11.862,17.040 13.647,16.053 zM7.972,21.202 C8.095,21.335 8.170,21.517 8.170,21.699 C8.170,21.882 8.095,22.064 7.972,22.196 C7.843,22.322 7.673,22.399 7.489,22.399 C7.305,22.399 7.128,22.322 7.006,22.190 C6.883,22.064 6.808,21.882 6.808,21.699 C6.808,21.517 6.883,21.335 7.006,21.202 C7.251,20.950 7.721,20.943 7.972,21.202 zM7.489,24.500 C7.489,24.500 19.064,24.500 19.064,24.500 C19.439,24.500 19.744,24.812 19.744,25.199 C19.744,25.587 19.439,25.899 19.064,25.899 C19.064,25.899 7.489,25.899 7.489,25.899 C7.113,25.899 6.808,25.587 6.808,25.199 C6.808,24.812 7.113,24.500 7.489,24.500 zM8.230,31.295 C8.511,31.538 8.793,31.780 9.075,32.023 C9.258,30.441 9.760,28.914 11.251,28.116 C12.028,27.700 12.716,28.909 11.938,29.325 C10.458,30.117 10.389,31.920 10.339,33.437 C10.318,34.073 9.625,34.317 9.177,33.931 C8.541,33.382 7.903,32.834 7.266,32.286 C6.594,31.705 7.562,30.720 8.230,31.295 zM13.014,31.081 C14.028,32.214 15.288,31.339 16.253,30.731 C16.562,30.536 17.007,30.657 17.184,30.982 C17.949,32.383 19.402,30.811 20.395,30.875 C21.018,30.915 21.343,31.180 21.695,31.675 C22.212,32.403 21.031,33.101 20.519,32.381 C20.399,32.213 18.198,33.123 17.659,33.012 C17.138,32.903 16.734,32.629 16.408,32.255 C14.963,33.061 13.325,33.494 12.052,32.071 C11.458,31.408 12.420,30.417 13.014,31.081 zM21.985,24.703 C22.243,24.444 22.692,24.444 22.952,24.703 C23.074,24.835 23.149,25.017 23.149,25.199 C23.149,25.388 23.081,25.563 22.952,25.696 C22.822,25.822 22.645,25.899 22.468,25.899 C22.291,25.899 22.114,25.822 21.985,25.696 C21.855,25.563 21.787,25.388 21.787,25.199 C21.787,25.010 21.862,24.835 21.985,24.703 zM26.356,24.703 C26.478,24.835 26.553,25.017 26.553,25.199 C26.553,25.382 26.485,25.556 26.356,25.689 C26.226,25.822 26.049,25.899 25.872,25.899 C25.695,25.899 25.518,25.822 25.389,25.696 C25.259,25.563 25.192,25.388 25.192,25.199 C25.192,25.010 25.266,24.835 25.389,24.703 C25.647,24.444 26.097,24.444 26.356,24.703 zM25.872,22.399 C25.872,22.399 21.106,22.399 21.106,22.399 C20.730,22.399 20.425,22.087 20.425,21.699 C20.425,21.312 20.730,20.999 21.106,20.999 C21.106,20.999 25.872,20.999 25.872,20.999 C26.248,20.999 26.553,21.312 26.553,21.699 C26.553,22.087 26.248,22.399 25.872,22.399 zM17.702,22.399 C17.702,22.399 10.893,22.399 10.893,22.399 C10.518,22.399 10.212,22.087 10.212,21.699 C10.212,21.312 10.518,20.999 10.893,20.999 C10.893,20.999 17.702,20.999 17.702,20.999 C18.078,20.999 18.383,21.312 18.383,21.699 C18.383,22.087 18.078,22.399 17.702,22.399 z" fill="#FF4141" />
</svg>
