<svg version="1.1" xmlns="http://www.w3.org/2000/svg" xmlns:xlink="http://www.w3.org/1999/xlink" width="23" height="23" viewBox="0 0 15 15">
<path id="-telephone-icon" d="M14.993,11.837 C15.025,12.081 14.950,12.293 14.771,12.473 C14.771,12.473 12.659,14.570 12.659,14.570 C12.563,14.676 12.439,14.767 12.285,14.840 C12.132,14.915 11.981,14.962 11.833,14.983 C11.822,14.983 11.790,14.986 11.737,14.991 C11.685,14.997 11.616,14.999 11.531,14.999 C11.330,14.999 11.004,14.965 10.554,14.896 C10.104,14.827 9.554,14.658 8.903,14.388 C8.252,14.117 7.513,13.712 6.688,13.172 C5.862,12.632 4.983,11.890 4.052,10.948 C3.311,10.217 2.697,9.517 2.210,8.850 C1.723,8.183 1.331,7.566 1.034,6.999 C0.738,6.432 0.516,5.919 0.367,5.458 C0.219,4.997 0.119,4.599 0.066,4.266 C0.013,3.932 -0.008,3.670 0.002,3.479 C0.013,3.288 0.018,3.183 0.018,3.162 C0.039,3.013 0.087,2.862 0.161,2.709 C0.235,2.555 0.325,2.430 0.431,2.335 C0.431,2.335 2.543,0.222 2.543,0.222 C2.691,0.074 2.861,-0.000 3.051,-0.000 C3.189,-0.000 3.311,0.039 3.416,0.119 C3.522,0.198 3.612,0.296 3.686,0.412 C3.686,0.412 5.385,3.638 5.385,3.638 C5.481,3.808 5.507,3.993 5.465,4.194 C5.423,4.395 5.333,4.565 5.195,4.702 C5.195,4.702 4.417,5.482 4.417,5.482 C4.396,5.503 4.377,5.537 4.361,5.585 C4.345,5.632 4.337,5.672 4.337,5.704 C4.380,5.927 4.475,6.180 4.623,6.467 C4.750,6.721 4.946,7.031 5.211,7.396 C5.476,7.761 5.851,8.183 6.338,8.659 C6.815,9.146 7.238,9.525 7.609,9.796 C7.979,10.066 8.289,10.264 8.538,10.392 C8.786,10.518 8.977,10.595 9.109,10.622 C9.109,10.622 9.308,10.661 9.308,10.661 C9.329,10.661 9.363,10.653 9.411,10.637 C9.459,10.622 9.493,10.603 9.514,10.582 C9.514,10.582 10.419,9.660 10.419,9.660 C10.610,9.490 10.832,9.406 11.086,9.406 C11.266,9.406 11.409,9.438 11.515,9.501 C11.515,9.501 11.531,9.501 11.531,9.501 C11.531,9.501 14.596,11.313 14.596,11.313 C14.818,11.450 14.950,11.626 14.993,11.837 z" fill="#42b574" />
</svg>
