<svg version="1.1" xmlns="http://www.w3.org/2000/svg" xmlns:xlink="http://www.w3.org/1999/xlink" width="20" height="17" viewBox="0 0 20 17">
<path id="-signicon" d="M18.900,15.877 C18.166,16.626 17.283,17.000 16.250,17.000 C16.250,17.000 12.084,17.000 12.084,17.000 C11.971,17.000 11.873,16.958 11.791,16.874 C11.708,16.789 11.667,16.690 11.667,16.575 C11.667,16.540 11.663,16.451 11.654,16.309 C11.645,16.168 11.643,16.050 11.648,15.957 C11.652,15.864 11.665,15.760 11.687,15.645 C11.708,15.530 11.752,15.444 11.817,15.386 C11.881,15.329 11.971,15.300 12.084,15.300 C12.084,15.300 16.250,15.300 16.250,15.300 C16.823,15.300 17.313,15.092 17.721,14.676 C18.130,14.259 18.333,13.759 18.333,13.175 C18.333,13.175 18.333,3.825 18.333,3.825 C18.333,3.240 18.130,2.740 17.721,2.324 C17.313,1.908 16.823,1.700 16.250,1.700 C16.250,1.700 12.500,1.700 12.500,1.700 L12.357,1.700 L12.187,1.700 C12.187,1.700 12.137,1.695 12.038,1.686 C11.938,1.678 11.888,1.664 11.888,1.647 C11.888,1.629 11.853,1.605 11.784,1.574 C11.714,1.543 11.684,1.503 11.693,1.454 C11.702,1.406 11.693,1.346 11.667,1.275 C11.667,1.239 11.662,1.151 11.654,1.009 C11.645,0.868 11.643,0.750 11.647,0.657 C11.651,0.564 11.664,0.460 11.686,0.345 C11.708,0.230 11.751,0.144 11.816,0.086 C11.881,0.028 11.970,-0.000 12.083,-0.000 C12.083,-0.000 16.250,-0.000 16.250,-0.000 C17.283,-0.000 18.166,0.374 18.899,1.122 C19.633,1.870 19.999,2.771 20.000,3.825 C20.000,3.825 20.000,13.175 20.000,13.175 C20.000,14.228 19.633,15.129 18.900,15.877 zM15.417,8.500 C15.417,8.730 15.334,8.929 15.169,9.098 C15.169,9.098 8.086,16.323 8.086,16.323 C7.921,16.491 7.726,16.575 7.500,16.575 C7.274,16.575 7.079,16.491 6.914,16.323 C6.749,16.155 6.667,15.955 6.667,15.725 C6.667,15.725 6.667,11.900 6.667,11.900 C6.667,11.900 0.833,11.900 0.833,11.900 C0.608,11.900 0.412,11.815 0.247,11.647 C0.082,11.480 -0.000,11.280 -0.000,11.050 C-0.000,11.050 -0.000,5.950 -0.000,5.950 C-0.000,5.720 0.082,5.520 0.247,5.352 C0.412,5.184 0.607,5.100 0.833,5.100 C0.833,5.100 6.667,5.100 6.667,5.100 C6.667,5.100 6.667,1.274 6.667,1.274 C6.667,1.044 6.749,0.845 6.914,0.677 C7.079,0.509 7.274,0.424 7.500,0.424 C7.726,0.424 7.921,0.509 8.086,0.677 C8.086,0.677 15.169,7.902 15.169,7.902 C15.334,8.070 15.417,8.270 15.417,8.500 z" fill="#46B680" />
</svg>
