<svg version="1.1" xmlns="http://www.w3.org/2000/svg" xmlns:xlink="http://www.w3.org/1999/xlink" width="25" height="47" viewBox="0 0 25 47">
<path id="iconarrowarrow" d="M24.614,22.562 C24.614,22.562 2.287,0.390 2.287,0.390 C1.761,-0.132 0.918,-0.132 0.393,0.390 C-0.133,0.912 -0.133,1.749 0.393,2.271 C0.393,2.271 21.768,23.498 21.768,23.498 C21.768,23.498 0.393,44.724 0.393,44.724 C-0.133,45.247 -0.133,46.084 0.393,46.606 C0.650,46.862 0.998,47.000 1.335,47.000 C1.672,47.000 2.019,46.872 2.277,46.606 C2.277,46.606 24.604,24.433 24.604,24.433 C25.130,23.921 25.130,23.074 24.614,22.562 z" fill="#FFFFFF" />
</svg>
