<svg version="1.1" xmlns="http://www.w3.org/2000/svg" xmlns:xlink="http://www.w3.org/1999/xlink" width="18" height="18" viewBox="0 0 18 18">
<path id="-STAR-button" d="M17.991,6.841 C17.953,6.719 17.852,6.630 17.730,6.611 C17.730,6.611 11.892,5.724 11.892,5.724 C11.892,5.724 9.280,0.186 9.280,0.186 C9.226,0.070 9.114,-0.003 8.991,-0.003 C8.868,-0.003 8.756,0.070 8.702,0.186 C8.702,0.186 6.090,5.724 6.090,5.724 C6.090,5.724 0.250,6.611 0.250,6.611 C0.129,6.630 0.029,6.719 -0.010,6.841 C-0.048,6.963 -0.016,7.097 0.073,7.187 C0.073,7.187 4.298,11.497 4.298,11.497 C4.298,11.497 3.299,17.584 3.299,17.584 C3.279,17.711 3.328,17.839 3.428,17.916 C3.527,17.991 3.660,18.001 3.767,17.940 C3.767,17.940 8.991,15.067 8.991,15.067 C8.991,15.067 14.214,17.940 14.214,17.940 C14.261,17.967 14.312,17.979 14.364,17.979 C14.432,17.979 14.498,17.957 14.553,17.916 C14.653,17.839 14.703,17.711 14.681,17.584 C14.681,17.584 13.684,11.498 13.684,11.498 C13.684,11.498 17.909,7.187 17.909,7.187 C17.998,7.097 18.030,6.963 17.991,6.841 z" fill="#FFFFFF" />
</svg>
