<svg width="110" height="110" viewBox="0 0 110 110" xmlns="http://www.w3.org/2000/svg" xmlns:xlink="http://www.w3.org/1999/xlink"><path d="M79.696 30.246a2.624 2.624 0 0 0-3.696 0l-7.957 7.956a2.624 2.624 0 0 0 0 3.696 2.624 2.624 0 0 0 3.696 0l6.044-6.043C87.58 47.52 87 65.015 76.014 76 64.42 87.594 45.551 87.594 33.957 76c-11.595-11.595-11.595-30.464 0-42.058 7.13-7.13 17.29-10.145 27.159-8.073 1.377.29 2.768-.609 3.058-2.029.29-1.406-.609-2.797-2.015-3.087-11.608-2.435-23.55 1.116-31.927 9.493C23.638 36.855 20 45.637 20 54.97c0 9.333 3.638 18.116 10.246 24.724 6.61 6.609 15.377 10.247 24.725 10.247s18.116-3.638 24.725-10.247c6.608-6.608 10.246-15.377 10.246-24.724 0-9.348-3.638-18.116-10.246-24.725z" fill="#191919"/><path d="M54.957 30.637a2.616 2.616 0 0 0-2.61 2.609v20.638L41.943 64.289a2.624 2.624 0 0 0 0 3.696 2.603 2.603 0 0 0 1.84.768c.667 0 1.334-.26 1.841-.768l11.174-11.174c.058-.058.116-.13.174-.188a.303.303 0 0 0 .058-.087c.029-.044.058-.073.087-.116.029-.03.043-.073.072-.116.015-.03.044-.073.058-.116.015-.044.044-.072.058-.116.015-.043.044-.072.058-.116.015-.043.03-.072.044-.116l.043-.13c.015-.044.015-.073.03-.116.014-.044.028-.087.028-.13.015-.044.015-.088.015-.146 0-.043.014-.072.014-.116.015-.086.015-.173.015-.26V33.246a2.595 2.595 0 0 0-2.594-2.609z" fill="#2732FB"/></svg>
