<svg width="110" height="110" viewBox="0 0 110 110" xmlns="http://www.w3.org/2000/svg" xmlns:xlink="http://www.w3.org/1999/xlink"><title>creative_hover</title><defs><linearGradient x1="1.335%" y1="50%" x2="98.483%" y2="50%" id="b"><stop stop-color="#6A11CB" offset="0%"/><stop stop-color="#2575FC" offset="98.147%"/></linearGradient><circle id="a" cx="55" cy="55" r="55"/></defs><g fill="none" fill-rule="evenodd"><mask id="c" fill="#fff"><use xlink:href="#a"/></mask><use fill="url(#b)" xlink:href="#a"/><g fill="#FFF" mask="url(#c)"><path d="M85.487 62.609c.058-.379.102-.742.145-1.12.015-.073.015-.146.015-.219l.043-.524c.014-.087.014-.174.014-.276.015-.16.03-.32.03-.48 0-.087.014-.19.014-.277.014-.174.014-.334.014-.509 0-.087 0-.16.015-.247 0-.248.014-.495.014-.742 0-9.53-4.273-18.405-11.734-24.312-1.13-.902-2.767-.698-3.665.437a2.626 2.626 0 0 0 .434 3.68c6.2 4.918 9.75 12.28 9.75 20.21 0 .203 0 .407-.014.625v.204c0 .145-.015.276-.015.422 0 .072-.014.16-.014.232-.015.131-.015.262-.03.408 0 .072-.014.145-.014.218l-.043.436c0 .044-.015.088-.015.146-.347-.03-.68-.044-1.043-.044-6.345 0-11.502 5.18-11.502 11.552a2.621 2.621 0 0 0 2.607 2.62 2.621 2.621 0 0 0 2.608-2.62c0-3.477 2.825-6.314 6.287-6.314 3.463 0 6.287 2.837 6.287 6.314 0 3.478-2.824 6.315-6.287 6.315a2.621 2.621 0 0 0-2.607 2.619 2.621 2.621 0 0 0 2.607 2.618c6.345 0 11.503-5.18 11.503-11.552a11.486 11.486 0 0 0-5.404-9.82zM64.38 23.646c-1.594-2.648-4.1-4.51-7.084-5.238a11.361 11.361 0 0 0-8.707 1.324c-2.637 1.6-4.491 4.118-5.215 7.115a11.356 11.356 0 0 0-.334 2.604 30.569 30.569 0 0 0-3.882 1.993c-8.127 4.932-13.473 13.182-14.66 22.653a2.657 2.657 0 0 0 2.274 2.925c.116.014.217.014.333.014 1.29 0 2.42-.974 2.579-2.284.985-7.871 5.432-14.738 12.183-18.827a26.18 26.18 0 0 1 2.347-1.265c.145.305.319.61.492.916a11.5 11.5 0 0 0 9.866 5.587c2.028 0 4.07-.538 5.925-1.658 1.232-.742 1.623-2.357.884-3.594a2.604 2.604 0 0 0-3.578-.888c-2.97 1.805-6.838.844-8.635-2.138-1.796-2.983-.84-6.868 2.13-8.672a6.195 6.195 0 0 1 4.752-.727 6.283 6.283 0 0 1 3.868 2.866 2.604 2.604 0 0 0 3.578.888c1.231-.742 1.623-2.357.884-3.594zM67.972 83.181a2.602 2.602 0 0 0-3.404-1.426c-7.301 3.027-15.443 2.546-22.324-1.324-.015 0-.015-.014-.03-.014-.173-.102-.347-.19-.506-.291-.058-.03-.116-.073-.174-.102-.116-.073-.232-.145-.362-.218-.073-.044-.13-.088-.189-.131-.116-.073-.217-.146-.333-.218-.058-.044-.13-.088-.188-.131-.116-.073-.232-.16-.348-.248-.043-.029-.072-.058-.116-.087a18.2 18.2 0 0 0 .55-.887c3.1-5.558 1.116-12.615-4.418-15.714a2.593 2.593 0 0 0-3.55 1.004 2.616 2.616 0 0 0 1 3.565c3.028 1.702 4.1 5.558 2.42 8.584a6.271 6.271 0 0 1-8.547 2.43c-3.028-1.703-4.1-5.558-2.42-8.584a2.616 2.616 0 0 0-1-3.565 2.593 2.593 0 0 0-3.549 1.004c-3.129 5.587-1.144 12.643 4.39 15.757a11.283 11.283 0 0 0 5.592 1.47c1.941 0 3.853-.496 5.563-1.427.101.073.188.146.29.219.014.014.029.014.043.029.188.13.377.276.565.407.058.044.13.087.188.131.145.102.276.19.42.291.073.044.145.102.232.145.13.088.275.175.406.262.072.044.16.102.232.146l.434.262c.073.043.13.087.203.116.217.131.435.247.652.378a30.62 30.62 0 0 0 15.037 3.958c3.999 0 7.997-.786 11.822-2.372a2.621 2.621 0 0 0 1.42-3.419z"/></g></g></svg>