<svg width="45" height="45" viewBox="0 0 45 45" xmlns="http://www.w3.org/2000/svg" xmlns:xlink="http://www.w3.org/1999/xlink"><title>fb_hover</title><defs><circle id="a" cx="22.5" cy="22.5" r="22.5"/><mask id="b" x="0" y="0" width="45" height="45" fill="#fff"><use xlink:href="#a"/></mask></defs><g fill="none" fill-rule="evenodd"><path d="M23.611 16c-2.093 0-3.625 1.385-3.625 3.533v1.484h-1.578c-.408 0-.408.279-.408.44v1.362c0 .162.246.183.408.183h1.578v6.997h3.008v-6.997h2.378c.161 0 .63-.021.63-.183v-1.296c0-.078 0-.506-.311-.506h-2.697V19.84c0-.664 0-.847.836-.847l1.644-.212a.293.293 0 0 0 .293-.292v-2.193a.293.293 0 0 0-.293-.293L23.611 16z" fill="#3D47FC"/><use stroke="#2732FB" mask="url(#b)" stroke-width="6" xlink:href="#a"/></g></svg>