<svg width="32" height="25" viewBox="0 0 32 25" xmlns="http://www.w3.org/2000/svg"><title>gmail</title><g fill="none" fill-rule="evenodd"><g fill="#F2F2F2"><path d="M30.31 4.006l-2.042 20.931H3.732L2.086 4.411 16 12.36z"/><path d="M29.618.063L16 13.116 2.382.063H16z"/></g><path d="M3.732 6.09v18.847H1.509c-.833 0-1.509-.69-1.509-1.54V3.315l2.438.068L3.732 6.09z" fill="#F14336"/><path d="M32 3.314v20.084c0 .85-.676 1.54-1.51 1.54h-2.222V6.09l1.23-2.967L32 3.314z" fill="#D32E2A"/><path d="M32 1.602v1.712L28.268 6.09 16 15.214 3.732 6.09 0 3.314V1.602C0 .752.676.062 1.509.062h.873L16 10.192 29.618.063h.873c.833 0 1.509.69 1.509 1.54z" fill="#F14336"/><path fill="#D32E2A" d="M3.732 6.09L0 5.5V3.314z"/></g></svg>