<svg xmlns="http://www.w3.org/2000/svg" viewBox="0 0 15 14" width="13" height="13"><path fill="#fff" d="M9.4 13.8c-1 0-2.2-.1-2.7-.4l-.6-.4s-.4-.3-.6-.4H5c-.1.2-.4.4-.6.4H1.7c-.9 0-1.5-.7-1.5-1.5V6.7c0-.9.7-1.5 1.5-1.5h2.7c.5-.2.8-.4 1.2-.8.6-.8.9-1.6 1.3-2.4C7.3 1 7.6.5 8.1.2c.4-.2.8-.2 1.2 0 .5.3.9.9 1 1.9 0 .1 0 .2.1.2.1.2.1.5.1.7 0 .5 0 .9-.1 1.3h1c1.4 0 2.4.7 2.9 1.9.6 1.6-.2 4.4-.5 5.6-.4 1.1-1.1 1.6-2.5 1.9-.5.1-1.2.1-1.9.1zm-4.3-2.6c.7 0 .8.1.9.1.2.1.7.4.9.5l.6.3c.4.2 2.4.2 3.5.1 1.1-.2 1.2-.5 1.3-.8.5-1.7.9-3.7.6-4.6-.3-.7-.8-1-1.6-1h-2c-.3 0-.5-.1-.6-.3-.1-.2-.2-.5-.1-.7.2-.4.2-1 .2-1.8 0-.1 0-.2-.1-.4 0-.1-.1-.2-.1-.4-.1-.3-.1-.5-.2-.7-.1.2-.3.6-.4.9-.4.9-.8 1.9-1.5 2.8-.5.7-1.1 1-1.7 1.2l-.3.2c-.2.1-.5.1-.7 0H1.4v4.8h2.2c.1-.2.3-.3.6-.3.4.1.7.1.9.1z"/><path fill="#fff" d="M4.3 12.7c-.4 0-.8-.3-.8-.8V6c0-.4.3-.8.8-.8s.8.3.8.8v5.9c-.1.5-.4.8-.8.8z"/></svg>