<svg width="266" height="99" viewBox="0 0 266 99" xmlns="http://www.w3.org/2000/svg"><title>logo_nachasi</title><g fill="none" fill-rule="evenodd"><path fill="#000" d="M236.76 98.52h11.76V67.28h-11.76zm-33.602-3.96l4.319-7.26c2.28 1.8 7.2 3.66 10.44 3.66 2.22 0 2.88-.54 2.88-1.26 0-2.76-16.44.78-16.44-11.219 0-5.22 4.56-9.9 12.96-9.9 4.86 0 9.18 1.5 12.54 3.72l-3.96 7.02c-1.8-1.5-5.16-3-8.52-3-1.56 0-2.7.6-2.7 1.26 0 2.4 16.44-.6 16.44 11.459 0 5.76-5.16 9.96-13.74 9.96-5.34 0-11.1-1.86-14.22-4.44M63.48 90.42V88.8c-.72-1.02-2.58-1.56-4.26-1.56-1.8 0-3.78.6-3.78 2.4 0 1.8 1.98 2.34 3.78 2.34 1.68 0 3.54-.54 4.26-1.56zm0 7.86v-2.76C61.86 97.56 58.32 99 54.72 99c-4.32 0-9.96-2.94-9.96-9.54 0-7.2 5.64-9.238 9.96-9.238 3.78 0 7.2 1.199 8.76 3.179v-3c0-2.04-1.86-3.6-5.4-3.6-2.7 0-5.76 1.08-8.04 2.82l-3.66-6.66c3.9-3.12 9.3-4.38 13.68-4.38 7.2 0 14.218 2.52 14.218 12.18V98.28H63.48zm87.838 0V82.141c0-3-1.62-4.02-4.2-4.02-2.46 0-3.72 1.26-4.62 2.28v17.88h-10.8V58.26h10.8V72.6c1.68-1.92 4.86-4.02 9.96-4.02 6.72 0 9.66 3.961 9.66 9v20.7h-10.8zM97.56 83.76c0-9.18 7.08-15.18 16.258-15.18 6.6 0 10.68 3 12.3 5.46l-6.96 6.54c-.9-1.38-2.58-2.46-4.86-2.46-3.06 0-5.699 1.92-5.699 5.64 0 3.72 2.64 5.7 5.7 5.7 2.28 0 3.96-1.2 4.86-2.52l6.96 6.6c-1.62 2.4-5.7 5.46-12.3 5.46-9.18 0-16.26-6-16.26-15.24m89.278 14.52v-2.76c-1.62 2.04-5.16 3.48-8.76 3.48-4.319 0-9.96-2.94-9.96-9.54 0-7.2 5.641-9.238 9.96-9.238 3.781 0 7.2 1.199 8.76 3.179v-3c0-2.04-1.86-3.6-5.399-3.6-2.7 0-5.76 1.08-8.04 2.82l-3.66-6.66c3.9-3.12 9.3-4.38 13.68-4.38 7.2 0 14.22 2.52 14.22 12.18V98.28h-10.8zm0-7.86V88.8c-.72-1.02-2.58-1.56-4.26-1.56-1.8 0-3.78.6-3.78 2.4 0 1.8 1.98 2.34 3.78 2.34 1.68 0 3.54-.54 4.26-1.56zM26.399 58.261v18.96l-13.92-18.96H0V98.28h12.12V78.001L26.88 98.28h11.639V58.262z"/><path fill="#2732FB" d="M243.076 55.686l22.09-22.09-8.316-8.316-13.773 13.774-39.06-39.061-8.316 8.316"/></g></svg>