<svg width="45" height="41" viewBox="0 0 45 41" xmlns="http://www.w3.org/2000/svg" xmlns:xlink="http://www.w3.org/1999/xlink"><defs><path id="a" d="M22.668.316H.335V45H45V.316H22.668z"/></defs><g fill="none" fill-rule="evenodd"><g transform="translate(0 -2)"><mask id="b" fill="#fff"><use xlink:href="#a"/></mask><path d="M10.71 31.294H6.496c3.319 6.513 10.057 10.974 17.837 10.974 11.072 0 20.034-9.018 20.034-20.134C44.366 11.016 35.404 2 24.332 2 14.517 2 6.345 9.103 4.638 18.47H.663l5.459 7.318 5.47-7.319H8.355c1.652-7.336 8.181-12.804 15.977-12.804 9.053 0 16.399 7.371 16.399 16.47 0 9.095-7.346 16.469-16.399 16.469-5.672 0-10.678-2.906-13.621-7.31z" fill="#A1A1AC" mask="url(#b)"/></g><text font-family="Rubik-Bold, Rubik" font-size="10" font-weight="bold" fill="#A1A1AC" transform="translate(0 -2)"><tspan x="16.395" y="26">Ще</tspan></text></g></svg>