<svg width="110" height="110" viewBox="0 0 110 110" xmlns="http://www.w3.org/2000/svg" xmlns:xlink="http://www.w3.org/1999/xlink"><path d="M84.586 47.329H82.37a28.696 28.696 0 0 0-2.628-6.358l1.571-1.571a5.337 5.337 0 0 0 0-7.529L78.043 28.6c-1-1-2.343-1.557-3.757-1.557a5.297 5.297 0 0 0-3.757 1.557l-1.572 1.571a27.503 27.503 0 0 0-6.357-2.628v-2.214A5.338 5.338 0 0 0 57.271 20h-4.628a5.338 5.338 0 0 0-5.329 5.329v2.214a28.696 28.696 0 0 0-6.357 2.628L39.386 28.6c-1-1-2.343-1.557-3.757-1.557A5.272 5.272 0 0 0 31.87 28.6L28.6 31.871c-2.071 2.086-2.071 5.458 0 7.529l1.571 1.571a27.503 27.503 0 0 0-2.628 6.358h-2.214A5.338 5.338 0 0 0 20 52.657v4.629a5.338 5.338 0 0 0 5.329 5.328h2.214a28.696 28.696 0 0 0 2.628 6.357L28.6 70.543c-2.071 2.043-2.071 5.414 0 7.5l3.271 3.271c1 1 2.343 1.557 3.758 1.557a5.272 5.272 0 0 0 3.757-1.557l1.571-1.571c2 1.143 4.129 2.014 6.357 2.628v2.215a5.338 5.338 0 0 0 5.329 5.328h4.628a5.338 5.338 0 0 0 5.329-5.328V82.37a28.696 28.696 0 0 0 6.357-2.628l1.572 1.571c1 1 2.342 1.557 3.757 1.557a5.297 5.297 0 0 0 3.757-1.557l3.271-3.271a5.337 5.337 0 0 0 0-7.529l-1.571-1.571c1.143-2 2.014-4.129 2.628-6.357h2.215a5.338 5.338 0 0 0 5.328-5.329V52.63c0-2.915-2.385-5.3-5.328-5.3zm0 10.128h-6.357l-.415 2.072c-.6 3-1.757 5.828-3.471 8.371l-1.172 1.757 4.5 4.5a.181.181 0 0 1 0 .257L74.4 77.671a.178.178 0 0 1-.129.058c-.071 0-.114-.043-.128-.058l-4.5-4.5-1.757 1.172a23.06 23.06 0 0 1-8.372 3.471l-2.071.415v6.357a.19.19 0 0 1-.186.185H52.63a.19.19 0 0 1-.186-.185v-6.357l-2.072-.415c-3-.6-5.828-1.757-8.371-3.471l-1.757-1.172-4.472 4.5a.178.178 0 0 1-.128.058.178.178 0 0 1-.129-.058L32.243 74.4a.181.181 0 0 1 0-.257l4.5-4.5-1.172-1.757a23.06 23.06 0 0 1-3.471-8.372l-.414-2.071h-6.357a.19.19 0 0 1-.186-.186V52.63c0-.1.086-.186.186-.186h6.357l.414-2.072c.6-3 1.757-5.828 3.471-8.371l1.172-1.757-4.5-4.472a.181.181 0 0 1 0-.257l3.271-3.271a.178.178 0 0 1 .129-.057c.071 0 .114.043.128.057l4.5 4.5 1.758-1.172A23.06 23.06 0 0 1 50.4 32.1l2.071-.414v-6.357c0-.1.086-.186.186-.186h4.629c.1 0 .185.086.185.186v6.357l2.072.414c3 .6 5.828 1.757 8.371 3.471l1.757 1.172 4.472-4.5c.014-.014.057-.057.128-.057.072 0 .115.043.129.057l3.271 3.271a.181.181 0 0 1 0 .257l-4.5 4.5 1.172 1.758a23.06 23.06 0 0 1 3.471 8.371l.415 2.071h6.357c.1 0 .185.086.185.186v4.614a.19.19 0 0 1-.185.186z" fill="#191919"/><path d="M66.686 52.386a2.579 2.579 0 0 0-2.572 2.571c0 5.043-4.114 9.157-9.157 9.157S45.8 60 45.8 54.957s4.114-9.157 9.157-9.157a2.579 2.579 0 0 0 2.572-2.571 2.579 2.579 0 0 0-2.572-2.572c-7.886 0-14.3 6.414-14.3 14.3 0 7.886 6.414 14.3 14.3 14.3 7.886 0 14.3-6.414 14.3-14.3a2.579 2.579 0 0 0-2.571-2.571z" fill="#2732FB"/></svg>
