<svg width="110" height="110" viewBox="0 0 110 110" xmlns="http://www.w3.org/2000/svg" xmlns:xlink="http://www.w3.org/1999/xlink"><path d="M66.297 20H43.703c-3.696 0-6.702 3.015-6.702 6.72v40.162c0 3.706 3.006 6.72 6.702 6.72h9.299v14.394c0 1.107.894 2.004 1.998 2.004a2.001 2.001 0 0 0 1.998-2.004V71.6A2.001 2.001 0 0 0 55 69.595H43.703a2.712 2.712 0 0 1-2.706-2.713V26.72a2.712 2.712 0 0 1 2.706-2.713h22.594a2.712 2.712 0 0 1 2.705 2.713v40.162a2.712 2.712 0 0 1-2.705 2.713 2.001 2.001 0 0 0-1.999 2.004c0 1.106.895 2.003 1.999 2.003 3.695 0 6.702-3.014 6.702-6.72V26.72c0-3.705-3.007-6.72-6.702-6.72z" fill="#191919"/><path d="M62.993 33.775c0-4.42-3.586-8.014-7.993-8.014-4.408 0-7.993 3.595-7.993 8.014a8.013 8.013 0 0 0 3.344 6.513 8.014 8.014 0 0 0 0 13.026 8.014 8.014 0 0 0-3.344 6.513c0 4.42 3.585 8.014 7.993 8.014 4.407 0 7.993-3.595 7.993-8.014a8.013 8.013 0 0 0-3.345-6.513 8.014 8.014 0 0 0 0-13.026 8.014 8.014 0 0 0 3.345-6.513zM55 29.768a4.006 4.006 0 0 1 3.996 4.007A4.006 4.006 0 0 1 55 37.782a4.006 4.006 0 0 1-3.997-4.007A4.006 4.006 0 0 1 55 29.768zm0 13.026a4.006 4.006 0 0 1 3.996 4.007A4.006 4.006 0 0 1 55 50.808a4.006 4.006 0 0 1-3.997-4.007A4.006 4.006 0 0 1 55 42.794zm0 21.04a4.006 4.006 0 0 1-3.997-4.006A4.006 4.006 0 0 1 55 55.82a4.006 4.006 0 0 1 3.996 4.007A4.006 4.006 0 0 1 55 63.834z" fill="#2732FB"/></svg>
