<svg xmlns="http://www.w3.org/2000/svg" width="20" height="13" viewBox="0 0 21 13"><path fill="#fff" d="M.871 5.9c-.1.2-.2.4-.2.6s.1.4.2.6c.2.2 4 5.8 9.6 5.8s9.4-5.6 9.6-5.8c.2-.2.2-.4.2-.6s-.1-.4-.2-.6c-.2-.2-4-5.8-9.6-5.8s-9.3 5.6-9.6 5.8zm1.8.6c1.5-1.4 3.9-4.8 7.9-4.8s6.3 3.3 7.9 4.7c-1.5 1.4-3.9 4.7-7.9 4.7s-6.4-3.2-7.9-4.6z"/><path fill="#fff" d="M8.271 6.5c0 1.3 1 2.4 2.3 2.4s2.3-1.1 2.3-2.4-1-2.4-2.3-2.4-2.3 1.1-2.3 2.4zm3.3 0c0 .6-.5 1.1-1 1.1-.6 0-1-.5-1-1.1s.5-1.1 1-1.1 1 .5 1 1.1z"/></svg>